<svg xmlns="http://www.w3.org/2000/svg" width="160.666" height="160.666" viewBox="0 0 160.666 160.666">
  <g id="Grupo_70745" data-name="Grupo 70745" transform="translate(-714 -1381)">
    <g id="Elipse_4874" data-name="Elipse 4874" transform="translate(714 1381)" fill="#fff" stroke="#8a8a8a" stroke-width="3" stroke-dasharray="3 4">
      <circle cx="80.333" cy="80.333" r="80.333" stroke="none"/>
      <circle cx="80.333" cy="80.333" r="78.833" fill="none"/>
    </g>
    <ellipse id="Elipse_4875" data-name="Elipse 4875" cx="71.726" cy="71.316" rx="71.726" ry="71.316" transform="translate(723 1390)" fill="#bb83ff" opacity="0.12"/>
    <g id="marketing" transform="translate(748 1415)">
      <g id="Grupo_62927" data-name="Grupo 62927" transform="translate(2.457 2.457)">
        <g id="Grupo_62909" data-name="Grupo 62909" transform="translate(0 2.914)">
          <path id="Trazado_111177" data-name="Trazado 111177" d="M60.279,76.849v5.828a5.826,5.826,0,0,1-5.828,5.828H7.828A5.826,5.826,0,0,1,2,82.677V9.828A5.826,5.826,0,0,1,7.828,4H19.484V9.828H9.285a1.461,1.461,0,0,0-1.457,1.457V81.22a1.461,1.461,0,0,0,1.457,1.457h43.71a1.461,1.461,0,0,0,1.457-1.457V76.849Z" transform="translate(-2 -4)" fill="#bb83ff"/>
        </g>
        <g id="Grupo_62910" data-name="Grupo 62910" transform="translate(52.451 27.916)">
          <path id="Trazado_111178" data-name="Trazado 111178" d="M43.828,21.175V57.351H38V22.384a14.4,14.4,0,0,0,5.828-1.224Z" transform="translate(-38 -21.16)" fill="#bb83ff"/>
        </g>
        <g id="Grupo_62911" data-name="Grupo 62911" transform="translate(5.828 8.742)">
          <path id="Trazado_111179" data-name="Trazado 111179" d="M43.794,25.411a14.526,14.526,0,0,1-5.741-11.583,14.9,14.9,0,0,1,.291-2.929,1.952,1.952,0,0,1-.291.015H20.57A2.923,2.923,0,0,1,17.656,8H7.457A1.461,1.461,0,0,0,6,9.457V79.392a1.461,1.461,0,0,0,1.457,1.457h43.71a1.461,1.461,0,0,0,1.457-1.457V28.4A14.436,14.436,0,0,1,43.794,25.411Z" transform="translate(-6 -8)" fill="#fff"/>
        </g>
        <g id="Grupo_62912" data-name="Grupo 62912" transform="translate(32.054 64.107)">
          <path id="Trazado_111180" data-name="Trazado 111180" d="M35.656,51.828v5.828L25.37,53.795a2.1,2.1,0,0,1,0-3.934L35.656,46Z" transform="translate(-24 -46)" fill="#aab2bd"/>
        </g>
        <g id="Grupo_62913" data-name="Grupo 62913" transform="translate(75.763 64.107)">
          <path id="Trazado_111181" data-name="Trazado 111181" d="M63.951,47.7a5.831,5.831,0,0,1-4.123,9.951H54V46h5.828A5.864,5.864,0,0,1,63.951,47.7Z" transform="translate(-54 -46)" fill="#aab2bd"/>
        </g>
        <g id="Grupo_62914" data-name="Grupo 62914" transform="translate(43.71 69.935)">
          <path id="Trazado_111182" data-name="Trazado 111182" d="M64.054,50v5.828H32V50Z" transform="translate(-32 -50)" fill="#4fc1e9"/>
        </g>
        <g id="Grupo_62915" data-name="Grupo 62915" transform="translate(43.71 64.107)">
          <path id="Trazado_111183" data-name="Trazado 111183" d="M64.054,46v5.828H32V46H64.054Z" transform="translate(-32 -46)" fill="#b4dd7f"/>
        </g>
        <g id="Grupo_62916" data-name="Grupo 62916" transform="translate(11.656 27.683)">
          <path id="Trazado_111184" data-name="Trazado 111184" d="M38.091,24.57a17.515,17.515,0,1,0,6.877,13.914A17.419,17.419,0,0,0,38.091,24.57Z" transform="translate(-10 -21)" fill="#e6e9ed"/>
        </g>
        <g id="Grupo_62917" data-name="Grupo 62917" transform="translate(32.054 39.339)">
          <path id="Trazado_111185" data-name="Trazado 111185" d="M24,29h5.828V43.57H24Z" transform="translate(-24 -29)" fill="#f9e478"/>
        </g>
        <g id="Grupo_62918" data-name="Grupo 62918" transform="translate(26.226 36.425)">
          <path id="Trazado_111186" data-name="Trazado 111186" d="M25.828,29.914v14.57H20V27h5.828Z" transform="translate(-20 -27)" fill="#f9e478"/>
        </g>
        <g id="Grupo_62919" data-name="Grupo 62919" transform="translate(20.398 45.167)">
          <path id="Trazado_111187" data-name="Trazado 111187" d="M16,33h5.828v8.742H16Z" transform="translate(-16 -33)" fill="#f9e478"/>
        </g>
        <g id="Grupo_62920" data-name="Grupo 62920" transform="translate(17.484)">
          <path id="Trazado_111188" data-name="Trazado 111188" d="M37.312,4.914V7.828a14.467,14.467,0,0,0-2.623,5.813,1.952,1.952,0,0,1-.291.015H16.914A2.923,2.923,0,0,1,14,10.742V4.914A2.923,2.923,0,0,1,16.914,2H34.4A2.923,2.923,0,0,1,37.312,4.914Z" transform="translate(-14 -2)" fill="#31d9e7"/>
        </g>
        <g id="Grupo_62921" data-name="Grupo 62921" transform="translate(74.306 14.57)">
          <path id="Trazado_111189" data-name="Trazado 111189" d="M61.742,12l2.914,5.828H55.914L53,12h8.742Z" transform="translate(-53 -12)" fill="#cf9e76"/>
        </g>
        <g id="Grupo_62922" data-name="Grupo 62922" transform="translate(74.306 8.742)">
          <path id="Trazado_111190" data-name="Trazado 111190" d="M64.656,8l-2.914,5.828H53L55.914,8Z" transform="translate(-53 -8)" fill="#cf9e76"/>
        </g>
        <g id="Grupo_62923" data-name="Grupo 62923" transform="translate(37.882 0)">
          <path id="Trazado_111191" data-name="Trazado 111191" d="M57.14,16.57A14.5,14.5,0,0,1,48.4,29.916,14.569,14.569,0,0,1,28,16.57a14.9,14.9,0,0,1,.291-2.929A14.573,14.573,0,0,1,57.14,16.57Z" transform="translate(-28 -2)" fill="#e6e9ed"/>
        </g>
        <g id="Grupo_62924" data-name="Grupo 62924" transform="translate(47.14 8.266)">
          <ellipse id="Elipse_4758" data-name="Elipse 4758" cx="5.717" cy="6.288" rx="5.717" ry="6.288" transform="translate(0 0)" fill="#f17781"/>
        </g>
        <g id="Grupo_62925" data-name="Grupo 62925" transform="translate(64.107 32.054)">
          <path id="Trazado_111192" data-name="Trazado 111192" d="M57.656,24a11.642,11.642,0,1,1-7.285,2.55A11.653,11.653,0,0,1,57.656,24Z" transform="translate(-46 -24)" fill="#e6e9ed"/>
        </g>
        <g id="Grupo_62926" data-name="Grupo 62926" transform="translate(69.935 37.882)">
          <path id="Trazado_111193" data-name="Trazado 111193" d="M60.359,31.715a2.369,2.369,0,0,1,0,4.225l-6.95,3.468A2.357,2.357,0,0,1,50,37.3V30.36a2.357,2.357,0,0,1,3.409-2.113Z" transform="translate(-50 -28)" fill="#f17781"/>
        </g>
      </g>
      <g id="Grupo_62928" data-name="Grupo 62928" transform="translate(1 1)">
        <path id="Trazado_111194" data-name="Trazado 111194" d="M84.048,65.107H62.193V31.285a15.979,15.979,0,0,0,1.54-.893l5.212,6.514a13.3,13.3,0,1,0,2.283-1.812L66,28.565a15.976,15.976,0,0,0,4.858-10.081h5l2.914,5.828h12l-3.642-7.285,3.642-7.285h-12L75.863,15.57h-5A16.007,16.007,0,0,0,44.645,4.733,4.366,4.366,0,0,0,40.339,1H22.855a4.365,4.365,0,0,0-4.1,2.914H8.285A7.293,7.293,0,0,0,1,11.2V84.048a7.293,7.293,0,0,0,7.285,7.285H54.908a7.293,7.293,0,0,0,7.285-7.285V79.677H84.048a7.285,7.285,0,1,0,0-14.57Zm4.371-18.941a10.2,10.2,0,1,1-10.2-10.2A10.212,10.212,0,0,1,88.419,46.167ZM80.578,21.4l-1.457-2.914H84.6L86.062,21.4Zm0-8.742h5.484L84.6,15.57H79.121Zm-61.826,0a4.365,4.365,0,0,0,4.1,2.914h16.1c-.044.481-.074.965-.074,1.457A15.971,15.971,0,0,0,44.093,28.82l-2.222,2.915a19.112,19.112,0,1,0,2.311,1.773l2.225-2.92a15.892,15.892,0,0,0,7.045,2.391V65.107H45.9L35.363,69.06a3.56,3.56,0,0,0,0,6.666L45.9,79.677h7.55v2.914H9.742V12.656Zm20.13,42.253H35.968V43.253h2.914Zm-5.828,0H30.14V40.339h2.914Zm-5.828,0H24.312V49.08h2.914ZM43.95,57.822a16.007,16.007,0,0,1-24.708,0Zm1.9-2.914H41.8V40.339H35.968V37.425H27.226v8.742H21.4v8.742H17.339a16.027,16.027,0,1,1,28.516,0ZM36.387,73a.647.647,0,0,1,0-1.211l8.322-3.121v7.451Zm11.236,3.765V73.849h29.14v2.914Zm29.14-5.828H47.623V68.021h29.14ZM59.279,65.107H56.365V32.979a15.767,15.767,0,0,0,2.914-.548ZM54.908,3.914A13.127,13.127,0,0,1,67.935,15.57H62.046a7.285,7.285,0,1,0,0,2.914h5.889A13.111,13.111,0,1,1,54.908,3.914Zm4.1,14.57a4.371,4.371,0,1,1,0-2.914h-5.56v2.914ZM21.4,5.371a1.458,1.458,0,0,1,1.457-1.457H40.339A1.458,1.458,0,0,1,41.8,5.371v2.47a15.935,15.935,0,0,0-2.29,4.808l-16.65.007A1.458,1.458,0,0,1,21.4,11.2ZM59.279,84.048a4.376,4.376,0,0,1-4.371,4.371H8.285a4.376,4.376,0,0,1-4.371-4.371V11.2A4.376,4.376,0,0,1,8.285,6.828h10.2V9.742H9.742a2.917,2.917,0,0,0-2.914,2.914V82.591a2.917,2.917,0,0,0,2.914,2.914h43.71a2.917,2.917,0,0,0,2.914-2.914V79.677h2.914Zm24.769-7.285H79.677V68.021h4.371a4.371,4.371,0,1,1,0,8.742Z" transform="translate(-1 -1)" fill="#47286d"/>
        <path id="Trazado_111195" data-name="Trazado 111195" d="M49,37.755a3.816,3.816,0,0,0,5.521,3.412L61.463,37.7a3.816,3.816,0,0,0,0-6.825L54.521,27.4A3.816,3.816,0,0,0,49,30.814Zm2.914-6.941a.9.9,0,0,1,.9-.9.892.892,0,0,1,.4.095l6.941,3.471a.9.9,0,0,1,0,1.611l-6.941,3.471a.926.926,0,0,1-1.3-.806Z" transform="translate(20.935 10.882)" fill="#47286d"/>
        <path id="Trazado_111196" data-name="Trazado 111196" d="M9,49H26.484v2.914H9Z" transform="translate(2.656 20.935)" fill="#47286d"/>
        <path id="Trazado_111197" data-name="Trazado 111197" d="M9,53H26.484v2.914H9Z" transform="translate(2.656 22.763)" fill="#47286d"/>
        <path id="Trazado_111198" data-name="Trazado 111198" d="M9,13h2.914v2.914H9Z" transform="translate(2.656 4.484)" fill="#47286d"/>
        <path id="Trazado_111199" data-name="Trazado 111199" d="M13,13H30.484v2.914H13Z" transform="translate(4.484 4.484)" fill="#47286d"/>
        <path id="Trazado_111200" data-name="Trazado 111200" d="M9,17h2.914v2.914H9Z" transform="translate(2.656 6.312)" fill="#47286d"/>
        <path id="Trazado_111201" data-name="Trazado 111201" d="M13,17H30.484v2.914H13Z" transform="translate(4.484 6.312)" fill="#47286d"/>
      </g>
    </g>
  </g>
</svg>
