<svg xmlns="http://www.w3.org/2000/svg" width="281.85" height="209.896" viewBox="0 0 281.85 209.896">
  <g id="Grupo_68324" data-name="Grupo 68324" transform="translate(-81.608 -70.786)">
    <path id="Trazado_114134" data-name="Trazado 114134" d="M105.623,278.187c-7.946-3.892-26.941-9.379-23.632-32.918,1.061-7.546,10.755-19.035,17.826-21.878,27.283-10.97,20.776-20.191,8.964-40.1-9.186-21.217-4.767-58.632,16.153-69.844,13.511-7.241,37.711,3.357,51.91-2.42,15.319-6.233,16.85-23.819,31.623-31.256C252.786,57.461,317.5,77.848,319.517,128.1c3.673,91.617,75.5,56.648,25.5,151.334Z" transform="translate(0)" fill="#bb83ff" opacity="0.32"/>
    <g id="Grupo_68263" data-name="Grupo 68263" transform="translate(109.258 237.859)">
      <g id="Grupo_68258" data-name="Grupo 68258" transform="translate(3.732)">
        <path id="Trazado_114135" data-name="Trazado 114135" d="M364.546,1556.447l-.43-.212c-.17-.084-4.165-2.083-5.184-5.1a9.052,9.052,0,0,1-.466-4.169,2.9,2.9,0,0,1,1.7-2.526c1.76-.594,3.973,1.417,5.04,4.577,1.012,3-.428,6.825-.49,6.987Zm-4.5-10.945a2.685,2.685,0,0,0-.718,1.595,8.171,8.171,0,0,0,.431,3.754c.717,2.126,3.266,3.766,4.3,4.359.337-1.083,1.033-3.8.318-5.918l.414-.14-.414.14c-.879-2.606-2.68-4.451-3.932-4.028A1.149,1.149,0,0,0,360.047,1545.5Z" transform="translate(-358.387 -1544.331)" fill="#f7f9ff"/>
      </g>
      <g id="Grupo_68259" data-name="Grupo 68259" transform="translate(0 11.755)">
        <path id="Trazado_114136" data-name="Trazado 114136" d="M337.823,1653.489l-.427.219c-.168.086-4.158,2.1-7.19,1.112-3.172-1.031-5.208-3.222-4.634-4.988a2.9,2.9,0,0,1,2.507-1.73,9.05,9.05,0,0,1,4.174.419h0c3.01.978,5.221,4.418,5.313,4.564Zm-11.061-3.915a1.217,1.217,0,0,0-.359.528c-.408,1.256,1.457,3.036,4.072,3.886,2.134.693,4.971-.372,6.065-.848-.667-.917-2.43-3.1-4.558-3.788a8.174,8.174,0,0,0-3.759-.389A2.916,2.916,0,0,0,326.762,1649.574Z" transform="translate(-325.475 -1648.011)" fill="#f7f9ff"/>
      </g>
      <g id="Grupo_68260" data-name="Grupo 68260" transform="translate(10.955 6.29)">
        <path id="Trazado_114137" data-name="Trazado 114137" d="M427.35,1608.481A14.051,14.051,0,0,1,423,1610.99l-.455.154-.111-.467c-.044-.184-1.053-4.536.623-7.249a9.052,9.052,0,0,1,2.913-3.019,2.508,2.508,0,0,1,4.118,2.544,9.052,9.052,0,0,1-1.4,3.956h0A7.272,7.272,0,0,1,427.35,1608.481Zm-4.159,1.5c1.049-.431,3.584-1.628,4.76-3.531h0a8.173,8.173,0,0,0,1.268-3.56,1.67,1.67,0,0,0-2.8-1.729,8.171,8.171,0,0,0-2.616,2.727C422.625,1605.8,422.988,1608.805,423.191,1609.981Z" transform="translate(-422.096 -1599.803)" fill="#f7f9ff"/>
      </g>
      <g id="Grupo_68262" data-name="Grupo 68262" transform="translate(8.168 9.659)">
        <g id="Grupo_68261" data-name="Grupo 68261">
          <path id="Trazado_114138" data-name="Trazado 114138" d="M407.132,1645.52l-1.032.65-.023-.024-.105.05-.351.165-.205-.329c-.506-.811-.981-1.588-1.413-2.311-5.4-9.031-6.356-13.229-6.394-13.4l-.094-.428,1.694-.368.088.43c.023.1,1.018,4.27,6.344,13.144.409.68.833,1.373,1.261,2.058Z" transform="translate(-397.515 -1629.521)" fill="#f7f9ff"/>
        </g>
      </g>
    </g>
    <path id="Trazado_114139" data-name="Trazado 114139" d="M470.572,1584.008a14.9,14.9,0,0,0-28.994-4.828,5.651,5.651,0,0,0-8.409,6.218,11.964,11.964,0,0,0-13.74,11.825c0,6.6,5.184,11.348,11.788,11.348,2.776,0,28.046-1.106,28.046-1.106S470.572,1590.4,470.572,1584.008Z" transform="translate(-299.517 -1328.443)" fill="#3f964f"/>
    <path id="Trazado_114140" data-name="Trazado 114140" d="M1833.987,1523.857a8.566,8.566,0,0,1-.145,1.58h-77.826l4.912-25.118a12.148,12.148,0,0,1-6-10.159c0-7,6.679-12.672,14.917-12.672s14.916,5.674,14.916,12.672a10.85,10.85,0,0,1-.361,2.78c.592-.057,1.193-.089,1.8-.089,6.835,0,12.641,3.741,14.738,8.943a6.676,6.676,0,0,1,3.066-.729c3.262,0,5.906,2.246,5.906,5.017a4.313,4.313,0,0,1-.181,1.234,14.886,14.886,0,0,1,1.865-.118c5.933,0,10.9,3.512,12.181,8.221a8.59,8.59,0,0,1,10.208,8.435Z" transform="translate(-1483.598 -1247.208)" fill="#3f964f"/>
    <g id="Grupo_68265" data-name="Grupo 68265" transform="translate(271.504 193.36)">
      <path id="Trazado_114141" data-name="Trazado 114141" d="M1912.994,1159.854c-2.567,2.765-7.575,3.428-7.575,3.428s-.214-5.51,2.352-8.275,5.816-3.921,7.258-2.583S1915.56,1157.089,1912.994,1159.854Z" transform="translate(-1888.524 -1151.867)" fill="#3f964f"/>
      <path id="Trazado_114142" data-name="Trazado 114142" d="M1822.05,1182c.686,3.71-1.772,8.123-1.772,8.123s-4.549-3.118-5.235-6.827.326-7.007,2.261-7.365S1821.364,1178.294,1822.05,1182Z" transform="translate(-1808.209 -1173.177)" fill="#3f964f"/>
      <path id="Trazado_114143" data-name="Trazado 114143" d="M1762.59,1283.7c-.251.606-.456,1.01-.51,1.113a.13.13,0,0,1-.014.025h0l0,0-.016-.009c-.05-.035-.2-.135-.414-.3-1.164-.859-4.315-3.42-4.93-6.421-.755-3.7.195-7.013,2.122-7.406s4.1,2.282,4.86,5.976a10.8,10.8,0,0,1-.374,4.955A18.009,18.009,0,0,1,1762.59,1283.7Z" transform="translate(-1756.444 -1257.194)" fill="#3f964f"/>
      <path id="Trazado_114144" data-name="Trazado 114144" d="M1870.367,1277.809c-3.767-.212-7.472-3.646-7.472-3.646s4.106-3.68,7.873-3.468,6.73,1.977,6.62,3.941S1874.134,1278.021,1870.367,1277.809Z" transform="translate(-1850.825 -1257.214)" fill="#3f964f"/>
      <path id="Trazado_114145" data-name="Trazado 114145" d="M1810.781,1362.508c-3.768.182-7.812-2.847-7.812-2.847s3.7-4.089,7.469-4.27,6.9,1.264,6.994,3.229S1814.55,1362.327,1810.781,1362.508Z" transform="translate(-1797.695 -1332.302)" fill="#3f964f"/>
      <g id="Grupo_68264" data-name="Grupo 68264" transform="translate(5.19 9.684)">
        <path id="Trazado_114146" data-name="Trazado 114146" d="M1815.294,1238.082c-.043.036-4.044,3.566-10.684,14.817q-.729,1.237-1.5,2.6l-.055-.03-.405-.23v0h0l-.016-.009c-.05-.034-.2-.135-.414-.3q.866-1.528,1.677-2.9c6.619-11.167,10.534-14.6,10.711-14.755Z" transform="translate(-1802.216 -1237.28)" fill="#3f964f"/>
      </g>
    </g>
    <g id="Grupo_68267" data-name="Grupo 68267" transform="translate(119.933 165.343)">
      <path id="Trazado_114147" data-name="Trazado 114147" d="M427.446,907.291c2.763,2.446,3.527,7.329,3.527,7.329s-5.384.336-8.147-2.11-3.969-5.6-2.693-7.039S424.683,904.845,427.446,907.291Z" transform="translate(-419.624 -904.759)" fill="#3f964f"/>
      <path id="Trazado_114148" data-name="Trazado 114148" d="M452.138,1017.407c3.612-.756,7.985,1.546,7.985,1.546s-2.944,4.52-6.557,5.277-6.86-.158-7.255-2.042S448.525,1018.163,452.138,1017.407Z" transform="translate(-443.251 -1004.499)" fill="#3f964f"/>
      <path id="Trazado_114149" data-name="Trazado 114149" d="M552.967,1072.842c.6.232,1,.423,1.1.473a.11.11,0,0,1,.025.013h0l0,0-.008.016c-.033.05-.128.2-.279.412-.813,1.158-3.246,4.3-6.166,4.969-3.6.824-6.863-.029-7.292-1.9s2.137-4.065,5.733-4.89a10.57,10.57,0,0,1,4.854.252A17.737,17.737,0,0,1,552.967,1072.842Z" transform="translate(-526.617 -1052.816)" fill="#3f964f"/>
      <path id="Trazado_114150" data-name="Trazado 114150" d="M543.861,913.915c-.121,3.689-3.394,7.392-3.394,7.392s-3.694-3.931-3.573-7.62,1.779-6.628,3.7-6.565S543.982,910.227,543.861,913.915Z" transform="translate(-523.595 -906.853)" fill="#3f964f"/>
      <path id="Trazado_114151" data-name="Trazado 114151" d="M627.952,970.563c.264,3.681-2.6,7.705-2.6,7.705s-4.084-3.525-4.348-7.206,1.078-6.777,3-6.915S627.688,966.882,627.952,970.563Z" transform="translate(-598.138 -957.41)" fill="#3f964f"/>
      <g id="Grupo_68266" data-name="Grupo 68266" transform="translate(9.641 8.54)">
        <path id="Trazado_114152" data-name="Trazado 114152" d="M505.42,980.079c.036.041,3.58,3.873,14.736,10.108q1.227.684,2.576,1.408l-.029.055-.215.4h0v0l-.008.016c-.033.05-.128.2-.279.412q-1.515-.812-2.87-1.574c-11.074-6.216-14.523-9.966-14.676-10.135Z" transform="translate(-504.652 -980.079)" fill="#3f964f"/>
      </g>
    </g>
    <g id="Grupo_68269" data-name="Grupo 68269" transform="translate(127.623 198.556)">
      <path id="Trazado_114153" data-name="Trazado 114153" d="M491.179,1321.608c2.733-1.505,6.838-.726,6.838-.726s-1.262,4.382-3.995,5.888-5.585,1.57-6.37.145S488.446,1323.113,491.179,1321.608Z" transform="translate(-487.451 -1306.736)" fill="#3f964f"/>
      <path id="Trazado_114154" data-name="Trazado 114154" d="M595.081,1301.1c.424-3.091,3.5-5.919,3.5-5.919s2.763,3.628,2.339,6.719-2.074,5.418-3.686,5.2S594.657,1304.186,595.081,1301.1Z" transform="translate(-582.789 -1284.123)" fill="#3f964f"/>
      <path id="Trazado_114155" data-name="Trazado 114155" d="M668.067,1236.64c.354-.411.62-.675.689-.742a.1.1,0,0,1,.017-.016h0a0,0,0,0,1,0,0l.01.011c.03.04.12.158.249.339.691.977,2.5,3.805,2.205,6.321-.366,3.1-1.973,5.456-3.588,5.265s-2.63-2.857-2.265-5.954a8.938,8.938,0,0,1,1.579-3.794A14.931,14.931,0,0,1,668.067,1236.64Z" transform="translate(-645.146 -1231.551)" fill="#3f964f"/>
      <path id="Trazado_114156" data-name="Trazado 114156" d="M532.9,1247.39c2.9,1.144,4.922,4.8,4.922,4.8s-4.18,1.825-7.082.681-4.772-3.3-4.175-4.813S530,1246.246,532.9,1247.39Z" transform="translate(-522.033 -1241.139)" fill="#3f964f"/>
      <path id="Trazado_114157" data-name="Trazado 114157" d="M600.84,1198.07c3.006.835,5.4,4.263,5.4,4.263s-3.967,2.251-6.973,1.415-5.09-2.783-4.654-4.351S597.833,1197.235,600.84,1198.07Z" transform="translate(-582.407 -1197.692)" fill="#3f964f"/>
      <g id="Grupo_68268" data-name="Grupo 68268" transform="translate(9.246 4.006)">
        <path id="Trazado_114158" data-name="Trazado 114158" d="M569,1243.538c.043-.017,4.1-1.751,12.235-8.862q.893-.782,1.853-1.651l.035.038.259.286h0l0,0,.01.011c.03.04.12.157.249.339q-1.077.976-2.068,1.839c-8.1,7.051-12.061,8.733-12.24,8.807Z" transform="translate(-569.002 -1233.025)" fill="#3f964f"/>
      </g>
    </g>
    <g id="Grupo_68277" data-name="Grupo 68277" transform="translate(333.113 228.573)">
      <g id="Grupo_68270" data-name="Grupo 68270" transform="translate(11.7)">
        <path id="Trazado_114159" data-name="Trazado 114159" d="M2403.3,1472.771l-.083-.44c-.033-.173-.783-4.274.9-6.73,1.318-1.926,3.1-3.171,4.542-3.171a1.984,1.984,0,0,1,1.143.335c1.43.979,1.173,3.758-.585,6.327-1.668,2.437-5.329,3.511-5.484,3.555Zm5.356-9.524c-1.144,0-2.734,1.158-3.869,2.815-1.183,1.728-.976,4.548-.837,5.653a9.918,9.918,0,0,0,4.591-3.084c1.449-2.118,1.815-4.5.8-5.192A1.184,1.184,0,0,0,2408.652,1463.247Z" transform="translate(-2403.017 -1462.431)" fill="#f7f9ff"/>
      </g>
      <g id="Grupo_68271" data-name="Grupo 68271" transform="translate(3.75 3.757)">
        <path id="Trazado_114160" data-name="Trazado 114160" d="M2338.691,1506.852l-.4-.2c-.159-.077-3.9-1.923-4.864-4.737-1.011-2.944-.52-5.691,1.119-6.254a1.872,1.872,0,0,1,.609-.1c1.545,0,3.238,1.787,4.117,4.346.959,2.793-.365,6.372-.421,6.523Zm-3.538-10.471a1.058,1.058,0,0,0-.344.056c-1.166.4-1.446,2.79-.612,5.217.68,1.981,3.066,3.5,4.035,4.047a9.917,9.917,0,0,0,.266-5.524C2337.755,1498.012,2336.317,1496.38,2335.153,1496.38Z" transform="translate(-2332.9 -1495.564)" fill="#f7f9ff"/>
      </g>
      <g id="Grupo_68272" data-name="Grupo 68272" transform="translate(0 12.499)">
        <path id="Trazado_114161" data-name="Trazado 114161" d="M2305.863,1583.8l-.569-.094-.039-.053c-.066-.033-.158-.08-.275-.141-1.1-.583-3.747-2.185-4.577-4.454a8.451,8.451,0,0,1-.529-3.88,2.7,2.7,0,0,1,1.53-2.395,1.874,1.874,0,0,1,.645-.112c1.533,0,3.244,1.755,4.161,4.267a8.37,8.37,0,0,1,.293,3.923,13.953,13.953,0,0,1-.317,1.664c-.118.472-.227.8-.262.908Zm-3.813-10.313a1.068,1.068,0,0,0-.366.063c-.515.188-.88.82-1,1.735a7.627,7.627,0,0,0,.487,3.493c.729,1.995,3.234,3.5,4.112,3.97.034-.12.073-.263.113-.422a13.161,13.161,0,0,0,.3-1.568,7.577,7.577,0,0,0-.25-3.54C2304.668,1575.09,2303.209,1573.486,2302.05,1573.486Z" transform="translate(-2299.824 -1572.67)" fill="#f7f9ff"/>
      </g>
      <g id="Grupo_68273" data-name="Grupo 68273" transform="translate(8.718 10.575)">
        <path id="Trazado_114162" data-name="Trazado 114162" d="M2382.794,1561.918a11.829,11.829,0,0,1-5.712-1.978l-.37-.253.286-.345c.113-.136,2.792-3.331,5.754-3.6.313-.029.629-.043.938-.043,2.728,0,4.732,1.074,4.874,2.612.159,1.726-2.145,3.3-5.245,3.586C2383.149,1561.91,2382.973,1561.918,2382.794,1561.918Zm-4.854-2.4a10.556,10.556,0,0,0,4.854,1.588c.153,0,.3-.007.45-.02,2.556-.235,4.62-1.471,4.507-2.7-.1-1.067-1.844-1.871-4.061-1.871-.284,0-.574.013-.862.04C2380.739,1556.745,2378.7,1558.7,2377.94,1559.514Z" transform="translate(-2376.713 -1555.696)" fill="#f7f9ff"/>
      </g>
      <g id="Grupo_68274" data-name="Grupo 68274" transform="translate(4.827 18.386)">
        <path id="Trazado_114163" data-name="Trazado 114163" d="M2347.982,1630.959a12.545,12.545,0,0,1-5.2-1.407l-.394-.213.248-.373c.1-.147,2.429-3.6,5.348-4.184a9.83,9.83,0,0,1,1.91-.193c2.255,0,3.878.841,4.137,2.142.338,1.7-1.789,3.507-4.843,4.114A6.235,6.235,0,0,1,2347.982,1630.959Zm-4.387-1.92a11.38,11.38,0,0,0,4.387,1.1,5.449,5.449,0,0,0,1.052-.1c2.517-.5,4.441-1.945,4.2-3.154-.174-.874-1.546-1.485-3.337-1.485a9,9,0,0,0-1.751.178C2346.09,1625.993,2344.268,1628.153,2343.6,1629.039Z" transform="translate(-2342.393 -1624.59)" fill="#f7f9ff"/>
      </g>
      <g id="Grupo_68276" data-name="Grupo 68276" transform="translate(4.837 7.884)">
        <g id="Grupo_68275" data-name="Grupo 68275">
          <path id="Trazado_114164" data-name="Trazado 114164" d="M2343.959,1547.907l-1.064-.406.005-.031-.1-.05-.32-.17.13-.338c.32-.831.633-1.622.93-2.35,3.7-9.087,6.3-12.162,6.406-12.289l.267-.31,1.224,1.056-.271.309c-.022.027-2.587,3.095-6.239,12.1-.279.689-.557,1.393-.826,2.095Z" transform="translate(-2342.485 -1531.963)" fill="#f7f9ff"/>
        </g>
      </g>
    </g>
    <g id="Grupo_68278" data-name="Grupo 68278" transform="translate(249.327 87.422)">
      <path id="Trazado_114165" data-name="Trazado 114165" d="M1565.921,227.662a5.072,5.072,0,1,1,5.072-5.072A5.077,5.077,0,0,1,1565.921,227.662Zm0-9.094a4.022,4.022,0,1,0,4.022,4.022A4.027,4.027,0,0,0,1565.921,218.568Z" transform="translate(-1560.849 -217.519)" fill="#f7f9ff"/>
    </g>
    <path id="Trazado_114166" data-name="Trazado 114166" d="M532.668,1902.509h-249a1.247,1.247,0,0,1-1.247-1.247h0a1.247,1.247,0,0,1,1.247-1.247h249a1.247,1.247,0,0,1,1.247,1.247h0A1.247,1.247,0,0,1,532.668,1902.509Z" transform="translate(-178.041 -1621.827)" fill="#2c2858"/>
    <g id="Grupo_68279" data-name="Grupo 68279" transform="translate(117.077 218.748)">
      <path id="Trazado_114167" data-name="Trazado 114167" d="M399.506,1385.923a5.072,5.072,0,1,1,5.072-5.072A5.077,5.077,0,0,1,399.506,1385.923Zm0-9.094a4.022,4.022,0,1,0,4.022,4.022A4.027,4.027,0,0,0,399.506,1376.829Z" transform="translate(-394.434 -1375.779)" fill="#f7f9ff"/>
    </g>
    <circle id="Elipse_4895" data-name="Elipse 4895" cx="3.046" cy="3.046" r="3.046" transform="translate(130.434 238.281) rotate(-88.494)" fill="#f7f9ff"/>
    <path id="Trazado_114168" data-name="Trazado 114168" d="M1489.092,151.66a3.046,3.046,0,1,1-3.046-3.046A3.046,3.046,0,0,1,1489.092,151.66Z" transform="translate(-1242.501 -69.004)" fill="#f7f9ff"/>
    <path id="Trazado_114169" data-name="Trazado 114169" d="M2362.8,1284.624a3.046,3.046,0,1,1-3.046-3.046A3.046,3.046,0,0,1,2362.8,1284.624Z" transform="translate(-2017.148 -1073.511)" fill="#f7f9ff"/>
    <path id="Rectángulo_7134" data-name="Rectángulo 7134" d="M31.126,0H99.715a31.126,31.126,0,0,1,31.126,31.126V143.059a31.125,31.125,0,0,1-31.125,31.125H31.125A31.125,31.125,0,0,1,0,143.06V31.126A31.126,31.126,0,0,1,31.126,0Z" transform="translate(146.657 104.044)" fill="#bb83ff"/>
    <g id="Grupo_68280" data-name="Grupo 68280" transform="translate(134.333 114.172)">
      <rect id="Rectángulo_7135" data-name="Rectángulo 7135" width="36.182" height="34.252" transform="translate(0 13.098) rotate(-21.223)" fill="#f5a3b7"/>
      <path id="Trazado_114170" data-name="Trazado 114170" d="M737.908,488.01V524.7l2.1-.639V487.189Z" transform="translate(-716.221 -483.363)" fill="#f291a9"/>
    </g>
    <g id="Grupo_68281" data-name="Grupo 68281" transform="translate(158.224 108.732)">
      <path id="Trazado_114171" data-name="Trazado 114171" d="M882.752,567.42h-89.7l-20.915-15.011V405.465H882.752Z" transform="translate(-770.457 -405.465)" fill="#5f7fcf"/>
      <path id="Trazado_114172" data-name="Trazado 114172" d="M867.967,566.234h-89.7l-20.915-14.887V405.616H867.967Z" transform="translate(-757.348 -405.599)" fill="#fff"/>
      <path id="Trazado_114173" data-name="Trazado 114173" d="M778.325,1683.877l-20.907-14.95,13.878-2.814Z" transform="translate(-757.41 -1523.179)" fill="#cdd8fa"/>
      <path id="Trazado_114174" data-name="Trazado 114174" d="M757.418,1690.93,780,1707.137S762.941,1702.1,757.418,1690.93Z" transform="translate(-757.41 -1545.182)" fill="#5f7fcf"/>
    </g>
    <g id="Grupo_68282" data-name="Grupo 68282" transform="translate(181.481 87.366)">
      <path id="Trazado_114175" data-name="Trazado 114175" d="M1027.054,321.324v8.063a1.51,1.51,0,0,1-1.511,1.51H963.972a1.51,1.51,0,0,1-1.511-1.51v-8.063a6.255,6.255,0,0,1,6.255-6.254H1020.8a6.254,6.254,0,0,1,6.254,6.254Z" transform="translate(-962.461 -303.953)" fill="#f37a50"/>
      <path id="Trazado_114176" data-name="Trazado 114176" d="M1156.737,230.3h-26.562a13.281,13.281,0,1,1,26.562,0Z" transform="translate(-1111.159 -217.017)" fill="#f37a50"/>
      <path id="Trazado_114177" data-name="Trazado 114177" d="M1024.988,229.744l-62.527,11.194v-6.549a6.255,6.255,0,0,1,6.255-6.254h12.936a13.282,13.282,0,0,1,26.21,0H1020.8A6.232,6.232,0,0,1,1024.988,229.744Z" transform="translate(-962.461 -217.017)" fill="#de623c"/>
      <path id="Trazado_114178" data-name="Trazado 114178" d="M1220.224,249.065a3.972,3.972,0,1,1-3.972-3.972A3.972,3.972,0,0,1,1220.224,249.065Z" transform="translate(-1183.956 -241.91)" fill="#e3e9ff"/>
    </g>
    <g id="Grupo_68287" data-name="Grupo 68287" transform="translate(163.2 131.931)">
      <g id="Grupo_68285" data-name="Grupo 68285" transform="translate(0 0)">
        <g id="Grupo_68283" data-name="Grupo 68283" transform="translate(1.491 2.669)">
          <path id="Trazado_114179" data-name="Trazado 114179" d="M834.187,654.486H815.456a1.074,1.074,0,0,1-1.074-1.074V634.681a1.074,1.074,0,0,1,1.074-1.074h18.731a1.074,1.074,0,0,1,1.074,1.074v18.732A1.074,1.074,0,0,1,834.187,654.486Zm-17.658-2.148h16.584V635.755H816.53Z" transform="translate(-814.382 -633.607)" fill="#8ea5ed"/>
        </g>
        <g id="Grupo_68284" data-name="Grupo 68284">
          <path id="Trazado_114180" data-name="Trazado 114180" d="M811.265,632.314,801.229,620.68l3.56-3.072,6.51,7.545,13.26-15.083,3.531,3.1Z" transform="translate(-801.229 -610.071)" fill="#f17781"/>
        </g>
      </g>
      <g id="Grupo_68286" data-name="Grupo 68286" transform="translate(31.113 4.079)">
        <rect id="Rectángulo_7136" data-name="Rectángulo 7136" width="43.204" height="3.85" fill="#cdd8fa"/>
        <rect id="Rectángulo_7137" data-name="Rectángulo 7137" width="23.273" height="3.85" transform="translate(46.154)" fill="#cdd8fa"/>
        <rect id="Rectángulo_7138" data-name="Rectángulo 7138" width="24.792" height="3.85" transform="translate(0 7.653)" fill="#cdd8fa"/>
        <rect id="Rectángulo_7139" data-name="Rectángulo 7139" width="54.354" height="3.85" transform="translate(0 15.307)" fill="#cdd8fa"/>
        <rect id="Rectángulo_7140" data-name="Rectángulo 7140" width="41.852" height="3.85" transform="translate(27.576 7.653)" fill="#cdd8fa"/>
      </g>
    </g>
    <g id="Grupo_68292" data-name="Grupo 68292" transform="translate(163.2 174.645)">
      <g id="Grupo_68290" data-name="Grupo 68290" transform="translate(0 0)">
        <g id="Grupo_68288" data-name="Grupo 68288" transform="translate(1.491 2.669)">
          <path id="Trazado_114181" data-name="Trazado 114181" d="M834.187,1031.217H815.456a1.074,1.074,0,0,1-1.074-1.074v-18.732a1.074,1.074,0,0,1,1.074-1.074h18.731a1.074,1.074,0,0,1,1.074,1.074v18.732A1.074,1.074,0,0,1,834.187,1031.217Zm-17.658-2.148h16.584v-16.584H816.53Z" transform="translate(-814.382 -1010.338)" fill="#8ea5ed"/>
        </g>
        <g id="Grupo_68289" data-name="Grupo 68289">
          <path id="Trazado_114182" data-name="Trazado 114182" d="M811.265,1009.045l-10.037-11.633,3.56-3.071,6.51,7.545,13.26-15.083,3.531,3.1Z" transform="translate(-801.229 -986.802)" fill="#f17781"/>
        </g>
      </g>
      <g id="Grupo_68291" data-name="Grupo 68291" transform="translate(31.113 3.539)">
        <rect id="Rectángulo_7141" data-name="Rectángulo 7141" width="60.712" height="3.85" fill="#cdd8fa"/>
        <rect id="Rectángulo_7142" data-name="Rectángulo 7142" width="38.347" height="3.85" transform="translate(0 7.653)" fill="#cdd8fa"/>
        <rect id="Rectángulo_7143" data-name="Rectángulo 7143" width="15.094" height="3.85" transform="translate(0 15.307)" fill="#cdd8fa"/>
        <rect id="Rectángulo_7144" data-name="Rectángulo 7144" width="51.568" height="3.85" transform="translate(17.548 15.307)" fill="#cdd8fa"/>
        <rect id="Rectángulo_7145" data-name="Rectángulo 7145" width="27.652" height="3.85" transform="translate(41.464 7.653)" fill="#cdd8fa"/>
      </g>
    </g>
    <g id="Grupo_68297" data-name="Grupo 68297" transform="translate(163.2 217.172)">
      <g id="Grupo_68295" data-name="Grupo 68295" transform="translate(0 0)">
        <g id="Grupo_68293" data-name="Grupo 68293" transform="translate(1.491 2.669)">
          <path id="Trazado_114183" data-name="Trazado 114183" d="M834.187,1406.292H815.456a1.074,1.074,0,0,1-1.074-1.074v-18.731a1.074,1.074,0,0,1,1.074-1.074h18.731a1.074,1.074,0,0,1,1.074,1.074v18.731A1.074,1.074,0,0,1,834.187,1406.292Zm-17.658-2.148h16.584v-16.584H816.53Z" transform="translate(-814.382 -1385.413)" fill="#8ea5ed"/>
        </g>
        <g id="Grupo_68294" data-name="Grupo 68294">
          <path id="Trazado_114184" data-name="Trazado 114184" d="M811.265,1384.119l-10.037-11.633,3.56-3.072,6.51,7.545,13.26-15.083,3.531,3.1Z" transform="translate(-801.229 -1361.877)" fill="#f17781"/>
        </g>
      </g>
      <g id="Grupo_68296" data-name="Grupo 68296" transform="translate(31.113 3.374)">
        <rect id="Rectángulo_7146" data-name="Rectángulo 7146" width="18.629" height="3.85" fill="#cdd8fa"/>
        <rect id="Rectángulo_7147" data-name="Rectángulo 7147" width="48.248" height="3.85" transform="translate(20.69)" fill="#cdd8fa"/>
        <rect id="Rectángulo_7148" data-name="Rectángulo 7148" width="50.371" height="3.85" transform="translate(0 7.653)" fill="#cdd8fa"/>
        <rect id="Rectángulo_7149" data-name="Rectángulo 7149" width="32.027" height="3.85" transform="translate(0 15.307)" fill="#cdd8fa"/>
        <rect id="Rectángulo_7150" data-name="Rectángulo 7150" width="24.854" height="3.85" transform="translate(34.172 15.307)" fill="#cdd8fa"/>
        <rect id="Rectángulo_7151" data-name="Rectángulo 7151" width="15.86" height="3.85" transform="translate(53.256 7.653)" fill="#cdd8fa"/>
      </g>
    </g>
    <g id="Grupo_68323" data-name="Grupo 68323" transform="translate(227.09 131.858)">
      <g id="Grupo_68301" data-name="Grupo 68301" transform="translate(56.458 19.499)">
        <g id="Grupo_68300" data-name="Grupo 68300">
          <g id="Grupo_68299" data-name="Grupo 68299">
            <g id="Grupo_68298" data-name="Grupo 68298">
              <path id="Trazado_114185" data-name="Trazado 114185" d="M1892.019,792.773c-.278-3.808-3.409-3.662-3.409-3.662-2.228-.114-11.393,4.2-17.043,7.786l-.323.207c-.955-4.588-4.856-11.776-5.349-15.631,0-.025-.007-.048-.01-.072-1.04,1.032-2.252,1.964-3.213,3.069.077.126.125.207.128.218,1.029,3.588,1.521,17.471,4.811,19.7,2.306,1.566,20.463-6.772,20.463-6.772S1892.268,796.172,1892.019,792.773Z" transform="translate(-1862.672 -781.401)" fill="#f37a50"/>
            </g>
          </g>
        </g>
      </g>
      <g id="Grupo_68302" data-name="Grupo 68302" transform="translate(0 1.449)">
        <rect id="Rectángulo_7152" data-name="Rectángulo 7152" width="100.653" height="16.682" transform="matrix(0.976, -0.219, 0.219, 0.976, 21.38, 24.134)" fill="#b0173e"/>
        <path id="Trazado_114186" data-name="Trazado 114186" d="M2431.84,638.626l-8.684,1.944-3.644-16.279,8.685-1.944a5.687,5.687,0,0,1,6.792,4.307l1.16,5.18A5.687,5.687,0,0,1,2431.84,638.626Z" transform="translate(-2299.917 -622.208)" fill="#e62552"/>
        <rect id="Rectángulo_7153" data-name="Rectángulo 7153" width="7.958" height="16.7" transform="translate(112.263 3.706) rotate(-12.618)" fill="#f3c8b9"/>
        <path id="Trazado_114187" data-name="Trazado 114187" d="M2416.315,653.517l-.345.077a.494.494,0,0,1-.59-.374l-3.619-16.166a.494.494,0,0,1,.374-.59l.345-.077a.494.494,0,0,1,.59.374l3.619,16.166A.494.494,0,0,1,2416.315,653.517Z" transform="translate(-2293.036 -634.769)" fill="#f3ae9c"/>
        <path id="Trazado_114188" data-name="Trazado 114188" d="M2383.468,661.346l-.345.077a.493.493,0,0,1-.59-.374l-3.619-16.166a.494.494,0,0,1,.374-.59l.345-.077a.494.494,0,0,1,.59.374l3.619,16.166A.494.494,0,0,1,2383.468,661.346Z" transform="translate(-2263.912 -641.71)" fill="#f3ae9c"/>
        <path id="Trazado_114189" data-name="Trazado 114189" d="M2348.912,668.71l-.345.077a.494.494,0,0,1-.59-.374l-3.619-16.166a.494.494,0,0,1,.374-.59l.345-.077a.494.494,0,0,1,.59.374l3.619,16.166A.494.494,0,0,1,2348.912,668.71Z" transform="translate(-2233.275 -648.239)" fill="#f3ae9c"/>
        <path id="Trazado_114190" data-name="Trazado 114190" d="M1390.136,842.555c-1.006-4.495-2.8-7.92-4.011-7.649l-.016.005h0l-.005,0a.714.714,0,0,0-.325.2l-12.193,7.391-8.689,5.268a.36.36,0,0,0,.147.665l10.047,1.12,14.274,1.591a.719.719,0,0,0,.377.042h.012v0l.016,0C1390.978,850.913,1391.142,847.05,1390.136,842.555Z" transform="translate(-1364.723 -810.776)" fill="#f3c8b9"/>
        <path id="Trazado_114191" data-name="Trazado 114191" d="M1374.8,905.316a12.006,12.006,0,0,1,.29,3.745l-10.047-1.12a.36.36,0,0,1-.147-.665l8.689-5.268A12.393,12.393,0,0,1,1374.8,905.316Z" transform="translate(-1364.723 -870.284)" fill="#e62552"/>
      </g>
      <path id="Trazado_114192" data-name="Trazado 114192" d="M2001.342,641.642c-2.835-3.685-2.551-11.055-.425-13.748s2.228-4.722.992-7.37c-2.976-6.378,8.5-11.622,13.606-11.055s15.023,2.835,15.307,10.346.709,7.937,4.11,9.78,4.677,7.654,3.4,10.346-5.811,6.378-3.969,9.354,4.11,6.8,1.559,10.063-5.244,9.5-7.228,10.346-8.079.142-8.079.142Z" transform="translate(-1927.323 -609.426)" fill="#201d40"/>
      <g id="Grupo_68305" data-name="Grupo 68305" transform="translate(85.867 21.719)">
        <g id="Grupo_68304" data-name="Grupo 68304">
          <g id="Grupo_68303" data-name="Grupo 68303">
            <path id="Trazado_114193" data-name="Trazado 114193" d="M2124.08,801.8l5.5-.823-.438,5.1s-2.784,5.017-5.426,4.153a2.023,2.023,0,0,1-1.354-3.081Z" transform="translate(-2122.047 -800.979)" fill="#f37a50"/>
          </g>
        </g>
      </g>
      <g id="Grupo_68310" data-name="Grupo 68310" transform="translate(79.212 1.136)">
        <path id="Trazado_114194" data-name="Trazado 114194" d="M2082.042,643.325c-.206,6.091-3.165,9.9-7.949,9.734s-8.5-5.231-8.29-11.323,4.252-10.9,9.036-10.737S2082.249,637.234,2082.042,643.325Z" transform="translate(-2065.519 -629.687)" fill="#f37a50"/>
        <g id="Grupo_68306" data-name="Grupo 68306" transform="translate(7.624 10.492)">
          <path id="Trazado_114195" data-name="Trazado 114195" d="M2133.081,713.532a.312.312,0,0,1-.181-.1,2.387,2.387,0,0,0-1.946-.64.314.314,0,0,1-.355-.265.544.544,0,0,1,.5-.526,2.749,2.749,0,0,1,2.306.887.5.5,0,0,1-.062.572A.313.313,0,0,1,2133.081,713.532Z" transform="translate(-2130.597 -711.987)" fill="#201d40"/>
        </g>
        <g id="Grupo_68307" data-name="Grupo 68307" transform="translate(0.467 11.26)">
          <path id="Trazado_114196" data-name="Trazado 114196" d="M2067.7,720.2a.314.314,0,0,1-.18-.477,2.2,2.2,0,0,1,2.033-.961.313.313,0,0,1-.081.622,1.572,1.572,0,0,0-1.432.689A.314.314,0,0,1,2067.7,720.2Z" transform="translate(-2067.472 -718.756)" fill="#201d40"/>
        </g>
        <path id="Trazado_114197" data-name="Trazado 114197" d="M2097.745,749.857a7.928,7.928,0,0,1-.974,1.393.315.315,0,0,0-.018.431,4.317,4.317,0,0,0,2.146.93.084.084,0,0,0,.058-.155,4.074,4.074,0,0,1-1.184-.92.375.375,0,0,1-.067-.333c.073-.266.215-.806.3-1.246A.141.141,0,0,0,2097.745,749.857Z" transform="translate(-2092.899 -735.013)" fill="#de623c"/>
        <path id="Trazado_114198" data-name="Trazado 114198" d="M2105.017,783.476a.25.25,0,0,0-.295-.353,17.716,17.716,0,0,1-4.635.811.25.25,0,0,0-.157.432,3.118,3.118,0,0,0,5.087-.89Z" transform="translate(-2095.713 -764.555)" fill="#fff"/>
        <path id="Trazado_114199" data-name="Trazado 114199" d="M2120.332,632.432c-5.594.381-13.781-5.035-14.986-7.755.355-3.635,2.925-5.958,6.417-5.02S2121.76,627.658,2120.332,632.432Z" transform="translate(-2100.585 -619.449)" fill="#201d40"/>
        <path id="Trazado_114200" data-name="Trazado 114200" d="M2069.548,637.416s-2.929,3.743-6.194,4.893c.727-4.059,1.227-7.131,3.129-8.324a13.549,13.549,0,0,1,4.1-1.614Z" transform="translate(-2063.354 -630.906)" fill="#201d40"/>
        <g id="Grupo_68309" data-name="Grupo 68309" transform="translate(13.891 10.875)">
          <path id="Trazado_114201" data-name="Trazado 114201" d="M2186.593,716.388a2.167,2.167,0,1,0,3.3-.589A2.4,2.4,0,0,0,2186.593,716.388Z" transform="translate(-2185.871 -715.363)" fill="#f37a50"/>
          <g id="Grupo_68308" data-name="Grupo 68308" transform="translate(1.255 1.193)">
            <path id="Trazado_114202" data-name="Trazado 114202" d="M2197.634,728.528a.312.312,0,0,1-.126-.068,1.416,1.416,0,0,1-.454-1.68,1.51,1.51,0,0,1,1.507-.887.313.313,0,1,1-.074.622.894.894,0,0,0-.862.521.8.8,0,0,0,.3.955.314.314,0,0,1-.289.537Z" transform="translate(-2196.936 -725.883)" fill="#de623c"/>
          </g>
        </g>
        <path id="Trazado_114203" data-name="Trazado 114203" d="M2077.254,734.839a.855.855,0,1,1-.947-.753A.855.855,0,0,1,2077.254,734.839Z" transform="translate(-2074.166 -721.083)"/>
        <path id="Trazado_114204" data-name="Trazado 114204" d="M2132.939,727.134a.912.912,0,1,1-1.01-.8A.913.913,0,0,1,2132.939,727.134Z" transform="translate(-2123.437 -714.207)"/>
      </g>
      <g id="Grupo_68312" data-name="Grupo 68312" transform="translate(71.565 64.327)">
        <path id="Trazado_114205" data-name="Trazado 114205" d="M2050.312,1250.54c.368-3.672-1.526-31.615-1.526-31.615-5.357-24.566-3.253-42.152-3.253-42.152l9.208.647,3.629,13.882-1.721,23.184s.646,1.784.987,3.212c1.849,7.739.007,16.987-1.131,23.152-.528,2.856-1.349,8.86-1.37,10.225l.721,2.315-11.206,5.476C2048.091,1255.331,2050.207,1251.591,2050.312,1250.54Z" transform="translate(-2039.124 -1176.773)" fill="#f37a50"/>
        <g id="Grupo_68311" data-name="Grupo 68311" transform="translate(0 74.054)">
          <path id="Trazado_114206" data-name="Trazado 114206" d="M2009.279,1832.362a3.4,3.4,0,0,0-2.4-2.45c-3.273,4.565-11.15,1.651-10.959,7.878,12.028.057,17.026.194,17.026.194a47.219,47.219,0,0,0-.461-6.156l-.628.112Z" transform="translate(-1995.912 -1829.912)" fill="#201d40"/>
        </g>
      </g>
      <g id="Grupo_68314" data-name="Grupo 68314" transform="translate(82.051 64.327)">
        <path id="Trazado_114207" data-name="Trazado 114207" d="M2092.211,1178.56l12.973-1.787c4.962,11.228,6.58,30.776,7.927,37.74,5.407,9.067,7.125,36.562,7.125,36.562l.7,2.772-6.937,4.318c-2.229-1.719,1.236-5.371,1.458-6.4.335-1.552-10.5-32.054-10.5-32.054l-1.156-2.894c-13.234-21.858-15.406-38.382-15.406-38.382Z" transform="translate(-2088.395 -1176.773)" fill="#f37a50"/>
        <g id="Grupo_68313" data-name="Grupo 68313" transform="translate(15.972 75.158)">
          <path id="Trazado_114208" data-name="Trazado 114208" d="M2242.628,1842.1a3.4,3.4,0,0,0-2.4-2.45c-3.273,4.565-11.15,1.652-10.959,7.878,12.029.057,17.027.194,17.027.194a47.215,47.215,0,0,0-.461-6.156l-.628.112Z" transform="translate(-2229.261 -1839.652)" fill="#201d40"/>
        </g>
      </g>
      <g id="Grupo_68318" data-name="Grupo 68318" transform="translate(72.022 56.994)">
        <g id="Grupo_68317" data-name="Grupo 68317">
          <g id="Grupo_68316" data-name="Grupo 68316">
            <g id="Grupo_68315" data-name="Grupo 68315">
              <path id="Trazado_114209" data-name="Trazado 114209" d="M2042.2,1152.537c-1.3-4.334-5.034-32-16.471-40.436l-19.681,2.074c-4.548,7.362-5.531,21.65-6.114,39.236C2018.3,1146.319,2017.134,1161.476,2042.2,1152.537Z" transform="translate(-1999.936 -1112.101)" fill="#201d40"/>
            </g>
          </g>
        </g>
      </g>
      <g id="Grupo_68321" data-name="Grupo 68321" transform="translate(75.465 26.258)">
        <g id="Grupo_68320" data-name="Grupo 68320">
          <g id="Grupo_68319" data-name="Grupo 68319">
            <path id="Trazado_114210" data-name="Trazado 114210" d="M2032.735,868.968c0-4.31-3.735-10.767-1.945-15.118,1.3-3.5,3.866-11.4,6.658-11.929a30.923,30.923,0,0,0,3.945-.432s-.819,3.655,1.025,3.8c3.549.285,5.415-4.266,5.415-4.266,1.914-.183,8.588,1.809,8.583,2.53-.021,5.646-2.5,14.775-4,20.879a27.4,27.4,0,0,0,.253,7.278c.568,1.833,1.262,2.883,1.267,3.279,0,0-13.156,4.47-21.527-.139C2032.406,874.853,2032.735,871.879,2032.735,868.968Z" transform="translate(-2030.305 -841.014)" fill="#8ea5ed"/>
          </g>
        </g>
      </g>
      <g id="Grupo_68322" data-name="Grupo 68322" transform="translate(92.864 56.648)">
        <path id="Trazado_114211" data-name="Trazado 114211" d="M2196.646,1112.186c-1.521,3.3-4.232,2.906-5.009,2.689-.847-.237-2.011-.216-2.451.372-.453.605-.69,1.28-1.295,1.071-.844-.292-.022-2.472,1.7-2.56,0,0-1.356.046-1.8.733-.49.753-.852,1.312-1.368,1.234a.581.581,0,0,1-.434-.729c-.323.272-1.056.506-1.12-.008a3.989,3.989,0,0,1,3.258-4.22c-2.79-.424-2.989,2.059-3.862,2.105-.524.028-.571-.619-.462-1.037a3.762,3.762,0,0,1,2.8-2.676c1.348-.317,3.418.063,4.194,1.21,0,0,1.63.592,2.288-.406Z" transform="translate(-2183.757 -1109.052)" fill="#f37a50"/>
      </g>
      <path id="Trazado_114212" data-name="Trazado 114212" d="M2223.627,860.448s9.374,5.491,13.913,18.653c-4.077,4.519-7.511,1.147-7.511,1.147l-9.082-8.974a8.356,8.356,0,0,1-1.393-7.285A4.645,4.645,0,0,1,2223.627,860.448Z" transform="translate(-2122.325 -831.987)" fill="#f37a50"/>
      <path id="Trazado_114213" data-name="Trazado 114213" d="M2266.06,1030.406l5.66-8.85s1.548-3.681,7.36-1.6c.281,3.124-.166,6.046-9.53,12.684A6.592,6.592,0,0,1,2266.06,1030.406Z" transform="translate(-2163.865 -972.846)" fill="#f37a50"/>
      <path id="Trazado_114214" data-name="Trazado 114214" d="M2223.627,860.448s9.374,5.491,13.913,18.653c-4.077,4.519-7.865.8-7.865.8l-8.728-8.624a8.356,8.356,0,0,1-1.393-7.285A4.645,4.645,0,0,1,2223.627,860.448Z" transform="translate(-2122.325 -831.987)" fill="#f37a50"/>
      <path id="c" d="M1858.3,741.665a.857.857,0,0,1,.247.1c0-.015,0-.03.008-.046.2-.9.876-1.513,1.521-1.373a.882.882,0,0,1,.293.125,1.231,1.231,0,0,1,1.245-.684.924.924,0,0,1,.473.276,1.231,1.231,0,0,1,1.309-.711,1.443,1.443,0,0,1-.6,2.778,1.03,1.03,0,0,1-.435-.212c-.257.76-.868,1.251-1.451,1.125a.882.882,0,0,1-.293-.124,1.231,1.231,0,0,1-1.245.684.914.914,0,0,1-.445-.246,1.052,1.052,0,0,1-1.133.656,1.219,1.219,0,0,1,.51-2.347Z" transform="translate(-1801.206 -724.6)" fill="#f37a50"/>
    </g>
  </g>
</svg>
