<svg xmlns="http://www.w3.org/2000/svg" width="562.593" height="360.041" viewBox="0 0 562.593 360.041">
  <g id="Grupo_68254" data-name="Grupo 68254" transform="translate(-2220.276 -609.594)">
    <path id="Trazado_113866" data-name="Trazado 113866" d="M2410.843,904.431c-.91,23.2-23,43.759-26.281,65.2h547.121a35.7,35.7,0,0,0,.626-9.15c-1.178-19.1-16.636-34.09-29.79-48.5s-25.507-33.452-19.112-51.582c5.93-16.812,26.5-27.147,28.863-44.746,3.043-22.65-25.476-38.373-29.494-60.884-3.571-20.01,13.171-40.414,6.8-59.778-6.7-20.384-33.927-26.107-56.246-25.469-23.812.681-47.44,4.634-71.26,4.991s-48.627-3.254-68.26-16.168c-14.829-9.753-25.756-24.168-40.458-34.1-22.364-15.1-52.333-18.3-78.516-10.671s-48.508,25.359-63.564,47.234c-12.013,17.452-19.847,37.659-34.543,53.116-11.781,12.392-26.691,17.343-43.547,19.632-24.2,3.287-35.687,11.149-45.972,33.555-11.715,25.519-12.483,55.94-.05,81.361C2396.192,866.939,2411.642,884.064,2410.843,904.431Z" transform="translate(-149.506)" fill="#bb83ff" opacity="0.1"/>
    <g id="Grupo_68237" data-name="Grupo 68237" transform="translate(2359.825 792.424)">
      <path id="Trazado_113867" data-name="Trazado 113867" d="M3564.509,2151.122l.176.124c.117.077.286.2.5.337s.488.306.807.485l.51.282c.182.1.375.187.575.287s.412.2.632.3l.689.292c.236.1.484.193.738.285s.513.186.779.275c.536.167,1.09.343,1.664.479.569.155,1.16.262,1.747.382.592.09,1.182.195,1.771.246.584.073,1.166.1,1.726.127.281.008.555.013.826.012s.533,0,.791-.012l.748-.036c.241-.016.473-.04.7-.062s.437-.043.639-.071l.573-.089c.36-.057.671-.114.926-.176s.455-.111.591-.143l.207-.055-.213-.029c-.14-.015-.344-.045-.6-.069l-.427-.042-.5-.055-.567-.055-.626-.071c-.436-.041-.906-.1-1.4-.157l-.377-.042-.384-.052c-.259-.038-.524-.062-.793-.1s-.541-.078-.816-.116-.554-.086-.834-.126c-.562-.082-1.128-.185-1.7-.28s-1.134-.206-1.689-.323c-.278-.06-.556-.106-.826-.169s-.541-.121-.807-.174l-.778-.18-.379-.085-.368-.091-.708-.17c-.229-.052-.448-.116-.661-.167l-.611-.15-.549-.144-.489-.121-.416-.109c-.251-.067-.453-.111-.588-.144Z" transform="translate(-3474.358 -2046.338)" fill="#bcc751"/>
      <g id="Grupo_68235" data-name="Grupo 68235">
        <g id="Grupo_68219" data-name="Grupo 68219">
          <g id="Grupo_68205" data-name="Grupo 68205" transform="translate(12.899 73.171)">
            <path id="Trazado_113868" data-name="Trazado 113868" d="M3194.838,1995.461c.974.2,1.951.405,2.935.619a17.5,17.5,0,0,0-2.847-.281c-.282-.006-.589.035-.865.047-6.578.206-11.887,4.1-17.625,6.646a11.847,11.847,0,0,1-12.021-1.473l-9.556-7.354c4.385,1.09,9.185,1.067,13.7,1.026-6.838-2.925-14.194-6.283-18.1-13.007,6.467,7.717,14.364,2.259,22.415,2.28,8.35.022,14.226,4.02,20.542,8.114.235.152.473.3.708.451q.689.446,1.389.885-.646-.293-1.3-.532c-.23-.083-.461-.163-.695-.236a20.735,20.735,0,0,0-17.146,2.27c6.008-1.378,11.767-.759,17.62.376C3194.27,1995.347,3194.553,1995.406,3194.838,1995.461Z" transform="translate(-3150.459 -1981.686)" fill="#bcc751"/>
          </g>
          <g id="Grupo_68206" data-name="Grupo 68206" transform="translate(60.261 87.575)">
            <path id="Trazado_113869" data-name="Trazado 113869" d="M3405.747,2059.2c-.48-.107-.962-.211-1.442-.317Q3405.016,2059.012,3405.747,2059.2Z" transform="translate(-3404.305 -2058.886)" fill="#bcc751"/>
          </g>
          <g id="Grupo_68207" data-name="Grupo 68207" transform="translate(0 58.18)">
            <path id="Trazado_113870" data-name="Trazado 113870" d="M3093.517,1909.089a22.846,22.846,0,0,0,9.285,5.087c12.1,3.349,25.452,1.2,35.946,10.961-9.545-8.882-16.136-20.726-30.1-23.464-9.659-1.894-18.119,5.1-27.318.084C3085.369,1904.286,3090.007,1905.9,3093.517,1909.089Z" transform="translate(-3081.325 -1901.338)" fill="#bcc751"/>
          </g>
          <g id="Grupo_68208" data-name="Grupo 68208" transform="translate(11.506 47.313)">
            <path id="Trazado_113871" data-name="Trazado 113871" d="M3163.484,1854.464c8.45,3.356,16.723,9.37,21.488,17.212-9.681-18.745-17.878-38.579-41.979-22.925C3150.3,1844.947,3157.084,1851.414,3163.484,1854.464Z" transform="translate(-3142.993 -1843.092)" fill="#bcc751"/>
          </g>
          <g id="Grupo_68209" data-name="Grupo 68209" transform="translate(28.327 10.583)">
            <path id="Trazado_113872" data-name="Trazado 113872" d="M3250.581,1691.051c4.967,5.711,5.427,13.081,7.573,20.039-.964-7.612-1.307-15.275-2.789-22.817l1.32,2.9c-3.175-9.737-1.737-19.6-6.924-28.761-3.271-5.778-8.989-8.419-7.533-16.181-1.943,9.295-4.256,20.2,3.009,27.651-5.28-4.278-13.631-8.455-11.527-16.541C3231.66,1674.7,3234.806,1681.4,3250.581,1691.051Z" transform="translate(-3233.151 -1646.23)" fill="#bcc751"/>
          </g>
          <g id="Grupo_68210" data-name="Grupo 68210" transform="translate(41.446)">
            <path id="Trazado_113873" data-name="Trazado 113873" d="M3324.707,1695.571q.572,1.346,1.208,2.663c-6.367-18.593-12.536-40.023-10.317-59.92.969-8.687,8.178-17.6,4.988-26.651-3.251-9.231-17.7-11.18-17.105-22.155,1.445,8.683.958,17.4,3.943,25.8,2.7,7.607,6.237,13.281,7.165,21.571C3316.895,1657.484,3315.41,1676.372,3324.707,1695.571Z" transform="translate(-3303.462 -1589.509)" fill="#bcc751"/>
          </g>
          <g id="Grupo_68211" data-name="Grupo 68211" transform="translate(40.575 38.215)">
            <path id="Trazado_113874" data-name="Trazado 113874" d="M3308.554,1808.358c-1.254-5.821-5.006-10.587-9.759-14.027C3302.6,1798.616,3306.463,1802.956,3308.554,1808.358Z" transform="translate(-3298.795 -1794.331)" fill="#bcc751"/>
          </g>
          <g id="Grupo_68212" data-name="Grupo 68212" transform="translate(55.742 73.703)">
            <path id="Trazado_113875" data-name="Trazado 113875" d="M3380.087,1985.839l.592-1.3Z" transform="translate(-3380.087 -1984.534)" fill="#bcc751"/>
          </g>
          <g id="Grupo_68213" data-name="Grupo 68213" transform="translate(56.147 34.005)">
            <path id="Trazado_113876" data-name="Trazado 113876" d="M3396.385,1791.717c8.39-7.774,13.029-16.512,24.7-19.949-24.646,3.865-35.358,10.11-38.825,36.892,1.19-5.18,4.262-10.362,8.885-13.1A30.591,30.591,0,0,0,3396.385,1791.717Z" transform="translate(-3382.26 -1771.768)" fill="#bcc751"/>
          </g>
          <g id="Grupo_68214" data-name="Grupo 68214" transform="translate(54.988 26.521)">
            <path id="Trazado_113877" data-name="Trazado 113877" d="M3390.1,1768.394c10.25-5.616,20.564-5.918,25.944-17.137,2.726-5.685,4.1-13.459,6.558-19.6-4.341,10.39-13.285,13.424-21.74,19.291-11.659,8.091-17.619,17.447-24.812,29.188C3378.958,1774.593,3384.9,1771.516,3390.1,1768.394Z" transform="translate(-3376.048 -1731.655)" fill="#bcc751"/>
          </g>
          <g id="Grupo_68215" data-name="Grupo 68215" transform="translate(52.84 13.098)">
            <path id="Trazado_113878" data-name="Trazado 113878" d="M3367.57,1709.168c-1.455-14.081,17.547-18.063,15.729-32.615-1.33-10.652-10.725-12.42-18.768-16.843C3382.053,1673.486,3364.663,1692.027,3367.57,1709.168Z" transform="translate(-3364.531 -1659.711)" fill="#bcc751"/>
          </g>
          <g id="Grupo_68216" data-name="Grupo 68216" transform="translate(100.331 41.262)">
            <path id="Trazado_113879" data-name="Trazado 113879" d="M3619.072,1811.837c.073-.4.143-.789.209-1.176C3619.224,1811.062,3619.151,1811.452,3619.072,1811.837Z" transform="translate(-3619.072 -1810.661)" fill="#bcc751"/>
          </g>
          <g id="Grupo_68217" data-name="Grupo 68217" transform="translate(55.37 60.31)">
            <path id="Trazado_113880" data-name="Trazado 113880" d="M3410.607,1921.671c4.872-1.509,8.026-4.617,10.352-8.92-.772,1.865-1.5,3.75-2.208,5.644a20.44,20.44,0,0,1-20.663,13.246c-6.719-.5-13.724-1.795-19.994,1.209C3386.473,1926.368,3406.331,1923.115,3410.607,1921.671Z" transform="translate(-3378.094 -1912.751)" fill="#bcc751"/>
          </g>
          <g id="Grupo_68218" data-name="Grupo 68218" transform="translate(55.61 42.438)">
            <path id="Trazado_113881" data-name="Trazado 113881" d="M3379.379,1851.16c9.793-16.578,40.653-14.363,44.721-34.193-1.376,7.558-3.717,16.65-8.857,22.681a12.875,12.875,0,0,1-6.107,3.957l-1.434.43a11.387,11.387,0,0,1-2.295.438C3396.021,1845.283,3384.612,1843.247,3379.379,1851.16Z" transform="translate(-3379.379 -1816.966)" fill="#bcc751"/>
          </g>
        </g>
        <path id="Trazado_113882" data-name="Trazado 113882" d="M3406.9,1737.967l.209-.195c.132-.131.337-.312.576-.563s.542-.553.853-.925.671-.788,1.035-1.266c.178-.243.365-.494.549-.76s.369-.548.551-.842a19.166,19.166,0,0,0,1.045-1.919q.12-.26.243-.522l.219-.544c.155-.362.272-.744.4-1.126.068-.19.111-.389.168-.584s.113-.392.151-.594c.076-.4.174-.8.219-1.215l.076-.615q.019-.31.038-.619l.018-.309c0-.1,0-.205,0-.308q-.005-.308-.011-.614l0-.076v-.055l0-.036-.011-.144-.023-.288-.012-.143-.021-.153c-.014-.1-.027-.2-.042-.306-.025-.206-.064-.4-.1-.592l-.056-.289-.071-.283a12.185,12.185,0,0,0-.717-2.1,12.464,12.464,0,0,0-.945-1.736c-.079-.13-.17-.25-.253-.369s-.162-.238-.251-.344c-.176-.215-.333-.424-.5-.605s-.311-.358-.468-.5-.287-.287-.421-.4-.247-.221-.352-.307-.2-.154-.273-.211l-.229-.172.168.232.2.273c.075.111.162.239.26.378s.2.3.309.474.225.362.344.566c.238.407.476.881.715,1.4.058.131.116.265.176.4s.109.28.166.423.112.289.161.439.11.3.152.456a14.472,14.472,0,0,1,.67,4.118l-.009.552c0,.092,0,.184-.006.277l-.02.277q-.019.278-.039.557l-.075.555c-.035.372-.123.738-.187,1.106-.035.184-.087.364-.126.546s-.078.364-.135.541c-.109.355-.2.713-.323,1.059q-.087.26-.174.517l-.192.5c-.253.669-.538,1.3-.817,1.9-.137.3-.291.586-.425.869s-.288.545-.421.8c-.279.511-.533.987-.775,1.4l-.626,1.07-.412.692Z" transform="translate(-3346.155 -1691.855)" fill="#089e81"/>
        <path id="Trazado_113883" data-name="Trazado 113883" d="M3325.737,1659.233l.142.266c.1.171.231.426.415.742.09.159.2.333.3.526s.214.4.332.625l.378.7q.189.378.4.794c.134.278.291.558.429.86l.434.932c.073.16.153.319.227.484l.214.5c.14.341.3.682.445,1.037s.28.719.426,1.085.272.744.412,1.12c.282.751.514,1.533.768,2.307.218.785.458,1.564.64,2.346.049.195.1.388.145.581s.093.386.134.579c.082.385.162.766.248,1.139s.132.747.2,1.11c.034.181.068.361.1.539s.051.355.08.528q.081.523.157,1.016c.051.329.077.648.119.954s.076.6.111.881.052.548.075.8.044.487.07.705.031.419.045.6c.022.363.053.65.067.846l.03.3s.02-.1.056-.3.088-.477.141-.84c.027-.182.063-.383.09-.6s.043-.458.067-.714.047-.527.072-.814.02-.59.031-.906.018-.646.012-.987-.025-.694-.038-1.056c-.007-.182-.013-.366-.027-.552s-.035-.373-.052-.562c-.036-.38-.073-.768-.123-1.162-.121-.783-.229-1.6-.423-2.409-.157-.82-.4-1.632-.622-2.449-.271-.8-.517-1.614-.843-2.383-.291-.782-.651-1.521-.985-2.238-.177-.355-.363-.7-.544-1.034q-.136-.251-.268-.5c-.092-.163-.19-.319-.284-.474l-.555-.9c-.184-.287-.378-.555-.558-.814s-.353-.508-.528-.737l-.513-.641c-.161-.2-.309-.389-.452-.558s-.284-.313-.406-.449c-.245-.271-.448-.476-.583-.619Z" transform="translate(-3280.135 -1646.224)" fill="#089e81"/>
        <path id="Trazado_113884" data-name="Trazado 113884" d="M3288.244,1707.18s.005.08.013.229.026.368.054.644.066.611.124,1c.03.192.061.4.094.612s.084.438.128.672.1.478.152.729l.189.774c.062.267.14.536.22.812s.162.557.251.842c.187.566.378,1.153.608,1.736.214.589.473,1.171.721,1.758.272.576.532,1.157.828,1.71.28.561.591,1.094.888,1.611s.609,1,.918,1.455l.451.656c.15.209.3.408.441.6s.28.373.416.544.269.327.393.477c.248.3.468.554.661.757s.344.361.446.469l.161.163s-.032-.073-.091-.211-.15-.337-.27-.587l-.428-.9c-.168-.345-.358-.733-.558-1.158s-.426-.88-.658-1.362c-.118-.24-.238-.487-.356-.743s-.248-.51-.371-.774l-.758-1.626c-.26-.552-.51-1.119-.768-1.683s-.5-1.132-.743-1.694l-.708-1.649c-.218-.539-.447-1.056-.646-1.553s-.4-.963-.576-1.4l-.875-2.107c-.106-.257-.2-.456-.258-.593S3288.244,1707.18,3288.244,1707.18Z" transform="translate(-3249.638 -1685.225)" fill="#089e81"/>
        <path id="Trazado_113885" data-name="Trazado 113885" d="M3248.914,1777.107l.076.231c.053.148.125.37.228.645s.233.608.4.985l.265.6c.1.21.209.424.321.651s.233.462.363.7.274.483.418.735.3.506.464.764.331.521.507.785c.362.52.735,1.061,1.152,1.581.4.534.85,1.041,1.288,1.557.463.494.914,1,1.4,1.458.468.475.964.905,1.438,1.326.242.2.483.4.722.593s.469.38.705.549l.684.5c.223.157.445.3.655.441s.414.273.612.393l.565.331c.355.207.668.38.936.509s.474.231.616.3l.22.1-.173-.172c-.114-.109-.278-.273-.493-.472l-.354-.33-.412-.394-.471-.44-.513-.5c-.178-.174-.369-.345-.559-.534l-.589-.579c-.1-.1-.2-.2-.308-.3l-.309-.314-.64-.642c-.21-.224-.43-.447-.651-.674s-.435-.464-.658-.7c-.446-.466-.88-.956-1.321-1.438s-.867-.981-1.279-1.476c-.205-.249-.421-.486-.617-.734s-.4-.488-.6-.723l-.564-.709-.276-.343c-.089-.115-.176-.228-.262-.34l-.508-.651c-.166-.21-.314-.421-.467-.617l-.434-.566-.382-.516-.344-.454-.288-.391c-.174-.238-.318-.42-.413-.546Z" transform="translate(-3217.646 -1742.105)" fill="#089e81"/>
        <path id="Trazado_113886" data-name="Trazado 113886" d="M3187.361,1858.766l.308.024c.2.014.5.031.868.066.186.017.39.031.613.057s.463.051.719.078l.813.113.894.144c.619.116,1.287.243,1.983.418s1.422.378,2.165.61,1.492.524,2.247.83,1.5.669,2.231,1.052l.55.3c.193.1.361.205.536.308.349.2.7.423,1.043.637.679.45,1.339.908,1.955,1.383s1.2.955,1.728,1.439,1.021.953,1.467,1.4l.625.656.552.606c.169.2.322.381.473.548s.274.331.394.474c.239.287.419.519.545.676l.194.241-.122-.284c-.086-.182-.193-.46-.372-.792-.087-.168-.179-.356-.289-.557s-.236-.41-.368-.639-.29-.462-.447-.713-.347-.5-.533-.767-.4-.532-.624-.8-.456-.552-.711-.827a21.233,21.233,0,0,0-1.679-1.661c-.308-.27-.627-.541-.963-.8s-.679-.513-1.03-.764-.714-.488-1.1-.711c-.19-.114-.384-.235-.567-.333l-.57-.316a24.07,24.07,0,0,0-2.389-1.075c-.406-.146-.808-.3-1.213-.416s-.806-.239-1.2-.341a21.215,21.215,0,0,0-2.319-.443c-.371-.055-.735-.086-1.085-.118s-.691-.043-1.016-.059-.638-.011-.934-.005l-.841.034c-.263.02-.509.035-.735.058s-.436.054-.624.076c-.375.04-.662.109-.862.141Z" transform="translate(-3167.577 -1808.225)" fill="#089e81"/>
        <path id="Trazado_113887" data-name="Trazado 113887" d="M3138.942,1924.069l.379.191c.25.122.612.307,1.084.519s1.043.479,1.711.75,1.423.581,2.257.888,1.747.62,2.721.92,2.009.6,3.088.873c.54.136,1.091.269,1.65.393s1.127.249,1.7.358c1.149.23,2.318.416,3.48.6s2.319.364,3.447.564c.564.1,1.118.21,1.667.32s1.083.239,1.606.372c.263.064.521.135.776.207l.191.053c.047.012.125.038.185.056l.384.116c.252.077.485.159.724.237l.7.258a20.5,20.5,0,0,1,2.523,1.164c.38.2.732.423,1.064.632l.481.318.44.321c.144.1.271.215.4.318s.252.2.366.306l.333.29.289.281c.187.175.338.346.476.49.068.073.133.139.189.2l.149.177.276.323-.207-.372c-.034-.061-.073-.129-.115-.2s-.1-.151-.151-.236a6.9,6.9,0,0,0-.4-.573l-.248-.331-.292-.349-.156-.186-.174-.182c-.12-.123-.237-.256-.371-.381a14.1,14.1,0,0,0-1.9-1.571,18.068,18.068,0,0,0-2.537-1.458c-.234-.113-.476-.215-.72-.324s-.506-.209-.756-.3l-.375-.141-.2-.072-.2-.066c-.262-.09-.528-.178-.8-.259a34.353,34.353,0,0,0-3.359-.838c-1.15-.237-2.321-.425-3.484-.614s-2.322-.36-3.453-.553c-.283-.047-.564-.1-.845-.15s-.561-.1-.837-.151l-1.637-.317c-1.073-.219-2.109-.444-3.09-.669s-1.9-.452-2.759-.665l-1.223-.315q-.584-.149-1.1-.291l-.968-.266q-.452-.12-.823-.227l-1.155-.325Z" transform="translate(-3128.192 -1861.648)" fill="#089e81"/>
        <path id="Trazado_113888" data-name="Trazado 113888" d="M3206.576,2013.1l.185.2c.06.064.138.139.232.226l.152.142.179.151a9.742,9.742,0,0,0,2.355,1.43,13.2,13.2,0,0,0,1.749.616c.318.088.646.165.987.235l.247.05.262.046c.177.032.349.055.527.083.353.051.714.093,1.077.124s.733.06,1.1.075c.74.038,1.489.04,2.233.039s1.481-.02,2.21-.044q.547-.014,1.081-.037c.357-.014.71-.027,1.056-.046,1.386-.068,2.68-.163,3.789-.267s2.032-.216,2.678-.307c.323-.044.577-.088.75-.114l.265-.045-.266-.04c-.173-.023-.427-.061-.752-.1-.648-.077-1.574-.171-2.685-.251s-2.406-.147-3.793-.187c-.347-.012-.7-.017-1.057-.025s-.718-.013-1.083-.014c-.728-.009-1.469,0-2.206,0s-1.466.012-2.181.007-1.413-.027-2.086-.068c-.168-.012-.337-.021-.5-.037l-.241-.021-.25-.024c-.32-.029-.634-.075-.937-.117-.609-.091-1.18-.206-1.7-.339a13.567,13.567,0,0,1-2.474-.875c-.146-.068-.275-.13-.386-.188s-.209-.105-.285-.149Z" transform="translate(-3183.207 -1934.072)" fill="#089e81"/>
        <path id="Trazado_113889" data-name="Trazado 113889" d="M3248.842,2064l-.193-.066a5.486,5.486,0,0,0-.553-.164c-.122-.029-.259-.065-.407-.092s-.31-.053-.484-.082-.358-.039-.554-.06-.4-.022-.618-.033c-.43-.007-.9,0-1.385.038s-1,.094-1.525.17c-.261.037-.526.079-.792.126s-.534.091-.8.142l-1.613.3c-.254.044-.549.1-.8.137s-.523.077-.784.115c-.522.059-1.035.119-1.532.143a13.977,13.977,0,0,1-1.43.01,11.107,11.107,0,0,1-1.275-.123c-.2-.032-.381-.075-.562-.106l-.5-.129-.44-.143c-.138-.044-.256-.1-.37-.143-.229-.084-.4-.174-.518-.229l-.187-.085.135.153a4.032,4.032,0,0,0,.411.412c.1.081.2.178.323.268s.261.183.408.284.319.182.5.281c.18.084.373.174.577.259a8.428,8.428,0,0,0,1.365.4,10.1,10.1,0,0,0,1.571.2c.136.005.274.012.413.015s.278,0,.417,0c.281,0,.563-.021.848-.039s.567-.048.856-.093.552-.083.847-.131c.556-.108,1.108-.223,1.642-.353s1.054-.259,1.554-.386.98-.25,1.437-.356.888-.2,1.289-.283l.577-.106.525-.082.467-.06c.144-.018.275-.026.4-.04.241-.028.44-.036.572-.045Z" transform="translate(-3203.492 -1975.065)" fill="#089e81"/>
        <path id="Trazado_113890" data-name="Trazado 113890" d="M3459.009,1977.386l.212.035c.139.018.342.052.6.083s.573.063.939.085l.58.032c.205.007.419.005.643.008s.458,0,.7-.006l.748-.038c.258-.01.52-.038.789-.065s.543-.057.822-.093c.553-.082,1.13-.165,1.705-.293.58-.109,1.158-.269,1.739-.417.572-.177,1.15-.34,1.7-.55.559-.189,1.092-.421,1.609-.638.257-.115.507-.231.749-.349s.482-.23.706-.356l.658-.358c.21-.119.41-.242.6-.359s.374-.229.545-.342l.477-.33c.3-.208.554-.4.756-.562s.362-.3.47-.386l.163-.14-.205.066c-.132.047-.328.11-.57.2l-.4.148-.475.168-.535.2-.593.209c-.41.153-.859.305-1.33.469l-.357.126-.368.121c-.25.079-.5.173-.757.255s-.521.165-.786.251-.536.164-.805.25c-.541.172-1.1.325-1.649.488s-1.111.308-1.662.444c-.276.067-.547.146-.819.207s-.539.127-.8.195l-.78.177-.377.089-.371.078-.711.156c-.229.053-.453.09-.667.137l-.616.131-.557.11-.492.1-.423.083c-.256.049-.457.1-.593.126Z" transform="translate(-3388.541 -1900.92)" fill="#089e81"/>
        <path id="Trazado_113891" data-name="Trazado 113891" d="M3472.036,1884.58l-.192.3c-.062.1-.139.216-.228.357s-.2.293-.323.469c-.059.087-.123.178-.188.275l-.221.293c-.156.2-.312.428-.5.652l-.285.353c-.1.119-.209.237-.317.36s-.215.252-.335.375l-.362.381a19.964,19.964,0,0,1-1.691,1.561,19.139,19.139,0,0,1-2.065,1.5c-.182.123-.377.232-.569.345s-.385.231-.587.332-.4.217-.606.313l-.621.3-.638.269-.082.034-.019.008.009,0-.011,0-.043.015-.172.062-.341.126c-.461.183-.9.3-1.338.443-.9.265-1.832.5-2.756.691s-1.846.376-2.74.554-1.767.351-2.591.541c-.412.095-.812.189-1.2.294l-.567.152-.546.162c-.177.055-.351.105-.52.161l-.492.172-.465.168c-.15.057-.292.12-.433.176l-.4.167c-.131.053-.256.1-.373.166l-.641.32a4.853,4.853,0,0,0-.5.279l-.364.219-.3.185.336-.108.4-.133c.157-.052.335-.116.542-.17l.677-.19c.245-.068.516-.126.8-.2.143-.034.29-.072.442-.1l.474-.091.5-.1c.17-.032.345-.059.524-.089l.545-.094.569-.084.589-.089.61-.081,2.605-.343q.683-.092,1.386-.2l.707-.112c.237-.037.476-.087.716-.13a28.822,28.822,0,0,0,2.9-.682c.485-.158.989-.308,1.428-.488l.34-.129.17-.067.042-.016.041-.016.022-.009.085-.039.685-.311.664-.341c.22-.114.427-.246.64-.367s.416-.254.617-.386.4-.263.59-.406a16.38,16.38,0,0,0,2.077-1.758c.311-.3.59-.614.86-.916.135-.151.256-.31.381-.46s.247-.3.354-.452c.221-.3.437-.589.615-.88.092-.144.184-.281.266-.419s.16-.275.237-.406c.154-.259.286-.51.4-.745.056-.117.113-.229.166-.336s.094-.215.138-.314c.183-.394.291-.712.369-.929S3472.036,1884.58,3472.036,1884.58Z" transform="translate(-3377.48 -1829.527)" fill="#089e81"/>
        <path id="Trazado_113892" data-name="Trazado 113892" d="M3479.831,1806.763s-.055.111-.157.32-.262.509-.463.882-.488.809-.833,1.286a15.661,15.661,0,0,1-1.253,1.521,19.977,19.977,0,0,1-1.675,1.606,24.473,24.473,0,0,1-2.056,1.572c-.186.123-.375.256-.562.375s-.4.261-.589.378-.39.243-.6.362-.4.243-.611.362c-.824.475-1.677.942-2.542,1.395l-2.591,1.367c-.428.227-.854.457-1.271.692s-.836.469-1.229.7c-.808.477-1.57.967-2.274,1.463s-1.345,1-1.914,1.494c-.285.245-.549.492-.8.73s-.472.473-.677.7a14.488,14.488,0,0,0-1.01,1.211c-.26.351-.448.636-.57.835l-.187.3.254-.251c.158-.168.412-.4.721-.691s.711-.627,1.177-.995,1.006-.759,1.608-1.165a43.009,43.009,0,0,1,4.3-2.489l1.244-.631,1.283-.639c.866-.429,1.747-.875,2.625-1.335s1.749-.952,2.586-1.473c.422-.256.829-.524,1.235-.8.208-.139.392-.276.584-.413s.384-.29.574-.433a19.665,19.665,0,0,0,2.043-1.818,16.4,16.4,0,0,0,1.577-1.875c.223-.306.42-.614.6-.907s.336-.582.471-.859.259-.535.362-.778.18-.475.258-.679a8.92,8.92,0,0,0,.276-.974C3479.8,1806.884,3479.831,1806.763,3479.831,1806.763Z" transform="translate(-3386.074 -1766.228)" fill="#089e81"/>
        <path id="Trazado_113893" data-name="Trazado 113893" d="M3441.477,1795.828l-.306.022c-.2.022-.489.027-.857.094-.185.03-.393.056-.614.1s-.459.1-.715.156l-.806.217c-.281.086-.572.189-.88.292a18.7,18.7,0,0,0-1.915.833,19.85,19.85,0,0,0-2.022,1.168l-.508.342c-.172.116-.334.242-.5.365-.339.242-.666.509-1,.775-.658.544-1.282,1.122-1.907,1.741-.577.594-1.179,1.249-1.714,1.891-.268.325-.535.647-.783.977s-.5.651-.731.975c-.467.649-.9,1.287-1.294,1.9s-.749,1.2-1.071,1.753c-.157.276-.311.539-.45.793l-.393.722c-.248.452-.451.854-.62,1.184s-.293.595-.381.773-.13.276-.13.276l.2-.23c.127-.152.322-.371.556-.658s.525-.63.843-1.034l1.08-1.345,1.267-1.587c.446-.563.927-1.147,1.424-1.749s1.025-1.206,1.563-1.818,1.09-1.194,1.691-1.8c.566-.572,1.174-1.142,1.773-1.679s1.221-1.038,1.833-1.5,1.22-.9,1.817-1.272,1.174-.716,1.716-1.017l.791-.408.729-.346c.233-.1.452-.188.654-.28s.392-.154.564-.223c.339-.137.62-.228.805-.3Z" transform="translate(-3358.34 -1757.334)" fill="#089e81"/>
        <g id="Grupo_68234" data-name="Grupo 68234" transform="translate(34.504 23.32)">
          <g id="Grupo_68220" data-name="Grupo 68220" transform="translate(4.003 53.421)">
            <path id="Trazado_113894" data-name="Trazado 113894" d="M3322.92,2032.549c.791.6,1.58,1.214,2.372,1.835a17.6,17.6,0,0,0-2.442-1.493c-.251-.127-.546-.225-.8-.335-5.875-2.619-12.195-1.539-18.338-1.683a12.322,12.322,0,0,1-10.719-6.813l-5.278-10.543c3.472,2.891,7.8,4.962,11.889,6.893-4.881-5.611-10.039-11.839-10.629-19.594,2.458,9.763,11.945,8.29,19.182,11.816,7.506,3.657,11.053,9.816,14.957,16.252.145.24.3.475.44.714.284.468.573.934.866,1.4q-.455-.545-.944-1.048c-.171-.176-.343-.347-.522-.514a20.73,20.73,0,0,0-16.422-5.426c6.008,1.376,10.922,4.442,15.7,8.014C3322.458,2032.2,3322.687,2032.374,3322.92,2032.549Z" transform="translate(-3287.715 -2000.817)" fill="#089e81"/>
          </g>
          <g id="Grupo_68221" data-name="Grupo 68221" transform="translate(41.62 87.018)">
            <path id="Trazado_113895" data-name="Trazado 113895" d="M3490.491,2181.8c-.386-.305-.774-.608-1.16-.914C3489.723,2181.169,3490.108,2181.474,3490.491,2181.8Z" transform="translate(-3489.332 -2180.886)" fill="#089e81"/>
          </g>
          <g id="Grupo_68222" data-name="Grupo 68222" transform="translate(0 34.685)">
            <path id="Trazado_113896" data-name="Trazado 113896" d="M3274.882,1915.111c9.055,12.909,26.614,15.229,32.88,31.345-4.722-12.153-5.5-25.685-16.878-34.235-7.869-5.913-18.53-3.305-24.626-11.824C3269.311,1905.254,3273.715,1909.291,3274.882,1915.111Z" transform="translate(-3266.258 -1900.397)" fill="#089e81"/>
          </g>
          <g id="Grupo_68223" data-name="Grupo 68223" transform="translate(12.808 34.235)">
            <path id="Trazado_113897" data-name="Trazado 113897" d="M3350.863,1912.452c6.144,6.7,10.971,15.719,11.844,24.853-.549-21.09.712-42.514-27.8-38.922C3343.143,1898.143,3346.43,1906.919,3350.863,1912.452Z" transform="translate(-3334.906 -1897.987)" fill="#089e81"/>
          </g>
          <g id="Grupo_68224" data-name="Grupo 68224" transform="translate(35.053 7.758)">
            <path id="Trazado_113898" data-name="Trazado 113898" d="M3461.66,1800.06c1.983,7.3-.812,14.139-1.912,21.337,2.448-7.271,5.476-14.319,7.429-21.753l-.074,3.185c1.383-10.148,6.975-18.4,6.3-28.905-.429-6.626-4.424-11.494.267-17.848-5.8,7.521-12.63,16.328-9.338,26.2-2.888-6.151-8.585-13.548-3.171-19.91C3451.754,1777.1,3451.666,1784.5,3461.66,1800.06Z" transform="translate(-3454.134 -1756.077)" fill="#089e81"/>
          </g>
          <g id="Grupo_68225" data-name="Grupo 68225" transform="translate(35.68)">
            <path id="Trazado_113899" data-name="Trazado 113899" d="M3457.57,1819.214q-.073,1.46-.073,2.923c2.368-19.509,6.15-41.486,16.815-58.43,4.656-7.4,15.026-12.276,16.1-21.816,1.094-9.727-11.059-17.772-5.746-27.394-2.482,8.444-6.717,16.079-7.692,24.944-.881,8.025-.171,14.671-2.947,22.538C3467.128,1781.527,3457.565,1797.882,3457.57,1819.214Z" transform="translate(-3457.496 -1714.497)" fill="#089e81"/>
          </g>
          <g id="Grupo_68226" data-name="Grupo 68226" transform="translate(45.403 34.012)">
            <path id="Trazado_113900" data-name="Trazado 113900" d="M3512.276,1913.667c1.407-5.786.106-11.71-2.673-16.877C3511.157,1902.3,3512.749,1907.893,3512.276,1913.667Z" transform="translate(-3509.604 -1896.79)" fill="#089e81"/>
          </g>
          <g id="Grupo_68227" data-name="Grupo 68227" transform="translate(43.028 72.821)">
            <path id="Trazado_113901" data-name="Trazado 113901" d="M3496.874,2105.71l1.1-.915Z" transform="translate(-3496.874 -2104.795)" fill="#089e81"/>
          </g>
          <g id="Grupo_68228" data-name="Grupo 68228" transform="translate(45.183 49.891)">
            <path id="Trazado_113902" data-name="Trazado 113902" d="M3528.521,1993.124c10.938-3.342,18.922-9.187,30.924-7.2-23.868-7.258-36.231-6.3-51.018,16.294,3.329-4.144,8.351-7.47,13.7-7.919A30.556,30.556,0,0,0,3528.521,1993.124Z" transform="translate(-3508.427 -1981.899)" fill="#089e81"/>
          </g>
          <g id="Grupo_68229" data-name="Grupo 68229" transform="translate(42.352 50.043)">
            <path id="Trazado_113903" data-name="Trazado 113903" d="M3511.013,2001.623c11.674-.59,21.09,3.632,30.819-4.123,4.931-3.93,9.553-10.329,14.442-14.789-8.433,7.462-17.8,6.3-27.972,7.895-14.019,2.2-23.46,8.03-35.049,15.466C3498.288,2002.35,3504.973,2002.168,3511.013,2001.623Z" transform="translate(-3493.254 -1982.711)" fill="#089e81"/>
          </g>
          <g id="Grupo_68230" data-name="Grupo 68230" transform="translate(48.574 16.746)">
            <path id="Trazado_113904" data-name="Trazado 113904" d="M3526.6,1850.091c4.823-13.309,23.662-8.615,28.366-22.506,3.443-10.168-4.244-15.852-9.557-23.336C3555.184,1824.282,3531.454,1833.4,3526.6,1850.091Z" transform="translate(-3526.604 -1804.249)" fill="#089e81"/>
          </g>
          <g id="Grupo_68231" data-name="Grupo 68231" transform="translate(97.351 62.876)">
            <path id="Trazado_113905" data-name="Trazado 113905" d="M3788.034,2052.464c.236-.325.471-.648.7-.967C3788.507,2051.832,3788.272,2052.152,3788.034,2052.464Z" transform="translate(-3788.034 -2051.496)" fill="#089e81"/>
          </g>
          <g id="Grupo_68232" data-name="Grupo 68232" transform="translate(40.34 77.942)">
            <path id="Trazado_113906" data-name="Trazado 113906" d="M3516.6,2136.837c5.043.765,9.236-.659,13.2-3.519-1.506,1.342-2.983,2.722-4.446,4.118a20.441,20.441,0,0,1-24.37,2.922c-5.829-3.38-11.572-7.593-18.523-7.621C3492.834,2130.552,3512.127,2136.275,3516.6,2136.837Z" transform="translate(-3482.47 -2132.242)" fill="#089e81"/>
          </g>
          <g id="Grupo_68233" data-name="Grupo 68233" transform="translate(42.201 63.844)">
            <path id="Trazado_113907" data-name="Trazado 113907" d="M3492.445,2067.979c16.036-10.656,42.849,4.781,55.15-11.3-4.532,6.2-10.6,13.368-17.852,16.559a12.865,12.865,0,0,1-7.221.9l-1.479-.237a11.407,11.407,0,0,1-2.256-.6C3509.985,2069.939,3500.6,2063.137,3492.445,2067.979Z" transform="translate(-3492.445 -2056.682)" fill="#089e81"/>
          </g>
        </g>
        <path id="Trazado_113908" data-name="Trazado 113908" d="M3588.474,1896.145l.273-.084c.176-.061.44-.134.765-.256s.728-.262,1.17-.461.948-.417,1.482-.688c.266-.14.544-.286.825-.445s.572-.332.863-.518a19.085,19.085,0,0,0,1.776-1.272l.447-.364.434-.394c.3-.258.569-.552.851-.839.143-.141.269-.3.4-.453s.272-.3.4-.468c.244-.33.507-.647.726-1l.336-.52.3-.54.15-.27c.049-.091.088-.186.133-.279.085-.187.171-.373.257-.558l.032-.069.014-.034.007-.017.014-.034.052-.135.105-.269.051-.134.049-.147.1-.294c.067-.2.116-.386.167-.577l.074-.285c.02-.1.041-.191.061-.285a12.259,12.259,0,0,0,.271-2.205,12.678,12.678,0,0,0-.094-1.974c-.015-.151-.046-.3-.067-.442s-.043-.284-.076-.42c-.064-.27-.115-.527-.187-.762s-.124-.458-.2-.657-.134-.383-.2-.545-.126-.306-.183-.429-.112-.225-.155-.309l-.13-.254s.017.1.051.281c.017.091.039.2.064.335s.041.285.07.454.048.357.071.561.045.424.063.659c.037.47.046,1,.034,1.573q-.008.215-.017.438c-.006.148-.023.3-.035.452s-.025.308-.046.465-.031.317-.062.477a14.447,14.447,0,0,1-1.191,4c-.081.164-.165.328-.248.493-.042.082-.081.166-.125.247l-.139.242c-.092.161-.185.322-.278.484l-.309.467c-.194.319-.432.611-.649.914-.111.15-.236.29-.351.436s-.229.294-.358.428c-.253.272-.489.556-.751.812l-.383.389-.392.37c-.519.492-1.053.939-1.566,1.358-.255.211-.517.4-.761.6s-.5.365-.728.542c-.475.338-.91.655-1.308.92l-1.029.692-.673.442Z" transform="translate(-3493.852 -1822.919)" fill="#bcc751"/>
        <path id="Trazado_113909" data-name="Trazado 113909" d="M3575,1786.921l.014.3c.012.2.021.485.05.849.012.182.032.385.04.6s.017.455.027.707.023.517.035.8.007.578.01.888.02.629.013.961-.01.675-.015,1.028c-.005.176,0,.354-.007.534s-.018.363-.028.548c-.021.369-.026.745-.051,1.128s-.061.77-.089,1.162-.079.787-.117,1.187c-.073.8-.2,1.6-.313,2.411-.145.8-.269,1.607-.447,2.39-.041.2-.082.392-.123.587s-.083.388-.131.579c-.094.382-.187.759-.274,1.133s-.206.73-.3,1.088l-.144.529c-.05.174-.108.342-.158.511l-.3.982c-.1.318-.212.617-.309.911s-.194.574-.284.842l-.279.751c-.087.237-.174.457-.245.665s-.155.39-.221.56c-.138.336-.236.608-.308.791l-.105.284.179-.243c.113-.16.287-.391.493-.695.1-.152.223-.317.343-.5s.239-.394.371-.614l.42-.7c.142-.25.275-.522.423-.8s.3-.573.44-.883.28-.635.427-.967c.072-.167.148-.335.215-.509s.131-.351.2-.529c.133-.357.269-.723.4-1.1.231-.757.489-1.538.669-2.353.216-.806.348-1.644.507-2.476.105-.841.237-1.679.28-2.512.078-.83.076-1.652.088-2.445-.006-.4-.023-.787-.04-1.167-.008-.191-.017-.379-.026-.565s-.031-.369-.049-.55c-.037-.361-.072-.712-.107-1.051s-.1-.664-.147-.976-.1-.61-.155-.893-.126-.549-.182-.8-.109-.485-.165-.7-.119-.406-.171-.581c-.1-.351-.2-.624-.254-.812Z" transform="translate(-3479.594 -1750.088)" fill="#bcc751"/>
        <path id="Trazado_113910" data-name="Trazado 113910" d="M3528.663,1804.467l-.087.212c-.053.139-.138.342-.233.6s-.206.579-.322.95c-.057.186-.117.384-.182.592s-.115.431-.177.661-.121.472-.18.722-.11.511-.167.778-.106.544-.155.827-.1.572-.142.868c-.078.591-.162,1.2-.208,1.828-.063.624-.084,1.26-.117,1.9-.007.637-.025,1.273,0,1.9.008.626.055,1.243.1,1.837s.111,1.168.193,1.709l.119.787c.044.254.091.5.137.732s.089.458.138.67.1.412.145.6c.093.376.18.7.266.969s.152.475.2.617.075.217.075.217,0-.079.009-.23.013-.369.013-.645,0-.612.007-1,0-.815,0-1.285,0-.977,0-1.513c0-.267,0-.542,0-.823s0-.567,0-.858c.008-.582.017-1.183.026-1.794s.029-1.23.042-1.849.04-1.239.069-1.848.055-1.211.082-1.792.057-1.145.1-1.679.057-1.042.09-1.51c.054-.942.1-1.728.131-2.277.017-.277.02-.5.027-.646S3528.663,1804.467,3528.663,1804.467Z" transform="translate(-3443.586 -1764.361)" fill="#bcc751"/>
        <path id="Trazado_113911" data-name="Trazado 113911" d="M3471.326,1859.557l-.032.241c-.017.157-.049.387-.075.681s-.055.648-.07,1.061c-.008.206-.015.426-.023.657s0,.473.005.726.008.518.021.79.037.555.056.844.05.587.084.889.072.613.115.928c.1.625.2,1.275.347,1.925.128.655.313,1.307.481,1.962.2.646.387,1.3.624,1.922.214.631.473,1.235.716,1.82.13.29.259.573.391.849s.257.546.4.8l.4.747c.133.239.27.465.4.682s.254.426.379.62l.364.545c.229.341.437.633.62.866s.327.415.424.539l.155.188s-.029-.08-.081-.23-.131-.368-.238-.64c-.053-.136-.112-.287-.175-.452l-.2-.534-.231-.6-.247-.67c-.084-.234-.181-.472-.27-.724s-.183-.51-.278-.777c-.049-.133-.1-.267-.147-.4s-.094-.276-.142-.417q-.146-.42-.3-.857c-.092-.294-.193-.59-.292-.889s-.19-.608-.29-.914c-.2-.613-.374-1.244-.562-1.871-.171-.631-.354-1.26-.509-1.885-.076-.313-.167-.621-.235-.929s-.145-.612-.222-.91-.133-.6-.2-.885c-.034-.144-.067-.288-.1-.429s-.059-.282-.087-.421c-.06-.277-.118-.547-.174-.807s-.1-.515-.151-.758-.1-.477-.144-.7-.082-.433-.118-.631-.078-.385-.113-.558-.062-.334-.088-.478c-.052-.289-.1-.516-.134-.671S3471.326,1859.557,3471.326,1859.557Z" transform="translate(-3398.396 -1809.172)" fill="#bcc751"/>
        <path id="Trazado_113912" data-name="Trazado 113912" d="M3380.521,1907.706l.267.156c.174.1.435.245.753.438.159.1.337.2.526.317s.4.248.614.384l.681.455.742.519c.508.375,1.054.78,1.6,1.241s1.116.959,1.684,1.492,1.115,1.12,1.661,1.726,1.059,1.254,1.549,1.918l.365.509c.129.175.235.342.349.511.227.332.445.684.662,1.028.415.7.81,1.4,1.157,2.1s.664,1.382.928,2.048.5,1.3.711,1.9c.1.3.189.588.278.862l.233.786c.066.249.124.483.186.7s.1.417.149.6c.09.363.151.65.2.846s.07.3.07.3,0-.107.014-.309.026-.5.01-.875c-.006-.188-.006-.4-.017-.626s-.034-.473-.053-.737-.06-.542-.092-.836-.095-.6-.146-.923-.129-.653-.21-1-.171-.7-.281-1.055a20.958,20.958,0,0,0-.787-2.226c-.161-.378-.328-.76-.518-1.138s-.388-.757-.594-1.137-.43-.75-.682-1.12c-.121-.185-.243-.377-.365-.547l-.375-.533a24.16,24.16,0,0,0-1.682-2.009c-.3-.308-.6-.619-.912-.9s-.621-.566-.935-.831a21.175,21.175,0,0,0-1.894-1.409c-.31-.211-.624-.4-.925-.579s-.6-.339-.889-.5-.57-.288-.839-.411l-.772-.336c-.245-.1-.473-.191-.687-.268s-.416-.141-.594-.2c-.356-.127-.645-.19-.838-.248Z" transform="translate(-3324.698 -1848.338)" fill="#bcc751"/>
        <path id="Trazado_113913" data-name="Trazado 113913" d="M3309.2,1943.936l.259.338c.171.218.417.542.749.94s.73.885,1.213,1.422,1.028,1.142,1.646,1.783,1.3,1.318,2.049,2.013,1.547,1.414,2.4,2.13q.64.537,1.314,1.072c.448.358.905.715,1.375,1.063.935.708,1.905,1.384,2.87,2.06s1.929,1.338,2.857,2.008c.464.336.917.677,1.362,1.015s.87.686,1.284,1.034c.208.173.41.348.608.524l.148.131c.037.031.1.087.141.13l.3.271c.194.179.367.354.549.529l.521.539a20.455,20.455,0,0,1,1.764,2.147c.252.35.474.7.683,1.033l.294.5.256.481c.085.155.15.312.223.46s.139.294.2.435l.173.406q.072.2.138.377c.091.24.153.459.215.649.03.1.059.183.082.265s.04.157.057.224l.107.411s-.008-.148-.024-.425c0-.069-.01-.147-.015-.233s-.021-.177-.033-.278c-.024-.2-.051-.434-.106-.688l-.08-.406-.111-.441c-.019-.077-.04-.156-.06-.235l-.077-.24c-.054-.162-.1-.334-.168-.5a14.123,14.123,0,0,0-1.029-2.243,18.121,18.121,0,0,0-1.648-2.417c-.163-.2-.335-.4-.508-.606s-.364-.408-.548-.6l-.276-.29-.149-.151-.148-.145c-.2-.195-.4-.39-.607-.581a34.168,34.168,0,0,0-2.658-2.217c-.932-.715-1.9-1.394-2.869-2.07s-1.934-1.335-2.868-2c-.235-.166-.465-.335-.7-.5s-.462-.331-.687-.5l-1.336-1c-.871-.664-1.7-1.318-2.489-1.947s-1.518-1.238-2.194-1.8l-.964-.816c-.307-.259-.6-.507-.866-.743l-.756-.661q-.353-.305-.642-.563l-.9-.8Z" transform="translate(-3266.681 -1877.808)" fill="#bcc751"/>
        <path id="Trazado_113914" data-name="Trazado 113914" d="M3331.292,2053.544l.082.256c.026.083.063.185.11.305l.075.193c.03.068.062.138.1.214a9.716,9.716,0,0,0,1.5,2.313,13.069,13.069,0,0,0,1.306,1.317c.247.218.51.429.786.641l.2.153.217.155c.145.105.29.2.438.3.3.2.6.394.916.58s.634.374.96.548c.651.357,1.324.685,1.994,1.008s1.342.626,2.008.923q.5.225.99.437c.327.143.649.285.97.419,1.278.542,2.484,1.021,3.526,1.41s1.924.691,2.545.891c.31.1.558.173.725.225l.258.074-.222-.152c-.146-.1-.359-.241-.635-.416-.55-.352-1.342-.839-2.306-1.395s-2.1-1.181-3.333-1.821c-.308-.162-.622-.32-.941-.482s-.64-.325-.969-.485c-.65-.325-1.321-.642-1.985-.96s-1.325-.629-1.967-.944-1.26-.64-1.849-.97c-.145-.084-.293-.166-.431-.25l-.208-.124-.215-.131c-.275-.165-.538-.343-.794-.513-.508-.347-.972-.7-1.385-1.046a13.567,13.567,0,0,1-1.846-1.865c-.1-.125-.191-.237-.266-.337s-.142-.186-.191-.259Z" transform="translate(-3284.655 -1966.966)" fill="#bcc751"/>
        <path id="Trazado_113915" data-name="Trazado 113915" d="M3346.74,2118.651l-.145-.144a5.527,5.527,0,0,0-.426-.389c-.1-.08-.205-.17-.326-.26s-.256-.183-.4-.283-.305-.191-.472-.3-.352-.2-.542-.3c-.384-.193-.808-.392-1.264-.57s-.942-.351-1.447-.511c-.251-.081-.509-.158-.767-.232s-.521-.151-.785-.221l-1.583-.432c-.249-.072-.538-.148-.779-.226s-.5-.157-.755-.238c-.5-.174-.984-.344-1.441-.539a14.029,14.029,0,0,1-1.292-.613,10.943,10.943,0,0,1-1.093-.666c-.164-.114-.311-.234-.46-.341l-.4-.336c-.119-.114-.231-.221-.334-.32s-.186-.2-.271-.29c-.169-.174-.281-.329-.366-.431l-.13-.158.055.2a4.125,4.125,0,0,0,.191.551c.051.115.1.248.174.382s.155.278.243.435.209.3.324.468.26.32.406.485a8.437,8.437,0,0,0,1.054.956,10.087,10.087,0,0,0,1.329.86c.12.064.241.13.365.193s.25.119.378.18c.251.125.515.226.78.333s.531.2.811.29.533.165.82.25c.548.145,1.094.282,1.632.4s1.062.226,1.568.328.991.2,1.448.306.887.205,1.284.306l.565.157.509.154.445.149c.139.047.26.1.375.136.229.08.411.16.533.208Z" transform="translate(-3284.629 -2013.583)" fill="#bcc751"/>
        <path id="Trazado_113916" data-name="Trazado 113916" d="M3600.553,2104.058l-.3.182-.36.222c-.143.086-.311.175-.494.282l-.29.165-.327.168c-.228.115-.467.249-.736.368l-.411.194c-.142.063-.291.122-.442.186s-.3.134-.465.192l-.493.185a19.565,19.565,0,0,1-2.2.668,18.951,18.951,0,0,1-2.509.448c-.217.031-.44.044-.663.062s-.448.039-.674.043-.453.022-.682.017l-.687,0-.693-.036-.087,0h-.023l-.045,0-.18-.019-.363-.035c-.495-.036-.938-.117-1.4-.184-.928-.154-1.863-.352-2.781-.578s-1.825-.465-2.708-.7-1.742-.453-2.568-.641c-.412-.095-.814-.184-1.207-.258l-.578-.111-.561-.091c-.184-.028-.362-.058-.539-.081l-.518-.06-.491-.052c-.16-.013-.317-.02-.467-.03l-.437-.026a3.905,3.905,0,0,0-.407-.012l-.717.008a5.036,5.036,0,0,0-.574.031l-.424.039-.351.036.35.049.419.055c.164.022.353.042.561.084l.693.124c.251.044.52.11.808.171.143.033.292.062.443.1l.466.125.49.126c.167.045.336.1.51.149l.532.152.55.173.569.177.584.193,2.5.826c.437.143.88.285,1.334.423l.687.208c.229.07.465.128.7.194a28.777,28.777,0,0,0,2.9.649c.506.069,1.026.153,1.5.183l.363.031.181.014.046,0,.043,0h.024l.093,0,.753.019.746-.018c.246-.007.491-.035.735-.052s.484-.049.723-.079.475-.062.707-.109a16.324,16.324,0,0,0,2.636-.677c.411-.136.8-.3,1.174-.45.188-.077.366-.168.543-.248s.353-.16.516-.252c.331-.177.65-.341.938-.525.145-.089.287-.173.423-.261l.388-.263c.253-.166.481-.334.686-.5l.3-.23.261-.222c.336-.275.571-.514.737-.675Z" transform="translate(-3479.391 -2008.055)" fill="#bcc751"/>
        <path id="Trazado_113917" data-name="Trazado 113917" d="M3630,2032.147l-.281.22c-.177.152-.458.345-.8.593s-.792.515-1.312.794a15.267,15.267,0,0,1-1.79.823,19.622,19.622,0,0,1-2.206.717,24.4,24.4,0,0,1-2.535.52c-.222.03-.449.067-.67.093s-.471.063-.7.084-.457.049-.694.066-.47.043-.707.059c-.949.069-1.92.118-2.9.149l-2.927.1c-.485.017-.968.039-1.446.068s-.957.058-1.415.1c-.933.078-1.832.187-2.683.326s-1.647.314-2.373.511c-.363.1-.708.2-1.035.31s-.631.22-.914.335a14.574,14.574,0,0,0-1.437.65c-.387.2-.68.378-.877.5l-.3.191.336-.115c.215-.083.542-.178.95-.308s.914-.253,1.492-.383,1.237-.245,1.955-.347a42.943,42.943,0,0,1,4.952-.369l1.395-.026,1.433-.016c.967-.009,1.954-.027,2.946-.058s1.988-.1,2.969-.2c.492-.047.974-.111,1.462-.186.247-.034.473-.077.705-.117s.472-.094.706-.139a19.912,19.912,0,0,0,2.63-.747,16.5,16.5,0,0,0,2.237-1c.334-.178.644-.37.937-.554s.557-.377.8-.568.465-.369.666-.543.368-.349.528-.5a9.546,9.546,0,0,0,.674-.756Z" transform="translate(-3503.235 -1949.561)" fill="#bcc751"/>
        <path id="Trazado_113918" data-name="Trazado 113918" d="M3604.434,1992.644l-.284-.113c-.188-.067-.452-.188-.813-.289-.178-.053-.378-.121-.6-.178s-.456-.111-.711-.172l-.819-.155c-.291-.046-.6-.08-.919-.121a18.545,18.545,0,0,0-2.087-.084,19.962,19.962,0,0,0-2.329.17l-.605.087c-.2.029-.407.073-.611.109-.412.069-.822.168-1.236.263-.83.2-1.643.451-2.474.737-.78.283-1.605.61-2.367.955-.383.177-.763.349-1.13.538s-.731.37-1.083.56c-.7.381-1.371.766-1.992,1.149s-1.2.758-1.727,1.112c-.262.181-.515.35-.751.517l-.668.479c-.421.3-.779.573-1.073.8s-.523.407-.68.529l-.237.192.282-.12c.18-.081.45-.193.786-.35s.748-.338,1.21-.562l1.557-.741,1.833-.878c.648-.312,1.335-.627,2.044-.953s1.448-.639,2.2-.955,1.5-.6,2.307-.884c.759-.268,1.555-.516,2.328-.739s1.552-.4,2.3-.554,1.488-.275,2.191-.353,1.368-.134,1.987-.169l.891-.022.807.006c.252.012.49.028.71.034s.421.031.6.044c.366.025.658.066.855.086Z" transform="translate(-3486.338 -1916.521)" fill="#bcc751"/>
        <path id="Trazado_113919" data-name="Trazado 113919" d="M3559.941,2146.9l.163.142c.106.089.262.226.465.388s.452.356.751.566l.477.335c.17.114.353.225.542.346s.389.242.6.363l.656.363c.223.127.461.243.7.362s.491.238.747.355c.514.222,1.047.456,1.6.651.55.214,1.126.383,1.7.564.581.152,1.157.318,1.736.432.573.134,1.149.219,1.7.307.278.038.552.071.82.1s.53.058.788.071l.747.043c.241.009.475.01.7.011s.438,0,.643,0l.579-.028c.363-.019.679-.043.939-.078s.464-.062.6-.079l.212-.033-.209-.051c-.137-.03-.337-.08-.59-.132l-.42-.086-.492-.108-.559-.114-.615-.136c-.428-.086-.889-.194-1.376-.3l-.37-.081-.377-.092c-.254-.065-.515-.117-.778-.183s-.53-.134-.8-.2-.542-.145-.816-.213c-.551-.14-1.1-.3-1.659-.456s-1.105-.324-1.646-.5c-.269-.088-.541-.164-.8-.255s-.525-.176-.784-.257l-.756-.261-.366-.124-.356-.128-.687-.243c-.222-.077-.433-.163-.639-.236l-.593-.214-.53-.2-.473-.171-.4-.153c-.242-.093-.438-.158-.569-.205Z" transform="translate(-3470.642 -2042.905)" fill="#bcc751"/>
      </g>
      <g id="Grupo_68236" data-name="Grupo 68236" transform="translate(47.447 109.639)">
        <path id="Trazado_113920" data-name="Trazado 113920" d="M3335.628,2198.879v10.979c0,.857.039,1.712.084,2.566.021.375.041.748.069,1.12a47.144,47.144,0,0,0,4.188,16.174c2.413,5.227,5.647,9.644,9.706,12.4h18.486a24.518,24.518,0,0,0,6.366-6.527,39.567,39.567,0,0,0,3.294-5.87,47.313,47.313,0,0,0,4.22-19.866v-10.979c0-8.235-4.333-21.736-14.731-21.736h-16.644a10.968,10.968,0,0,0-6.31,1.9,15.147,15.147,0,0,0-3.878,3.905c-.139.195-.272.373-.4.574-.061.092-.119.174-.176.266-.013.02-.026.033-.037.052l-.167.27q-.23.38-.445.771c-.073.13-.143.262-.212.395-.149.281-.292.567-.43.854-.069.145-.138.289-.2.434-.057.125-.113.249-.169.375q-.111.253-.216.508c-.062.148-.121.3-.18.446-.052.133-.1.265-.156.4q-.1.251-.184.5c-.055.15-.107.3-.158.453q-.234.682-.433,1.37-.077.257-.146.517c-.036.133-.071.265-.106.4s-.066.261-.1.392c-.01.034-.019.07-.025.106-.027.109-.053.215-.077.324q-.111.486-.21.968c0,.01,0,.02-.006.03-.03.151-.059.3-.085.451s-.055.3-.08.449q-.076.446-.137.886c-.019.131-.036.262-.054.392,0,.023-.007.048-.008.071-.016.137-.034.273-.049.408,0,.012,0,.023,0,.034-.015.131-.027.262-.041.392-.01.1-.019.2-.027.3s-.015.192-.022.288q-.037.482-.055.947c0,.1-.008.208-.009.308s-.021.172-.021.258C3335.646,2198.651,3335.628,2198.765,3335.628,2198.879Z" transform="translate(-3335.628 -2177.144)" fill="#e65038"/>
        <path id="Trazado_113921" data-name="Trazado 113921" d="M3335.628,2206.874v10.979c0,.856.039,1.712.084,2.566.021.374.041.746.069,1.119a47.237,47.237,0,0,0,4.208,16.174c2.412,5.228,5.656,9.644,9.716,12.4h18.5a24.514,24.514,0,0,0,6.406-6.549c-.029.008-.058.022-.086.029a17.975,17.975,0,0,1-4.752.643c-15.034,0-27.224-18.837-27.224-42.073a62.624,62.624,0,0,1,1.8-15.186s0,0,0-.005a15.319,15.319,0,0,0-3.879,3.928c-.137.2-.272.395-.4.594-.061.091-.119.184-.176.275-.013.02-.026.04-.037.059l-.167.271c-.153.255-.3.511-.445.773-.073.13-.143.263-.212.393-.149.282-.293.567-.43.856-.069.144-.138.289-.2.434-.057.125-.113.249-.169.375q-.111.253-.216.508c-.062.148-.121.3-.18.446-.052.132-.1.265-.156.4q-.1.25-.184.5c-.055.149-.107.3-.158.452q-.234.682-.433,1.369-.077.258-.146.518c-.036.133-.071.265-.106.4s-.066.261-.1.393c-.01.034-.019.07-.025.106-.027.109-.053.215-.077.324q-.113.487-.21.968c0,.01,0,.02-.006.03-.03.152-.059.3-.085.451s-.055.3-.08.448q-.078.448-.137.887c-.019.132-.036.263-.054.393,0,.022-.007.048-.008.07-.016.137-.034.272-.049.408,0,.011,0,.023,0,.035-.015.131-.027.262-.041.392-.01.1-.019.2-.027.3s-.015.192-.022.289c-.025.321-.043.637-.055.946,0,.1-.008.207-.009.309,0,.086-.021.172-.021.257C3335.646,2206.645,3335.628,2206.759,3335.628,2206.874Z" transform="translate(-3335.628 -2185.138)" fill="#cc3c31"/>
      </g>
    </g>
    <g id="Grupo_68244" data-name="Grupo 68244" transform="translate(2220.276 788.742)">
      <rect id="Rectángulo_7064" data-name="Rectángulo 7064" width="5.593" height="1.968" transform="translate(13.759 105.134) rotate(-18.765)" fill="#0098d7"/>
      <rect id="Rectángulo_7065" data-name="Rectángulo 7065" width="4.79" height="1.968" transform="translate(15.484 108.965) rotate(-18.765)" fill="#0098d7"/>
      <rect id="Rectángulo_7066" data-name="Rectángulo 7066" width="5.593" height="1.968" transform="translate(24.328 136.104) rotate(-18.766)" fill="#0098d7"/>
      <rect id="Rectángulo_7067" data-name="Rectángulo 7067" width="4.79" height="1.968" transform="translate(26.054 139.935) rotate(-18.766)" fill="#0098d7"/>
      <g id="Grupo_68239" data-name="Grupo 68239" transform="translate(9.467 89.614)">
        <g id="Grupo_68238" data-name="Grupo 68238">
          <path id="Trazado_113922" data-name="Trazado 113922" d="M2410.094,2130.623l-25.817-76.5a3.09,3.09,0,0,1,2-3.875,3.2,3.2,0,0,1,2.1.017,2.987,2.987,0,0,1,1.837,1.854l25.818,76.5a2.956,2.956,0,0,1-.2,2.345,3.173,3.173,0,0,1-1.8,1.528,3.213,3.213,0,0,1-2.1-.018A2.977,2.977,0,0,1,2410.094,2130.623Zm-23.152-78.4a1,1,0,0,0-.69,1.235l25.816,76.5a1.03,1.03,0,0,0,1.294.562,1.078,1.078,0,0,0,.626-.522.9.9,0,0,0,.066-.71l-25.816-76.5a.918.918,0,0,0-.57-.561A1.11,1.11,0,0,0,2386.942,2052.221Z" transform="translate(-2384.123 -2050.079)" fill="#33addf"/>
        </g>
      </g>
      <path id="Trazado_113923" data-name="Trazado 113923" d="M2583.389,1759.418l1.213-1.344-3.807-3.462-1.213,1.344Z" transform="translate(-2533.646 -1720.126)" fill="#0098d7"/>
      <path id="Trazado_113924" data-name="Trazado 113924" d="M2570.492,1775.556l1.213-1.344-3.26-2.965-1.213,1.344Z" transform="translate(-2523.6 -1733.658)" fill="#0098d7"/>
      <path id="Trazado_113925" data-name="Trazado 113925" d="M2455.171,1907.179l1.213-1.344-3.807-3.462-1.213,1.344Z" transform="translate(-2429.351 -1840.318)" fill="#0098d7"/>
      <path id="Trazado_113926" data-name="Trazado 113926" d="M2442.274,1923.317l1.213-1.344-3.26-2.965-1.213,1.344Z" transform="translate(-2419.305 -1853.85)" fill="#0098d7"/>
      <path id="Trazado_113927" data-name="Trazado 113927" d="M2437.3,2404.807h22.2a3.792,3.792,0,0,1,3.78,3.78v5.43h-29.76v-5.43A3.792,3.792,0,0,1,2437.3,2404.807Z" transform="translate(-2414.836 -2249.009)" fill="#0b2e4e"/>
      <path id="Trazado_113928" data-name="Trazado 113928" d="M2410.176,2457.69H2336.81s.472-18.892,37.785-17.476C2374.595,2440.215,2405.61,2437.683,2410.176,2457.69Z" transform="translate(-2336.17 -2277.727)" fill="#33addf"/>
      <g id="Grupo_68240" data-name="Grupo 68240" transform="translate(11.864 164.661)" opacity="0.08">
        <ellipse id="Elipse_4878" data-name="Elipse 4878" cx="25.459" cy="5.133" rx="25.459" ry="5.133" fill="#050505"/>
      </g>
      <g id="Grupo_68242" data-name="Grupo 68242" transform="translate(8.208 21.303)">
        <g id="Grupo_68241" data-name="Grupo 68241">
          <path id="Trazado_113929" data-name="Trazado 113929" d="M2378.4,1745.3a2.847,2.847,0,0,1-.366-4l48.33-56.4a2.638,2.638,0,0,1,.913-.692,2.9,2.9,0,0,1,3.448,4.456l-48.33,56.4a2.682,2.682,0,0,1-.914.694A2.878,2.878,0,0,1,2378.4,1745.3Zm49.413-59.148-48.33,56.4a.97.97,0,0,0,1.461,1.26l48.329-56.4a.931.931,0,0,0-.163-1.294.967.967,0,0,0-1.032-.171A.837.837,0,0,0,2427.809,1686.154Z" transform="translate(-2377.374 -1683.954)" fill="#33addf"/>
        </g>
      </g>
      <path id="Trazado_113930" data-name="Trazado 113930" d="M2634.255,1665.756a5.452,5.452,0,1,0,1.936-7.461A5.449,5.449,0,0,0,2634.255,1665.756Z" transform="translate(-2577.506 -1641.167)" fill="#33addf"/>
      <path id="Trazado_113931" data-name="Trazado 113931" d="M2333.711,1993.975a8.353,8.353,0,1,0,10.344-5.709A8.353,8.353,0,0,0,2333.711,1993.975Z" transform="translate(-2333.381 -1909.917)" fill="#0098d7"/>
      <path id="Trazado_113932" data-name="Trazado 113932" d="M2351.277,2009.912a4.85,4.85,0,1,0,6.005-3.314A4.849,4.849,0,0,0,2351.277,2009.912Z" transform="translate(-2347.782 -1924.941)" fill="#fff"/>
      <path id="Trazado_113933" data-name="Trazado 113933" d="M2647.619,1595.784l-5.781-2.968c-7.509-3.86-11.378-11.3-8.646-16.613l.782-1.519c2.731-5.315,11.029-6.5,18.54-2.64l5.778,2.967Z" transform="translate(-2576.542 -1569.776)" fill="#0b2e4e"/>
      <path id="Trazado_113934" data-name="Trazado 113934" d="M2758.756,1653.854l13.042-23.5,17.683-31.863c-36.444-20.224-72.363-25.13-80.227-10.966l-1.835,3.319-.4.731C2699.153,1605.744,2722.307,1633.625,2758.756,1653.854Z" transform="translate(-2636.057 -1577.63)" fill="#33addf"/>
      <path id="Trazado_113935" data-name="Trazado 113935" d="M2970.161,1717.725c-1.419,2.38-1.108,4.015.02,4.653h0c1.131.633,2.63.008,4.07-2.351l29.895-53.063c1.356-2.559,1.014-3.787-.116-4.423h0c-1.13-.635-2.669-.332-3.97,2.121Z" transform="translate(-2850.581 -1645)" fill="#0098d7"/>
      <g id="Grupo_68243" data-name="Grupo 68243" transform="translate(69.426 13.214)" opacity="0.08">
        <path id="Trazado_113936" data-name="Trazado 113936" d="M2758.756,1703.61l13.042-23.5c-16.559-3.467-48.494-13.341-64.379-39.509l-.4.731C2699.153,1655.5,2722.307,1683.381,2758.756,1703.61Z" transform="translate(-2705.482 -1640.6)" fill="#050505"/>
      </g>
    </g>
    <g id="Grupo_68245" data-name="Grupo 68245" transform="translate(2617.958 872.831)">
      <path id="Trazado_113937" data-name="Trazado 113937" d="M4468.848,2398.7h143.031l-4.02-31.07H4468.848a4,4,0,0,0-4,4V2394.7A4,4,0,0,0,4468.848,2398.7Z" transform="translate(-4464.845 -2302.86)" fill="#0098d7"/>
      <path id="Trazado_113938" data-name="Trazado 113938" d="M4480.67,2405.815h144.36V2378.98H4480.67a2.114,2.114,0,0,0-2.114,2.115V2403.7A2.113,2.113,0,0,0,4480.67,2405.815Z" transform="translate(-4475.998 -2312.09)" fill="#8ec6d9"/>
      <path id="Trazado_113939" data-name="Trazado 113939" d="M4480.67,2405.815h54.011V2378.98H4480.67a2.114,2.114,0,0,0-2.114,2.115V2403.7A2.113,2.113,0,0,0,4480.67,2405.815Z" transform="translate(-4475.998 -2312.09)" fill="#fefefe"/>
      <rect id="Rectángulo_7069" data-name="Rectángulo 7069" width="56.04" height="0.345" transform="translate(2.63 69.256)" fill="#e4e6ea"/>
      <rect id="Rectángulo_7070" data-name="Rectángulo 7070" width="90.406" height="0.345" transform="translate(58.67 69.256)" fill="#0098d7"/>
      <rect id="Rectángulo_7071" data-name="Rectángulo 7071" width="56.04" height="0.691" transform="translate(2.63 71.329)" fill="#e4e6ea"/>
      <rect id="Rectángulo_7072" data-name="Rectángulo 7072" width="56.04" height="0.259" transform="translate(2.63 74.265)" fill="#e4e6ea"/>
      <rect id="Rectángulo_7073" data-name="Rectángulo 7073" width="56.04" height="0.691" transform="translate(2.63 75.992)" fill="#e4e6ea"/>
      <rect id="Rectángulo_7074" data-name="Rectángulo 7074" width="56.04" height="0.345" transform="translate(2.63 77.718)" fill="#e4e6ea"/>
      <rect id="Rectángulo_7075" data-name="Rectángulo 7075" width="56.04" height="0.691" transform="translate(2.63 81.086)" fill="#e4e6ea"/>
      <rect id="Rectángulo_7076" data-name="Rectángulo 7076" width="56.04" height="0.173" transform="translate(2.63 83.331)" fill="#e4e6ea"/>
      <rect id="Rectángulo_7077" data-name="Rectángulo 7077" width="56.04" height="0.691" transform="translate(2.63 85.49)" fill="#e4e6ea"/>
      <rect id="Rectángulo_7078" data-name="Rectángulo 7078" width="56.04" height="0.345" transform="translate(2.63 87.562)" fill="#e4e6ea"/>
      <rect id="Rectángulo_7079" data-name="Rectángulo 7079" width="56.04" height="0.691" transform="translate(2.63 91.016)" fill="#e4e6ea"/>
      <rect id="Rectángulo_7080" data-name="Rectángulo 7080" width="90.406" height="0.691" transform="translate(58.67 71.329)" fill="#0098d7"/>
      <rect id="Rectángulo_7081" data-name="Rectángulo 7081" width="90.406" height="0.259" transform="translate(58.67 74.265)" fill="#0098d7"/>
      <rect id="Rectángulo_7082" data-name="Rectángulo 7082" width="90.406" height="0.691" transform="translate(58.67 75.992)" fill="#0098d7"/>
      <rect id="Rectángulo_7083" data-name="Rectángulo 7083" width="90.406" height="0.345" transform="translate(58.67 77.718)" fill="#0098d7"/>
      <rect id="Rectángulo_7084" data-name="Rectángulo 7084" width="90.406" height="0.691" transform="translate(58.67 81.086)" fill="#0098d7"/>
      <rect id="Rectángulo_7085" data-name="Rectángulo 7085" width="90.406" height="0.173" transform="translate(58.67 83.331)" fill="#0098d7"/>
      <rect id="Rectángulo_7086" data-name="Rectángulo 7086" width="90.406" height="0.691" transform="translate(58.67 85.49)" fill="#0098d7"/>
      <rect id="Rectángulo_7087" data-name="Rectángulo 7087" width="90.406" height="0.345" transform="translate(58.67 87.562)" fill="#0098d7"/>
      <rect id="Rectángulo_7088" data-name="Rectángulo 7088" width="90.406" height="0.691" transform="translate(58.67 91.016)" fill="#0098d7"/>
      <rect id="Rectángulo_7089" data-name="Rectángulo 7089" width="93.917" height="2.117" transform="translate(58.67 64.772)" fill="#015898"/>
      <rect id="Rectángulo_7090" data-name="Rectángulo 7090" width="93.917" height="2.117" transform="translate(58.67 93.722)" fill="#015898"/>
      <path id="Trazado_113940" data-name="Trazado 113940" d="M5124.389,2504.4l5.648-4.834,5.647,4.834v-13.64h-11.295Z" transform="translate(-5001.333 -2413.649)" fill="#e65038"/>
      <path id="Trazado_113941" data-name="Trazado 113941" d="M4654.969,2190.107H4534.136l6.7.512-2.3,18.12-4.4.657h120.833a2.84,2.84,0,0,0,2.84-2.839v-13.611A2.84,2.84,0,0,0,4654.969,2190.107Z" transform="translate(-4521.208 -2158.457)" fill="#015898"/>
      <path id="Trazado_113942" data-name="Trazado 113942" d="M4666.838,2199.524h-117.26V2215.3h117.26a1.459,1.459,0,0,0,1.458-1.459v-12.858A1.459,1.459,0,0,0,4666.838,2199.524Z" transform="translate(-4533.769 -2166.117)" fill="#fff"/>
      <path id="Trazado_113943" data-name="Trazado 113943" d="M4984.791,2199.524h-44.324V2215.3h44.324a1.464,1.464,0,0,0,1.465-1.464v-12.848A1.464,1.464,0,0,0,4984.791,2199.524Z" transform="translate(-4851.727 -2166.117)" fill="#8ec6d9"/>
      <rect id="Rectángulo_7091" data-name="Rectángulo 7091" width="72.014" height="0.345" transform="translate(16.273 47.929)" fill="#e4e6ea"/>
      <rect id="Rectángulo_7092" data-name="Rectángulo 7092" width="72.877" height="0.691" transform="translate(15.841 46.374)" fill="#e4e6ea"/>
      <rect id="Rectángulo_7093" data-name="Rectángulo 7093" width="72.877" height="0.259" transform="translate(15.841 44.906)" fill="#e4e6ea"/>
      <rect id="Rectángulo_7094" data-name="Rectángulo 7094" width="72.877" height="0.691" transform="translate(15.841 43.438)" fill="#e4e6ea"/>
      <rect id="Rectángulo_7095" data-name="Rectángulo 7095" width="72.877" height="0.345" transform="translate(15.841 42.661)" fill="#e4e6ea"/>
      <rect id="Rectángulo_7096" data-name="Rectángulo 7096" width="72.877" height="0.691" transform="translate(15.841 40.33)" fill="#e4e6ea"/>
      <rect id="Rectángulo_7097" data-name="Rectángulo 7097" width="72.877" height="0.173" transform="translate(15.841 39.294)" fill="#e4e6ea"/>
      <rect id="Rectángulo_7098" data-name="Rectángulo 7098" width="72.877" height="0.691" transform="translate(15.841 37.567)" fill="#e4e6ea"/>
      <rect id="Rectángulo_7099" data-name="Rectángulo 7099" width="72.877" height="0.345" transform="translate(15.841 36.444)" fill="#e4e6ea"/>
      <rect id="Rectángulo_7100" data-name="Rectángulo 7100" width="72.877" height="0.691" transform="translate(15.841 34.113)" fill="#e4e6ea"/>
      <rect id="Rectángulo_7101" data-name="Rectángulo 7101" width="45.16" height="0.345" transform="translate(89.064 47.929)" fill="#0098d7"/>
      <rect id="Rectángulo_7102" data-name="Rectángulo 7102" width="45.764" height="0.691" transform="translate(88.719 46.374)" fill="#0098d7"/>
      <rect id="Rectángulo_7103" data-name="Rectángulo 7103" width="45.764" height="0.259" transform="translate(88.719 44.906)" fill="#0098d7"/>
      <rect id="Rectángulo_7104" data-name="Rectángulo 7104" width="45.764" height="0.691" transform="translate(88.719 43.438)" fill="#0098d7"/>
      <rect id="Rectángulo_7105" data-name="Rectángulo 7105" width="45.764" height="0.345" transform="translate(88.719 42.661)" fill="#0098d7"/>
      <rect id="Rectángulo_7106" data-name="Rectángulo 7106" width="45.764" height="0.691" transform="translate(88.719 40.33)" fill="#0098d7"/>
      <rect id="Rectángulo_7107" data-name="Rectángulo 7107" width="45.764" height="0.173" transform="translate(88.719 39.294)" fill="#0098d7"/>
      <rect id="Rectángulo_7108" data-name="Rectángulo 7108" width="45.764" height="0.691" transform="translate(88.719 37.567)" fill="#0098d7"/>
      <rect id="Rectángulo_7109" data-name="Rectángulo 7109" width="45.764" height="0.345" transform="translate(88.719 36.444)" fill="#0098d7"/>
      <rect id="Rectángulo_7110" data-name="Rectángulo 7110" width="45.764" height="0.691" transform="translate(88.719 34.113)" fill="#0098d7"/>
      <rect id="Rectángulo_7111" data-name="Rectángulo 7111" width="72.36" height="1.757" transform="translate(12.928 49.183)" fill="#0098d7"/>
      <rect id="Rectángulo_7112" data-name="Rectángulo 7112" width="72.36" height="1.756" transform="translate(12.928 31.651)" fill="#0098d7"/>
      <path id="Trazado_113944" data-name="Trazado 113944" d="M4627.715,2052.122h-75.033a2.472,2.472,0,0,1-2.471-2.472v-26.707a2.472,2.472,0,0,1,2.471-2.472h75.033Z" transform="translate(-4534.284 -2020.472)" fill="#cc3c31"/>
      <path id="Trazado_113945" data-name="Trazado 113945" d="M5015.287,2052.121h-49.68v-31.65h49.68v4.366h-7.849l-3.733,22.882h11.582Z" transform="translate(-4872.176 -2020.471)" fill="#e65038"/>
      <path id="Trazado_113946" data-name="Trazado 113946" d="M4990.8,2043.873v22.882h43a58.693,58.693,0,0,1-1.43-11.422,53.131,53.131,0,0,1,.921-8.929c.278-1.526.509-2.531.509-2.531Z" transform="translate(-4892.666 -2039.507)" fill="#fff"/>
      <path id="Trazado_113947" data-name="Trazado 113947" d="M4990.8,2043.873v2.534h42.492c.278-1.536.509-2.534.509-2.534Z" transform="translate(-4892.666 -2039.507)" fill="#eaf7ff"/>
      <rect id="Rectángulo_7113" data-name="Rectángulo 7113" width="149.566" height="13.752" transform="translate(11.766 50.924)" fill="#089e81"/>
      <rect id="Rectángulo_7114" data-name="Rectángulo 7114" width="85.863" height="9.827" transform="translate(72.789 52.903)" fill="#9cd8cd"/>
      <rect id="Rectángulo_7115" data-name="Rectángulo 7115" width="61.837" height="1.946" transform="translate(8.463 62.73)" fill="#bcc751"/>
      <rect id="Rectángulo_7116" data-name="Rectángulo 7116" width="61.837" height="1.978" transform="translate(8.463 50.924)" fill="#bcc751"/>
      <rect id="Rectángulo_7117" data-name="Rectángulo 7117" width="61.262" height="9.827" transform="translate(11.526 52.903)" fill="#e4e9b9"/>
      <rect id="Rectángulo_7118" data-name="Rectángulo 7118" width="61.262" height="1.292" transform="translate(11.526 52.903)" fill="#abaf8b"/>
      <path id="Trazado_113948" data-name="Trazado 113948" d="M5059.27,2114.648l5.649-4.834,5.647,4.834v-13.64h-11.3Z" transform="translate(-4948.364 -2085.981)" fill="#0197ca"/>
    </g>
    <g id="Grupo_68247" data-name="Grupo 68247" transform="translate(2672.21 805.647)">
      <path id="Trazado_113949" data-name="Trazado 113949" d="M4755.632,1843.16a20.156,20.156,0,0,0,8.887,16.7h22.5a20.136,20.136,0,1,0-31.384-16.7Z" transform="translate(-4755.629 -1792.68)" fill="#0098d7"/>
      <path id="Trazado_113950" data-name="Trazado 113950" d="M4775.767,1823.568a19.556,19.556,0,0,1,15.8,8.015,19.551,19.551,0,0,1,1.419,20.91,19.925,19.925,0,0,1-6.144,6.828h-22.159a19.928,19.928,0,0,1-6.145-6.828,19.4,19.4,0,0,1-1.75-4.438,19.578,19.578,0,0,1,18.975-24.487m0-.543a20.137,20.137,0,0,0-11.248,36.839h22.5a20.138,20.138,0,0,0-11.249-36.839Z" transform="translate(-4755.629 -1792.68)" fill="#fff"/>
      <rect id="Rectángulo_7119" data-name="Rectángulo 7119" width="12.05" height="29.592" transform="translate(14.24 7.236)" fill="#fff"/>
      <path id="Trazado_113951" data-name="Trazado 113951" d="M4776.5,1831.214h32.485a20.132,20.132,0,0,0-32.485,0Z" transform="translate(-4772.6 -1792.64)" fill="#fff"/>
      <path id="Trazado_113952" data-name="Trazado 113952" d="M4775.822,1699.3v59.907h-11.316c-.18-.124-.358-.24-.534-.368-.38-.276-.749-.556-1.109-.856l-.088-.073a20.129,20.129,0,0,1-3.49-26.972c.076-.106.15-.2.227-.3,0,0,.005.006.007.006h-.007a20.157,20.157,0,0,1,10.326-7.391V1699.3Z" transform="translate(-4755.62 -1692.04)" opacity="0.12"/>
      <circle id="Elipse_4879" data-name="Elipse 4879" cx="3.152" cy="3.152" r="3.152" transform="translate(25.655 42.368) rotate(-22.5)" fill="#0072a1"/>
      <circle id="Elipse_4880" data-name="Elipse 4880" cx="3.343" cy="3.343" r="3.343" transform="translate(16.824 57.288) rotate(-9.217)" fill="#0072a1"/>
      <circle id="Elipse_4881" data-name="Elipse 4881" cx="2.275" cy="2.275" r="2.275" transform="translate(4.883 53.493) rotate(-45)" fill="#0072a1"/>
      <path id="Trazado_113953" data-name="Trazado 113953" d="M4820.3,1890.481a1.016,1.016,0,1,0,1.016-1.016A1.016,1.016,0,0,0,4820.3,1890.481Z" transform="translate(-4808.23 -1846.723)" fill="#0072a1"/>
      <path id="Trazado_113954" data-name="Trazado 113954" d="M4815.289,1847.659a1.3,1.3,0,1,0,1.3-1.3A1.3,1.3,0,0,0,4815.289,1847.659Z" transform="translate(-4804.156 -1811.663)" fill="#0072a1"/>
      <path id="Trazado_113955" data-name="Trazado 113955" d="M4874.958,1803.179a1.3,1.3,0,1,0,1.3-1.3A1.3,1.3,0,0,0,4874.958,1803.179Z" transform="translate(-4852.691 -1775.48)" fill="#0072a1"/>
      <path id="Trazado_113956" data-name="Trazado 113956" d="M4862.963,1725.336a1.3,1.3,0,1,0,1.3-1.3A1.3,1.3,0,0,0,4862.963,1725.336Z" transform="translate(-4842.935 -1712.162)" fill="#0072a1"/>
      <path id="Trazado_113957" data-name="Trazado 113957" d="M4863.831,1778.811a1.783,1.783,0,1,0,1.784-1.783A1.786,1.786,0,0,0,4863.831,1778.811Z" transform="translate(-4843.641 -1755.265)" fill="#0072a1"/>
      <path id="Trazado_113958" data-name="Trazado 113958" d="M4860.834,1854.1a2.987,2.987,0,1,0,2.986-2.988A2.989,2.989,0,0,0,4860.834,1854.1Z" transform="translate(-4841.204 -1815.525)" fill="#0072a1"/>
      <path id="Trazado_113959" data-name="Trazado 113959" d="M4849.064,1751.305a1.3,1.3,0,1,0,1.3-1.3A1.3,1.3,0,0,0,4849.064,1751.305Z" transform="translate(-4831.629 -1733.287)" fill="#0072a1"/>
      <g id="Grupo_68246" data-name="Grupo 68246" transform="translate(16.305 9.667)">
        <path id="Trazado_113960" data-name="Trazado 113960" d="M4849.494,1712.506h-6.315a.155.155,0,1,1,0-.309h6.315a.155.155,0,1,1,0,.309Z" transform="translate(-4843.009 -1712.197)" fill="#2e556c"/>
        <path id="Trazado_113961" data-name="Trazado 113961" d="M4847.05,1723.748h-3.871a.155.155,0,1,1,0-.309h3.871a.155.155,0,1,1,0,.309Z" transform="translate(-4843.009 -1721.342)" fill="#2e556c"/>
        <path id="Trazado_113962" data-name="Trazado 113962" d="M4847.05,1746.3h-3.871a.186.186,0,0,1,0-.37h3.871a.186.186,0,0,1,0,.37Z" transform="translate(-4843.009 -1739.633)" fill="#2e556c"/>
        <path id="Trazado_113963" data-name="Trazado 113963" d="M4847.05,1769.051h-3.871a.155.155,0,1,1,0-.308h3.871a.155.155,0,1,1,0,.308Z" transform="translate(-4843.009 -1758.192)" fill="#2e556c"/>
        <path id="Trazado_113964" data-name="Trazado 113964" d="M4847.05,1791.536h-3.871a.155.155,0,1,1,0-.309h3.871a.155.155,0,1,1,0,.309Z" transform="translate(-4843.009 -1776.483)" fill="#2e556c"/>
        <path id="Trazado_113965" data-name="Trazado 113965" d="M4847.05,1813.754h-3.871a.186.186,0,0,1,0-.37h3.871a.186.186,0,0,1,0,.37Z" transform="translate(-4843.009 -1794.505)" fill="#2e556c"/>
        <path id="Trazado_113966" data-name="Trazado 113966" d="M4849.494,1735.053h-6.315a.186.186,0,0,1,0-.37h6.315a.186.186,0,0,1,0,.37Z" transform="translate(-4843.009 -1730.488)" fill="#2e556c"/>
        <path id="Trazado_113967" data-name="Trazado 113967" d="M4849.494,1757.539h-6.315a.186.186,0,0,1,0-.37h6.315a.186.186,0,0,1,0,.37Z" transform="translate(-4843.009 -1748.778)" fill="#2e556c"/>
        <path id="Trazado_113968" data-name="Trazado 113968" d="M4849.494,1780.025h-6.315a.186.186,0,0,1,0-.37h6.315a.186.186,0,0,1,0,.37Z" transform="translate(-4843.009 -1767.069)" fill="#2e556c"/>
        <path id="Trazado_113969" data-name="Trazado 113969" d="M4849.494,1802.841h-6.315a.186.186,0,0,1,0-.371h6.315a.186.186,0,0,1,0,.371Z" transform="translate(-4843.009 -1785.628)" fill="#2e556c"/>
      </g>
      <path id="Trazado_113970" data-name="Trazado 113970" d="M4836.636,1682.737a1.584,1.584,0,0,1-1.448,1.69h-13.677a1.585,1.585,0,0,1-1.45-1.69h0a1.584,1.584,0,0,1,1.45-1.69h13.677a1.583,1.583,0,0,1,1.448,1.69Z" transform="translate(-4808.037 -1677.192)" fill="#ccd7db"/>
      <rect id="Rectángulo_7120" data-name="Rectángulo 7120" width="11.157" height="3.856" transform="translate(14.732 0)" fill="#2f3d4f"/>
      <rect id="Rectángulo_7121" data-name="Rectángulo 7121" width="6.222" height="2.131" transform="translate(17.2 3.856)" fill="#596472"/>
    </g>
    <g id="Grupo_68250" data-name="Grupo 68250" transform="translate(2339.21 887.045)">
      <path id="Trazado_113971" data-name="Trazado 113971" d="M3021.017,2132.247l4.737,67.491a.753.753,0,0,0,.8.7l4-.281a.752.752,0,0,0,.7-.8l-4.737-67.491a.7.7,0,0,0-.032-.167l-5.463.384A.649.649,0,0,0,3021.017,2132.247Z" transform="translate(-3011.652 -2125.156)" fill="#f28777"/>
      <path id="Trazado_113972" data-name="Trazado 113972" d="M3045.708,2200.269l1.625-.115a.752.752,0,0,0,.7-.8l-4.737-67.491a.7.7,0,0,0-.032-.167l-1.626.115a.712.712,0,0,1,.027.125.316.316,0,0,1,0,.043l4.738,67.491A.753.753,0,0,1,3045.708,2200.269Z" transform="translate(-3028.426 -2125.156)" fill="#cc3c31"/>
      <path id="Trazado_113973" data-name="Trazado 113973" d="M3031.391,2132.6l4.737,67.491c.029.415.172.742.317.732l1.411-.1c.145-.01.24-.353.211-.769l-4.737-67.491a.411.411,0,0,0,0-.042c0-.043-.009-.085-.014-.126l-1.926.135C3031.386,2132.49,3031.387,2132.546,3031.391,2132.6Z" transform="translate(-3020.088 -2125.648)" fill="#e65038"/>
      <path id="Trazado_113974" data-name="Trazado 113974" d="M3026.525,2103.435s-2.889-6.5-3.2-6.482-2.265,6.866-2.265,6.866Z" transform="translate(-3011.687 -2096.897)" fill="#efd4b7"/>
      <path id="Trazado_113975" data-name="Trazado 113975" d="M3030.465,2098.921a14.315,14.315,0,0,0-1.227-2.257,12.705,12.705,0,0,0-.91,2.4Z" transform="translate(-3017.601 -2096.662)" fill="#282828"/>
      <g id="Grupo_68248" data-name="Grupo 68248" transform="translate(25.622 11.841)">
        <path id="Trazado_113976" data-name="Trazado 113976" d="M3108.555,2160.117a1.075,1.075,0,0,0-.4.073.938.938,0,0,1,.7.8V2183.4a.927.927,0,0,1-.694.8,1.119,1.119,0,0,0,.4.073.968.968,0,0,0,1.062-.871v-22.413A.984.984,0,0,0,3108.555,2160.117Z" transform="translate(-3108.16 -2160.117)" fill="#0c2d4e"/>
      </g>
      <path id="Trazado_113977" data-name="Trazado 113977" d="M3079.082,2204.326v49.949c0,3.854-1.524,6.978-3.4,6.978s-3.4-3.124-3.4-6.978v-49.949Z" transform="translate(-3053.346 -2184.236)" fill="#33addf"/>
      <path id="Trazado_113978" data-name="Trazado 113978" d="M3072.272,2152.7v-24.372a3.4,3.4,0,1,1,6.81,0V2152.7Z" transform="translate(-3053.346 -2119.65)" fill="#33addf"/>
      <path id="Trazado_113979" data-name="Trazado 113979" d="M3072.272,2128.331v2.39h6.81v-2.39a3.4,3.4,0,1,0-6.81,0Z" transform="translate(-3053.346 -2119.65)" fill="#0098d7"/>
      <rect id="Rectángulo_7122" data-name="Rectángulo 7122" width="6.81" height="2.509" transform="translate(18.926 30.901)" fill="#0098d7"/>
      <path id="Trazado_113980" data-name="Trazado 113980" d="M2989.379,2180.549c1.188-.138,2.479,2.568,2.881,6.042l5.487,47.464.992,8.579-4.307.5-.991-8.578-5.488-47.464C2987.551,2183.615,2988.189,2180.687,2989.379,2180.549Z" transform="translate(-2984.661 -2164.892)" fill="#e65038"/>
      <path id="Trazado_113981" data-name="Trazado 113981" d="M2978.073,2096.654c.392-.045,2.215.624,2.353,1.813l1.878,16.246.339,2.936-4.306.5-.34-2.937-1.878-16.246C2975.983,2097.776,2977.623,2096.707,2978.073,2096.654Z" transform="translate(-2975.127 -2096.652)" fill="#33addf"/>
      <path id="Trazado_113982" data-name="Trazado 113982" d="M2971.647,2111.026c1.242-.224.855.414.968.85-.5.065-.834-.069-.762.937l1.724,14.917a.919.919,0,0,1-1.018-.808l-1.72-14.876A.941.941,0,0,1,2971.647,2111.026Z" transform="translate(-2970.833 -2108.307)" fill="#0098d7"/>
      <rect id="Rectángulo_7123" data-name="Rectángulo 7123" width="4.335" height="1.176" transform="translate(3.009 19.751) rotate(-6.595)" fill="#0098d7"/>
      <path id="Trazado_113983" data-name="Trazado 113983" d="M3105.969,2250.281a1.031,1.031,0,0,1-1.188.845l-4.353-.7a1.031,1.031,0,0,1-.863-1.176l9.012-55.892a1.031,1.031,0,0,1,1.188-.845l4.353.7a1.03,1.03,0,0,1,.863,1.175Z" transform="translate(-3075.536 -2174.616)" fill="#e65038"/>
      <path id="Trazado_113984" data-name="Trazado 113984" d="M3123.745,2205.336l1.72.286a1.093,1.093,0,0,1,.908,1.251l-.055.333-2.445-.406-2.215,13.308-.362-.061a1.093,1.093,0,0,1-.908-1.25l2.093-12.572A1.092,1.092,0,0,1,3123.745,2205.336Z" transform="translate(-3092.473 -2185.045)" fill="#f28777"/>
      <path id="Trazado_113985" data-name="Trazado 113985" d="M3147.027,2202.835l1.362-8.446a1.03,1.03,0,0,0-.863-1.175l-4.353-.7a1.03,1.03,0,0,0-1.187.845l-1.363,8.446Z" transform="translate(-3108.943 -2174.616)" fill="#cc3c31"/>
      <g id="Grupo_68249" data-name="Grupo 68249" transform="translate(2.141 31.258)">
        <path id="Trazado_113986" data-name="Trazado 113986" d="M3019.823,2308.873a1.68,1.68,0,0,1,.225.01v-5.475a2.9,2.9,0,0,1-.635.1,1.852,1.852,0,1,1,.006-3.7,2.852,2.852,0,0,1,.63.1v-5.751a2.079,2.079,0,0,1-1.046.286,1.852,1.852,0,1,1,.006-3.7,2.057,2.057,0,0,1,1.04.286v-5.94a2.075,2.075,0,0,1-1.046.286,1.852,1.852,0,1,1,.006-3.7,2.053,2.053,0,0,1,1.04.287v-5.94a2.082,2.082,0,0,1-1.046.286,1.852,1.852,0,1,1,.006-3.7,2.055,2.055,0,0,1,1.04.286v-5.538a2.04,2.04,0,0,1-1.1.321,1.905,1.905,0,0,1-1.932-1.861,2.033,2.033,0,0,1,.972-1.625h-3.136a2.047,2.047,0,0,1,.984,1.625,1.922,1.922,0,0,1-3.842,0,2.044,2.044,0,0,1,.984-1.623h-3.136a2.046,2.046,0,0,1,.984,1.625,1.922,1.922,0,0,1-3.841,0,2.043,2.043,0,0,1,.984-1.623h-3.136a2.047,2.047,0,0,1,.984,1.625,1.922,1.922,0,0,1-3.842,0,2.043,2.043,0,0,1,.984-1.623h-3.136a2.049,2.049,0,0,1,.984,1.625,1.922,1.922,0,0,1-3.842,0,2.042,2.042,0,0,1,.984-1.623h-3.135a2.049,2.049,0,0,1,.984,1.625,1.922,1.922,0,0,1-3.842,0,2.043,2.043,0,0,1,.984-1.623H2989.8a2.046,2.046,0,0,1,.984,1.625,1.922,1.922,0,0,1-3.842,0,2.044,2.044,0,0,1,.984-1.623h-3.136a2.047,2.047,0,0,1,.984,1.625,1.845,1.845,0,0,1-1.868,1.855,1.808,1.808,0,0,1-1.6-.9v1.865a1.807,1.807,0,0,1,0,3.008v1.964a1.835,1.835,0,0,1,1.654-1,1.85,1.85,0,1,1-1.654,2.7v2.182a1.807,1.807,0,0,1,0,3.008v2.182a1.836,1.836,0,0,1,1.654-1,1.85,1.85,0,1,1-1.654,2.7v2.566a1.787,1.787,0,0,1,0,2.241v2.566a1.834,1.834,0,0,1,1.654-1,1.85,1.85,0,1,1-1.654,2.7v2.495a1.8,1.8,0,0,1,0,2.384v6.623a1.792,1.792,0,0,1,0,2.506v4.033h.62a2.772,2.772,0,0,1-.118-.694,1.921,1.921,0,0,1,3.842.015,2.635,2.635,0,0,1-.119.679h1.406a2.728,2.728,0,0,1-.118-.694,1.921,1.921,0,0,1,3.841.015,2.632,2.632,0,0,1-.119.679h1.405a2.735,2.735,0,0,1-.118-.694,1.921,1.921,0,0,1,3.841.015,2.635,2.635,0,0,1-.119.679h1.406a2.73,2.73,0,0,1-.119-.694,1.921,1.921,0,0,1,3.841.015,2.662,2.662,0,0,1-.118.679h1.405a2.73,2.73,0,0,1-.119-.694,1.921,1.921,0,0,1,3.842.015,2.633,2.633,0,0,1-.119.679h1.406a2.73,2.73,0,0,1-.119-.694,1.921,1.921,0,0,1,3.841.015,2.63,2.63,0,0,1-.118.679h1.406a2.712,2.712,0,0,1-.119-.694,1.921,1.921,0,0,1,3.842.015,2.635,2.635,0,0,1-.119.679H3018a2.649,2.649,0,0,1-.107-.694A1.945,1.945,0,0,1,3019.823,2308.873Zm-2.68-13.6a1.852,1.852,0,1,1-1.921,1.85A1.886,1.886,0,0,1,3017.144,2295.271Zm-5.095-11.751a1.922,1.922,0,1,1,1.921,1.85A1.887,1.887,0,0,1,3012.049,2283.52Zm1.744,4.533a1.922,1.922,0,1,1-1.921-1.849A1.887,1.887,0,0,1,3013.793,2288.053Zm-1.51-7.217a1.852,1.852,0,1,1,1.921-1.85A1.887,1.887,0,0,1,3012.282,2280.836Zm-1.4,2.684a1.922,1.922,0,1,1-1.921-1.85A1.886,1.886,0,0,1,3010.88,2283.52Zm-2.3,4.533a1.922,1.922,0,1,1-1.92-1.849A1.886,1.886,0,0,1,3008.579,2288.053Zm-1.51-7.217a1.852,1.852,0,1,1,1.921-1.85A1.887,1.887,0,0,1,3007.069,2280.836Zm-1.2,2.684a1.922,1.922,0,1,1-1.921-1.85A1.887,1.887,0,0,1,3005.871,2283.52Zm-2.505,4.533a1.922,1.922,0,1,1-1.921-1.849A1.887,1.887,0,0,1,3003.365,2288.053Zm-1.51-7.217a1.852,1.852,0,1,1,1.921-1.85A1.887,1.887,0,0,1,3001.855,2280.836Zm-.995,2.684a1.922,1.922,0,1,1-1.92-1.85A1.887,1.887,0,0,1,3000.86,2283.52Zm-2.708,4.533a1.922,1.922,0,1,1-1.921-1.849A1.887,1.887,0,0,1,2998.152,2288.053Zm-1.51-7.217a1.851,1.851,0,1,1,1.92-1.85A1.887,1.887,0,0,1,2996.642,2280.836Zm-.791,2.684a1.922,1.922,0,1,1-1.921-1.85A1.887,1.887,0,0,1,2995.85,2283.52Zm-2.913,4.533a1.922,1.922,0,1,1-1.921-1.849A1.886,1.886,0,0,1,2992.938,2288.053Zm-1.51-7.217a1.852,1.852,0,1,1,1.921-1.85A1.887,1.887,0,0,1,2991.428,2280.836Zm-.588,2.684a1.922,1.922,0,1,1-1.921-1.85A1.886,1.886,0,0,1,2990.84,2283.52Zm0,9.067a1.922,1.922,0,1,1-1.921-1.849A1.886,1.886,0,0,1,2990.84,2292.587Zm.235,2.684a1.852,1.852,0,1,1-1.921,1.85A1.887,1.887,0,0,1,2991.075,2295.271Zm.934-2.684a1.922,1.922,0,1,1,1.921,1.851A1.886,1.886,0,0,1,2992.009,2292.587Zm4.281,2.684a1.852,1.852,0,1,1-1.921,1.85A1.887,1.887,0,0,1,2996.289,2295.271Zm.73-2.684a1.922,1.922,0,1,1,1.921,1.851A1.886,1.886,0,0,1,2997.019,2292.587Zm4.484,2.684a1.852,1.852,0,1,1-1.921,1.85A1.887,1.887,0,0,1,3001.5,2295.271Zm.526-2.684a1.922,1.922,0,1,1,1.921,1.851A1.886,1.886,0,0,1,3002.029,2292.587Zm4.688,2.684a1.851,1.851,0,1,1-1.92,1.85A1.887,1.887,0,0,1,3006.716,2295.271Zm.323-2.684a1.922,1.922,0,1,1,1.921,1.851A1.886,1.886,0,0,1,3007.039,2292.587Zm4.891,2.684a1.852,1.852,0,1,1-1.921,1.85A1.886,1.886,0,0,1,3011.93,2295.271Zm.119-2.684a1.922,1.922,0,1,1,1.921,1.851A1.886,1.886,0,0,1,3012.049,2292.587Zm5.037-6.383a1.851,1.851,0,1,1-1.921,1.849A1.886,1.886,0,0,1,3017.086,2286.2Zm.411-9.068a1.852,1.852,0,1,1-1.921,1.85A1.886,1.886,0,0,1,3017.5,2277.136Zm0-8.85a1.851,1.851,0,1,1-1.921,1.85A1.886,1.886,0,0,1,3017.5,2268.286Zm-1.606,6.166a1.922,1.922,0,1,1-1.92-1.85A1.886,1.886,0,0,1,3015.89,2274.452Zm-3.608-6.166a1.851,1.851,0,1,1-1.921,1.85A1.886,1.886,0,0,1,3012.282,2268.286Zm-1.4,6.166a1.922,1.922,0,1,1-1.921-1.85A1.886,1.886,0,0,1,3010.88,2274.452Zm-3.812-6.166a1.851,1.851,0,1,1-1.921,1.85A1.886,1.886,0,0,1,3007.069,2268.286Zm-3.119,4.316a1.852,1.852,0,1,1-1.921,1.85A1.887,1.887,0,0,1,3003.95,2272.6Zm-2.095-4.316a1.851,1.851,0,1,1-1.921,1.85A1.886,1.886,0,0,1,3001.855,2268.286Zm-2.915,4.316a1.852,1.852,0,1,1-1.921,1.85A1.887,1.887,0,0,1,2998.94,2272.6Zm-2.3-4.316a1.851,1.851,0,1,1-1.922,1.85A1.886,1.886,0,0,1,2996.642,2268.286Zm-2.712,4.316a1.852,1.852,0,1,1-1.921,1.85A1.887,1.887,0,0,1,2993.93,2272.6Zm-2.5-4.316a1.851,1.851,0,1,1-1.921,1.85A1.886,1.886,0,0,1,2991.428,2268.286Zm-2.509,4.316a1.852,1.852,0,1,1-1.921,1.85A1.886,1.886,0,0,1,2988.919,2272.6Zm-4.626-2.465a1.922,1.922,0,1,1,1.921,1.85A1.886,1.886,0,0,1,2984.293,2270.137Zm0,8.849a1.922,1.922,0,1,1,1.921,1.85A1.886,1.886,0,0,1,2984.293,2278.986Zm1.51,10.918a1.851,1.851,0,1,1,1.921-1.851A1.887,1.887,0,0,1,2985.8,2289.9Zm.058,5.367a1.852,1.852,0,1,1-1.921,1.85A1.887,1.887,0,0,1,2985.862,2295.271Zm-3.462,6.384a1.922,1.922,0,1,1,1.921,1.85A1.886,1.886,0,0,1,2982.4,2301.655Zm3.521,6.384a1.851,1.851,0,1,1,1.921-1.849A1.886,1.886,0,0,1,2985.92,2308.039Zm1.49-6.384a1.922,1.922,0,1,1,1.921,1.85A1.886,1.886,0,0,1,2987.409,2301.655Zm3.724,6.384a1.851,1.851,0,1,1,1.921-1.849A1.886,1.886,0,0,1,2991.133,2308.039Zm1.286-6.384a1.922,1.922,0,1,1,1.921,1.85A1.887,1.887,0,0,1,2992.419,2301.655Zm3.928,6.384a1.851,1.851,0,1,1,1.921-1.849A1.886,1.886,0,0,1,2996.347,2308.039Zm1.083-6.384a1.922,1.922,0,1,1,1.92,1.85A1.886,1.886,0,0,1,2997.429,2301.655Zm4.132,6.384a1.851,1.851,0,1,1,1.921-1.849A1.886,1.886,0,0,1,3001.561,2308.039Zm2.8-4.533a1.852,1.852,0,1,1,1.921-1.85A1.887,1.887,0,0,1,3004.36,2303.506Zm2.414,4.533a1.851,1.851,0,1,1,1.921-1.849A1.886,1.886,0,0,1,3006.774,2308.039Zm2.6-4.533a1.852,1.852,0,1,1,1.921-1.85A1.886,1.886,0,0,1,3009.37,2303.506Zm2.618,4.533a1.851,1.851,0,1,1,1.922-1.849A1.886,1.886,0,0,1,3011.988,2308.039Zm2.392-4.533a1.852,1.852,0,1,1,1.921-1.85A1.887,1.887,0,0,1,3014.38,2303.506Zm.9,2.684a1.922,1.922,0,1,1,1.921,1.849A1.886,1.886,0,0,1,3015.281,2306.19Z" transform="translate(-2982.308 -2264.185)" fill="#064f84"/>
      </g>
      <rect id="Rectángulo_7124" data-name="Rectángulo 7124" width="39.79" height="1.829" rx="0.914" transform="translate(1.44 78.756)" fill="#064f84"/>
      <path id="Trazado_113987" data-name="Trazado 113987" d="M3015.682,2254.041h-37.961a.914.914,0,0,1-.915-.915h0a.914.914,0,0,1,.915-.914h37.961a.915.915,0,0,1,.915.914h0A.915.915,0,0,1,3015.682,2254.041Z" transform="translate(-2975.692 -2223.189)" fill="#064f84"/>
      <rect id="Rectángulo_7125" data-name="Rectángulo 7125" width="37.692" height="4.834" transform="translate(2.164 41.468)" fill="#064f84"/>
      <rect id="Rectángulo_7126" data-name="Rectángulo 7126" width="37.692" height="4.834" transform="translate(2.164 69.23)" fill="#064f84"/>
    </g>
    <rect id="Rectángulo_7127" data-name="Rectángulo 7127" width="83.767" height="83.767" rx="41.884" transform="translate(2356.726 665.074)" fill="#31d9e7"/>
    <path id="Trazado_113988" data-name="Trazado 113988" d="M3187.984,993.614a32.188,32.188,0,1,1-32.188-32.189A32.188,32.188,0,0,1,3187.984,993.614Z" transform="translate(-755.894 -286.188)" fill="#cce0ea"/>
    <path id="Trazado_113989" data-name="Trazado 113989" d="M3178.5,988.225a32.19,32.19,0,1,1-32.191-32.189A32.189,32.189,0,0,1,3178.5,988.225Z" transform="translate(-748.18 -281.804)" fill="#eaf7ff"/>
    <path id="Trazado_113990" data-name="Trazado 113990" d="M3197.363,1012.693a26.576,26.576,0,1,1-26.578-26.576A26.577,26.577,0,0,1,3197.363,1012.693Z" transform="translate(-772.653 -306.272)" fill="#e6e7e8" opacity="0.2"/>
    <path id="Trazado_113991" data-name="Trazado 113991" d="M3202.1,1017.961a26.033,26.033,0,1,1-26.032-26.035A26.033,26.033,0,0,1,3202.1,1017.961Z" transform="translate(-777.385 -310.997)" fill="#cce0ea"/>
    <path id="Trazado_113992" data-name="Trazado 113992" d="M3201.142,1016.786a25.934,25.934,0,1,1-25.935-25.933A25.934,25.934,0,0,1,3201.142,1016.786Z" transform="translate(-776.77 -310.125)" fill="#fff"/>
    <rect id="Rectángulo_7128" data-name="Rectángulo 7128" width="1.653" height="21.001" transform="translate(2397.362 707.784) rotate(-30)" fill="#33addf"/>
    <path id="Trazado_113993" data-name="Trazado 113993" d="M3218.937,1058.936h0l0,0s0-.006-.009-.01l-12.268-12.7a1.865,1.865,0,1,0-2.709,2.549l12.315,12.75a.444.444,0,0,0,.1.074,1.851,1.851,0,0,0,2.576-2.657Z" transform="translate(-820.755 -354.602)" fill="#33addf"/>
    <path id="Trazado_113994" data-name="Trazado 113994" d="M3308.611,1108.222h0l-.013,0-15.946,1.989a1.691,1.691,0,0,0-.94,3.05,1.705,1.705,0,0,0,1.328.312l16-2a.416.416,0,0,0,.109-.031,1.665,1.665,0,0,0,1.043-.645,1.691,1.691,0,0,0-1.582-2.682Z" transform="translate(-892.074 -405.584)" fill="#33addf"/>
    <path id="Trazado_113995" data-name="Trazado 113995" d="M3282.579,1121.932a2.138,2.138,0,1,1-2.138-2.138A2.138,2.138,0,0,1,3282.579,1121.932Z" transform="translate(-881.726 -415.008)" fill="#0c2d4e"/>
    <path id="Trazado_113996" data-name="Trazado 113996" d="M3285.911,966.875h0a.886.886,0,0,1-.883-.884v-5.227a.885.885,0,0,1,.883-.883h0a.886.886,0,0,1,.884.883v5.227A.886.886,0,0,1,3285.911,966.875Z" transform="translate(-887.196 -284.931)" fill="#33addf"/>
    <path id="Trazado_113997" data-name="Trazado 113997" d="M3381.263,1015.39h0a.887.887,0,0,1,0-1.249l3.695-3.7a.886.886,0,0,1,1.249,0h0a.886.886,0,0,1,0,1.249l-3.694,3.7A.886.886,0,0,1,3381.263,1015.39Z" transform="translate(-965.267 -325.85)" fill="#33addf"/>
    <path id="Trazado_113998" data-name="Trazado 113998" d="M3418.691,1127.236h0a.886.886,0,0,1,.882-.884l5.227-.005a.886.886,0,0,1,.884.883h0a.886.886,0,0,1-.882.884l-5.226.006A.886.886,0,0,1,3418.691,1127.236Z" transform="translate(-995.921 -420.338)" fill="#33addf"/>
    <path id="Trazado_113999" data-name="Trazado 113999" d="M3379.055,1219.692h0a.886.886,0,0,1,1.249,0l3.7,3.69a.886.886,0,0,1,0,1.249h0a.885.885,0,0,1-1.249,0l-3.7-3.69A.886.886,0,0,1,3379.055,1219.692Z" transform="translate(-963.471 -496.057)" fill="#33addf"/>
    <path id="Trazado_114000" data-name="Trazado 114000" d="M3286.2,1260.183h0a.885.885,0,0,1,.885.881l.011,5.227a.886.886,0,0,1-.882.885h0a.887.887,0,0,1-.885-.882l-.01-5.226A.886.886,0,0,1,3286.2,1260.183Z" transform="translate(-887.431 -529.204)" fill="#33addf"/>
    <path id="Trazado_114001" data-name="Trazado 114001" d="M3174.354,1223.405h0a.886.886,0,0,1,0,1.249l-3.686,3.705a.886.886,0,0,1-1.249,0h0a.885.885,0,0,1,0-1.249l3.686-3.705A.886.886,0,0,1,3174.354,1223.405Z" transform="translate(-792.949 -499.08)" fill="#33addf"/>
    <path id="Trazado_114002" data-name="Trazado 114002" d="M3125.935,1127.833h0a.886.886,0,0,1-.88.886l-5.227.016a.887.887,0,0,1-.886-.881h0a.887.887,0,0,1,.881-.886l5.227-.016A.886.886,0,0,1,3125.935,1127.833Z" transform="translate(-752.098 -420.831)" fill="#33addf"/>
    <path id="Trazado_114003" data-name="Trazado 114003" d="M3171.992,1014.311h0a.886.886,0,0,1-1.25,0l-3.709-3.682a.886.886,0,0,1,0-1.249h0a.886.886,0,0,1,1.25,0l3.709,3.682A.886.886,0,0,1,3171.992,1014.311Z" transform="translate(-791.005 -324.987)" fill="#33addf"/>
    <path id="Trazado_114004" data-name="Trazado 114004" d="M4070.178,1651.54a86.361,86.361,0,0,0,3.179,29.777c.567,1.87,1.212,3.877.6,5.732-.681,2.06-2.709,3.325-4.635,4.321a68.463,68.463,0,0,1-28.113,7.555c-2.686-4.989-5.893-9.563-6.639-15.18-.286-2.156-.226-5.04-.913-7.1-.761-2.286-1.866-5.955-2.806-8.059,4.641-4.976,11.031-7.349,16.267-11.694a40.489,40.489,0,0,1,7.062-4.959,16.3,16.3,0,0,1,8.3-2.02C4065.356,1650.069,4068.4,1649.269,4070.178,1651.54Z" transform="translate(-1493.865 -846.202)" fill="#f9a17b"/>
    <path id="Trazado_114005" data-name="Trazado 114005" d="M4073.422,1673.729a139.583,139.583,0,0,1-8.085,19.111c-1.051,2.031-2.322,4.145-4.408,5.08a10.961,10.961,0,0,1-4.492.64c-3.735.006-14.777-.459-15.015-.953-.86-1.784-.651-3.185-1.512-4.969a24.091,24.091,0,0,0,13.422-.1,24.531,24.531,0,0,0,11.9-6.913A72.618,72.618,0,0,0,4073.422,1673.729Z" transform="translate(-1501.235 -865.592)" fill="#e5785c"/>
    <path id="Trazado_114006" data-name="Trazado 114006" d="M3919.065,1444.7c.5,8.309,1.679,17.039,6.732,23.652a24.412,24.412,0,0,0,17.387,9.333,25.633,25.633,0,0,0,18.715-6.435c4.065-3.634,6.874-8.432,9.614-13.147l9.5-16.339c1.66-2.854,3.379-6.086,2.6-9.293-.62-2.538-2.683-4.438-4.716-6.077a84.443,84.443,0,0,0-37.7-17.238c-5.326-.967-10.916-1.4-16.071.25a17.682,17.682,0,0,0-6.311,3.569c-1.6,1.42-3.764,3.767-3.976,6.016a4.707,4.707,0,0,0,.9,2.581,19.224,19.224,0,0,1,1.305,3.955,58.3,58.3,0,0,1,1.393,8.9C3918.739,1437.841,3918.862,1441.273,3919.065,1444.7Z" transform="translate(-1399.491 -649.683)" fill="#f9a17b"/>
    <path id="Trazado_114007" data-name="Trazado 114007" d="M3910.085,1316.184c1.632-3.331,3.809-6.365,5.564-9.634a43.413,43.413,0,0,0,2.015-36.153c-1.713-4.273-4.282-8.428-8.256-10.75-4.894-2.859-10.929-2.457-16.581-2.866a53.987,53.987,0,0,1-25.382-8.527c-3.026-1.966-5.894-4.258-9.257-5.567-7.365-2.866-16.319-.211-21.475,5.777s-6.542,14.777-4.169,22.315,9.274,14.321,16.336,17.867a6.594,6.594,0,0,1,.133-6.124c1.183-1.8,3.936-2.761,5.924-3.187a32.564,32.564,0,0,1,6.867-.479l14.338.014c4.19,0,8.612.069,12.214,2.211,3.458,2.058,5.6,5.7,7.719,9.121a21.525,21.525,0,0,0,2.66,3.653c.4.419.977,1.111,1.569,1.241a3.7,3.7,0,0,0,1.966-.387c.795-.361,1.358-1.14,2.117-1.487a12.44,12.44,0,0,1,2.721-.553,7.789,7.789,0,0,1,5.252.445c3.165,1.766,3.344,6.425,1.788,9.7s-4.319,5.836-6.01,9.042c-2.12,4.019-2.636,9.864-.338,13.937A25.7,25.7,0,0,1,3910.085,1316.184Z" transform="translate(-1331.645 -514.03)" fill="#0b2e4e"/>
    <path id="Trazado_114008" data-name="Trazado 114008" d="M3921.4,1449.408c1.348-1.609,3.939-2.495,5.848-2.9a33.649,33.649,0,0,1,7.133-.5l14.888.015c4.353,0,8.945.071,12.685,2.3,3.591,2.137,5.816,5.918,8.017,9.472a22.311,22.311,0,0,0,2.763,3.8c.417.433,1.014,1.153,1.629,1.288a3.833,3.833,0,0,0,2.042-.4c.826-.375,1.41-1.184,2.2-1.545a12.885,12.885,0,0,1,2.828-.573,8.077,8.077,0,0,1,5.453.462,4.951,4.951,0,0,1,1.324,1.07c.151-2.455-.636-4.877-2.723-6.041a7.787,7.787,0,0,0-5.253-.444,12.467,12.467,0,0,0-2.721.552c-.758.348-1.321,1.126-2.115,1.488a3.717,3.717,0,0,1-1.967.388c-.592-.132-1.168-.823-1.57-1.242a21.581,21.581,0,0,1-2.66-3.652c-2.119-3.422-4.26-7.063-7.72-9.121-3.6-2.142-8.023-2.207-12.214-2.21l-14.336-.014a32.48,32.48,0,0,0-6.868.479c-1.988.426-4.741,1.388-5.924,3.187A6.063,6.063,0,0,0,3921.4,1449.408Z" transform="translate(-1404.765 -676.762)" fill="#e5785c"/>
    <ellipse id="Elipse_4882" data-name="Elipse 4882" cx="10.788" cy="6.908" rx="10.788" ry="6.908" transform="translate(2565.941 795.076) rotate(-71.491)" fill="#f9a17b"/>
    <path id="Trazado_114009" data-name="Trazado 114009" d="M3825.446,1265.8l.221-.762c-4.512-1.309-6.871-5.995-7.522-9.61-1.708-9.509,5.216-19.968,15.122-22.839a20.312,20.312,0,0,1,12.908.561,41.2,41.2,0,0,1,8.647,5.116c.915.647,1.861,1.316,2.808,1.948a62.479,62.479,0,0,0,22.682,9.3l.15-.78a61.685,61.685,0,0,1-22.391-9.182c-.937-.626-1.879-1.292-2.79-1.936a41.783,41.783,0,0,0-8.819-5.208,21.115,21.115,0,0,0-13.416-.583,22.881,22.881,0,0,0-12.22,9.047,19.849,19.849,0,0,0-3.462,14.7C3818.273,1260.621,3821.445,1264.637,3825.446,1265.8Z" transform="translate(-1319.984 -505.466)" fill="#0b2e4e"/>
    <path id="Trazado_114010" data-name="Trazado 114010" d="M4244.347,1377.051c4.863-6.389,8.517-17.377,6.09-26.016a28.345,28.345,0,0,0-16.665-18.39l-.288.74a27.535,27.535,0,0,1,16.189,17.865c2.356,8.39-1.213,19.088-5.958,25.32Z" transform="translate(-1658.693 -588.146)" fill="#0b2e4e"/>
    <path id="Trazado_114011" data-name="Trazado 114011" d="M3888.488,1270.587l.459-.277c.3-.19.75-.428,1.326-.727a19.4,19.4,0,0,1,2.159-.906c.422-.161.887-.285,1.37-.429l.755-.185c.257-.067.525-.106.8-.162a19.632,19.632,0,0,1,3.546-.313,18.513,18.513,0,0,1,3.931.446c.165.038.344.073.5.115l.512.143c.348.09.674.206,1.006.318.664.226,1.33.5,1.992.792a32.78,32.78,0,0,1,3.872,2.092c1.265.773,2.5,1.6,3.711,2.43s2.413,1.642,3.6,2.4a39.67,39.67,0,0,0,3.53,2.021,25.954,25.954,0,0,0,3.358,1.425c.268.092.529.184.791.255s.512.155.764.215l.733.169c.236.058.474.086.7.129.45.089.881.122,1.275.166.2.027.388.022.569.033l.518.021c.328,0,.622-.016.876-.024l.185-.007.168-.018.292-.031.535-.058-.537.015-.293.008-.168,0-.183-.008c-.254-.014-.543-.019-.868-.039l-.51-.055c-.178-.023-.366-.03-.559-.069-.384-.071-.8-.122-1.241-.235a19.264,19.264,0,0,1-2.889-.9,29.233,29.233,0,0,1-3.239-1.522c-1.118-.606-2.263-1.317-3.421-2.08s-2.333-1.614-3.547-2.447-2.449-1.683-3.73-2.474a33.507,33.507,0,0,0-3.976-2.116,21.241,21.241,0,0,0-2.075-.793c-.353-.111-.705-.227-1.048-.309l-.514-.134c-.189-.048-.355-.075-.533-.113a17.787,17.787,0,0,0-4.084-.355,18.392,18.392,0,0,0-3.632.459c-.275.069-.548.122-.806.2l-.761.224c-.486.174-.95.326-1.37.513a17.345,17.345,0,0,0-2.126,1.049c-.563.339-1,.62-1.275.83Z" transform="translate(-1378.065 -534.742)" fill="#6dc9f0"/>
    <ellipse id="Elipse_4883" data-name="Elipse 4883" cx="7.015" cy="3.23" rx="7.015" ry="3.23" transform="translate(2571.496 793.958) rotate(-71.491)" fill="#e5785c"/>
    <path id="Trazado_114012" data-name="Trazado 114012" d="M4179.045,1322.886a4.7,4.7,0,0,1,3.335,1.355,9.832,9.832,0,0,1,1.96,3.144c1.68,3.84,2.188,8.462,2.547,12.861.333,4.084-.724,12.71-.934,16.939-1.254.129-3.5.107-4.623.336-.141-9.818.622-15.63-2.471-26.046a28.893,28.893,0,0,0-3.036-6.151,4.776,4.776,0,0,0-3.224-2.423C4174.749,1322.8,4176.8,1322.911,4179.045,1322.886Z" transform="translate(-1609.168 -580.183)" fill="#31d9e7"/>
    <path id="Trazado_114013" data-name="Trazado 114013" d="M4032.613,1833.049c-.689-2.683-3.318-4.7-5.943-5.583-.965-.327-1.947-.606-2.942-.855-.642-.159-1.28-.308-1.93-.448-8.059-1.744-16.3-.23-24.506.346-8.2-.576-16.441-2.09-24.5-.346q-.976.211-1.942.448c-.993.25-1.976.528-2.941.855-2.625.888-5.251,2.9-5.943,5.583-.431,1.676.2,3.42.822,5.034,2.3,5.977,4.837,12.27,9.948,16.127a28.354,28.354,0,0,0,9.9,4.34,45.055,45.055,0,0,0,29.318,0,28.323,28.323,0,0,0,9.893-4.34c5.111-3.857,7.644-10.151,9.946-16.127C4032.416,1836.469,4033.044,1834.725,4032.613,1833.049Z" transform="translate(-1437.72 -988.922)" fill="#f9a17b"/>
    <path id="Trazado_114014" data-name="Trazado 114014" d="M3797.919,1858.825a92.436,92.436,0,0,0-12.41-14.377,33.581,33.581,0,0,0-4.752-3.7,50.664,50.664,0,0,0-11.95-5.446c-2.122-.688-4.272-1.284-6.433-1.835-1.918-.489-4.359-1.505-6.345-1.426s-4.206,1.476-6.087,2.1a74.309,74.309,0,0,1-22.1,3.8q-2.019.036-4.037-.047a52.29,52.29,0,0,1-14.146-2.445c-2.3-.758-4.355-1.916-6.573-2.824-1.824-.747-4.034.238-5.956.721-8.448,2.125-17.1,5.013-23.586,11.092-4.122,3.866-7.092,8.784-9.809,13.741-13.751,25.076-22.588,53.746-31.088,81.05a41.694,41.694,0,0,1,31.661-2.493c2.058-5.946,4.208-12.035,6.53-18.054v0q2.408-6.473,5.355-12.729c1.878-3.965,3.789-8.722,6.582-12.107.155,4.978-1.162,10.362-1.535,15.37q-.585,7.851-.684,15.729-.119,9.572.479,19.135.307,4.883.8,9.752c.217,2.156-.118,2.486,2.005,2.569,1.7.066,3.476-.189,5.175-.283q20.273-1.133,40.522-2.658,4.042.307,8.085.6,16.127,1.156,32.271,2.051c1.385.077,6.5,1.1,7.428.2.536-.524.416-3.164.483-3.922.112-1.253.187-2.509.235-3.766.2-5.149-.074-10.3-.346-15.443q-.137-2.586-.275-5.173-.428-8.081-.858-16.164-.213-4.041-.429-8.082c-.132-2.5-.828-5.63-.43-8.092.51-3.162,2.544,1.343,3.114,2.371q1.829,3.3,3.472,6.69c2.21,4.551,4.186,9.216,5.949,13.958v0c2.323,6.02,4.462,12.108,6.52,18.054,10.4-3.326,21.448-3.062,31.139,1.963C3818.989,1909.875,3816.508,1886.8,3797.919,1858.825Z" transform="translate(-1169.954 -994.366)" fill="#bb83ff"/>
    <path id="Trazado_114015" data-name="Trazado 114015" d="M3909.841,2199.9c-.064-.338-.131-.679-.2-1.017.064.343.126.692.185,1.035A.15.15,0,0,1,3909.841,2199.9Z" transform="translate(-1395.275 -1292.762)" fill="#889e3c"/>
    <path id="Trazado_114016" data-name="Trazado 114016" d="M3837.345,2072.5a159.25,159.25,0,0,1,12.024-25.14q.543,2.229.995,4.468-2.93-15.35-5.86-30.7c-1.168,6.538-2.009,13.067-3.175,19.605C3839.459,2051.24,3837.578,2061.873,3837.345,2072.5Z" transform="translate(-1336.464 -1148.176)" fill="#0072a1"/>
    <path id="Trazado_114017" data-name="Trazado 114017" d="M4393.114,2199.9c.064-.338.131-.679.194-1.017-.063.343-.124.692-.184,1.035A.093.093,0,0,1,4393.114,2199.9Z" transform="translate(-1788.539 -1292.762)" fill="#889e3c"/>
    <path id="Trazado_114018" data-name="Trazado 114018" d="M4409.862,2047.932c-3.813-9.767-12.659-24.372-12.654-22.619q-.176-18-.349-36c1.844,7.437,3.445,14.894,5.287,22.331C4405.1,2023.592,4408.087,2035.687,4409.862,2047.932Z" transform="translate(-1791.586 -1122.294)" fill="#47286d"/>
    <path id="Trazado_114019" data-name="Trazado 114019" d="M4130.646,2342.8c5.191,18.1.215,26.788.215,26.788-9.823,6.233-74.6-6.781-74.6-6.781l.007-.086a30.9,30.9,0,0,0-9.541,1.252,22.1,22.1,0,0,0-5.872,2.859,30.147,30.147,0,0,1-4.411,2.921,4.907,4.907,0,0,1-4.949-.205c-.882-.642-1.563-1.685-2.537-2.09-1.877-.78-4.107,1.082-5.8-.158-1.133-.829-1.445-2.7-2.554-3.57-1.269-1-3.006-.29-4.418-.954a5.981,5.981,0,0,1-1.864-1.692q-1.842-2.2-3.682-4.408c-1.022-1.223-2.139-2.756-1.518-4.475a2.886,2.886,0,0,1,.946-1.288c1.184-.922,2.6-.924,3.925-1.289,6.575-1.808,9.477-11.745,16.01-13.73,7.188-2.184,12.088,6.754,18.4,8.854a17.11,17.11,0,0,0,6.426.489q5.074-.285,10.133-.787c7.7-.629,15.528-.529,23.273-.84.988-.04,11.133-4.1,11.2-3.741a39.754,39.754,0,0,1,13.937-1.571C4121.182,2338.806,4130.646,2342.8,4130.646,2342.8Z" transform="translate(-1476.041 -1403.933)" fill="#f9a17b"/>
    <path id="Trazado_114020" data-name="Trazado 114020" d="M3918.605,1759.724c8.07,0,16.642-1.019,22.618-6.294,3.146-2.777,5.223-6.495,7.232-10.091a67.506,67.506,0,0,1,3.574-5.913,32.883,32.883,0,0,1,26.574-13.781c.176,0,.35,0,.526,0a65.859,65.859,0,0,1,13.806,2.232c1.5.354,3.058.72,4.591,1.043,5.4,1.139,12.414,2.134,18.758-.283,6.641-2.531,11.962-8.833,13.888-16.448,1.559-6.165,1.457-15.23-2.283-21.586-3.14-5.335-9.115-8.8-14.545-11.493-1.6-.794-3.261-1.615-4.829-2.5-4.3-2.414-9.634-6.515-10.664-12.342a24.333,24.333,0,0,1,.333-7.7,24.075,24.075,0,0,0,.24-8.591c-1.168-5.477-5.61-9.139-9.907-12.679-1.16-.955-2.357-1.943-3.449-2.936a40.078,40.078,0,0,1-12.267-35.53l-.783-.133a40.894,40.894,0,0,0,12.515,36.25c1.107,1.007,2.313,2,3.478,2.961,4.193,3.455,8.527,7.027,9.636,12.233.582,2.726.16,5.564-.249,8.308a24.969,24.969,0,0,0-.33,7.95c1.084,6.133,6.611,10.4,11.058,12.9,1.587.892,3.254,1.718,4.866,2.516,5.325,2.638,11.179,6.029,14.213,11.184,3.626,6.163,3.716,14.982,2.2,20.989-1.862,7.368-7,13.461-13.4,15.9-6.149,2.344-13.016,1.364-18.31.248-1.526-.322-3.075-.686-4.573-1.039a66.471,66.471,0,0,0-13.975-2.253,33.847,33.847,0,0,0-27.763,14.114,68.041,68.041,0,0,0-3.619,5.983c-1.976,3.537-4.021,7.2-7.064,9.882-6.487,5.726-16.254,6.274-24.952,6.057l-.021.794C3916.674,1759.709,3917.636,1759.724,3918.605,1759.724Z" transform="translate(-1400.219 -801.317)" fill="#0b2e4e"/>
    <path id="Trazado_114021" data-name="Trazado 114021" d="M4185.3,1507.106a6.713,6.713,0,0,0,9.188-1.577,11.255,11.255,0,0,0,1.5-5.968,41.518,41.518,0,0,0-.851-9.914c-.412-1.976-1.394-4.3-3.4-4.5a4.478,4.478,0,0,0-3.326,1.585C4184.323,1490.683,4179.306,1502.666,4185.3,1507.106Z" transform="translate(-1617.248 -712.188)" fill="#31d9e7"/>
    <g id="Grupo_68251" data-name="Grupo 68251" transform="translate(2439.95 868.554)">
      <path id="Trazado_114022" data-name="Trazado 114022" d="M3655.377,2083.71l-14.309-77.583c-.873-4.734-4.976-8.58-9.166-8.58H3526.47a5.9,5.9,0,0,0-4.893,2.467h0l0,.04c-.084.121-.164.265-.241.393l-3.865,5.99,3.182.71,14.125,76.559c.872,4.734,4.976,8.549,9.166,8.549h105.431C3653.56,2092.256,3656.249,2088.443,3655.377,2083.71Z" transform="translate(-3516.219 -1997.547)" fill="#ddd"/>
      <path id="Trazado_114023" data-name="Trazado 114023" d="M4259.69,2469.7h-65.182v12.987h72.034v-6.134A6.852,6.852,0,0,0,4259.69,2469.7Z" transform="translate(-4066.938 -2381.606)" fill="#ccc"/>
      <path id="Trazado_114024" data-name="Trazado 114024" d="M3639.842,2126.36h-105.43c-4.189,0-8.294-3.837-9.166-8.571l-14.308-77.575c-.874-4.734,1.814-8.572,6-8.572h105.431c4.189,0,8.293,3.838,9.166,8.572l14.308,77.575C3646.72,2122.523,3644.032,2126.36,3639.842,2126.36Z" transform="translate(-3510.774 -2025.281)" fill="#fff"/>
      <ellipse id="Elipse_4884" data-name="Elipse 4884" cx="10.446" cy="12.168" rx="10.446" ry="12.168" transform="matrix(0.915, -0.403, 0.403, 0.915, 52.457, 45.107)" fill="#ddd"/>
    </g>
    <g id="Grupo_68252" data-name="Grupo 68252" transform="translate(2541.909 791.033)">
      <ellipse id="Elipse_4885" data-name="Elipse 4885" cx="6.279" cy="4.804" rx="6.279" ry="4.804" transform="translate(0 22.088)" fill="#31d9e7"/>
      <path id="Trazado_114025" data-name="Trazado 114025" d="M4112.589,1582.057c.3,4.745-1.733,9.377-4.513,13.235a25.805,25.805,0,0,1-5.388,5.644,18.052,18.052,0,0,1-2.284,1.493l-2.855,1.546c-1.771.96-3.537,1.933-5.317,2.876a2.32,2.32,0,0,0-1.1,1.116,7.5,7.5,0,0,1-.719,1.137c-.1.128-.679.923-.84.89a6.6,6.6,0,0,0,2.264.073,2.611,2.611,0,0,0,.7-.273c.333-.146.71-.22,1.056-.334a26.127,26.127,0,0,0,5.821-2.758,45.775,45.775,0,0,0,5.314-3.633,23.187,23.187,0,0,0,2.113-2.043c.693-.761,1.389-1.478,2.112-2.212a22.173,22.173,0,0,0,3.664-4.892,24.189,24.189,0,0,0,2.757-10.29q.023-.41.037-.819c-.618-.112-1.218-.278-1.825-.442C4113.251,1582.279,4112.926,1582.15,4112.589,1582.057Z" transform="translate(-4083.54 -1582.057)" fill="#31d9e7"/>
    </g>
    <g id="Grupo_68253" data-name="Grupo 68253" transform="translate(2510.672 777.795)">
      <path id="Trazado_114026" data-name="Trazado 114026" d="M3953.031,1518.545c.229-.521,1.734-.56,2-1.067.473-.891-.174-3.454-.529-4.122-.57-1.069-1.619.4-5.289-.905-10.1-3.6-23.125,1.166-23.125,1.166a12.089,12.089,0,0,0-7.549.365s-13.431-3.489-23.134,1.069c-3.525,1.657-4.711.293-5.176,1.412-.29.7-.686,3.313-.13,4.153.316.479,1.82.372,2.1.869,1.663,2.968.395,9.4,7.827,11.319s15.724-.836,17.772-6.429c1.423-4.575,1.157-8.714,4.375-8.921.109-.011.229-.02.317-.026s.205-.006.314,0c3.224-.1,3.356,4.04,5.215,8.457,2.577,5.37,11.1,7.313,18.308,4.685S3951.66,1521.66,3953.031,1518.545Zm-46.526,13.112a26.06,26.06,0,0,1-2.662,0,16.178,16.178,0,0,1-2.274-.276c-.343-.069-.68-.151-1.006-.248a7.4,7.4,0,0,1-3.2-1.8,6.22,6.22,0,0,1-1.249-1.918,13.091,13.091,0,0,1-.976-4.436c-.1-2.094-.013-3.748,1.311-5.363a8.289,8.289,0,0,1,5.015-2.5,30.554,30.554,0,0,1,4.219-.443c.649-.031,1.323-.043,2.008-.028.335.006.671.019,1.009.038.7.04,1.4.108,2.087.209,2.76.407,5.285,1.348,6.494,3.152.466.695.148,3.113.041,4.148C3916.8,1527.272,3912.535,1531.366,3906.5,1531.657Zm33.269-1.59a13.221,13.221,0,0,1-2.929-.177,12,12,0,0,1-2.139-.584q-.426-.16-.828-.349a10.53,10.53,0,0,1-4.4-3.815,10.06,10.06,0,0,1-1.4-3.466c-.208-1.021-.758-3.4-.361-4.141,1.108-2.057,3.823-3.268,6.776-3.911a27.641,27.641,0,0,1,4.468-.572c.6-.029,1.217-.051,1.827-.055q.528,0,1.054.009a19.264,19.264,0,0,1,2.119.166,7.685,7.685,0,0,1,4.492,1.921c1.474,1.482,1.724,3.124,1.826,5.222s-.271,4.932-1.607,6.553C3946.77,1529.166,3943.317,1529.9,3939.773,1530.067Z" transform="translate(-3889.823 -1511.105)" fill="#47286d"/>
      <path id="Trazado_114027" data-name="Trazado 114027" d="M3940.336,1533.472c-1.952-2.912-7.335-3.576-11.6-3.37-3.545.171-7.344.638-9.232,2.941-1.323,1.614-1.413,3.268-1.312,5.363s.743,4.873,2.226,6.354c2.1,2.1,5.6,2.492,9.138,2.322,6.031-.292,10.3-4.385,10.82-9.462C3940.484,1536.586,3940.8,1534.168,3940.336,1533.472Z" transform="translate(-3912.875 -1526.529)" fill="#fff" opacity="0.32"/>
      <path id="Trazado_114028" data-name="Trazado 114028" d="M4114.825,1528.561c-.1-2.1-.35-3.74-1.825-5.222-2.106-2.115-5.941-2.213-9.493-2.041-4.273.206-9.578,1.389-11.244,4.482-.4.739.154,3.12.36,4.141,1.013,5.013,5.662,8.684,11.7,8.392,3.542-.172,7-.9,8.891-3.2C4114.555,1533.492,4114.927,1530.668,4114.825,1528.561Z" transform="translate(-4054.378 -1519.349)" fill="#fff" opacity="0.32"/>
      <path id="Trazado_114029" data-name="Trazado 114029" d="M3928.006,1546.561a7.4,7.4,0,0,1-3.2-1.8,6.2,6.2,0,0,1-1.248-1.918l5.348-12.3a30.463,30.463,0,0,1,4.218-.443c.649-.032,1.324-.043,2.008-.028Z" transform="translate(-3917.267 -1526.529)" fill="#fff" opacity="0.1"/>
      <path id="Trazado_114030" data-name="Trazado 114030" d="M3955.053,1547.278a16.152,16.152,0,0,1-2.274-.276l7.133-16.7c.7.04,1.4.108,2.087.209Z" transform="translate(-3941.033 -1526.723)" fill="#fff" opacity="0.1"/>
      <path id="Trazado_114031" data-name="Trazado 114031" d="M4106.745,1537.209a10.519,10.519,0,0,1-4.4-3.815l5.009-11.517a27.674,27.674,0,0,1,4.467-.572c.6-.029,1.217-.05,1.828-.055Z" transform="translate(-4062.69 -1519.358)" fill="#fff" opacity="0.1"/>
      <path id="Trazado_114032" data-name="Trazado 114032" d="M4132.521,1538.182a12.019,12.019,0,0,1-2.138-.583l7.127-16.3a19.131,19.131,0,0,1,2.118.166Z" transform="translate(-4085.5 -1519.397)" fill="#fff" opacity="0.1"/>
    </g>
  </g>
</svg>
