<svg xmlns="http://www.w3.org/2000/svg" width="160.666" height="160.666" viewBox="0 0 160.666 160.666">
  <g id="Grupo_70746" data-name="Grupo 70746" transform="translate(-1078 -1380.744)">
    <g id="Elipse_4876" data-name="Elipse 4876" transform="translate(1078 1380.744)" fill="#fff" stroke="#8a8a8a" stroke-width="3" stroke-dasharray="3 4">
      <circle cx="80.333" cy="80.333" r="80.333" stroke="none"/>
      <circle cx="80.333" cy="80.333" r="78.833" fill="none"/>
    </g>
    <ellipse id="Elipse_4877" data-name="Elipse 4877" cx="71.726" cy="71.316" rx="71.726" ry="71.316" transform="translate(1086 1389.761)" fill="#bb83ff" opacity="0.12"/>
    <g id="lista-de-verificacion" transform="translate(1121.5 1416.576)">
      <path id="Trazado_111285" data-name="Trazado 111285" d="M14.172,10H72.58a4.172,4.172,0,0,1,4.172,4.172V91.354a4.172,4.172,0,0,1-4.172,4.172H14.172A4.172,4.172,0,0,1,10,91.354V14.172A4.172,4.172,0,0,1,14.172,10Zm0,0" transform="translate(-8.262 -8.262)" fill="#bb83ff"/>
      <path id="Trazado_111286" data-name="Trazado 111286" d="M90.039,50h12.806v71.619H50V50H62.806" transform="translate(-41.309 -41.309)" fill="#fff"/>
      <path id="Trazado_111287" data-name="Trazado 111287" d="M130.526,22.516h18.745a3.694,3.694,0,0,0,3.694-3.694V10H126.832v8.822A3.694,3.694,0,0,0,130.526,22.516Zm0,0" transform="translate(-104.785 -8.262)" fill="#ff6977"/>
      <path id="Trazado_111288" data-name="Trazado 111288" d="M130.526,22.516h18.745a3.694,3.694,0,0,0,3.694-3.694V10H126.832v8.822A3.694,3.694,0,0,0,130.526,22.516Zm0,0" transform="translate(-104.785 -8.262)" fill="#bdd9ff"/>
      <path id="Trazado_111289" data-name="Trazado 111289" d="M314.883,157.359l20.368-20.368a4.6,4.6,0,0,1,6.5,6.5l-20.368,20.368-11.72,5.218Zm0,0" transform="translate(-255.835 -112.066)" fill="#f9e478"/>
      <path id="Trazado_111290" data-name="Trazado 111290" d="M321.384,267.06l-6.5-6.5-5.218,11.72Zm0,0" transform="translate(-255.834 -215.265)" fill="#98a1b3"/>
      <path id="Trazado_111291" data-name="Trazado 111291" d="M450.494,145.728l2.235-2.235a4.6,4.6,0,1,0-6.5-6.5l-2.235,2.235Zm0,0" transform="translate(-366.812 -112.065)" fill="#f17781"/>
      <path id="Trazado_111292" data-name="Trazado 111292" d="M98,130h11.125v11.125H98Zm0,0" transform="translate(-80.965 -107.402)" fill="#31d9e7"/>
      <path id="Trazado_111293" data-name="Trazado 111293" d="M98,240h11.125v11.125H98Zm0,0" transform="translate(-80.965 -198.28)" fill="#31d9e7"/>
      <path id="Trazado_114131" data-name="Trazado 114131" d="M98,240h11.125v11.125H98Zm0,0" transform="translate(-80.965 -177.28)" fill="#31d9e7"/>
      <path id="Trazado_111295" data-name="Trazado 111295" d="M193.738,452a1.739,1.739,0,1,0,1.229.509A1.752,1.752,0,0,0,193.738,452Zm0,0" transform="translate(-158.624 -373.428)" fill="#47286d"/>
      <path id="Trazado_111296" data-name="Trazado 111296" d="M87.147,23.7a6.343,6.343,0,0,0-8.96,0l-7.958,7.958V5.91A5.917,5.917,0,0,0,64.318,0H5.91A5.917,5.917,0,0,0,0,5.91V83.092A5.917,5.917,0,0,0,5.91,89H64.318a5.917,5.917,0,0,0,5.91-5.91V49.575L87.147,32.656a6.343,6.343,0,0,0,0-8.96ZM66.752,5.91V35.132l-3.477,3.477V8.691a1.738,1.738,0,0,0-1.738-1.738H49.919V3.476h14.4A2.437,2.437,0,0,1,66.752,5.91ZM57.26,53.583l2.347-5.272,2.925,2.925ZM46.443,3.476V10.56a1.958,1.958,0,0,1-1.956,1.956H25.741a1.958,1.958,0,0,1-1.956-1.956V3.476Zm17.876,82.05H5.91a2.437,2.437,0,0,1-2.434-2.434V5.91A2.437,2.437,0,0,1,5.91,3.476h14.4V6.953H8.691A1.738,1.738,0,0,0,6.953,8.691v71.62a1.738,1.738,0,0,0,1.738,1.738H28.161a1.738,1.738,0,0,0,0-3.477H10.43V10.429h9.879v.13a5.439,5.439,0,0,0,5.432,5.432H44.487a5.439,5.439,0,0,0,5.432-5.432v-.13H59.8V42.085l-1.98,1.979a1.759,1.759,0,0,0-.359.522l-5.218,11.72a1.739,1.739,0,0,0,2.3,2.3L59.8,56.259V78.572H42.068a1.738,1.738,0,1,0,0,3.477H61.537a1.739,1.739,0,0,0,1.738-1.738v-25.6l2.982-1.328a1.733,1.733,0,0,0,.5-.334V83.092a2.437,2.437,0,0,1-2.434,2.434ZM78.209,36.677,65.55,49.337l-4.044-4.044L77.181,29.619l4.044,4.044ZM84.689,30.2,83.682,31.2l-4.043-4.043,1.006-1.006A2.859,2.859,0,1,1,84.689,30.2Zm0,0" fill="#47286d"/>
      <path id="Trazado_111297" data-name="Trazado 111297" d="M100.864,120H89.738A1.738,1.738,0,0,0,88,121.738v11.125a1.738,1.738,0,0,0,1.738,1.738h11.125a1.738,1.738,0,0,0,1.738-1.738V121.738A1.738,1.738,0,0,0,100.864,120Zm-1.738,11.125H91.477v-7.649h7.649Zm0,0" transform="translate(-72.703 -99.141)" fill="#47286d"/>
      <path id="Trazado_111298" data-name="Trazado 111298" d="M100.864,230H89.738A1.738,1.738,0,0,0,88,231.738v11.125a1.738,1.738,0,0,0,1.738,1.738h11.125a1.738,1.738,0,0,0,1.738-1.738V231.738A1.738,1.738,0,0,0,100.864,230Zm-1.738,11.125H91.477v-7.649h7.649Zm0,0" transform="translate(-72.703 -190.019)" fill="#47286d"/>
      <path id="Trazado_114132" data-name="Trazado 114132" d="M100.864,230H89.738A1.738,1.738,0,0,0,88,231.738v11.125a1.738,1.738,0,0,0,1.738,1.738h11.125a1.738,1.738,0,0,0,1.738-1.738V231.738A1.738,1.738,0,0,0,100.864,230Zm-1.738,11.125H91.477v-7.649h7.649Zm0,0" transform="translate(-72.703 -169.019)" fill="#47286d"/>
      <path id="Trazado_111300" data-name="Trazado 111300" d="M212.778,140.242a1.738,1.738,0,0,0,2.458,0l7.848-7.848a1.738,1.738,0,1,0-2.459-2.458l-6.619,6.619-2.638-2.638a1.738,1.738,0,0,0-2.459,2.458Zm0,0" transform="translate(-172.174 -106.928)" fill="#47286d"/>
      <path id="Trazado_111301" data-name="Trazado 111301" d="M212.778,250.244a1.738,1.738,0,0,0,2.458,0l7.848-7.848a1.739,1.739,0,1,0-2.459-2.459l-6.619,6.619-2.638-2.638a1.738,1.738,0,1,0-2.459,2.458Zm0,0" transform="translate(-172.174 -197.809)" fill="#47286d"/>
      <path id="Trazado_114133" data-name="Trazado 114133" d="M212.778,250.244a1.738,1.738,0,0,0,2.458,0l7.848-7.848a1.739,1.739,0,1,0-2.459-2.459l-6.619,6.619-2.638-2.638a1.738,1.738,0,1,0-2.459,2.458Zm0,0" transform="translate(-172.174 -176.809)" fill="#47286d"/>
    </g>
  </g>
</svg>
