<svg xmlns="http://www.w3.org/2000/svg" width="284.666" height="161.551" viewBox="0 0 284.666 161.551"><g transform="translate(-74.951 -96.066)"><g transform="translate(111.775 98.493)"><rect width="216.622" height="155.552" transform="translate(0 0)" fill="#ededed"/></g><g transform="translate(111.775 98.493)" opacity="0.24"><path d="M666.779,276.347H450.158V120.795l108.419,78.426V120.795h108.2Z" transform="translate(-450.158 -120.795)" fill="#bb83ff"/></g><g transform="translate(219.978 98.493)"><rect width="0.217" height="155.552" transform="translate(0 0)" fill="#1d1d1b"/></g><g transform="translate(119.778 176.14)"><rect width="200.615" height="0.257" fill="#1d1d1b"/></g><g transform="translate(170.001 126.184)"><path d="M1093.6,402.949a50.162,50.162,0,1,0,50.162,50.162A50.162,50.162,0,0,0,1093.6,402.949Zm0,99.449a49.287,49.287,0,1,1,49.287-49.287A49.287,49.287,0,0,1,1093.6,502.4Z" transform="translate(-1043.439 -402.949)" fill="#fff"/></g><g transform="translate(175.896 132.079)"><path d="M1147.772,463.014a44.267,44.267,0,1,0,44.268,44.267A44.268,44.268,0,0,0,1147.772,463.014Zm0,87.762a43.495,43.495,0,1,1,43.495-43.495A43.495,43.495,0,0,1,1147.772,550.776Z" transform="translate(-1103.504 -463.014)" fill="#fff"/></g><g transform="translate(205.274 142.342)"><path d="M1415.217,576.9a48.884,48.884,0,0,1-11.874,7.736v7.826a54.307,54.307,0,0,0,8.523-4.183,41.83,41.83,0,0,0,7.668-5.577v51.588h8.1V568.084h-5.217A30.431,30.431,0,0,1,1415.217,576.9Z" transform="translate(-1403.294 -568.035)" fill="#47286d"/><path d="M1427.229,633.887h-8.194V582.365a42.358,42.358,0,0,1-7.595,5.505,54.6,54.6,0,0,1-8.531,4.187l-.066.024v-7.927l.028-.013a49.067,49.067,0,0,0,11.862-7.728,30.532,30.532,0,0,0,7.185-8.8l.013-.027h5.3Zm-8.1-.1h8V567.682h-5.138a30.675,30.675,0,0,1-7.194,8.8l-.033-.037.033.037a49.142,49.142,0,0,1-11.857,7.731v7.724a54.757,54.757,0,0,0,8.449-4.155,41.984,41.984,0,0,0,7.659-5.57l.083-.079Z" transform="translate(-1402.843 -567.584)" fill="#47286d"/></g><g transform="translate(74.951 96.066)"><path d="M87.439,252.078v-.488a2.774,2.774,0,0,1,2.774-2.774H108.48a2.774,2.774,0,0,1,2.774,2.774v6.026H328.4v-6.026a2.774,2.774,0,0,1,2.774-2.774h18.267a2.774,2.774,0,0,1,2.774,2.774v6.026h7.405V96.066h-7.405v6.825a2.774,2.774,0,0,1-2.774,2.774H331.171a2.774,2.774,0,0,1-2.774-2.774V96.066H111.254v6.825a2.774,2.774,0,0,1-2.774,2.774H90.213a2.774,2.774,0,0,1-2.774-2.774V96.066H74.951V257.617H87.439ZM328.4,123.477a2.774,2.774,0,0,1,2.774-2.774h18.267a2.774,2.774,0,0,1,2.774,2.774v11.565a2.774,2.774,0,0,1-2.774,2.774H331.171a2.774,2.774,0,0,1-2.774-2.774Zm0,32.15a2.774,2.774,0,0,1,2.774-2.774h18.267a2.774,2.774,0,0,1,2.774,2.774v11.565a2.774,2.774,0,0,1-2.774,2.774H331.171a2.774,2.774,0,0,1-2.774-2.774Zm0,32.15A2.774,2.774,0,0,1,331.171,185h18.267a2.774,2.774,0,0,1,2.774,2.774v11.565a2.774,2.774,0,0,1-2.774,2.774H331.171a2.774,2.774,0,0,1-2.774-2.774Zm0,32.15a2.774,2.774,0,0,1,2.774-2.774h18.267a2.774,2.774,0,0,1,2.774,2.774v11.565a2.774,2.774,0,0,1-2.774,2.774H331.171a2.774,2.774,0,0,1-2.774-2.774ZM120.341,129.048a23.237,23.237,0,0,1,23.237-23.237H296.594a23.237,23.237,0,0,1,23.237,23.237v96.872a23.237,23.237,0,0,1-23.237,23.237H143.577a23.237,23.237,0,0,1-23.237-23.237Zm-32.9-5.572a2.774,2.774,0,0,1,2.774-2.774H108.48a2.774,2.774,0,0,1,2.774,2.774v11.565a2.774,2.774,0,0,1-2.774,2.774H90.213a2.774,2.774,0,0,1-2.774-2.774Zm0,32.15a2.774,2.774,0,0,1,2.774-2.774H108.48a2.774,2.774,0,0,1,2.774,2.774v11.565a2.774,2.774,0,0,1-2.774,2.774H90.213a2.774,2.774,0,0,1-2.774-2.774Zm0,32.15A2.774,2.774,0,0,1,90.213,185H108.48a2.774,2.774,0,0,1,2.774,2.774v11.565a2.774,2.774,0,0,1-2.774,2.774H90.213a2.774,2.774,0,0,1-2.774-2.774Zm0,32.15a2.774,2.774,0,0,1,2.774-2.774H108.48a2.774,2.774,0,0,1,2.774,2.774v11.565a2.774,2.774,0,0,1-2.774,2.774H90.213a2.774,2.774,0,0,1-2.774-2.774Z" transform="translate(-74.951 -96.066)" fill="#47286d"/></g></g></svg>