<svg xmlns="http://www.w3.org/2000/svg" xmlns:xlink="http://www.w3.org/1999/xlink" width="354.477" height="279.929" viewBox="0 0 354.477 279.929"><defs><clipPath id="a"><path d="M2455.751,324.118l-50.239-7.945,13.97-6.22Z" transform="translate(-2405.511 -309.953)" fill="none"/></clipPath><linearGradient id="b" x1="0.535" y1="0.917" x2="0.438" y2="-0.238" gradientUnits="objectBoundingBox"><stop offset="0" stop-color="#ea6200"/><stop offset="1" stop-color="#ffc045"/></linearGradient><clipPath id="c"><path d="M2033.4,530.848h159.665l.066,218.25H2033.4Z" transform="translate(-2033.402 -530.848)" fill="#bb83ff" clip-rule="evenodd"/></clipPath><clipPath id="d"><path d="M1967.2,582.1h121.99l37.74,16.792V800.348H1967.2Z" transform="translate(-1967.196 -582.099)" fill="none"/></clipPath><linearGradient id="e" x1="0.548" x2="0.585" y2="0.948" gradientUnits="objectBoundingBox"><stop offset="0" stop-color="#f9e478"/><stop offset="1" stop-color="#ffc045"/></linearGradient><clipPath id="f"><path d="M1681.462,1442.388c2.21,9.7-.767,32.564-1.872,50.5l.173-.017a3,3,0,0,0,1.327,2.2c1.189.65,3.261,1.155,3.963,1.827.507.485,2.448,3.232-4.5,3.05-4.935-.13-6.111-.474-6.64-1.275-.074-.112-4.1-37.7-4.618-40.786-.881,3.938-10.859,37.531-10.857,37.551a8.421,8.421,0,0,0,1.751,3.155c.269.963.914,2.658-3.871,2.617s-3.8-1.25-4.314-2.026c2.123-19.969,5.536-52.147,6.607-57.461l.3-.276c.853-34.181,19.016-25.372,17.381-4.679-.185,2.338,4.349,2.4,5.171,5.627" transform="translate(-1652.005 -1418.495)" fill="none" clip-rule="evenodd"/></clipPath><linearGradient id="g" x1="0.407" y1="0.873" x2="0.678" y2="-0.215" gradientUnits="objectBoundingBox"><stop offset="0" stop-color="#031542"/><stop offset="0.108" stop-color="#041c4b"/><stop offset="0.291" stop-color="#093065"/><stop offset="0.525" stop-color="#115090"/><stop offset="0.798" stop-color="#1b7ccb"/><stop offset="1" stop-color="#24a1fb"/></linearGradient><clipPath id="h"><path d="M1774.55,1374.757c2.089,4.584,8.046,10.081,14.024,10.972,5.35.8,17.8-7.1,17.229-8.56a2.546,2.546,0,0,0-4.05-.582,97.571,97.571,0,0,1-13.735,2.006c-.69-.049-8.138-10.077-12.377-11.616-.5-.324-2.561,5.565-1.09,7.78" transform="translate(-1774.029 -1366.964)" fill="none" clip-rule="evenodd"/></clipPath><linearGradient id="i" x1="0.49" y1="1.439" x2="0.504" y2="0.164" gradientUnits="objectBoundingBox"><stop offset="0" stop-color="#002990"/><stop offset="0.225" stop-color="#0a4aad"/><stop offset="0.576" stop-color="#1879d7"/><stop offset="0.846" stop-color="#2096f1"/><stop offset="1" stop-color="#24a1fb"/></linearGradient><clipPath id="j"><path d="M1669.784,1365.584c-1.991,2.969,4.406,15.367,2.745,30.45,9.313,1.6,17.83.888,23.392-.882-.26-6.146-.277-27.481-6.972-32.63-6.625-1.857-16.437-1-19.165,3.063" transform="translate(-1669.395 -1361.586)" fill="none" clip-rule="evenodd"/></clipPath><linearGradient id="k" x1="0.551" y1="1.461" x2="0.483" y2="0.176" xlink:href="#i"/><clipPath id="l"><path d="M1710.126,1270.469c-2.263,1.16-4.87-.216-6.187,1.336-.653.769-.587,1.877.144,3.589.215.5.5.876-.349.481-.391-.181-1.035-.434-1.255-.257a1.013,1.013,0,0,0,.148,1.495c.174.12.5.3.5.3a5.362,5.362,0,0,1-4.27-5.535,9.435,9.435,0,0,1,.24-2.009,2.208,2.208,0,0,1-.1-.647,2.1,2.1,0,0,1,1.449-2.026,2.043,2.043,0,0,1,1.985-1.767,1.928,1.928,0,0,1,.843.193l.1-.026a2.133,2.133,0,0,1,3.265-.5,2.9,2.9,0,0,1,2.332-1.235,3.229,3.229,0,0,1,3.025,3.4,3.526,3.526,0,0,1-1.337,2.823,3.357,3.357,0,0,1-.541.387" transform="translate(-1698.861 -1263.858)" fill="none" clip-rule="evenodd"/></clipPath><linearGradient id="m" x1="0.522" y1="0.903" x2="0.454" y2="-0.334" xlink:href="#g"/><clipPath id="n"><path d="M1642.056,1384.365c-.153-3.257-2.443-6.928-4.751-4.166-3.991,4.779-8.021,16.025-6.929,19.3,1.135,3.291,14.241,5.245,17.07,4.061,1.334-.558,1.718-.678,2.115-1.579a1.214,1.214,0,0,0-.662-1.839c-3-1.328-11.074-3.422-11.246-4.24-.59-4.393,4.591-7.493,4.4-11.54" transform="translate(-1630.195 -1379.227)" fill="none" clip-rule="evenodd"/></clipPath><linearGradient id="o" x1="-0.326" y1="1.061" x2="0.663" y2="0.389" xlink:href="#i"/><clipPath id="p"><path d="M1543.282,825.784c4.386,5.482,8.761,12.353,10.413,17.7v2.177h16.875v-2.177c1.652-5.35,6.027-12.221,10.413-17.7.763-.9,1.261-1.768,1.953-2.669a22.782,22.782,0,0,0,3.484-11.538,23.189,23.189,0,0,0-22.681-23.685c-.539-.014-1.074-.009-1.6.013-.531-.022-1.067-.027-1.605-.013a23.189,23.189,0,0,0-22.681,23.685,22.783,22.783,0,0,0,3.483,11.538c.692.9,1.191,1.771,1.953,2.669" transform="translate(-1537.838 -787.884)" fill="none"/></clipPath><linearGradient id="q" x1="0.483" y1="0.65" x2="0.56" y2="-0.019" xlink:href="#e"/><clipPath id="r"><path d="M1625.4,1117.654h17.422a.592.592,0,0,1,.6.579v12.2h-.041l-1.783,2.8-2.348.018v.008c0,2.019-2.3,3.656-5.14,3.656-2.8,0-5.085-1.6-5.139-3.584l-2.171.017-1.959-2.914h-.044v-12.2a.592.592,0,0,1,.6-.579" transform="translate(-1624.798 -1117.654)" fill="none" clip-rule="evenodd"/></clipPath><linearGradient id="s" x1="0.5" y1="0.552" x2="0.5" y2="-0.304" gradientUnits="objectBoundingBox"><stop offset="0" stop-color="#a2bee5"/><stop offset="1" stop-color="#ddebff"/></linearGradient><clipPath id="t"><path d="M3048.562,1056.753a11.254,11.254,0,0,1-.667,3.639,10.494,10.494,0,0,0,.042,6.471c.63,2.143-1.227,5.858-1.681,6.01a53.308,53.308,0,0,1-7.513,1.11c-1.21-.1-6.808-6.656-6.808-6.656l.6-5.749Z" transform="translate(-3031.935 -1056.753)" fill="none" clip-rule="evenodd"/></clipPath><linearGradient id="u" x1="0.471" y1="0.911" x2="0.568" y2="-0.459" xlink:href="#g"/><clipPath id="v"><path d="M3050.65,1235.046c2.192,7.277,21.906,5.93,17.555,29.906-7.451,1.251-17.231,1.577-23.179.155-3.124-11-21.095-2.4-11.818-29.714,1.9-4.438,16.74-3.187,17.441-.347" transform="translate(-3030.575 -1232.479)" fill="none" clip-rule="evenodd"/></clipPath><linearGradient id="w" x1="0.49" y1="0.907" x2="0.514" y2="-0.087" xlink:href="#g"/><clipPath id="x"><path d="M2999.493,1018.69s4.183,1.6,5.951.758c3.055-1.453,2.592-8.347-5.152-8.424-6.579.115-6.167,8.022-14.747,8.615-4.551.314-7.329,4.118-5.791,10.4.012.014.689-2,2.369-1.754-2.739,3.164.02,6.874.432,7.516.979-4.8,3.86-8.154,12.042-9.131,3.4-1.286.409-8.529,4.9-7.977" transform="translate(-2979.328 -1011.024)" fill="none" clip-rule="evenodd"/></clipPath><linearGradient id="y" x1="0.431" y1="0.971" x2="0.733" y2="-1.095" xlink:href="#g"/><clipPath id="z"><path d="M1815.677,382.142h21.451a7.193,7.193,0,0,1,7.173,7.172v32.833h-61.638v-40h-.006V376.9a5.262,5.262,0,0,1,5.246-5.247h21.884c1.459,0,2.1,1.3,2.652,2.652Z" transform="translate(-1782.657 -371.649)" fill="#f17781"/></clipPath><clipPath id="aa"><path d="M2823.348,1375.439c-.99-2.058-.229-6.091,1.869-7,.555-.24,2.116-.993,3.137-.421,3.6,2.02,8.591,14.831,9.154,19.545.461,3.868,1.014,13.275-.4,18.36-.3,1.1-2.271.279-2.76-.02-1.231-.429-1.453-8.972-3.91-17.231-2.025-6.81-6.205-11.387-7.093-13.236" transform="translate(-2822.919 -1367.811)" fill="none" clip-rule="evenodd"/></clipPath><linearGradient id="ab" x1="0.788" y1="0.599" x2="-0.193" y2="0.262" gradientUnits="objectBoundingBox"><stop offset="0" stop-color="#000446"/><stop offset="1" stop-color="#03096b"/></linearGradient><clipPath id="ac"><path d="M2704.944,1432.1c-3.009,5.257,3.458,35.131,4.574,53.247l-.174-.017a3.03,3.03,0,0,1-1.34,2.219c-1.2.656-5.62,1.194-6.331,1.874-.512.49-1.365,2.462,5.653,2.277,4.986-.131,7.393.3,7.927-.512.412-.622.267-3.685.179-5.059h.03c.646-12.381-.647-23.819,1.772-38.376,1.916,8.561,4.083,16.626,5.353,21.159.766,2.734,5.239,14.828,4.863,17.532-.083.6-2.9.873-4.1,1.83-.5.475-1.421,2.464,3.412,2.421s7.165.288,7.682-.5c.485-.732-3.132-21.132-3.415-24.01-1.247-12.713-1.637-26.767-3.3-35.048h0c-.862-34.528-19.21-25.63-17.557-4.726.187,2.362-4.393,2.427-5.223,5.684" transform="translate(-2701.341 -1407.964)" fill="none" clip-rule="evenodd"/></clipPath><linearGradient id="ad" x1="0.598" y1="0.87" x2="0.371" y2="0.013" xlink:href="#g"/><clipPath id="ae"><path d="M2757.483,1276.858a6.4,6.4,0,0,1-3.279-1.787c-.349-.384-.909-3.692-1.1-3.76-.743-.26-1.1,2.3-1.1,2.3-.111-.134-.5-.244-.593-.667-.039-.188.211-1.244.048-1.511-.119-.2-.929-.894-1.1-1.156-1.433-2.129-3.073-4.431-1.136-6.076a2.239,2.239,0,0,1,1.229-.453,4.458,4.458,0,0,0,1.867-.479c4.7-2.221,13.906,1.172,9.05,10.664a6.606,6.606,0,0,1-3.879,2.929" transform="translate(-2748.331 -1262.611)" fill="none" clip-rule="evenodd"/></clipPath><linearGradient id="af" x1="0.477" y1="0.929" x2="0.544" y2="-0.313" xlink:href="#g"/><clipPath id="ag"><path d="M2732.033,1357.215c2.445,0,5.933.747,7.413,2.48,2.121,2.485,1.6,32.784.949,36.657-2.11,5.794-20.05,3.555-25.486.481l.995-35c3.891-5.935,9.981-4.622,16.129-4.622" transform="translate(-2714.91 -1357.092)" fill="none" clip-rule="evenodd"/></clipPath><linearGradient id="ah" x1="0.5" y1="0.645" x2="0.5" y2="0.074" xlink:href="#ab"/><clipPath id="ai"><path d="M2643.068,1401.129c-3.01,1.488-12.313-8.06-13.057-10.622s2.246-4.08,2.246-4.08,6.775,5.573,7.929,5.188c.871-.29,3.321-7.758,5.625-10.806,2.432-2.22,7.711,13.28-2.743,20.32" transform="translate(-2629.892 -1380.594)" fill="none" clip-rule="evenodd"/></clipPath><linearGradient id="aj" x1="0.396" y1="0.713" x2="0.714" y2="0.062" xlink:href="#ab"/></defs><g transform="translate(-1452.245 -299.885)"><path d="M2284.554,374.524q1.605-.362,3.233-.615l-.263-1.646c-1.121.176-2.238.386-3.344.637Zm-4.754,1.324c1.038-.345,2.093-.665,3.153-.936l-.424-1.613c-1.1.286-2.184.609-3.261.967Zm-4.574,1.814c1-.459,2-.879,3.028-1.265l-.592-1.56c-1.065.4-2.108.835-3.141,1.311Zm-4.317,2.324c.915-.574,1.881-1.116,2.844-1.607l-.765-1.485c-1.007.515-2.014,1.078-2.972,1.679Zm-3.974,2.854c.832-.692,1.709-1.349,2.6-1.96l-.948-1.377c-.938.642-1.855,1.327-2.729,2.053Zm-3.529,3.371.235-.258.377-.4c.19-.2.38-.391.573-.585l.387-.379c.24-.229.48-.456.725-.679l-1.13-1.233-.354.326-.205.193-.408.394-.4.4-.2.2-.2.207-.2.209-.2.211-.245.268Zm-3,3.844.223-.33.166-.24.168-.238.169-.236.171-.233.172-.231.173-.229.175-.227.176-.224.177-.222.166-.2-1.3-1.056-.174.215-.187.233-.184.235-.184.238-.182.24-.18.243-.179.245-.177.248-.176.25-.175.252-.231.343ZM2258,394.294l.186-.383.141-.281.141-.278.144-.276.146-.273.147-.27.149-.268.151-.265.153-.263.181-.305-1.434-.867-.2.33-.16.275-.158.278-.155.281-.155.283-.152.286-.151.289-.148.291-.147.294-.193.4Zm-1.811,4.534.127-.385.111-.322.112-.318.115-.316.116-.313.119-.31.121-.308.123-.3.2-.474-1.542-.658-.078.185-.13.316-.128.318-.126.322-.124.324-.122.327-.12.329-.117.332-.115.335-.133.4Zm-1.242,4.741.066-.321.078-.362.08-.359.082-.357.085-.353.088-.35.09-.348.093-.345.106-.38-1.61-.468-.113.408-.1.358-.093.361-.091.364-.088.367-.086.37-.083.373-.081.376-.066.321Zm-.722,4.851.019-.194.042-.393.044-.4.049-.4.051-.393.054-.39.057-.387.06-.384.051-.313-1.652-.279-.053.326-.062.4-.059.4-.056.4-.053.406-.05.409-.047.411-.043.409-.019.195Zm-.168,4.888-.012-.525,0-.368v-.37l0-.373.007-.374.011-.377.014-.379.024-.493-1.672-.108-.026.524-.015.394-.011.393-.008.391,0,.388v.387l0,.385.011.54Zm.466,4.859-.071-.441-.05-.34-.047-.342-.044-.344-.041-.346-.038-.348-.034-.35-.031-.352-.028-.365-1.672.1.031.4.032.368.036.366.04.364.042.362.046.36.049.358.053.356.073.457Zm1.138,4.742-.1-.316-.094-.311-.091-.313-.088-.315-.086-.317-.083-.318-.08-.32-.077-.323-.075-.324-.063-.288-1.639.341.067.3.078.34.081.339.084.336.087.335.09.332.093.33.1.328.1.327.1.331Zm1.81,4.54-.2-.412-.131-.283-.129-.285-.126-.287-.124-.289-.122-.291-.119-.292-.117-.295-.114-.3-.1-.269-1.573.57.107.284.12.311.122.309.125.307.127.3.13.3.133.3.135.3.137.3.2.425Zm2.426,4.251-.243-.37-.163-.255-.161-.257-.16-.259-.158-.26-.156-.262-.154-.264-.152-.266-.15-.268-.185-.337-1.48.776.2.363.157.28.159.278.161.276.163.274.165.272.167.271.169.269.171.267.249.381Zm2.964,3.917c-.38-.447-.75-.9-1.114-1.358-.245-.315-.485-.63-.723-.949l-.193-.264-1.364.962.208.285.186.25.187.248q.283.369.572.733l.193.241c.253.31.507.616.767.921Zm3.406,3.557c-.8-.753-1.571-1.526-2.316-2.333l-1.236,1.12c.77.835,1.571,1.636,2.4,2.416Zm3.76,3.2c-.868-.671-1.72-1.37-2.543-2.095l-1.111,1.243q1.278,1.123,2.625,2.163Zm4.045,2.858q-1.388-.9-2.725-1.869l-.989,1.341c.917.667,1.848,1.3,2.8,1.92Zm4.267,2.53c-.97-.529-1.925-1.077-2.868-1.652l-.875,1.418q1.451.883,2.938,1.692Zm4.443,2.212a32.8,32.8,0,0,1-2.981-1.44l-.765,1.479a33.636,33.636,0,0,0,3.053,1.475Zm4.591,1.885c-1.013-.368-2.094-.777-3.073-1.217l-.659,1.529c1.045.44,2.092.864,3.159,1.251Zm2.167.731c-.2-.056-.412-.126-.611-.192l-.519,1.582c.216.072.447.148.667.209Zm-.123-78.905c1.071-.128,2.169-.23,3.249-.252h0l-.018-1.666a33.421,33.421,0,0,0-3.431.264Z" transform="translate(-662.917 -59.555)" fill="#a1c7e9" fill-rule="evenodd"/><g transform="translate(1615.709 301.611)"><g transform="translate(0 0)" clip-path="url(#a)"><rect width="50.239" height="14.165" fill="url(#b)"/></g></g><path d="M2547.38,315.776l-20.413-15.892-10.862,3.676Z" transform="translate(-881.432)" fill="#f9c278"/><path d="M2472.89,356.876l1.1,5.556,37.585.563Z" transform="translate(-845.627 -47.219)" fill="#cb4700"/><path d="M1949.51,1529.643s10.017-4.557,8.53-11.613-9.63-6.316-8.53-11.887,6.449-14.249,1.249-20.564-13.85-2.53-14.934-12.322c-.874-7.891-4.521-13.48-11.586-11.842-6.54,1.518-11.416,6.581-11.537,18.624-.132,12.823-9.162,9.22-9.274,18.667-.112,9.515,7.466,9.515,10.426,15.9,1.4,3.015-2.248,13.611,8.527,15.039Z" transform="translate(-373.814 -962.117)" fill="#bb83ff" opacity="0.69"/><path d="M2023.939,1489.775s-.025.215-.063.635c-.114,1.263-.344,4.339-.344,8.625,0,12.542,1.976,35.452,14.46,53.738a.6.6,0,0,1,.053.1h-1.308c-12.37-18.514-14.3-41.3-14.3-53.836a90.918,90.918,0,0,1,.414-9.386.547.547,0,1,1,1.086.125" transform="translate(-472.418 -985.345)" fill="#fff"/><path d="M1880.24,1646s1.576-8.709-4.335-12.255-11.947-6.306-11.292-12.018-.956-12.457-10.428-12.583c-5.855-.076-3.657-6.25-9.605-7.48-3.616-.749-6,3.026-6.462,6.732-.527,4.221,1.863,8.37-.878,11.807-3.557,4.455-5,12.761,2.643,15.125s.832,9.6,11.242,10.672h29.115Z" transform="translate(-316.581 -1078.471)" fill="#bb83ff" fill-rule="evenodd"/><path d="M1891.039,1623.707c.2,5.548,2.661,13.445,6.871,20.979s10.161,14.727,17.271,18.962a.533.533,0,0,1,.225.258h-1.878c-6.852-4.435-12.509-11.41-16.572-18.687-4.276-7.667-6.791-15.657-7.01-21.472a.547.547,0,0,1,1.094-.041" transform="translate(-362.644 -1096.38)" fill="#fff"/><path d="M2696.917,1168.812s-21.695-9.87-18.474-25.154,20.858-13.679,18.474-25.745-13.967-30.861-2.7-44.538,30-5.478,32.345-26.687c1.894-17.092,9.791-29.2,25.093-25.648,14.166,3.287,24.727,14.254,24.989,40.338.286,27.774,19.844,19.97,20.086,40.432.244,20.606-16.17,20.606-22.582,34.432-3.027,6.53,4.869,29.479-18.469,32.572Z" transform="translate(-1015.662 -596.979)" fill="#bb83ff" opacity="0.4"/><path d="M2945.48,1082.464s.054.467.135,1.377c.247,2.735.744,9.4.744,18.682.008,27.165-4.278,76.784-31.319,116.389a1.133,1.133,0,0,0-.116.213h2.831c26.792-40.1,30.965-89.451,30.971-116.6a197.488,197.488,0,0,0-.9-20.328,1.184,1.184,0,1,0-2.353.27" transform="translate(-1211.863 -647.291)" fill="#fff"/><path d="M2937.809,1420.822s-3.413-18.863,9.39-26.542,25.875-13.656,24.456-26.031,2.072-26.979,22.585-27.253c12.68-.165,7.919-13.537,20.8-16.2,7.832-1.621,13,6.554,14,14.581,1.142,9.142-4.034,18.129,1.9,25.575,7.7,9.647,10.832,27.639-5.725,32.758s-1.8,20.8-24.348,23.113h-63.059Z" transform="translate(-1230.481 -848.988)" fill="#bb83ff" fill-rule="evenodd" opacity="0.53"/><path d="M3130.2,1372.542c-.432,12.016-5.762,29.12-14.882,45.438s-22.008,31.9-37.406,41.07a1.175,1.175,0,0,0-.488.559h4.069c14.84-9.6,27.092-24.713,35.893-40.473,9.262-16.606,14.708-33.912,15.183-46.506a1.185,1.185,0,0,0-2.369-.088" transform="translate(-1346.498 -887.776)" fill="#fff"/><path d="M2069.094,572.031h159.664l.067,218.25h-159.73Z" transform="translate(-511.073 -225.479)" fill="#47286d" fill-rule="evenodd"/><g transform="translate(1551.901 339.49)"><g transform="translate(0)" clip-path="url(#c)"><rect width="159.73" height="218.25" fill="#bb83ff"/></g></g><path d="M1683.362,1822.038c-86.6,0-156.795,4.234-156.795,9.457s70.2,9.456,156.795,9.456,156.8-4.234,156.8-9.456-70.2-9.457-156.8-9.457" transform="translate(-61.577 -1261.137)" fill="#f17781" fill-rule="evenodd"/><g transform="translate(1540.548 348.278)"><g transform="translate(0 0)" clip-path="url(#d)"><rect width="159.731" height="218.25" fill="url(#e)"/></g></g><path d="M2083.847,1092.5H2068.6a1.9,1.9,0,0,0-1.366.585h0a2.009,2.009,0,0,0-.564,1.4v15.694a2.015,2.015,0,0,0,.569,1.405,1.9,1.9,0,0,0,1.366.585h15.25a1.9,1.9,0,0,0,1.365-.581v0a2.015,2.015,0,0,0,.569-1.405v-15.694a2.009,2.009,0,0,0-.564-1.4l0,0a1.9,1.9,0,0,0-1.365-.581m-15.25-2.382h15.25a4.179,4.179,0,0,1,3,1.283l0,0a4.425,4.425,0,0,1,1.248,3.084v15.694a4.424,4.424,0,0,1-1.248,3.089l0,0a4.179,4.179,0,0,1-3,1.286H2068.6a4.182,4.182,0,0,1-3-1.283,4.425,4.425,0,0,1-1.247-3.089v-15.694a4.423,4.423,0,0,1,1.25-3.086l0,0A4.181,4.181,0,0,1,2068.6,1090.115Z" transform="translate(-507.14 -654.723)" fill="#fff"/><path d="M2258.963,1094.831h28.9a1.811,1.811,0,0,1,0,3.622h-28.9a1.811,1.811,0,1,1,0-3.622" transform="translate(-666.883 -658.631)" fill="#fff" fill-rule="evenodd"/><path d="M2083.429,1308.388h-15a1.87,1.87,0,0,0-1.343.575h0a1.979,1.979,0,0,0-.555,1.382v15.432a1.978,1.978,0,0,0,.56,1.381,1.87,1.87,0,0,0,1.343.575h15a1.868,1.868,0,0,0,1.343-.571v0a1.979,1.979,0,0,0,.559-1.381v-15.432a1.978,1.978,0,0,0-.555-1.382l0,0a1.868,1.868,0,0,0-1.343-.571m-15-2.342h15a4.11,4.11,0,0,1,2.948,1.262l0,0a4.351,4.351,0,0,1,1.227,3.033v15.432a4.352,4.352,0,0,1-1.227,3.037l0,0a4.11,4.11,0,0,1-2.95,1.264h-15a4.11,4.11,0,0,1-2.952-1.262,4.351,4.351,0,0,1-1.226-3.037v-15.432a4.352,4.352,0,0,1,1.228-3.035l0,0A4.111,4.111,0,0,1,2068.434,1306.046Z" transform="translate(-507.065 -833.627)" fill="#fff"/><path d="M2091.244,1350.955l7.78-7.464a1.476,1.476,0,0,1,2.125.079,1.58,1.58,0,0,1-.077,2.188l-8.925,8.559-.022.019a1.478,1.478,0,0,1-2.119-.145l-4.3-5.065a1.583,1.583,0,0,1,.141-2.183,1.478,1.478,0,0,1,2.12.145Z" transform="translate(-524.528 -864.308)" fill="#fff" fill-rule="evenodd"/><path d="M2258.96,1150.409h87.848a1.811,1.811,0,0,1,0,3.622H2258.96a1.811,1.811,0,1,1,0-3.622" transform="translate(-666.881 -704.678)" fill="#fff" fill-rule="evenodd"/><path d="M2258.96,1205.989h87.848a1.811,1.811,0,1,1,0,3.622H2258.96a1.811,1.811,0,1,1,0-3.622" transform="translate(-666.881 -750.727)" fill="#fff" fill-rule="evenodd"/><path d="M2258.963,1307.176h28.9a1.811,1.811,0,0,1,0,3.622h-28.9a1.811,1.811,0,1,1,0-3.622" transform="translate(-666.883 -834.563)" fill="#fff" fill-rule="evenodd"/><path d="M2258.96,1362.754h87.848a1.811,1.811,0,0,1,0,3.622H2258.96a1.811,1.811,0,0,1,0-3.622" transform="translate(-666.881 -880.61)" fill="#fff" fill-rule="evenodd"/><path d="M2258.96,1418.334h87.848a1.811,1.811,0,1,1,0,3.621H2258.96a1.811,1.811,0,1,1,0-3.621" transform="translate(-666.881 -926.66)" fill="#fff" fill-rule="evenodd"/><path d="M2091.244,1137.707l7.78-7.465a1.476,1.476,0,0,1,2.125.08,1.579,1.579,0,0,1-.077,2.187l-8.925,8.559-.022.018a1.478,1.478,0,0,1-2.119-.145l-4.3-5.064a1.583,1.583,0,0,1,.141-2.183,1.478,1.478,0,0,1,2.12.145Z" transform="translate(-524.528 -687.627)" fill="#fff" fill-rule="evenodd"/><path d="M2083.429,1526.988h-15a1.868,1.868,0,0,0-1.343.576h0a1.976,1.976,0,0,0-.555,1.381v15.432a1.976,1.976,0,0,0,.56,1.381,1.868,1.868,0,0,0,1.343.576h15a1.868,1.868,0,0,0,1.343-.571v0a1.978,1.978,0,0,0,.559-1.381v-15.432a1.975,1.975,0,0,0-.555-1.381l0,0a1.87,1.87,0,0,0-1.343-.571m-15-2.343h15a4.11,4.11,0,0,1,2.948,1.262l0,0a4.351,4.351,0,0,1,1.227,3.033v15.432a4.352,4.352,0,0,1-1.227,3.038l0,0a4.109,4.109,0,0,1-2.95,1.264h-15a4.108,4.108,0,0,1-2.952-1.262,4.351,4.351,0,0,1-1.226-3.038v-15.432a4.349,4.349,0,0,1,1.228-3.035l0,0A4.109,4.109,0,0,1,2068.434,1524.645Z" transform="translate(-507.065 -1014.741)" fill="#fff"/><path d="M2091.244,1569.556l7.78-7.464a1.477,1.477,0,0,1,2.125.08,1.58,1.58,0,0,1-.077,2.188l-8.925,8.559-.022.018a1.478,1.478,0,0,1-2.119-.145l-4.3-5.064a1.583,1.583,0,0,1,.141-2.183,1.478,1.478,0,0,1,2.12.145Z" transform="translate(-524.528 -1045.425)" fill="#fff" fill-rule="evenodd"/><path d="M2258.963,1525.775h28.9a1.811,1.811,0,0,1,0,3.622h-28.9a1.811,1.811,0,1,1,0-3.622" transform="translate(-666.883 -1015.677)" fill="#fff" fill-rule="evenodd"/><path d="M2258.96,1581.353h87.848a1.811,1.811,0,0,1,0,3.622H2258.96a1.811,1.811,0,1,1,0-3.622" transform="translate(-666.881 -1061.725)" fill="#fff" fill-rule="evenodd"/><path d="M2258.96,1636.934h87.848a1.811,1.811,0,1,1,0,3.622H2258.96a1.811,1.811,0,1,1,0-3.622" transform="translate(-666.881 -1107.775)" fill="#fff" fill-rule="evenodd"/><path d="M2209.6,731.732v3.527a.619.619,0,0,1-.622.622h-12.942a.587.587,0,0,1-.453-.181.625.625,0,0,1-.169-.441V717.52a.624.624,0,0,1,.169-.441.586.586,0,0,1,.453-.182h3.89a.621.621,0,0,1,.623.623v12.967a.626.626,0,0,0,.168.441.59.59,0,0,0,.454.181h7.807a.62.62,0,0,1,.622.622m-26.065-2.956h2.309a.425.425,0,0,0,.376-.169.359.359,0,0,0-.013-.4q-.26-.649-.622-1.517t-.674-1.621c-.069-.155-.147-.233-.233-.233s-.164.078-.234.233l-1.3,3.138a.413.413,0,0,0,0,.4A.42.42,0,0,0,2183.539,728.775Zm-1.53-11.281a.969.969,0,0,1,.351-.4.922.922,0,0,1,.531-.169h3.631a.885.885,0,0,1,.506.169.962.962,0,0,1,.35.4l7.573,17.635a.529.529,0,0,1-.039.492.578.578,0,0,1-.557.259h-4.435a.926.926,0,0,1-.532-.169,1.19,1.19,0,0,1-.376-.4l-.7-1.556a1.182,1.182,0,0,0-.376-.4.885.885,0,0,0-.506-.169h-5.472a.923.923,0,0,0-.532.169.96.96,0,0,0-.35.4l-.727,1.556a.962.962,0,0,1-.35.4.885.885,0,0,1-.506.169h-4.461a.805.805,0,0,1-.272-.052.559.559,0,0,1-.233-.156.507.507,0,0,1-.116-.26.6.6,0,0,1,.077-.363Zm-24.119.052a.6.6,0,0,1,.182-.441.589.589,0,0,1,.437-.182h3.9a.59.59,0,0,1,.437.182.6.6,0,0,1,.181.441v10.5a3.794,3.794,0,0,0,.324,1.673,2.887,2.887,0,0,0,1.837,1.569,3.227,3.227,0,0,0,1.98,0,2.874,2.874,0,0,0,1.016-.532,3.05,3.05,0,0,0,.8-1.037,3.8,3.8,0,0,0,.324-1.673v-10.5a.6.6,0,0,1,.181-.441.59.59,0,0,1,.437-.182h3.9a.59.59,0,0,1,.437.182.6.6,0,0,1,.181.441v10.5a9.179,9.179,0,0,1-.583,3.346,7.138,7.138,0,0,1-1.668,2.568,7.568,7.568,0,0,1-2.615,1.646,10.155,10.155,0,0,1-6.786,0,7.564,7.564,0,0,1-2.615-1.646,7.287,7.287,0,0,1-1.682-2.568,9.008,9.008,0,0,1-.6-3.346Zm-3.191-.026v17.739a.619.619,0,0,1-.622.622h-3.829a1.137,1.137,0,0,1-.545-.156,1.323,1.323,0,0,1-.437-.363l-6.756-9.518q-.156-.208-.325-.169t-.168.3v9.284a.6.6,0,0,1-.181.441.611.611,0,0,1-.446.181h-3.881a.611.611,0,0,1-.445-.181.6.6,0,0,1-.181-.441V717.52a.62.62,0,0,1,.622-.623h3.891a1.365,1.365,0,0,1,.985.493l6.743,9.518a.35.35,0,0,0,.324.182q.168-.026.168-.285V717.52a.62.62,0,0,1,.622-.623h3.839a.619.619,0,0,1,.622.623Zm-30.369,11.255h2.308a.425.425,0,0,0,.376-.169.359.359,0,0,0-.013-.4q-.26-.649-.623-1.517t-.674-1.621c-.069-.155-.147-.233-.234-.233s-.164.078-.233.233l-1.3,3.138a.412.412,0,0,0,0,.4A.421.421,0,0,0,2124.33,728.775Zm-1.531-11.281a.965.965,0,0,1,.35-.4.922.922,0,0,1,.532-.169h3.631a.884.884,0,0,1,.505.169.962.962,0,0,1,.35.4l7.573,17.635a.532.532,0,0,1-.039.492.579.579,0,0,1-.557.259h-4.435a.922.922,0,0,1-.531-.169,1.181,1.181,0,0,1-.376-.4l-.7-1.556a1.185,1.185,0,0,0-.376-.4.886.886,0,0,0-.506-.169h-5.472a.923.923,0,0,0-.531.169.957.957,0,0,0-.35.4l-.726,1.556a.966.966,0,0,1-.351.4.885.885,0,0,1-.506.169h-4.461a.8.8,0,0,1-.272-.052.554.554,0,0,1-.233-.156.51.51,0,0,1-.117-.26.6.6,0,0,1,.077-.363Zm-8.688.052v17.713a.6.6,0,0,1-.182.441.592.592,0,0,1-.437.181h-3.9a.591.591,0,0,1-.437-.181.6.6,0,0,1-.181-.441v-8.351a.248.248,0,0,0-.234-.286.408.408,0,0,0-.389.182l-4.369,7.028a.454.454,0,0,1-.415.208.518.518,0,0,1-.441-.208l-4.37-7.028a.355.355,0,0,0-.363-.182.248.248,0,0,0-.233.286v8.351a.6.6,0,0,1-.182.441.59.59,0,0,1-.437.181h-3.9a.592.592,0,0,1-.437-.181.6.6,0,0,1-.182-.441V717.546a.621.621,0,0,1,.618-.623h3.614a1.136,1.136,0,0,1,.544.156,1.1,1.1,0,0,1,.411.363l4.993,7.314a.448.448,0,0,0,.363.207.386.386,0,0,0,.337-.207l4.992-7.314a1.363,1.363,0,0,1,.437-.363,1.137,1.137,0,0,1,.545-.156h3.613a.59.59,0,0,1,.437.182A.6.6,0,0,1,2114.111,717.546Zm60.93-18.335h2.737a1.928,1.928,0,0,0,.644-.117,1.9,1.9,0,0,0,.622-.363,1.993,1.993,0,0,0,.463-.609,1.892,1.892,0,0,0,.181-.856,2.477,2.477,0,0,0-.091-.61,2.158,2.158,0,0,0-.311-.674,1.741,1.741,0,0,0-1.508-.765h-2.737a.621.621,0,0,0-.618.622v2.749a.621.621,0,0,0,.618.622Zm-1.245,10.218h-3.881a.609.609,0,0,1-.445-.181.6.6,0,0,1-.182-.441V691.068a.621.621,0,0,1,.623-.623h8.065a7.439,7.439,0,0,1,2.775.506,6.226,6.226,0,0,1,2.165,1.413,6.516,6.516,0,0,1,1.4,2.153,7.248,7.248,0,0,1,.506,2.749,7.09,7.09,0,0,1-.195,1.647,7.177,7.177,0,0,1-.557,1.543,6.616,6.616,0,0,1-.856,1.31,4.736,4.736,0,0,1-1.115.972.723.723,0,0,0-.272.376.464.464,0,0,0,.091.428q.985,1.3,2.075,2.671t1.945,2.516a.479.479,0,0,1,.078.454.323.323,0,0,1-.337.246h-4.824a1.3,1.3,0,0,1-.558-.143,1.205,1.205,0,0,1-.454-.35c-.549-.726-1.1-1.461-1.638-2.2s-1.08-1.5-1.612-2.256a1.214,1.214,0,0,0-.441-.35,1.2,1.2,0,0,0-.541-.143h-.57a.621.621,0,0,0-.618.622v4.2a.6.6,0,0,1-.181.441A.61.61,0,0,1,2173.8,709.429Zm-16.438-13.589v1.089a.619.619,0,0,0,.623.623h7.028a.619.619,0,0,1,.622.622v3.579a.62.62,0,0,1-.622.622h-7.028a.619.619,0,0,0-.623.622v.986a.619.619,0,0,0,.623.622h8.065a.619.619,0,0,1,.622.622v3.579a.619.619,0,0,1-.622.622h-13.2a.621.621,0,0,1-.622-.622V691.068a.621.621,0,0,1,.622-.623h13.2a.62.62,0,0,1,.622.623v3.527a.619.619,0,0,1-.622.622h-8.065a.619.619,0,0,0-.623.622Zm-19.892,7.08a14.592,14.592,0,0,0,2.775,1.427,7.3,7.3,0,0,0,2.568.519,3.717,3.717,0,0,0,1.737-.325,1.043,1.043,0,0,0,.6-.972.628.628,0,0,0-.259-.532,2.207,2.207,0,0,0-.687-.324,6.483,6.483,0,0,0-1-.207q-.571-.078-1.167-.208l-1.336-.246a11.408,11.408,0,0,1-1.569-.415,11.091,11.091,0,0,1-1.594-.687,5.467,5.467,0,0,1-1.414-1.063,4.994,4.994,0,0,1-1-1.543,5.43,5.43,0,0,1-.376-2.114,5.668,5.668,0,0,1,.7-2.956,5.54,5.54,0,0,1,1.777-1.854,7.062,7.062,0,0,1,2.4-.959,12.7,12.7,0,0,1,2.567-.272,11.24,11.24,0,0,1,3.9.635,12.483,12.483,0,0,1,3.306,1.854.659.659,0,0,1,.234.441.644.644,0,0,1-.13.466l-2.022,2.879a.665.665,0,0,1-.415.26.56.56,0,0,1-.467-.1,10.529,10.529,0,0,0-2.464-1.18,7.209,7.209,0,0,0-2.1-.35q-.285,0-.661.013a3.125,3.125,0,0,0-.713.1,1.283,1.283,0,0,0-.558.3.747.747,0,0,0-.221.57q0,.363.545.648a6.933,6.933,0,0,0,1.245.493,12.624,12.624,0,0,0,1.348.324q.649.117.831.143a19.073,19.073,0,0,1,2.048.532,7.485,7.485,0,0,1,2.088,1.037,5.827,5.827,0,0,1,1.634,1.79,5.293,5.293,0,0,1,.661,2.762,6.113,6.113,0,0,1-.545,2.684,4.972,4.972,0,0,1-1.517,1.854,6.608,6.608,0,0,1-2.334,1.076,12.129,12.129,0,0,1-3.021.35,13.565,13.565,0,0,1-2.516-.221,12.535,12.535,0,0,1-2.178-.609,11.553,11.553,0,0,1-1.88-.921,14.079,14.079,0,0,1-1.595-1.128.578.578,0,0,1-.234-.428.664.664,0,0,1,.13-.48l2-2.879a.662.662,0,0,1,.414-.259A.622.622,0,0,1,2137.465,702.92Zm-21.059-11.826a.6.6,0,0,1,.181-.441.592.592,0,0,1,.437-.182h3.9a.59.59,0,0,1,.437.182.6.6,0,0,1,.181.441v10.5a3.8,3.8,0,0,0,.324,1.673,2.887,2.887,0,0,0,1.837,1.569,3.222,3.222,0,0,0,1.979,0,2.864,2.864,0,0,0,1.016-.532,3.062,3.062,0,0,0,.795-1.037,3.8,3.8,0,0,0,.324-1.673v-10.5a.6.6,0,0,1,.181-.441.591.591,0,0,1,.437-.182h3.9a.59.59,0,0,1,.437.182.6.6,0,0,1,.181.441v10.5a9.184,9.184,0,0,1-.583,3.346,7.139,7.139,0,0,1-1.668,2.568,7.565,7.565,0,0,1-2.615,1.646,10.151,10.151,0,0,1-6.786,0,7.572,7.572,0,0,1-2.615-1.646,7.275,7.275,0,0,1-1.681-2.568,8.988,8.988,0,0,1-.6-3.346Z" transform="translate(-530.901 -323.373)" fill="#fff"/><path d="M2678.6,582.1l21.029,25.89,16.712-9.1Z" transform="translate(-1016.062 -233.82)" fill="#f17781" fill-rule="evenodd"/><g transform="translate(1486.5 491.702)"><g transform="translate(0)" clip-path="url(#f)"><rect width="35.968" height="93.985" transform="translate(-0.471 -11.235)" fill="url(#g)"/></g></g><g transform="translate(1507.424 482.865)"><g transform="translate(0)" clip-path="url(#h)"><rect width="33.296" height="19.873" transform="translate(-0.95 -0.311)" fill="url(#i)"/></g></g><g transform="translate(1489.482 481.943)"><g clip-path="url(#j)"><rect width="28.128" height="36.969" transform="translate(-1.603 -0.922)" fill="url(#k)"/></g></g><path d="M1679.632,1436.46c.914,5.193,2.139,12.3,1.378,19.208q.489.084.975.159c.37-1.126.766-1.874,1.151-7.121s-1.767-15.144-1.767-15.144l-1.737,2.9Z" transform="translate(-188.395 -939.277)" fill="#146ccb" fill-rule="evenodd"/><path d="M1688.471,1504.261c.1,1.429.165,2.9.164,4.413,1.133.207,3.185-.1,6.48-.142,4.095-.055,5.813,1.005,5.813,1.005a12.981,12.981,0,0,0,.329-3c-.183-.457-3.693-1.3-5.521-1.755a57.868,57.868,0,0,0-7.265-.524" transform="translate(-195.718 -997.852)" fill="#146ccb" fill-rule="evenodd"/><path d="M1720.356,1289.743a6.031,6.031,0,0,1-2.595,2.8l.035,1.894.276.235c1.079,1.157-.089,3.531-1.319,3.458-3.109.153-5.495-2.4-4.56-3.779l.406-.452.09-2.681c-.161-.009-1.328-.672-1.675-.779a1.8,1.8,0,0,1-.892-1.483c-.034-.707,1.058-.478,1.058-.478-1.323-1.811-2.821-3.29-.879-4.92s6.406-2.582,6.406-2.582l2.685-.931c-.342.926.115,4.019.805,5.949.618,1.732,1.038,2,.159,3.751" transform="translate(-213.035 -812.083)" fill="#f4b1b1" fill-rule="evenodd"/><path d="M1736.1,1347.368s1.519,2.606,2.767,2.842.61.062,1.075.006l-.035-1.894c-.86.138-1.7.071-3.807-.954" transform="translate(-235.18 -867.863)" fill="#e98385" fill-rule="evenodd"/><g transform="translate(1494.534 465.185)"><g transform="translate(0)" clip-path="url(#l)"><rect width="13.185" height="13.553" transform="translate(-0.042 0)" fill="url(#m)"/></g></g><path d="M1716.078,1373.018l2.9,4.8-48.068,30.611a4.2,4.2,0,0,1-5.438-1.46c-1.045-1.732-.565-4.591,1.189-5.6Z" transform="translate(-176.207 -889.114)" fill="#254fb7"/><path d="M1995.939,1159.99a22.905,22.905,0,1,0,7.606,15.794,22.832,22.832,0,0,0-7.606-15.794m-34.1,34.571a1.359,1.359,0,0,1-.444.429,1.382,1.382,0,0,1-1.893-.468l-3.2-5.3a1.379,1.379,0,0,1,.742-2.02,25.735,25.735,0,1,1,6.5,9.036Q1962.647,1195.437,1961.834,1194.561Z" transform="translate(-416.516 -705.464)" fill="#254fb7"/><g transform="translate(1482.759 484.968)"><g transform="translate(0 0)" clip-path="url(#n)"><rect width="20.745" height="27.31" transform="translate(-0.91 -1.79)" fill="url(#o)"/></g></g><path d="M1731.659,1502.518l1.282.416,2.868-.5c.32-.145,2.407-.631,1.852.057-.39.484-1.59,1.28-1.561,1.333.384.7,4.269,1.748,4.308,1.812.539.884-1.966.363-2.4.293a15.772,15.772,0,0,1,1.565.817.868.868,0,0,1-.816.245,10.587,10.587,0,0,0-1.652-.369c-.12.086,1.591.812,1.473.885a.766.766,0,0,1-.633.1,14.639,14.639,0,0,0-1.609-.445c-.15.06,1.105.507.963.551-.111.034-.141.234-.252.219-3-.4-2.952-1.937-6.4-2.3-1.918-.2.347-2.814,1.007-3.111" transform="translate(-230.041 -996.087)" fill="#f4b1b1" fill-rule="evenodd"/><path d="M1939.809,1410.253c.224-.363,1.613.722,1.613.722l-1.384-1.6c-.053-.7,1.126-.259,1.493.111l-.859-1.358s.1-.341.354-.225a11.337,11.337,0,0,1,1.049.7l-.947-1.206a.537.537,0,0,1,.653-.065,2.868,2.868,0,0,1,1.317,3.947c-1.375,2.132-3.463-.744-3.289-1.026" transform="translate(-403.949 -917.482)" fill="#f4b1b1" fill-rule="evenodd"/><g transform="translate(1466.922 383.566)"><g transform="translate(0 0)" clip-path="url(#p)"><rect width="49.253" height="57.788" transform="translate(-0.332 -0.006)" fill="url(#q)"/></g></g><path d="M1588,816.262a18.942,18.942,0,1,1-18.942,18.942A18.942,18.942,0,0,1,1588,816.262" transform="translate(-96.779 -427.83)" fill="#f9e478" fill-rule="evenodd"/><g transform="translate(1481.834 440.114)"><g clip-path="url(#r)"><rect width="18.624" height="19.26" transform="translate(0 0)" fill="url(#s)"/></g></g><path d="M1614.209,1128.569h19.179a4.152,4.152,0,0,0,1.857,5.571,1.857,1.857,0,1,0,0,3.714,1.863,1.863,0,0,1-1.857,1.857h-19.179a4.152,4.152,0,0,0-1.857-5.571,1.857,1.857,0,0,0,0-3.714,1.862,1.862,0,0,1,1.857-1.857" transform="translate(-132.652 -686.583)" fill="#a2bee5" fill-rule="evenodd"/><path d="M1620.987,1132.3h19.194a.445.445,0,0,1,.445.444h0a.446.446,0,0,1-.445.444h-19.194a.446.446,0,0,1-.445-.444h0a.446.446,0,0,1,.445-.444" transform="translate(-139.438 -689.67)" fill="#dceafd" fill-rule="evenodd"/><path d="M1620.987,1153.226h19.194a.446.446,0,0,1,.445.445h0a.446.446,0,0,1-.445.444h-19.194a.446.446,0,0,1-.445-.444h0a.446.446,0,0,1,.445-.445" transform="translate(-139.438 -707.012)" fill="#dceafd" fill-rule="evenodd"/><path d="M1620.987,1174.158h19.194a.446.446,0,0,1,.445.445h0a.446.446,0,0,1-.445.445h-19.194a.446.446,0,0,1-.445-.445h0a.446.446,0,0,1,.445-.445" transform="translate(-139.438 -724.355)" fill="#dceafd" fill-rule="evenodd"/><path d="M1629.444,947.586h0a2.65,2.65,0,0,0-4.522,1.872v1.6a2.643,2.643,0,0,0,.779,1.872h0a2.645,2.645,0,0,0,1.873.778h2.651v-4.254a2.645,2.645,0,0,0-.778-1.873m-1.873-1.707a3.569,3.569,0,0,1,2.529,1.051v0a3.569,3.569,0,0,1,1.051,2.527v5.182h-3.58a3.57,3.57,0,0,1-2.527-1.051h0a3.57,3.57,0,0,1-1.051-2.529v-1.6a3.567,3.567,0,0,1,1.051-2.527l0,0A3.567,3.567,0,0,1,1627.572,945.879Z" transform="translate(-142.296 -535.221)" fill="#fff"/><path d="M1694.338,946.93a3.565,3.565,0,0,1,5.056,0v0a3.568,3.568,0,0,1,1.051,2.527v1.6a3.588,3.588,0,0,1-3.58,3.58h-3.58v-5.182a3.567,3.567,0,0,1,1.051-2.527Zm2.527-.122a2.657,2.657,0,0,0-2.651,2.651v4.254h2.651a2.66,2.66,0,0,0,2.651-2.651v-1.6a2.646,2.646,0,0,0-.778-1.873h0A2.645,2.645,0,0,0,1696.865,946.808Z" transform="translate(-199.707 -535.221)" fill="#fff"/><path d="M1660.326,1013.182V991.56h6.581v21.622h-.929V992.489h-4.723v20.693Z" transform="translate(-172.399 -573.068)" fill="#fff"/><path d="M1510.389,713.21h0a1.305,1.305,0,0,1,.476,1.778l-2.845,4.928a1.305,1.305,0,0,1-1.779.477h0a1.306,1.306,0,0,1-.477-1.779l2.845-4.927a1.306,1.306,0,0,1,1.779-.477m-38.763,0h0a1.306,1.306,0,0,1,1.779.477l2.845,4.927a1.306,1.306,0,0,1-.477,1.779h0a1.305,1.305,0,0,1-1.779-.477l-2.845-4.928A1.306,1.306,0,0,1,1471.626,713.21ZM1457.438,727.4h0a1.306,1.306,0,0,1,1.779-.476l4.928,2.845a1.306,1.306,0,0,1,.477,1.779h0a1.306,1.306,0,0,1-1.779.477l-4.927-2.845A1.306,1.306,0,0,1,1457.438,727.4Zm67.14,0h0a1.306,1.306,0,0,1-.477,1.779l-4.927,2.845a1.305,1.305,0,0,1-1.779-.477h0a1.306,1.306,0,0,1,.477-1.779l4.927-2.845A1.306,1.306,0,0,1,1524.578,727.4Zm5.193,19.381h0a1.306,1.306,0,0,1-1.3,1.3h-5.69a1.306,1.306,0,0,1-1.3-1.3h0a1.306,1.306,0,0,1,1.3-1.3h5.69A1.306,1.306,0,0,1,1529.771,746.78Zm-69.232,0h0a1.306,1.306,0,0,1-1.3,1.3h-5.689a1.306,1.306,0,0,1-1.3-1.3h0a1.306,1.306,0,0,1,1.3-1.3h5.689A1.306,1.306,0,0,1,1460.539,746.78Zm30.469-38.763h0a1.306,1.306,0,0,1,1.3,1.3v5.69a1.307,1.307,0,0,1-1.3,1.3h0a1.307,1.307,0,0,1-1.3-1.3v-5.69A1.306,1.306,0,0,1,1491.008,708.017Z" transform="translate(0 -338.146)" fill="#f9e478" fill-rule="evenodd"/><rect width="35.807" height="3.416" transform="translate(1717.08 482.644)" fill="#a1c7e9"/><path d="M2960.136,1429.077h-30.758q-1.45,9.978-2.9,19.913h30.764q1.441-9.946,2.889-19.913m3.225-22.18H2932.6q-1.451,9.978-2.889,19.913h30.757Q2961.917,1416.863,2963.361,1406.9Zm3.225-22.181h-30.764q-1.452,9.978-2.9,19.914h30.764Q2965.131,1394.684,2966.586,1384.716Zm-30.435-2.266h30.764q1.22-8.39,2.439-16.778h2.829q-1.219,8.389-2.439,16.778c-.115.763-.222,1.525-.329,2.266q-1.452,9.978-2.9,19.914c-.107.763-.222,1.525-.329,2.267q-1.45,9.978-2.9,19.913c-.107.763-.221,1.525-.329,2.267q-1.441,9.978-2.889,19.913c-.114.763-.222,1.526-.329,2.266l-.875,6.02h-2.829l.875-6.02h-30.764l-.875,6.02h-2.815l.874-6.02c.108-.741.221-1.5.329-2.266q1.452-9.946,2.9-19.913c.107-.742.215-1.5.329-2.267q1.441-9.946,2.889-19.913c.108-.742.222-1.5.329-2.267q1.451-9.946,2.9-19.914c.107-.741.215-1.5.329-2.266q1.219-8.39,2.432-16.778h2.822Q2937.37,1374.06,2936.151,1382.449Z" transform="translate(-1218.109 -883.028)" fill="#8dbae4" fill-rule="evenodd"/><path d="M3012.4,1429.077h30.757q1.451,9.978,2.9,19.913h-30.764q-1.441-9.946-2.889-19.913m-3.225-22.18h30.764q1.451,9.978,2.889,19.913h-30.757Q3010.62,1416.863,3009.176,1406.9Zm-3.225-22.181h30.765q1.451,9.978,2.9,19.914h-30.764Q3007.4,1394.684,3005.95,1384.716Zm30.436-2.266h-30.765q-1.219-8.39-2.438-16.778h-2.829q1.22,8.389,2.439,16.778c.114.763.222,1.525.329,2.266q1.451,9.978,2.9,19.914c.108.763.221,1.525.329,2.267q1.451,9.978,2.9,19.913c.107.763.221,1.525.329,2.267q1.441,9.978,2.889,19.913c.115.763.222,1.526.33,2.266l.874,6.02h2.828l-.875-6.02h30.764l.874,6.02h2.815l-.875-6.02c-.107-.741-.222-1.5-.329-2.266q-1.451-9.946-2.9-19.913c-.108-.742-.215-1.5-.329-2.267q-1.441-9.946-2.889-19.913c-.107-.742-.221-1.5-.329-2.267q-1.451-9.946-2.9-19.914c-.107-.741-.215-1.5-.329-2.266q-1.22-8.39-2.432-16.778h-2.822Q3035.166,1374.06,3036.386,1382.449Z" transform="translate(-1282.642 -883.028)" fill="#9ed8f5" fill-rule="evenodd"/><g transform="translate(1723.127 429.671)"><g transform="translate(0 0)" clip-path="url(#t)"><rect width="16.691" height="17.33" transform="translate(0 0)" fill="url(#u)"/></g></g><path d="M3140.84,1295.9l11.366,7.992.5,35.6.255.293c.065.076.131.149.2.222.156.175.31.34.464.494.069.07.138.138.209.2a6.278,6.278,0,0,0,3.62,1.416,2.5,2.5,0,0,1,2.2,1.284.642.642,0,0,1,.052.1.652.652,0,0,1-.573.881l-10.129.486a.979.979,0,0,1-1.033-1l.324-4.464a.174.174,0,0,1,0-.019c-.928-8.59-3.878-21.054-3.08-31.238,0,0-12.486-14.631-12.483-15.093s8.1,2.84,8.1,2.84" transform="translate(-1392.323 -822.833)" fill="#f4b1b1"/><path d="M3126.632,1335.98c-.44,3.8,2.212,6.057,1.772,9.859-.006,9.518-6.675,20.485-8.931,30.1-.075.318.493,3.341.428,3.657-1,1.071-3.856,2.582-4.162-2.357,1.277-8.3,2.865-21.711,6.152-31.807l-2.076-10.066Z" transform="translate(-1378.241 -857.915)" fill="#f4b1b1"/><g transform="translate(1722.894 459.804)"><g clip-path="url(#v)"><rect width="48.624" height="35.575" transform="translate(-6.644 -1.525)" fill="url(#w)"/></g></g><path d="M3128.4,1117.037c0,.005-1.487,11.044.721,16.284.281.667.06.866,1,1.8,2.011,1.99,4.051,5.323,5.244,5.6,4.339,1.007,6.308.182,5.865-2.667-.137-.882-1.76-1.746-3.57-2.309-1.56-.484-3.672-4.216-4.586-6.349-2.649-6.183-2.356-15.591-7.029-18.7-.532-.343.8,4,2.354,6.342" transform="translate(-1386.681 -671.758)" fill="#b8036f" fill-rule="evenodd"/><path d="M3017.042,1105.485c-1.936,7.9,6.456,6.1,4.7,22.048,5.809.807,12.273,1.029,17.267-.2-.8-5.868.2-9.011.426-12.215a16.153,16.153,0,0,0-2.729-10.644c-1.708-2.645-16.39-3.867-19.663,1.012" transform="translate(-1296.227 -664.7)" fill="#dc0482" fill-rule="evenodd"/><path d="M3046.1,1228.135a17.407,17.407,0,0,1-.242,3.773,24.968,24.968,0,0,0,3.985.346,14.966,14.966,0,0,0-3.744-4.119" transform="translate(-1320.341 -769.076)" fill="#b8036f" fill-rule="evenodd"/><path d="M3073.718,1040.766l-.488,1.888.209.309c.752,1.444-1.062,3.477-2.261,3.065-3.125-.7-4.787-3.891-3.48-5l.528-.336.828-2.634c-.156-.053-1.131-1.033-1.446-1.234a1.855,1.855,0,0,1-.475-1.717c.161-.71,1.181-.183,1.181-.183-.812-2.16-1.89-4.04.486-5.12s7.063-.794,7.063-.794l2.92-.182a8.658,8.658,0,0,0-.873,4.93c.215,2.991-1.594,6.491-4.191,7.014" transform="translate(-1337.934 -603.941)" fill="#f4b1b1" fill-rule="evenodd"/><path d="M3085.263,1086.837s.787,3,1.959,3.58.588.229,1.065.3l.488-1.888c-.891-.1-1.706-.4-3.512-1.995" transform="translate(-1352.992 -652.007)" fill="#e98385" fill-rule="evenodd"/><path d="M2998.238,1113.866c-7.208,2.235-6.649,18.038-5.622,22.442.874,3.575,13.028,12.623,16.122,11.653,1.492-.468,2.48-2.211.448-3.814-.708-.833-10.405-8.853-10.506-9.73-.233-5.663,4.567-20.873-.442-20.551" transform="translate(-1275.732 -674.397)" fill="#dc0482" fill-rule="evenodd"/><path d="M3111.725,1303.94l-18.83.282,6.531,5.607h20.7Z" transform="translate(-1359.315 -831.882)" fill="#3b87c8" fill-rule="evenodd"/><path d="M3157.576,1249.476H3134l-3.026,15.229h23.572l3.21-15.1Z" transform="translate(-1390.868 -786.758)" fill="#a1c7e9" fill-rule="evenodd"/><path d="M3085.573,1296.127l.715.395,2.567.043c.3-.072,2.189-.145,1.594.358-.418.354-1.487.772-1.471.823.852.635,3.15,2.042,3.173,2.1.319.855-1.943-.3-2.3-.435-.095-.035,1.479,1.208,1.4,1.258a.765.765,0,0,1-.747.076c-.482-.19-1.435-.938-1.549-.885s1.421,1.258,1.308,1.3a.674.674,0,0,1-.564-.02c-.494-.21-1.362-.969-1.5-.943s.9.8.921.927c.016.09-.16.179-.254.148-2.532-.843-1.854-1.6-4.78-2.487-1.627-.494.868-2.514,1.488-2.661" transform="translate(-1351.566 -825.409)" fill="#f4b1b1" fill-rule="evenodd"/><g transform="translate(1714.106 421.829)"><g transform="translate(0 0)" clip-path="url(#x)"><rect width="30.284" height="24.774" transform="translate(-1.112 0)" fill="url(#y)"/></g></g><path d="M3229.633,1575.694s3.595.694,3.523,1.792c-.146,2.216-12.337,1.728-12.408,1.654a4.872,4.872,0,0,1-.2-3.749c.385-.582,5.344,1.976,9.083.3" transform="translate(-1464.84 -1056.711)" fill="#031542" fill-rule="evenodd"/><path d="M3115.682,1582.794c-.077,1.411-5.173,1.006-5.94.582-1.139-.629.249-5.067.679-4.573,0,0,1.329,2.091,2.9,1.669s1.02-.888,1.289-.359c.5.991,1.142,1.38,1.072,2.681" transform="translate(-1372.91 -1059.58)" fill="#000446" fill-rule="evenodd"/><path d="M3203.613,1284.466a1.416,1.416,0,1,0,1.476,1.414,1.446,1.446,0,0,0-1.476-1.414" transform="translate(-1449.824 -815.747)" fill="#fff" fill-rule="evenodd"/><g transform="translate(1508.903 312.191)"><g transform="translate(0 0)" clip-path="url(#z)"><rect width="61.643" height="50.498" transform="translate(0 0)" fill="#f17781"/></g></g><path d="M1891.466,470.114a13.45,13.45,0,1,1-13.449,13.45,13.45,13.45,0,0,1,13.449-13.45" transform="translate(-352.761 -141.039)" fill="#fff" fill-rule="evenodd"/><path d="M1898.008,520.97a2.074,2.074,0,0,1,3.284-2.535l3.052,3.954,9.715-8.342a2.075,2.075,0,0,1,2.7,3.154l-11.37,9.764h0l-.081.065a2.074,2.074,0,0,1-2.909-.374Z" transform="translate(-368.966 -177.024)" fill="#31d9e7"/><path d="M2884.048,1573.482c-.089.717-.36,1.049-.194,1.745a8.564,8.564,0,0,1,.191,2.034c-.032.41-.284,1.873-1,1.843a.258.258,0,0,1-.2-.093c-.133.314-.617.023-.787-.083-.166.3-.7.081-.853-.105-.2.5-1.169-.129-1.456-.9-.387-.367-.327-1.537-.236-1.946a2.081,2.081,0,0,1,.262-.572c.3-.549.742-1.317.823-1.47.193-.364.492-.67.474-1.1Z" transform="translate(-1182.472 -1054.668)" fill="#f4b1b1"/><g transform="translate(1687.285 483.011)"><g transform="translate(0 0)" clip-path="url(#aa)"><rect width="16.163" height="39.575" transform="translate(-0.56 -0.363)" fill="url(#ab)"/></g></g><path d="M2612.973,1386.214l-.894-1.11-.585-3.024c.022-.37-.283-2.616-.754-1.809-.331.567-.665,2.053-.729,2.044a22.842,22.842,0,0,0-3.413-3.575c-1.077-.2.557,2.144.787,2.542.11.191-.656-.647-.764.341-.034.305.172.3.294.655.078.228-.506-.622-.6.167-.063.523.086.527.208.828.035.087-.189-.11-.329-.047-.113.052-.16.347-.047.54,1.442,2.474,2.531,1.449,4.132,4.614.921,1.82,2.65-1.4,2.695-2.166" transform="translate(-955.979 -893.846)" fill="#f4b1b1" fill-rule="evenodd"/><g transform="translate(1666.438 489.896)"><g transform="translate(0)" clip-path="url(#ac)"><rect width="34.626" height="95.383" transform="translate(-1.034 -11.349)" fill="url(#ad)"/></g></g><path d="M2762.438,1268.841s-4.771-1.782-6.971,1.849c-.551.908-1.409,1.05-1.392,2.283a12.686,12.686,0,0,1-.136,2.119c-.113.657-.619,1.63-.727,2.161-.134.662.852,1.016.873,1.306.167,2.307.305,3.417,1.367,3.811,2.682.376,6.45.54,7.681-1.732a18.179,18.179,0,0,0,2.29-7.751,4.781,4.781,0,0,0-2.984-4.046" transform="translate(-1077.869 -802.439)" fill="#f4b1b1"/><path d="M2772.865,1327.974a4.012,4.012,0,0,1-.126,1.866c-.319.616,6,.632,6,.632a41.563,41.563,0,0,1,1.485-6.181c.973-2.83-7.36,3.682-7.36,3.682" transform="translate(-1094.049 -848.153)" fill="#f4b1b1"/><g transform="translate(1674.495 464.971)"><g transform="translate(0 0)" clip-path="url(#ae)"><rect width="18.939" height="15.814" transform="translate(-1.052 -1.566)" fill="url(#af)"/></g></g><path d="M2770.606,1351.908s.021-1.177.554-1.29,6.232-.483,6.887-.226l.072,1.5s-1.677.505-7.512.018" transform="translate(-1092.291 -870.295)" fill="#dbdcdc"/><path d="M2771.2,1311.276c.1-.417,1.127-2.129,1.534-.849s-.615,3-1.185,2.854-.6-.944-.349-2" transform="translate(-1092.657 -836.87)" fill="#f4b1b1"/><g transform="translate(1668.764 481.172)"><g clip-path="url(#ag)"><rect width="26.658" height="46.244" transform="translate(0 -1.189)" fill="url(#ah)"/></g></g><g transform="translate(1654.185 485.203)"><g clip-path="url(#ai)"><rect width="24.255" height="24.029" transform="translate(-0.626 -2.005)" fill="url(#aj)"/></g></g></g></svg>