<svg id="Capa_1" data-name="Capa 1" xmlns="http://www.w3.org/2000/svg" viewBox="0 0 898.51 283.16"><defs><style>.cls-1,.cls-6{isolation:isolate;}.cls-2{fill:#12263f;}.cls-3{fill:#f17781;}.cls-4{fill:#47286d;}.cls-5{fill:#bb83ff;}.cls-6{fill:none;stroke:#707070;stroke-width:2px;stroke-dasharray:2 2;opacity:0.69;}</style></defs><g class="cls-1"><g class="cls-1"><path class="cls-2" d="M142.09,283.55V288h-1.5V276.62h4.19a4.21,4.21,0,0,1,2.93,1,3.23,3.23,0,0,1,1.06,2.52,3.17,3.17,0,0,1-1,2.55,4.38,4.38,0,0,1-3,.9Zm0-1.23h2.69a2.67,2.67,0,0,0,1.84-.57,2.05,2.05,0,0,0,.65-1.64,2.12,2.12,0,0,0-.65-1.62,2.51,2.51,0,0,0-1.75-.64h-2.78Z" transform="translate(0 -5)"/><path class="cls-2" d="M154.54,280.84a5.27,5.27,0,0,0-.71,0A1.9,1.9,0,0,0,151.9,282v6h-1.45v-8.45h1.41l0,1a2.27,2.27,0,0,1,2-1.13,1.53,1.53,0,0,1,.64.11Z" transform="translate(0 -5)"/><path class="cls-2" d="M155.33,283.7a5,5,0,0,1,.49-2.24,3.56,3.56,0,0,1,1.36-1.53,3.68,3.68,0,0,1,2-.54,3.57,3.57,0,0,1,2.8,1.2,4.58,4.58,0,0,1,1.06,3.18v.1a4.94,4.94,0,0,1-.47,2.21,3.6,3.6,0,0,1-1.35,1.53,3.8,3.8,0,0,1-2,.55,3.55,3.55,0,0,1-2.79-1.2,4.58,4.58,0,0,1-1.06-3.16Zm1.45.17a3.62,3.62,0,0,0,.65,2.25,2.1,2.1,0,0,0,1.75.86,2.07,2.07,0,0,0,1.75-.87,4,4,0,0,0,.65-2.41,3.63,3.63,0,0,0-.66-2.26,2.12,2.12,0,0,0-1.76-.86,2.05,2.05,0,0,0-1.72.85A3.92,3.92,0,0,0,156.78,283.87Z" transform="translate(0 -5)"/><path class="cls-2" d="M167.51,282.63l1.87-3.08h1.69l-2.77,4.18,2.86,4.27h-1.68l-1.95-3.16L165.58,288H163.9l2.85-4.27L164,279.55h1.68Z" transform="translate(0 -5)"/><path class="cls-2" d="M172.61,277.3a.87.87,0,0,1,.21-.59.83.83,0,0,1,.64-.24.82.82,0,0,1,.64.24.83.83,0,0,1,.22.59.78.78,0,0,1-.86.82.82.82,0,0,1-.64-.23A.85.85,0,0,1,172.61,277.3Zm1.56,10.7h-1.44v-8.45h1.44Z" transform="translate(0 -5)"/><path class="cls-2" d="M177.84,279.55l0,.93a3.12,3.12,0,0,1,2.51-1.09,2.4,2.4,0,0,1,2.41,1.36,3.18,3.18,0,0,1,2.7-1.36c1.85,0,2.8,1,2.83,2.95V288h-1.45v-5.58a2,2,0,0,0-.41-1.35,1.83,1.83,0,0,0-1.39-.45,1.93,1.93,0,0,0-1.34.48,2,2,0,0,0-.62,1.29V288h-1.45v-5.54a1.61,1.61,0,0,0-1.8-1.84,1.93,1.93,0,0,0-2,1.21V288h-1.44v-8.45Z" transform="translate(0 -5)"/><path class="cls-2" d="M190.52,277.3a.87.87,0,0,1,.21-.59.82.82,0,0,1,.64-.24.83.83,0,0,1,.64.24.88.88,0,0,1,.22.59.86.86,0,0,1-.22.59.82.82,0,0,1-.64.23.81.81,0,0,1-.64-.23A.85.85,0,0,1,190.52,277.3Zm1.56,10.7h-1.45v-8.45h1.45Z" transform="translate(0 -5)"/><path class="cls-2" d="M194,283.7a5,5,0,0,1,.92-3.13,3.14,3.14,0,0,1,4.77-.16V276h1.44v12h-1.33l-.07-.91A3.11,3.11,0,0,1,195,287a5,5,0,0,1-.92-3.14Zm1.44.17a3.71,3.71,0,0,0,.6,2.25,1.91,1.91,0,0,0,1.64.81,2.13,2.13,0,0,0,2-1.23v-3.89a2.15,2.15,0,0,0-2-1.19,1.91,1.91,0,0,0-1.65.82A4.07,4.07,0,0,0,195.48,283.87Z" transform="translate(0 -5)"/><path class="cls-2" d="M208.63,288a3.1,3.1,0,0,1-.2-.89,3.21,3.21,0,0,1-2.41,1.05,3,3,0,0,1-2.05-.71,2.3,2.3,0,0,1-.8-1.79,2.38,2.38,0,0,1,1-2.05,4.69,4.69,0,0,1,2.82-.73h1.41v-.67A1.65,1.65,0,0,0,208,281a1.8,1.8,0,0,0-1.33-.45,2.06,2.06,0,0,0-1.3.4,1.13,1.13,0,0,0-.52.94h-1.46a2,2,0,0,1,.45-1.22,3.05,3.05,0,0,1,1.22-.94,4.08,4.08,0,0,1,1.69-.34,3.32,3.32,0,0,1,2.29.73,2.65,2.65,0,0,1,.86,2V286a4.75,4.75,0,0,0,.3,1.86V288Zm-2.4-1.1a2.55,2.55,0,0,0,1.29-.35,2.18,2.18,0,0,0,.89-.92V283.9h-1.14c-1.77,0-2.65.52-2.65,1.55a1.33,1.33,0,0,0,.45,1.07A1.76,1.76,0,0,0,206.23,286.9Z" transform="translate(0 -5)"/><path class="cls-2" d="M211.77,283.7a4.94,4.94,0,0,1,.92-3.13,3.13,3.13,0,0,1,4.76-.16V276h1.45v12h-1.33l-.07-.91a3.11,3.11,0,0,1-4.81-.14,5,5,0,0,1-.92-3.14Zm1.44.17a3.78,3.78,0,0,0,.59,2.25,1.94,1.94,0,0,0,1.64.81,2.11,2.11,0,0,0,2-1.23v-3.89a2.12,2.12,0,0,0-2-1.19,1.93,1.93,0,0,0-1.66.82A4.14,4.14,0,0,0,213.21,283.87Z" transform="translate(0 -5)"/></g></g><g class="cls-1"><g class="cls-1"><path class="cls-2" d="M382.9,284.39a4.21,4.21,0,0,1-1.34,2.79,4.37,4.37,0,0,1-3,1,4,4,0,0,1-3.23-1.45,5.8,5.8,0,0,1-1.21-3.87v-1.09a6.44,6.44,0,0,1,.57-2.79,4.21,4.21,0,0,1,1.6-1.85,4.47,4.47,0,0,1,2.41-.64,4.13,4.13,0,0,1,2.9,1,4.25,4.25,0,0,1,1.28,2.8h-1.51a3.2,3.2,0,0,0-.85-2,2.54,2.54,0,0,0-1.82-.61,2.69,2.69,0,0,0-2.26,1.06,4.92,4.92,0,0,0-.81,3v1.1a5,5,0,0,0,.77,2.94,2.51,2.51,0,0,0,2.16,1.1,2.86,2.86,0,0,0,1.92-.57,3.11,3.11,0,0,0,.89-2Z" transform="translate(0 -5)"/><path class="cls-2" d="M384.33,283.7a5.08,5.08,0,0,1,.49-2.24,3.6,3.6,0,0,1,3.35-2.07,3.55,3.55,0,0,1,2.79,1.2,4.58,4.58,0,0,1,1.07,3.18v.1a5.08,5.08,0,0,1-.47,2.21,3.6,3.6,0,0,1-1.35,1.53,3.8,3.8,0,0,1-2,.55,3.55,3.55,0,0,1-2.79-1.2,4.58,4.58,0,0,1-1.07-3.16Zm1.46.17a3.56,3.56,0,0,0,.65,2.25,2.2,2.2,0,0,0,3.5,0,4,4,0,0,0,.64-2.41,3.63,3.63,0,0,0-.66-2.26,2.2,2.2,0,0,0-3.48,0A4,4,0,0,0,385.79,283.87Z" transform="translate(0 -5)"/><path class="cls-2" d="M395.21,279.55l.05,1.06a3.08,3.08,0,0,1,2.53-1.22c1.78,0,2.68,1,2.7,3V288H399v-5.59a2,2,0,0,0-.41-1.36,1.69,1.69,0,0,0-1.28-.43,2.06,2.06,0,0,0-1.23.37,2.43,2.43,0,0,0-.83,1v6h-1.45v-8.45Z" transform="translate(0 -5)"/><path class="cls-2" d="M404.63,277.5v2.05h1.58v1.11h-1.58v5.25a1.2,1.2,0,0,0,.21.77.92.92,0,0,0,.72.25,3.61,3.61,0,0,0,.69-.09V288a4.38,4.38,0,0,1-1.11.16,1.8,1.8,0,0,1-1.46-.59,2.51,2.51,0,0,1-.49-1.66v-5.25h-1.54v-1.11h1.54V277.5Z" transform="translate(0 -5)"/><path class="cls-2" d="M407.9,277.3a.88.88,0,0,1,.22-.59.8.8,0,0,1,.64-.24.83.83,0,0,1,.64.24.88.88,0,0,1,.22.59.86.86,0,0,1-.22.59.82.82,0,0,1-.64.23.8.8,0,0,1-.64-.23A.86.86,0,0,1,407.9,277.3Zm1.57,10.7H408v-8.45h1.45Z" transform="translate(0 -5)"/><path class="cls-2" d="M413.15,279.55l0,1.06a3.09,3.09,0,0,1,2.53-1.22c1.79,0,2.69,1,2.71,3V288H417v-5.59a1.93,1.93,0,0,0-.42-1.36,1.65,1.65,0,0,0-1.27-.43,2.11,2.11,0,0,0-1.24.37,2.6,2.6,0,0,0-.83,1v6h-1.44v-8.45Z" transform="translate(0 -5)"/><path class="cls-2" d="M425.83,287.16a3.06,3.06,0,0,1-2.48,1,2.64,2.64,0,0,1-2.06-.79,3.37,3.37,0,0,1-.71-2.32v-5.5H422V285q0,1.92,1.56,1.92a2.17,2.17,0,0,0,2.21-1.23v-6.15h1.44V288h-1.37Z" transform="translate(0 -5)"/><path class="cls-2" d="M429.44,277.3a.87.87,0,0,1,.21-.59.82.82,0,0,1,.64-.24.83.83,0,0,1,.64.24.88.88,0,0,1,.22.59.86.86,0,0,1-.22.59.82.82,0,0,1-.64.23.81.81,0,0,1-.64-.23A.85.85,0,0,1,429.44,277.3ZM431,288h-1.45v-8.45H431Z" transform="translate(0 -5)"/><path class="cls-2" d="M433,283.7a5,5,0,0,1,.92-3.13,3.14,3.14,0,0,1,4.77-.16V276h1.44v12h-1.33l-.07-.91a3.11,3.11,0,0,1-4.81-.14,5,5,0,0,1-.92-3.14Zm1.44.17a3.71,3.71,0,0,0,.6,2.25,1.91,1.91,0,0,0,1.64.81,2.12,2.12,0,0,0,2-1.23v-3.89a2.15,2.15,0,0,0-2-1.19,1.91,1.91,0,0,0-1.65.82A4.07,4.07,0,0,0,434.4,283.87Z" transform="translate(0 -5)"/><path class="cls-2" d="M447.55,288a3.1,3.1,0,0,1-.2-.89,3.21,3.21,0,0,1-2.41,1.05,3,3,0,0,1-2.05-.71,2.3,2.3,0,0,1-.8-1.79,2.38,2.38,0,0,1,1-2.05,4.69,4.69,0,0,1,2.82-.73h1.41v-.67a1.65,1.65,0,0,0-.46-1.21,1.8,1.8,0,0,0-1.33-.45,2.06,2.06,0,0,0-1.3.4,1.13,1.13,0,0,0-.52.94h-1.46a2,2,0,0,1,.45-1.22,3.05,3.05,0,0,1,1.22-.94,4.08,4.08,0,0,1,1.69-.34,3.32,3.32,0,0,1,2.29.73,2.65,2.65,0,0,1,.86,2V286a4.75,4.75,0,0,0,.3,1.86V288Zm-2.4-1.1a2.55,2.55,0,0,0,1.29-.35,2.18,2.18,0,0,0,.89-.92V283.9h-1.14c-1.77,0-2.65.52-2.65,1.55a1.33,1.33,0,0,0,.45,1.07A1.76,1.76,0,0,0,445.15,286.9Z" transform="translate(0 -5)"/><path class="cls-2" d="M450.69,283.7a4.94,4.94,0,0,1,.92-3.13,3.13,3.13,0,0,1,4.76-.16V276h1.45v12h-1.33l-.07-.91a3.11,3.11,0,0,1-4.81-.14,5,5,0,0,1-.92-3.14Zm1.44.17a3.78,3.78,0,0,0,.59,2.25,1.94,1.94,0,0,0,1.65.81,2.1,2.1,0,0,0,2-1.23v-3.89a2.12,2.12,0,0,0-2-1.19,1.93,1.93,0,0,0-1.66.82A4.14,4.14,0,0,0,452.13,283.87Z" transform="translate(0 -5)"/></g></g><g class="cls-1"><g class="cls-1"><path class="cls-2" d="M608.9,284.39a4.21,4.21,0,0,1-1.34,2.79,4.37,4.37,0,0,1-3,1,4,4,0,0,1-3.23-1.45,5.8,5.8,0,0,1-1.21-3.87v-1.09a6.44,6.44,0,0,1,.57-2.79,4.21,4.21,0,0,1,1.6-1.85,4.45,4.45,0,0,1,2.41-.64,4.13,4.13,0,0,1,2.9,1,4.25,4.25,0,0,1,1.28,2.8h-1.51a3.2,3.2,0,0,0-.85-2,2.54,2.54,0,0,0-1.82-.61,2.69,2.69,0,0,0-2.26,1.06,4.92,4.92,0,0,0-.81,3v1.1a5,5,0,0,0,.77,2.94,2.51,2.51,0,0,0,2.16,1.1,2.86,2.86,0,0,0,1.92-.57,3.11,3.11,0,0,0,.89-2Z" transform="translate(0 -5)"/><path class="cls-2" d="M610.72,277.3a.88.88,0,0,1,.22-.59.8.8,0,0,1,.64-.24.83.83,0,0,1,.64.24.88.88,0,0,1,.22.59.86.86,0,0,1-.22.59.82.82,0,0,1-.64.23.8.8,0,0,1-.64-.23A.86.86,0,0,1,610.72,277.3Zm1.57,10.7h-1.45v-8.45h1.45Z" transform="translate(0 -5)"/><path class="cls-2" d="M618.11,288.16a3.71,3.71,0,0,1-2.8-1.13,4.2,4.2,0,0,1-1.08-3v-.27a5,5,0,0,1,.48-2.24,3.71,3.71,0,0,1,1.35-1.55,3.39,3.39,0,0,1,1.87-.56,3.14,3.14,0,0,1,2.56,1.09,4.69,4.69,0,0,1,.91,3.11v.6h-5.72a3,3,0,0,0,.73,2,2.3,2.3,0,0,0,1.78.77,2.47,2.47,0,0,0,1.29-.32,3,3,0,0,0,.93-.82l.88.68A3.54,3.54,0,0,1,618.11,288.16Zm-.18-7.58a1.92,1.92,0,0,0-1.47.63,3.13,3.13,0,0,0-.74,1.79H620v-.11a2.8,2.8,0,0,0-.59-1.71A1.84,1.84,0,0,0,617.93,280.58Z" transform="translate(0 -5)"/><path class="cls-2" d="M627.16,280.84a5.16,5.16,0,0,0-.71,0,1.9,1.9,0,0,0-1.93,1.21v6h-1.44v-8.45h1.4l0,1a2.24,2.24,0,0,1,2-1.13,1.5,1.5,0,0,1,.64.11Z" transform="translate(0 -5)"/><path class="cls-2" d="M632.58,280.84a5.27,5.27,0,0,0-.71,0,1.89,1.89,0,0,0-1.93,1.21v6h-1.45v-8.45h1.41l0,1a2.26,2.26,0,0,1,2-1.13,1.53,1.53,0,0,1,.64.11Z" transform="translate(0 -5)"/><path class="cls-2" d="M637.41,288.16a3.68,3.68,0,0,1-2.79-1.13,4.2,4.2,0,0,1-1.08-3v-.27a5,5,0,0,1,.48-2.24,3.76,3.76,0,0,1,1.34-1.55,3.41,3.41,0,0,1,1.87-.56,3.13,3.13,0,0,1,2.56,1.09,4.69,4.69,0,0,1,.92,3.11v.6H635a3.05,3.05,0,0,0,.73,2,2.32,2.32,0,0,0,1.78.77,2.53,2.53,0,0,0,1.3-.32,3.27,3.27,0,0,0,.93-.82l.88.68A3.55,3.55,0,0,1,637.41,288.16Zm-.18-7.58a2,2,0,0,0-1.47.63A3.13,3.13,0,0,0,635,283h4.23v-.11a2.8,2.8,0,0,0-.59-1.71A1.81,1.81,0,0,0,637.23,280.58Z" transform="translate(0 -5)"/></g></g><g class="cls-1"><g class="cls-1"><path class="cls-2" d="M844.88,282.93a7,7,0,0,1-2.8-1.36,2.6,2.6,0,0,1-.88-2,2.72,2.72,0,0,1,1.07-2.22,4.26,4.26,0,0,1,2.79-.88,4.69,4.69,0,0,1,2.09.45,3.43,3.43,0,0,1,1.43,1.25,3.23,3.23,0,0,1,.5,1.74h-1.51a2.08,2.08,0,0,0-.65-1.62,2.66,2.66,0,0,0-1.86-.59,2.78,2.78,0,0,0-1.73.48,1.65,1.65,0,0,0-.62,1.36,1.47,1.47,0,0,0,.59,1.18,5.91,5.91,0,0,0,2,.88,9.72,9.72,0,0,1,2.22.88,3.4,3.4,0,0,1,1.19,1.12,2.94,2.94,0,0,1,.38,1.51,2.64,2.64,0,0,1-1.08,2.21,4.55,4.55,0,0,1-2.88.84,5.36,5.36,0,0,1-2.19-.45,3.67,3.67,0,0,1-1.56-1.23,3,3,0,0,1-.55-1.78h1.5a2,2,0,0,0,.77,1.63,3.17,3.17,0,0,0,2,.6,3,3,0,0,0,1.82-.48,1.6,1.6,0,0,0,.63-1.33,1.55,1.55,0,0,0-.58-1.29A6.94,6.94,0,0,0,844.88,282.93Z" transform="translate(0 -5)"/><path class="cls-2" d="M850.81,277.3a.87.87,0,0,1,.21-.59.82.82,0,0,1,.64-.24.83.83,0,0,1,.64.24.88.88,0,0,1,.22.59.86.86,0,0,1-.22.59.82.82,0,0,1-.64.23.81.81,0,0,1-.64-.23A.85.85,0,0,1,850.81,277.3Zm1.56,10.7h-1.45v-8.45h1.45Z" transform="translate(0 -5)"/><path class="cls-2" d="M856,279.55l0,.93a3.12,3.12,0,0,1,2.51-1.09,2.41,2.41,0,0,1,2.41,1.36,3.15,3.15,0,0,1,1.1-1,3.24,3.24,0,0,1,1.6-.38c1.85,0,2.79,1,2.82,2.95V288h-1.44v-5.58a2,2,0,0,0-.41-1.35,1.84,1.84,0,0,0-1.4-.45,1.91,1.91,0,0,0-1.33.48,1.93,1.93,0,0,0-.62,1.29V288h-1.45v-5.54a1.61,1.61,0,0,0-1.81-1.84,1.93,1.93,0,0,0-1.94,1.21V288h-1.45v-8.45Z" transform="translate(0 -5)"/><path class="cls-2" d="M872.21,288.16a3.68,3.68,0,0,1-2.79-1.13,4.2,4.2,0,0,1-1.08-3v-.27a5,5,0,0,1,.48-2.24,3.76,3.76,0,0,1,1.34-1.55,3.41,3.41,0,0,1,1.87-.56,3.13,3.13,0,0,1,2.56,1.09,4.69,4.69,0,0,1,.92,3.11v.6h-5.73a3.05,3.05,0,0,0,.73,2,2.32,2.32,0,0,0,1.78.77,2.53,2.53,0,0,0,1.3-.32,3.27,3.27,0,0,0,.93-.82l.88.68A3.55,3.55,0,0,1,872.21,288.16Zm-.18-7.58a2,2,0,0,0-1.47.63,3.13,3.13,0,0,0-.73,1.79h4.23v-.11a2.8,2.8,0,0,0-.59-1.71A1.81,1.81,0,0,0,872,280.58Z" transform="translate(0 -5)"/><path class="cls-2" d="M879.14,277.5v2.05h1.58v1.11h-1.58v5.25a1.2,1.2,0,0,0,.21.77.92.92,0,0,0,.72.25,3.61,3.61,0,0,0,.69-.09V288a4.38,4.38,0,0,1-1.11.16,1.8,1.8,0,0,1-1.46-.59,2.51,2.51,0,0,1-.49-1.66v-5.25h-1.54v-1.11h1.54V277.5Z" transform="translate(0 -5)"/><path class="cls-2" d="M886.49,280.84a5.16,5.16,0,0,0-.71,0,1.9,1.9,0,0,0-1.93,1.21v6h-1.44v-8.45h1.4l0,1a2.24,2.24,0,0,1,2-1.13,1.5,1.5,0,0,1,.64.11Z" transform="translate(0 -5)"/><path class="cls-2" d="M889.41,276h1.75l-2.1,2.29H887.9Zm0,12h-1.45v-8.45h1.45Z" transform="translate(0 -5)"/><path class="cls-2" d="M897,288a3.1,3.1,0,0,1-.2-.89,3.21,3.21,0,0,1-2.41,1.05,3,3,0,0,1-2-.71,2.3,2.3,0,0,1-.8-1.79,2.38,2.38,0,0,1,1-2.05,4.71,4.71,0,0,1,2.82-.73h1.41v-.67a1.61,1.61,0,0,0-.46-1.21,1.8,1.8,0,0,0-1.33-.45,2.06,2.06,0,0,0-1.3.4,1.13,1.13,0,0,0-.52.94H891.7a2,2,0,0,1,.45-1.22,3.05,3.05,0,0,1,1.22-.94,4.08,4.08,0,0,1,1.69-.34,3.32,3.32,0,0,1,2.29.73,2.65,2.65,0,0,1,.86,2V286a4.75,4.75,0,0,0,.3,1.86V288Zm-2.4-1.1a2.55,2.55,0,0,0,1.29-.35,2.18,2.18,0,0,0,.89-.92V283.9h-1.14c-1.77,0-2.65.52-2.65,1.55a1.33,1.33,0,0,0,.45,1.07A1.76,1.76,0,0,0,894.59,286.9Z" transform="translate(0 -5)"/></g></g><g class="cls-1"><g class="cls-1"><path class="cls-2" d="M247.73,17V5.62h3.21a5.13,5.13,0,0,1,2.62.66,4.5,4.5,0,0,1,1.77,1.87,6.05,6.05,0,0,1,.62,2.78v.73a6,6,0,0,1-.62,2.82,4.41,4.41,0,0,1-1.77,1.86,5.51,5.51,0,0,1-2.68.66Zm1.5-10.15v8.92h1.58a3.42,3.42,0,0,0,2.69-1.08,4.42,4.42,0,0,0,1-3.07V11a4.52,4.52,0,0,0-.91-3A3.27,3.27,0,0,0,251,6.85Z" transform="translate(0 -5)"/><path class="cls-2" d="M258,6.3a.83.83,0,0,1,.22-.59.79.79,0,0,1,.63-.24.82.82,0,0,1,.64.24.83.83,0,0,1,.22.59.78.78,0,0,1-.86.82.79.79,0,0,1-.63-.23A.82.82,0,0,1,258,6.3ZM259.56,17h-1.44V8.55h1.44Z" transform="translate(0 -5)"/><path class="cls-2" d="M266,9.84a5.16,5.16,0,0,0-.71-.05A1.9,1.9,0,0,0,263.32,11v6h-1.44V8.55h1.4l0,1a2.24,2.24,0,0,1,2-1.13,1.5,1.5,0,0,1,.64.11Z" transform="translate(0 -5)"/><path class="cls-2" d="M270.8,17.16A3.71,3.71,0,0,1,268,16a4.2,4.2,0,0,1-1.08-3v-.27a5,5,0,0,1,.48-2.24A3.71,3.71,0,0,1,268.75,9a3.39,3.39,0,0,1,1.87-.56,3.14,3.14,0,0,1,2.56,1.09,4.69,4.69,0,0,1,.91,3.11v.6h-5.72a3,3,0,0,0,.73,2,2.3,2.3,0,0,0,1.78.77,2.47,2.47,0,0,0,1.29-.32,3,3,0,0,0,.93-.82l.89.68A3.57,3.57,0,0,1,270.8,17.16Zm-.18-7.58a1.92,1.92,0,0,0-1.47.63,3.06,3.06,0,0,0-.73,1.79h4.23v-.11a2.8,2.8,0,0,0-.59-1.71A1.84,1.84,0,0,0,270.62,9.58Z" transform="translate(0 -5)"/><path class="cls-2" d="M279.16,16a2.11,2.11,0,0,0,1.35-.47,1.67,1.67,0,0,0,.64-1.17h1.37a2.73,2.73,0,0,1-.5,1.38,3.41,3.41,0,0,1-1.23,1,3.59,3.59,0,0,1-1.63.39A3.49,3.49,0,0,1,276.41,16a4.57,4.57,0,0,1-1-3.15v-.24a5.15,5.15,0,0,1,.45-2.2,3.52,3.52,0,0,1,1.31-1.49,3.71,3.71,0,0,1,2-.53,3.37,3.37,0,0,1,2.36.85,3.08,3.08,0,0,1,1,2.21h-1.37a2,2,0,0,0-.62-1.34,1.89,1.89,0,0,0-1.38-.53,2,2,0,0,0-1.71.79,3.74,3.74,0,0,0-.6,2.29v.28a3.67,3.67,0,0,0,.6,2.25A2,2,0,0,0,279.16,16Z" transform="translate(0 -5)"/><path class="cls-2" d="M287.53,16a2.07,2.07,0,0,0,1.35-.47,1.63,1.63,0,0,0,.64-1.17h1.37a2.56,2.56,0,0,1-.5,1.38,3.41,3.41,0,0,1-1.23,1,3.56,3.56,0,0,1-1.63.39A3.47,3.47,0,0,1,284.79,16a4.57,4.57,0,0,1-1-3.15v-.24a5.15,5.15,0,0,1,.45-2.2,3.5,3.5,0,0,1,1.3-1.49,3.71,3.71,0,0,1,2-.53,3.4,3.4,0,0,1,2.37.85,3.08,3.08,0,0,1,1,2.21h-1.37a1.94,1.94,0,0,0-.62-1.34,1.89,1.89,0,0,0-1.38-.53,2,2,0,0,0-1.7.79,3.68,3.68,0,0,0-.61,2.29v.28a3.67,3.67,0,0,0,.6,2.25A2.06,2.06,0,0,0,287.53,16Z" transform="translate(0 -5)"/><path class="cls-2" d="M292.52,6.3a.88.88,0,0,1,.22-.59.8.8,0,0,1,.64-.24.83.83,0,0,1,.64.24.88.88,0,0,1,.22.59.86.86,0,0,1-.22.59.82.82,0,0,1-.64.23.8.8,0,0,1-.64-.23A.86.86,0,0,1,292.52,6.3ZM294.09,17h-1.45V8.55h1.45Z" transform="translate(0 -5)"/><path class="cls-2" d="M296,12.7a5.08,5.08,0,0,1,.48-2.24,3.6,3.6,0,0,1,3.35-2.07,3.59,3.59,0,0,1,2.8,1.2,4.58,4.58,0,0,1,1.06,3.18v.1a5.08,5.08,0,0,1-.47,2.21,3.6,3.6,0,0,1-1.35,1.53,3.8,3.8,0,0,1-2,.55,3.55,3.55,0,0,1-2.79-1.2A4.58,4.58,0,0,1,296,12.8Zm1.45.17a3.62,3.62,0,0,0,.65,2.25,2.1,2.1,0,0,0,1.75.86,2.07,2.07,0,0,0,1.75-.87,4,4,0,0,0,.65-2.41,3.63,3.63,0,0,0-.66-2.26,2.12,2.12,0,0,0-1.76-.86,2.05,2.05,0,0,0-1.72.85A3.92,3.92,0,0,0,297.47,12.87Zm3-7.87h1.75l-2.09,2.3H299Z" transform="translate(0 -5)"/><path class="cls-2" d="M306.89,8.55l.05,1.06a3.08,3.08,0,0,1,2.53-1.22c1.79,0,2.69,1,2.7,3V17h-1.44V11.41a2,2,0,0,0-.42-1.36A1.68,1.68,0,0,0,309,9.62a2.06,2.06,0,0,0-1.23.37,2.51,2.51,0,0,0-.83,1v6h-1.45V8.55Z" transform="translate(0 -5)"/><path class="cls-2" d="M321.7,16a2.12,2.12,0,0,0,1.36-.47,1.71,1.71,0,0,0,.64-1.17h1.36a2.56,2.56,0,0,1-.5,1.38,3.25,3.25,0,0,1-1.23,1,3.53,3.53,0,0,1-1.63.39A3.47,3.47,0,0,1,319,16a4.57,4.57,0,0,1-1-3.15v-.24a5.15,5.15,0,0,1,.45-2.2,3.5,3.5,0,0,1,1.3-1.49,3.74,3.74,0,0,1,2-.53,3.39,3.39,0,0,1,2.36.85,3,3,0,0,1,1,2.21H323.7a2,2,0,0,0-.62-1.34,1.93,1.93,0,0,0-1.38-.53,2,2,0,0,0-1.71.79,3.68,3.68,0,0,0-.61,2.29v.28a3.61,3.61,0,0,0,.61,2.25A2,2,0,0,0,321.7,16Z" transform="translate(0 -5)"/><path class="cls-2" d="M326.31,12.7a5.08,5.08,0,0,1,.48-2.24,3.6,3.6,0,0,1,3.35-2.07,3.55,3.55,0,0,1,2.79,1.2A4.53,4.53,0,0,1,334,12.77v.1a5.08,5.08,0,0,1-.47,2.21,3.6,3.6,0,0,1-1.35,1.53,3.8,3.8,0,0,1-2,.55,3.55,3.55,0,0,1-2.79-1.2,4.58,4.58,0,0,1-1.06-3.16Zm1.45.17a3.62,3.62,0,0,0,.65,2.25,2.2,2.2,0,0,0,3.5,0,4,4,0,0,0,.65-2.41,3.7,3.7,0,0,0-.66-2.26,2.12,2.12,0,0,0-1.76-.86,2.05,2.05,0,0,0-1.72.85A3.92,3.92,0,0,0,327.76,12.87Z" transform="translate(0 -5)"/><path class="cls-2" d="M337.17,8.55l0,.93a3.12,3.12,0,0,1,2.51-1.09,2.4,2.4,0,0,1,2.41,1.36,3.18,3.18,0,0,1,2.7-1.36c1.85,0,2.8,1,2.83,2.95V17h-1.45V11.42a2,2,0,0,0-.41-1.35,1.83,1.83,0,0,0-1.39-.45,1.91,1.91,0,0,0-1.34.48,2,2,0,0,0-.62,1.29V17H341V11.46a1.61,1.61,0,0,0-1.8-1.84,1.93,1.93,0,0,0-1.95,1.21V17h-1.44V8.55Z" transform="translate(0 -5)"/><path class="cls-2" d="M355.06,16.16a3.06,3.06,0,0,1-2.48,1,2.64,2.64,0,0,1-2.06-.79,3.37,3.37,0,0,1-.71-2.32V8.55h1.44V14q0,1.92,1.56,1.92A2.17,2.17,0,0,0,355,14.7V8.55h1.44V17h-1.37ZM353.88,5h1.75l-2.09,2.3h-1.16Z" transform="translate(0 -5)"/><path class="cls-2" d="M360,8.55l.05,1.06a3.09,3.09,0,0,1,2.53-1.22c1.79,0,2.69,1,2.71,3V17h-1.45V11.41a2,2,0,0,0-.42-1.36,1.67,1.67,0,0,0-1.27-.43,2.09,2.09,0,0,0-1.24.37,2.6,2.6,0,0,0-.83,1v6h-1.44V8.55Z" transform="translate(0 -5)"/></g></g><g class="cls-1"><g class="cls-1"><path class="cls-2" d="M485.37,11.93a7.06,7.06,0,0,1-2.81-1.36,2.64,2.64,0,0,1-.88-2,2.73,2.73,0,0,1,1.08-2.22,4.24,4.24,0,0,1,2.79-.88,4.69,4.69,0,0,1,2.09.45,3.4,3.4,0,0,1,1.42,1.25,3.16,3.16,0,0,1,.51,1.74h-1.51a2.05,2.05,0,0,0-.66-1.62,2.62,2.62,0,0,0-1.85-.59,2.78,2.78,0,0,0-1.73.48,1.65,1.65,0,0,0-.62,1.36,1.47,1.47,0,0,0,.59,1.18,5.82,5.82,0,0,0,2,.88,9.72,9.72,0,0,1,2.22.88,3.28,3.28,0,0,1,1.18,1.12,2.85,2.85,0,0,1,.39,1.51,2.64,2.64,0,0,1-1.08,2.21,4.57,4.57,0,0,1-2.88.84,5.36,5.36,0,0,1-2.19-.45,3.61,3.61,0,0,1-1.56-1.23,3,3,0,0,1-.55-1.78h1.5a2,2,0,0,0,.76,1.63,3.22,3.22,0,0,0,2,.6,3,3,0,0,0,1.82-.48,1.6,1.6,0,0,0,.63-1.33,1.55,1.55,0,0,0-.58-1.29A6.94,6.94,0,0,0,485.37,11.93Z" transform="translate(0 -5)"/><path class="cls-2" d="M494.79,17.16A3.7,3.7,0,0,1,492,16a4.2,4.2,0,0,1-1.08-3v-.27a5,5,0,0,1,.48-2.24A3.76,3.76,0,0,1,492.74,9a3.41,3.41,0,0,1,1.87-.56,3.17,3.17,0,0,1,2.57,1.09,4.69,4.69,0,0,1,.91,3.11v.6h-5.73a3.05,3.05,0,0,0,.73,2,2.32,2.32,0,0,0,1.78.77,2.53,2.53,0,0,0,1.3-.32,3.27,3.27,0,0,0,.93-.82l.88.68A3.55,3.55,0,0,1,494.79,17.16Zm-.18-7.58a1.92,1.92,0,0,0-1.46.63,3.07,3.07,0,0,0-.74,1.79h4.24v-.11a2.8,2.8,0,0,0-.6-1.71A1.81,1.81,0,0,0,494.61,9.58Z" transform="translate(0 -5)"/><path class="cls-2" d="M501.12,8.55l0,.93a3.12,3.12,0,0,1,2.51-1.09,2.4,2.4,0,0,1,2.41,1.36,3.15,3.15,0,0,1,1.1-1,3.24,3.24,0,0,1,1.6-.38c1.85,0,2.8,1,2.83,2.95V17h-1.45V11.42a2,2,0,0,0-.41-1.35,1.83,1.83,0,0,0-1.39-.45,1.91,1.91,0,0,0-1.34.48,2,2,0,0,0-.62,1.29V17H505V11.46a1.61,1.61,0,0,0-1.8-1.84,1.93,1.93,0,0,0-1.95,1.21V17h-1.45V8.55Z" transform="translate(0 -5)"/><path class="cls-2" d="M517.29,17.16A3.7,3.7,0,0,1,514.5,16a4.2,4.2,0,0,1-1.08-3v-.27a5,5,0,0,1,.48-2.24A3.76,3.76,0,0,1,515.24,9a3.41,3.41,0,0,1,1.87-.56,3.17,3.17,0,0,1,2.57,1.09,4.69,4.69,0,0,1,.91,3.11v.6h-5.73a3.05,3.05,0,0,0,.73,2,2.32,2.32,0,0,0,1.78.77,2.53,2.53,0,0,0,1.3-.32,3.27,3.27,0,0,0,.93-.82l.88.68A3.55,3.55,0,0,1,517.29,17.16Zm-.18-7.58a1.92,1.92,0,0,0-1.46.63,3.07,3.07,0,0,0-.74,1.79h4.24v-.11a2.8,2.8,0,0,0-.6-1.71A1.81,1.81,0,0,0,517.11,9.58Z" transform="translate(0 -5)"/><path class="cls-2" d="M523.75,8.55V18c0,1.62-.73,2.43-2.21,2.43a2.54,2.54,0,0,1-.88-.14V19.12a2.42,2.42,0,0,0,.66.07,1,1,0,0,0,.74-.26,1.37,1.37,0,0,0,.25-.92V8.55ZM522.16,6.3a.87.87,0,0,1,.22-.59.78.78,0,0,1,.62-.24.84.84,0,0,1,.65.24.87.87,0,0,1,.21.59.85.85,0,0,1-.21.59.83.83,0,0,1-.65.23.79.79,0,0,1-.63-.23A.85.85,0,0,1,522.16,6.3Z" transform="translate(0 -5)"/><path class="cls-2" d="M531.3,17a3.1,3.1,0,0,1-.2-.89,3.23,3.23,0,0,1-2.41,1.05,3,3,0,0,1-2.05-.71,2.3,2.3,0,0,1-.8-1.79,2.38,2.38,0,0,1,1-2.05,4.74,4.74,0,0,1,2.83-.73h1.41v-.67a1.65,1.65,0,0,0-.46-1.21,1.81,1.81,0,0,0-1.33-.45,2.06,2.06,0,0,0-1.3.4,1.13,1.13,0,0,0-.52.94H526a2,2,0,0,1,.45-1.22,3.05,3.05,0,0,1,1.22-.94,4.08,4.08,0,0,1,1.69-.34,3.32,3.32,0,0,1,2.29.73,2.65,2.65,0,0,1,.86,2V15a4.75,4.75,0,0,0,.3,1.86V17Zm-2.4-1.1a2.55,2.55,0,0,0,1.29-.35,2.18,2.18,0,0,0,.89-.92V12.9h-1.14c-1.77,0-2.65.52-2.65,1.55a1.33,1.33,0,0,0,.45,1.07A1.76,1.76,0,0,0,528.9,15.9Z" transform="translate(0 -5)"/><path class="cls-2" d="M536.15,8.55l.05,1.06a3.09,3.09,0,0,1,2.53-1.22c1.79,0,2.69,1,2.7,3V17H540V11.41a2,2,0,0,0-.42-1.36,1.68,1.68,0,0,0-1.28-.43,2.08,2.08,0,0,0-1.23.37,2.6,2.6,0,0,0-.83,1v6h-1.44V8.55Z" transform="translate(0 -5)"/><path class="cls-2" d="M545,15.82h4.95V17h-6.71V15.94l4.66-6.2h-4.59V8.55h6.4v1Z" transform="translate(0 -5)"/><path class="cls-2" d="M556.76,17a3.1,3.1,0,0,1-.2-.89,3.23,3.23,0,0,1-2.41,1.05,3,3,0,0,1-2-.71,2.3,2.3,0,0,1-.8-1.79,2.38,2.38,0,0,1,1-2.05,4.69,4.69,0,0,1,2.82-.73h1.41v-.67a1.65,1.65,0,0,0-.46-1.21,1.81,1.81,0,0,0-1.33-.45,2.06,2.06,0,0,0-1.3.4,1.13,1.13,0,0,0-.52.94h-1.46a2,2,0,0,1,.45-1.22,3.05,3.05,0,0,1,1.22-.94,4.08,4.08,0,0,1,1.69-.34,3.32,3.32,0,0,1,2.29.73,2.65,2.65,0,0,1,.86,2V15a4.75,4.75,0,0,0,.3,1.86V17Zm-2.4-1.1a2.55,2.55,0,0,0,1.29-.35,2.18,2.18,0,0,0,.89-.92V12.9H555.4c-1.77,0-2.65.52-2.65,1.55a1.33,1.33,0,0,0,.45,1.07A1.76,1.76,0,0,0,554.36,15.9Z" transform="translate(0 -5)"/></g></g><g class="cls-1"><g class="cls-1"><path class="cls-2" d="M733.3,12h-4.77v5H727V5.62h7V6.85h-5.54v3.9h4.77Z" transform="translate(0 -5)"/><path class="cls-2" d="M735.65,6.3a.83.83,0,0,1,.22-.59.79.79,0,0,1,.63-.24.82.82,0,0,1,.64.24.83.83,0,0,1,.22.59.78.78,0,0,1-.86.82.79.79,0,0,1-.63-.23A.82.82,0,0,1,735.65,6.3ZM737.21,17h-1.44V8.55h1.44Z" transform="translate(0 -5)"/><path class="cls-2" d="M739.18,12.7a5,5,0,0,1,.92-3.14,3.15,3.15,0,0,1,4.83-.08l.07-.93h1.32V16.8a3.42,3.42,0,0,1-1,2.58,3.59,3.59,0,0,1-2.61.95,4.34,4.34,0,0,1-1.79-.39,3.09,3.09,0,0,1-1.34-1.07l.75-.87a2.82,2.82,0,0,0,2.27,1.15,2.2,2.2,0,0,0,1.65-.6,2.27,2.27,0,0,0,.59-1.67v-.72a3,3,0,0,1-2.37,1,2.88,2.88,0,0,1-2.4-1.2A5.24,5.24,0,0,1,739.18,12.7Zm1.45.17a3.77,3.77,0,0,0,.59,2.24,1.9,1.9,0,0,0,1.64.82,2.12,2.12,0,0,0,2-1.24V10.83a2.14,2.14,0,0,0-2-1.21,1.9,1.9,0,0,0-1.65.82A4.07,4.07,0,0,0,740.63,12.87Z" transform="translate(0 -5)"/><path class="cls-2" d="M753.72,16.16a3,3,0,0,1-2.48,1,2.62,2.62,0,0,1-2-.79,3.37,3.37,0,0,1-.72-2.32V8.55h1.45V14q0,1.92,1.56,1.92a2.16,2.16,0,0,0,2.2-1.23V8.55h1.45V17h-1.38Z" transform="translate(0 -5)"/><path class="cls-2" d="M761.41,9.84a5.27,5.27,0,0,0-.71-.05A1.9,1.9,0,0,0,758.77,11v6h-1.45V8.55h1.41l0,1a2.27,2.27,0,0,1,2-1.13,1.53,1.53,0,0,1,.64.11Z" transform="translate(0 -5)"/><path class="cls-2" d="M762.2,12.7a5,5,0,0,1,.49-2.24A3.6,3.6,0,0,1,764,8.93a3.71,3.71,0,0,1,2-.54,3.57,3.57,0,0,1,2.8,1.2,4.58,4.58,0,0,1,1.06,3.18v.1a5.08,5.08,0,0,1-.47,2.21,3.6,3.6,0,0,1-1.35,1.53,3.8,3.8,0,0,1-2,.55,3.55,3.55,0,0,1-2.79-1.2,4.58,4.58,0,0,1-1.06-3.16Zm1.45.17a3.62,3.62,0,0,0,.65,2.25,2.1,2.1,0,0,0,1.75.86,2.07,2.07,0,0,0,1.75-.87,4,4,0,0,0,.65-2.41,3.63,3.63,0,0,0-.66-2.26A2.12,2.12,0,0,0,766,9.58a2.05,2.05,0,0,0-1.72.85A3.92,3.92,0,0,0,763.65,12.87Z" transform="translate(0 -5)"/><path class="cls-2" d="M774.71,12.76H770.9V11.58h3.81Z" transform="translate(0 -5)"/><path class="cls-2" d="M782.62,12h-4.77v5h-1.5V5.62h7V6.85h-5.54v3.9h4.77Z" transform="translate(0 -5)"/><path class="cls-2" d="M784.42,12.7a5.08,5.08,0,0,1,.48-2.24,3.6,3.6,0,0,1,3.35-2.07A3.55,3.55,0,0,1,791,9.59a4.53,4.53,0,0,1,1.07,3.18v.1a5.08,5.08,0,0,1-.47,2.21,3.6,3.6,0,0,1-1.35,1.53,3.8,3.8,0,0,1-2,.55,3.55,3.55,0,0,1-2.79-1.2,4.58,4.58,0,0,1-1.06-3.16Zm1.45.17a3.62,3.62,0,0,0,.65,2.25,2.2,2.2,0,0,0,3.5,0,4,4,0,0,0,.65-2.41,3.63,3.63,0,0,0-.66-2.26,2.12,2.12,0,0,0-1.76-.86,2.05,2.05,0,0,0-1.72.85A3.92,3.92,0,0,0,785.87,12.87Z" transform="translate(0 -5)"/><path class="cls-2" d="M795.29,8.55l.05,1.06a3.08,3.08,0,0,1,2.53-1.22c1.79,0,2.69,1,2.7,3V17h-1.44V11.41a2,2,0,0,0-.42-1.36,1.68,1.68,0,0,0-1.28-.43,2.06,2.06,0,0,0-1.23.37,2.51,2.51,0,0,0-.83,1v6h-1.45V8.55Z" transform="translate(0 -5)"/><path class="cls-2" d="M802.4,12.7a5,5,0,0,1,.92-3.13,3.14,3.14,0,0,1,4.77-.16V5h1.44V17h-1.32l-.08-.91a2.93,2.93,0,0,1-2.41,1.07A2.88,2.88,0,0,1,803.33,16a5,5,0,0,1-.93-3.14Zm1.45.17a3.71,3.71,0,0,0,.59,2.25,1.91,1.91,0,0,0,1.64.81,2.11,2.11,0,0,0,2-1.23V10.81a2.13,2.13,0,0,0-2-1.19,1.92,1.92,0,0,0-1.66.82A4.07,4.07,0,0,0,803.85,12.87Z" transform="translate(0 -5)"/><path class="cls-2" d="M811.39,12.7a5,5,0,0,1,.49-2.24,3.6,3.6,0,0,1,3.35-2.07A3.55,3.55,0,0,1,818,9.59a4.58,4.58,0,0,1,1.07,3.18v.1a5.08,5.08,0,0,1-.47,2.21,3.56,3.56,0,0,1-1.36,1.53,3.77,3.77,0,0,1-2,.55,3.55,3.55,0,0,1-2.78-1.2,4.58,4.58,0,0,1-1.07-3.16Zm1.46.17a3.56,3.56,0,0,0,.65,2.25,2.19,2.19,0,0,0,3.49,0,3.88,3.88,0,0,0,.65-2.41,3.63,3.63,0,0,0-.66-2.26,2.1,2.1,0,0,0-1.75-.86,2.07,2.07,0,0,0-1.73.85A3.92,3.92,0,0,0,812.85,12.87Z" transform="translate(0 -5)"/></g></g><path class="cls-3" d="M271.44,76.87c-3,1.9-5.87,3.3-8.28,5.26-13.64,11.05-14.69,30.28-2.52,43.34,8.7,9.34,19.93,15.35,30.08,22.76,6.49,4.74,12.6,9.8,17,16.69,10.36,16.34,4.95,34.29-12.77,41.87-19.54,8.36-53.67,1.52-57.91-31.15-.78-6,2.76-8.66,8.46-6.43,2.09.82,1.56,2.54,1.72,4,2.28,21.48,23.06,33.63,43.16,25.21,10.94-4.58,14.85-14.19,10.23-25.3-2.68-6.44-7.54-11.09-12.91-15.27-10.5-8.17-22.36-14.49-32.08-23.73-8.19-7.78-13.28-16.93-13.8-28.4C241.11,90.86,255.83,76.19,271.44,76.87Z" transform="translate(0 -5)"/><path class="cls-4" d="M311.39,206.18c8.86-5.23,14-11.68,15.92-20.41,2.33-10.84-.64-20.35-7.78-28.66-6.33-7.35-14.1-12.94-22.32-18-7-4.27-13.88-8.63-19.7-14.48s-9.34-12.48-9.71-20.7c-.53-11.7,5.54-21.06,16.4-25.48a35.82,35.82,0,0,1,49.22,27.67c.3,1.94,1.82,5.26-2.27,5-2.89-.22-7.14,2.51-8-3.73-2-14.64-13.49-23.47-28.12-22.29-14,1.12-21.27,14.17-14.84,26.72,2.93,5.71,7.68,9.72,12.81,13.29,8.16,5.68,16.54,11.05,24.57,16.91,7.1,5.18,13,11.56,16.55,19.79,7.11,16.37,2.31,32.81-12.29,41.85A15.81,15.81,0,0,1,311.39,206.18Z" transform="translate(0 -5)"/><path class="cls-3" d="M174.35,84.75c-15.28,0-30.56.06-45.84,0-2.1,0-5.54,1.46-5.43-2.86.1-3.82,3.18-2.63,5.21-2.63q46.36-.1,92.73,0c2,0,5-1.17,5.16,2.68s-2.91,2.81-4.93,2.82C205.61,84.79,190,84.76,174.35,84.75Z" transform="translate(0 -5)"/><path class="cls-5" d="M354.25,125.5c.07-7.28,6.17-13.42,13.16-13.27a13.33,13.33,0,0,1,.11,26.65h-.28A13.2,13.2,0,0,1,354.25,125.5Z" transform="translate(0 -5)"/><path class="cls-5" d="M367.34,207.24c-7.55-.05-13.07-5.5-13.1-13a13.27,13.27,0,1,1,13.58,12.95Z" transform="translate(0 -5)"/><path class="cls-5" d="M455.2,125.52a13.29,13.29,0,0,1-13,13.34,13.55,13.55,0,0,1-13.5-12.93,13.8,13.8,0,0,1,13.33-13.74C448.91,112.16,455.16,118.49,455.2,125.52Z" transform="translate(0 -5)"/><path class="cls-5" d="M380.76,159.7a13.22,13.22,0,0,1-13,13.33,13,13,0,0,1-13.5-12.37c0-.3,0-.6,0-.9a13.26,13.26,0,0,1,26.51-.06Z" transform="translate(0 -5)"/><path class="cls-4" d="M404.73,207.19a13,13,0,0,1-13-12.88V194a13.12,13.12,0,0,1,13.24-13H405a13.24,13.24,0,0,1,12.82,13,13.07,13.07,0,0,1-12.94,13.2Z" transform="translate(0 -5)"/><path class="cls-5" d="M442,173a13.22,13.22,0,1,1-.16-26.44h.35A13.54,13.54,0,0,1,455.25,160,13.12,13.12,0,0,1,442.06,173Z" transform="translate(0 -5)"/><path class="cls-4" d="M367.26,78.38A13,13,0,1,1,354.34,91.7a13,13,0,0,1,12.92-13.32Z" transform="translate(0 -5)"/><path class="cls-5" d="M441.94,207.22a13.13,13.13,0,0,1-13.23-13,13.27,13.27,0,0,1,26.53-.1v.2a12.9,12.9,0,0,1-12.85,12.94Z" transform="translate(0 -5)"/><path class="cls-4" d="M404.79,172.84a12.85,12.85,0,0,1-13.07-12.64,4.68,4.68,0,0,1,0-.53,13,13,0,0,1,12.93-12.86,13.2,13.2,0,0,1,13.13,13.25A13,13,0,0,1,404.79,172.84Z" transform="translate(0 -5)"/><path class="cls-4" d="M404.81,138.49a12.93,12.93,0,0,1-.32-25.85h.13a13,13,0,0,1,13.16,12.92v.21A12.88,12.88,0,0,1,404.81,138.49Z" transform="translate(0 -5)"/><path class="cls-4" d="M404.62,104.34a13.07,13.07,0,1,1,.26,0Z" transform="translate(0 -5)"/><path class="cls-4" d="M455,91.21a12.77,12.77,0,0,1-12.43,13.12h-.13a13,13,0,0,1-1-25.94c.24,0,.49,0,.73,0A12.79,12.79,0,0,1,455,91.11Z" transform="translate(0 -5)"/><path class="cls-5" d="M103.07,194.83c0,11.16,0,11.16-11.24,11.16-11.55,0-11.55,0-11.55-11.4s0-11.41,11.52-11.41C103.07,183.18,103.07,183.18,103.07,194.83Z" transform="translate(0 -5)"/><path class="cls-4" d="M173.83,205.72c-15.11,0-30.23.05-45.34-.05-2,0-5.12,1.28-5.1-2.65,0-3.67,3-2.36,4.74-2.37q45.87-.1,91.75,0c1.65,0,4.17-1.11,4.26,2.29.1,3.59-2.48,2.77-4.43,2.77C204.41,205.74,189.12,205.72,173.83,205.72Z" transform="translate(0 -5)"/><path class="cls-5" d="M49.06,194.94c0,11.06,0,11.06-11.21,11.05s-11.11,0-11.11-11.15c0-11.67,0-11.67,11.82-11.67C49.06,183.18,49.06,183.18,49.06,194.94Z" transform="translate(0 -5)"/><path class="cls-5" d="M103.07,142.57c0,11.31,0,11.31-11.58,11.31-11.21,0-11.21,0-11.21-11.15s0-11.16,11-11.16h.53C103.07,131.57,103.07,131.57,103.07,142.57Z" transform="translate(0 -5)"/><path class="cls-3" d="M172.76,89.32c14.91,0,29.82,0,44.73,0,1.91,0,4.58-.91,4.56,2.67s-2.72,2.59-4.6,2.59q-44.73.08-89.46,0c-1.91,0-4.64.9-4.62-2.62s2.71-2.64,4.65-2.65C142.94,89.29,157.85,89.32,172.76,89.32Z" transform="translate(0 -5)"/><path class="cls-4" d="M91.16,101.78c-10.68,0-10.68,0-10.68-10.87,0-11.43,0-11.43,11.71-11.43,10.67,0,10.67,0,10.67,10.87C102.86,101.78,102.86,101.78,91.16,101.78Z" transform="translate(0 -5)"/><path class="cls-4" d="M11.15,105.49c11.14,0,11.14,0,11.14,11s0,11.14-10.95,11.14C0,127.63,0,127.63,0,116.43,0,105.49,0,105.49,11.15,105.49Z" transform="translate(0 -5)"/><path class="cls-5" d="M75.83,195.06c0,10.93,0,10.93-10.73,10.93-11.5,0-11.5,0-11.5-11.87,0-10.94,0-10.94,10.84-10.94C75.83,183.18,75.83,183.18,75.83,195.06Z" transform="translate(0 -5)"/><path class="cls-5" d="M22.3,194.88C22.3,206,22.3,206,11.18,206S0,206,0,195c0-11.8,0-11.8,11.6-11.8C22.3,183.19,22.3,183.19,22.3,194.88Z" transform="translate(0 -5)"/><path class="cls-4" d="M172.2,195.62c-14.56,0-29.13.06-43.7-.06-1.9,0-5,1.53-5.2-2.47s2.91-2.77,4.87-2.77q44.51-.1,89,0c1.92,0,4.54-.95,4.43,2.72s-2.75,2.57-4.63,2.58C202,195.65,187.12,195.62,172.2,195.62Z" transform="translate(0 -5)"/><path class="cls-5" d="M91.59,179.65c-11.31,0-11.31,0-11.31-11.06s0-11.19,11.21-11.19c11.58,0,11.58,0,11.58,11.33C103.07,179.65,103.07,179.65,91.59,179.65Z" transform="translate(0 -5)"/><path class="cls-3" d="M171.14,99.63c14.58,0,29.15,0,43.72,0,1.89,0,4.68-1,4.71,2.51,0,3.37-2.54,2.79-4.58,2.79q-43.45,0-86.91,0c-1.93,0-4.64.86-4.7-2.6S126,99.66,128,99.66C142.35,99.61,156.75,99.63,171.14,99.63Z" transform="translate(0 -5)"/><path class="cls-4" d="M0,142.88c0-11.34,0-11.34,11.28-11.34,11,0,11,0,11,11.16s0,11.12-11.09,11.12S0,153.83,0,142.88Z" transform="translate(0 -5)"/><path class="cls-5" d="M11.07,179.65C0,179.65,0,179.65,0,168.47s0-11.06,11.18-11.06,11.11,0,11.11,11.19S22.3,179.65,11.07,179.65Z" transform="translate(0 -5)"/><path class="cls-4" d="M11.24,79.47c11,0,11,0,11,11,0,11.29,0,11.29-11.3,11.29-11,0-11,0-11-11C0,79.47,0,79.47,11.24,79.47Z" transform="translate(0 -5)"/><path class="cls-4" d="M38.13,101.79c-11.34,0-11.34,0-11.34-11.26,0-11.06,0-11.06,11-11.06,11.3,0,11.3,0,11.3,11.27C49.11,101.78,49.11,101.78,38.13,101.79Z" transform="translate(0 -5)"/><path class="cls-4" d="M64.94,79.5c11,0,11,0,11,11.09s0,11.18-11.42,11.18c-10.65,0-10.65,0-10.65-10.82v-.53C53.84,79.5,53.84,79.5,64.94,79.5Z" transform="translate(0 -5)"/><path class="cls-5" d="M64.14,153.88c-10.54,0-10.54,0-10.54-10.76,0-11.55,0-11.55,11.74-11.55,10.49,0,10.49,0,10.49,10.68C75.83,153.88,75.83,153.88,64.14,153.88Z" transform="translate(0 -5)"/><path class="cls-4" d="M170.07,185.29c-14.19,0-28.38,0-42.57,0-1.72,0-4.19.9-4.16-2.4,0-3.13,2.31-2.58,4.16-2.59l86.2,0c2.05,0,4-.15,3.87,2.86s-2.3,2.16-3.87,2.17C199.15,185.31,184.61,185.29,170.07,185.29Z" transform="translate(0 -5)"/><path class="cls-3" d="M156.12,135c-9.57,0-19.13,0-28.7,0-2,0-4.53.54-4.37-2.91.15-3.13,2.5-2.42,4.3-2.43q29.24,0,58.48,0c1.89,0,4.06-.43,4.1,2.65s-2.13,2.7-4,2.7Q171,135,156.12,135Z" transform="translate(0 -5)"/><path class="cls-4" d="M155.83,155.26c-9.6,0-19.2,0-28.8,0-2,0-4,.19-3.87-2.85.09-2.79,2-2.46,3.73-2.46h57.6c1.88,0,3.45-.11,3.51,2.62.07,3.25-2,2.66-3.9,2.66H155.83Z" transform="translate(0 -5)"/><path class="cls-4" d="M280.71,195.53c-8.13.3-13.52-2.62-17.29-8.63a28.2,28.2,0,0,1-3.56-10.5c-1.21-7.15-.65-7.7,6.38-7.28,2.19.13,3.22.74,3.34,3C270.05,181.1,273.15,189,280.71,195.53Z" transform="translate(0 -5)"/><path class="cls-4" d="M140.76,170.16c5,0,9.9.05,14.85,0,2.14,0,3.35.53,3.24,3s-1.53,2.4-3.25,2.39c-9.72,0-19.45,0-29.18,0-2.16,0-3.33-.57-3.24-3s1.54-2.4,3.25-2.39C131.21,170.18,136,170.16,140.76,170.16Z" transform="translate(0 -5)"/><path class="cls-3" d="M140.59,115.19c-4.6,0-9.21,0-13.82,0-2.23,0-3.84-.42-3.74-3.16s2-2.45,3.77-2.45c9.39,0,18.77,0,28.16,0,2,0,3.53.19,3.46,2.77-.06,2.43-1.46,2.89-3.49,2.87C150.15,115.16,145.37,115.2,140.59,115.19Z" transform="translate(0 -5)"/><path class="cls-4" d="M139.58,165.48H126.82c-1.82,0-3.6.17-3.65-2.55,0-2.47,1.21-2.91,3.32-2.9q13,.09,26.05,0c2,0,3.42.25,3.37,2.81s-1.68,2.66-3.57,2.64C148.09,165.46,143.84,165.48,139.58,165.48Z" transform="translate(0 -5)"/><path class="cls-3" d="M139.54,119.48c4.26,0,8.53,0,12.79,0,2.19,0,3.31.7,3.23,3.06-.07,2.2-1.36,2.59-3.17,2.58H126.28c-1.73,0-3.21-.17-3.26-2.45s1-3.21,3.2-3.18C130.66,119.52,135.1,119.48,139.54,119.48Z" transform="translate(0 -5)"/><path class="cls-3" d="M294,91.87c8.82-.93,18.68,9.3,17,17.49-.55,2.74-2.66,2-4.21,1.87-2.36-.13-5.56,1.41-6.24-2.86a40.25,40.25,0,0,0-2.24-8.71C297.29,96.94,295.52,94.48,294,91.87Z" transform="translate(0 -5)"/><path class="cls-4" d="M527.49,77.62l-10.8,27.7L536.63,153H507.82v6.37h31l17.73,41.56H539.4v5h48.2v-5h-6.92Z" transform="translate(0 -5)"/><rect class="cls-3" x="468.48" y="195.63" width="24.93" height="5.26"/><path class="cls-4" d="M601.82,77.62v2.31H633v95.12h62.24v32.32h2.4V77.62Z" transform="translate(0 -5)"/><path class="cls-4" d="M710.05,77.62v27.8h36.39v101H760.1V77.62Z" transform="translate(0 -5)"/><path class="cls-5" d="M812,77.62v27.8H775.62v101H762V77.62Z" transform="translate(0 -5)"/><rect class="cls-3" x="760.1" y="87.52" width="1.85" height="4.43"/><rect class="cls-3" x="760.1" y="107.05" width="1.85" height="4.43"/><rect class="cls-3" x="760.1" y="163.94" width="1.85" height="4.43"/><rect class="cls-3" x="760.1" y="144.56" width="1.85" height="4.43"/><rect class="cls-3" x="760.1" y="182.61" width="1.85" height="4.43"/><rect class="cls-3" x="760.1" y="126.18" width="1.85" height="4.43"/><path class="cls-4" d="M124.29,140.3c-1,.43-1.43,1.34-1,3.24.56,2.63,2.81,1.69,4.38,1.69,20.09.06,40.18-.08,60.26.13,4.49,0,5-1.75,4-5.06Z" transform="translate(0 -5)"/><path class="cls-6" d="M60.08,223.36v58h31.5" transform="translate(0 -5)"/><path class="cls-6" d="M294,223.36v58h31.5" transform="translate(0 -5)"/><path class="cls-6" d="M520,223.36v58h31.5" transform="translate(0 -5)"/><path class="cls-6" d="M761,223.36v58h31.5" transform="translate(0 -5)"/><path class="cls-6" d="M170.45,68.36v-58H202" transform="translate(0 -5)"/><path class="cls-6" d="M404.75,68.36v-58h31.5" transform="translate(0 -5)"/><path class="cls-6" d="M649.75,68.36v-58h31.5" transform="translate(0 -5)"/></svg>