<svg xmlns="http://www.w3.org/2000/svg" width="106.58" height="102" viewBox="0 0 106.58 102"><g transform="translate(0 -11.001)"><circle cx="51" cy="51" r="51" transform="translate(3.499 11.001)" fill="#9a70ce"/><path d="M286.112,132.459h-49.8v19.267a1.044,1.044,0,0,1-1.041,1.041H228.5v18.752a1.409,1.409,0,0,0,1.405,1.405h56.2a1.409,1.409,0,0,0,1.405-1.405V133.864A1.409,1.409,0,0,0,286.112,132.459Z" transform="translate(-180.938 -96.175)" fill="#31d9e7"/><path d="M232.635,248.768V230.016h-4.13v18.752a1.409,1.409,0,0,0,1.405,1.405h4.13A1.409,1.409,0,0,1,232.635,248.768Z" transform="translate(-180.939 -173.424)" fill="#5dc1d8"/><path d="M274.04,207.209a1.147,1.147,0,0,0-1.811,0l-7.3,8.667a1.147,1.147,0,0,1-1.811,0l-13.788-16.357a1.146,1.146,0,0,0-1.811,0l-19.009,22.551v2.2a1.409,1.409,0,0,0,1.405,1.405h56.2a1.409,1.409,0,0,0,1.405-1.405V223.2Z" transform="translate(-180.939 -148.924)" fill="#1ca1ac"/><circle cx="5.269" cy="5.269" r="5.269" transform="translate(91.464 41.472)" fill="#fff"/><path d="M442.3,162.645a5.27,5.27,0,0,1,3.814-5.064,5.269,5.269,0,1,0,0,10.128A5.27,5.27,0,0,1,442.3,162.645Z" transform="translate(-347.928 -115.905)" fill="#d9eafc"/><path d="M55.585,66.844a1.044,1.044,0,0,1-1.041,1.041H1.041A1.044,1.044,0,0,1,0,66.844V26.04A1.044,1.044,0,0,1,1.041,25h53.5a1.044,1.044,0,0,1,1.041,1.041Z" transform="translate(0 -11.084)" fill="#f17781"/><path d="M82.5,74.211c0-1.145.811-1.613,1.8-1.041l17.634,10.181a1.1,1.1,0,0,1,0,2.082L84.3,95.614c-.991.572-1.8.1-1.8-1.041Z" transform="translate(-65.323 -49.035)" fill="#fff"/><path d="M86.626,74.515,84.3,73.171c-.991-.572-1.8-.1-1.8,1.041V94.573c0,1.145.811,1.613,1.8,1.041l2.328-1.344Z" transform="translate(-65.323 -49.035)" fill="#d9eafc"/><g transform="translate(3.23 16.936)"><path d="M230.128,44.509a.626.626,0,0,1-.624.624h-4.371a.626.626,0,0,1-.624-.624V40.137a.626.626,0,0,1,.624-.624H229.5a.626.626,0,0,1,.624.624v4.371Z" transform="translate(-181.004 -39.513)" fill="#ee3746"/><path d="M230.128,82.007a.626.626,0,0,1-.624.624h-4.371a.626.626,0,0,1-.624-.624V77.635a.626.626,0,0,1,.624-.624H229.5a.626.626,0,0,1,.624.624v4.371Z" transform="translate(-181.004 -69.205)" fill="#ee3746"/><path d="M230.128,119.5a.626.626,0,0,1-.624.624h-4.371a.626.626,0,0,1-.624-.624v-4.371a.626.626,0,0,1,.624-.624H229.5a.626.626,0,0,1,.624.624V119.5Z" transform="translate(-181.004 -98.898)" fill="#ee3746"/><path d="M230.128,157a.626.626,0,0,1-.624.624h-4.371a.626.626,0,0,1-.624-.624v-4.371a.626.626,0,0,1,.624-.624H229.5a.626.626,0,0,1,.624.624V157Z" transform="translate(-181.004 -128.59)" fill="#ee3746"/><path d="M230.128,194.5a.626.626,0,0,1-.624.624h-4.371a.626.626,0,0,1-.624-.624V190.13a.626.626,0,0,1,.624-.624H229.5a.626.626,0,0,1,.624.624V194.5Z" transform="translate(-181.004 -158.282)" fill="#ee3746"/><path d="M21.139,44.509a.626.626,0,0,1-.624.624H16.143a.626.626,0,0,1-.624-.624V40.137a.626.626,0,0,1,.624-.624h4.371a.626.626,0,0,1,.624.624Z" transform="translate(-15.519 -39.513)" fill="#ee3746"/><path d="M21.139,82.007a.626.626,0,0,1-.624.624H16.143a.626.626,0,0,1-.624-.624V77.635a.626.626,0,0,1,.624-.624h4.371a.626.626,0,0,1,.624.624Z" transform="translate(-15.519 -69.205)" fill="#ee3746"/><path d="M21.139,119.5a.626.626,0,0,1-.624.624H16.143a.626.626,0,0,1-.624-.624v-4.371a.626.626,0,0,1,.624-.624h4.371a.626.626,0,0,1,.624.624Z" transform="translate(-15.519 -98.898)" fill="#ee3746"/><path d="M21.139,157a.626.626,0,0,1-.624.624H16.143a.626.626,0,0,1-.624-.624v-4.371a.626.626,0,0,1,.624-.624h4.371a.626.626,0,0,1,.624.624Z" transform="translate(-15.519 -128.59)" fill="#ee3746"/><path d="M21.139,194.5a.626.626,0,0,1-.624.624H16.143a.626.626,0,0,1-.624-.624V190.13a.626.626,0,0,1,.624-.624h4.371a.626.626,0,0,1,.624.624Z" transform="translate(-15.519 -158.282)" fill="#ee3746"/></g><path d="M64.282,254.956h-36.2A1.044,1.044,0,0,0,27.04,256v13.79a50.768,50.768,0,0,0,6.294,13.465H46.465l8.488,8.488c.4.4.736.268.736-.3v-8.184h8.593a1.044,1.044,0,0,0,1.041-1.041V256A1.044,1.044,0,0,0,64.282,254.956Z" transform="translate(-21.411 -193.173)" fill="#52bbef"/><path d="M31.17,256a1.044,1.044,0,0,1,1.041-1.041h-4.13A1.044,1.044,0,0,0,27.04,256v13.79a50.685,50.685,0,0,0,4.13,9.874Z" transform="translate(-21.411 -193.173)" fill="#1e99d6"/><g transform="translate(12.878 69.009)"><path d="M84.086,292.789H63.424a1.561,1.561,0,1,1,0-3.122H84.086a1.561,1.561,0,1,1,0,3.122Z" transform="translate(-61.863 -289.667)" fill="#fff"/><path d="M84.086,318.9H63.424a1.561,1.561,0,1,1,0-3.122H84.086a1.561,1.561,0,1,1,0,3.122Z" transform="translate(-61.863 -310.343)" fill="#fff"/><path d="M73.8,345.012H63.424a1.561,1.561,0,0,1,0-3.122H73.8a1.561,1.561,0,0,1,0,3.122Z" transform="translate(-61.863 -331.019)" fill="#fff"/></g><path d="M262.853,352.558H230.046a1.044,1.044,0,0,0-1.041,1.041v24.837a1.044,1.044,0,0,0,1.041,1.041h25.578a50.852,50.852,0,0,0,8.27-4.428V353.6A1.044,1.044,0,0,0,262.853,352.558Z" transform="translate(-181.335 -270.457)" fill="#f9e478"/><path d="M233.135,378.435V353.6a1.044,1.044,0,0,1,1.041-1.041h-4.13a1.044,1.044,0,0,0-1.041,1.041v24.837a1.044,1.044,0,0,0,1.041,1.041h4.13A1.044,1.044,0,0,1,233.135,378.435Z" transform="translate(-181.335 -270.457)" fill="#f9ca78"/><path d="M285.025,385.349c0-1.145.811-1.613,1.8-1.041l9.726,5.615a1.1,1.1,0,0,1,0,2.082l-9.726,5.615c-.992.572-1.8.1-1.8-1.041Z" transform="translate(-225.693 -295.405)" fill="#fff"/></g></svg>