<svg xmlns="http://www.w3.org/2000/svg" xmlns:xlink="http://www.w3.org/1999/xlink" width="246.848" height="950.947" viewBox="0 0 246.848 950.947"><defs><linearGradient id="a" x1="-15.65" y1="2.611" x2="-16.379" y2="0.262" gradientUnits="objectBoundingBox"><stop offset="0" stop-color="#edebeb"/><stop offset="1" stop-color="#fff"/></linearGradient><linearGradient id="e" x1="-15.355" y1="-2.362" x2="-16.084" y2="-4.71" xlink:href="#a"/></defs><g transform="translate(-711.821 -3107)"><g transform="translate(0 54.518)"><rect width="2.94" height="63.405" transform="translate(812.285 3145.375) rotate(-42)" fill="#c9c0c0"/><rect width="2.94" height="63.405" transform="translate(812.285 3433.049) rotate(-42)" fill="#c9c0c0"/><rect width="2.94" height="63.405" transform="translate(812.285 3719.999) rotate(-42)" fill="#c9c0c0"/><rect width="2.94" height="63.405" transform="translate(814.47 3336.663) rotate(-138)" fill="#c9c0c0"/><rect width="2.94" height="63.405" transform="translate(814.47 3624.337) rotate(-138)" fill="#c9c0c0"/><rect width="2.94" height="63.405" transform="translate(814.47 3911.287) rotate(-138)" fill="#c9c0c0"/></g><g transform="translate(0 54.518)"><path d="M1529.676-135.764h32.475v-43.125h-32.477a5.594,5.594,0,0,0-4.529,2.31l-11.572,15.957a5.6,5.6,0,0,0,0,6.567l11.574,15.978A5.593,5.593,0,0,0,1529.676-135.764Z" transform="translate(-800.686 3255.273)" fill="#f17781"/><circle cx="45.463" cy="45.463" r="45.463" transform="translate(748.92 3052.482)" fill="#47286d"/><circle cx="36.629" cy="36.629" r="36.629" transform="translate(757.753 3061.316)" fill="#31d9e7"/><g transform="translate(-800.686 3255.273)"><path d="M1595.068-128.856H1732.25a17.905,17.905,0,0,0,17.905-17.9v-21.133a17.905,17.905,0,0,0-17.905-17.9H1595.068a28.47,28.47,0,0,0-28.471,28.471A28.471,28.471,0,0,0,1595.068-128.856Z" fill="url(#a)"/></g><circle cx="22.154" cy="22.154" r="22.154" transform="translate(772.487 3075.362)" fill="#47286d"/><g transform="translate(-800.686 3253.273)"><text transform="translate(1631.897 -150.63)" fill="#12263f" font-size="18" font-family="Roboto-Bold, Roboto" font-weight="700"><tspan x="0" y="0">Ritmo</tspan></text></g><g transform="translate(-800.686 3255.273)"><circle cx="17.661" cy="17.661" r="17.661" transform="translate(1577.665 -175.419)" fill="#fff"/></g><text transform="translate(728.01 3104.644)" fill="#fff" font-size="14.043" font-family="Roboto-Bold, Roboto" font-weight="700"><tspan x="0" y="0">01</tspan></text></g><g transform="translate(0 54.518)"><path d="M1529.676-135.764h32.475v-43.125h-32.477a5.594,5.594,0,0,0-4.529,2.31l-11.572,15.957a5.6,5.6,0,0,0,0,6.567l11.574,15.978A5.593,5.593,0,0,0,1529.676-135.764Z" transform="translate(-800.686 3541.947)" fill="#f17781"/><circle cx="45.463" cy="45.463" r="45.463" transform="translate(748.92 3339.156)" fill="#47286d"/><circle cx="36.629" cy="36.629" r="36.629" transform="translate(757.753 3347.99)" fill="#31d9e7"/><g transform="translate(-800.686 3541.947)"><path d="M1595.068-128.856H1732.25a17.905,17.905,0,0,0,17.905-17.9v-21.133a17.905,17.905,0,0,0-17.905-17.9H1595.068a28.47,28.47,0,0,0-28.471,28.471A28.471,28.471,0,0,0,1595.068-128.856Z" fill="url(#a)"/></g><circle cx="22.154" cy="22.154" r="22.154" transform="translate(772.487 3362.036)" fill="#47286d"/><g transform="translate(-800.686 3541.947)"><text transform="translate(1631.897 -150.63)" fill="#12263f" font-size="18" font-family="Roboto-Bold, Roboto" font-weight="700"><tspan x="0" y="0">Equilibrio</tspan></text></g><g transform="translate(-800.686 3541.947)"><circle cx="17.661" cy="17.661" r="17.661" transform="translate(1577.665 -175.419)" fill="#fff"/></g><text transform="translate(728.01 3391.317)" fill="#fff" font-size="14.043" font-family="Roboto-Bold, Roboto" font-weight="700"><tspan x="0" y="0">03</tspan></text></g><g transform="translate(0 54.518)"><path d="M1529.676-135.764h32.475v-43.125h-32.477a5.594,5.594,0,0,0-4.529,2.31l-11.572,15.957a5.6,5.6,0,0,0,0,6.567l11.574,15.978A5.593,5.593,0,0,0,1529.676-135.764Z" transform="translate(-800.686 3828.621)" fill="#f17781"/><circle cx="45.463" cy="45.463" r="45.463" transform="translate(748.92 3625.83)" fill="#47286d"/><circle cx="36.629" cy="36.629" r="36.629" transform="translate(757.753 3634.664)" fill="#31d9e7"/><g transform="translate(-800.686 3828.621)"><path d="M1595.848-128.856H1736.79a18.156,18.156,0,0,0,18.4-17.9v-21.133a18.155,18.155,0,0,0-18.4-17.9H1595.848c-16.155,0-29.251,12.746-29.251,28.471S1579.693-128.856,1595.848-128.856Z" transform="translate(0)" fill="url(#a)"/></g><circle cx="22.154" cy="22.154" r="22.154" transform="translate(772.487 3648.71)" fill="#47286d"/><g transform="translate(-800.686 3828.621)"><text transform="translate(1620.897 -162.63)" fill="#12263f" font-size="18" font-family="Roboto-Bold, Roboto" font-weight="700"><tspan x="0" y="0">Relación figura </tspan><tspan x="0" y="21.6">fondo</tspan></text></g><g transform="translate(-800.686 3828.621)"><circle cx="17.661" cy="17.661" r="17.661" transform="translate(1577.665 -175.419)" fill="#fff"/></g><text transform="translate(728.01 3677.991)" fill="#fff" font-size="14.043" font-family="Roboto-Bold, Roboto" font-weight="700"><tspan x="0" y="0">05</tspan></text></g><g transform="translate(0 54.518)"><path d="M1529.676-135.764h32.475v-43.125h-32.477a5.594,5.594,0,0,0-4.529,2.31l-11.572,15.957a5.6,5.6,0,0,0,0,6.567l11.574,15.978A5.593,5.593,0,0,0,1529.676-135.764Z" transform="translate(-800.686 4115.295)" fill="#f17781"/><circle cx="45.463" cy="45.463" r="45.463" transform="translate(748.92 3912.504)" fill="#47286d"/><circle cx="36.629" cy="36.629" r="36.629" transform="translate(757.753 3921.338)" fill="#31d9e7"/><g transform="translate(-800.686 4115.295)"><path d="M1595.068-128.856H1732.25a17.905,17.905,0,0,0,17.905-17.9v-21.133a17.905,17.905,0,0,0-17.905-17.9H1595.068a28.47,28.47,0,0,0-28.471,28.471A28.471,28.471,0,0,0,1595.068-128.856Z" fill="url(#a)"/></g><circle cx="22.154" cy="22.154" r="22.154" transform="translate(772.487 3935.384)" fill="#47286d"/><g transform="translate(-800.686 4115.295)"><text transform="translate(1631.897 -150.63)" fill="#12263f" font-size="18" font-family="Roboto-Bold, Roboto" font-weight="700"><tspan x="0" y="0">Repetición</tspan></text></g><g transform="translate(-800.686 4115.295)"><circle cx="17.661" cy="17.661" r="17.661" transform="translate(1577.665 -175.419)" fill="#fff"/></g><text transform="translate(728.01 3964.665)" fill="#fff" font-size="14.043" font-family="Roboto-Bold, Roboto" font-weight="700"><tspan x="0" y="0">07</tspan></text></g><g transform="translate(0 54.518)"><path d="M1660.806,5.807h-32.475V-37.318h32.477a5.592,5.592,0,0,1,4.529,2.311l11.572,15.956a5.6,5.6,0,0,1,0,6.567L1665.337,3.494A5.594,5.594,0,0,1,1660.806,5.807Z" transform="translate(-719.306 3255.273)" fill="#f17781"/><circle cx="45.463" cy="45.463" r="45.463" transform="translate(830.646 3194.054)" fill="#47286d"/><circle cx="36.629" cy="36.629" r="36.629" transform="translate(839.479 3202.888)" fill="#31d9e7"/><g transform="translate(-719.306 3255.273)"><path d="M1595.414,12.715H1458.232A17.905,17.905,0,0,1,1440.327-5.19V-26.323a17.9,17.9,0,0,1,17.905-17.9h137.182a28.471,28.471,0,0,1,28.471,28.471A28.471,28.471,0,0,1,1595.414,12.715Z" fill="url(#e)"/></g><circle cx="22.154" cy="22.154" r="22.154" transform="translate(853.697 3216.934)" fill="#47286d"/><g transform="translate(-719.306 3252.34)"><text transform="translate(1459.508 -5.528)" fill="#12263f" font-size="18" font-family="Roboto-Bold, Roboto" font-weight="700"><tspan x="0" y="0">Dinamismo</tspan></text></g><g transform="translate(-719.306 3255.273)"><circle cx="17.661" cy="17.661" r="17.661" transform="translate(1577.494 -33.847)" fill="#fff"/></g><text transform="translate(928.074 3246.812)" fill="#fff" font-size="14.043" font-family="Roboto-Bold, Roboto" font-weight="700"><tspan x="0" y="0">02</tspan></text></g><g transform="translate(0 54.518)"><path d="M1660.806,5.807h-32.475V-37.318h32.477a5.592,5.592,0,0,1,4.529,2.311l11.572,15.956a5.6,5.6,0,0,1,0,6.567L1665.337,3.494A5.594,5.594,0,0,1,1660.806,5.807Z" transform="translate(-719.306 3541.947)" fill="#f17781"/><circle cx="45.463" cy="45.463" r="45.463" transform="translate(830.646 3480.728)" fill="#47286d"/><circle cx="36.629" cy="36.629" r="36.629" transform="translate(839.479 3489.562)" fill="#31d9e7"/><g transform="translate(-719.306 3541.947)"><path d="M1595.414,12.715H1458.232A17.905,17.905,0,0,1,1440.327-5.19V-26.323a17.9,17.9,0,0,1,17.905-17.9h137.182a28.471,28.471,0,0,1,28.471,28.471A28.471,28.471,0,0,1,1595.414,12.715Z" fill="url(#e)"/></g><circle cx="22.154" cy="22.154" r="22.154" transform="translate(853.697 3503.607)" fill="#47286d"/><g transform="translate(-719.306 3541.947)"><text transform="translate(1459.508 -10.528)" fill="#12263f" font-size="18" font-family="Roboto-Bold, Roboto" font-weight="700"><tspan x="0" y="0">Movimiento</tspan></text></g><g transform="translate(-719.306 3541.947)"><circle cx="17.661" cy="17.661" r="17.661" transform="translate(1577.494 -33.847)" fill="#fff"/></g><text transform="translate(928.074 3533.485)" fill="#fff" font-size="14.043" font-family="Roboto-Bold, Roboto" font-weight="700"><tspan x="0" y="0">04</tspan></text></g><g transform="translate(0 54.518)"><path d="M1660.806,5.807h-32.475V-37.318h32.477a5.592,5.592,0,0,1,4.529,2.311l11.572,15.956a5.6,5.6,0,0,1,0,6.567L1665.337,3.494A5.594,5.594,0,0,1,1660.806,5.807Z" transform="translate(-719.306 3828.621)" fill="#f17781"/><circle cx="45.463" cy="45.463" r="45.463" transform="translate(830.646 3767.401)" fill="#47286d"/><circle cx="36.629" cy="36.629" r="36.629" transform="translate(839.479 3776.235)" fill="#31d9e7"/><g transform="translate(-719.306 3828.621)"><path d="M1595.414,12.715H1458.232A17.905,17.905,0,0,1,1440.327-5.19V-26.323a17.9,17.9,0,0,1,17.905-17.9h137.182a28.471,28.471,0,0,1,28.471,28.471A28.471,28.471,0,0,1,1595.414,12.715Z" fill="url(#e)"/></g><circle cx="22.154" cy="22.154" r="22.154" transform="translate(853.697 3790.281)" fill="#47286d"/><g transform="translate(-719.306 3828.621)"><text transform="translate(1459.508 -9.528)" fill="#12263f" font-size="18" font-family="Roboto-Bold, Roboto" font-weight="700"><tspan x="0" y="0">Tensión</tspan></text></g><g transform="translate(-719.306 3828.621)"><circle cx="17.661" cy="17.661" r="17.661" transform="translate(1577.494 -33.847)" fill="#fff"/></g><text transform="translate(928.074 3820.159)" fill="#fff" font-size="14.043" font-family="Roboto-Bold, Roboto" font-weight="700"><tspan x="0" y="0">06</tspan></text></g></g></svg>