<svg id="Capa_1" data-name="Capa 1" xmlns="http://www.w3.org/2000/svg" viewBox="0 0 221.63 241"><defs><style>.cls-1,.cls-3{isolation:isolate;}.cls-2,.cls-3{fill:#12263f;}.cls-3{font-size:18px;font-family:Roboto-Bold, Roboto;font-weight:700;}.cls-4{fill:red;}.cls-5{fill:#ffd500;}.cls-6{fill:#f80;}.cls-7{fill:#0af;}.cls-8{fill:#009640;}.cls-9{fill:#5e2783;}</style></defs><g class="cls-1"><g class="cls-1"><path class="cls-2" d="M76.27,17H73.92L69.36,9.52V17H67V5.62h2.34l4.57,7.5V5.62h2.34Z"/><path class="cls-2" d="M83.06,17a2.44,2.44,0,0,1-.22-.76,2.75,2.75,0,0,1-2.14.92,3,3,0,0,1-2.06-.72,2.33,2.33,0,0,1-.81-1.82,2.4,2.4,0,0,1,1-2.06,4.9,4.9,0,0,1,2.88-.72h1v-.49a1.41,1.41,0,0,0-.3-.94,1.2,1.2,0,0,0-1-.35,1.28,1.28,0,0,0-.89.28.92.92,0,0,0-.33.75H78a2.26,2.26,0,0,1,.45-1.36,2.91,2.91,0,0,1,1.28-1,4.61,4.61,0,0,1,1.86-.36,3.66,3.66,0,0,1,2.48.79,2.73,2.73,0,0,1,.92,2.2v3.67a4,4,0,0,0,.33,1.82V17ZM81.2,15.43a1.92,1.92,0,0,0,.92-.22,1.44,1.44,0,0,0,.62-.6V13.16H81.9c-1.13,0-1.73.39-1.81,1.17v.13a.91.91,0,0,0,.29.7A1.18,1.18,0,0,0,81.2,15.43Z"/><path class="cls-2" d="M91.49,10.66a6.44,6.44,0,0,0-.81-.06,1.66,1.66,0,0,0-1.68.87V17H86.74V8.55h2.14l.06,1a2.09,2.09,0,0,1,1.88-1.16,2.28,2.28,0,0,1,.7.1Z"/><path class="cls-2" d="M97.24,17a2.44,2.44,0,0,1-.22-.76,2.75,2.75,0,0,1-2.14.92,3,3,0,0,1-2.06-.72A2.33,2.33,0,0,1,92,14.62a2.4,2.4,0,0,1,1-2.06,4.9,4.9,0,0,1,2.88-.72h1v-.49a1.41,1.41,0,0,0-.3-.94,1.2,1.2,0,0,0-1-.35,1.28,1.28,0,0,0-.89.28.92.92,0,0,0-.33.75H92.2a2.26,2.26,0,0,1,.45-1.36,2.91,2.91,0,0,1,1.28-1,4.61,4.61,0,0,1,1.86-.36,3.66,3.66,0,0,1,2.48.79,2.73,2.73,0,0,1,.92,2.2v3.67a4,4,0,0,0,.33,1.82V17Zm-1.86-1.57a1.92,1.92,0,0,0,.92-.22,1.44,1.44,0,0,0,.62-.6V13.16h-.84c-1.13,0-1.73.39-1.81,1.17v.13a.91.91,0,0,0,.29.7A1.18,1.18,0,0,0,95.38,15.43Z"/><path class="cls-2" d="M103,8.55l.07,1a3,3,0,0,1,2.43-1.13,2.44,2.44,0,0,1,2,.79,3.67,3.67,0,0,1,.67,2.36V17h-2.26V11.59a1.45,1.45,0,0,0-.31-1,1.38,1.38,0,0,0-1-.32,1.56,1.56,0,0,0-1.43.81v6h-2.25V8.55Z"/><path class="cls-2" d="M112.27,8.55v8.91a3,3,0,0,1-.74,2.18,2.81,2.81,0,0,1-2.14.77,4.58,4.58,0,0,1-1.12-.13V18.49a3.94,3.94,0,0,0,.71.07c.69,0,1-.36,1-1.08V8.55Zm-2.44-2.19a1.11,1.11,0,0,1,.34-.84,1.24,1.24,0,0,1,.92-.32,1.28,1.28,0,0,1,.93.32,1.11,1.11,0,0,1,.34.84,1.12,1.12,0,0,1-.35.84,1.28,1.28,0,0,1-.92.33,1.26,1.26,0,0,1-.91-.33A1.08,1.08,0,0,1,109.83,6.36Z"/><path class="cls-2" d="M118.94,17a2.44,2.44,0,0,1-.23-.76,2.74,2.74,0,0,1-2.13.92,3,3,0,0,1-2.06-.72,2.34,2.34,0,0,1-.82-1.82,2.41,2.41,0,0,1,1-2.06,4.86,4.86,0,0,1,2.88-.72h1v-.49a1.41,1.41,0,0,0-.3-.94,1.2,1.2,0,0,0-.95-.35,1.33,1.33,0,0,0-.9.28.94.94,0,0,0-.32.75h-2.26a2.26,2.26,0,0,1,.45-1.36,3,3,0,0,1,1.28-1,4.67,4.67,0,0,1,1.86-.36,3.64,3.64,0,0,1,2.48.79,2.7,2.7,0,0,1,.92,2.2v3.67a4.08,4.08,0,0,0,.34,1.82V17Zm-1.87-1.57a1.92,1.92,0,0,0,.92-.22,1.52,1.52,0,0,0,.63-.6V13.16h-.85q-1.69,0-1.8,1.17v.13a.92.92,0,0,0,.3.7A1.17,1.17,0,0,0,117.07,15.43Z"/><path class="cls-2" d="M122.73,9.49a1.12,1.12,0,0,1,.36-.87,1.25,1.25,0,0,1,.91-.34,1.28,1.28,0,0,1,.92.34,1.12,1.12,0,0,1,.36.87,1.14,1.14,0,0,1-.36.87,1.43,1.43,0,0,1-1.83,0A1.14,1.14,0,0,1,122.73,9.49Zm0,6.4a1.12,1.12,0,0,1,.36-.87,1.25,1.25,0,0,1,.91-.34,1.28,1.28,0,0,1,.92.34,1.12,1.12,0,0,1,.36.87,1.1,1.1,0,0,1-.36.86,1.4,1.4,0,0,1-1.83,0A1.1,1.1,0,0,1,122.73,15.89Z"/></g><g class="cls-1"><path class="cls-2" d="M133.48,5.62l3.72,9.29,3.72-9.29h2V17h-1.5V12.57l.14-4.78L137.77,17h-1.15L132.9,7.81l.15,4.76V17h-1.5V5.62Z"/><path class="cls-2" d="M148.8,17.16A3.71,3.71,0,0,1,146,16a4.2,4.2,0,0,1-1.08-3v-.27a5,5,0,0,1,.48-2.24A3.71,3.71,0,0,1,146.75,9a3.39,3.39,0,0,1,1.87-.56,3.14,3.14,0,0,1,2.56,1.09,4.69,4.69,0,0,1,.91,3.11v.6h-5.72a3,3,0,0,0,.73,2,2.3,2.3,0,0,0,1.78.77,2.49,2.49,0,0,0,1.29-.32,3,3,0,0,0,.93-.82l.88.68A3.54,3.54,0,0,1,148.8,17.16Zm-.18-7.58a1.92,1.92,0,0,0-1.47.63,3.13,3.13,0,0,0-.74,1.79h4.24v-.11a2.74,2.74,0,0,0-.6-1.71A1.81,1.81,0,0,0,148.62,9.58Z"/><path class="cls-2" d="M155.12,15.82h4.95V17h-6.71V15.94L158,9.74h-4.59V8.55h6.41v1Z"/><path class="cls-2" d="M165,16a2.07,2.07,0,0,0,1.35-.47,1.63,1.63,0,0,0,.64-1.17h1.37a2.64,2.64,0,0,1-.5,1.38,3.41,3.41,0,0,1-1.23,1,3.56,3.56,0,0,1-1.63.39A3.49,3.49,0,0,1,162.21,16a4.62,4.62,0,0,1-1-3.15v-.24a5.15,5.15,0,0,1,.45-2.2A3.44,3.44,0,0,1,163,8.92a3.71,3.71,0,0,1,2-.53,3.4,3.4,0,0,1,2.37.85,3.08,3.08,0,0,1,1,2.21H167a2,2,0,0,0-.62-1.34A1.89,1.89,0,0,0,165,9.58a2,2,0,0,0-1.7.79,3.68,3.68,0,0,0-.61,2.29v.28a3.67,3.67,0,0,0,.6,2.25A2.06,2.06,0,0,0,165,16Z"/><path class="cls-2" d="M171.52,17h-1.45V5h1.45Z"/><path class="cls-2" d="M179.05,17a3,3,0,0,1-.21-.89,3.21,3.21,0,0,1-2.4,1.05,3,3,0,0,1-2.05-.71,2.27,2.27,0,0,1-.8-1.79,2.38,2.38,0,0,1,1-2.05,4.71,4.71,0,0,1,2.82-.73h1.41v-.67a1.65,1.65,0,0,0-.45-1.21A1.84,1.84,0,0,0,177,9.55a2.08,2.08,0,0,0-1.3.4,1.13,1.13,0,0,0-.52.94h-1.45a2,2,0,0,1,.45-1.22,3,3,0,0,1,1.22-.94,4.05,4.05,0,0,1,1.69-.34,3.35,3.35,0,0,1,2.29.73,2.68,2.68,0,0,1,.86,2V15a4.77,4.77,0,0,0,.29,1.86V17Zm-2.4-1.1a2.61,2.61,0,0,0,1.29-.35,2.16,2.16,0,0,0,.88-.92V12.9h-1.13c-1.77,0-2.66.52-2.66,1.55a1.33,1.33,0,0,0,.45,1.07A1.79,1.79,0,0,0,176.65,15.9Z"/><path class="cls-2" d="M186.14,12.7a5,5,0,0,1,.92-3.13,3.14,3.14,0,0,1,4.77-.16V5h1.44V17H192l-.07-.91a3,3,0,0,1-2.42,1.07A2.88,2.88,0,0,1,187.07,16a5,5,0,0,1-.93-3.14Zm1.45.17a3.71,3.71,0,0,0,.59,2.25,1.92,1.92,0,0,0,1.64.81,2.11,2.11,0,0,0,2-1.23V10.81a2.13,2.13,0,0,0-2-1.19,1.93,1.93,0,0,0-1.66.82A4.07,4.07,0,0,0,187.59,12.87Z"/><path class="cls-2" d="M199,17.16A3.7,3.7,0,0,1,196.23,16a4.2,4.2,0,0,1-1.08-3v-.27a5,5,0,0,1,.48-2.24A3.76,3.76,0,0,1,197,9a3.41,3.41,0,0,1,1.87-.56,3.17,3.17,0,0,1,2.57,1.09,4.69,4.69,0,0,1,.91,3.11v.6h-5.73a3.05,3.05,0,0,0,.73,2,2.32,2.32,0,0,0,1.78.77,2.53,2.53,0,0,0,1.3-.32,3.27,3.27,0,0,0,.93-.82l.88.68A3.55,3.55,0,0,1,199,17.16Zm-.18-7.58a1.92,1.92,0,0,0-1.46.63,3.07,3.07,0,0,0-.74,1.79h4.24v-.11a2.87,2.87,0,0,0-.6-1.71A1.81,1.81,0,0,0,198.84,9.58Z"/></g></g><g class="cls-1"><g class="cls-1"><path class="cls-2" d="M170.6,41h-4.76l-1.07,3h-1.55l4.34-11.38h1.32L173.23,44h-1.54Zm-4.31-1.22h3.87l-1.94-5.32Z"/><path class="cls-2" d="M175.89,35.55l0,.93a3.11,3.11,0,0,1,2.51-1.09,2.41,2.41,0,0,1,2.41,1.36,3.15,3.15,0,0,1,1.1-1,3.24,3.24,0,0,1,1.6-.38c1.85,0,2.79,1,2.83,3V44h-1.45V38.42a2,2,0,0,0-.41-1.35,1.84,1.84,0,0,0-1.4-.45,1.91,1.91,0,0,0-1.33.48,1.93,1.93,0,0,0-.62,1.29V44h-1.45V38.46a1.61,1.61,0,0,0-1.81-1.84A1.93,1.93,0,0,0,176,37.83V44h-1.45V35.55Z"/><path class="cls-2" d="M193.77,44a3.1,3.1,0,0,1-.2-.89,3.21,3.21,0,0,1-2.41,1,3,3,0,0,1-2-.71,2.3,2.3,0,0,1-.8-1.79,2.38,2.38,0,0,1,1-2,4.71,4.71,0,0,1,2.82-.73h1.41v-.67a1.61,1.61,0,0,0-.46-1.21,1.8,1.8,0,0,0-1.33-.45,2.06,2.06,0,0,0-1.3.4,1.13,1.13,0,0,0-.52.94h-1.46a2,2,0,0,1,.45-1.22,3.05,3.05,0,0,1,1.22-.94,4.12,4.12,0,0,1,1.69-.34,3.32,3.32,0,0,1,2.29.73,2.65,2.65,0,0,1,.86,2V42a4.75,4.75,0,0,0,.3,1.86V44Zm-2.39-1.1a2.54,2.54,0,0,0,1.28-.35,2.18,2.18,0,0,0,.89-.92V39.9h-1.14c-1.77,0-2.65.52-2.65,1.55a1.33,1.33,0,0,0,.45,1.07A1.77,1.77,0,0,0,191.38,42.9Z"/><path class="cls-2" d="M201.34,36.84a5.16,5.16,0,0,0-.71-.05A1.9,1.9,0,0,0,198.7,38v6h-1.44V35.55h1.4l0,1a2.24,2.24,0,0,1,2-1.13,1.5,1.5,0,0,1,.64.11Z"/><path class="cls-2" d="M202.68,33.3a.87.87,0,0,1,.21-.59.83.83,0,0,1,.64-.24.82.82,0,0,1,.64.24.83.83,0,0,1,.22.59.78.78,0,0,1-.86.82.82.82,0,0,1-.64-.23A.85.85,0,0,1,202.68,33.3ZM204.24,44H202.8V35.55h1.44Z"/><path class="cls-2" d="M208.12,44h-1.44V32h1.44Z"/><path class="cls-2" d="M212,44h-1.45V32H212Z"/><path class="cls-2" d="M213.94,39.7a5,5,0,0,1,.49-2.24,3.56,3.56,0,0,1,1.36-1.53,3.68,3.68,0,0,1,2-.54,3.57,3.57,0,0,1,2.8,1.2,4.58,4.58,0,0,1,1.06,3.18v.1a5.08,5.08,0,0,1-.47,2.21,3.6,3.6,0,0,1-1.35,1.53,3.8,3.8,0,0,1-2,.55A3.55,3.55,0,0,1,215,43a4.58,4.58,0,0,1-1.06-3.16Zm1.45.17a3.62,3.62,0,0,0,.65,2.25,2.1,2.1,0,0,0,1.75.86,2.07,2.07,0,0,0,1.75-.87,4,4,0,0,0,.65-2.41,3.63,3.63,0,0,0-.66-2.26,2.12,2.12,0,0,0-1.76-.86,2.05,2.05,0,0,0-1.72.85A3.92,3.92,0,0,0,215.39,39.87Z"/></g></g><g class="cls-1"><g class="cls-1"><path class="cls-2" d="M89.49,39.4H86.82V44H85.31V32.62h3.77a4.51,4.51,0,0,1,3,.88,3.14,3.14,0,0,1,1,2.55,3.1,3.1,0,0,1-.57,1.85,3.52,3.52,0,0,1-1.6,1.18l2.67,4.83V44H92Zm-2.67-1.23h2.3a2.58,2.58,0,0,0,1.78-.58A2,2,0,0,0,91.56,36a2.07,2.07,0,0,0-.63-1.62,2.7,2.7,0,0,0-1.81-.57h-2.3Z"/><path class="cls-2" d="M94.56,39.7a5.08,5.08,0,0,1,.49-2.24,3.6,3.6,0,0,1,3.35-2.07,3.55,3.55,0,0,1,2.79,1.2,4.58,4.58,0,0,1,1.07,3.18v.1a5.08,5.08,0,0,1-.47,2.21,3.56,3.56,0,0,1-1.36,1.53,3.77,3.77,0,0,1-2,.55A3.55,3.55,0,0,1,95.63,43a4.58,4.58,0,0,1-1.07-3.16Zm1.46.17a3.56,3.56,0,0,0,.65,2.25,2.19,2.19,0,0,0,3.49,0,3.88,3.88,0,0,0,.65-2.41,3.63,3.63,0,0,0-.66-2.26,2.1,2.1,0,0,0-1.75-.86,2.07,2.07,0,0,0-1.73.85A3.92,3.92,0,0,0,96,39.87Z"/><path class="cls-2" d="M105.56,35.55V45c0,1.62-.73,2.43-2.21,2.43a2.5,2.5,0,0,1-.88-.14V46.12a2.34,2.34,0,0,0,.65.07,1,1,0,0,0,.74-.26,1.31,1.31,0,0,0,.26-.92V35.55ZM104,33.3a.91.91,0,0,1,.21-.59,1,1,0,0,1,1.27,0,.83.83,0,0,1,.22.59.78.78,0,0,1-.86.82.79.79,0,0,1-.63-.23A.85.85,0,0,1,104,33.3Z"/><path class="cls-2" d="M107.51,39.7a5,5,0,0,1,.49-2.24,3.56,3.56,0,0,1,1.36-1.53,3.68,3.68,0,0,1,2-.54,3.57,3.57,0,0,1,2.8,1.2,4.58,4.58,0,0,1,1.06,3.18v.1a4.94,4.94,0,0,1-.47,2.21,3.54,3.54,0,0,1-1.35,1.53,3.8,3.8,0,0,1-2,.55,3.57,3.57,0,0,1-2.79-1.2,4.58,4.58,0,0,1-1.06-3.16Zm1.45.17a3.62,3.62,0,0,0,.65,2.25,2.1,2.1,0,0,0,1.75.86,2.07,2.07,0,0,0,1.75-.87,4,4,0,0,0,.65-2.41,3.63,3.63,0,0,0-.66-2.26,2.12,2.12,0,0,0-1.76-.86,2.05,2.05,0,0,0-1.72.85A3.92,3.92,0,0,0,109,39.87Z"/></g></g><g class="cls-1"><text class="cls-3" transform="translate(121.09 46)">+</text></g><circle class="cls-4" cx="73.5" cy="39.5" r="7.5"/><circle class="cls-5" cx="152.5" cy="39.5" r="7.5"/><circle class="cls-6" cx="27" cy="27" r="27"/><g class="cls-1"><g class="cls-1"><path class="cls-2" d="M71.22,105.18l2.58-8.56h2.61l-4,11.38H70l-4-11.38h2.61Z"/><path class="cls-2" d="M81.22,108.16a4.16,4.16,0,0,1-3-1.14A4.08,4.08,0,0,1,77,104v-.22a5.09,5.09,0,0,1,.5-2.28,3.61,3.61,0,0,1,1.39-1.55A3.93,3.93,0,0,1,81,99.39a3.51,3.51,0,0,1,2.73,1.09,4.49,4.49,0,0,1,1,3.11v.92H79.31a2.2,2.2,0,0,0,.66,1.33,2,2,0,0,0,1.4.5,2.44,2.44,0,0,0,2-1l1.11,1.24a3.33,3.33,0,0,1-1.38,1.12A4.5,4.5,0,0,1,81.22,108.16Zm-.26-7a1.39,1.39,0,0,0-1.09.46,2.25,2.25,0,0,0-.53,1.3h3.14v-.18a1.71,1.71,0,0,0-.41-1.17A1.47,1.47,0,0,0,81,101.21Z"/><path class="cls-2" d="M90.73,101.66a6.46,6.46,0,0,0-.82-.06,1.66,1.66,0,0,0-1.68.87V108H86V99.55h2.13l.06,1a2.09,2.09,0,0,1,1.88-1.16,2.34,2.34,0,0,1,.71.1Z"/><path class="cls-2" d="M91.46,103.71a5.1,5.1,0,0,1,.89-3.15,2.87,2.87,0,0,1,2.42-1.17,2.58,2.58,0,0,1,2,.92V96h2.27v12H97l-.11-.9a2.67,2.67,0,0,1-2.17,1.06,2.88,2.88,0,0,1-2.4-1.18A5.25,5.25,0,0,1,91.46,103.71Zm2.26.17a3.38,3.38,0,0,0,.41,1.82,1.37,1.37,0,0,0,1.21.64,1.51,1.51,0,0,0,1.47-.89v-3.34a1.49,1.49,0,0,0-1.46-.88C94.26,101.23,93.72,102.11,93.72,103.88Z"/><path class="cls-2" d="M104.72,108.16a4.16,4.16,0,0,1-3-1.14,4.08,4.08,0,0,1-1.17-3v-.22a5.09,5.09,0,0,1,.5-2.28,3.61,3.61,0,0,1,1.39-1.55,3.93,3.93,0,0,1,2.06-.54,3.51,3.51,0,0,1,2.73,1.09,4.49,4.49,0,0,1,1,3.11v.92h-5.39a2.2,2.2,0,0,0,.66,1.33,2,2,0,0,0,1.4.5,2.44,2.44,0,0,0,2-1l1.11,1.24a3.33,3.33,0,0,1-1.38,1.12A4.5,4.5,0,0,1,104.72,108.16Zm-.26-7a1.39,1.39,0,0,0-1.09.46,2.25,2.25,0,0,0-.53,1.3H106v-.18a1.71,1.71,0,0,0-.41-1.17A1.47,1.47,0,0,0,104.46,101.21Z"/><path class="cls-2" d="M109.59,100.49a1.12,1.12,0,0,1,.36-.87,1.25,1.25,0,0,1,.91-.34,1.28,1.28,0,0,1,.92.34,1.12,1.12,0,0,1,.36.87,1.14,1.14,0,0,1-.36.87,1.31,1.31,0,0,1-.92.33,1.27,1.27,0,0,1-.91-.33A1.14,1.14,0,0,1,109.59,100.49Zm0,6.4A1.12,1.12,0,0,1,110,106a1.25,1.25,0,0,1,.91-.34,1.28,1.28,0,0,1,.92.34,1.12,1.12,0,0,1,.36.87,1.1,1.1,0,0,1-.36.86,1.28,1.28,0,0,1-.92.34,1.24,1.24,0,0,1-.91-.34A1.1,1.1,0,0,1,109.59,106.89Z"/></g><g class="cls-1"><path class="cls-2" d="M120.34,96.62l3.72,9.29,3.72-9.29h1.95V108h-1.5v-4.43l.14-4.78L124.63,108h-1.15l-3.72-9.19.15,4.76V108h-1.5V96.62Z"/><path class="cls-2" d="M135.66,108.16a3.71,3.71,0,0,1-2.8-1.13,4.2,4.2,0,0,1-1.08-3v-.27a5,5,0,0,1,.48-2.24,3.71,3.71,0,0,1,1.35-1.55,3.36,3.36,0,0,1,1.87-.56,3.14,3.14,0,0,1,2.56,1.09,4.69,4.69,0,0,1,.91,3.11v.6h-5.72a3,3,0,0,0,.73,2,2.3,2.3,0,0,0,1.77.77,2.5,2.5,0,0,0,1.3-.32,3.14,3.14,0,0,0,.93-.82l.88.68A3.55,3.55,0,0,1,135.66,108.16Zm-.18-7.58a1.92,1.92,0,0,0-1.47.63,3.13,3.13,0,0,0-.74,1.79h4.24v-.11a2.74,2.74,0,0,0-.6-1.71A1.81,1.81,0,0,0,135.48,100.58Z"/><path class="cls-2" d="M142,106.82h5V108h-6.71v-1.06l4.66-6.2h-4.59V99.55h6.41v1Z"/><path class="cls-2" d="M151.82,107a2.07,2.07,0,0,0,1.35-.47,1.63,1.63,0,0,0,.64-1.17h1.37a2.64,2.64,0,0,1-.5,1.38,3.41,3.41,0,0,1-1.23,1,3.56,3.56,0,0,1-1.63.39,3.49,3.49,0,0,1-2.75-1.16,4.57,4.57,0,0,1-1-3.15v-.24a5.15,5.15,0,0,1,.46-2.2,3.44,3.44,0,0,1,1.3-1.49,3.71,3.71,0,0,1,2-.53,3.4,3.4,0,0,1,2.37.85,3.08,3.08,0,0,1,1,2.21h-1.37a2,2,0,0,0-.62-1.34,1.89,1.89,0,0,0-1.38-.53,2,2,0,0,0-1.7.79,3.68,3.68,0,0,0-.61,2.29v.28a3.67,3.67,0,0,0,.6,2.25A2.06,2.06,0,0,0,151.82,107Z"/><path class="cls-2" d="M158.38,108h-1.45V96h1.45Z"/><path class="cls-2" d="M165.91,108a2.73,2.73,0,0,1-.21-.89,3.21,3.21,0,0,1-2.4,1,3,3,0,0,1-2.05-.71,2.27,2.27,0,0,1-.8-1.79,2.38,2.38,0,0,1,1-2,4.71,4.71,0,0,1,2.82-.73h1.41v-.67a1.65,1.65,0,0,0-.45-1.21,1.84,1.84,0,0,0-1.34-.45,2.08,2.08,0,0,0-1.3.4,1.13,1.13,0,0,0-.52.94h-1.45a2,2,0,0,1,.45-1.22,3,3,0,0,1,1.22-.94,4.05,4.05,0,0,1,1.69-.34,3.35,3.35,0,0,1,2.29.73,2.64,2.64,0,0,1,.85,2V106a4.75,4.75,0,0,0,.3,1.86V108Zm-2.4-1.1a2.61,2.61,0,0,0,1.29-.35,2.16,2.16,0,0,0,.88-.92V103.9h-1.13c-1.77,0-2.66.52-2.66,1.55a1.33,1.33,0,0,0,.45,1.07A1.79,1.79,0,0,0,163.51,106.9Z"/><path class="cls-2" d="M173,103.7a5,5,0,0,1,.92-3.13,3.14,3.14,0,0,1,4.77-.16V96h1.44v12H178.8l-.07-.91a2.93,2.93,0,0,1-2.41,1.07,2.88,2.88,0,0,1-2.39-1.21,5,5,0,0,1-.93-3.14Zm1.45.17a3.71,3.71,0,0,0,.59,2.25,1.91,1.91,0,0,0,1.64.81,2.11,2.11,0,0,0,2-1.23v-3.89a2.14,2.14,0,0,0-2-1.19,1.92,1.92,0,0,0-1.66.82A4.07,4.07,0,0,0,174.45,103.87Z"/><path class="cls-2" d="M185.88,108.16a3.68,3.68,0,0,1-2.79-1.13,4.2,4.2,0,0,1-1.08-3v-.27a5,5,0,0,1,.48-2.24,3.76,3.76,0,0,1,1.34-1.55,3.41,3.41,0,0,1,1.87-.56,3.17,3.17,0,0,1,2.57,1.09,4.69,4.69,0,0,1,.91,3.11v.6h-5.73a3.05,3.05,0,0,0,.73,2A2.32,2.32,0,0,0,186,107a2.53,2.53,0,0,0,1.3-.32,3.27,3.27,0,0,0,.93-.82l.88.68A3.55,3.55,0,0,1,185.88,108.16Zm-.18-7.58a2,2,0,0,0-1.47.63,3.13,3.13,0,0,0-.73,1.79h4.23v-.11a2.8,2.8,0,0,0-.59-1.71A1.81,1.81,0,0,0,185.7,100.58Z"/></g></g><g class="cls-1"><g class="cls-1"><path class="cls-2" d="M170.6,132h-4.76l-1.07,3h-1.55l4.34-11.38h1.32L173.23,135h-1.54Zm-4.31-1.22h3.87l-1.94-5.32Z"/><path class="cls-2" d="M175.89,126.55l0,.93a3.11,3.11,0,0,1,2.51-1.09,2.41,2.41,0,0,1,2.41,1.36,3.15,3.15,0,0,1,1.1-1,3.24,3.24,0,0,1,1.6-.38c1.85,0,2.79,1,2.83,3V135h-1.45v-5.58a2,2,0,0,0-.41-1.35,1.84,1.84,0,0,0-1.4-.45,1.91,1.91,0,0,0-1.33.48,1.93,1.93,0,0,0-.62,1.29V135h-1.45v-5.54a1.61,1.61,0,0,0-1.81-1.84,1.93,1.93,0,0,0-1.94,1.21V135h-1.45v-8.45Z"/><path class="cls-2" d="M193.77,135a3.1,3.1,0,0,1-.2-.89,3.21,3.21,0,0,1-2.41,1,3,3,0,0,1-2-.71,2.3,2.3,0,0,1-.8-1.79,2.38,2.38,0,0,1,1-2,4.71,4.71,0,0,1,2.82-.73h1.41v-.67a1.61,1.61,0,0,0-.46-1.21,1.8,1.8,0,0,0-1.33-.45,2.06,2.06,0,0,0-1.3.4,1.13,1.13,0,0,0-.52.94h-1.46a2,2,0,0,1,.45-1.22,3.05,3.05,0,0,1,1.22-.94,4.12,4.12,0,0,1,1.69-.34,3.32,3.32,0,0,1,2.29.73,2.65,2.65,0,0,1,.86,2V133a4.75,4.75,0,0,0,.3,1.86V135Zm-2.39-1.1a2.54,2.54,0,0,0,1.28-.35,2.18,2.18,0,0,0,.89-.92V130.9h-1.14c-1.77,0-2.65.52-2.65,1.55a1.33,1.33,0,0,0,.45,1.07A1.77,1.77,0,0,0,191.38,133.9Z"/><path class="cls-2" d="M201.34,127.84a5.16,5.16,0,0,0-.71,0A1.9,1.9,0,0,0,198.7,129v6h-1.44v-8.45h1.4l0,1a2.24,2.24,0,0,1,2-1.13,1.5,1.5,0,0,1,.64.11Z"/><path class="cls-2" d="M202.68,124.3a.87.87,0,0,1,.21-.59.83.83,0,0,1,.64-.24.82.82,0,0,1,.64.24.83.83,0,0,1,.22.59.78.78,0,0,1-.86.82.82.82,0,0,1-.64-.23A.85.85,0,0,1,202.68,124.3Zm1.56,10.7H202.8v-8.45h1.44Z"/><path class="cls-2" d="M208.12,135h-1.44V123h1.44Z"/><path class="cls-2" d="M212,135h-1.45V123H212Z"/><path class="cls-2" d="M213.94,130.7a5,5,0,0,1,.49-2.24,3.56,3.56,0,0,1,1.36-1.53,3.68,3.68,0,0,1,2-.54,3.57,3.57,0,0,1,2.8,1.2,4.58,4.58,0,0,1,1.06,3.18v.1a5.08,5.08,0,0,1-.47,2.21,3.6,3.6,0,0,1-1.35,1.53,3.8,3.8,0,0,1-2,.55A3.55,3.55,0,0,1,215,134a4.58,4.58,0,0,1-1.06-3.16Zm1.45.17a3.62,3.62,0,0,0,.65,2.25,2.1,2.1,0,0,0,1.75.86,2.07,2.07,0,0,0,1.75-.87,4,4,0,0,0,.65-2.41,3.63,3.63,0,0,0-.66-2.26,2.12,2.12,0,0,0-1.76-.86,2.05,2.05,0,0,0-1.72.85A3.92,3.92,0,0,0,215.39,130.87Z"/></g></g><g class="cls-1"><g class="cls-1"><path class="cls-2" d="M91.6,132H86.84l-1.07,3H84.22l4.34-11.38h1.32L94.23,135H92.69Zm-4.31-1.22h3.87l-1.94-5.32Z"/><path class="cls-2" d="M97,133.82h5V135H95.22v-1.06l4.66-6.2H95.29v-1.19h6.41v1Z"/><path class="cls-2" d="M108.77,134.16a3,3,0,0,1-2.47,1,2.64,2.64,0,0,1-2.06-.79,3.42,3.42,0,0,1-.72-2.32v-5.5H105V132q0,1.92,1.56,1.92a2.15,2.15,0,0,0,2.2-1.23v-6.15h1.45V135H108.8Z"/><path class="cls-2" d="M114,135H112.5V123H114Z"/></g></g><g class="cls-1"><text class="cls-3" transform="translate(121.09 137)">+</text></g><circle class="cls-7" cx="73.5" cy="130.5" r="7.5"/><circle class="cls-5" cx="152.5" cy="130.5" r="7.5"/><circle class="cls-8" cx="27" cy="118" r="27"/><g class="cls-1"><g class="cls-1"><path class="cls-2" d="M71.22,201.18l2.58-8.56h2.61l-4,11.38H70l-4-11.38h2.61Z"/><path class="cls-2" d="M77.31,193.36a1.15,1.15,0,0,1,.34-.84,1.5,1.5,0,0,1,1.85,0,1.21,1.21,0,0,1,0,1.68,1.3,1.3,0,0,1-.92.33,1.28,1.28,0,0,1-.92-.33A1.12,1.12,0,0,1,77.31,193.36ZM79.71,204H77.45v-8.45h2.26Z"/><path class="cls-2" d="M81.22,199.7a5.09,5.09,0,0,1,.48-2.25,3.61,3.61,0,0,1,1.4-1.52,4,4,0,0,1,2.11-.54A3.83,3.83,0,0,1,88,196.44a4.14,4.14,0,0,1,1.21,2.84l0,.58A4.42,4.42,0,0,1,88.14,203a4.19,4.19,0,0,1-5.83,0,4.47,4.47,0,0,1-1.09-3.18Zm2.26.16a3.19,3.19,0,0,0,.45,1.84,1.63,1.63,0,0,0,2.58,0,3.54,3.54,0,0,0,.46-2,3.17,3.17,0,0,0-.46-1.83,1.51,1.51,0,0,0-1.3-.65,1.48,1.48,0,0,0-1.28.65A3.52,3.52,0,0,0,83.48,199.86Z"/><path class="cls-2" d="M93,204H90.73V192H93Z"/><path class="cls-2" d="M98.75,204.16a4.16,4.16,0,0,1-3-1.14,4.08,4.08,0,0,1-1.17-3v-.22a5.09,5.09,0,0,1,.5-2.28,3.67,3.67,0,0,1,1.39-1.55,3.93,3.93,0,0,1,2.06-.54,3.49,3.49,0,0,1,2.73,1.09,4.49,4.49,0,0,1,1,3.11v.92H96.84a2.2,2.2,0,0,0,.66,1.33,2,2,0,0,0,1.4.5,2.44,2.44,0,0,0,2-1l1.11,1.24a3.33,3.33,0,0,1-1.38,1.12A4.5,4.5,0,0,1,98.75,204.16Zm-.26-6.95a1.39,1.39,0,0,0-1.09.46,2.32,2.32,0,0,0-.53,1.3H100v-.18a1.71,1.71,0,0,0-.41-1.17A1.47,1.47,0,0,0,98.49,197.21Z"/><path class="cls-2" d="M106.21,193.47v2.08h1.45v1.65h-1.45v4.22a1,1,0,0,0,.18.67.89.89,0,0,0,.69.21,3.23,3.23,0,0,0,.66-.06V204a4.49,4.49,0,0,1-1.36.21,2.16,2.16,0,0,1-2.43-2.4V197.2h-1.23v-1.65H104v-2.08Z"/><path class="cls-2" d="M113.81,204a2.44,2.44,0,0,1-.22-.76,2.75,2.75,0,0,1-2.14.92,3,3,0,0,1-2.06-.72,2.33,2.33,0,0,1-.81-1.82,2.4,2.4,0,0,1,1-2.06,4.9,4.9,0,0,1,2.88-.72h1v-.49a1.41,1.41,0,0,0-.3-.94,1.2,1.2,0,0,0-1-.35,1.28,1.28,0,0,0-.89.28.92.92,0,0,0-.33.75h-2.25a2.26,2.26,0,0,1,.45-1.36,2.91,2.91,0,0,1,1.28-1,4.61,4.61,0,0,1,1.86-.36,3.66,3.66,0,0,1,2.48.79,2.73,2.73,0,0,1,.92,2.2v3.67a4.1,4.1,0,0,0,.33,1.82V204ZM112,202.43a1.92,1.92,0,0,0,.92-.22,1.44,1.44,0,0,0,.62-.6v-1.45h-.84c-1.13,0-1.73.39-1.81,1.17v.13a.91.91,0,0,0,.29.7A1.18,1.18,0,0,0,112,202.43Z"/><path class="cls-2" d="M117.6,196.49a1.12,1.12,0,0,1,.36-.87,1.29,1.29,0,0,1,.92-.34,1.27,1.27,0,0,1,.91.34,1.1,1.1,0,0,1,.37.87,1.14,1.14,0,0,1-.36.87,1.31,1.31,0,0,1-.92.33,1.3,1.3,0,0,1-.92-.33A1.14,1.14,0,0,1,117.6,196.49Zm0,6.4A1.12,1.12,0,0,1,118,202a1.29,1.29,0,0,1,.92-.34,1.27,1.27,0,0,1,.91.34,1.21,1.21,0,0,1,0,1.73,1.28,1.28,0,0,1-.92.34,1.26,1.26,0,0,1-.92-.34A1.1,1.1,0,0,1,117.6,202.89Z"/></g><g class="cls-1"><path class="cls-2" d="M128.36,192.62l3.72,9.29,3.72-9.29h1.94V204h-1.5v-4.43l.14-4.78L132.65,204H131.5l-3.73-9.19.15,4.76V204h-1.5V192.62Z"/><path class="cls-2" d="M143.67,204.16a3.68,3.68,0,0,1-2.79-1.13,4.2,4.2,0,0,1-1.08-3v-.27a5,5,0,0,1,.48-2.24,3.69,3.69,0,0,1,1.34-1.55,3.41,3.41,0,0,1,1.87-.56,3.13,3.13,0,0,1,2.56,1.09,4.69,4.69,0,0,1,.92,3.11v.6h-5.73a3.05,3.05,0,0,0,.73,2,2.32,2.32,0,0,0,1.78.77,2.53,2.53,0,0,0,1.3-.32,3.27,3.27,0,0,0,.93-.82l.88.68A3.55,3.55,0,0,1,143.67,204.16Zm-.18-7.58a2,2,0,0,0-1.47.63,3.13,3.13,0,0,0-.73,1.79h4.23v-.11a2.8,2.8,0,0,0-.59-1.71A1.81,1.81,0,0,0,143.49,196.58Z"/><path class="cls-2" d="M150,202.82H155V204h-6.72v-1.06l4.67-6.2h-4.6v-1.19h6.41v1Z"/><path class="cls-2" d="M159.84,203a2.11,2.11,0,0,0,1.35-.47,1.67,1.67,0,0,0,.64-1.17h1.37a2.73,2.73,0,0,1-.5,1.38,3.36,3.36,0,0,1-1.24,1.05,3.52,3.52,0,0,1-1.62.39,3.48,3.48,0,0,1-2.75-1.16,4.57,4.57,0,0,1-1-3.15v-.24a5.15,5.15,0,0,1,.45-2.2,3.57,3.57,0,0,1,1.3-1.49,3.77,3.77,0,0,1,2-.53,3.37,3.37,0,0,1,2.36.85,3.08,3.08,0,0,1,1,2.21h-1.37a2,2,0,0,0-.62-1.34,1.91,1.91,0,0,0-1.38-.53,2,2,0,0,0-1.71.79,3.74,3.74,0,0,0-.6,2.29v.28a3.67,3.67,0,0,0,.6,2.25A2,2,0,0,0,159.84,203Z"/><path class="cls-2" d="M166.39,204H165V192h1.44Z"/><path class="cls-2" d="M173.92,204a3.1,3.1,0,0,1-.2-.89,3.23,3.23,0,0,1-2.41,1,3,3,0,0,1-2.05-.71,2.3,2.3,0,0,1-.8-1.79,2.38,2.38,0,0,1,1-2,4.74,4.74,0,0,1,2.83-.73h1.41v-.67a1.65,1.65,0,0,0-.46-1.21,1.81,1.81,0,0,0-1.33-.45,2.06,2.06,0,0,0-1.3.4,1.13,1.13,0,0,0-.52.94h-1.46a2,2,0,0,1,.45-1.22,3.05,3.05,0,0,1,1.22-.94,4.08,4.08,0,0,1,1.69-.34,3.32,3.32,0,0,1,2.29.73,2.65,2.65,0,0,1,.86,2V202a4.75,4.75,0,0,0,.3,1.86V204Zm-2.4-1.1a2.55,2.55,0,0,0,1.29-.35,2.18,2.18,0,0,0,.89-.92V199.9h-1.14c-1.77,0-2.65.52-2.65,1.55a1.33,1.33,0,0,0,.45,1.07A1.76,1.76,0,0,0,171.52,202.9Z"/><path class="cls-2" d="M181,199.7a4.94,4.94,0,0,1,.92-3.13,3.13,3.13,0,0,1,4.76-.16V192h1.45v12h-1.33l-.07-.91a3.11,3.11,0,0,1-4.81-.14,5,5,0,0,1-.92-3.14Zm1.44.17a3.78,3.78,0,0,0,.59,2.25,1.94,1.94,0,0,0,1.65.81,2.1,2.1,0,0,0,2-1.23v-3.89a2.12,2.12,0,0,0-2-1.19,1.93,1.93,0,0,0-1.66.82A4.14,4.14,0,0,0,182.46,199.87Z"/><path class="cls-2" d="M193.9,204.16a3.71,3.71,0,0,1-2.8-1.13,4.2,4.2,0,0,1-1.08-3v-.27a5,5,0,0,1,.48-2.24,3.71,3.71,0,0,1,1.35-1.55,3.39,3.39,0,0,1,1.87-.56,3.14,3.14,0,0,1,2.56,1.09,4.69,4.69,0,0,1,.92,3.11v.6h-5.73a3,3,0,0,0,.73,2A2.32,2.32,0,0,0,194,203a2.47,2.47,0,0,0,1.29-.32,3,3,0,0,0,.93-.82l.89.68A3.57,3.57,0,0,1,193.9,204.16Zm-.18-7.58a1.94,1.94,0,0,0-1.47.63,3.06,3.06,0,0,0-.73,1.79h4.23v-.11a2.8,2.8,0,0,0-.59-1.71A1.84,1.84,0,0,0,193.72,196.58Z"/></g></g><g class="cls-1"><g class="cls-1"><path class="cls-2" d="M170.6,228h-4.76l-1.07,3h-1.55l4.34-11.38h1.32L173.23,231h-1.54Zm-4.31-1.22h3.87l-1.94-5.32Z"/><path class="cls-2" d="M176,229.82h5V231h-6.71v-1.06l4.66-6.2h-4.59v-1.19h6.41v1Z"/><path class="cls-2" d="M187.77,230.16a3,3,0,0,1-2.47,1,2.64,2.64,0,0,1-2.06-.79,3.42,3.42,0,0,1-.72-2.32v-5.5H184V228q0,1.92,1.56,1.92a2.16,2.16,0,0,0,2.2-1.23v-6.15h1.45V231H187.8Z"/><path class="cls-2" d="M193,231H191.5V219H193Z"/></g></g><g class="cls-1"><g class="cls-1"><path class="cls-2" d="M89.49,226.4H86.82V231H85.31V219.62h3.77a4.51,4.51,0,0,1,3,.88,3.14,3.14,0,0,1,1,2.55,3.1,3.1,0,0,1-.57,1.85,3.52,3.52,0,0,1-1.6,1.18l2.67,4.83V231H92Zm-2.67-1.23h2.3a2.58,2.58,0,0,0,1.78-.58,2,2,0,0,0,.66-1.55,2.07,2.07,0,0,0-.63-1.62,2.7,2.7,0,0,0-1.81-.57h-2.3Z"/><path class="cls-2" d="M94.56,226.7a5.08,5.08,0,0,1,.49-2.24,3.6,3.6,0,0,1,3.35-2.07,3.55,3.55,0,0,1,2.79,1.2,4.58,4.58,0,0,1,1.07,3.18v.1a5.08,5.08,0,0,1-.47,2.21,3.56,3.56,0,0,1-1.36,1.53,3.77,3.77,0,0,1-2,.55,3.55,3.55,0,0,1-2.78-1.2,4.58,4.58,0,0,1-1.07-3.16Zm1.46.17a3.56,3.56,0,0,0,.65,2.25,2.19,2.19,0,0,0,3.49,0,3.88,3.88,0,0,0,.65-2.41,3.63,3.63,0,0,0-.66-2.26,2.1,2.1,0,0,0-1.75-.86,2.07,2.07,0,0,0-1.73.85A3.92,3.92,0,0,0,96,226.87Z"/><path class="cls-2" d="M105.56,222.55V232c0,1.62-.73,2.43-2.21,2.43a2.5,2.5,0,0,1-.88-.14v-1.15a2.34,2.34,0,0,0,.65.07,1,1,0,0,0,.74-.26,1.31,1.31,0,0,0,.26-.92v-9.46ZM104,220.3a.91.91,0,0,1,.21-.59,1,1,0,0,1,1.27,0,.83.83,0,0,1,.22.59.78.78,0,0,1-.86.82.79.79,0,0,1-.63-.23A.85.85,0,0,1,104,220.3Z"/><path class="cls-2" d="M107.51,226.7a5,5,0,0,1,.49-2.24,3.56,3.56,0,0,1,1.36-1.53,3.68,3.68,0,0,1,2-.54,3.57,3.57,0,0,1,2.8,1.2,4.58,4.58,0,0,1,1.06,3.18v.1a4.94,4.94,0,0,1-.47,2.21,3.54,3.54,0,0,1-1.35,1.53,3.8,3.8,0,0,1-2,.55,3.57,3.57,0,0,1-2.79-1.2,4.58,4.58,0,0,1-1.06-3.16Zm1.45.17a3.62,3.62,0,0,0,.65,2.25,2.1,2.1,0,0,0,1.75.86,2.07,2.07,0,0,0,1.75-.87,4,4,0,0,0,.65-2.41,3.63,3.63,0,0,0-.66-2.26,2.12,2.12,0,0,0-1.76-.86,2.05,2.05,0,0,0-1.72.85A3.92,3.92,0,0,0,109,226.87Z"/></g></g><g class="cls-1"><text class="cls-3" transform="translate(121.09 233)">+</text></g><circle class="cls-4" cx="73.5" cy="226.5" r="7.5"/><circle class="cls-7" cx="152.5" cy="226.5" r="7.5"/><circle class="cls-9" cx="27" cy="214" r="27"/></svg>