<svg xmlns="http://www.w3.org/2000/svg" width="84.808" height="40.782" viewBox="0 0 84.808 40.782"><g transform="translate(-1237.609 -2935.148)"><g transform="translate(1281.635 2935.148)" fill="none" stroke="#47286d" stroke-width="2"><rect width="40.782" height="40.782" rx="6" stroke="none"/><rect x="1" y="1" width="38.782" height="38.782" rx="5" fill="none"/></g><g transform="translate(1238.109 2935.688)"><g transform="translate(15.232 25.306)"><path d="M2295.884,659.383h-19.789a.7.7,0,0,1,0-1.394h19.79a.7.7,0,0,1,0,1.394Z" transform="translate(-2275.397 -657.989)" fill="#47286d" stroke="#47286d" stroke-width="1"/></g><g transform="translate(23.467 4.981)"><path d="M2296.515,647.367h-13.959a.7.7,0,0,1,0-1.394h13.959a.7.7,0,0,1,0,1.394Z" transform="translate(-2281.86 -645.973)" fill="#47286d" stroke="#47286d" stroke-width="1"/></g><g transform="translate(29.609 20.491)"><path d="M2297.9,653.807h-5.165a.7.7,0,0,1,0-1.393h5.168a.7.7,0,1,1,0,1.393Z" transform="translate(-2292.04 -652.415)" fill="#47286d" stroke="#47286d" stroke-width="1"/></g><g transform="translate(0 20.491)"><path d="M2292.625,653.807h-26.287a.721.721,0,1,1,0-1.393h26.288a.722.722,0,1,1,0,1.393Z" transform="translate(-2265.428 -652.415)" fill="#47286d" stroke="#47286d" stroke-width="1"/></g><g transform="translate(14.441 0)"><path d="M2295.093,641.6h-22.985a.7.7,0,0,1,0-1.392h22.986a.7.7,0,1,1,0,1.392Z" transform="translate(-2271.412 -640.208)" fill="#47286d" stroke="#47286d" stroke-width="1"/></g></g></g></svg>