<svg xmlns="http://www.w3.org/2000/svg" width="776.326" height="589.112" viewBox="0 0 776.326 589.112"><g transform="translate(-62.058 -279.149)"><path d="M519.041,695.182h-46.8a28.736,28.736,0,0,1-47.718,0h-46.8a7.012,7.012,0,0,0-7.013,7.012v30.691a7.012,7.012,0,0,0,7.013,7.012H519.041a7.011,7.011,0,0,0,7.012-7.012V702.194A7.011,7.011,0,0,0,519.041,695.182Z" fill="#f9e478" opacity="0.25"/><path d="M301.627,810.2H187.218a15.934,15.934,0,0,1-15.933-15.933V591.984" fill="none" stroke="#666" stroke-miterlimit="10" stroke-width="1"/><path d="M729.216,591.984v202.28A15.934,15.934,0,0,1,713.283,810.2H573.766" fill="none" stroke="#666" stroke-miterlimit="10" stroke-width="1"/><path d="M330.241,801.164l-2.348,2.347,5.024,5.025H319.256v3.322h13.661l-5.024,5.024,2.348,2.348,9.034-9.033Z" fill="#18b8c4"/><rect width="5.235" height="3.322" transform="translate(311.19 808.536)" fill="#18b8c4"/><rect width="2.758" height="3.322" transform="translate(305.35 808.536)" fill="#18b8c4"/><path d="M545.232,819.23l2.348-2.347-5.024-5.025h13.662v-3.322H542.555l5.024-5.024-2.348-2.348L536.2,810.2Z" fill="#18b8c4"/><rect width="5.235" height="3.322" transform="translate(559.049 808.536)" fill="#18b8c4"/><rect width="2.758" height="3.322" transform="translate(567.364 808.536)" fill="#18b8c4"/><text transform="translate(419.857 726.528)" fill="#2d2d2d" font-size="18" font-family="Roboto-Bold, Roboto" font-weight="700" opacity="0.9"><tspan x="0" y="0">Código</tspan></text><circle cx="15.895" cy="15.895" r="15.895" transform="translate(432.483 663.26)" fill="#f9e478"/><g opacity="0.25"><path d="M804.862,541.437H660.685a28.721,28.721,0,0,1,0,44.716H804.862a6.322,6.322,0,0,0,6.322-6.322V547.759A6.322,6.322,0,0,0,804.862,541.437Z" fill="#f17781"/></g><circle cx="15.895" cy="15.895" r="15.895" transform="translate(626.75 547.9)" fill="#f17781"/><text transform="translate(681.065 571.755)" fill="#2d2d2d" font-size="18" font-family="Roboto-Bold, Roboto" font-weight="700" opacity="0.9"><tspan x="0" y="0">Receptor</tspan></text><g opacity="0.25"><path d="M95.661,541.437H239.839a28.719,28.719,0,0,0,0,44.716H95.661a6.322,6.322,0,0,1-6.322-6.322V547.759A6.322,6.322,0,0,1,95.661,541.437Z" fill="#bb83ff"/></g><circle cx="15.895" cy="15.895" r="15.895" transform="translate(241.983 547.9)" fill="#bb83ff"/><path d="M693.6,430.694c.594,1.537-.426,3.216-1.571,4.4s-2.531,2.316-2.89,3.924c-.3,1.35.2,2.756.076,4.134a19.2,19.2,0,0,1-1.315,4.024,13.228,13.228,0,0,0,.23,7.571,13.994,13.994,0,0,0,2.819,5.58,7.43,7.43,0,0,0,5.512,2.638,2.163,2.163,0,0,0,1.629-.589,2.6,2.6,0,0,0,.471-1.446,141,141,0,0,0,0-31.864" fill="#1a2e35"/><path d="M694.712,464.817a8.459,8.459,0,0,0-8.437,8.743,9.741,9.741,0,0,0-7,10.907,36.207,36.207,0,0,1,1.08,4.586,20.3,20.3,0,0,1-.835,5.063,15.961,15.961,0,0,0,.914,9.127c.723,1.741,2.067,3.538,3.951,3.592a3.876,3.876,0,0,0,3.174-1.856,9.792,9.792,0,0,0,1.275-3.593c.816-4.108,1.061-8.331,2.188-12.365s3.317-8.009,6.966-10.065c2.016-1.135,4.435-1.671,6.036-3.342a6.56,6.56,0,0,0,1.185-6.783,8.649,8.649,0,0,0-5.155-4.812" fill="#1a2e35"/><path d="M726.381,434.461c.056-1.955-1.752-3.465-3.572-4.181s-3.842-.986-5.464-2.078c-1.437-.966-2.4-2.474-3.618-3.707a12.036,12.036,0,0,0-20.243,5.523c-.7,2.784-.222,6.075,1.972,7.925,2.547,2.147,6.323,1.67,9.586,1s6.957-1.327,9.681.59c1.643,1.155,2.585,3.035,3.589,4.775s2.265,3.516,4.165,4.17,4.478-.475,4.552-2.483" fill="#1a2e35"/><path d="M718.672,434.862a3.271,3.271,0,0,1,2.919,3.325h0L719.64,482.36c-.082,5.217-7.708,8.148-13.293,8.018h0c-5.641-.131-5.823-2.9-5.893-7.861-.118-8.292-.108-11.4-.112-11.357,0,0-7.125-1.2-8.581-10.5-.724-4.627-.475-12.209-.071-18.406.364-5.579,4.076-12.416,9.634-11.815Z" fill="#ffbf9d"/><path d="M693.294,448.09a1.193,1.193,0,0,0,1.148,1.206,1.139,1.139,0,0,0,1.231-1.072,1.193,1.193,0,0,0-1.146-1.207A1.142,1.142,0,0,0,693.294,448.09Z" fill="#1a2e35"/><path d="M693.327,446.2c.147.156,1.052-.511,2.336-.505,1.282-.012,2.222.65,2.362.494.068-.07-.082-.351-.491-.651a3.279,3.279,0,0,0-1.891-.587,3.146,3.146,0,0,0-1.859.6C693.388,445.849,693.254,446.13,693.327,446.2Z" fill="#1a2e35"/><path d="M705.626,448.09a1.192,1.192,0,0,0,1.147,1.206,1.14,1.14,0,0,0,1.232-1.072,1.193,1.193,0,0,0-1.146-1.207A1.142,1.142,0,0,0,705.626,448.09Z" fill="#1a2e35"/><path d="M705.941,446.467c.148.156,1.054-.511,2.337-.5,1.282-.013,2.222.65,2.362.493.068-.07-.08-.35-.491-.65a3.279,3.279,0,0,0-1.891-.588,3.152,3.152,0,0,0-1.86.6C706,446.116,705.869,446.4,705.941,446.467Z" fill="#1a2e35"/><path d="M701.263,455.975a8.485,8.485,0,0,0-2.084-.381c-.328-.035-.638-.1-.692-.324a1.669,1.669,0,0,1,.22-.971l.975-2.493a42.762,42.762,0,0,0,2.191-6.523,43.087,43.087,0,0,0-2.711,6.331q-.488,1.313-.934,2.508a1.891,1.891,0,0,0-.172,1.286.819.819,0,0,0,.537.48,2.208,2.208,0,0,0,.557.079A8.355,8.355,0,0,0,701.263,455.975Z" fill="#1a2e35"/><path d="M700.342,471.16a23.659,23.659,0,0,0,12.462-3.3s-3.035,6.382-12.341,5.491Z" fill="#ff9a6c"/><path d="M701.8,459.069a2.31,2.31,0,0,1,2.075-.854,2.11,2.11,0,0,1,1.456.785,1.338,1.338,0,0,1,.1,1.53,1.55,1.55,0,0,1-1.683.421,4.831,4.831,0,0,1-1.638-.982,1.42,1.42,0,0,1-.366-.38.43.43,0,0,1,0-.478" fill="#ff9a6c"/><path d="M705.038,456.871c-.209-.013-.215,1.38-1.409,2.366s-2.678.83-2.689,1.025c-.019.087.33.271.957.289a3.466,3.466,0,0,0,2.244-.776,3.021,3.021,0,0,0,1.092-1.984C705.287,457.208,705.133,456.863,705.038,456.871Z" fill="#1a2e35"/><path d="M705.369,444.219c.126.349,1.408.187,2.913.371,1.509.155,2.722.6,2.923.286.089-.15-.122-.478-.612-.817a5.1,5.1,0,0,0-4.446-.5C705.594,443.78,705.315,444.053,705.369,444.219Z" fill="#1a2e35"/><path d="M693.807,442.487c.225.291,1.11-.009,2.173-.021,1.062-.049,1.963.2,2.171-.1.091-.148-.05-.44-.443-.717a3.145,3.145,0,0,0-3.5.1C693.831,442.044,693.708,442.344,693.807,442.487Z" fill="#1a2e35"/><path d="M725.166,465.458a8.257,8.257,0,0,1-9.824-9.132c.289-2.284,1.52-4.608.729-6.769-1.048-2.858-5.054-3.738-6.117-6.59-.618-1.658-.063-3.6-.764-5.221a6.2,6.2,0,0,0-3.83-2.973A15.984,15.984,0,0,1,700.8,432.8c-1.313-1.021-2.133-2.948-1.285-4.379a88.09,88.09,0,0,1,20.321,4.937,7.84,7.84,0,0,1,4.009,2.6c.949,1.427.9,3.272.824,4.984-.39,8.35.881,16.173.492,24.523" fill="#1a2e35"/><path d="M727.383,462.838a.8.8,0,0,0,.152-.05,2.195,2.195,0,0,0,.423-.206,3.1,3.1,0,0,0,1.16-1.372,4.594,4.594,0,0,0,.3-2.824,9.006,9.006,0,0,0-1.69-3.377,24.673,24.673,0,0,1-2.552-3.755,5.788,5.788,0,0,1-.616-2.4,7.854,7.854,0,0,1,.548-2.587,7.946,7.946,0,0,0,.549-2.811,6.278,6.278,0,0,0-3.023-5.079,7.209,7.209,0,0,0-3.064-.874,12.931,12.931,0,0,1-3.068-.536,3.974,3.974,0,0,1-2.155-1.942,14.907,14.907,0,0,1-1.022-2.742,14.67,14.67,0,0,0-1.049-2.656,9.943,9.943,0,0,0-3.486-3.918,7.532,7.532,0,0,0-4.415-1.145,5.643,5.643,0,0,0-3.473,1.425,5.545,5.545,0,0,0-1.555,2.385,4.49,4.49,0,0,0-.216,1.789,2.814,2.814,0,0,0,.11.619c.018,0-.037-.214-.055-.623a4.646,4.646,0,0,1,.262-1.751,5.452,5.452,0,0,1,4.939-3.651,7.366,7.366,0,0,1,4.283,1.144,9.756,9.756,0,0,1,3.382,3.842,14.509,14.509,0,0,1,1.023,2.617,15.149,15.149,0,0,0,1.036,2.794,4.829,4.829,0,0,0,.94,1.242,4.1,4.1,0,0,0,1.355.826,13.087,13.087,0,0,0,3.134.553,6.957,6.957,0,0,1,2.956.837,6.024,6.024,0,0,1,2.9,4.852,7.72,7.72,0,0,1-.527,2.724,8.059,8.059,0,0,0-.549,2.67,5.993,5.993,0,0,0,.652,2.491,24.463,24.463,0,0,0,2.6,3.771,8.933,8.933,0,0,1,1.7,3.3,4.52,4.52,0,0,1-.25,2.749,3.125,3.125,0,0,1-1.093,1.368C727.589,462.763,727.374,462.817,727.383,462.838Z" fill="#375a64"/><path d="M700.354,422.289a.9.9,0,0,0-.361.109,3.916,3.916,0,0,0-.879.532,4.51,4.51,0,0,0-.919,6.157,3.922,3.922,0,0,0,.686.766c.187.154.3.222.314.209a12.794,12.794,0,0,1-.837-1.081,4.543,4.543,0,0,1,.88-5.9A12.621,12.621,0,0,1,700.354,422.289Z" fill="#375a64"/><path d="M679.753,486.109a6.964,6.964,0,0,1-.266-.983,4.543,4.543,0,0,1,.455-2.678,6.169,6.169,0,0,1,2.936-2.735,11.665,11.665,0,0,1,2.285-.814c.821-.212,1.689-.388,2.56-.668a5.824,5.824,0,0,0,2.348-1.283,3.893,3.893,0,0,0,1.107-2.233c.144-.781.192-1.523.365-2.185a4.335,4.335,0,0,1,.847-1.675,4.821,4.821,0,0,1,2.249-1.53c.629-.188,1-.189,1-.218a1,1,0,0,0-.268-.005,4.051,4.051,0,0,0-.759.12,4.764,4.764,0,0,0-2.369,1.51,4.457,4.457,0,0,0-.917,1.739c-.19.687-.246,1.438-.393,2.2a3.666,3.666,0,0,1-1.047,2.088,5.62,5.62,0,0,1-2.245,1.216c-.851.274-1.715.451-2.543.668a11.665,11.665,0,0,0-2.33.848,6.285,6.285,0,0,0-3,2.877,4.5,4.5,0,0,0-.386,2.78,3.338,3.338,0,0,0,.237.733A.974.974,0,0,0,679.753,486.109Z" fill="#375a64"/><path d="M720.2,469.642c4.71-1.261,8.78-5.875,10.431-10.464s1.653-9.6,1.229-14.459c-.307-3.521-.924-7.244-3.262-9.894-3.525-4-7.338-6.035-12.664-5.869" fill="#1a2e35"/><path d="M692.7,479.9l4.391-1.1a2.5,2.5,0,0,1-.872-3.062,4.02,4.02,0,0,1,3.356-2.488l20.027-2.261a1.607,1.607,0,0,1,1.679.988q1.333,3.384.091,5.575h.095l3.857.767,6.525,57.708-42.846-2Z" fill="#f5f5f5"/><path d="M699,479.014a4.809,4.809,0,0,0,.8.154c.52.085,1.277.179,2.214.269a51.69,51.69,0,0,0,14.666-.729c.924-.183,1.668-.352,2.177-.487a4.549,4.549,0,0,0,.784-.234,4.757,4.757,0,0,0-.808.13c-.515.1-1.263.242-2.188.4a60.775,60.775,0,0,1-14.615.727c-.936-.065-1.694-.13-2.217-.182A4.612,4.612,0,0,0,699,479.014Z" fill="#1a2e35"/><path d="M718.368,488.183a30.9,30.9,0,0,0-3.228-4.834,30.9,30.9,0,0,0,3.228,4.834Z" fill="#e1e1e1"/><path d="M704.557,489.161a30.168,30.168,0,0,0,3.592-4.468,30.129,30.129,0,0,0-3.592,4.468Z" fill="#e1e1e1"/><path d="M710.972,496.495A31.666,31.666,0,0,0,712,490.706a15.759,15.759,0,0,0-.647,2.871A15.969,15.969,0,0,0,710.972,496.495Z" fill="#e1e1e1"/><path d="M700.429,496.951a46.321,46.321,0,0,0,5.057,4.98,45.85,45.85,0,0,0-5.057-4.98Z" fill="#e1e1e1"/><path d="M714.568,506.783a12.1,12.1,0,0,0,4.56-4.833c-.071-.045-.878,1.217-2.141,2.548S714.519,506.715,714.568,506.783Z" fill="#e1e1e1"/><path d="M710.027,514.375c-.024.079,1.2.466,2.587,1.2s2.4,1.52,2.455,1.456a9.961,9.961,0,0,0-5.042-2.659Z" fill="#e1e1e1"/><path d="M702.636,514.868a5.131,5.131,0,0,0,.838-.9c.485-.581,1.13-1.407,1.8-2.348s1.243-1.819,1.636-2.468a5.081,5.081,0,0,0,.579-1.083,5.9,5.9,0,0,0-.741.977c-.494.7-1.066,1.517-1.7,2.415l-1.733,2.388A5.964,5.964,0,0,0,702.636,514.868Z" fill="#e1e1e1"/><path d="M701.9,521.344a24.9,24.9,0,0,0,6.4,1.056,85.1,85.1,0,0,0-6.4-1.056Z" fill="#e1e1e1"/><path d="M713.86,478.2c.037-.03-.217-.318-.432-.875a4.618,4.618,0,0,1-.228-2.283,9.279,9.279,0,0,1,.678-2.243,4.26,4.26,0,0,0,.355-.925,3.124,3.124,0,0,0-.53.843,7.338,7.338,0,0,0-.774,2.287,4.233,4.233,0,0,0,.321,2.4A1.759,1.759,0,0,0,713.86,478.2Z" fill="#e1e1e1"/><path d="M705.857,473.878a4.783,4.783,0,0,0-.847,3.617c.081,0,.088-.84.325-1.832S705.929,473.916,705.857,473.878Z" fill="#e1e1e1"/><path d="M669.759,514.993l-19.934-35.007-2.4-6.072s-6.212-13.36-6.646-14.719c-.5-1.571-1.378-1.707-1.945-1.483-.882.349-1.166,1.664-.778,3.026.135.47,2.55,7.808,2.55,7.808a18.171,18.171,0,0,0-2.061-1.529c-1.529-1.029-4.336-1-6.93-.073s-3.24,1.413-2.928,2.437a1.361,1.361,0,0,0,.831.825,2.692,2.692,0,0,0,1.92.042c4.176-1.423,6.026.46,6.026.46l.314.794s-3.137-1.005-4.923.416a2.592,2.592,0,0,0-.651.76,3.451,3.451,0,0,0-1.277,5.815,1.436,1.436,0,0,0,1.584.4,1.835,1.835,0,0,0,.6-.689,2.739,2.739,0,0,1,.286-.4l1.191,2.1s2.93,4.58,3.979,6.717l13.719,36.558a9.682,9.682,0,0,0,12.625,5.6h0A9.681,9.681,0,0,0,669.759,514.993Z" fill="#ffbf9d"/><path d="M648.454,479.867a2.012,2.012,0,0,1-2.31-.4c-.635-.549-1.065-1.3-1.658-1.891-1.776-1.774-4.747-1.94-6.435-3.8-.236-.259-.445-.652-.242-.937.189-.264.584-.229.9-.166l8.156,1.614" fill="#ffbf9d"/><path d="M646.867,474.287a3.392,3.392,0,0,0-.864-.265c-.563-.14-1.379-.328-2.391-.55l-3.557-.756-1.029-.212a1.651,1.651,0,0,0-1.246.041.7.7,0,0,0-.266.741,1.45,1.45,0,0,0,.32.6,5.442,5.442,0,0,0,.918.812,31.91,31.91,0,0,0,4.033,1.948,6.264,6.264,0,0,1,1.549,1.056c.419.406.749.869,1.1,1.264a2.923,2.923,0,0,0,2.161,1.212c.626-.012.881-.306.861-.311a2.43,2.43,0,0,1-.853.127,2.833,2.833,0,0,1-1.912-1.244c-.321-.394-.635-.872-1.078-1.328a6.482,6.482,0,0,0-1.624-1.164,37.074,37.074,0,0,1-3.96-1.947,5.135,5.135,0,0,1-.834-.73c-.228-.259-.308-.571-.143-.657.164-.122.539-.048.888.024l1.033.2,3.576.656c1.02.18,1.847.318,2.42.4A3.262,3.262,0,0,0,646.867,474.287Z" fill="#ff9a6c"/><path d="M637.887,471.509a3.419,3.419,0,0,0-.936-1.261,2.646,2.646,0,0,0-1.576-.518,6.789,6.789,0,0,0-2.079.35,10.832,10.832,0,0,1-2.134.484,3.5,3.5,0,0,1-1.792-.276,1.361,1.361,0,0,1-.763-.955.807.807,0,0,1,.009-.448c.03,0,.028.159.106.419a1.282,1.282,0,0,0,.741.788,3.447,3.447,0,0,0,1.673.191,11.869,11.869,0,0,0,2.075-.5,6.587,6.587,0,0,1,2.176-.338,2.781,2.781,0,0,1,1.7.631,2.467,2.467,0,0,1,.71.994A.845.845,0,0,1,637.887,471.509Z" fill="#ff9a6c"/><path d="M637.913,460.21a8.762,8.762,0,0,1,.49,1.456c.31,1.007.68,2.206,1.089,3.532.429,1.32.818,2.514,1.143,3.516a8.692,8.692,0,0,1,.438,1.473,6.9,6.9,0,0,1-.641-1.4c-.351-.882-.793-2.117-1.231-3.5s-.786-2.645-1.007-3.568A6.863,6.863,0,0,1,637.913,460.21Z" fill="#ff9a6c"/><path d="M636.758,473.7a1.856,1.856,0,0,1-.48-.028,1.423,1.423,0,0,0-1.147.307.762.762,0,0,0-.185.733,4.071,4.071,0,0,0,.373.929,1.717,1.717,0,0,1,.2,1.207,1.467,1.467,0,0,1-.934.941,1.662,1.662,0,0,1-1.311-.13,2.081,2.081,0,0,1-.871-.849,6.761,6.761,0,0,1-.574-1.891,3.979,3.979,0,0,1-.014-1.33.892.892,0,0,1,.185-.454c.025.012-.04.17-.067.47a4.732,4.732,0,0,0,.109,1.276,7.272,7.272,0,0,0,.609,1.8,1.65,1.65,0,0,0,1.834.823,1.182,1.182,0,0,0,.746-.736,1.473,1.473,0,0,0-.163-1.007,4.01,4.01,0,0,1-.367-1,.991.991,0,0,1,.285-.931,1.489,1.489,0,0,1,1.314-.269A1.256,1.256,0,0,1,636.758,473.7Z" fill="#ff9a6c"/><path d="M633.318,477.4c.013-.007.1.136.093.428a1.338,1.338,0,0,1-.612,1.028,1.784,1.784,0,0,1-1.77.019,2.921,2.921,0,0,1-1.339-1.705,3.53,3.53,0,0,1,0-2.165,3.378,3.378,0,0,1,.975-1.473,3.176,3.176,0,0,1,1.015-.611.922.922,0,0,1,.423-.091,5.543,5.543,0,0,0-1.29.86,3.319,3.319,0,0,0-.854,1.4,3.359,3.359,0,0,0,.023,1.986,2.7,2.7,0,0,0,1.181,1.551,1.581,1.581,0,0,0,1.524.044,1.267,1.267,0,0,0,.6-.857C633.338,477.552,633.292,477.4,633.318,477.4Z" fill="#ff9a6c"/><path d="M639.958,480.689a1.247,1.247,0,0,1,.705-.215,2.9,2.9,0,0,1,1.828.436l-.224.151a8.372,8.372,0,0,1-.151-1.032,6.6,6.6,0,0,1,.532-3.555,16.678,16.678,0,0,0-.227,3.529c.029.352.077.691.134,1l.062.343-.287-.192a3.036,3.036,0,0,0-1.658-.5C640.231,480.656,639.969,480.728,639.958,480.689Z" fill="#ff9a6c"/><path d="M635.809,468.216c.08.012-.034.63-.592,1.114s-1.182.521-1.183.439c-.018-.087.5-.241.981-.669S635.725,468.186,635.809,468.216Z" fill="#ff9a6c"/><path d="M725.993,435.94" fill="none" stroke="#44555b" stroke-miterlimit="10" stroke-width="1"/><path d="M698.041,544.041l-20.847.2,3.507-15.128-1.171,2.854a14.371,14.371,0,0,1-13.293,8.913h0c-6.593,0-11.15-4.906-13.939-10.879-6.522-13.966-12.807-36.458-12.807-36.458l12.715-11.168c9.2,17.4,17.846,32.518,17.846,32.518s2.5-7.589,4.425-14.359,1.916-10.33,4.879-13.707c4.556-5.193,11.05-6.485,17.08-8.038l.225,28.1,1.38,37.147" fill="#f17781"/><path d="M721.886,523.109l-37.965,7.4L682.07,545.09h58.213a11.468,11.468,0,0,0,11.588-12.37c-.838-10.631-1.748-23.729-2.439-29.263a37.969,37.969,0,0,0-4.3-12.624c-2.937-5.532-12.732-12.639-21.32-12.989l-1.626,36.165" fill="#f17781"/><path d="M729.114,522.053a1.558,1.558,0,0,0,.018-.347c0-.256,0-.586,0-.995-.005-.9-.012-2.139-.021-3.658,0-3.088.054-7.354.294-12.058.118-2.354.272-4.593.435-6.628a27.224,27.224,0,0,1,.764-5.341,7.583,7.583,0,0,1,1.673-3.173,11.237,11.237,0,0,1,1-.879,4.08,4.08,0,0,0-1.078.8,7.435,7.435,0,0,0-1.783,3.193,26.241,26.241,0,0,0-.829,5.375c-.177,2.036-.339,4.278-.457,6.635-.241,4.711-.268,8.984-.215,12.074.027,1.545.069,2.795.109,3.659l.055.994A1.658,1.658,0,0,0,729.114,522.053Z" fill="#1a2e35"/><path d="M684.655,531.535a5.854,5.854,0,0,1,1.383-1.12,8.622,8.622,0,0,1,1.939-.774c.787-.224,1.706-.4,2.72-.606,4.057-.826,9.659-1.978,15.867-3.137s11.852-2.1,15.939-2.753l4.841-.776,1.315-.22a2.841,2.841,0,0,0,.455-.1,3,3,0,0,0-.463.041l-1.323.169c-1.148.152-2.807.386-4.855.691-4.1.607-9.746,1.512-15.96,2.674s-11.809,2.342-15.856,3.218c-1.01.22-1.931.407-2.723.648a8.425,8.425,0,0,0-1.951.83,4.509,4.509,0,0,0-1.041.843,2.391,2.391,0,0,0-.221.269C684.674,531.5,684.651,531.532,684.655,531.535Z" fill="#1a2e35"/><path d="M729,522.053c-.012.05.7.214,1.782.654a14.962,14.962,0,0,1,1.837.906,14.654,14.654,0,0,1,3.821,3.21,15.04,15.04,0,0,1,1.209,1.654c.62.991.9,1.663.951,1.643a1.876,1.876,0,0,0-.165-.487,9.535,9.535,0,0,0-.621-1.256,12.854,12.854,0,0,0-1.18-1.715,13.568,13.568,0,0,0-3.89-3.268,12.792,12.792,0,0,0-1.892-.867,9.616,9.616,0,0,0-1.344-.4A1.87,1.87,0,0,0,729,522.053Z" fill="#1a2e35"/><path d="M679.973,531.141a1.886,1.886,0,0,0,.078-.361l.173-1.045c.145-.907.337-2.223.558-3.852.444-3.257.981-7.767,1.431-12.762s.724-9.532.869-12.816c.072-1.642.118-2.971.137-3.89l.017-1.058a2,2,0,0,0-.013-.37,1.837,1.837,0,0,0-.043.368l-.067,1.056c-.055.949-.131,2.268-.225,3.884-.193,3.28-.5,7.808-.948,12.8s-.956,9.5-1.35,12.763c-.2,1.607-.357,2.918-.472,3.862-.05.434-.091.783-.121,1.051A1.791,1.791,0,0,0,679.973,531.141Z" fill="#1a2e35"/><path d="M667.384,525.486c.015.011.123-.113.305-.347a9.7,9.7,0,0,0,.7-1.043,13.827,13.827,0,0,0,1.866-7.975,9.725,9.725,0,0,0-.164-1.245,1.541,1.541,0,0,0-.12-.446c-.047.008.057.653.09,1.7A15.6,15.6,0,0,1,668.22,524C667.725,524.925,667.345,525.458,667.384,525.486Z" fill="#1a2e35"/><path d="M729.268,502.515a.566.566,0,0,0,.2.042,5.011,5.011,0,0,0,.572.055,8.793,8.793,0,0,0,2.107-.165,15.21,15.21,0,0,0,2.991-.937c1.09-.451,2.246-1.033,3.458-1.634a25.788,25.788,0,0,1,3.5-1.466,11.886,11.886,0,0,1,3.022-.59,9.854,9.854,0,0,1,2.821.318c0-.009-.059-.038-.181-.086a4.322,4.322,0,0,0-.545-.183,7.143,7.143,0,0,0-2.1-.243,11.484,11.484,0,0,0-3.09.543,24.315,24.315,0,0,0-3.546,1.461c-1.214.6-2.36,1.188-3.434,1.648a16.293,16.293,0,0,1-2.932.979A13.261,13.261,0,0,1,729.268,502.515Z" fill="#fafafa"/><path d="M722.768,501.233A36.576,36.576,0,0,0,729,502.3a36.568,36.568,0,0,0-6.234-1.062Z" fill="#fafafa"/><path d="M729.5,512.522a4.8,4.8,0,0,0,.765.331c.5.192,1.229.456,2.141.751a54.828,54.828,0,0,0,7.266,1.8c1.441.252,2.824.436,4.085.562a16.5,16.5,0,0,0,3.375.092,5.753,5.753,0,0,0,2.191-.626,3.322,3.322,0,0,0,.521-.339c.111-.089.166-.138.16-.146s-.25.163-.729.39a6.108,6.108,0,0,1-2.161.528,17.444,17.444,0,0,1-3.331-.15c-1.254-.139-2.629-.33-4.064-.581a66.666,66.666,0,0,1-7.256-1.712c-.916-.27-1.653-.506-2.163-.667A4.89,4.89,0,0,0,729.5,512.522Z" fill="#fafafa"/><path d="M722.916,515.291a30.049,30.049,0,0,0,5.732.1,15.029,15.029,0,0,0-2.864-.185A15.22,15.22,0,0,0,722.916,515.291Z" fill="#fafafa"/><path d="M749.976,539.247a1.1,1.1,0,0,0-.056-.279l-.211-.789-.159-.569c-.066-.206-.155-.423-.242-.66a15.385,15.385,0,0,0-.651-1.585l-.428-.9c-.153-.311-.347-.617-.529-.943a22.634,22.634,0,0,0-1.293-2.006,24.012,24.012,0,0,0-8.191-7.125,22.766,22.766,0,0,0-2.166-1c-.348-.135-.678-.286-1.008-.393l-.952-.3a15.237,15.237,0,0,0-1.66-.425c-.246-.053-.474-.111-.687-.148l-.585-.079-.811-.1a1.051,1.051,0,0,0-.284-.016,1.189,1.189,0,0,0,.277.071l.8.15.579.1c.21.044.434.109.677.169a16.762,16.762,0,0,1,1.637.461l.938.313c.325.111.649.266.992.4a23.476,23.476,0,0,1,2.134,1.014,24.61,24.61,0,0,1,8.107,7.052c.473.684.943,1.322,1.3,1.972.184.321.382.62.538.927l.44.885a16.834,16.834,0,0,1,.683,1.557c.093.233.188.446.261.648l.181.559.26.772A1.1,1.1,0,0,0,749.976,539.247Z" fill="#fafafa"/><path d="M723.6,523.095a9.433,9.433,0,0,1,2.16,2.714,13.25,13.25,0,0,1,1.209,3.57,36.528,36.528,0,0,1,.5,4.623,32.689,32.689,0,0,0,.539,4.655,12.68,12.68,0,0,0,1.318,3.6,8.054,8.054,0,0,0,1.6,2.028,5.468,5.468,0,0,0,.553.435.848.848,0,0,0,.21.127,9.291,9.291,0,0,1-2.2-2.683,13.062,13.062,0,0,1-1.24-3.558,34.818,34.818,0,0,1-.512-4.622,34.344,34.344,0,0,0-.524-4.655,12.915,12.915,0,0,0-1.286-3.612,8.138,8.138,0,0,0-1.576-2.048,5.342,5.342,0,0,0-.547-.443A.9.9,0,0,0,723.6,523.095Z" fill="#fafafa"/><path d="M714.628,545.178c.076,0-.011-4.534-.194-10.12s-.393-10.114-.469-10.111.012,4.532.195,10.12S714.553,545.18,714.628,545.178Z" fill="#fafafa"/><path d="M700.356,544.4a3.4,3.4,0,0,0,.233-.657,7.666,7.666,0,0,0,.214-.789c.07-.311.165-.662.221-1.06a18.823,18.823,0,0,0,.28-2.808,19.637,19.637,0,0,0-1.044-6.809,18.922,18.922,0,0,0-1.108-2.595c-.174-.363-.37-.67-.529-.946a7.894,7.894,0,0,0-.441-.688,3.461,3.461,0,0,0-.419-.557c-.046.03.521.845,1.215,2.277a21.046,21.046,0,0,1,1.042,2.589,22.691,22.691,0,0,1,.792,3.32,22.962,22.962,0,0,1,.24,3.4,21.132,21.132,0,0,1-.219,2.782C700.6,543.436,700.3,544.384,700.356,544.4Z" fill="#fafafa"/><path d="M724.593,486.278c.02.045.833-.321,2.2-.761a24.9,24.9,0,0,1,11.048-.976c1.42.194,2.284.412,2.3.364a2.8,2.8,0,0,0-.6-.194,16.247,16.247,0,0,0-1.671-.362,22.347,22.347,0,0,0-11.139.984,16.359,16.359,0,0,0-1.581.649A2.788,2.788,0,0,0,724.593,486.278Z" fill="#fafafa"/><path d="M683.053,508.388a14.942,14.942,0,0,0,1.951-.031c1.2-.046,2.864-.11,4.7-.156s3.5-.064,4.7-.077a15.058,15.058,0,0,0,1.949-.067,1.95,1.95,0,0,0-.521-.063c-.337-.024-.824-.046-1.427-.064-1.2-.036-2.87-.048-4.71,0s-3.5.141-4.7.237c-.6.048-1.087.094-1.422.134A1.944,1.944,0,0,0,683.053,508.388Z" fill="#fafafa"/><path d="M672.67,506.423c-.016.046.66.273,1.684.778a16.5,16.5,0,0,1,6.571,5.857c.619.96.922,1.605.966,1.584a1.793,1.793,0,0,0-.173-.471,10.507,10.507,0,0,0-.628-1.215,14.818,14.818,0,0,0-6.653-5.93,10.537,10.537,0,0,0-1.279-.486A1.744,1.744,0,0,0,672.67,506.423Z" fill="#fafafa"/><path d="M677.791,489.564a7.909,7.909,0,0,1,2.673.375,18.422,18.422,0,0,1,2.7,1.2,21.98,21.98,0,0,0,3.334,1.5,13.579,13.579,0,0,0,6.59.429,12.384,12.384,0,0,0,1.943-.525,3.541,3.541,0,0,0,.675-.3c-.017-.053-.989.366-2.651.633a14.137,14.137,0,0,1-6.472-.5,23.448,23.448,0,0,1-3.3-1.462,16.928,16.928,0,0,0-2.752-1.159,6.156,6.156,0,0,0-2-.286,3.305,3.305,0,0,0-.547.052C677.853,489.54,677.79,489.555,677.791,489.564Z" fill="#fafafa"/><path d="M680.414,524.811a3.109,3.109,0,0,0,.612.286c.2.086.447.185.742.28s.623.22,1,.315a19.576,19.576,0,0,0,2.677.557,20.335,20.335,0,0,0,6.676-.2,19.612,19.612,0,0,0,2.639-.717c.372-.117.694-.261.981-.375s.529-.225.723-.323a3.158,3.158,0,0,0,.594-.322c-.022-.048-.888.37-2.358.836a22.158,22.158,0,0,1-2.626.653,21.806,21.806,0,0,1-6.6.2,22.105,22.105,0,0,1-2.66-.495C681.323,525.127,680.433,524.762,680.414,524.811Z" fill="#fafafa"/><path d="M668.333,540.373a.977.977,0,0,0,.2-.168c.123-.12.323-.283.54-.529a12.49,12.49,0,0,0,1.664-2.232,18.159,18.159,0,0,0,2.343-8.806,35.358,35.358,0,0,0-1.192-9.079c-.283-1.138-.538-2.052-.722-2.68-.088-.289-.16-.527-.22-.722a.971.971,0,0,0-.1-.247,1,1,0,0,0,.042.261l.17.735c.16.678.375,1.589.636,2.7a38,38,0,0,1,1.107,9.029,18.64,18.64,0,0,1-2.237,8.715A14.08,14.08,0,0,1,669,539.6C668.572,540.1,668.315,540.355,668.333,540.373Z" fill="#fafafa"/><path d="M649.2,522.518a10.5,10.5,0,0,1,2.781-1.564,22.378,22.378,0,0,1,3.367-.875,38.129,38.129,0,0,0,4.189-.965,17.235,17.235,0,0,0,6.664-4.007,15.64,15.64,0,0,0,1.574-1.771c.171-.221.288-.4.372-.525s.12-.19.112-.195a6.118,6.118,0,0,0-.567.654,19.727,19.727,0,0,1-1.624,1.7,17.906,17.906,0,0,1-6.615,3.887,41.5,41.5,0,0,1-4.156.979,20.867,20.867,0,0,0-3.386.941,8.089,8.089,0,0,0-2.072,1.155,4.368,4.368,0,0,0-.487.424C649.24,522.454,649.188,522.511,649.2,522.518Z" fill="#fafafa"/><path d="M643.181,504.969a4.012,4.012,0,0,0,.563-.489c.172-.165.385-.365.646-.582s.541-.483.882-.74a25,25,0,0,1,2.442-1.728,24.292,24.292,0,0,1,6.711-2.871,24.819,24.819,0,0,1,2.937-.574c.421-.069.806-.092,1.143-.127s.629-.055.868-.066a3.882,3.882,0,0,0,.742-.07,3.85,3.85,0,0,0-.745-.036c-.24-.006-.534-.005-.875.019s-.73.03-1.157.088a22.123,22.123,0,0,0-2.975.521,22.839,22.839,0,0,0-6.783,2.9,22.035,22.035,0,0,0-2.431,1.792c-.336.269-.612.544-.862.776a8.721,8.721,0,0,0-.618.619A3.837,3.837,0,0,0,643.181,504.969Z" fill="#fafafa"/><path d="M689.191,480.831a3.88,3.88,0,0,0,1,.481,18.992,18.992,0,0,0,5.192,1.21,3.87,3.87,0,0,0,1.108.01c.006-.083-1.672-.224-3.685-.7S689.222,480.754,689.191,480.831Z" fill="#fafafa"/><path d="M670.541,554.9a1.465,1.465,0,0,0,1.607,1.856h0a1.465,1.465,0,0,0,1.2-1.03l.443-1.656-.065.022a1.528,1.528,0,0,0,1.705,1.8h0c.693-.016,1.288-1.006,1.483-1.535h0a2.862,2.862,0,0,0,2.672-1.284l3.087-4.816,5.715-4.181-3.456-12.352-12.3,7.963c-.483.375-.556.534-1.324,1.245l-7.941,7.3a2.894,2.894,0,0,0,2.913,0c1.248-.5,6.735-4.2,6.735-4.2L670.541,554.9" fill="#ffbf9d"/><path d="M681.064,544.733c-.011-.015-.141.063-.366.216l-.406.283a2.486,2.486,0,0,0-.507.443,2.3,2.3,0,0,0-.418.713q-.144.413-.3.86c-.21.618-.435,1.282-.672,1.978-.47,1.406-.881,2.684-1.165,3.612a8.91,8.91,0,0,0-.405,1.519,9.017,9.017,0,0,0,.59-1.461c.331-.913.77-2.179,1.24-3.583.229-.7.447-1.363.651-1.982l.276-.868a2.223,2.223,0,0,1,.353-.665,2.588,2.588,0,0,1,.452-.445l.377-.32C680.968,544.854,681.076,544.748,681.064,544.733Z" fill="#ff9a6c"/><path d="M673.663,554.33a2.157,2.157,0,0,0,.176-.51q.165-.586.4-1.408c.332-1.189.783-2.834,1.355-4.625a16.975,16.975,0,0,1,1.891-4.383,3.756,3.756,0,0,1,1.009-1.005c.287-.181.473-.233.464-.26,0-.009-.05,0-.139.022a1.793,1.793,0,0,0-.378.145,3.45,3.45,0,0,0-1.111.983,15.134,15.134,0,0,0-2,4.414c-.575,1.8-1,3.457-1.282,4.661-.141.6-.247,1.091-.312,1.431A1.954,1.954,0,0,0,673.663,554.33Z" fill="#ff9a6c"/><path d="M670.489,555.076a2.43,2.43,0,0,0,.215-.551q.2-.629.487-1.534c.4-1.3.933-3.1,1.507-5.086.555-1.96,1.056-3.733,1.443-5.1a2.494,2.494,0,0,1,.842-1.285,3.319,3.319,0,0,1,.51-.272c0-.007-.056-.011-.156.011a1.326,1.326,0,0,0-.414.173,2.472,2.472,0,0,0-.964,1.308c-.434,1.3-.943,3.1-1.524,5.089s-1.078,3.8-1.43,5.109q-.238.918-.4,1.557A2.5,2.5,0,0,0,670.489,555.076Z" fill="#ff9a6c"/><path d="M281.673,479.37,290,469.928c2.252-2.251,3.022-3.337,2.573-3.731-.6-.526-.344-.351-5.019,3.158,0,0,6.629-5.067,4.33-5.1a9.026,9.026,0,0,0-2.735,1.442c1.641-1.4,2.094-2.333,1.783-2.783-.534-.774-4.588,2.035-6.454,3.391a45.3,45.3,0,0,0,4.946-4.036c.7-.945-.72-.87-1.878-.474-1.3.444-8.476,4.106-10.6,5.055a1.374,1.374,0,0,1-1.977-.671c-.782-3.288-3.148-5.43-4.061-5.71a1.033,1.033,0,0,0-.958,1.719,12.615,12.615,0,0,1,1.4,3.122,8.07,8.07,0,0,1,.424,2.695c-.017,1.062-.074,1.961-.142,2.723l-7.606,10.44,12.724,7.379Z" fill="#c78976"/><path d="M284.665,470.8a30.221,30.221,0,0,0,6.277-4.962,30.24,30.24,0,0,0-6.277,4.962Z" fill="#bf654e"/><path d="M283.043,469.143a34.446,34.446,0,0,0,7.007-4.881,34.417,34.417,0,0,0-7.007,4.881Z" fill="#bf654e"/><path d="M281.867,467.377a30.8,30.8,0,0,0,6.69-4.531,30.8,30.8,0,0,0-6.69,4.531Z" fill="#bf654e"/><path d="M270.921,472.168l-30.33,38.463,6.946,16.17s8.319-1.841,10.842-5.346,23.294-42.085,23.294-42.085Z" fill="#c78976"/><path d="M193.925,418.347c-2.184,1.891-2.176,5.226-1.923,8.1s.444,6.154-1.549,8.245c-1.642,1.723-4.624,2.478-5.007,4.827a2.707,2.707,0,0,0,4.476,2.455,4.684,4.684,0,0,0,1.412,5.3c1.61,1.123,4.3.432,4.8-1.466a2.382,2.382,0,1,0,4.68.85" fill="#1a2e35"/><path d="M225.179,437.758a2.867,2.867,0,1,0,5.288-2.21c-.5-1.094-1.684-1.883-1.8-3.081-.136-1.45,1.341-2.483,2.654-3.115s2.847-1.454,2.989-2.9c.137-1.4-1.114-2.489-2.163-3.425s-2.082-2.383-1.435-3.632c.331-.639,1.019-1.006,1.464-1.572a3.158,3.158,0,0,0-.784-4.226,5.758,5.758,0,0,0-4.56-.836,42.815,42.815,0,0,0-4.567,1.385,19.041,19.041,0,0,1-15.167-1.987" fill="#1a2e35"/><path d="M215.865,471.671a10.555,10.555,0,0,1-12.406-8.1L196,429.36a15.183,15.183,0,0,1,11.706-18.351l.783-.115a15.285,15.285,0,0,1,17.114,11.7c1.66,7.222,3.4,15.222,3.926,19.15,1.089,8.132-6.845,10.583-6.845,10.583l1.424,6.85a10.555,10.555,0,0,1-8.242,12.494Z" fill="#c78976"/><path d="M224.14,427.956a1.17,1.17,0,0,1-.946,1.333,1.121,1.121,0,0,1-1.348-.87,1.172,1.172,0,0,1,.945-1.334A1.121,1.121,0,0,1,224.14,427.956Z" fill="#1a2e35"/><path d="M224.439,426.822c-.121.172-1.1-.349-2.342-.163-1.248.168-2.069.944-2.227.811-.077-.058.03-.352.386-.7a3.206,3.206,0,0,1,1.756-.836,3.087,3.087,0,0,1,1.891.318C224.33,426.49,224.5,426.744,224.439,426.822Z" fill="#1a2e35"/><path d="M211.947,429.979a1.171,1.171,0,0,1-.946,1.333,1.12,1.12,0,0,1-1.348-.87,1.171,1.171,0,0,1,.945-1.334A1.121,1.121,0,0,1,211.947,429.979Z" fill="#1a2e35"/><path d="M212.212,428.85c-.122.173-1.1-.348-2.343-.163-1.248.168-2.069.944-2.227.811-.076-.058.029-.352.386-.7a3.22,3.22,0,0,1,1.756-.836,3.09,3.09,0,0,1,1.892.319C212.1,428.518,212.272,428.772,212.212,428.85Z" fill="#1a2e35"/><path d="M218.093,437.439a8.3,8.3,0,0,1,1.973-.663c.314-.079.606-.187.628-.412a1.639,1.639,0,0,0-.351-.913q-.62-1.09-1.3-2.287A42.122,42.122,0,0,1,216,427.129a42.213,42.213,0,0,1,3.523,5.775c.44.806.86,1.573,1.26,2.308a1.864,1.864,0,0,1,.348,1.226.808.808,0,0,1-.455.543,2.216,2.216,0,0,1-.53.154A8.245,8.245,0,0,1,218.093,437.439Z" fill="#1a2e35"/><path d="M211.818,423.915c-.074.357-1.343.378-2.78.769-1.446.362-2.563.963-2.8.688-.108-.133.051-.483.48-.881a5.014,5.014,0,0,1,4.253-1.11C211.538,423.519,211.847,423.746,211.818,423.915Z" fill="#1a2e35"/><path d="M223.452,423.279c-.178.315-1.08.147-2.116.285-1.04.1-1.88.47-2.125.2-.109-.131-.013-.435.33-.759a3.09,3.09,0,0,1,3.417-.393C223.366,422.852,223.529,423.127,223.452,423.279Z" fill="#1a2e35"/><path d="M203.509,419.169l-.04.041a6.452,6.452,0,0,0-1.768,4.477v.167c.022,2.362.424,4.709.423,7.071a10.608,10.608,0,0,1-1.935,6.675c-.607.758-1.785,1.391-2.475.708a2,2,0,0,1-.445-1.019c-1.251-5.527-3.5-10.263-4.35-16.11a4.98,4.98,0,0,1,1.458-4.311c1.1-1.056,2.457-2.185,3.911-1.74s3.589,2.733,4.8,3.658" fill="#1a2e35"/><path d="M199.273,432.632c-.147-.039-5.819-.832-4.829,4.691s6.332,3.391,6.313,3.23S199.273,432.632,199.273,432.632Z" fill="#c78976"/><path d="M198.694,438.763c-.027-.013-.084.085-.233.189a.984.984,0,0,1-.717.143,2.419,2.419,0,0,1-1.484-1.939,3.228,3.228,0,0,1,.022-1.425,1.131,1.131,0,0,1,.592-.869.5.5,0,0,1,.615.162c.1.141.086.258.117.262s.1-.114.017-.334a.632.632,0,0,0-.279-.307.739.739,0,0,0-.558-.045,1.374,1.374,0,0,0-.852,1.036,3.333,3.333,0,0,0-.057,1.6,2.539,2.539,0,0,0,1.831,2.134,1.05,1.05,0,0,0,.854-.3C198.708,438.9,198.715,438.77,198.694,438.763Z" fill="#bf654e"/><path d="M198.227,416.014c-1.691-2.02,1.585-5.756,4.2-7.021s6.416-.458,9.274.047c1.8.319,3.634.864,5.434.524a12.372,12.372,0,0,0,3.386-1.412,9.079,9.079,0,0,1,3.448-1.221,3.385,3.385,0,0,1,3.192,1.425,2.12,2.12,0,0,1-.988,3.038,2.754,2.754,0,1,1,1.466,4.944c.7-.713,2.056.1,2.1,1.1a2.9,2.9,0,0,1-1.59,2.378,10.5,10.5,0,0,1-7.425.971c-2.513-.456-4.918-1.386-7.42-1.9s-6.706-1.489-8.967-.3c-1.665.875-2.576,3.168-3.636,2.847a3.428,3.428,0,0,1-2.121-2.238,9.928,9.928,0,0,1-.354-3.176" fill="#1a2e35"/><path d="M187.41,441.66a.842.842,0,0,1-.291-.125,1.621,1.621,0,0,1-.6-.683,2.388,2.388,0,0,1-.181-1.428,2.891,2.891,0,0,1,.993-1.623,7.161,7.161,0,0,1,1.99-1.16,13.21,13.21,0,0,0,2.329-1.125,4.66,4.66,0,0,0,1.69-2.194,7.664,7.664,0,0,0,.49-2.988c-.056-2.107-.639-4.075-.782-5.931a7.646,7.646,0,0,1,.886-4.8,4.466,4.466,0,0,1,2.622-1.973,3.165,3.165,0,0,1,.9-.09,1.278,1.278,0,0,1,.312.048,4.609,4.609,0,0,0-1.185.147,4.448,4.448,0,0,0-2.483,1.973,7.548,7.548,0,0,0-.8,4.673c.152,1.822.745,3.788.8,5.948a7.862,7.862,0,0,1-.515,3.1,4.9,4.9,0,0,1-1.8,2.3,13.06,13.06,0,0,1-2.385,1.126,7.086,7.086,0,0,0-1.95,1.1,2.753,2.753,0,0,0-.969,1.5,2.32,2.32,0,0,0,.126,1.352A1.8,1.8,0,0,0,187.41,441.66Z" fill="#375a64"/><path d="M226.349,411.276a1.222,1.222,0,0,1,.24-.127,1.673,1.673,0,0,1,.309-.121,2.246,2.246,0,0,1,.445-.113,3.327,3.327,0,0,1,2.786.852h0l0,0a4.452,4.452,0,0,1,.992,3.293,5.488,5.488,0,0,1-2.029,3.748,8.473,8.473,0,0,1-4.6,1.849,18.766,18.766,0,0,1-5.459-.335,24.655,24.655,0,0,1-8.047-3.108,25,25,0,0,0-3.32-1.725,8.913,8.913,0,0,0-3.158-.645,9.4,9.4,0,0,0-4.533,1.071,16.276,16.276,0,0,0-1.465.926,6.491,6.491,0,0,1,1.413-1.022,9.26,9.26,0,0,1,4.588-1.173,9.034,9.034,0,0,1,3.239.627,24.609,24.609,0,0,1,3.365,1.717,24.747,24.747,0,0,0,7.971,3.057,18.674,18.674,0,0,0,5.376.34,8.252,8.252,0,0,0,4.467-1.769,5.284,5.284,0,0,0,1.979-3.577,4.3,4.3,0,0,0-.9-3.169l0,0a3.275,3.275,0,0,0-2.659-.881A6.408,6.408,0,0,0,226.349,411.276Z" fill="#375a64"/><path d="M223.271,406.676a3.138,3.138,0,0,1-.194,1.243,5.221,5.221,0,0,1-2.177,2.62,6.553,6.553,0,0,1-2.2.914,9.388,9.388,0,0,1-2.731.142,36.537,36.537,0,0,1-6.072-1.355,12.232,12.232,0,0,0-6.066-.346,7.949,7.949,0,0,0-4.122,2.676,8.255,8.255,0,0,0-1.579,2.967c-.212.774-.237,1.224-.271,1.22a1.477,1.477,0,0,1,.015-.325,6.4,6.4,0,0,1,.15-.923,8.253,8.253,0,0,1,5.742-5.865,12.324,12.324,0,0,1,6.2.324,37.921,37.921,0,0,0,6.024,1.37,9.294,9.294,0,0,0,2.663-.113,6.438,6.438,0,0,0,2.145-.853,5.237,5.237,0,0,0,2.18-2.49A7.151,7.151,0,0,0,223.271,406.676Z" fill="#375a64"/><path d="M220.586,441.574a5.7,5.7,0,0,1-.428,1.574,1.928,1.928,0,0,1-1.179,1.061,1.732,1.732,0,0,1-1.6-.482,2.76,2.76,0,0,1-.741-1.546c-.085-.519.022-1.181.52-1.349a1.309,1.309,0,0,1,.649.007l2.913.527" fill="#bf654e"/><path d="M220.074,443.782a3.969,3.969,0,0,1-1.448.274,2.1,2.1,0,0,1-1.36-.62,2.2,2.2,0,0,1-.581-1.7,1.984,1.984,0,0,1,.1-.464c.069-.141.052-.13.17-.15.115-.005.313.021.471.03l.485.038c.631.047,1.2.082,1.68.105a5.024,5.024,0,0,0,1.56-.026,4.977,4.977,0,0,0-1.528-.318c-.474-.067-1.04-.139-1.67-.211l-.483-.053a5,5,0,0,0-.54-.044.641.641,0,0,0-.384.135.744.744,0,0,0-.216.32,2.394,2.394,0,0,0-.135.59,2.574,2.574,0,0,0,.749,2.064,2.349,2.349,0,0,0,1.669.648,2.215,2.215,0,0,0,1.146-.318C220,443.932,220.093,443.8,220.074,443.782Z" fill="#1a2e35"/><path d="M222.683,452.327a18.773,18.773,0,0,1-10.46.549s3.892,3.262,10.992,2.01Z" fill="#bf654e"/><path d="M214.6,527.718a5.9,5.9,0,0,0,.728-.554c.226-.187.5-.413.846-.653s.709-.539,1.154-.816.914-.607,1.452-.906c.524-.324,1.115-.613,1.729-.931a27.146,27.146,0,0,1,8.584-2.567c.688-.072,1.341-.154,1.956-.171.615-.045,1.188-.044,1.712-.04.524-.012,1,.032,1.412.049s.774.049,1.065.082a6,6,0,0,0,.912.063,5.715,5.715,0,0,0-.9-.169,10.574,10.574,0,0,0-1.066-.129c-.417-.032-.892-.089-1.42-.089-.528-.017-1.106-.029-1.726.006-.622.007-1.281.082-1.977.147a25.932,25.932,0,0,0-8.665,2.591c-.617.328-1.209.627-1.733.962-.538.311-1.014.639-1.446.943-.441.289-.807.6-1.138.854a10.286,10.286,0,0,0-.82.693A5.966,5.966,0,0,0,214.6,527.718Z" fill="#fafafa"/><path d="M225.307,462.374" fill="none" stroke="#44555b" stroke-miterlimit="10" stroke-width="0.05"/><path d="M245.5,500.71l-4.315-18.684c-1.65-7.026-3.605-13.778-6.891-14.578v2.175L235.7,523s8.791,10.011,20,4.446c3.5-1.738,9.892-13.964,9.892-13.964s14.844-26.529,14.229-27.733-9.7-12.909-10.629-13.491Z" fill="#bb83ff"/><path d="M201.13,462.182c-8.571,1.642-18.223,6.643-22.663,19.448-1.621,4.678-13.424,39.177-13.424,39.177l20.127-.418,3.278-7.113-1.6,11.538-1.365,16.462,50.818.854-.356-24.795-.487-49.326s-.572-.748-9.334-5.582C220.682,459.424,201.13,462.182,201.13,462.182Z" fill="#bb83ff"/><g opacity="0.2"><path d="M196.06,495.154c-.835,10.412-1.8,13.629-2.63,24.041a9.189,9.189,0,0,1-.549,2.894,3.114,3.114,0,0,1-2.1,1.917c-1.48.3-3.4,1.371-3.822-.08l1.4-10.029a19.739,19.739,0,0,1,1.387-4.232c3.118-6.923,4.273-7.329,6.311-14.511"/></g><path d="M226.125,467.764l-.169-1.083-1.624-10.389a1.21,1.21,0,0,0-1.3-1.019l-20.009,1.67a2.3,2.3,0,0,0-2.1,2.462l.446,6.037,6.247,8.152,9,1.4" fill="#bb83ff"/><path d="M236.17,487.3c-.075,0-.136,8.139-.136,18.178s.061,18.179.136,18.179.137-8.137.137-18.179S236.246,487.3,236.17,487.3Z" fill="#1a2e35"/><path d="M184.743,522.052a.517.517,0,0,0,.065-.118l.165-.357.61-1.383c.527-1.227,1.275-2.966,2.2-5.106,1.837-4.34,4.361-10.3,7.148-16.886,1.386-3.3,2.705-6.447,3.906-9.311a17.451,17.451,0,0,0,1.293-4.226,23.223,23.223,0,0,0,.348-3.836,15.519,15.519,0,0,0-.8-5.5c-.058-.154-.108-.3-.165-.436l-.182-.368a3.163,3.163,0,0,0-.315-.558l-.223-.325c-.052-.072-.08-.108-.084-.105a10.184,10.184,0,0,1,.869,1.828,15.987,15.987,0,0,1,.708,5.457,20.043,20.043,0,0,1-1.681,7.967l-3.925,9.3L187.6,515.013c-.887,2.154-1.607,3.905-2.116,5.14-.237.593-.425,1.062-.562,1.4l-.14.367A.524.524,0,0,0,184.743,522.052Z" fill="#1a2e35"/><path d="M194.892,463.995a6.3,6.3,0,0,0,.584.506,8.976,8.976,0,0,0,1.917,1.118,14.479,14.479,0,0,0,3.381.948,41.4,41.4,0,0,0,4.627.456c1.722.077,3.607.043,5.625.083a25.981,25.981,0,0,1,6.363.774,11.75,11.75,0,0,1,5.983,3.529,8.214,8.214,0,0,1,1.662,3.283,7,7,0,0,1-.061,3.761,5.987,5.987,0,0,1-.88,1.682,4.426,4.426,0,0,1-1.421,1.2,3.068,3.068,0,0,1-1.756.37,2.4,2.4,0,0,1-1.543-.792,4.165,4.165,0,0,1-.778-3.326,5.548,5.548,0,0,1,.5-1.643,8.045,8.045,0,0,1,.934-1.411,9.915,9.915,0,0,1,5.391-3.2,11.47,11.47,0,0,1,5.52.063,15.073,15.073,0,0,1,4.225,1.807,19.549,19.549,0,0,1,2.8,2.081c.722.632,1.233,1.177,1.588,1.537l.392.421a1.1,1.1,0,0,0,.141.137,17.481,17.481,0,0,0-2.05-2.174,19.109,19.109,0,0,0-2.789-2.133,15.13,15.13,0,0,0-4.259-1.864,11.625,11.625,0,0,0-5.618-.1,10.126,10.126,0,0,0-5.534,3.254,8.336,8.336,0,0,0-.971,1.459,5.78,5.78,0,0,0-.528,1.719,5.467,5.467,0,0,0,.032,1.839,3.567,3.567,0,0,0,.8,1.7,2.667,2.667,0,0,0,1.711.881,3.337,3.337,0,0,0,1.913-.4,4.67,4.67,0,0,0,1.51-1.27,6.215,6.215,0,0,0,.926-1.767,7.259,7.259,0,0,0,.064-3.91,8.462,8.462,0,0,0-1.72-3.389,11.987,11.987,0,0,0-6.123-3.6,26.089,26.089,0,0,0-6.424-.757c-2.025-.031-3.908.015-5.623-.049a42.578,42.578,0,0,1-4.61-.414,14.7,14.7,0,0,1-3.363-.895,9.508,9.508,0,0,1-1.926-1.064c-.21-.14-.352-.272-.457-.348A1.018,1.018,0,0,0,194.892,463.995Z" fill="#fafafa"/><path d="M177.5,485.88a.678.678,0,0,0,.223.037c.148.013.366.04.647.047a20.111,20.111,0,0,0,2.383-.057c1.005-.072,2.194-.226,3.508-.407s2.758-.38,4.279-.461a16.684,16.684,0,0,1,4.259.32,10.838,10.838,0,0,1,3.246,1.236,9.34,9.34,0,0,1,2.4,2.127c.008-.006-.031-.073-.112-.2a4.525,4.525,0,0,0-.382-.526,7.226,7.226,0,0,0-1.8-1.569,10.625,10.625,0,0,0-3.293-1.317,16.3,16.3,0,0,0-4.327-.348c-1.538.082-2.988.293-4.3.485s-2.493.368-3.49.464-1.8.139-2.364.143A6.36,6.36,0,0,0,177.5,485.88Z" fill="#fafafa"/><path d="M190.14,509.454a10.9,10.9,0,0,1,3.02-.256,16.619,16.619,0,0,1,3.5.626c1.344.364,2.841.895,4.523,1.413a18.59,18.59,0,0,0,5.668.986,16.321,16.321,0,0,0,6.458-1.34,16.06,16.06,0,0,0,5.89-4.282,12.38,12.38,0,0,0,2.086-3.272,7.521,7.521,0,0,0,.6-3.948,5.723,5.723,0,0,0-1.867-3.518,4.1,4.1,0,0,0-1.77-.906,4.174,4.174,0,0,0-3.644.984,3.162,3.162,0,0,0-.948,1.637,3.251,3.251,0,0,0,.142,1.847,4.515,4.515,0,0,0,.985,1.508,7.907,7.907,0,0,0,2.888,1.834,8.555,8.555,0,0,0,1.584.434c.264.049.525.106.786.146l.782.091a17,17,0,0,0,5.738-.4A17.882,17.882,0,0,0,231,501.331a16.13,16.13,0,0,0,2.949-2.039l.524-.459.431-.435a7.692,7.692,0,0,0,.65-.7l.377-.453a1.027,1.027,0,0,0,.121-.16,1.067,1.067,0,0,0-.143.142l-.4.434a8.325,8.325,0,0,1-.666.682l-.438.424-.529.447a16.4,16.4,0,0,1-2.953,1.985,17.926,17.926,0,0,1-4.4,1.651,16.9,16.9,0,0,1-5.671.365l-.77-.093c-.257-.041-.514-.1-.774-.147a8.409,8.409,0,0,1-1.546-.43,7.681,7.681,0,0,1-2.79-1.783,4.251,4.251,0,0,1-.926-1.424,2.98,2.98,0,0,1-.128-1.7,3.3,3.3,0,0,1,2.45-2.357,3.765,3.765,0,0,1,1.827-.055,3.826,3.826,0,0,1,1.652.85,5.454,5.454,0,0,1,1.773,3.349,7.271,7.271,0,0,1-.581,3.8,12.142,12.142,0,0,1-2.039,3.2,15.852,15.852,0,0,1-5.786,4.224A16.122,16.122,0,0,1,206.853,512a18.541,18.541,0,0,1-5.612-.945c-1.678-.5-3.184-1.024-4.539-1.375a16.2,16.2,0,0,0-3.537-.584,10.76,10.76,0,0,0-1.31.023c-.376.054-.7.081-.95.139l-.573.143A1.271,1.271,0,0,0,190.14,509.454Z" fill="#fafafa"/><path d="M236.348,503.848c.044.018.285-.557.8-1.414a13.744,13.744,0,0,1,5.614-5.233c.891-.449,1.481-.649,1.466-.695a1.359,1.359,0,0,0-.43.1,8.493,8.493,0,0,0-1.119.424,12.248,12.248,0,0,0-5.7,5.312,8.6,8.6,0,0,0-.5,1.087A1.348,1.348,0,0,0,236.348,503.848Z" fill="#fafafa"/><path d="M256.752,526.354a.7.7,0,0,0,.082-.131l.217-.4c.188-.351.461-.869.8-1.544a36.126,36.126,0,0,0,2.407-5.922,19.286,19.286,0,0,0,.754-4.36,13.736,13.736,0,0,0-.1-2.473,14.364,14.364,0,0,0-.623-2.551,11.148,11.148,0,0,0-3.085-4.671,7.556,7.556,0,0,0-5.613-1.969,4.172,4.172,0,0,0-2.766,1.345,3.4,3.4,0,0,0-.779,2.874,2.538,2.538,0,0,0,.745,1.3,3.015,3.015,0,0,0,1.284.7,3.772,3.772,0,0,0,2.747-.333,6.309,6.309,0,0,0,2.008-1.71,9.276,9.276,0,0,0,1.262-2.136,9.424,9.424,0,0,0,.7-4.363,8.892,8.892,0,0,0-1.043-3.5,9.263,9.263,0,0,0-1.648-2.209,8.561,8.561,0,0,0-1.355-1.1c-.164-.112-.3-.18-.388-.233a.616.616,0,0,0-.138-.069c-.006.011.172.121.495.348a9.372,9.372,0,0,1,2.9,3.33,8.785,8.785,0,0,1,.986,3.44,9.287,9.287,0,0,1-.719,4.259,9.061,9.061,0,0,1-1.241,2.075A6.07,6.07,0,0,1,252.7,508a3.515,3.515,0,0,1-2.563.3A2.469,2.469,0,0,1,248.3,506.5a3.134,3.134,0,0,1,.725-2.639,3.906,3.906,0,0,1,2.587-1.249,7.3,7.3,0,0,1,5.408,1.9,10.933,10.933,0,0,1,3.024,4.553,14.138,14.138,0,0,1,.621,2.5,13.533,13.533,0,0,1,.113,2.429,19.326,19.326,0,0,1-.713,4.317,38.433,38.433,0,0,1-2.317,5.928c-.32.666-.571,1.19-.751,1.566l-.193.408A.632.632,0,0,0,256.752,526.354Z" fill="#fafafa"/><path d="M263.243,479.927a.673.673,0,0,0-.048.22c-.019.145-.06.359-.077.637a13.6,13.6,0,0,0,0,2.362,15.024,15.024,0,0,0,8.475,12.322,13.742,13.742,0,0,0,2.2.849c.266.083.48.121.623.156a.685.685,0,0,0,.222.033,6.5,6.5,0,0,0-.813-.291,16.545,16.545,0,0,1-2.149-.92,15.386,15.386,0,0,1-8.37-12.168,16.67,16.67,0,0,1-.09-2.337A6.637,6.637,0,0,0,263.243,479.927Z" fill="#fafafa"/><path d="M172.9,502.729a7.6,7.6,0,0,1,2.03,1.854c.523.677,1.048,1.553,1.648,2.525a19.481,19.481,0,0,0,2.247,2.971,18.969,18.969,0,0,0,5.389,4.051,16.241,16.241,0,0,0,1.883.806,3.945,3.945,0,0,0,.722.208,3.888,3.888,0,0,0-.684-.307c-.439-.195-1.079-.468-1.832-.879a20.235,20.235,0,0,1-5.277-4.065,20.546,20.546,0,0,1-2.235-2.92,26.705,26.705,0,0,0-1.709-2.51,6.594,6.594,0,0,0-1.508-1.4,3.665,3.665,0,0,0-.491-.269C172.967,502.744,172.9,502.721,172.9,502.729Z" fill="#fafafa"/><path d="M201.319,462.793a.9.9,0,0,0,.241.062l.7.124c.609.1,1.491.234,2.584.382,2.186.3,5.215.638,8.572.884a42.47,42.47,0,0,0,4.751.171,13.487,13.487,0,0,0,3.835-.655,8.677,8.677,0,0,0,2.341-1.183,5.687,5.687,0,0,0,.553-.451c.119-.112.177-.174.171-.181s-.272.208-.785.544a9.431,9.431,0,0,1-2.34,1.087,13.887,13.887,0,0,1-3.784.587,46.012,46.012,0,0,1-4.721-.192c-3.352-.245-6.38-.557-8.569-.8l-2.593-.3A6.59,6.59,0,0,0,201.319,462.793Z" fill="#1a2e35"/><path d="M165.3,524.524a14.132,14.132,0,0,0,13.734,16.8l39.831-.442-1.047-12.9-34.15-5.094" fill="#c78976"/><path d="M215.355,528.569a36.019,36.019,0,0,0,4.544-1.924,14.864,14.864,0,0,1,6.995-1.356l9.5.483a4.656,4.656,0,0,1-1.594,2.124c-1.006.557-6.909.676-6.909.676l.3.311a6.827,6.827,0,0,0,4.726,2.068l.907.023a8.866,8.866,0,0,0,1.982-.387l2.342-.947c.708-.32,1.457-.268,1.765.446.279.646.075,1.535-1.859,2.509-1.081.544-5.088,1.93-5.088,1.93a9.653,9.653,0,0,1-.233,1.691c-.175.583-1.749,1.166-1.749,1.166a20.871,20.871,0,0,1-1.4,2.508,14.446,14.446,0,0,1-3.126,1.079,13.449,13.449,0,0,1-7.481-.057l-3.619-1.08V528.81" fill="#c78976"/><path d="M228.343,535.77a10.812,10.812,0,0,0,4.791-1.26c-.027-.065-1.063.334-2.383.678S228.335,535.7,228.343,535.77Z" fill="#bf654e"/><path d="M228.677,537.994a3.5,3.5,0,0,0,2.536-.689,47.48,47.48,0,0,1-2.536.689Z" fill="#bf654e"/><path d="M226.943,527.715a4.159,4.159,0,0,0,.733.784,11.866,11.866,0,0,0,2.069,1.566,8.245,8.245,0,0,0,2.424.936,3.448,3.448,0,0,0,1.069.115,13.808,13.808,0,0,1-3.374-1.257,16.058,16.058,0,0,1-2.077-1.487A5.707,5.707,0,0,0,226.943,527.715Z" fill="#bf654e"/><path d="M214.388,526.83l.967,14.585-37.521.014a14.031,14.031,0,0,1-7.229-2h0a14.031,14.031,0,0,1-6.543-14.737,43.127,43.127,0,0,1,2.421-8.09l18.863,3.1-.6,2.348Z" fill="#bb83ff"/><path d="M176.053,520.834a2.087,2.087,0,0,0,.379.087l1.095.2,4.037.674,13.335,2.122,13.35,2.043,4.05.588,1.1.146a2.081,2.081,0,0,0,.388.033,2.011,2.011,0,0,0-.379-.087l-1.1-.2-4.037-.675-13.336-2.122L181.6,521.6l-4.051-.588-1.1-.147A2.005,2.005,0,0,0,176.053,520.834Z" fill="#1a2e35"/><path d="M195.251,541.44c.065-.012-.225-1.054-.261-2.771a11.049,11.049,0,0,1,.055-1.4,13.278,13.278,0,0,1,.229-1.589,15.048,15.048,0,0,1,1.22-3.461,15.964,15.964,0,0,1,2.051-3.049l.552-.618c.182-.2.378-.37.557-.548.352-.362.723-.652,1.05-.93,1.34-1.077,2.293-1.576,2.262-1.628a4,4,0,0,0-.671.34,7.273,7.273,0,0,0-.755.459c-.28.2-.625.4-.956.677a12.973,12.973,0,0,0-1.086.917c-.185.176-.386.349-.574.546l-.569.62a15.359,15.359,0,0,0-2.1,3.09,14.606,14.606,0,0,0-1.223,3.535,12.669,12.669,0,0,0-.209,1.621,10.575,10.575,0,0,0-.022,1.423,9.7,9.7,0,0,0,.1,1.168,5.941,5.941,0,0,0,.155.87A3.834,3.834,0,0,0,195.251,541.44Z" fill="#fafafa"/><path d="M172.414,540.342a7.775,7.775,0,0,0,1.74-.21,8.876,8.876,0,0,0,1.946-.685,7.65,7.65,0,0,0,2.193-1.634,6.965,6.965,0,0,0,1.613-2.892,7.841,7.841,0,0,0,.278-1.837,7.126,7.126,0,0,0-.156-1.965,5.929,5.929,0,0,0-.777-1.93,4.37,4.37,0,0,0-1.576-1.5,3.908,3.908,0,0,0-2.2-.505,2.954,2.954,0,0,0-2.06,1.066,2.9,2.9,0,0,0-.692,2.217,2.634,2.634,0,0,0,1.292,1.847,6.16,6.16,0,0,0,4.146.569,8.647,8.647,0,0,0,7.313-8.287,6.1,6.1,0,0,0-.149-1.746,13.533,13.533,0,0,1,.043,1.742,8.849,8.849,0,0,1-1.5,4.426,8.6,8.6,0,0,1-5.75,3.616,5.945,5.945,0,0,1-3.965-.548,2.364,2.364,0,0,1-1.163-1.657,2.635,2.635,0,0,1,.632-2,2.676,2.676,0,0,1,1.873-.969,3.643,3.643,0,0,1,2.047.468,4.778,4.778,0,0,1,2.236,3.25,6.9,6.9,0,0,1,.162,1.9,7.621,7.621,0,0,1-.256,1.786,6.818,6.818,0,0,1-1.537,2.822,7.623,7.623,0,0,1-2.119,1.627,9.17,9.17,0,0,1-1.9.719C173.039,540.294,172.409,540.3,172.414,540.342Z" fill="#fafafa"/><text transform="translate(159.985 568.097)" fill="#2d2d2d" font-size="18" font-family="Roboto-Bold, Roboto" font-weight="700" opacity="0.9"><tspan x="0" y="0">Emisor</tspan></text><path d="M377.926,431.322h46.8a28.736,28.736,0,0,1,47.718,0h46.8a7.012,7.012,0,0,0,7.012-7.013v-30.69a7.012,7.012,0,0,0-7.012-7.013H377.926a7.013,7.013,0,0,0-7.012,7.013v30.69A7.013,7.013,0,0,0,377.926,431.322Z" fill="#f9e478" opacity="0.25"/><text transform="translate(412.075 408.964)" fill="#2d2d2d" font-size="18" font-family="Roboto-Bold, Roboto" font-weight="700" opacity="0.9"><tspan x="0" y="0">Referente</tspan></text><circle cx="15.895" cy="15.895" r="15.895" transform="translate(432.695 431.454)" fill="#f9e478"/><line y2="28.313" transform="translate(448.59 507.82)" fill="none" stroke="#b7b7b7" stroke-miterlimit="10" stroke-width="1" stroke-dasharray="3"/><path d="M439.556,480.55,441.9,482.9l5.025-5.024v13.662h3.322V477.874l5.024,5.024,2.348-2.348-9.033-9.034Z" fill="#18b8c4"/><rect width="3.322" height="5.235" transform="translate(446.929 494.367)" fill="#18b8c4"/><rect width="3.322" height="2.758" transform="translate(446.929 502.683)" fill="#18b8c4"/><line y1="28.313" transform="translate(448.59 591.984)" fill="none" stroke="#b7b7b7" stroke-miterlimit="10" stroke-width="1" stroke-dasharray="3"/><path d="M457.623,647.568l-2.347-2.348-5.025,5.024V636.583h-3.322v13.661L441.9,645.22l-2.348,2.348,9.033,9.034Z" fill="#18b8c4"/><rect width="3.322" height="5.235" transform="translate(446.929 628.516)" fill="#18b8c4"/><rect width="3.322" height="2.758" transform="translate(446.929 622.677)" fill="#18b8c4"/><path d="M540.9,540.894H396.726a28.721,28.721,0,0,1,0,44.716H540.9a6.322,6.322,0,0,0,6.322-6.323V547.216A6.321,6.321,0,0,0,540.9,540.894Z" fill="#31d9e7"/><circle cx="15.895" cy="15.895" r="15.895" transform="translate(362.791 547.761)" fill="#31d9e7"/><text transform="translate(417.106 571.212)" fill="#2d2d2d" font-size="18" font-family="Roboto-Bold, Roboto" font-weight="700" opacity="0.9"><tspan x="0" y="0">Mensaje</tspan></text><g opacity="0.25"><path d="M525.838,786.3H381.661a28.721,28.721,0,0,1,0,44.716H525.838a6.323,6.323,0,0,0,6.323-6.322V792.625A6.323,6.323,0,0,0,525.838,786.3Z" fill="#31d9e7"/></g><circle cx="15.895" cy="15.895" r="15.895" transform="translate(347.727 793.17)" fill="#31d9e7"/><text transform="translate(404.648 816.622)" fill="#2d2d2d" font-size="18" font-family="Roboto-Bold, Roboto" font-weight="700" opacity="0.9"><tspan x="0" y="0">Canal</tspan></text><g opacity="0.25"><path d="M539.242,279.149H395.065a28.721,28.721,0,0,1,0,44.716H539.242a6.323,6.323,0,0,0,6.323-6.323V285.471A6.322,6.322,0,0,0,539.242,279.149Z" fill="#31d9e7"/></g><circle cx="15.895" cy="15.895" r="15.895" transform="translate(361.131 285.612)" fill="#31d9e7"/><text transform="translate(418.052 306.767)" fill="#2d2d2d" font-size="18" font-family="Roboto-Bold, Roboto" font-weight="700" opacity="0.9"><tspan x="0" y="0">Contexto</tspan></text><circle cx="1.533" cy="1.533" r="1.533" transform="translate(514.573 557.441)" fill="#fff"/><circle cx="1.533" cy="1.533" r="1.533" transform="translate(519.849 557.441)" fill="#fff"/><path d="M531.583,551.044a.324.324,0,0,1,.09-.005,1.176,1.176,0,0,1,.265.029,1.41,1.41,0,0,1,.412.155,1.526,1.526,0,0,1,.764,1.107,1.74,1.74,0,0,1,.019.22l0,.223,0,.475.017,2.267c.009,1.7.019,3.768.031,6.147l.006,1.842,0,.963v.741a1.864,1.864,0,0,1-.023.268,1.618,1.618,0,0,1-1.542,1.354l-2.165.008.128-.117c-.14,1.522-.288,3.129-.441,4.8l-.024.26-.2-.167-5.811-4.788.094.034-11.907.006H508.5c-.094,0-.181,0-.282,0a1.728,1.728,0,0,1-.3-.036,1.654,1.654,0,0,1-1.251-1.2,2.123,2.123,0,0,1-.054-.583v-3.245c0-2.848.006-5.595.009-8.213l0-.975a1.732,1.732,0,0,1,.065-.516,1.7,1.7,0,0,1,.223-.472,1.641,1.641,0,0,1,.811-.619,1.6,1.6,0,0,1,.5-.091c.163,0,.314,0,.47,0l3.607.008,6.474.019,9.375.049,2.549.029.663.015a1.362,1.362,0,0,1,.226.016,1.133,1.133,0,0,1-.226.016l-.663.015-2.549.029-9.375.05-6.474.018-3.607.008c-.153,0-.314,0-.463,0a1.326,1.326,0,0,0-.418.077,1.366,1.366,0,0,0-.672.516,1.4,1.4,0,0,0-.236.831v.975c0,2.618.006,5.365.009,8.213l0,2.154v1.091a1.823,1.823,0,0,0,.045.506,1.342,1.342,0,0,0,1.018.978,1.364,1.364,0,0,0,.247.029c.085,0,.183,0,.274,0h2.81l11.907.006h.054l.041.034,5.8,4.8-.226.094c.16-1.668.315-3.274.461-4.8l.011-.116h.117l2.157,0a1.38,1.38,0,0,0,1.319-1.147,1.6,1.6,0,0,0,.021-.229v-.741l0-.963.006-1.842c.012-2.379.022-4.447.031-6.147l.017-2.267,0-.475,0-.223a1.548,1.548,0,0,0-.013-.207,1.431,1.431,0,0,0-.27-.676,1.493,1.493,0,0,0-.82-.561C531.705,551.049,531.582,551.056,531.583,551.044Z" fill="#fff"/><rect width="26.324" height="15.665" rx="5.459" transform="translate(497.021 558.672)" fill="#f17781"/><path d="M513.034,573.837l6.224,5.527.511-5.429" fill="#f17781"/><circle cx="1.533" cy="1.533" r="1.533" transform="translate(503.693 565.194)" fill="#fff"/><circle cx="1.533" cy="1.533" r="1.533" transform="translate(508.968 565.194)" fill="#fff"/><circle cx="1.533" cy="1.533" r="1.533" transform="translate(514.244 565.194)" fill="#fff"/><circle cx="1.533" cy="1.533" r="1.533" transform="translate(525.124 557.441)" fill="#fff"/><path d="M378.687,596.484a33.233,33.233,0,1,1,19.564-60.09H540.813a10.881,10.881,0,0,1,10.913,10.822v32.072a10.88,10.88,0,0,1-10.913,10.821H398.251A33.322,33.322,0,0,1,378.687,596.484Z" fill="none" stroke="#b7b7b7" stroke-miterlimit="10" stroke-width="1" stroke-dasharray="3"/><line x2="28.313" transform="translate(316.539 563.655)" fill="none" stroke="#b7b7b7" stroke-miterlimit="10" stroke-width="1" stroke-dasharray="3"/><path d="M289.268,572.689l2.348-2.347-5.024-5.025h13.662v-3.322H286.592l5.024-5.024-2.348-2.348-9.034,9.033Z" fill="#18b8c4"/><rect width="5.235" height="3.322" transform="translate(303.085 561.995)" fill="#18b8c4"/><rect width="2.758" height="3.322" transform="translate(311.401 561.995)" fill="#18b8c4"/><line x1="28.313" transform="translate(553.313 563.655)" fill="none" stroke="#b7b7b7" stroke-miterlimit="10" stroke-width="1" stroke-dasharray="3"/><path d="M608.9,554.622l-2.348,2.347,5.024,5.025H597.912v3.322h13.661l-5.024,5.024,2.348,2.348,9.034-9.033Z" fill="#18b8c4"/><rect width="5.235" height="3.322" transform="translate(589.845 561.995)" fill="#18b8c4"/><rect width="2.758" height="3.322" transform="translate(584.006 561.995)" fill="#18b8c4"/><path d="M551.726,301.187H815.041a22.844,22.844,0,0,1,22.843,22.844V844.918a22.843,22.843,0,0,1-22.843,22.843H85.4a22.843,22.843,0,0,1-22.843-22.843V324.031A22.844,22.844,0,0,1,85.4,301.187H342.358" fill="none" stroke="#666" stroke-miterlimit="10" stroke-width="1"/></g></svg>