<svg xmlns="http://www.w3.org/2000/svg" width="290.701" height="253.126" viewBox="0 0 290.701 253.126"><g transform="translate(-519.56 -222.157)"><rect width="246.642" height="184.559" transform="translate(519.56 244.381)" fill="#bb83ff" opacity="0.25"/><g transform="translate(538.628 263.552)"><g transform="translate(10.689 31.114)"><path d="M1359.689,603.614a13.7,13.7,0,0,1-11.38-6.073l-45.562-68a13.7,13.7,0,0,1,22.761-15.251l34.026,50.781,4.333-6.645a13.7,13.7,0,1,1,22.95,14.965l-15.653,24a13.7,13.7,0,0,1-11.389,6.216Z" transform="translate(-1300.427 -508.217)" fill="#efc0cd"/></g><g transform="translate(74.129 67.952)"><rect width="15.965" height="27.398" transform="matrix(0.546, -0.838, 0.838, 0.546, 0, 13.373)" fill="#f17781"/></g><g transform="translate(70.739 77.736)"><path d="M1539.52,695.933a4.363,4.363,0,0,1-2.357-.691l-23.907-15.281a4.384,4.384,0,1,1,4.722-7.388l23.907,15.281a4.385,4.385,0,0,1-2.365,8.08Z" transform="translate(-1511.231 -671.882)" fill="#f17781"/></g><g transform="translate(80.623 51.364)"><path d="M1559.618,617.073a13.7,13.7,0,0,1-11.462-21.183l6.763-10.371a13.7,13.7,0,1,1,22.95,14.965l-6.762,10.371A13.688,13.688,0,0,1,1559.618,617.073Z" transform="translate(-1545.931 -579.301)" fill="#f17781"/></g><path d="M1653.726,644.8h-70.845l-9.755-54.744A16.723,16.723,0,0,1,1589.59,570.4h57.426a16.723,16.723,0,0,1,16.464,19.657Z" transform="translate(-1484.567 -521.572)" fill="#fff"/><path d="M1689.655,491.53a9,9,0,0,1-10.076-7.786l-.826-6.4-.423-3.3-1.452-11.324-.692-5.378a9,9,0,1,1,17.863-2.293l1.033,8.059,1.406,10.936.949,7.406A9,9,0,0,1,1689.655,491.53Z" transform="translate(-1558.405 -433.459)" fill="#efc0cd"/><path d="M1645.278,457.327h0a10.4,10.4,0,0,1-7.781-12.477l1.947-8.4a13.7,13.7,0,0,1,16.442-10.254h0a13.7,13.7,0,0,1,10.253,16.442l-.454,1.961A17.006,17.006,0,0,1,1645.278,457.327Z" transform="translate(-1530.596 -418.192)" fill="#efc0cd"/><g transform="translate(0 26.216)"><path d="M1279,517.366a4.849,4.849,0,0,1-4.026-2.137l-11.238-16.638a4.853,4.853,0,1,1,8.044-5.433l11.238,16.638a4.854,4.854,0,0,1-4.018,7.571Z" transform="translate(-1262.905 -491.021)" fill="#efc0cd"/></g><g transform="translate(3.959 14.653)"><path d="M1294.055,479.957a4.851,4.851,0,0,1-4.12-2.281l-12.391-19.818a4.853,4.853,0,1,1,8.23-5.146l12.392,19.818a4.854,4.854,0,0,1-4.111,7.427Z" transform="translate(-1276.804 -450.431)" fill="#efc0cd"/></g><g transform="translate(14.473 13.156)"><path d="M1327.488,471.8a4.852,4.852,0,0,1-4.3-2.591l-8.917-16.913a4.853,4.853,0,0,1,8.586-4.527l8.917,16.913a4.855,4.855,0,0,1-4.289,7.118Z" transform="translate(-1313.713 -445.177)" fill="#efc0cd"/></g><g transform="translate(24.09 23.709)"><path d="M1354.805,503.173a4.854,4.854,0,0,1-3.937-7.686l1.852-2.578-2.822-1.632a4.853,4.853,0,1,1,4.859-8.4l7.46,4.314a4.853,4.853,0,0,1,1.512,7.033l-4.978,6.929A4.847,4.847,0,0,1,1354.805,503.173Z" transform="translate(-1347.474 -482.222)" fill="#efc0cd"/></g><g transform="translate(22.784 23.261)"><path d="M1343.888,502.577a.9.9,0,0,1-.878-.71,8.149,8.149,0,0,1,1.151-5.792,8.431,8.431,0,0,1,4.533-3.251l-2.256-1.668a5.825,5.825,0,0,1,3.464-10.509h.583a.9.9,0,0,1,0,1.8h-.583a4.028,4.028,0,0,0-2.394,7.267l3.781,2.8a.9.9,0,0,1-.373,1.607,7.638,7.638,0,0,0-5.26,2.96,6.33,6.33,0,0,0-.889,4.415.9.9,0,0,1-.879,1.089Z" transform="translate(-1342.887 -480.647)" fill="#c9a0ac"/></g><path d="M1587.07,831.582l-8.35,42.023h87.471l-8.277-42.023Z" transform="translate(-1488.756 -708.353)" fill="#44d4f4"/><path d="M1644.643,416.015a16.041,16.041,0,0,0,.391,4.072,5.036,5.036,0,0,0,3.655,3.227,22.862,22.862,0,0,0,6.948.166c5.025-.344,11.2-4.139,8.22-10.006a5.739,5.739,0,0,0-5.481-3.12,4.83,4.83,0,0,0,3.994-1.632,3.783,3.783,0,0,0,.437-4.185,4.531,4.531,0,0,0-4.457-1.878,13.311,13.311,0,0,0-4.738,1.849,7.6,7.6,0,0,0-4.157-4.866,6.138,6.138,0,0,0-6.232.8,2.914,2.914,0,0,0-1.106,1.744,1.533,1.533,0,0,0,.95,1.689,4.579,4.579,0,0,0-8.72-2.252,3.663,3.663,0,0,0-.344,1.663,8.039,8.039,0,0,1,.668,1.555c-2.268.581-7.1-1.707-4.646-4.622a7.33,7.33,0,0,0-6.573,4.428,5.988,5.988,0,0,0,.928,5.839c2.782,3.727,7.768,4.049,12.012,4.41,2.436.207,7.278.929,7.278.929l.913.173Z" transform="translate(-1520.464 -398.992)" fill="#47286d"/><path d="M1626.838,462.183l-7.571,8.026a1.512,1.512,0,0,0,.94,2.541l6.188.658Z" transform="translate(-1517.457 -444.182)" fill="#efc0cd"/><path d="M1634.844,495.3a6.134,6.134,0,0,1,2.956-1.131,7.717,7.717,0,0,1,4.97,1.08,18.063,18.063,0,0,0,2.451,1.49c2.893,1.169,5.859-1.334,8.231-2.623a25.756,25.756,0,0,0,2.356-1.582l.013-.011,7.567,3.681c.825.52-2.715,4.725-3.066,5.165a18.863,18.863,0,0,1-14.563,7.274,16.267,16.267,0,0,1-9.256-2.859C1632.964,503.21,1631.649,497.737,1634.844,495.3Z" transform="translate(-1527.594 -465.876)" fill="#47286d"/><path d="M1724.392,478.724a6.464,6.464,0,1,1-6.464-6.464A6.464,6.464,0,0,1,1724.392,478.724Z" transform="translate(-1583.686 -451.389)" fill="#efc0cd"/><g transform="translate(114.707 75.431)"><path d="M1679.291,754.024a13.7,13.7,0,0,1-8.186-24.692l48.342-35.953-4.036-11.271a13.7,13.7,0,1,1,25.794-9.236l7.457,20.825a13.7,13.7,0,0,1-4.722,15.61l-56.484,42.009A13.637,13.637,0,0,1,1679.291,754.024Z" transform="translate(-1665.58 -663.788)" fill="#efc0cd"/></g><g transform="translate(159.072 69.424)"><rect width="27.398" height="15.965" transform="translate(0 9.445) rotate(-20.166)" fill="#f17781"/></g><g transform="translate(153.96 48.822)"><path d="M1821.349,609.406a13.705,13.705,0,0,1-12.861-8.98L1804.22,588.8a13.7,13.7,0,1,1,25.718-9.445l4.269,11.622a13.708,13.708,0,0,1-12.858,18.426Z" transform="translate(-1803.377 -570.379)" fill="#f17781"/></g><g transform="translate(160.287 80.211)"><path d="M1829.972,698.854a4.385,4.385,0,0,1-1.529-8.5l25.585-9.512a4.385,4.385,0,1,1,3.056,8.219l-25.585,9.512A4.373,4.373,0,0,1,1829.972,698.854Z" transform="translate(-1825.586 -680.57)" fill="#f17781"/></g><g transform="translate(101.603 170.629)"><path d="M1662.311,1039.08h-41.82a.913.913,0,0,1-.913-.913V998.891a.913.913,0,0,1,.913-.913h41.82a.913.913,0,0,1,.913.913v4.7a.913.913,0,0,1-1.826,0V999.8H1621.4v37.45H1661.4v-4.979a.913.913,0,1,1,1.826,0v5.892A.913.913,0,0,1,1662.311,1039.08Z" transform="translate(-1619.578 -997.978)" fill="#240448"/><g transform="translate(38.526 4.697)"><path d="M1775.091,1046.906a.912.912,0,0,1-.573-.2l-19.354-15.591a.912.912,0,0,1,.013-1.432l19.354-15.022a.913.913,0,0,1,1.473.722v30.612a.914.914,0,0,1-.913.913Zm-17.883-16.49,16.97,13.67v-26.84Z" transform="translate(-1754.823 -1014.468)" fill="#240448"/></g></g><g transform="translate(130.197 149.719)"><path d="M1724.817,954.179a4.908,4.908,0,0,1-.657-.044,4.853,4.853,0,0,1-4.159-5.46l2.692-19.9a4.853,4.853,0,1,1,9.619,1.3l-2.692,19.9A4.854,4.854,0,0,1,1724.817,954.179Z" transform="translate(-1719.956 -924.575)" fill="#efc0cd"/></g><g transform="translate(119.545 152.569)"><path d="M1687.423,967.324a4.856,4.856,0,0,1-4.789-5.674l3.948-23.037a4.853,4.853,0,1,1,9.567,1.64L1692.2,963.29A4.856,4.856,0,0,1,1687.423,967.324Z" transform="translate(-1682.564 -934.579)" fill="#efc0cd"/></g><g transform="translate(110.703 151.166)"><path d="M1656.381,957.919a4.858,4.858,0,0,1-4.714-6.024l4.607-18.556a4.853,4.853,0,0,1,9.421,2.339l-4.607,18.556A4.856,4.856,0,0,1,1656.381,957.919Z" transform="translate(-1651.523 -929.654)" fill="#efc0cd"/></g><g transform="translate(106.268 144.576)"><path d="M1640.8,925.605a4.853,4.853,0,0,1-3.68-8.015l8.051-9.377a4.853,4.853,0,1,1,7.365,6.323l-8.052,9.377A4.843,4.843,0,0,1,1640.8,925.605Z" transform="translate(-1635.953 -906.521)" fill="#efc0cd"/></g></g><g transform="translate(546.024 222.157)"><path d="M1536.25,298.125h-80.094a.739.739,0,0,1,0-1.478h79.355V255.156H1290.347v41.491H1380.5a.739.739,0,0,1,0,1.478h-90.9a.739.739,0,0,1-.739-.739V254.417a.739.739,0,0,1,.739-.739H1536.25a.739.739,0,0,1,.739.739v42.969A.739.739,0,0,1,1536.25,298.125Z" transform="translate(-1288.869 -253.678)" fill="#47286d"/></g><g transform="translate(561.022 235.843)"><g transform="translate(0 0)"><path d="M1350.057,318.8a8.538,8.538,0,1,1,8.538-8.538A8.547,8.547,0,0,1,1350.057,318.8Zm0-15.6a7.06,7.06,0,1,0,7.06,7.06A7.068,7.068,0,0,0,1350.057,303.2Z" transform="translate(-1341.519 -301.721)" fill="#240448"/></g><g transform="translate(24.95 0)"><path d="M1437.644,318.8a8.538,8.538,0,1,1,8.537-8.538A8.547,8.547,0,0,1,1437.644,318.8Zm0-15.6a7.06,7.06,0,1,0,7.06,7.06A7.068,7.068,0,0,0,1437.644,303.2Z" transform="translate(-1429.106 -301.721)" fill="#240448"/></g><g transform="translate(49.901 0)"><path d="M1525.232,318.8a8.538,8.538,0,1,1,8.538-8.538A8.547,8.547,0,0,1,1525.232,318.8Zm0-15.6a7.06,7.06,0,1,0,7.06,7.06A7.068,7.068,0,0,0,1525.232,303.2Z" transform="translate(-1516.694 -301.721)" fill="#240448"/></g></g><path d="M2119.153,1378.606l2.005,3.786,3.666,2.071-3.666,2.071-2.005,3.786-2-3.786-3.666-2.071,3.666-2.071Z" transform="translate(-1333.151 -1019.435)" fill="#f17781"/><path d="M2182.321,693.537l2,3.786,3.666,2.071-3.666,2.071-2,3.786-2.005-3.786-3.666-2.071,3.666-2.071Z" transform="translate(-1377.73 -346.08)" fill="#f17781"/><g transform="translate(763.175 226.004)"><path d="M1493.109,1140.363a3.16,3.16,0,1,1,3.161-3.16A3.16,3.16,0,0,1,1493.109,1140.363Z" transform="translate(-1466.04 -1121.106)" fill="#fccc6c"/><path d="M1451.144,1140.363a3.16,3.16,0,1,1,3.161-3.16A3.16,3.16,0,0,1,1451.144,1140.363Z" transform="translate(-1436.029 -1121.106)" fill="#fccc6c"/><path d="M1451.144,1094.952a3.16,3.16,0,1,1,3.161-3.16A3.16,3.16,0,0,1,1451.144,1094.952Z" transform="translate(-1436.029 -1088.631)" fill="#fccc6c"/><path d="M1451.144,1182.464a3.161,3.161,0,1,1,3.161-3.161A3.16,3.16,0,0,1,1451.144,1182.464Z" transform="translate(-1436.029 -1151.214)" fill="#fccc6c"/><path d="M1409.178,1140.363a3.16,3.16,0,1,1,3.161-3.16A3.161,3.161,0,0,1,1409.178,1140.363Z" transform="translate(-1406.018 -1121.106)" fill="#fccc6c"/></g><g transform="translate(768.396 409.045)"><path d="M2131.628,1130.571c-3.782,0-7.453-1.677-8.76-5.3a9.19,9.19,0,0,1-.5-2.281,11.229,11.229,0,0,1-4.466-3.25,10.157,10.157,0,0,1-2.51-5.44.75.75,0,0,1,1.494-.137,8.754,8.754,0,0,0,2.155,4.6,10.5,10.5,0,0,0,3.3,2.591,12.5,12.5,0,0,1,.219-1.705,5.079,5.079,0,0,1,1.965-3.472,3.418,3.418,0,0,1,5.238,3.526,4.229,4.229,0,0,1-1.342,2.24,5.354,5.354,0,0,1-4.065,1.484c-.143-.008-.286-.022-.432-.041a7.47,7.47,0,0,0,.348,1.376c1.6,4.448,7.268,4.894,10.778,3.789.119-.037.238-.078.356-.12a9.113,9.113,0,0,0,2.632-1.441.75.75,0,0,1,.937,1.17,10.6,10.6,0,0,1-3.064,1.683c-.136.048-.273.094-.41.138A12.992,12.992,0,0,1,2131.628,1130.571Zm-7.8-8.722a4.788,4.788,0,0,0,.621.078,3.905,3.905,0,0,0,2.962-1.091,2.8,2.8,0,0,0,.887-1.434,1.918,1.918,0,0,0-2.939-1.979,3.71,3.71,0,0,0-1.322,2.512A10.766,10.766,0,0,0,2123.828,1121.849Z" transform="translate(-2115.391 -1113.478)" fill="#240448"/></g><g transform="translate(718.841 286.205)"><path d="M1955.56,484.283l-3.85,2.039-2.106,3.728-2.106-3.728-3.85-2.039,3.85-2.039,2.106-3.728,2.106,3.728Z" transform="translate(-1929.944 -478.517)" fill="#fff"/><path d="M1912.909,508.847l-5.614,2.973-3.071,5.436-3.07-5.436-5.615-2.973,5.615-2.973,3.07-5.436,3.071,5.436Z" transform="translate(-1895.538 -494.193)" fill="#fff"/></g><g transform="translate(718.841 434.932)"><path d="M1264.467,1283.559c-3.845,0-7.579-1.7-8.908-5.392a9.344,9.344,0,0,1-.5-2.32,11.421,11.421,0,0,1-4.541-3.305,10.324,10.324,0,0,1-2.553-5.532.762.762,0,1,1,1.518-.139,8.914,8.914,0,0,0,2.192,4.679,10.686,10.686,0,0,0,3.359,2.634,12.778,12.778,0,0,1,.223-1.734,5.167,5.167,0,0,1,2-3.531,3.475,3.475,0,0,1,5.326,3.586,4.3,4.3,0,0,1-1.365,2.278,5.449,5.449,0,0,1-4.134,1.509q-.217-.013-.438-.042a7.564,7.564,0,0,0,.354,1.4c1.631,4.523,7.391,4.975,10.96,3.853q.182-.058.362-.122a9.258,9.258,0,0,0,2.676-1.466.763.763,0,0,1,.953,1.191,10.784,10.784,0,0,1-3.116,1.711q-.208.074-.418.14A13.224,13.224,0,0,1,1264.467,1283.559Zm-7.932-8.869a4.831,4.831,0,0,0,.632.08,3.966,3.966,0,0,0,3.012-1.109,2.852,2.852,0,0,0,.9-1.458,1.95,1.95,0,0,0-2.989-2.012,3.775,3.775,0,0,0-1.344,2.555A11.018,11.018,0,0,0,1256.535,1274.69Z" transform="translate(-1247.957 -1266.178)" fill="#240448"/></g><g transform="translate(525.811 397.563)"><path d="M1634.8,1188.347l13.495-37.47-20.139-17.279,6,15.275-50.094-6.265-12.226,37.864Z" transform="translate(-1570.549 -1133.598)" fill="#dce5f7"/><g transform="translate(0 0.473)"><path d="M1593.341,1184.648a4.766,4.766,0,0,1-.972-.107c-2.736-.57-5.322-2.426-7.491-4.166a67.085,67.085,0,0,1-5.253-4.871c-1.468-1.462-2.985-2.974-4.569-4.3a23.411,23.411,0,0,0-10.4-5.2.553.553,0,1,1,.218-1.085,24.5,24.5,0,0,1,10.9,5.438c1.621,1.355,3.156,2.885,4.64,4.363a66.221,66.221,0,0,0,5.165,4.792c2.067,1.658,4.517,3.423,7.024,3.946a2.032,2.032,0,0,0,2.147-.516c.8-.99.61-2.932.024-4.255-1.141-2.579-3.433-4.643-5.275-6.3-1.935-1.744-4.057-3.313-6.108-4.83-.749-.553-1.523-1.126-2.282-1.7-1.874-1.422-4.19-3.756-4.584-6.8a5.259,5.259,0,0,1,1.512-4.618,8.257,8.257,0,0,1,6.85-1.866,21.666,21.666,0,0,1,16.176,12.381c.683,1.609,1.956,4.6,3.756,5.176a2.391,2.391,0,0,0,2.046-.374,3.8,3.8,0,0,0,1.518-2.451c.509-2.393-.415-5.144-2.533-7.548-1.831-2.077-4.5-3.279-7.073-4.441-2.909-1.312-5.917-2.668-7.845-5.3-1.093-1.491-.9-2.6-.537-3.27,1.4-2.609,7.291-2.918,8.674-2.853,7.085.326,13.155,6.114,13.532,12.9.083,1.49.051,3.146.017,4.9-.142,7.367-.3,15.717,7.729,17.356a3.657,3.657,0,0,0,3.357-.664,4.852,4.852,0,0,0,1.037-4.249,15.49,15.49,0,0,0-2.394-5.643,16.3,16.3,0,0,1-2.516-6.019,4.343,4.343,0,0,1,.739-3.346,2.758,2.758,0,0,1,2.434-1.205c2.271.235,4.109,3.744,5.324,6.066.24.458.447.854.6,1.1l.13.216c2.469,4.129,3.638,4.7,4.12,4.669.223-.013.429-.23.613-.643a4.278,4.278,0,0,0,.021-2.419c-.446-2.529-.993-5.154-1.521-7.692-1.527-7.337-3.107-14.924-2.806-22.3a.553.553,0,1,1,1.106.045c-.3,7.242,1.27,14.761,2.784,22.032.53,2.547,1.079,5.18,1.528,7.726a5.292,5.292,0,0,1-.1,3.06,1.848,1.848,0,0,1-1.557,1.3l-.095,0c-1.707,0-3.587-2.774-5.043-5.208l-.126-.21c-.171-.281-.385-.691-.634-1.166-.971-1.854-2.778-5.3-4.458-5.479a1.719,1.719,0,0,0-1.465.808,3.367,3.367,0,0,0-.5,2.5,15.241,15.241,0,0,0,2.374,5.606,16.545,16.545,0,0,1,2.536,6.051,5.911,5.911,0,0,1-1.376,5.208,4.631,4.631,0,0,1-4.335.942c-8.936-1.823-8.758-11.049-8.615-18.462.034-1.732.065-3.368-.015-4.817-.346-6.238-5.943-11.558-12.477-11.859-2.19-.1-6.747.59-7.647,2.271-.307.573-.159,1.258.453,2.093,1.756,2.394,4.5,3.632,7.407,4.943,2.684,1.211,5.46,2.463,7.449,4.719,2.352,2.669,3.368,5.771,2.786,8.51a4.781,4.781,0,0,1-2.017,3.161,3.473,3.473,0,0,1-2.964.488c-2.286-.725-3.635-3.9-4.44-5.8a20.521,20.521,0,0,0-15.326-11.719,7.124,7.124,0,0,0-5.908,1.564,4.141,4.141,0,0,0-1.187,3.684c.344,2.662,2.45,4.763,4.155,6.058.753.572,1.524,1.142,2.271,1.693,2.073,1.533,4.216,3.118,6.191,4.9,1.92,1.729,4.309,3.882,5.546,6.677.714,1.613.964,3.99-.175,5.4A2.766,2.766,0,0,1,1593.341,1184.648Z" transform="translate(-1564.208 -1136.391)" fill="#fff"/></g></g><g transform="translate(552.165 426.139)"><ellipse cx="2.878" cy="2.878" rx="2.878" ry="2.878" transform="translate(0 6.21) rotate(-76.718)" fill="#47286d"/><ellipse cx="2.878" cy="2.878" rx="2.878" ry="2.878" transform="translate(10.238 6.21) rotate(-76.718)" fill="#47286d"/><circle cx="2.878" cy="2.878" r="2.878" transform="translate(19.868 4.07) rotate(-45)" fill="#47286d"/></g></g></svg>