<svg xmlns="http://www.w3.org/2000/svg" width="396" height="415" viewBox="0 0 396 415"><g transform="translate(-908 -6920)"><rect width="396" height="415" transform="translate(908 6920)" fill="#f6f6f6"/><rect width="170" height="103" transform="translate(936 7002)" fill="#bb83ff" opacity="0.5"/><rect width="170" height="103" transform="translate(936 7113)" fill="#bb83ff" opacity="0.5"/><rect width="171" height="103" transform="translate(1113 7002)" fill="#bb83ff" opacity="0.5"/><rect width="171" height="103" transform="translate(1113 7113)" fill="#bb83ff" opacity="0.5"/><text transform="translate(968 7035)" fill="#12263f" font-size="28" font-family="Roboto-Thin, Roboto" font-weight="200"><tspan x="0" y="29">Gracias</tspan></text><text transform="translate(1145 7035)" fill="#12263f" font-size="28" font-family="Roboto-Regular, Roboto"><tspan x="0" y="29">Gracias</tspan></text><text transform="translate(968 7146)" fill="#12263f" font-size="28" font-family="Roboto-Bold, Roboto" font-weight="700"><tspan x="0" y="29">Gracias</tspan></text><text transform="translate(1145 7146)" fill="#12263f" font-size="28" font-family="Roboto-Black, Roboto" font-weight="800"><tspan x="0" y="29">Gracias</tspan></text><text transform="translate(936 6942)" fill="#12263f" font-size="16" font-family="Roboto-Regular, Roboto"><tspan x="0" y="17">Ligera / Light </tspan><tspan x="0" y="41">Delgada / Thin</tspan></text><text transform="translate(1113 6942)" fill="#12263f" font-size="16" font-family="Roboto-Regular, Roboto"><tspan x="0" y="17">Normal / Regular /</tspan><tspan x="0" y="41">Medium</tspan></text><text transform="translate(936 7229)" fill="#12263f" font-size="16" font-family="Roboto-Thin, Roboto" font-weight="200"><tspan x="0" y="17">Fuente tipogr치fica: Roboto</tspan><tspan font-family="Roboto-Regular, Roboto" font-weight="400"><tspan x="0" y="41">Fuente tipogr치fica: Roboto</tspan></tspan><tspan font-family="Roboto-Bold, Roboto" font-weight="700"><tspan x="0" y="65">Fuente tipogr치fica: Roboto</tspan></tspan><tspan font-family="Roboto-Black, Roboto" font-weight="800"><tspan x="0" y="89">Fuente tipogr치fica: Roboto</tspan></tspan></text></g></svg>