<svg xmlns="http://www.w3.org/2000/svg" width="70.735" height="68.043" viewBox="0 0 70.735 68.043"><path d="M151.022,27.646a20.04,20.04,0,1,1-20.04-20.04A20.041,20.041,0,0,1,151.022,27.646Zm0,0" transform="translate(-95.614 -6.555)" fill="#58c3e8"/><path d="M254.358,214.837a20.04,20.04,0,1,1-20.04-20.04A20.041,20.041,0,0,1,254.358,214.837Zm0,0" transform="translate(-184.674 -167.885)" fill="#ffd061"/><path d="M221.793,208.455a20.063,20.063,0,0,0,23.728-13.1,20.064,20.064,0,0,0-23.728,13.1Zm0,0" transform="translate(-191.151 -167.885)" fill="#49bd90"/><path d="M47.686,214.837a20.04,20.04,0,1,1-20.04-20.04A20.041,20.041,0,0,1,47.686,214.837Zm0,0" transform="translate(-6.555 -167.885)" fill="#fa70b2"/><path d="M118.457,195.355a20.063,20.063,0,0,0,23.728,13.1,20.061,20.061,0,0,0-23.728-13.1Zm0,0" transform="translate(-102.092 -167.882)" fill="#af7bc6"/><path d="M214.277,252.129a19.975,19.975,0,0,0,5.764,14.063,20.036,20.036,0,0,0,0-28.125A19.974,19.974,0,0,0,214.277,252.129Zm0,0" transform="translate(-184.674 -205.176)" fill="#ef6122"/><path d="M231.245,245.747a20.193,20.193,0,0,1-9.452,0,20.051,20.051,0,0,1,4.726-7.681A20.051,20.051,0,0,1,231.245,245.747Zm0,0" transform="translate(-191.151 -205.176)" fill="#fff"/><path d="M55.688,26.745A21.111,21.111,0,0,0,52.856,9.3a1.051,1.051,0,0,0-1.741,1.176,19.013,19.013,0,0,1,2.532,15.77,21.065,21.065,0,0,0-18.279,5.2,21.066,21.066,0,0,0-18.279-5.2A18.991,18.991,0,0,1,48.8,7.663a1.051,1.051,0,1,0,1.486-1.486A21.093,21.093,0,0,0,15.047,26.745,21.094,21.094,0,0,0,25.108,67.661a1.051,1.051,0,1,0-.4-2.063,18.992,18.992,0,0,1-9-36.859A21.192,21.192,0,0,0,29.323,41.3,21.067,21.067,0,0,0,33.9,60.975a19.011,19.011,0,0,1-5.423,3.475,1.051,1.051,0,0,0,.819,1.935,21.109,21.109,0,0,0,6.078-3.912A21.086,21.086,0,1,0,55.688,26.745Zm-2.733,1.506A19.079,19.079,0,0,1,40.746,39.3a21.118,21.118,0,0,0-3.906-6.364,18.978,18.978,0,0,1,16.114-4.689ZM35.367,34.445a19.03,19.03,0,0,1,3.311,5.347,19.055,19.055,0,0,1-6.622,0A19.03,19.03,0,0,1,35.367,34.445ZM17.78,28.251a18.978,18.978,0,0,1,16.114,4.689A21.118,21.118,0,0,0,29.989,39.3,19.08,19.08,0,0,1,17.78,28.251ZM31.365,41.8a21.132,21.132,0,0,0,8.005,0,19.019,19.019,0,0,1-3.993,17.672A18.969,18.969,0,0,1,31.365,41.8ZM49.644,65.942a18.916,18.916,0,0,1-12.789-4.965A21.124,21.124,0,0,0,41.412,41.3,21.19,21.19,0,0,0,55.023,28.739a18.99,18.99,0,0,1-5.379,37.2Zm0,0" fill="#47286d"/></svg>