<svg xmlns="http://www.w3.org/2000/svg" width="96.944" height="81.999" viewBox="0 0 96.944 81.999"><g transform="translate(0 -39.465)"><g transform="translate(1.42 65.149)"><path d="M21.955,198.918a2.4,2.4,0,0,0,3.784-2.184V192.52h9.876v37.486H48.238V186.192a4.258,4.258,0,0,0-4.245-4.245H25.739v-4.213a2.4,2.4,0,0,0-3.784-2.184L8.865,185.156a2.263,2.263,0,0,0,0,4.154Z" transform="translate(-7.5 -175.11)" fill="#f9e478" fill-rule="evenodd"/></g><g transform="translate(37.095 40.885)"><path d="M200.974,64.083V82.31l-4.423,22.838,4.423,20.976H213.6l3.623-17.508L213.6,95.261V64.083h2.6a2.259,2.259,0,0,0,2.05-3.553l-9.017-12.281a2.12,2.12,0,0,0-3.9,0L196.32,60.529a2.26,2.26,0,0,0,2.05,3.553Z" transform="translate(-195.91 -46.965)" fill="#f17781" fill-rule="evenodd"/></g><g transform="translate(54.782 78.099)"><path d="M293.57,250.342a4.258,4.258,0,0,0-4.246,4.245v30.862h12.624V260.91h9.876v4.219a2.406,2.406,0,0,0,3.784,2.184L328.7,257.7a2.49,2.49,0,0,0,1.369-2.066v-.016a2.5,2.5,0,0,0-1.369-2.066l-13.091-9.608a2.4,2.4,0,0,0-3.784,2.179v4.219Z" transform="translate(-289.324 -243.504)" fill="#31d9e7" fill-rule="evenodd"/></g><g transform="translate(61.068 87.942)"><path d="M325.974,298.834c-3.972,0-3.424,2.244-3.424,6.129v22.629h6.312v-24.54h9.876v4.219a2.406,2.406,0,0,0,3.784,2.184l13.091-9.613a2.49,2.49,0,0,0,1.369-2.067v-.016a2.5,2.5,0,0,0-1.369-2.066l-.274-.2-11.164,8.395c-1.648,1.073-2.984.918-3.027-1.379,0-3.591-2.2-3.671-5.426-3.671Z" transform="translate(-322.524 -295.49)" fill="#21c5d2" fill-rule="evenodd"/></g><g transform="translate(45.942 40.885)"><path d="M242.638,49.038l7.321,9.763c1.009,1.546,1.224,2.813-.934,2.85-2.684,0-2.6.553-2.6,3.011v61.461h5.056V64.083h2.6a2.259,2.259,0,0,0,2.05-3.553l-9.017-12.281a2.12,2.12,0,0,0-3.9,0Z" transform="translate(-242.638 -46.965)" fill="#eb646f" fill-rule="evenodd"/></g><g transform="translate(10.766 65.149)"><path d="M61.807,186.262H80.79c2.335,0,2.351,1.154,2.351,3.489v40.255h5.11V186.192a4.258,4.258,0,0,0-4.245-4.245H65.752v-4.213a2.4,2.4,0,0,0-3.784-2.184l-5.11,3.751a2.406,2.406,0,0,1,3.784,2.184V185.2C60.642,186.509,60.465,186.262,61.807,186.262Z" transform="translate(-56.858 -175.11)" fill="#f9ce78" fill-rule="evenodd"/></g><path d="M94.947,86.965,81.905,77.394c-.021-.016-.043-.031-.065-.045a3.833,3.833,0,0,0-3.929-.242,4.027,4.027,0,0,0-2.05,3.585c0,.009,0,.018,0,.027v2.8H59.028a5.628,5.628,0,0,0-2.825.758V74.346a1.42,1.42,0,0,0-2.84,0v44.277H43.579V58a1.42,1.42,0,0,0-1.42-1.42H39.571a1.062,1.062,0,0,1-.975-.464.865.865,0,0,1,.082-.868L47.667,43.01c.026-.035.05-.071.072-.108.225-.373.5-.6.734-.6h0c.233,0,.5.222.727.594q.034.057.074.111l8.99,12.243a.86.86,0,0,1,.084.864,1.078,1.078,0,0,1-.978.466H54.782A1.42,1.42,0,0,0,53.362,58V68.109a1.42,1.42,0,1,0,2.84,0V59.423h1.211a3.873,3.873,0,0,0,3.445-1.978,3.678,3.678,0,0,0-.233-3.771c-.014-.022-.029-.043-.044-.064L51.6,41.378a3.7,3.7,0,0,0-3.124-1.913h0a3.712,3.712,0,0,0-3.13,1.912L36.36,53.609c-.016.022-.032.044-.046.067a3.684,3.684,0,0,0-.227,3.773,3.872,3.872,0,0,0,3.44,1.973h1.211v11.9a5.628,5.628,0,0,0-2.825-.758H21.079V67.771c0-.008,0-.016,0-.023a4.024,4.024,0,0,0-2.046-3.59A3.831,3.831,0,0,0,15.1,64.4c-.022.014-.044.029-.065.045L1.993,74.014a3.659,3.659,0,0,0,0,6.514L15.035,90.1l.065.045a3.831,3.831,0,0,0,3.932.239,4.024,4.024,0,0,0,2.046-3.59c0-.008,0-.016,0-.023V83.979h7.035V100.63a1.42,1.42,0,0,0,2.84,0V82.559a1.42,1.42,0,0,0-1.42-1.42H19.659a1.42,1.42,0,0,0-1.42,1.42v4.2a1.21,1.21,0,0,1-.539,1.118,1.011,1.011,0,0,1-1.021-.092L3.625,78.2q-.051-.037-.105-.07c-.426-.257-.68-.581-.679-.865s.253-.6.677-.858q.056-.034.108-.072l13.054-9.58a1.01,1.01,0,0,1,1.021-.092,1.211,1.211,0,0,1,.539,1.118v4.2a1.42,1.42,0,0,0,1.42,1.42H37.913a2.829,2.829,0,0,1,2.825,2.825v42.393H30.955V106.867a1.42,1.42,0,1,0-2.84,0v13.177a1.42,1.42,0,0,0,1.42,1.42H67.405a1.42,1.42,0,0,0,1.42-1.42V96.925h7.035v2.8c0,.009,0,.018,0,.026a4.031,4.031,0,0,0,2.053,3.589,3.829,3.829,0,0,0,3.926-.241l.065-.045,13.041-9.577a3.651,3.651,0,0,0,0-6.511Zm-1.522,4.112c-.038.023-.074.047-.11.073l-13.053,9.586a1.008,1.008,0,0,1-1.017.093,1.217,1.217,0,0,1-.543-1.121V95.5a1.42,1.42,0,0,0-1.42-1.42H67.406a1.42,1.42,0,0,0-1.42,1.42v23.119H56.2V89.182a2.829,2.829,0,0,1,2.825-2.825H77.281a1.42,1.42,0,0,0,1.42-1.42v-4.2a1.212,1.212,0,0,1,.54-1.116,1.011,1.011,0,0,1,1.02.094l13.054,9.58c.035.026.072.05.11.073.425.255.679.575.679.857s-.254.6-.679.857Z" transform="translate(0)" fill="#47286d"/></g></svg>