<svg xmlns="http://www.w3.org/2000/svg" width="73" height="71.01" viewBox="0 0 73 71.01"><g transform="translate(-0.131 -1)"><path d="M3817.465,9247.377a32.37,32.37,0,0,0,.055-3.918h-8.638a2,2,0,0,1-2-2v-23a2,2,0,0,1,2-2h27a2,2,0,0,1,2,2v23a2,2,0,0,1-2,2H3823.93l-.131.5-4.417,4S3817.3,9247.625,3817.465,9247.377Z" transform="translate(-3767 -9214)" fill="#fff"/><g transform="translate(2.272 2.145)"><g transform="translate(16.034 9.163)" opacity="0.15"><path d="M50.829,32.437a1.62,1.62,0,0,1-2.76-1.145V28.325H38.906a2.3,2.3,0,0,1-2.291-2.291V10H17.145A1.149,1.149,0,0,0,16,11.145V60.394H51.5a1.149,1.149,0,0,0,1.145-1.145V30.616Z" transform="translate(-16 -10)" fill="#bb83ff"/></g><g transform="translate(34.359 36.65)"><path d="M32,34H45.744V45.453H32Z" transform="translate(-32 -34)" fill="#bb83ff"/></g><g transform="translate(19.47 38.941)"><path d="M27.407,36a2.054,2.054,0,0,0-.744.149l-2.84,1.214L19,39.436l3.436,3.436,3.436,3.436,2.073-4.822,1.214-2.84a2.054,2.054,0,0,0,.149-.744,1.9,1.9,0,0,0-1.9-1.9Z" transform="translate(-19 -36)" fill="#aab2bd"/></g><g transform="translate(0 59.556)"><path d="M11.163,60.872l-.87.87A4.859,4.859,0,0,1,3.42,54.87l.87-.87Z" transform="translate(-2 -54)" fill="#aab2bd"/></g><g transform="translate(2.291 56.12)"><path d="M14.308,57.872l-3.436,3.436L4,54.436,7.436,51l3.436,3.436Z" transform="translate(-4 -51)" fill="#f9e478"/></g><g transform="translate(9.163 45.813)"><path d="M27.18,45.436,16.872,55.744,13.436,59.18,10,55.744,23.744,42Z" transform="translate(-10 -42)" fill="#f9e478"/></g><g transform="translate(5.727 42.377)"><path d="M24.18,42.436,10.436,56.18,7,52.744,17.308,42.436,20.744,39Z" transform="translate(-7 -39)" fill="#31d9e7"/></g><g transform="translate(36.65 0)"><path d="M66.069,4.291V27.2a2.3,2.3,0,0,1-2.291,2.291H52.325l-2.291,2.291L48.213,33.6a1.62,1.62,0,0,1-2.76-1.145V29.488H36.291A2.3,2.3,0,0,1,34,27.2V4.291A2.3,2.3,0,0,1,36.291,2H63.778A2.3,2.3,0,0,1,66.069,4.291Z" transform="translate(-34 -2)" fill="#fff"/></g><g transform="translate(0 28.633)"><path d="M11.163,27,6.581,33.872,2,27h9.163Z" transform="translate(-2 -27)" fill="#31d9e7"/></g><g transform="translate(59.556 33.214)"><path d="M58.581,31l4.581,6.872H54Z" transform="translate(-54 -31)" fill="#31d9e7"/></g><g transform="translate(43.522 64.138)"><circle cx="2.291" cy="2.291" r="2.291" transform="translate(0 0)" fill="#fcd770"/></g><g transform="translate(34.359 64.138)"><circle cx="2.291" cy="2.291" r="2.291" transform="translate(0 0)" fill="#bb83ff"/></g><g transform="translate(25.197 64.138)"><circle cx="2.291" cy="2.291" r="2.291" transform="translate(0 0)" fill="#31d9e7"/></g><g transform="translate(27.488 0)"><circle cx="2.291" cy="2.291" r="2.291" fill="#fcd770"/></g><g transform="translate(18.325 0)"><circle cx="2.291" cy="2.291" r="2.291" fill="#fcd770"/></g><g transform="translate(50.394 4.581)"><path d="M50.581,7.145,49.6,14.029a1.319,1.319,0,0,1-2.611,0L46,7.145A1.149,1.149,0,0,1,47.145,6h2.291A1.149,1.149,0,0,1,50.581,7.145Z" transform="translate(-46 -6)" fill="#ff826e"/></g><g transform="translate(50.394 18.325)"><circle cx="2.291" cy="2.291" r="2.291" fill="#ff826e"/></g></g><g transform="translate(0.131 1)"><path d="M48.436,16.453a2.478,2.478,0,0,0,2.441-2.117l.983-6.883.013-.163A2.293,2.293,0,0,0,49.581,5H47.291A2.293,2.293,0,0,0,45,7.291l1,7.046a2.478,2.478,0,0,0,2.441,2.117ZM49.57,7.291l-.96,6.721a.182.182,0,0,1-.348,0L47.3,7.291Z" transform="translate(6.389 -0.419)" fill="#47286d"/><path d="M48.436,23.872A3.436,3.436,0,1,0,45,20.436,3.44,3.44,0,0,0,48.436,23.872Zm0-4.581a1.145,1.145,0,1,1-1.145,1.145A1.147,1.147,0,0,1,48.436,19.291Z" transform="translate(6.389 1.325)" fill="#47286d"/><path d="M66.32,39.279,59.6,29.2,52.877,39.279h5.577V63.331H47v2.291H58.453a2.293,2.293,0,0,0,2.291-2.291V39.279ZM59.6,33.327l2.441,3.662H57.157Z" transform="translate(6.68 3.097)" fill="#47286d"/><path d="M26.436,57a3.436,3.436,0,1,0,3.436,3.436A3.44,3.44,0,0,0,26.436,57Zm0,4.581a1.145,1.145,0,1,1,1.145-1.145A1.147,1.147,0,0,1,26.436,61.581Z" transform="translate(3.192 7.138)" fill="#47286d"/><path d="M34.436,57a3.436,3.436,0,1,0,3.436,3.436A3.44,3.44,0,0,0,34.436,57Zm0,4.581a1.145,1.145,0,1,1,1.145-1.145A1.147,1.147,0,0,1,34.436,61.581Z" transform="translate(4.355 7.138)" fill="#47286d"/><path d="M42.436,57a3.436,3.436,0,1,0,3.436,3.436A3.44,3.44,0,0,0,42.436,57Zm0,4.581a1.145,1.145,0,1,1,1.145-1.145A1.147,1.147,0,0,1,42.436,61.581Z" transform="translate(5.517 7.138)" fill="#47286d"/><path d="M6.853,39.424l6.722-10.082H8V5.291h9.163V3H8A2.293,2.293,0,0,0,5.708,5.291V29.342H.131Zm0-4.13L4.412,31.633H9.295Z" transform="translate(-0.131 -0.709)" fill="#47286d"/><path d="M28.436,7.872A3.436,3.436,0,1,0,25,4.436,3.44,3.44,0,0,0,28.436,7.872Zm0-4.581a1.145,1.145,0,1,1-1.145,1.145A1.147,1.147,0,0,1,28.436,3.291Z" transform="translate(3.483 -1)" fill="#47286d"/><path d="M20.436,7.872A3.436,3.436,0,1,0,17,4.436,3.44,3.44,0,0,0,20.436,7.872Zm0-4.581a1.145,1.145,0,1,1-1.145,1.145A1.147,1.147,0,0,1,20.436,3.291Z" transform="translate(2.32 -1)" fill="#47286d"/><path d="M53.684,62.847a2.293,2.293,0,0,0,2.291-2.291V32.4l1.619-1.619H68.574a3.44,3.44,0,0,0,3.436-3.436V4.436A3.44,3.44,0,0,0,68.574,1H41.086A3.44,3.44,0,0,0,37.65,4.436v5.727H19.325a2.293,2.293,0,0,0-2.291,2.291V47.484L2.758,61.76a6,6,0,0,0,8.491,8.491l7.4-7.4ZM39.941,4.436a1.147,1.147,0,0,1,1.145-1.145H68.574a1.147,1.147,0,0,1,1.145,1.145V27.342a1.147,1.147,0,0,1-1.145,1.145H56.646L52.2,32.93a.492.492,0,0,1-.81-.336V28.488H41.086a1.147,1.147,0,0,1-1.145-1.145ZM19.325,12.453H37.65V27.342a3.44,3.44,0,0,0,3.436,3.436H49.1v1.816a2.768,2.768,0,0,0,2.765,2.765,2.74,2.74,0,0,0,1.816-.7V60.556H20.945l8.509-8.509,3.368-7.86a3.046,3.046,0,0,0-4-4l-7.861,3.368-1.637,1.638ZM30.717,43.284l-.547,1.278L28.447,42.84l1.279-.549a.776.776,0,0,1,1.051.7.761.761,0,0,1-.061.3Zm-4.538.528L29.2,46.83l-1.1,2.559-4.479-4.479Zm-4.564,2.33,1.816,1.816L11.308,60.082,9.491,58.266Zm-8.491,19-1.816,1.816L6.055,61.7l1.816-1.816Zm-.2-3.436L25.052,49.577l1.816,1.816L14.744,63.518ZM7,69.719A3.714,3.714,0,0,1,4.378,63.38l.058-.058,5.252,5.252-.058.058A3.69,3.69,0,0,1,7,69.719Z" transform="translate(-0.005 -1)" fill="#47286d"/><path d="M19,13h6.872v2.291H19Z" transform="translate(2.611 0.744)" fill="#47286d"/><path d="M27,13h4.581v2.291H27Z" transform="translate(3.773 0.744)" fill="#47286d"/><path d="M19,17H32.744v2.291H19Z" transform="translate(2.611 1.325)" fill="#47286d"/><path d="M19,21h6.872v2.291H19Z" transform="translate(2.611 1.906)" fill="#47286d"/><path d="M27,21h4.581v2.291H27Z" transform="translate(3.773 1.906)" fill="#47286d"/><path d="M19,25h4.581v2.291H19Z" transform="translate(2.611 2.488)" fill="#47286d"/><path d="M25,25h6.872v2.291H25Z" transform="translate(3.483 2.488)" fill="#47286d"/><path d="M31,46.744H47.034V33H31Zm2.291-11.453H44.744v9.163H33.291Z" transform="translate(4.355 3.65)" fill="#47286d"/><path d="M33.681,47a2.746,2.746,0,0,0-1.955.81l-.693.693a2.857,2.857,0,0,0-5.226.45l-.756,2.267,2.173.725.756-2.267a.588.588,0,0,1,1.042-.073l1.384,2.767,2.94-2.94a.491.491,0,0,1,.81.333v1.816H47.9V49.291H36.4A2.767,2.767,0,0,0,33.681,47Z" transform="translate(3.49 5.685)" fill="#47286d"/><path d="M19,29H32.744v2.291H19Z" transform="translate(2.611 3.069)" fill="#47286d"/></g></g></svg>