<svg xmlns="http://www.w3.org/2000/svg" width="73" height="73" viewBox="0 0 73 73"><g transform="translate(3815 9647)"><rect width="73" height="73" rx="4" transform="translate(-3815 -9647)" fill="#fff"/><g transform="translate(-3812.987 -9644.986)"><path d="M4717.724,1104.81h-2.245c-.029-.209-.07-.418-.083-.628-.05-.929-.1-1.859-.134-2.79a9.427,9.427,0,0,1,.452-3.378,35.075,35.075,0,0,1,1.822-4.115c.763-1.573,1.526-3.146,2.275-4.725a3.953,3.953,0,0,0,.41-1.842.937.937,0,0,0-.844-.974,1.326,1.326,0,0,0-.854.174,2.633,2.633,0,0,0-.957.909,14.883,14.883,0,0,0-1.365,2.834,29.543,29.543,0,0,1-1.872,3.928c-.525.907-.982,1.857-1.415,2.813a7.319,7.319,0,0,0-.606,4.378c.206,1.144.472,2.277.711,3.415h-2.331a17.72,17.72,0,0,1-.691-5.075,8.679,8.679,0,0,1,.808-3.689c.527-1.06,1.1-2.1,1.648-3.147.607-1.154,1.222-2.3,1.817-3.465a2.267,2.267,0,0,0,.234-1.234.754.754,0,0,0-.893-.761,2.236,2.236,0,0,0-.649.178,3.974,3.974,0,0,0-2.277,2.578c-.135.437-.28.874-.457,1.295a9.557,9.557,0,0,1-1.313,2.043,10.88,10.88,0,0,0-1.953,3.906,7.854,7.854,0,0,0,.219,5.042c.3.766.56,1.551.837,2.328H4705.6c-.146-.388-.283-.778-.438-1.162a9.571,9.571,0,0,1-.722-5.247,13.27,13.27,0,0,1,2.586-6.147,19.6,19.6,0,0,0,1.293-1.98,3.434,3.434,0,0,0,.333-.906c.133-.516-.657-1.117-1.109-.88-.218.114-.452.2-.665.323q-1.579.9-3.15,1.818c-.151.089-.3.192-.438.295a1.17,1.17,0,0,0-.511.771c-.1.562-.214,1.121-.317,1.683-.213,1.164-.393,2.336-.644,3.492a6.313,6.313,0,0,1-1.476,3.026,7.908,7.908,0,0,1-2.362,1.691,18.936,18.936,0,0,0-4.542,3.071,1.81,1.81,0,0,0-.129.154h-3.305a2.134,2.134,0,0,1,.151-.173q.765-.7,1.534-1.4a22.312,22.312,0,0,1,4.248-3.137c.612-.335,1.216-.687,1.811-1.051a3.606,3.606,0,0,0,1.684-2.289c.419-1.671.7-3.366.963-5.068a2.63,2.63,0,0,0-.545-2.077c-.123-.163-.246-.327-.373-.487a9.147,9.147,0,0,1-1.639-2.892,39.4,39.4,0,0,1-1.562-8.215,24.458,24.458,0,0,0-.333-2.58,26.293,26.293,0,0,0-1.244-4.215,5.484,5.484,0,0,0-.58-1.071.925.925,0,0,0-.993-.367c-.4.077-.545.388-.627.743a4.073,4.073,0,0,0,.066,1.7c.3,1.586.627,3.169.91,4.758.372,2.1.7,4.2,1.067,6.3a27.806,27.806,0,0,0,1.462,5.467,14.621,14.621,0,0,1,.84,2.856,5.762,5.762,0,0,1-1.64,5.3c-.67.682-1.457,1.247-2.171,1.889-1.548,1.391-3.076,2.806-4.628,4.193-.7.629-1.446,1.214-2.172,1.818h-6.187c.111-.042.22-.094.334-.126.727-.2,1.454-.406,2.184-.592a6.97,6.97,0,0,0,3.088-1.677c1.028-.958,2.075-1.894,3.123-2.83,1.4-1.256,2.82-2.5,4.226-3.757.225-.2.43-.428.638-.65a3.568,3.568,0,0,0,.832-3.524c-.276-1.071-.6-2.13-.951-3.18a45.367,45.367,0,0,1-1.69-8.042,57.213,57.213,0,0,0-1.076-5.974,15.377,15.377,0,0,1-.483-4.276,4.08,4.08,0,0,0-.393-2.2,10.961,10.961,0,0,1-1.021-2.925,10.986,10.986,0,0,0-.469-1.686,1.435,1.435,0,0,0-1.808-.769,1.5,1.5,0,0,0-1.068,1.774,8.8,8.8,0,0,0,.443,1.3,26.161,26.161,0,0,1,1.7,5.353c.233,1.212.428,2.431.63,3.649.393,2.358.772,4.719,1.168,7.077q.49,2.91,1.01,5.815a19.718,19.718,0,0,1,.445,3.607,5.5,5.5,0,0,1-1.207,3.574c-.246.3-.472.62-.739.9q-2.614,2.732-5.247,5.444a9.943,9.943,0,0,1-1.214,1.052,1.009,1.009,0,0,1-1.6-.394,1.2,1.2,0,0,1,.3-1.5c.314-.312.685-.568,1-.877.924-.9,1.858-1.8,2.739-2.739,1-1.067,1.944-2.181,2.905-3.281a3.23,3.23,0,0,0,.721-1.624,7.217,7.217,0,0,0-.114-2.462c-.238-1.39-.505-2.776-.736-4.167-.286-1.726-.54-3.457-.82-5.184-.3-1.831-.593-3.662-.921-5.488-.258-1.429-.516-2.861-.86-4.27a29.716,29.716,0,0,0-1.683-4.76,1.542,1.542,0,0,0-1.288-.962c-1.123-.165-1.789.542-1.467,1.628a8.39,8.39,0,0,0,.658,1.53,15.4,15.4,0,0,1,1.6,4.33c.248,1.3.47,2.61.689,3.918.257,1.537.51,3.076.743,4.617.219,1.451.428,2.9.6,4.36.161,1.323.309,2.649.4,3.979a6.783,6.783,0,0,1-1.183,4.415,27.249,27.249,0,0,1-1.681,2.232,31.088,31.088,0,0,0-4.219,6.016,6.818,6.818,0,0,1-3.223,3.078.646.646,0,0,1-.522.041,4.724,4.724,0,0,1-1.9-1.156c-.215-.216-.4-.462-.639-.741.209.01.342.014.474.023a3.521,3.521,0,0,0,2.812-1.026,6.333,6.333,0,0,0,1.149-1.539,28.963,28.963,0,0,1,2.965-4.451c.792-.967,1.577-1.939,2.329-2.936a6.211,6.211,0,0,0,1.332-4.7c-.155-1.175-.235-2.359-.394-3.534q-.385-2.831-.831-5.653c-.288-1.832-.607-3.66-.906-5.49a13.475,13.475,0,0,0-1.079-3.747c-.337-.7-.682-1.393-1.01-2.1a3.837,3.837,0,0,1-.482-2.16,12.452,12.452,0,0,1,.391-1.664,3.638,3.638,0,0,0,.118-1.733,8.1,8.1,0,0,1-.076-2.738,9.812,9.812,0,0,1,1.4-3.851,31.574,31.574,0,0,0,2.933-5.944c.3-.812.667-1.6,1.038-2.382a2.214,2.214,0,0,1,.533-.674,1.031,1.031,0,0,1,1.154-.134.936.936,0,0,1,.547.865,2.73,2.73,0,0,1-.464,1.62,7.308,7.308,0,0,0-.431.8c-.44,1.023-.818,2.076-1.3,3.075-.7,1.438-1.45,2.854-2.225,4.254a7.231,7.231,0,0,0-.922,4.336,1.135,1.135,0,0,0,1.163,1.2,6.756,6.756,0,0,0,.677.029,2.009,2.009,0,0,0,1.624-1.147.924.924,0,0,0,.062-.267c.025-.479.072-.959.058-1.437a7.827,7.827,0,0,1,.838-3.717q1-2.054,1.907-4.15a8.546,8.546,0,0,0,.792-2.8c.094-1.33.165-2.662.2-3.995a12.411,12.411,0,0,1,.58-3.534c.339-1.038.643-2.088.93-3.141a1.667,1.667,0,0,0-.228-1.533h2.584c-.008.387.015.777-.031,1.159a14.167,14.167,0,0,1-.8,3,12.908,12.908,0,0,0-.784,3.86c-.044,1.177-.119,2.354-.21,3.528a14.951,14.951,0,0,1-1.134,4.819c-.552,1.281-1.167,2.535-1.774,3.792a4.979,4.979,0,0,0-.639,2.489,1.141,1.141,0,0,0,.92,1.2,1.538,1.538,0,0,0,1.649-.558,7.111,7.111,0,0,0,.551-1.045c.53-1.45,1.028-2.91,1.541-4.366a24.906,24.906,0,0,0,1.423-7.175c.078-1.7.131-3.4.208-5.1a11.522,11.522,0,0,1,.147-1.364.719.719,0,0,1,.525-.606,1.206,1.206,0,0,1,1.622,1.193q0,.783-.046,1.566c-.095,1.67-.191,3.339-.3,5.007a22.783,22.783,0,0,1-.237,2.485c-.191,1.081-.446,2.155-.736,3.213a39.638,39.638,0,0,1-2.159,6.115c-.295.639-.659,1.246-.981,1.873a2.2,2.2,0,0,0-.229,1.335,16.394,16.394,0,0,0,.746,3.166,4.949,4.949,0,0,0,.475.961.86.86,0,0,0,.95.4.977.977,0,0,0,.817-.762,12.346,12.346,0,0,0,.307-1.509c.15-1.018.192-2.059.428-3.055.333-1.411.774-2.8,1.218-4.18a40.945,40.945,0,0,0,2.013-14.258,10.11,10.11,0,0,0-.895-4.037c-.494-1.037-.94-2.1-1.407-3.145h2.458c.1.225.184.458.3.674a16.413,16.413,0,0,1,1.81,7.456,41.681,41.681,0,0,1-.278,5.452,40.18,40.18,0,0,1-1.525,7.494c-.449,1.469-.886,2.943-1.289,4.425a35.8,35.8,0,0,0-.834,4.834,8.766,8.766,0,0,0-.059,1.56,5.4,5.4,0,0,0,.573,1.65c.4,1.009.84,2.006,1.164,3.039a19.123,19.123,0,0,1,.731,4.374,34.784,34.784,0,0,0,.725,5.108,16.642,16.642,0,0,0,1.319,3.985,4.3,4.3,0,0,0,1.092,1.467,1.186,1.186,0,0,0,1.164.244,11.15,11.15,0,0,0,2.9-1.456,2.747,2.747,0,0,0,1.29-1.849,11.782,11.782,0,0,1,1.254-3.241,29.046,29.046,0,0,0,1.308-2.793c.6-1.549,1.118-3.133,1.695-4.694.889-2.407,1.8-4.8,2.7-7.21a8.826,8.826,0,0,0,.607-2.327,1.358,1.358,0,0,0-.694-1.312,1.111,1.111,0,0,0-1.254.058c-.048.029-.1.057-.144.09a2.716,2.716,0,0,0-1.345,2.4,5.734,5.734,0,0,1-.093,1.011,17.818,17.818,0,0,1-.938,3.378c-.624,1.738-1.257,3.473-1.884,5.21a17.884,17.884,0,0,0-.715,3.324,1.887,1.887,0,0,1-.582,1.319.966.966,0,0,1-1.038.22,1.111,1.111,0,0,1-.743-.949,2.646,2.646,0,0,1,.025-.717,21.277,21.277,0,0,1,.467-2.083c.467-1.53.979-3.046,1.478-4.567.5-1.54,1.026-3.076,1.513-4.621a3.507,3.507,0,0,0,.2-1.687.991.991,0,0,0-1.179-.853,1.786,1.786,0,0,0-.717.373,2.4,2.4,0,0,0-.774,1.285c-.29,1.113-.574,2.226-.872,3.336a28.293,28.293,0,0,1-1.488,4.024,8.952,8.952,0,0,0-.592,5.161,24.344,24.344,0,0,0,.811,2.907c.215.722.492,1.428.672,2.158a1.1,1.1,0,0,1-.875,1.455,1.119,1.119,0,0,1-1.427-.784c-.029-.079-.062-.158-.083-.24-.238-.936-.451-1.878-.713-2.807a17.012,17.012,0,0,1-.687-4.4,6.837,6.837,0,0,1,.151-2.231c.346-1.065.713-2.126,1.144-3.158a19.8,19.8,0,0,0,1.251-3.788,11.723,11.723,0,0,1,1.811-4.566,2.793,2.793,0,0,0,.38-.976,11.556,11.556,0,0,0,.14-1.2c.124-1.072.222-2.147.382-3.213.165-1.094.419-2.175.582-3.269.3-2.033.379-4.088.523-6.136a13.752,13.752,0,0,1,.258-2.161,5.557,5.557,0,0,0-.134-3.125,18.683,18.683,0,0,1-.894-3.955c-.113-1.03-.172-2.066-.256-3.1h2.162c0,.057,0,.113,0,.169a36.115,36.115,0,0,0,.981,6.006,2.3,2.3,0,0,0,.352.759.975.975,0,0,0,1.5.181,2.029,2.029,0,0,0,.729-1.3,3.7,3.7,0,0,0-.264-1.74c-.165-.494-.374-.978-.492-1.482a11.27,11.27,0,0,1-.136-2.594h2.161c0,.338-.017.677-.008,1.015a5.176,5.176,0,0,0,.342,1.841,2.109,2.109,0,0,0,.673.881.581.581,0,0,0,.589.146,1.1,1.1,0,0,0,.821-.928c.067-.984.113-1.97.168-2.956h2.2c0,.225.016.452,0,.676-.064.936-.092,1.877-.219,2.8a4.032,4.032,0,0,0,.309,2.345,11.744,11.744,0,0,1,.922,3.528,29.93,29.93,0,0,1,.188,4.819c-.076,2.009-.18,4.018-.257,6.027a6.118,6.118,0,0,0,.119,1.874,1.265,1.265,0,0,0,1.943.643,2.478,2.478,0,0,0,1.049-2.45,6.088,6.088,0,0,1-.107-.71c-.049-.951-.109-1.9-.116-2.854-.011-1.631.006-3.262.027-4.893a14.165,14.165,0,0,0-.323-3.848,42.954,42.954,0,0,1-1.2-7.961h2.247c0,.049.013.1.014.148a35.314,35.314,0,0,0,1,6.728,16.885,16.885,0,0,1,.451,2.3c.087.9.061,1.8.062,2.7,0,2.111-.02,4.222,0,6.332a7.723,7.723,0,0,0,.185,1.676,1.131,1.131,0,0,0,1.669.663,1.9,1.9,0,0,0,.986-1.757c-.058-.993-.166-1.982-.229-2.975a10.615,10.615,0,0,1,.216-3.471,6.6,6.6,0,0,0-.1-3.725,56.941,56.941,0,0,1-1.32-5.988c-.164-.88-.34-1.758-.51-2.637h2.246q.021.093.041.186.762,3.686,1.529,7.372a3.413,3.413,0,0,0,.441,1.314,1.3,1.3,0,0,0,1.222.571,1.126,1.126,0,0,0,1.015-.77,3.346,3.346,0,0,0,.134-2.219c-.32-1.256-.666-2.506-1.013-3.755-.251-.9-.521-1.8-.783-2.7h2.332c.008.041.015.083.026.123q.821,2.888,1.642,5.777a3.44,3.44,0,0,1,.159,1.524c-.1.59-.2,1.182-.336,1.765a5.453,5.453,0,0,0-.145,2.464,11.821,11.821,0,0,1-.3,6.268,6.065,6.065,0,0,0-.215,2.88c.1.647.206,1.3.265,1.949a20.7,20.7,0,0,1-.072,3.594,34.109,34.109,0,0,1-1.24,6.6,10.116,10.116,0,0,1-2.7,4.643,10.249,10.249,0,0,0-2,2.891,31.611,31.611,0,0,0-1.6,4.069,13.487,13.487,0,0,1-2.2,4.491,4.238,4.238,0,0,0-.9,1.961,12.248,12.248,0,0,1-.99,3.18q-1.318,2.663-2.629,5.33a10.775,10.775,0,0,0-1.389,5.639Q4717.615,1103.335,4717.724,1104.81ZM4731,1060.575c0-.311.007-.621,0-.932s-.024-.62-.051-.93a2.717,2.717,0,0,0-.466-1.471.908.908,0,0,0-.867-.373,2.311,2.311,0,0,0-1.681,1.589,5.563,5.563,0,0,0,.024,1.852,16.854,16.854,0,0,1,.168,2.107,18.054,18.054,0,0,1-.891,4.962,21.241,21.241,0,0,1-2.249,4.657,44.379,44.379,0,0,0-4.52,9.836,5.282,5.282,0,0,0-.375,1.75,1.069,1.069,0,0,0,.583.924.864.864,0,0,0,.973-.122,2.171,2.171,0,0,0,.785-1.03c.459-1.2.948-2.386,1.342-3.6a18.306,18.306,0,0,1,3.7-6.85,10.926,10.926,0,0,0,2.379-4.276A33.047,33.047,0,0,0,4731,1060.575Zm-5.127,1.39c0-.092,0-.184,0-.275a3.673,3.673,0,0,0-.27-1.446,1.217,1.217,0,0,0-1.918-.562,2.37,2.37,0,0,0-1.079,1.7,7.11,7.11,0,0,0-.02,1.456,7.531,7.531,0,0,1-.389,3.314c-.359.934-.726,1.867-1.153,2.771a129.881,129.881,0,0,0-5.537,13.354c-.26.76-.5,1.528-.725,2.3a.843.843,0,0,0,.171.8.956.956,0,0,0,1.355.229,2.892,2.892,0,0,0,1.6-2.065,16.007,16.007,0,0,1,.418-1.963c.414-1.272.883-2.527,1.354-3.781a33.389,33.389,0,0,1,2.5-5.381c.6-1.006,1.165-2.031,1.74-3.051A16.136,16.136,0,0,0,4725.872,1061.965Zm-5.459,1.49c-.037-.279-.052-.563-.114-.836a1.166,1.166,0,0,0-1.2-1.013,1.48,1.48,0,0,0-.974.3,2.77,2.77,0,0,0-1.25,2.044c-.056.625-.113,1.251-.187,1.874a10.9,10.9,0,0,1-.816,2.815c-1.335,3.284-2.613,6.591-3.8,9.934a38.084,38.084,0,0,1-2.25,5.1,6.515,6.515,0,0,0-.725,1.866,1.049,1.049,0,0,0,.292,1.051.933.933,0,0,0,1.021.065,4.257,4.257,0,0,0,1.632-1.179,2.817,2.817,0,0,0,.482-.831c.127-.318.164-.671.271-1,.465-1.406.92-2.814,1.416-4.208.854-2.4,1.714-4.805,2.8-7.12.885-1.889,1.741-3.792,2.592-5.7A8.506,8.506,0,0,0,4720.413,1063.454Zm-3.633-9.962h.021c.035-.973.077-1.946.1-2.919a32.411,32.411,0,0,0-.152-4.546,8.916,8.916,0,0,0-.465-2.145,2.228,2.228,0,0,0-.855-1.15.737.737,0,0,0-.866-.017,2.141,2.141,0,0,0-1.027,1.9,5.094,5.094,0,0,0,.351,1.8,4.74,4.74,0,0,1,.311,1.223c.057,1.021.053,2.045.055,3.068a70.072,70.072,0,0,1-.573,7.382c-.078.736-.112,1.477-.142,2.217a1.326,1.326,0,0,0,1.329,1.355,2.026,2.026,0,0,0,1.714-1.487,8.976,8.976,0,0,0,.12-1.431C4716.736,1056.992,4716.754,1055.242,4716.779,1053.492Zm-4.643-2.988c-.048-.874-.076-1.629-.135-2.38a3.722,3.722,0,0,0-.372-1.446.837.837,0,0,0-.842-.487,1.324,1.324,0,0,0-1.194,1.061,7.178,7.178,0,0,0-.131,1.006c-.1,1.732-.16,3.469-.309,5.2-.116,1.348-.315,2.69-.528,4.027-.188,1.183-.462,2.352-.665,3.533a2.865,2.865,0,0,0,.1,1.566,1.251,1.251,0,0,0,1.27.756,2.372,2.372,0,0,0,1.729-1.539,4.753,4.753,0,0,0,.2-1.29c.024-1.939.3-3.853.512-5.775C4711.928,1053.289,4712.022,1051.838,4712.136,1050.5Zm19.408.521c0-.092.007-.184,0-.275-.067-.6-.111-1.207-.216-1.8a.847.847,0,0,0-.686-.7,1.2,1.2,0,0,0-1.406.679,2.3,2.3,0,0,0-.192.513,11.889,11.889,0,0,0-.15,4,2.34,2.34,0,0,0,.248.8.981.981,0,0,0,1.751.118,2.788,2.788,0,0,0,.39-.836A9.64,9.64,0,0,0,4731.544,1051.024Z" transform="translate(-4671.249 -1036.708)" fill="#47286d"/><path d="M4980.091,1036.708c.349.083.7.151,1.043.253a4.206,4.206,0,0,1,1.424.774.51.51,0,0,1,.163.21,31.11,31.11,0,0,1,1.234,4.46,11.42,11.42,0,0,1-.191,4.971,19.282,19.282,0,0,0-.587,4.544c-.037,2.16-.061,4.32-.087,6.479-.018,1.574-.045,3.149-.039,4.723a23.457,23.457,0,0,1-1.243,7.417,25.62,25.62,0,0,0-1.125,6.975,21.331,21.331,0,0,1-.947,5.233c-.7,2.364-1.4,4.73-2.121,7.09-.369,1.213-.745,2.425-1.17,3.618a14.111,14.111,0,0,1-1.458,2.646,17.176,17.176,0,0,0-3.032,8.709h-2.415a26.225,26.225,0,0,1,1.963-7.046c.5-1.031,1.1-2.02,1.683-3.009a24.4,24.4,0,0,0,2.369-5.8c.613-2.156,1.289-4.294,1.929-6.443a20.972,20.972,0,0,0,.849-3.988c.082-.843.138-1.688.185-2.533a26.5,26.5,0,0,1,1.051-5.839,36.549,36.549,0,0,0,1.094-4.628,26.107,26.107,0,0,0,.236-4.16c-.016-1.56-.057-3.12-.054-4.68,0-2.174.065-4.348.283-6.512.118-1.17.3-2.337.508-3.5a11.472,11.472,0,0,0-.253-5.281c-.458-1.576-1-3.128-1.5-4.691Z" transform="translate(-4916.24 -1036.708)" fill="#bb83ff"/><path d="M4827.012,1036.708c.273,1.44.538,2.883.826,4.321a26.931,26.931,0,0,1,.564,6.6q-.131,2.665-.491,5.309a69.144,69.144,0,0,1-1.914,9.251c-.384,1.37-.764,2.743-1.11,4.124a11.6,11.6,0,0,0-.306,2.771,10.336,10.336,0,0,1-.077,1.266c-.079.633-.333.891-.882.958a1.19,1.19,0,0,1-1.318-.733,2.439,2.439,0,0,1-.1-1.148,38.377,38.377,0,0,1,1.432-7.274,71.273,71.273,0,0,0,1.968-8.787,52.177,52.177,0,0,0,.53-6.407,30.254,30.254,0,0,0-.957-7.875c-.19-.787-.332-1.586-.5-2.38Z" transform="translate(-4794.901 -1036.708)" fill="#bb83ff"/><path d="M4996.9,1269.541a17.4,17.4,0,0,1,2.3-6.694,6.383,6.383,0,0,1,1.611-1.574c.247-.187.495-.375.729-.578a2.22,2.22,0,0,0,.7-1.611,36.537,36.537,0,0,1,1.251-6.772c1.037-3.923,1.843-7.9,2.622-11.875.241-1.224.481-2.448.747-3.672,0,.054.011.108.011.161,0,3.588.01,7.176-.012,10.763a6.43,6.43,0,0,1-.271,1.386c-.476,2.024-.983,4.042-1.429,6.073-.263,1.2-.453,2.426-.638,3.645a1.611,1.611,0,0,0,1.127,1.973c.389.163.8.273,1.212.412v2.174a8.685,8.685,0,0,1-2.049-.537,3.167,3.167,0,0,0-1.406-.337,2.585,2.585,0,0,0-1.65.862,5.869,5.869,0,0,0-1.267,1.76,18.584,18.584,0,0,0-1.333,4.442Z" transform="translate(-4938.768 -1201.438)" fill="#bb83ff"/><path d="M4944.793,1288.68a15.846,15.846,0,0,1,.525-5.85,26.992,26.992,0,0,1,1.291-3.078c.884-1.929,1.878-3.811,2.684-5.772,1.619-3.945,3.154-7.926,4.378-12.017.113-.378.221-.759.37-1.122a1.263,1.263,0,0,1,.9-.8,1.093,1.093,0,0,1,1.349,1.316,14.882,14.882,0,0,1-.491,1.55c-1.234,3.579-2.517,7.14-3.92,10.657-.962,2.412-2.072,4.756-3.205,7.092a24.029,24.029,0,0,0-1.2,2.865,13.28,13.28,0,0,0-.517,3.868c-.011.43,0,.861,0,1.292Z" transform="translate(-4895.817 -1220.577)" fill="#bb83ff"/><path d="M4692.684,1036.708c.651.284,1.3.58,1.956.846a4.855,4.855,0,0,1,1.4.731,1.1,1.1,0,0,1,.124,1.72,1.2,1.2,0,0,1-1.31.279,3.821,3.821,0,0,1-.725-.287c-.856-.427-1.716-.849-2.558-1.3-.711-.385-1.4-.813-2.1-1.226-.342-.2-.678-.417-1.036-.638l.6-.12Z" transform="translate(-4684.773 -1036.708)" fill="#bb83ff"/><path d="M4814.979,1418.255a8.808,8.808,0,0,1,1.148-.6,4.727,4.727,0,0,1,3.145-.029,1.77,1.77,0,0,1,.92.631Z" transform="translate(-4788.972 -1350.153)" fill="#47286d"/><path d="M5022.579,1421.61a1.184,1.184,0,0,1,1.1-.065l-.208.065Z" transform="translate(-4959.914 -1353.508)" fill="#47286d"/><path d="M4667.726,1153.653a.4.4,0,0,1-.016-.079c0-.925,0-1.85,0-2.776a.331.331,0,0,1,.066-.192,6.621,6.621,0,0,0,1.265-3.3,17.434,17.434,0,0,0-.031-4.223,16.564,16.564,0,0,0-.528-3.039,2.915,2.915,0,0,0-.717-1.349.3.3,0,0,1-.055-.192q-.005-1.25,0-2.5a.286.286,0,0,1,.012-.125,2.82,2.82,0,0,0,.146-1.641c-.108-1.218-.158-2.434-.172-3.657a9.546,9.546,0,0,1,.392-2.839c.606-2.047,1.218-4.094,1.863-6.13a17.865,17.865,0,0,0,.707-4.182c.059-.836.158-1.671.282-2.5a4.167,4.167,0,0,1,1.372-2.54c.746-.668,1.526-1.3,2.32-1.907a2.468,2.468,0,0,1,.954-.43,1.025,1.025,0,0,1,1.279,1.181,1.453,1.453,0,0,1-.694,1.171c-.259.17-.531.321-.8.467a4.185,4.185,0,0,0-1.963,1.917,4.767,4.767,0,0,0-.331,1.347c-.132,1.014-.222,2.034-.322,3.052a18.99,18.99,0,0,1-.81,3.606c-.575,1.888-1.148,3.777-1.739,5.66a8.827,8.827,0,0,0-.313,2.869,50.89,50.89,0,0,0,.536,5.879c.306,2.229.634,4.456.929,6.687a12.832,12.832,0,0,1-.46,5.61,7.793,7.793,0,0,1-2.9,4.015c-.068.05-.142.092-.214.136C4667.764,1153.659,4667.748,1153.653,4667.726,1153.653Z" transform="translate(-4667.695 -1097.076)" fill="#bb83ff"/><path d="M4667.772,1247.522c-.005-.08-.013-.149-.013-.218,0-.657,0-1.313,0-1.97,0-.148.021-.222.2-.239a2.571,2.571,0,0,0,1.809-.943,35.2,35.2,0,0,0,3.774-5.486,7,7,0,0,0,.765-3.284,33.69,33.69,0,0,0-.45-5.522c-.38-2.6-.766-5.192-1.171-7.784-.153-.975-.378-1.937-.557-2.908a5.23,5.23,0,0,1-.115-1.661.86.86,0,0,1,.732-.816.935.935,0,0,1,1.082.425,6.991,6.991,0,0,1,.464,1.353c.382,1.658.595,3.345.826,5.03.17,1.236.4,2.465.6,3.7.355,2.136.707,4.275.861,6.438a12.528,12.528,0,0,1-.33,4.409,9.63,9.63,0,0,1-1.164,2.529,46.793,46.793,0,0,1-3.29,4.619,6.985,6.985,0,0,1-2.2,1.895A4.247,4.247,0,0,1,4667.772,1247.522Z" transform="translate(-4667.746 -1184.884)" fill="#bb83ff"/><path d="M4667.772,1051.332c.229.121.418.214.6.319a3.134,3.134,0,0,0,1.732.378,18.2,18.2,0,0,0,5.661-1.216,5.069,5.069,0,0,0,1.437-.88,37.281,37.281,0,0,0,2.953-2.729,5.071,5.071,0,0,0,1.2-2.129,5.493,5.493,0,0,1,.485-1.14,1.135,1.135,0,0,1,1.179-.582.943.943,0,0,1,.942,1.012,4.2,4.2,0,0,1-.45,1.661,10.941,10.941,0,0,1-3.4,4.334c-.643.507-1.262,1.042-1.907,1.547a6.987,6.987,0,0,1-2.5,1.26c-1.379.375-2.758.764-4.15,1.09a5.912,5.912,0,0,1-3.631-.332c-.064-.026-.154-.1-.155-.16C4667.769,1052.97,4667.772,1052.173,4667.772,1051.332Z" transform="translate(-4667.758 -1042.173)" fill="#bb83ff"/><path d="M4668.878,1046.233c-.017.225-.031.412-.043.6a1.5,1.5,0,0,0,.654,1.348,4.583,4.583,0,0,0,2.083.823,8.358,8.358,0,0,0,2.4-.012,5.1,5.1,0,0,1,1.01.007,1.39,1.39,0,0,1,.957.571,1.123,1.123,0,0,1-.395,1.587,2.408,2.408,0,0,1-.811.209,20.127,20.127,0,0,1-3.443-.1c-.231-.02-.462-.061-.694-.078a3.248,3.248,0,0,1-1.62-.674c-.382-.265-.755-.544-1.127-.823a.257.257,0,0,1-.087-.173,4.678,4.678,0,0,1,.98-3.143C4668.778,1046.332,4668.818,1046.3,4668.878,1046.233Z" transform="translate(-4667.749 -1044.551)" fill="#bb83ff"/><path d="M4667.905,1134.263c.071.405.162.808.207,1.216.149,1.354.276,2.71.423,4.064a1.133,1.133,0,0,1-.536,1.233.68.68,0,0,1-.075.038.219.219,0,0,1-.057.005v-6.55Z" transform="translate(-4667.837 -1117.037)" fill="#47286d"/><path d="M5030.9,1398.842a4.706,4.706,0,0,1-1.347,1.822,4.851,4.851,0,0,0-1.526-.678,2.43,2.43,0,0,1-1.125-.685,1.059,1.059,0,0,1-.192-1.4,1.041,1.041,0,0,1,1.251-.51,6.718,6.718,0,0,1,1.358.511C5029.861,1398.175,5030.368,1398.521,5030.9,1398.842Z" transform="translate(-4963.164 -1333.662)" fill="#47286d"/></g></g></svg>