<svg xmlns="http://www.w3.org/2000/svg" width="74.75" height="74.75" viewBox="0 0 74.75 74.75"><g transform="translate(-1 -1)"><g transform="translate(2.206 2.206)"><g transform="translate(7.234)"><path d="M33.319,34.625l.362.06a16.254,16.254,0,0,0-.362,3.484H8a5.822,5.822,0,0,1,1.7-4.111l5.534-5.534H8a5.822,5.822,0,0,1,1.7-4.111l5.534-5.534H8V17.661a2.332,2.332,0,0,1,1-1.9A32.88,32.88,0,0,0,19.562,3.1a1.866,1.866,0,0,1,3.4,0A32.88,32.88,0,0,0,33.524,15.756a2.332,2.332,0,0,1,1,1.9v1.218H27.29l5.534,5.534a5.822,5.822,0,0,1,1.7,4.111H27.29l5.534,5.534a5.739,5.739,0,0,1,.494.567Z" transform="translate(-8 -2)" fill="#8cc152"/></g><g transform="translate(47.02 12.056)"><path d="M51.851,39.73a4.824,4.824,0,0,1-9.32,1.748,16.255,16.255,0,0,0,.88-5.365A14.993,14.993,0,0,0,41,27.673V26.468a4.775,4.775,0,0,1,1.808-3.738,4.77,4.77,0,0,1-.6-2.291,4.821,4.821,0,0,1,4.823-4.823c.06,0,.109.012.169.012a4.8,4.8,0,0,1,9.308,0c.06,0,.109-.012.169-.012A4.821,4.821,0,0,1,61.5,20.44a4.77,4.77,0,0,1-.6,2.291,4.763,4.763,0,0,1,.651,6.848,4.785,4.785,0,0,1-.374,8.452,4.686,4.686,0,0,1,.326,1.7,4.823,4.823,0,1,1-9.645,0Z" transform="translate(-41 -12)" fill="#b4dd7f"/></g><g transform="translate(32.552 24.113)"><path d="M43.468,25.617a14.993,14.993,0,0,1,2.411,8.44A16.255,16.255,0,0,1,45,39.422c-1.386,3.967-4.244,6.691-7.559,6.691-4.666,0-8.44-5.4-8.44-12.056a16.254,16.254,0,0,1,.362-3.484C30.411,25.617,33.63,22,37.44,22A7.464,7.464,0,0,1,43.468,25.617Z" transform="translate(-29 -22)" fill="#a0d468"/></g><g transform="translate(43.403 49.431)"><path d="M52.323,48.088c.072-.024.133-.048.2-.072a3.567,3.567,0,0,1,1.145-.193A3.612,3.612,0,0,1,57.29,51.44H38a3.611,3.611,0,0,1,2.435-3.4c0-.072-.024-.145-.024-.217a4.806,4.806,0,0,1,9.006-2.351A3.572,3.572,0,0,1,52.323,48.088Z" transform="translate(-38 -43)" fill="#a0d468"/></g><g transform="translate(10.851 43.403)"><path d="M30.29,42.823a4.826,4.826,0,0,1,3.195,8.44l-.916,1.206H13.749l-1.121-1.206a4.811,4.811,0,0,1,2-8.271c0-.06-.012-.109-.012-.169A4.821,4.821,0,0,1,19.44,38a4.409,4.409,0,0,1,1.206.157,4.766,4.766,0,0,1,2.978,2.315,5.724,5.724,0,0,1,.639-.06,4.8,4.8,0,0,1,4.328,2.737A4.686,4.686,0,0,1,30.29,42.823Z" transform="translate(-11 -38)" fill="#b4dd7f"/></g><g transform="translate(0 57.871)"><path d="M57.46,59.645h3.617a2.429,2.429,0,0,1,2.411,2.411,2.418,2.418,0,0,1-2.411,2.411H14.056a2.429,2.429,0,0,1-2.411-2.411,2.418,2.418,0,0,1,2.411-2.411H4.411A2.418,2.418,0,0,1,2,57.234a2.429,2.429,0,0,1,2.411-2.411H8.028a2.418,2.418,0,0,0,2.411-2.411A2.429,2.429,0,0,1,12.851,50H71.927a2.418,2.418,0,0,1,2.411,2.411,2.429,2.429,0,0,1-2.411,2.411H57.46a2.418,2.418,0,0,0-2.411,2.411,2.429,2.429,0,0,0,2.411,2.411Z" transform="translate(-2 -50)" fill="#31d9e7"/></g></g><g transform="translate(1 1)"><path d="M72.133,58.871h-6.2a4.816,4.816,0,0,0-4.651-3.617V46.783A5.966,5.966,0,0,0,64.9,48.02a6.035,6.035,0,0,0,6.028-6.028,5.7,5.7,0,0,0-.116-1.137,5.991,5.991,0,0,0,.6-9.294,5.924,5.924,0,0,0-.839-6.853,5.807,5.807,0,0,0,.359-2.006A6.036,6.036,0,0,0,65.6,16.714a6,6,0,0,0-11.053,0A6.036,6.036,0,0,0,49.226,22.7a5.807,5.807,0,0,0,.359,2.006,5.973,5.973,0,0,0-1.315,2.408,7.785,7.785,0,0,0-5.072-2,8.173,8.173,0,0,0-6.061,2.96,7.08,7.08,0,0,0-2.025-4.311L31.64,20.29h5.529V17.862a3.569,3.569,0,0,0-1.506-2.885A31.7,31.7,0,0,1,25.493,2.789a3.072,3.072,0,0,0-5.582,0A31.657,31.657,0,0,1,9.739,14.977a3.571,3.571,0,0,0-1.5,2.885V20.29h5.529l-3.471,3.471A7.075,7.075,0,0,0,8.234,28.73v1.206h5.529l-3.471,3.471a7.075,7.075,0,0,0-2.058,4.968v1.206H21.5V44.4a6.036,6.036,0,0,0-5.987,5.324,6.017,6.017,0,0,0-2.456,9.144A3.621,3.621,0,0,0,9.44,62.488a1.206,1.206,0,0,1-1.206,1.206H4.617a3.617,3.617,0,0,0,0,7.234h6.25a3.576,3.576,0,0,0-.222,1.206,3.621,3.621,0,0,0,3.617,3.617h47.02a3.617,3.617,0,1,0,0-7.234H57.665a1.206,1.206,0,0,1,0-2.411H72.133a3.617,3.617,0,0,0,0-7.234Zm-8.789,0H47.17a2.4,2.4,0,0,1,1.268-1.059l.837-.292-.029-.886a.729.729,0,0,0-.02-.175A3.6,3.6,0,0,1,55.977,54.7l.286.508.576.09a2.4,2.4,0,0,1,1.935,1.743l.354,1.309,1.259-.506a2.422,2.422,0,0,1,2.956,1.028ZM44.4,51.523c2.689-.464,5.031-2.453,6.564-5.321a6.05,6.05,0,0,0,4.287,1.818,5.966,5.966,0,0,0,3.617-1.237v6.742a4.755,4.755,0,0,0-1.09-.485A6.01,6.01,0,0,0,46.84,55.9a4.833,4.833,0,0,0-2.279,2.971H44.4Zm7.389-25.591.782-.632-.481-.883a3.585,3.585,0,0,1,3.082-5.336l1.171.06.241-.948a3.6,3.6,0,0,1,6.979,0l.241.948.979-.041c.064,0,.128-.01.112-.016A3.621,3.621,0,0,1,68.516,22.7a3.572,3.572,0,0,1-.457,1.714l-.481.883.782.632a3.544,3.544,0,0,1,.486,5.124l-.922,1.086,1.225.728a3.585,3.585,0,0,1-.276,6.338l-.992.48.389,1.031a3.611,3.611,0,1,1-6.988,1.274V38.8l4.559-5.7-1.884-1.507-2.674,3.343V22.7H58.871v7.412L56.2,26.771l-1.884,1.507,4.56,5.7v8.015a3.611,3.611,0,0,1-6.826,1.651,17.5,17.5,0,0,0,.8-5.267,16.3,16.3,0,0,0-2.411-8.742v-.9a3.59,3.59,0,0,1,1.361-2.8Zm-8.6,1.593c3.989,0,7.234,4.867,7.234,10.851,0,5.366-2.613,9.822-6.028,10.688V40.005l4.559-5.7L47.077,32.8,44.4,36.142v-3.8H41.992v9.28l-2.614-3.921-2.006,1.337,4.62,6.931v3.089c-3.416-.864-6.028-5.322-6.028-10.688,0-5.984,3.244-10.851,7.234-10.851Zm-7.434,2.411a14.689,14.689,0,0,0-1.292,2.83l-2.831-2.83ZM12,35.111l5.176-5.176h1.912V27.524H10.808A4.654,4.654,0,0,1,12,25.466l5.176-5.176h1.912V17.879h-8.44v-.017a1.141,1.141,0,0,1,.5-.926A34.08,34.08,0,0,0,22.09,3.82a.682.682,0,0,1,1.223,0A34.1,34.1,0,0,0,34.259,16.936a1.14,1.14,0,0,1,.5.926l-8.44.017V20.29h1.912l5.176,5.176A4.631,4.631,0,0,1,34.6,27.524H26.319v2.411h1.912l5.176,5.176a4.6,4.6,0,0,1,.374.426c-.084.533-.147,1.077-.183,1.632H10.808A4.643,4.643,0,0,1,12,35.111Zm11.911,4.469H33.6c.409,6.2,3.932,11.172,8.395,11.942v7.348H37.15a6.009,6.009,0,0,0-4.8-9.645,5.694,5.694,0,0,0-1.137.116,5.959,5.959,0,0,0-4.891-2.527h-.025a6.042,6.042,0,0,0-2.386-1.888ZM16.988,51.764l.948-.241-.041-.979a.367.367,0,0,0-.014-.116,0,0,0,0,0,0,0,3.6,3.6,0,0,1,6.754-1.758l.508.7.816-.115a2.939,2.939,0,0,1,.362-.036,3.582,3.582,0,0,1,3.243,2.053l.48,1,1.033-.393a3.609,3.609,0,0,1,3.663,6.085l-.7.9H16.332l-.845-.9a3.6,3.6,0,0,1,1.5-6.2Zm55.145,11.93H57.665a3.621,3.621,0,0,0-3.617,3.617,3.576,3.576,0,0,0,.222,1.206H51.637v2.411h9.645a1.206,1.206,0,1,1,0,2.411H14.262a1.206,1.206,0,0,1,0-2.411H21.5V68.516H4.617a1.206,1.206,0,0,1,0-2.411H8.234a3.621,3.621,0,0,0,3.617-3.617,1.206,1.206,0,0,1,1.206-1.206H72.133a1.206,1.206,0,0,1,0,2.411Z" transform="translate(-1 -1)" fill="#47286d"/><path d="M25.234,56.014A3.017,3.017,0,0,0,22.22,53H18v2.411h4.22a.6.6,0,0,1,.6.6,3.017,3.017,0,0,0,3.014,3.014h4.22V56.617h-4.22A.6.6,0,0,1,25.234,56.014Z" transform="translate(2.496 9.694)" fill="#47286d"/></g></g></svg>