<svg xmlns="http://www.w3.org/2000/svg" xmlns:xlink="http://www.w3.org/1999/xlink" width="396" height="288.622" viewBox="0 0 396 288.622"><defs><clipPath id="a"><rect width="396" height="285.205" fill="#47286d"/></clipPath></defs><g transform="translate(-871.219 -3144.223)"><g transform="translate(871.219 3144.223)"><g transform="translate(0 0)" opacity="0.79"><g clip-path="url(#a)"><g transform="translate(-499.835 -437.211)"><g transform="translate(0 0)"><path d="M0,0,653.392,106.271l.722,4.438L.722,4.438Z" transform="translate(0 462.528) rotate(-45)" fill="#47286d"/><path d="M0,0,653.392,106.271l.722,4.438L.722,4.438Z" transform="translate(15.265 473.523) rotate(-45)" fill="#47286d"/><path d="M0,0,653.392,106.271l.722,4.438L.722,4.438Z" transform="translate(30.531 484.517) rotate(-45)" fill="#47286d"/><path d="M0,0,653.392,106.271l.722,4.438L.722,4.438Z" transform="translate(45.796 495.512) rotate(-45)" fill="#47286d"/><path d="M0,0,653.392,106.271l.722,4.438L.722,4.438Z" transform="translate(61.062 506.506) rotate(-45)" fill="#47286d"/><path d="M0,0,653.392,106.271l.722,4.438L.722,4.438Z" transform="translate(76.327 517.5) rotate(-45)" fill="#47286d"/><path d="M0,0,653.392,106.271l.722,4.438L.722,4.438Z" transform="translate(91.592 528.494) rotate(-45)" fill="#47286d"/><path d="M0,0,653.392,106.271l.722,4.438L.722,4.438Z" transform="translate(106.857 539.489) rotate(-45)" fill="#47286d"/><path d="M0,0,653.392,106.271l.722,4.438L.722,4.438Z" transform="translate(122.123 550.483) rotate(-45)" fill="#47286d"/><path d="M0,0,653.392,106.271l.722,4.438L.722,4.438Z" transform="translate(137.388 561.477) rotate(-45)" fill="#47286d"/><path d="M0,0,653.392,106.271l.722,4.438L.722,4.438Z" transform="translate(152.654 572.472) rotate(-45)" fill="#47286d"/><path d="M0,0,653.392,106.271l.722,4.438L.722,4.438Z" transform="translate(167.919 583.466) rotate(-45)" fill="#47286d"/><path d="M0,0,653.392,106.271l.722,4.438L.722,4.438Z" transform="translate(183.184 594.461) rotate(-45)" fill="#47286d"/><path d="M0,0,653.392,106.271l.722,4.438L.722,4.438Z" transform="translate(198.449 605.455) rotate(-45)" fill="#47286d"/><path d="M0,0,653.392,106.271l.722,4.438L.722,4.438Z" transform="translate(213.715 616.449) rotate(-45)" fill="#47286d"/><path d="M0,0,653.392,106.271l.722,4.438L.722,4.438Z" transform="translate(228.98 627.443) rotate(-45)" fill="#47286d"/><path d="M0,0,653.392,106.271l.722,4.438L.722,4.438Z" transform="translate(244.245 638.438) rotate(-45)" fill="#47286d"/><path d="M0,0,653.392,106.271l.722,4.438L.722,4.438Z" transform="translate(259.511 649.432) rotate(-45)" fill="#47286d"/><path d="M0,0,653.392,106.271l.722,4.438L.722,4.438Z" transform="translate(274.776 660.426) rotate(-45)" fill="#47286d"/><path d="M0,0,653.392,106.271l.722,4.438L.722,4.438Z" transform="translate(290.042 671.421) rotate(-45)" fill="#47286d"/><path d="M0,0,653.392,106.271l.722,4.438L.722,4.438Z" transform="translate(305.307 682.415) rotate(-45)" fill="#47286d"/><path d="M0,0,653.392,106.271l.722,4.438L.722,4.438Z" transform="translate(320.572 693.409) rotate(-45)" fill="#47286d"/><path d="M0,0,653.392,106.271l.722,4.438L.722,4.438Z" transform="translate(335.838 704.404) rotate(-45)" fill="#47286d"/><path d="M0,0,653.392,106.271l.722,4.438L.722,4.438Z" transform="translate(351.103 715.398) rotate(-45)" fill="#47286d"/><path d="M0,0,653.392,106.271l.722,4.438L.722,4.438Z" transform="translate(366.368 726.392) rotate(-45)" fill="#47286d"/><path d="M0,0,653.392,106.271l.722,4.438L.722,4.438Z" transform="translate(381.634 737.387) rotate(-45)" fill="#47286d"/><path d="M0,0,653.392,106.271l.722,4.438L.722,4.438Z" transform="translate(396.899 748.381) rotate(-45)" fill="#47286d"/><path d="M0,0,653.392,106.271l.722,4.438L.722,4.438Z" transform="translate(412.164 759.376) rotate(-45)" fill="#47286d"/><path d="M0,0,653.392,106.271l.722,4.438L.722,4.438Z" transform="translate(427.43 770.37) rotate(-45)" fill="#47286d"/></g><g transform="translate(493.513 355.375)"><path d="M0,0,4.438.722,110.709,654.114l-4.438-.722Z" transform="translate(0 386.124) rotate(-45)" fill="#47286d"/><path d="M0,0,4.438.722,110.709,654.114l-4.438-.722Z" transform="translate(15.265 375.13) rotate(-45)" fill="#47286d"/><path d="M0,0,4.438.722,110.709,654.114l-4.438-.722Z" transform="translate(30.531 364.136) rotate(-45)" fill="#47286d"/><path d="M0,0,4.438.722,110.709,654.114l-4.438-.722Z" transform="translate(45.796 353.141) rotate(-45)" fill="#47286d"/><path d="M0,0,4.438.722,110.709,654.114l-4.438-.722Z" transform="translate(61.062 342.147) rotate(-45)" fill="#47286d"/><path d="M0,0,4.438.722,110.709,654.114l-4.438-.722Z" transform="translate(76.327 331.153) rotate(-45)" fill="#47286d"/><path d="M0,0,4.438.722,110.709,654.114l-4.438-.722Z" transform="translate(91.592 320.159) rotate(-45)" fill="#47286d"/><path d="M0,0,4.438.722,110.709,654.114l-4.438-.722Z" transform="translate(106.857 309.164) rotate(-45)" fill="#47286d"/><path d="M0,0,4.438.722,110.709,654.114l-4.438-.722Z" transform="translate(122.123 298.17) rotate(-45)" fill="#47286d"/><path d="M0,0,4.438.722,110.709,654.114l-4.438-.722Z" transform="translate(137.388 287.176) rotate(-45)" fill="#47286d"/><path d="M0,0,4.438.722,110.709,654.114l-4.438-.722Z" transform="translate(152.653 276.181) rotate(-45)" fill="#47286d"/><path d="M0,0,4.438.722,110.709,654.114l-4.438-.722Z" transform="translate(167.919 265.187) rotate(-45)" fill="#47286d"/><path d="M0,0,4.438.722,110.709,654.114l-4.438-.722Z" transform="translate(183.184 254.193) rotate(-45)" fill="#47286d"/><path d="M0,0,4.438.722,110.709,654.114l-4.438-.722Z" transform="translate(198.449 243.198) rotate(-45)" fill="#47286d"/><path d="M0,0,4.438.722,110.709,654.114l-4.438-.722Z" transform="translate(213.715 232.204) rotate(-45)" fill="#47286d"/><path d="M0,0,4.438.722,110.709,654.114l-4.438-.722Z" transform="translate(228.98 221.21) rotate(-45)" fill="#47286d"/><path d="M0,0,4.438.722,110.709,654.114l-4.438-.722Z" transform="translate(244.245 210.215) rotate(-45)" fill="#47286d"/><path d="M0,0,4.438.722,110.709,654.114l-4.438-.722Z" transform="translate(259.511 199.221) rotate(-45)" fill="#47286d"/><path d="M0,0,4.438.722,110.709,654.114l-4.438-.722Z" transform="translate(274.776 188.226) rotate(-45)" fill="#47286d"/><path d="M0,0,4.438.722,110.709,654.114l-4.438-.722Z" transform="translate(290.041 177.233) rotate(-45)" fill="#47286d"/><path d="M0,0,4.438.722,110.709,654.114l-4.438-.722Z" transform="translate(305.307 166.238) rotate(-45)" fill="#47286d"/><path d="M0,0,4.438.722,110.709,654.114l-4.438-.722Z" transform="translate(320.572 155.244) rotate(-45)" fill="#47286d"/><path d="M0,0,4.438.722,110.709,654.114l-4.438-.722Z" transform="translate(335.837 144.249) rotate(-45)" fill="#47286d"/><path d="M0,0,4.438.722,110.709,654.114l-4.438-.722Z" transform="translate(351.103 133.255) rotate(-45)" fill="#47286d"/><path d="M0,0,4.438.722,110.709,654.114l-4.438-.722Z" transform="translate(366.368 122.261) rotate(-45)" fill="#47286d"/><path d="M0,0,4.438.722,110.709,654.114l-4.438-.722Z" transform="translate(381.633 111.266) rotate(-45)" fill="#47286d"/><path d="M0,0,4.438.722,110.709,654.114l-4.438-.722Z" transform="translate(396.899 100.272) rotate(-45)" fill="#47286d"/><path d="M0,0,4.438.722,110.709,654.114l-4.438-.722Z" transform="translate(412.164 89.278) rotate(-45)" fill="#47286d"/><path d="M0,0,4.438.722,110.709,654.114l-4.438-.722Z" transform="translate(427.43 78.283) rotate(-45)" fill="#47286d"/></g></g></g></g><g transform="translate(14.327 16.647)"><path d="M-2266.13,4448.334a70.2,70.2,0,0,0,15.065-22.315,69.505,69.505,0,0,0,5.534-27.292,69.509,69.509,0,0,0-5.534-27.292,70.2,70.2,0,0,0-15.065-22.314,70.192,70.192,0,0,0-22.313-15.064,69.522,69.522,0,0,0-27.292-5.535,69.527,69.527,0,0,0-27.293,5.535,70.192,70.192,0,0,0-22.313,15.064,70.207,70.207,0,0,0-15.065,22.314,69.509,69.509,0,0,0-5.534,27.292,69.505,69.505,0,0,0,5.534,27.292,70.209,70.209,0,0,0,15.065,22.315,70.183,70.183,0,0,0,22.313,15.064,69.519,69.519,0,0,0,27.293,5.536,69.514,69.514,0,0,0,27.292-5.536A70.183,70.183,0,0,0-2266.13,4448.334Z" transform="translate(2385.941 -4328.521)" fill="#fff"/><rect width="155.876" height="129.456" transform="translate(104.778 142.519)" fill="#fff"/><path d="M-2107.669,4422.135l-48.027,70.7h96.054Z" transform="translate(2425.111 -4369.946)" fill="#fff"/></g><circle cx="59.371" cy="59.371" r="59.371" transform="translate(25.161 27.482)" fill="#f17781" stroke="#d69a9a" stroke-miterlimit="22.926" stroke-width="0.567"/><rect width="135.254" height="111.025" transform="translate(130.373 168.381)" fill="#31d9e7"/><path d="M-2145.925,4481.537h68.2l-34.1-50.194Z" transform="translate(2442.227 -4348.921)" fill="#f9e478" fill-rule="evenodd"/></g></g></svg>