<svg xmlns="http://www.w3.org/2000/svg" width="232" height="241" viewBox="0 0 232 241"><g transform="translate(-676 -5411)"><text transform="translate(742 5411)" fill="#12263f" font-size="16" font-family="Roboto-Bold, Roboto" font-weight="700"><tspan x="0" y="17">Naranja:</tspan><tspan y="17" xml:space="preserve" font-family="Roboto-Regular, Roboto" font-weight="400"> Mezcla de </tspan></text><text transform="translate(839 5438)" fill="#12263f" font-size="16" font-family="Roboto-Regular, Roboto"><tspan x="0" y="17">Amarillo</tspan></text><text transform="translate(760 5438)" fill="#12263f" font-size="16" font-family="Roboto-Regular, Roboto"><tspan x="0" y="17">Rojo</tspan></text><text transform="translate(802 5438)" fill="#12263f" font-size="18" font-family="Roboto-Bold, Roboto" font-weight="700"><tspan x="-4.913" y="19">+</tspan></text><circle cx="7.5" cy="7.5" r="7.5" transform="translate(742 5443)" fill="red"/><circle cx="7.5" cy="7.5" r="7.5" transform="translate(821 5443)" fill="#ffd500"/><circle cx="27" cy="27" r="27" transform="translate(676 5411)" fill="#f80"/><text transform="translate(742 5502)" fill="#12263f" font-size="16" font-family="Roboto-Bold, Roboto" font-weight="700"><tspan x="0" y="17">Verde:</tspan><tspan y="17" xml:space="preserve" font-family="Roboto-Regular, Roboto" font-weight="400"> Mezcla de </tspan></text><text transform="translate(839 5529)" fill="#12263f" font-size="16" font-family="Roboto-Regular, Roboto"><tspan x="0" y="17">Amarillo</tspan></text><text transform="translate(760 5529)" fill="#12263f" font-size="16" font-family="Roboto-Regular, Roboto"><tspan x="0" y="17">Azul</tspan></text><text transform="translate(802 5529)" fill="#12263f" font-size="18" font-family="Roboto-Bold, Roboto" font-weight="700"><tspan x="-4.913" y="19">+</tspan></text><circle cx="7.5" cy="7.5" r="7.5" transform="translate(742 5534)" fill="#0af"/><circle cx="7.5" cy="7.5" r="7.5" transform="translate(821 5534)" fill="#ffd500"/><circle cx="27" cy="27" r="27" transform="translate(676 5502)" fill="#009640"/><text transform="translate(742 5598)" fill="#12263f" font-size="16" font-family="Roboto-Bold, Roboto" font-weight="700"><tspan x="0" y="17">Violeta:</tspan><tspan y="17" xml:space="preserve" font-family="Roboto-Regular, Roboto" font-weight="400"> Mezcla de </tspan></text><text transform="translate(839 5625)" fill="#12263f" font-size="16" font-family="Roboto-Regular, Roboto"><tspan x="0" y="17">Azul</tspan></text><text transform="translate(760 5625)" fill="#12263f" font-size="16" font-family="Roboto-Regular, Roboto"><tspan x="0" y="17">Rojo</tspan></text><text transform="translate(802 5625)" fill="#12263f" font-size="18" font-family="Roboto-Bold, Roboto" font-weight="700"><tspan x="-4.913" y="19">+</tspan></text><circle cx="7.5" cy="7.5" r="7.5" transform="translate(742 5630)" fill="red"/><circle cx="7.5" cy="7.5" r="7.5" transform="translate(821 5630)" fill="#0af"/><circle cx="27" cy="27" r="27" transform="translate(676 5598)" fill="#5e2783"/></g></svg>