<svg xmlns="http://www.w3.org/2000/svg" width="933.212" height="302.79" viewBox="0 0 933.212 302.79"><g transform="translate(-358 -4485.405)"><text transform="translate(497.265 4761.942)" fill="#12263f" font-size="16" font-family="Roboto-Regular, Roboto"><tspan x="0" y="17">Proximidad</tspan></text><text transform="translate(731.209 4761.942)" fill="#12263f" font-size="16" font-family="Roboto-Regular, Roboto"><tspan x="0" y="17">Continuidad</tspan></text><text transform="translate(957.209 4761.942)" fill="#12263f" font-size="16" font-family="Roboto-Regular, Roboto"><tspan x="0" y="17">Cierre</tspan></text><text transform="translate(1198.212 4761.942)" fill="#12263f" font-size="16" font-family="Roboto-Regular, Roboto"><tspan x="0" y="17">Simetría</tspan></text><text transform="translate(604.407 4490.942)" fill="#12263f" font-size="16" font-family="Roboto-Regular, Roboto"><tspan x="0" y="17">Dirección común </tspan></text><text transform="translate(838.7 4490.942)" fill="#12263f" font-size="16" font-family="Roboto-Regular, Roboto"><tspan x="0" y="17">Semejanza</tspan></text><text transform="translate(1083.705 4490.942)" fill="#12263f" font-size="16" font-family="Roboto-Regular, Roboto"><tspan x="0" y="17">Figuro-Fondo</tspan></text><path d="M1634.891,736.619c-3.023,1.9-5.87,3.307-8.278,5.258-13.642,11.058-14.688,30.284-2.518,43.343,8.7,9.34,19.926,15.349,30.081,22.766,6.484,4.734,12.6,9.8,16.969,16.682,10.363,16.339,4.945,34.292-12.771,41.87-19.544,8.359-53.667,1.528-57.906-31.144-.783-6.033,2.752-8.658,8.458-6.432,2.092.816,1.556,2.54,1.713,4.019,2.281,21.478,23.066,33.626,43.164,25.21,10.939-4.581,14.847-14.187,10.227-25.3-2.679-6.439-7.536-11.091-12.911-15.272-10.5-8.166-22.354-14.485-32.074-23.724-8.188-7.783-13.277-16.938-13.8-28.407C1604.562,750.607,1619.28,735.937,1634.891,736.619Z" transform="translate(-1005.454 3831.19)" fill="#f17781"/><path d="M1686.2,865.536c8.86-5.231,14.041-11.688,15.918-20.416,2.331-10.842-.637-20.353-7.781-28.657-6.326-7.354-14.1-12.943-22.316-17.966-6.979-4.264-13.889-8.628-19.7-14.474-5.71-5.742-9.344-12.486-9.716-20.7-.532-11.7,5.539-21.057,16.4-25.48a35.833,35.833,0,0,1,49.223,27.67c.3,1.939,1.822,5.26-2.274,4.951-2.893-.219-7.139,2.51-7.988-3.731-1.993-14.64-13.488-23.469-28.12-22.294-14.016,1.126-21.274,14.174-14.84,26.725,2.926,5.707,7.68,9.714,12.812,13.286,8.159,5.68,16.543,11.05,24.57,16.908,7.1,5.183,12.968,11.564,16.544,19.793,7.117,16.374,2.319,32.813-12.285,41.846A15.806,15.806,0,0,1,1686.2,865.536Z" transform="translate(-1016.806 3831.59)" fill="#47286d"/><path d="M1495.926,745.312c-15.277,0-30.556.051-45.833-.059-2.107-.015-5.544,1.461-5.432-2.858.1-3.815,3.182-2.624,5.205-2.628q46.367-.1,92.734,0c2.01,0,5.022-1.165,5.156,2.683.14,3.974-2.912,2.809-4.929,2.818C1527.194,745.347,1511.56,745.313,1495.926,745.312Z" transform="translate(-963.579 3830.384)" fill="#f17781"/><path d="M1760.875,798.267c.071-7.273,6.164-13.413,13.162-13.263a13.325,13.325,0,1,1-.17,26.648A13.2,13.2,0,0,1,1760.875,798.267Z" transform="translate(-1048.623 3818.172)" fill="#bb83ff"/><path d="M1773.96,905.243c-7.548-.042-13.067-5.5-13.1-12.952a13.269,13.269,0,1,1,13.1,12.952Z" transform="translate(-1048.62 3792.934)" fill="#bb83ff"/><path d="M1889.222,798.27a13.3,13.3,0,0,1-12.984,13.345,13.548,13.548,0,0,1-13.5-12.934,13.8,13.8,0,0,1,13.332-13.739C1882.93,784.914,1889.177,791.245,1889.222,798.27Z" transform="translate(-1076.019 3818.188)" fill="#bb83ff"/><path d="M1787.384,845.114a13.22,13.22,0,0,1-13.005,13.326,12.945,12.945,0,0,1-13.506-13.265,13.256,13.256,0,0,1,26.512-.061Z" transform="translate(-1048.622 3805.53)" fill="#bb83ff"/><path d="M1825.129,905.262A12.958,12.958,0,0,1,1812.1,892.08a13.119,13.119,0,0,1,13.285-13,13.254,13.254,0,0,1,12.826,12.982A13.07,13.07,0,0,1,1825.129,905.262Z" transform="translate(-1062.398 3792.87)" fill="#47286d"/><path d="M1876.03,858.443a13.219,13.219,0,1,1,.188-26.435,13.542,13.542,0,0,1,13.047,13.383A13.121,13.121,0,0,1,1876.03,858.443Z" transform="translate(-1076.019 3805.53)" fill="#bb83ff"/><path d="M1773.915,738.7a12.981,12.981,0,1,1-12.924,13.318A13.107,13.107,0,0,1,1773.915,738.7Z" transform="translate(-1048.653 3830.624)" fill="#47286d"/><path d="M1875.961,905.23a13.13,13.13,0,0,1-13.229-13.03,13.263,13.263,0,1,1,26.525.1A12.894,12.894,0,0,1,1875.961,905.23Z" transform="translate(-1076.018 3792.934)" fill="#bb83ff"/><path d="M1825.2,858.332a12.86,12.86,0,0,1-13.078-13.169,13.049,13.049,0,0,1,12.932-12.862,13.2,13.2,0,0,1,13.136,13.25A12.986,12.986,0,0,1,1825.2,858.332Z" transform="translate(-1062.405 3805.451)" fill="#47286d"/><path d="M1825.217,811.406a12.925,12.925,0,1,1-.186-25.849,13.038,13.038,0,0,1,13.156,13.136A12.87,12.87,0,0,1,1825.217,811.406Z" transform="translate(-1062.406 3818.022)" fill="#47286d"/><path d="M1825.023,764.654a12.975,12.975,0,1,1,.193-25.95,12.976,12.976,0,1,1-.193,25.95Z" transform="translate(-1062.4 3830.623)" fill="#47286d"/><path d="M1889.064,751.53a12.779,12.779,0,0,1-12.557,13.123,12.98,12.98,0,1,1-.316-25.948A12.8,12.8,0,0,1,1889.064,751.53Z" transform="translate(-1076.094 3830.623)" fill="#47286d"/><path d="M1408.907,893.7c0,11.16,0,11.16-11.244,11.163-11.551,0-11.551,0-11.551-11.4s0-11.41,11.523-11.413C1408.907,882.051,1408.907,882.051,1408.907,893.7Z" transform="translate(-947.833 3792.07)" fill="#bb83ff"/><path d="M1495.519,910.94c-15.114,0-30.228.042-45.342-.053-1.982-.012-5.115,1.275-5.1-2.654.011-3.662,2.956-2.358,4.741-2.362q45.875-.114,91.751-.012c1.654,0,4.174-1.116,4.266,2.285.1,3.592-2.487,2.768-4.437,2.773C1526.1,910.96,1510.811,910.941,1495.519,910.94Z" transform="translate(-963.69 3785.725)" fill="#47286d"/><path d="M1335.2,893.808c0,11.056,0,11.056-11.208,11.054-11.109,0-11.109,0-11.109-11.151,0-11.668,0-11.668,11.82-11.668C1335.2,882.046,1335.2,882.046,1335.2,893.808Z" transform="translate(-928.139 3792.073)" fill="#bb83ff"/><path d="M1408.907,822.454c0,11.309,0,11.309-11.579,11.307-11.215,0-11.215,0-11.215-11.145,0-11.16,0-11.16,11.051-11.16h.531C1408.907,811.455,1408.907,811.455,1408.907,822.454Z" transform="translate(-947.833 3811.058)" fill="#bb83ff"/><path d="M1494.442,753.631c14.911,0,29.821-.026,44.732.031,1.916.007,4.584-.907,4.566,2.671-.018,3.6-2.723,2.587-4.6,2.59q-44.732.076-89.463,0c-1.909,0-4.642.9-4.625-2.617.016-3.481,2.717-2.64,4.656-2.647C1464.622,753.607,1479.532,753.632,1494.442,753.631Z" transform="translate(-963.686 3826.627)" fill="#f17781"/><path d="M1397.066,762.5c-10.675,0-10.675,0-10.676-10.868,0-11.429,0-11.429,11.709-11.427,10.673,0,10.673,0,10.673,10.869C1408.773,762.5,1408.773,762.5,1397.066,762.5Z" transform="translate(-947.908 3830.22)" fill="#47286d"/><path d="M1287.446,775.776c11.142,0,11.142,0,11.142,11.006,0,11.14,0,11.14-10.948,11.14-11.34,0-11.34,0-11.34-11.2C1276.3,775.776,1276.3,775.776,1287.446,775.776Z" transform="translate(-918.3 3820.653)" fill="#47286d"/><path d="M1371.851,893.924c0,10.939,0,10.939-10.735,10.939-11.5,0-11.5,0-11.5-11.875,0-10.944,0-10.944,10.84-10.944C1371.851,882.045,1371.851,882.045,1371.851,893.924Z" transform="translate(-938.019 3792.073)" fill="#bb83ff"/><path d="M1298.6,893.751c0,11.116,0,11.116-11.116,11.116-11.174,0-11.174,0-11.174-11.011,0-11.8,0-11.8,11.6-11.8C1298.6,882.058,1298.6,882.058,1298.6,893.751Z" transform="translate(-918.302 3792.07)" fill="#bb83ff"/><path d="M1493.863,897.046c-14.566,0-29.132.058-43.7-.067-1.9-.016-5,1.532-5.2-2.466-.2-4.082,2.909-2.769,4.869-2.774q44.495-.1,88.991-.022c1.915,0,4.535-.951,4.424,2.717-.11,3.623-2.75,2.566-4.629,2.574C1523.7,897.072,1508.783,897.044,1493.863,897.046Z" transform="translate(-963.66 3789.519)" fill="#47286d"/><path d="M1397.427,869.034c-11.313,0-11.313,0-11.313-11.062,0-11.185,0-11.185,11.208-11.184,11.586,0,11.586,0,11.586,11.334C1408.906,869.033,1408.906,869.033,1397.427,869.034Z" transform="translate(-947.834 3801.555)" fill="#bb83ff"/><path d="M1492.832,767.728c14.573,0,29.146-.03,43.719.037,1.887.008,4.672-1.045,4.71,2.51.036,3.373-2.546,2.788-4.584,2.789q-43.453.031-86.906-.016c-1.934,0-4.64.862-4.708-2.6-.07-3.5,2.63-2.687,4.582-2.694C1464.041,767.705,1478.437,767.728,1492.832,767.728Z" transform="translate(-963.688 3822.845)" fill="#f17781"/><path d="M1276.3,822.75c0-11.336,0-11.336,11.28-11.336,11.007,0,11.007,0,11.007,11.159,0,11.125,0,11.125-11.087,11.124C1276.3,833.7,1276.3,833.7,1276.3,822.75Z" transform="translate(-918.3 3811.068)" fill="#47286d"/><path d="M1287.368,869.038c-11.06,0-11.06,0-11.059-11.181,0-11.063,0-11.063,11.184-11.063,11.105,0,11.105,0,11.106,11.19C1298.6,869.041,1298.6,869.041,1287.368,869.038Z" transform="translate(-918.302 3801.553)" fill="#bb83ff"/><path d="M1287.535,740.191c11.053,0,11.053,0,11.053,11.026,0,11.29,0,11.29-11.3,11.29-10.985,0-10.985,0-10.985-11.01C1276.3,740.19,1276.3,740.19,1287.535,740.191Z" transform="translate(-918.3 3830.224)" fill="#47286d"/><path d="M1324.279,762.507c-11.339,0-11.339,0-11.339-11.255,0-11.06,0-11.06,11.024-11.059,11.3,0,11.3,0,11.3,11.263C1335.261,762.5,1335.261,762.5,1324.279,762.507Z" transform="translate(-928.154 3830.223)" fill="#47286d"/><path d="M1361.042,740.223c10.971,0,10.971,0,10.971,11.093,0,11.179,0,11.179-11.412,11.179-10.657,0-10.657,0-10.657-10.818v-.53C1349.944,740.223,1349.944,740.223,1361.042,740.223Z" transform="translate(-938.106 3830.215)" fill="#47286d"/><path d="M1360.155,833.763c-10.537,0-10.537,0-10.536-10.763,0-11.55,0-11.55,11.739-11.546,10.494,0,10.494,0,10.494,10.678C1371.851,833.763,1371.851,833.763,1360.155,833.763Z" transform="translate(-938.019 3811.058)" fill="#bb83ff"/><path d="M1491.741,883.072c-14.188,0-28.377.025-42.565-.033-1.718-.007-4.19.9-4.161-2.409.026-3.128,2.313-2.58,4.163-2.581q43.1-.037,86.2-.033c2.044,0,3.992-.147,3.864,2.861-.125,2.957-2.3,2.16-3.867,2.165C1520.828,883.092,1506.285,883.072,1491.741,883.072Z" transform="translate(-963.675 3793.157)" fill="#47286d"/><path d="M1477.687,814.2c-9.568,0-19.137.014-28.7-.009-2.058,0-4.532.535-4.372-2.909.146-3.135,2.5-2.428,4.3-2.432q29.237-.055,58.474-.013c1.895,0,4.066-.425,4.1,2.655s-2.121,2.7-4.029,2.7Q1492.571,814.222,1477.687,814.2Z" transform="translate(-963.564 3811.774)" fill="#f17781"/><path d="M1477.436,841.9c-9.6,0-19.2-.013-28.8.011-2.039.005-3.972.194-3.872-2.848.092-2.795,1.979-2.456,3.731-2.457q28.8-.012,57.6-.016c1.881,0,3.449-.108,3.508,2.622.071,3.249-2,2.663-3.9,2.663q-14.135,0-28.269,0Z" transform="translate(-963.605 3804.299)" fill="#47286d"/><path d="M1652.425,889.187c-8.13.3-13.518-2.619-17.29-8.625a28.149,28.149,0,0,1-3.565-10.507c-1.211-7.152-.644-7.7,6.379-7.282,2.193.132,3.223.746,3.342,3.016C1641.759,874.762,1644.863,882.614,1652.425,889.187Z" transform="translate(-1013.713 3797.284)" fill="#47286d"/><path d="M1462.371,864.229c4.951,0,9.9.055,14.854-.027,2.141-.035,3.343.53,3.24,2.956-.1,2.309-1.532,2.4-3.25,2.393-9.726-.021-19.453-.05-29.179.018-2.167.015-3.334-.571-3.247-2.961.084-2.307,1.547-2.4,3.258-2.386C1452.821,864.247,1457.6,864.23,1462.371,864.229Z" transform="translate(-963.613 3796.872)" fill="#47286d"/><path d="M1462.146,786.981c-4.6,0-9.208-.041-13.812.013-2.233.026-3.846-.425-3.747-3.161.1-2.7,2-2.456,3.774-2.458,9.385-.011,18.771.009,28.155-.02,1.96-.006,3.528.194,3.464,2.772-.06,2.428-1.458,2.891-3.491,2.872C1471.709,786.954,1466.927,786.985,1462.146,786.981Z" transform="translate(-963.559 3819.152)" fill="#f17781"/><path d="M1461.195,855.837c-4.254,0-8.507,0-12.761,0-1.818,0-3.6.171-3.646-2.551-.045-2.467,1.209-2.913,3.313-2.9q13.026.091,26.053,0c2.024-.012,3.416.248,3.372,2.815-.047,2.668-1.685,2.653-3.571,2.639C1469.7,855.813,1465.448,855.835,1461.195,855.837Z" transform="translate(-963.613 3800.586)" fill="#47286d"/><path d="M1461.1,794.907c4.263,0,8.527.052,12.788-.023,2.189-.039,3.315.7,3.235,3.059-.075,2.2-1.369,2.592-3.171,2.589q-13.055-.025-26.11,0c-1.732,0-3.212-.179-3.264-2.456-.052-2.25.967-3.21,3.2-3.183C1452.222,794.946,1456.663,794.908,1461.1,794.907Z" transform="translate(-963.558 3815.515)" fill="#f17781"/><path d="M1678.493,757.126c8.827-.931,18.686,9.3,17.046,17.491-.549,2.739-2.662,1.951-4.216,1.865-2.355-.13-5.558,1.419-6.234-2.855a40.405,40.405,0,0,0-2.239-8.711C1681.756,762.192,1679.987,759.736,1678.493,757.126Z" transform="translate(-1026.467 3825.685)" fill="#f17781"/><path d="M1990.606,737.662l-10.8,27.7,19.946,47.649h-28.811v6.372h31.027l17.73,41.555h-17.176v4.987h48.2v-4.987H2043.8Z" transform="translate(-1105.118 3830.903)" fill="#47286d"/><rect width="24.933" height="5.264" transform="translate(826.48 4691.568)" fill="#f17781"/><path d="M2099.526,737.662v2.308h31.212v95.114h62.24v32.32h2.4V737.662Z" transform="translate(-1139.701 3830.903)" fill="#47286d"/><path d="M2247.568,737.662v27.8h36.384V866.482h13.667V737.662Z" transform="translate(-1179.517 3830.903)" fill="#47286d"/><path d="M2368.608,737.662v27.8h-36.383V866.482h-13.667V737.662Z" transform="translate(-1198.608 3830.903)" fill="#bb83ff"/><g transform="translate(-30 -30.7)"><rect width="1.853" height="4.433" transform="translate(1148.103 4614.157)" fill="#f17781"/><rect width="1.853" height="4.433" transform="translate(1148.103 4633.697)" fill="#f17781"/><rect width="1.853" height="4.433" transform="translate(1148.103 4690.581)" fill="#f17781"/><rect width="1.853" height="4.433" transform="translate(1148.103 4671.202)" fill="#f17781"/><rect width="1.853" height="4.433" transform="translate(1148.103 4709.248)" fill="#f17781"/><rect width="1.853" height="4.433" transform="translate(1148.103 4652.825)" fill="#f17781"/></g><path d="M1445.888,823.4c-.959.43-1.435,1.336-1.034,3.239.556,2.63,2.808,1.683,4.383,1.687,20.086.061,40.173-.077,60.257.131,4.492.047,5.029-1.752,4.054-5.057Z" transform="translate(-963.593 3807.845)" fill="#47286d"/><circle cx="15.895" cy="15.895" r="15.895" transform="translate(453.865 4756.405)" fill="#31d9e7"/><circle cx="15.895" cy="15.895" r="15.895" transform="translate(687.809 4756.405)" fill="#31d9e7"/><circle cx="15.895" cy="15.895" r="15.895" transform="translate(913.809 4756.405)" fill="#31d9e7"/><circle cx="15.895" cy="15.895" r="15.895" transform="translate(1154.812 4756.405)" fill="#31d9e7"/><circle cx="15.895" cy="15.895" r="15.895" transform="translate(565.173 4485.405)" fill="#31d9e7"/><circle cx="15.895" cy="15.895" r="15.895" transform="translate(799.466 4485.405)" fill="#31d9e7"/><circle cx="15.895" cy="15.895" r="15.895" transform="translate(1044.471 4485.405)" fill="#31d9e7"/><path d="M-5029.5-6645v58h31.5" transform="translate(5447.582 11359.3)" fill="none" stroke="#707070" stroke-width="2" stroke-dasharray="2 2" opacity="0.69"/><path d="M-5029.5-6645v58h31.5" transform="translate(5681.526 11359.3)" fill="none" stroke="#707070" stroke-width="2" stroke-dasharray="2 2" opacity="0.69"/><path d="M-5029.5-6645v58h31.5" transform="translate(5907.526 11359.3)" fill="none" stroke="#707070" stroke-width="2" stroke-dasharray="2 2" opacity="0.69"/><path d="M-5029.5-6645v58h31.5" transform="translate(6148.529 11359.3)" fill="none" stroke="#707070" stroke-width="2" stroke-dasharray="2 2" opacity="0.69"/><path d="M-5029.5-6587v-58h31.5" transform="translate(5557.954 11146.3)" fill="none" stroke="#707070" stroke-width="2" stroke-dasharray="2 2" opacity="0.69"/><path d="M-5029.5-6587v-58h31.5" transform="translate(5792.247 11146.3)" fill="none" stroke="#707070" stroke-width="2" stroke-dasharray="2 2" opacity="0.69"/><path d="M-5029.5-6587v-58h31.5" transform="translate(6037.252 11146.3)" fill="none" stroke="#707070" stroke-width="2" stroke-dasharray="2 2" opacity="0.69"/></g></svg>