<svg xmlns="http://www.w3.org/2000/svg" width="1020" height="288.853" viewBox="0 0 1020 288.853"><g transform="translate(-284 -1105.391)"><g transform="translate(284 1105.391)"><path d="M165.676,312.653a11.637,11.637,0,0,1-11.637-11.637V203.567a47.754,47.754,0,0,1,47.7-47.7H396.632a47.756,47.756,0,0,1,47.7,47.7V256.51a11.639,11.639,0,1,1-23.277,0V203.567a24.455,24.455,0,0,0-24.427-24.427H201.738a24.452,24.452,0,0,0-24.424,24.427v97.448A11.637,11.637,0,0,1,165.676,312.653Z" transform="translate(-154.039 -155.866)" fill="#f17781"/></g><g transform="translate(294.183 1115.573)"><path d="M159.435,296.229a1.454,1.454,0,0,1-1.454-1.454V197.326A37.559,37.559,0,0,1,195.5,159.808H390.391a37.562,37.562,0,0,1,37.521,37.518v52.943a1.456,1.456,0,1,1-2.911,0V197.326a34.647,34.647,0,0,0-34.61-34.607H195.5a34.647,34.647,0,0,0-34.607,34.607v97.448A1.454,1.454,0,0,1,159.435,296.229Z" transform="translate(-157.981 -159.808)" fill="#47286d"/></g><g transform="translate(291.272 1232.039)"><g transform="translate(0 14.146)"><g transform="translate(0 0.054)"><path d="M161.217,219.066a4.382,4.382,0,0,1-3.084-7.476,4.566,4.566,0,0,1,6.169,0,5.813,5.813,0,0,1,.553.669,6.2,6.2,0,0,1,.406.757c.088.261.176.553.235.814a4.554,4.554,0,0,1,.088.873,4.421,4.421,0,0,1-1.281,3.084A4.364,4.364,0,0,1,161.217,219.066Z" transform="translate(-156.854 -210.391)" fill="#47286d"/></g><g transform="translate(0 17.341)"><path d="M385.733,337.62a4.385,4.385,0,0,1,4.363-4.4h0a4.387,4.387,0,0,1,4.366,4.4h0a4.38,4.38,0,0,1-4.366,4.363h0A4.377,4.377,0,0,1,385.733,337.62Zm-17.341,0a4.387,4.387,0,0,1,4.366-4.4h0a4.386,4.386,0,0,1,4.363,4.4h0a4.379,4.379,0,0,1-4.363,4.363h0A4.379,4.379,0,0,1,368.392,337.62Zm-17.338,0a4.384,4.384,0,0,1,4.363-4.4h0a4.405,4.405,0,0,1,4.366,4.4h0a4.4,4.4,0,0,1-4.366,4.363h0A4.377,4.377,0,0,1,351.053,337.62Zm-17.369,0a4.4,4.4,0,0,1,4.363-4.4h0a4.387,4.387,0,0,1,4.366,4.4h0a4.38,4.38,0,0,1-4.366,4.363h0A4.4,4.4,0,0,1,333.684,337.62Zm-17.341,0a4.387,4.387,0,0,1,4.366-4.4h0a4.384,4.384,0,0,1,4.363,4.4h0a4.377,4.377,0,0,1-4.363,4.363h0A4.379,4.379,0,0,1,316.343,337.62Zm-17.338,0a4.384,4.384,0,0,1,4.363-4.4h0a4.387,4.387,0,0,1,4.366,4.4h0a4.379,4.379,0,0,1-4.366,4.363h0A4.377,4.377,0,0,1,299,337.62Zm-17.341,0a4.387,4.387,0,0,1,4.366-4.4h0a4.384,4.384,0,0,1,4.363,4.4h0a4.377,4.377,0,0,1-4.363,4.363h0A4.38,4.38,0,0,1,281.664,337.62Zm-17.338,0a4.366,4.366,0,0,1,4.363-4.4h0a4.379,4.379,0,0,1,4.335,4.4h0a4.371,4.371,0,0,1-4.335,4.363h0A4.359,4.359,0,0,1,264.325,337.62Zm-17.369,0a4.385,4.385,0,0,1,4.363-4.4h0a4.387,4.387,0,0,1,4.366,4.4h0a4.38,4.38,0,0,1-4.366,4.363h0A4.377,4.377,0,0,1,246.956,337.62Zm-17.341,0a4.387,4.387,0,0,1,4.366-4.4h0a4.384,4.384,0,0,1,4.363,4.4h0a4.377,4.377,0,0,1-4.363,4.363h0A4.38,4.38,0,0,1,229.615,337.62Zm-17.338,0a4.384,4.384,0,0,1,4.363-4.4h0a4.387,4.387,0,0,1,4.366,4.4h0a4.38,4.38,0,0,1-4.366,4.363h0A4.377,4.377,0,0,1,212.276,337.62Zm-17.369,0a4.4,4.4,0,0,1,4.363-4.4h0a4.387,4.387,0,0,1,4.366,4.4h0a4.379,4.379,0,0,1-4.366,4.363h0A4.4,4.4,0,0,1,194.907,337.62Zm208.107-1.4a4.365,4.365,0,0,1,2.18-5.758h0a4.33,4.33,0,0,1,5.76,2.183h0a4.317,4.317,0,0,1-2.18,5.758h.028a4.416,4.416,0,0,1-1.8.406h0A4.366,4.366,0,0,1,403.014,336.22Zm-222.421,2.154a4.392,4.392,0,0,1-2.183-5.789h0a4.4,4.4,0,0,1,5.792-2.154h0a4.37,4.37,0,0,1,2.18,5.76h0a4.366,4.366,0,0,1-3.986,2.588h0A4.412,4.412,0,0,1,180.594,338.374Zm237.228-11.115a4.347,4.347,0,0,1-.726-6.107h0a4.351,4.351,0,0,1,6.138-.728h0a4.35,4.35,0,0,1,.728,6.109v.028a4.44,4.44,0,0,1-3.433,1.658h0A4.275,4.275,0,0,1,417.821,327.259Zm-252.355-.783a4.35,4.35,0,0,1,.726-6.112h0a4.359,4.359,0,0,1,6.138.728h0a4.385,4.385,0,0,1-.726,6.138h0a4.545,4.545,0,0,1-2.707.933h0A4.292,4.292,0,0,1,165.466,326.476Zm261.344-14a4.366,4.366,0,0,1-3.49-5.091h0a4.357,4.357,0,0,1,5.091-3.461h0a4.324,4.324,0,0,1,3.49,5.091h0a4.329,4.329,0,0,1-4.275,3.549h0A4.032,4.032,0,0,1,426.811,312.48Zm-269.288-3.549a4.367,4.367,0,0,1,3.49-5.091h0a4.367,4.367,0,0,1,5.091,3.492h0a4.369,4.369,0,0,1-3.49,5.091h0a3.711,3.711,0,0,1-.785.085h0A4.41,4.41,0,0,1,157.523,308.931Zm266.351-18.038a4.357,4.357,0,0,1,4.363-4.363h0a4.358,4.358,0,0,1,4.366,4.363h0a4.358,4.358,0,0,1-4.366,4.363h0A4.357,4.357,0,0,1,423.874,290.893Zm-267.02-.057a4.356,4.356,0,0,1,4.363-4.363h0a4.358,4.358,0,0,1,4.366,4.363h0a4.36,4.36,0,0,1-4.366,4.366h0A4.358,4.358,0,0,1,156.854,290.836Zm267.02-17.282a4.36,4.36,0,0,1,4.363-4.366h0a4.36,4.36,0,0,1,4.366,4.366h0a4.358,4.358,0,0,1-4.366,4.363h0A4.357,4.357,0,0,1,423.874,273.554Zm-267.02-.09a4.377,4.377,0,0,1,4.363-4.363h0a4.38,4.38,0,0,1,4.366,4.363h0a4.36,4.36,0,0,1-4.366,4.366h0A4.358,4.358,0,0,1,156.854,273.464Zm267.02-17.251a4.357,4.357,0,0,1,4.363-4.363h0a4.358,4.358,0,0,1,4.366,4.363h0a4.36,4.36,0,0,1-4.366,4.366h0A4.36,4.36,0,0,1,423.874,256.213Zm-267.02-.088a4.356,4.356,0,0,1,4.363-4.363h0a4.358,4.358,0,0,1,4.366,4.363h0a4.358,4.358,0,0,1-4.366,4.363h0A4.356,4.356,0,0,1,156.854,256.125Zm267.02-17.279a4.378,4.378,0,0,1,4.363-4.366h0a4.378,4.378,0,0,1,4.366,4.366h0a4.384,4.384,0,0,1-4.366,4.391h0A4.383,4.383,0,0,1,423.874,238.846Zm-267.02-.059a4.358,4.358,0,0,1,4.363-4.366h0a4.36,4.36,0,0,1,4.366,4.366h0a4.36,4.36,0,0,1-4.366,4.363h0A4.357,4.357,0,0,1,156.854,238.787Zm267.02-17.282a4.378,4.378,0,0,1,4.363-4.366h0a4.378,4.378,0,0,1,4.366,4.366h0a4.36,4.36,0,0,1-4.366,4.366h0A4.36,4.36,0,0,1,423.874,221.505Zm-267.02-.057a4.358,4.358,0,0,1,4.363-4.366h0a4.36,4.36,0,0,1,4.366,4.366h0a4.357,4.357,0,0,1-4.366,4.36h0A4.355,4.355,0,0,1,156.854,221.449Z" transform="translate(-156.854 -217.083)" fill="#47286d"/></g><g transform="translate(267.02 0.002)"><path d="M264.585,219.1a3.861,3.861,0,0,1-.842-.088,4.979,4.979,0,0,1-2.242-1.191,4.418,4.418,0,0,1-1.279-3.084,4.134,4.134,0,0,1,.349-1.687,3.577,3.577,0,0,1,.38-.757,5.8,5.8,0,0,1,.55-.669,4.581,4.581,0,0,1,4.774-.93,5.97,5.97,0,0,1,.726.406,4.061,4.061,0,0,1,.669.524,5.559,5.559,0,0,1,.553.669,6.206,6.206,0,0,1,.408.757,8,8,0,0,1,.232.814,4.546,4.546,0,0,1,.088.873,4.421,4.421,0,0,1-1.281,3.084A4.359,4.359,0,0,1,264.585,219.1Z" transform="translate(-260.222 -210.371)" fill="#47286d"/></g><g transform="translate(287.734)"><path d="M268.241,214.736a4.36,4.36,0,0,1,4.366-4.366h0a4.36,4.36,0,0,1,4.363,4.366h0a4.357,4.357,0,0,1-4.363,4.363h0A4.358,4.358,0,0,1,268.241,214.736Z" transform="translate(-268.241 -210.37)" fill="#47286d"/></g><g transform="translate(308.449 0.054)"><path d="M280.623,219.066a4.261,4.261,0,0,1-.842-.088,3.767,3.767,0,0,1-.816-.261,5.136,5.136,0,0,1-1.423-.93,3.752,3.752,0,0,1-.524-.669,3.821,3.821,0,0,1-.408-.757,3.764,3.764,0,0,1-.261-.816,4.262,4.262,0,0,1-.088-.842,4.417,4.417,0,0,1,1.281-3.113,4.562,4.562,0,0,1,6.166,0,4.394,4.394,0,0,1,0,6.2A4.359,4.359,0,0,1,280.623,219.066Z" transform="translate(-276.26 -210.391)" fill="#47286d"/></g></g><g transform="translate(319.967)"><path d="M282.173,241.9a1.454,1.454,0,0,1-1.454-1.457v-34.09a1.455,1.455,0,0,1,2.343-1.152l22.091,17.047a1.456,1.456,0,0,1,0,2.3l-22.091,17.044A1.452,1.452,0,0,1,282.173,241.9Zm1.454-32.587v28.172l18.255-14.086Z" transform="translate(-280.719 -204.894)" fill="#47286d"/></g></g><g transform="translate(646.167 1237.459)"><path d="M305.877,206.992a11.637,11.637,0,0,0-11.637,11.637v97.448a47.754,47.754,0,0,0,47.7,47.7H536.836a47.754,47.754,0,0,0,47.7-47.7V263.133a11.637,11.637,0,1,0-23.274,0v52.945A24.454,24.454,0,0,1,536.836,340.5H341.941a24.452,24.452,0,0,1-24.427-24.424V218.629A11.637,11.637,0,0,0,305.877,206.992Z" transform="translate(-294.24 -206.992)" fill="#bb83ff"/></g><g transform="translate(656.35 1247.642)"><path d="M299.636,210.934a1.454,1.454,0,0,0-1.454,1.454v97.448A37.561,37.561,0,0,0,335.7,347.355H530.595a37.563,37.563,0,0,0,37.518-37.518V256.892a1.454,1.454,0,0,0-2.909,0v52.945a34.649,34.649,0,0,1-34.61,34.607H335.7a34.647,34.647,0,0,1-34.61-34.607V212.388A1.454,1.454,0,0,0,299.636,210.934Z" transform="translate(-298.182 -210.934)" fill="#47286d"/></g><g transform="translate(653.438 1111.21)"><g transform="translate(0 133.512)"><path d="M301.418,209.8a4.382,4.382,0,0,0-3.084,7.476,4.566,4.566,0,0,0,6.169,0,5.994,5.994,0,0,0,.553-.669,6.582,6.582,0,0,0,.408-.757c.088-.261.173-.553.232-.814a4.568,4.568,0,0,0,.088-.873,4.417,4.417,0,0,0-1.281-3.084A4.359,4.359,0,0,0,301.418,209.8Z" transform="translate(-297.055 -209.804)" fill="#47286d"/></g><path d="M530.3,158.119h0a4.38,4.38,0,0,1,4.366,4.363h0a4.387,4.387,0,0,1-4.366,4.4h0a4.38,4.38,0,0,1,0-8.76Zm-17.338,0h0a4.379,4.379,0,0,1,4.363,4.363h0a4.386,4.386,0,0,1-4.363,4.4h0a4.38,4.38,0,0,1,0-8.76Zm-17.341,0h0a4.4,4.4,0,0,1,4.366,4.363h0a4.405,4.405,0,0,1-4.366,4.4h0a4.38,4.38,0,0,1,0-8.76Zm-17.369,0h0a4.38,4.38,0,0,1,4.366,4.363h0a4.387,4.387,0,0,1-4.366,4.4h0a4.38,4.38,0,0,1,0-8.76Zm-17.338,0h0a4.377,4.377,0,0,1,4.363,4.363h0a4.385,4.385,0,0,1-4.363,4.4h0a4.38,4.38,0,0,1,0-8.76Zm-17.341,0h0a4.38,4.38,0,0,1,4.366,4.363h0a4.387,4.387,0,0,1-4.366,4.4h0a4.38,4.38,0,0,1,0-8.76Zm-17.338,0h0a4.377,4.377,0,0,1,4.363,4.363h0a4.384,4.384,0,0,1-4.363,4.4h0a4.38,4.38,0,0,1,0-8.76Zm-17.341,0h0a4.371,4.371,0,0,1,4.335,4.363h0a4.379,4.379,0,0,1-4.335,4.4h0a4.38,4.38,0,0,1,0-8.76Zm-17.369,0h0a4.38,4.38,0,0,1,4.366,4.363h0a4.387,4.387,0,0,1-4.366,4.4h0a4.38,4.38,0,0,1,0-8.76Zm-17.338,0h0a4.377,4.377,0,0,1,4.363,4.363h0a4.385,4.385,0,0,1-4.363,4.4h0a4.38,4.38,0,0,1,0-8.76Zm-17.341,0h0a4.38,4.38,0,0,1,4.366,4.363h0a4.387,4.387,0,0,1-4.366,4.4h0a4.38,4.38,0,0,1,0-8.76Zm-17.369,0h0a4.38,4.38,0,0,1,4.366,4.363h0a4.387,4.387,0,0,1-4.366,4.4h0a4.38,4.38,0,0,1,0-8.76Zm207.73,3.172h0a4.408,4.408,0,0,1,1.8.408h-.028a4.316,4.316,0,0,1,2.183,5.758h0a4.331,4.331,0,0,1-5.761,2.183h0a4.37,4.37,0,0,1,1.8-8.349Zm-224.6.028h0a4.37,4.37,0,0,1,3.986,2.588h0a4.372,4.372,0,0,1-2.18,5.763h0a4.4,4.4,0,0,1-5.792-2.154h0a4.414,4.414,0,0,1,3.986-6.2Zm238.132,10.563h0a4.436,4.436,0,0,1,3.433,1.658v.028a4.348,4.348,0,0,1-.729,6.109h0a4.351,4.351,0,0,1-6.138-.728h0a4.35,4.35,0,0,1,.726-6.109A4.294,4.294,0,0,1,560.729,171.882Zm-251.631.057h0a4.559,4.559,0,0,1,2.707.93h0a4.391,4.391,0,0,1,.728,6.14h0a4.362,4.362,0,0,1-6.14.728h0a4.351,4.351,0,0,1-.726-6.112A4.292,4.292,0,0,1,309.1,171.939Zm258.73,15.595h0a4.329,4.329,0,0,1,4.275,3.549h0a4.323,4.323,0,0,1-3.49,5.091h0a4.359,4.359,0,0,1-5.091-3.461h0a4.368,4.368,0,0,1,3.49-5.091A4.036,4.036,0,0,1,567.828,187.534Zm-265.8.059h0a3.71,3.71,0,0,1,.785.085h0a4.369,4.369,0,0,1,3.49,5.091h0a4.367,4.367,0,0,1-5.091,3.492h0a4.372,4.372,0,0,1,.816-8.669Zm266.41,17.251h0a4.36,4.36,0,0,1,4.363,4.366h0a4.357,4.357,0,0,1-4.363,4.363h0a4.364,4.364,0,1,1,0-8.729Zm-267.022.057h0a4.36,4.36,0,0,1,4.366,4.366h0a4.358,4.358,0,0,1-4.366,4.363h0a4.364,4.364,0,0,1,0-8.729ZM568.44,222.185h0a4.357,4.357,0,0,1,4.363,4.363h0a4.357,4.357,0,0,1-4.363,4.363h0a4.363,4.363,0,1,1,0-8.726Zm-267.022.088h0a4.358,4.358,0,0,1,4.366,4.363h0A4.38,4.38,0,0,1,301.418,231h0a4.364,4.364,0,0,1,0-8.729ZM568.44,239.523h0a4.36,4.36,0,0,1,4.363,4.366h0a4.357,4.357,0,0,1-4.363,4.363h0a4.364,4.364,0,1,1,0-8.729Zm-267.022.088h0a4.36,4.36,0,0,1,4.366,4.366h0a4.358,4.358,0,0,1-4.366,4.363h0a4.364,4.364,0,0,1,0-8.729ZM568.44,256.864h0a4.382,4.382,0,0,1,4.363,4.391h0a4.376,4.376,0,0,1-4.363,4.363h0a4.377,4.377,0,0,1,0-8.754Zm-267.022.088h0a4.358,4.358,0,0,1,4.366,4.363h0a4.36,4.36,0,0,1-4.366,4.366h0a4.364,4.364,0,0,1,0-8.729ZM568.44,274.231h0A4.36,4.36,0,0,1,572.8,278.6h0a4.378,4.378,0,0,1-4.363,4.366h0a4.366,4.366,0,1,1,0-8.731Zm-267.022.059h0a4.36,4.36,0,0,1,4.366,4.363h0a4.358,4.358,0,0,1-4.366,4.363h0a4.363,4.363,0,1,1,0-8.726Z" transform="translate(-297.055 -158.119)" fill="#47286d"/><g transform="translate(267.02 133.512)"><path d="M404.789,209.8a4.037,4.037,0,0,0-.845.085,3.7,3.7,0,0,0-.814.263,3.81,3.81,0,0,0-.757.406,3.587,3.587,0,0,0-.669.524,4.359,4.359,0,0,0-1.193,3.957,4.312,4.312,0,0,0,.261.814,3.7,3.7,0,0,0,.38.757,5.983,5.983,0,0,0,.553.669,4.6,4.6,0,0,0,4.771.93,5.961,5.961,0,0,0,.726-.406,4.09,4.09,0,0,0,.669-.524,5.977,5.977,0,0,0,.553-.669,6.222,6.222,0,0,0,.408-.757,8.023,8.023,0,0,0,.232-.814,4.576,4.576,0,0,0,.088-.873,4.405,4.405,0,0,0-1.281-3.084A4.358,4.358,0,0,0,404.789,209.8Z" transform="translate(-400.423 -209.804)" fill="#47286d"/></g><g transform="translate(287.734 133.512)"><path d="M408.442,214.167a4.362,4.362,0,0,0,4.366,4.366h0a4.36,4.36,0,0,0,4.363-4.366h0a4.356,4.356,0,0,0-4.363-4.363h0A4.358,4.358,0,0,0,408.442,214.167Z" transform="translate(-408.442 -209.804)" fill="#47286d"/></g><g transform="translate(308.449 133.512)"><path d="M420.824,209.8a4.455,4.455,0,0,0-.842.085,3.77,3.77,0,0,0-.816.263,3.866,3.866,0,0,0-.754.406,4.524,4.524,0,0,0-1.862,2.764,4.285,4.285,0,0,0-.088.845,4.426,4.426,0,0,0,1.281,3.113,4.563,4.563,0,0,0,6.166,0,4.387,4.387,0,0,0,0-6.2A4.359,4.359,0,0,0,420.824,209.8Z" transform="translate(-416.461 -209.804)" fill="#47286d"/></g><g transform="translate(319.967 119.385)"><path d="M423.263,204.64l22.091,17.044a1.456,1.456,0,0,1,0,2.3l-22.091,17.047a1.455,1.455,0,0,1-2.343-1.152V205.789a1.464,1.464,0,0,1,.811-1.307,1.482,1.482,0,0,1,.643-.147A1.452,1.452,0,0,1,423.263,204.64Zm18.821,18.2L423.829,208.75v28.172Z" transform="translate(-420.92 -204.335)" fill="#47286d"/></g></g><g transform="translate(1013.703 1105.391)"><path d="M448.157,312.653a11.637,11.637,0,0,1-11.637-11.637V203.567a47.756,47.756,0,0,1,47.7-47.7H679.115a47.756,47.756,0,0,1,47.7,47.7V256.51a11.637,11.637,0,1,1-23.274,0V203.567a24.455,24.455,0,0,0-24.427-24.427H484.221a24.455,24.455,0,0,0-24.427,24.427v97.448A11.637,11.637,0,0,1,448.157,312.653Z" transform="translate(-436.52 -155.866)" fill="#31d9e7"/></g><g transform="translate(1023.886 1115.573)"><path d="M441.916,296.229a1.454,1.454,0,0,1-1.454-1.454V197.326a37.559,37.559,0,0,1,37.518-37.518H672.875a37.559,37.559,0,0,1,37.518,37.518v52.943a1.454,1.454,0,1,1-2.909,0V197.326a34.647,34.647,0,0,0-34.61-34.607H477.98a34.649,34.649,0,0,0-34.61,34.607v97.448A1.453,1.453,0,0,1,441.916,296.229Z" transform="translate(-440.462 -159.808)" fill="#47286d"/></g><g transform="translate(1020.975 1246.187)"><g transform="translate(0 0.052)"><path d="M443.7,219.066a4.38,4.38,0,0,1-3.084-7.476,4.563,4.563,0,0,1,6.166,0,5.832,5.832,0,0,1,.555.669,6.2,6.2,0,0,1,.406.757,8.012,8.012,0,0,1,.232.814,4.346,4.346,0,0,1,.088.873,4.41,4.41,0,0,1-1.281,3.084A4.358,4.358,0,0,1,443.7,219.066Z" transform="translate(-439.335 -210.391)" fill="#47286d"/></g><g transform="translate(0 17.339)"><path d="M668.214,337.62a4.387,4.387,0,0,1,4.366-4.4h0a4.385,4.385,0,0,1,4.363,4.4h0a4.377,4.377,0,0,1-4.363,4.363h0A4.38,4.38,0,0,1,668.214,337.62Zm-17.338,0a4.384,4.384,0,0,1,4.363-4.4h0a4.387,4.387,0,0,1,4.366,4.4h0a4.38,4.38,0,0,1-4.366,4.363h0A4.377,4.377,0,0,1,650.875,337.62Zm-17.341,0a4.387,4.387,0,0,1,4.366-4.4h0a4.4,4.4,0,0,1,4.363,4.4h0a4.4,4.4,0,0,1-4.363,4.363h0A4.379,4.379,0,0,1,633.534,337.62Zm-17.369,0a4.405,4.405,0,0,1,4.366-4.4h0a4.384,4.384,0,0,1,4.363,4.4h0a4.377,4.377,0,0,1-4.363,4.363h0A4.4,4.4,0,0,1,616.165,337.62Zm-17.338,0a4.384,4.384,0,0,1,4.363-4.4h0a4.387,4.387,0,0,1,4.366,4.4h0a4.379,4.379,0,0,1-4.366,4.363h0A4.377,4.377,0,0,1,598.827,337.62Zm-17.341,0a4.387,4.387,0,0,1,4.365-4.4h0a4.384,4.384,0,0,1,4.363,4.4h0a4.377,4.377,0,0,1-4.363,4.363h0A4.379,4.379,0,0,1,581.486,337.62Zm-17.338,0a4.384,4.384,0,0,1,4.363-4.4h0a4.387,4.387,0,0,1,4.366,4.4h0a4.38,4.38,0,0,1-4.366,4.363h0A4.377,4.377,0,0,1,564.147,337.62Zm-17.341,0a4.367,4.367,0,0,1,4.366-4.4h0a4.38,4.38,0,0,1,4.335,4.4h0a4.373,4.373,0,0,1-4.335,4.363h0A4.36,4.36,0,0,1,546.806,337.62Zm-17.369,0a4.387,4.387,0,0,1,4.366-4.4h0a4.384,4.384,0,0,1,4.363,4.4h0a4.377,4.377,0,0,1-4.363,4.363h0A4.38,4.38,0,0,1,529.437,337.62Zm-17.338,0a4.384,4.384,0,0,1,4.363-4.4h0a4.387,4.387,0,0,1,4.366,4.4h0a4.379,4.379,0,0,1-4.366,4.363h0A4.377,4.377,0,0,1,512.1,337.62Zm-17.341,0a4.387,4.387,0,0,1,4.366-4.4h0a4.384,4.384,0,0,1,4.363,4.4h0a4.377,4.377,0,0,1-4.363,4.363h0A4.38,4.38,0,0,1,494.757,337.62Zm-17.369,0a4.407,4.407,0,0,1,4.366-4.4h0a4.385,4.385,0,0,1,4.363,4.4h0a4.377,4.377,0,0,1-4.363,4.363h0A4.4,4.4,0,0,1,477.388,337.62Zm208.107-1.4a4.366,4.366,0,0,1,2.183-5.758h0a4.33,4.33,0,0,1,5.761,2.183h0a4.318,4.318,0,0,1-2.183,5.758h.029a4.407,4.407,0,0,1-1.8.406h0A4.369,4.369,0,0,1,685.5,336.22Zm-222.421,2.154a4.393,4.393,0,0,1-2.18-5.789h0a4.4,4.4,0,0,1,5.789-2.154h0a4.368,4.368,0,0,1,2.183,5.76h0a4.369,4.369,0,0,1-3.986,2.588h0A4.425,4.425,0,0,1,463.075,338.374ZM700.3,327.259a4.347,4.347,0,0,1-.728-6.107h0a4.355,4.355,0,0,1,6.14-.728h0a4.347,4.347,0,0,1,.726,6.109v.028a4.436,4.436,0,0,1-3.433,1.658h0A4.274,4.274,0,0,1,700.3,327.259Zm-252.357-.783a4.348,4.348,0,0,1,.728-6.112h0a4.359,4.359,0,0,1,6.138.728h0a4.388,4.388,0,0,1-.728,6.138h0a4.538,4.538,0,0,1-2.7.933h0A4.3,4.3,0,0,1,447.947,326.476Zm261.347-14a4.366,4.366,0,0,1-3.49-5.091h0a4.356,4.356,0,0,1,5.091-3.461h0a4.326,4.326,0,0,1,3.49,5.091h0a4.332,4.332,0,0,1-4.278,3.549h0A4.007,4.007,0,0,1,709.294,312.48ZM440,308.931a4.369,4.369,0,0,1,3.493-5.091h0a4.369,4.369,0,0,1,5.091,3.492h0a4.373,4.373,0,0,1-3.492,5.091h0a3.693,3.693,0,0,1-.785.085h0A4.414,4.414,0,0,1,440,308.931Zm266.353-18.038a4.356,4.356,0,0,1,4.363-4.363h0a4.356,4.356,0,0,1,4.363,4.363h0a4.356,4.356,0,0,1-4.363,4.363h0A4.356,4.356,0,0,1,706.357,290.893Zm-267.022-.057a4.358,4.358,0,0,1,4.366-4.363h0a4.357,4.357,0,0,1,4.363,4.363h0A4.36,4.36,0,0,1,443.7,295.2h0A4.36,4.36,0,0,1,439.335,290.836Zm267.022-17.282a4.358,4.358,0,0,1,4.363-4.366h0a4.358,4.358,0,0,1,4.363,4.366h0a4.356,4.356,0,0,1-4.363,4.363h0A4.356,4.356,0,0,1,706.357,273.554Zm-267.022-.09A4.38,4.38,0,0,1,443.7,269.1h0a4.379,4.379,0,0,1,4.363,4.363h0a4.36,4.36,0,0,1-4.363,4.366h0A4.36,4.36,0,0,1,439.335,273.464Zm267.022-17.251a4.356,4.356,0,0,1,4.363-4.363h0a4.356,4.356,0,0,1,4.363,4.363h0a4.358,4.358,0,0,1-4.363,4.366h0A4.358,4.358,0,0,1,706.357,256.213Zm-267.022-.088a4.358,4.358,0,0,1,4.366-4.363h0a4.357,4.357,0,0,1,4.363,4.363h0a4.357,4.357,0,0,1-4.363,4.363h0A4.358,4.358,0,0,1,439.335,256.125Zm267.022-17.279a4.376,4.376,0,0,1,4.363-4.366h0a4.376,4.376,0,0,1,4.363,4.366h0a4.382,4.382,0,0,1-4.363,4.391h0A4.382,4.382,0,0,1,706.357,238.846Zm-267.022-.059a4.36,4.36,0,0,1,4.366-4.366h0a4.36,4.36,0,0,1,4.363,4.366h0a4.359,4.359,0,0,1-4.363,4.363h0A4.36,4.36,0,0,1,439.335,238.787Zm267.022-17.282a4.376,4.376,0,0,1,4.363-4.366h0a4.376,4.376,0,0,1,4.363,4.366h0a4.358,4.358,0,0,1-4.363,4.366h0A4.358,4.358,0,0,1,706.357,221.505Zm-267.022-.057a4.36,4.36,0,0,1,4.366-4.366h0a4.36,4.36,0,0,1,4.363,4.366h0a4.357,4.357,0,0,1-4.363,4.36h0A4.357,4.357,0,0,1,439.335,221.449Z" transform="translate(-439.335 -217.083)" fill="#47286d"/></g><g transform="translate(267.022)"><path d="M547.067,219.1a3.867,3.867,0,0,1-.845-.088,3.742,3.742,0,0,1-.814-.261,3.686,3.686,0,0,1-.757-.408,3.745,3.745,0,0,1-.669-.522,4.419,4.419,0,0,1-1.279-3.084,4.022,4.022,0,0,1,.349-1.687,3.576,3.576,0,0,1,.377-.757,5.817,5.817,0,0,1,.553-.669,4.573,4.573,0,0,1,4.771-.93,6.019,6.019,0,0,1,.728.406,4.057,4.057,0,0,1,.669.524,5.819,5.819,0,0,1,.553.669,6.206,6.206,0,0,1,.408.757c.085.261.173.553.233.814a4.551,4.551,0,0,1,.085.873,4.418,4.418,0,0,1-1.279,3.084A4.368,4.368,0,0,1,547.067,219.1Z" transform="translate(-542.704 -210.371)" fill="#47286d"/></g></g><path d="M7.887,0H217.423a7.888,7.888,0,0,1,7.888,7.888V217.423a7.887,7.887,0,0,1-7.887,7.887H7.887A7.887,7.887,0,0,1,0,217.423V7.887A7.887,7.887,0,0,1,7.887,0Z" transform="translate(541.436 1137.391) rotate(90)" fill="#f17781" opacity="0.25"/><rect width="225.31" height="225.31" rx="7.888" transform="translate(679.126 1361.701) rotate(-90)" fill="#bb83ff" opacity="0.25"/><rect width="225.31" height="225.31" rx="7.888" transform="translate(1271.437 1137.884) rotate(90)" fill="#31d9e7" opacity="0.25"/><text transform="translate(340.126 1166.391)" fill="#12263f" font-size="16" font-family="Roboto-Bold, Roboto" font-weight="700"><tspan x="0" y="17">Navegación</tspan><tspan font-family="Roboto-Regular, Roboto" font-weight="400"><tspan x="0" y="41">La marca permite al </tspan><tspan x="0" y="65">consumidor elegir la que </tspan><tspan x="0" y="89">se ajusta a sus </tspan><tspan x="0" y="113">necesidades, entre un </tspan><tspan x="0" y="137">amplio espectro de </tspan><tspan x="0" y="161">competencias.</tspan></tspan></text><text transform="translate(702.126 1166.391)" fill="#12263f" font-size="16" font-family="Roboto-Bold, Roboto" font-weight="700"><tspan x="0" y="17">Seguridad</tspan><tspan font-family="Roboto-Regular, Roboto" font-weight="400"><tspan x="0" y="41">Las marcas deben </tspan><tspan x="0" y="65">ofrecer la calidad y </tspan><tspan x="0" y="89">seguridad de haber sido </tspan><tspan x="0" y="113">elegidas por sus </tspan><tspan x="0" y="137">consumidores.</tspan></tspan></text><text transform="translate(1069.126 1166.391)" fill="#12263f" font-size="16" font-family="Roboto-Bold, Roboto" font-weight="700"><tspan x="0" y="17">Compromiso </tspan><tspan font-family="Roboto-Regular, Roboto" font-weight="400"><tspan x="0" y="41">A través de sus </tspan><tspan x="0" y="65">componentes visuales y </tspan><tspan x="0" y="89">demás elementos, los </tspan><tspan x="0" y="113">consumidores se </tspan><tspan x="0" y="137">identifican con la marca.</tspan></tspan></text></g></svg>