<svg xmlns="http://www.w3.org/2000/svg" width="301.428" height="296.645" viewBox="0 0 301.428 296.645"><g transform="translate(-847.619 -113.019)"><g transform="translate(847.619 113.019)"><rect width="0.012" height="0.012" transform="translate(239.225 153.108) rotate(-45)" fill="none"/><rect width="0.012" height="0.012" transform="translate(191.38 153.102)" fill="none"/><rect width="0.012" height="0.012" transform="translate(143.534 105.255)" fill="none"/><path d="M1112.952,315.186l.01-.01h-.01Z" transform="translate(-912 -162.071)" fill="none"/><path d="M1011.874,277.273v.01l.01-.01Z" transform="translate(-887.474 -152.874)" fill="none"/><path d="M1011.874,214.107l.01-.01h-.01Z" transform="translate(-887.474 -137.545)" fill="none"/><path d="M1150.865,302.546h-.01l.01.01Z" transform="translate(-921.197 -159.006)" fill="none"/><path d="M1150.865,315.186v-.01h-.01Z" transform="translate(-921.197 -162.071)" fill="none"/><rect width="0.012" height="0.012" transform="translate(220.084 181.814) rotate(-45)" fill="none"/><rect width="0.012" height="0.012" transform="translate(172.24 181.808)" fill="none"/><rect width="0.012" height="0.012" transform="translate(210.519 181.814) rotate(-45)" fill="none"/><rect width="0.012" height="0.012" transform="translate(191.378 200.954) rotate(-45)" fill="none"/><path d="M1087.679,176.194l.01.01v-.01Z" transform="translate(-905.868 -128.348)" fill="none"/><path d="M1087.679,188.824l.01.01v-.01Z" transform="translate(-905.868 -131.412)" fill="none"/><path d="M1112.952,365.722v.01l.01-.01Z" transform="translate(-912 -174.335)" fill="none"/><path d="M1125.592,340.449h-.01l.01.01Z" transform="translate(-915.065 -168.203)" fill="none"/><rect width="0.012" height="0.012" transform="translate(220.087 86.115)" fill="none"/><path d="M1087.679,378.352l.01.01v-.01Z" transform="translate(-905.868 -177.4)" fill="none"/><rect width="0.012" height="0.012" transform="translate(191.38 57.409)" fill="none"/><rect width="0.012" height="0.012" transform="translate(191.38 105.255)" fill="none"/><path d="M961.328,315.176l.01.01v-.01Z" transform="translate(-875.21 -162.071)" fill="none"/><rect width="0.012" height="0.012" transform="translate(95.685 153.108) rotate(-45)" fill="none"/><path d="M1112.952,252.01l.01-.01h-.01Z" transform="translate(-912 -146.742)" fill="none"/><path d="M1150.865,239.37h-.01l.01.01Z" transform="translate(-921.197 -143.677)" fill="none"/><path d="M1112.952,239.38l.01-.01h-.01Z" transform="translate(-912 -143.677)" fill="none"/><path d="M948.7,340.459l.01-.01h-.01Z" transform="translate(-872.145 -168.203)" fill="none"/><path d="M1112.952,176.2l.01-.01h-.01Z" transform="translate(-912 -128.348)" fill="none"/><rect width="0.012" height="0.012" transform="translate(220.084 133.967) rotate(-45)" fill="none"/><path d="M1176.128,239.38l.01-.01h-.01Z" transform="translate(-927.33 -143.677)" fill="none"/><rect width="0.012" height="0.012" transform="translate(239.227 105.255)" fill="none"/><rect width="0.012" height="0.012" transform="translate(66.981 133.961)" fill="none"/><path d="M999.24,289.9h-.01l.01.01.01-.01Z" transform="translate(-884.407 -155.938)" fill="none"/><path d="M1188.758,289.9l.01.01.01-.01h-.019Z" transform="translate(-930.394 -155.938)" fill="none"/><path d="M986.6,302.556l.01-.01h-.01Z" transform="translate(-881.342 -159.006)" fill="none"/><path d="M1188.768,277.283v-.01h-.01Z" transform="translate(-930.394 -152.874)" fill="none"/><path d="M1201.4,277.283l.01-.01h-.01Z" transform="translate(-933.462 -152.874)" fill="none"/><path d="M1087.689,239.38v-.01h-.01Z" transform="translate(-905.868 -143.677)" fill="none"/><path d="M1087.689,252.01V252h-.01Z" transform="translate(-905.868 -146.742)" fill="none"/><path d="M1125.582,277.273l.01.01v-.01Z" transform="translate(-915.065 -152.874)" fill="none"/><path d="M1087.689,302.556v-.01h-.01Z" transform="translate(-905.868 -159.006)" fill="none"/><path d="M1087.689,315.186v-.01h-.01Z" transform="translate(-905.868 -162.071)" fill="none"/><path d="M1062.416,214.107v-.01h-.01Z" transform="translate(-899.736 -137.545)" fill="none"/><rect width="0.012" height="0.012" transform="translate(162.672 86.12) rotate(-45)" fill="none"/><path d="M1075.049,214.107l.01-.01h-.01Z" transform="translate(-902.804 -137.545)" fill="none"/><path d="M1049.777,239.38l.01-.01h-.01Z" transform="translate(-896.671 -143.677)" fill="none"/><rect width="0.012" height="0.012" transform="translate(210.521 86.115)" fill="none"/><path d="M1150.865,252h-.01l.01.01Z" transform="translate(-921.197 -146.742)" fill="none"/><path d="M1138.225,277.283l.01-.01h-.01Z" transform="translate(-918.133 -152.874)" fill="none"/><path d="M1138.235,214.1h-.01v.01Z" transform="translate(-918.133 -137.545)" fill="none"/><rect width="0.012" height="0.012" transform="translate(210.521 133.961)" fill="none"/><path d="M1112.962,302.546h-.01v.01Z" transform="translate(-912 -159.006)" fill="none"/><path d="M1087.689,365.732v-.01h-.01Z" transform="translate(-905.868 -174.335)" fill="none"/><path d="M1125.582,214.1l.01.01v-.01Z" transform="translate(-915.065 -137.545)" fill="none"/><rect width="0.012" height="0.012" transform="translate(172.24 86.115)" fill="none"/><path d="M1049.786,252h-.01v.01Z" transform="translate(-896.671 -146.742)" fill="none"/><path d="M1075.049,340.449v.01l.01-.01Z" transform="translate(-902.804 -168.203)" fill="none"/><path d="M1075.049,277.283l.01-.01h-.01Z" transform="translate(-902.804 -152.874)" fill="none"/><rect width="0.012" height="0.012" transform="translate(172.237 133.967) rotate(-45)" fill="none"/><path d="M1062.406,340.449l.01.01v-.01Z" transform="translate(-899.736 -168.203)" fill="none"/><rect width="0.012" height="0.012" transform="translate(143.534 153.102)" fill="none"/><path d="M1011.871,289.9h-.01l.01.01.01-.01Z" transform="translate(-887.471 -155.938)" fill="none"/><path d="M1024.513,302.546h-.01l.01.01Z" transform="translate(-890.539 -159.006)" fill="none"/><rect width="0.012" height="0.012" transform="translate(162.675 181.808)" fill="none"/><path d="M1112.962,188.824h-.01v.01Z" transform="translate(-912 -131.412)" fill="none"/><path d="M1011.871,353.079h-.01l.01.01.01-.01Z" transform="translate(-887.471 -171.268)" fill="none"/><path d="M1024.513,315.176h-.01l.01.01Z" transform="translate(-890.539 -162.071)" fill="none"/><path d="M1049.777,315.176v.01l.01-.01Z" transform="translate(-896.671 -162.071)" fill="none"/><path d="M1011.874,340.449v.01l.01-.01Z" transform="translate(-887.474 -168.203)" fill="none"/><path d="M1062.416,277.283v-.01h-.01Z" transform="translate(-899.736 -152.874)" fill="none"/><path d="M1049.777,302.546v.01l.01-.01Z" transform="translate(-896.671 -159.006)" fill="none"/><rect width="0.012" height="0.012" transform="translate(162.672 133.967) rotate(-45)" fill="none"/><path d="M1011.871,226.737l.01-.01h-.019Z" transform="translate(-887.471 -140.609)" fill="none"/><path d="M999.24,403.634v-.01h-.01Z" transform="translate(-884.407 -183.532)" fill="none"/><path d="M1075.049,403.634l.01-.01h-.01Z" transform="translate(-902.804 -183.532)" fill="none"/><path d="M1024.513,378.352h-.01l.01.01Z" transform="translate(-890.539 -177.4)" fill="none"/><rect width="0.012" height="0.012" transform="translate(143.532 200.954) rotate(-45)" fill="none"/><path d="M999.231,416.255l.01.01.01-.01h-.019Z" transform="translate(-884.407 -186.597)" fill="none"/><path d="M1024.513,365.732v-.01h-.01Z" transform="translate(-890.539 -174.335)" fill="none"/><rect width="0.012" height="0.012" transform="translate(153.099 258.36)" fill="none"/><rect width="0.012" height="0.012" transform="translate(162.675 229.654)" fill="none"/><path d="M1062.416,403.625h-.01l.01.01Z" transform="translate(-899.736 -183.532)" fill="none"/><path d="M948.708,403.625h-.01v.01Z" transform="translate(-872.145 -183.532)" fill="none"/><path d="M961.338,378.352h-.01l.01.01Z" transform="translate(-875.21 -177.4)" fill="none"/><path d="M999.231,340.449l.01.01v-.01Z" transform="translate(-884.407 -168.203)" fill="none"/><rect width="0.012" height="0.012" transform="translate(66.981 229.654)" fill="none"/><path d="M999.24,353.079h-.01l.01.01.01-.01Z" transform="translate(-884.407 -171.268)" fill="none"/><rect width="0.012" height="0.012" transform="translate(76.547 229.654)" fill="none"/><path d="M1011.874,403.625v.01l.01-.01Z" transform="translate(-887.474 -183.532)" fill="none"/><path d="M1011.871,416.255h-.01l.01.01.01-.01Z" transform="translate(-887.471 -186.597)" fill="none"/><path d="M1049.786,378.352h-.01v.01Z" transform="translate(-896.671 -177.4)" fill="none"/><path d="M1188.768,340.459v-.01h-.01Z" transform="translate(-930.394 -168.203)" fill="none"/><path d="M1176.138,315.176h-.01v.01Z" transform="translate(-927.33 -162.071)" fill="none"/><path d="M1112.952,378.362l.01-.01h-.01Z" transform="translate(-912 -177.4)" fill="none"/><path d="M1176.128,302.556l.01-.01h-.01Z" transform="translate(-927.33 -159.006)" fill="none"/><path d="M1138.235,340.449h-.01v.01Z" transform="translate(-918.133 -168.203)" fill="none"/><rect width="0.012" height="0.012" transform="translate(19.132 181.814) rotate(-44.952)" fill="none"/><path d="M1087.689,441.528h-.01l.01.01Z" transform="translate(-905.868 -192.729)" fill="none"/><rect width="0.012" height="0.012" transform="translate(172.237 229.66) rotate(-45)" fill="none"/><path d="M1087.689,428.9h-.01l.01.01Z" transform="translate(-905.868 -189.665)" fill="none"/><path d="M1125.592,403.634v-.01h-.01Z" transform="translate(-915.065 -183.532)" fill="none"/><path d="M1049.786,365.722h-.01v.01Z" transform="translate(-896.671 -174.335)" fill="none"/><path d="M1150.865,365.722h-.01l.01.01Z" transform="translate(-921.197 -174.335)" fill="none"/><path d="M1150.865,378.362v-.01h-.01Z" transform="translate(-921.197 -177.4)" fill="none"/><path d="M1138.225,403.625v.01l.01-.01Z" transform="translate(-918.133 -183.532)" fill="none"/><rect width="0.012" height="0.012" transform="translate(95.687 200.948)" fill="none"/><rect width="0.012" height="0.012" transform="translate(76.547 181.808)" fill="none"/><path d="M999.24,277.283v-.01h-.01Z" transform="translate(-884.407 -152.874)" fill="none"/><path d="M1176.138,252h-.01v.01Z" transform="translate(-927.33 -146.742)" fill="none"/><path d="M961.328,302.546l.01.01v-.01Z" transform="translate(-875.21 -159.006)" fill="none"/><path d="M986.61,252h-.01v.01Z" transform="translate(-881.342 -146.742)" fill="none"/><path d="M999.231,226.727l.01.01.01-.01h-.019Z" transform="translate(-884.407 -140.609)" fill="none"/><path d="M999.24,214.107v-.01h-.01Z" transform="translate(-884.407 -137.545)" fill="none"/><path d="M961.338,176.194h-.01l.01.01Z" transform="translate(-875.21 -128.348)" fill="none"/><rect width="0.012" height="0.012" transform="translate(95.685 105.261) rotate(-45)" fill="none"/><path d="M1024.513,252.01V252h-.01Z" transform="translate(-890.539 -146.742)" fill="none"/><path d="M986.6,239.37v.01l.01-.01Z" transform="translate(-881.342 -143.677)" fill="none"/><rect width="0.012" height="0.012" transform="translate(143.534 57.409)" fill="none"/><path d="M1049.777,188.824v.01l.01-.01Z" transform="translate(-896.671 -131.412)" fill="none"/><path d="M948.708,277.273h-.01v.01Z" transform="translate(-872.145 -152.874)" fill="none"/><path d="M1049.777,176.2l.01-.01h-.01Z" transform="translate(-896.671 -128.348)" fill="none"/><path d="M1024.513,188.824h-.01l.01.01Z" transform="translate(-890.539 -131.412)" fill="none"/><path d="M1024.513,239.38v-.01h-.01Z" transform="translate(-890.539 -143.677)" fill="none"/><path d="M961.338,252h-.01l.01.01Z" transform="translate(-875.21 -146.742)" fill="none"/><path d="M936.055,277.273l.01.01v-.01Z" transform="translate(-869.078 -152.874)" fill="none"/><path d="M936.055,340.449l.01.01v-.01Z" transform="translate(-869.078 -168.203)" fill="none"/><rect width="0.012" height="0.012" transform="translate(66.981 181.808)" fill="none"/><path d="M986.6,378.362l.01-.01h-.01Z" transform="translate(-881.342 -177.4)" fill="none"/><path d="M923.425,302.546v.01l.01-.01Z" transform="translate(-866.013 -159.006)" fill="none"/><path d="M923.425,315.176v.01l.01-.01Z" transform="translate(-866.013 -162.071)" fill="none"/><path d="M986.6,365.732l.01-.01h-.01Z" transform="translate(-881.342 -174.335)" fill="none"/><rect width="0.012" height="0.012" transform="translate(172.24 38.268)" fill="none"/><path d="M986.61,315.176h-.01v.01Z" transform="translate(-881.342 -162.071)" fill="none"/><path d="M923.425,252.01l.01-.01h-.01Z" transform="translate(-866.013 -146.742)" fill="none"/><rect width="0.012" height="0.012" transform="translate(66.981 86.115)" fill="none"/><path d="M961.338,365.722h-.01l.01.01Z" transform="translate(-875.21 -174.335)" fill="none"/><rect width="0.012" height="0.012" transform="translate(76.547 133.961)" fill="none"/><path d="M923.425,239.37v.01l.01-.01Z" transform="translate(-866.013 -143.677)" fill="none"/><rect width="0.012" height="0.012" transform="translate(95.687 57.409)" fill="none"/><path d="M961.338,239.38v-.01h-.01Z" transform="translate(-875.21 -143.677)" fill="none"/><path d="M961.328,188.824l.01.01v-.01Z" transform="translate(-875.21 -131.412)" fill="none"/><path d="M958.273,204.9l4.783-4.783,4.783-4.783-4.783-4.783-4.783-4.783-.01-.01-4.783-4.783-4.783-4.783V204.9h.01l-.01.01v9.556h.01l4.783-4.783Z" transform="translate(-872.145 -128.348)" fill="#d92170"/><path d="M956.731,176.562h.01v.01l4.783,4.783,4.783,4.783v-9.565l-.01-.01h.01V138.291l-4.783,4.783-4.783,4.783-4.783,4.782-4.783,4.783-.01.01-4.783,4.783L947.166,167l4.783,4.783Zm.01-9.565v.01l-.01-.01Z" transform="translate(-870.613 -119.151)" fill="#6cc3fb"/><path d="M1087.692,154.357l4.783,4.783,4.783,4.782v.01h.01l4.783,4.783,4.773,4.773v.01h.01l4.783,4.783,4.783,4.783v-28.7l-.01-.01-4.783-4.783-4.783-4.782-4.783-4.783-4.783-4.783-4.783-4.783-4.783-4.783v28.7Zm19.131,9.585v-.01h.01Z" transform="translate(-905.871 -116.086)" fill="#6cc3fb"/><path d="M1075.431,436.941l-.01-.01-4.783-4.783-4.783-4.783-4.783-4.783-4.783,4.783-4.783,4.783-4.783,4.783-.01.01-4.783,4.783-4.772,4.773h47.827l-4.773-4.773Z" transform="translate(-893.61 -188.132)" fill="#7024df"/><path d="M1163.5,454.171V473.3l4.783-4.783,4.783-4.783-4.783-4.783Z" transform="translate(-924.265 -195.797)" fill="#d92170"/><path d="M1046.712,454.168l-.01-.01h-9.546l-.01.01,4.783,4.783,4.783,4.783,4.783-4.783,4.792-4.792h-9.565Z" transform="translate(-893.607 -195.794)" fill="#d92170"/><path d="M1046.715,113.028v-.01h-9.555l4.782,4.783Z" transform="translate(-893.61 -113.019)" fill="#d92170"/><path d="M934.523,135.224l-4.783,4.783,4.783,4.783h.01v-.01L939.315,140l4.773-4.773h.01v-.01l-4.783-4.783-4.783-4.783-4.783,4.783,4.783,4.783v.01Z" transform="translate(-867.545 -116.083)" fill="#7024df"/><path d="M917.11,193.62l4.783,4.783v-9.565Z" transform="translate(-864.481 -131.415)" fill="#d92170"/><path d="M1206.184,433.68l4.783-4.783H1201.4Z" transform="translate(-933.462 -189.665)" fill="#d92170"/><path d="M857.184,258.514V239.383l-4.773,4.773-4.783,4.783-.01.01,4.783,4.783Z" transform="translate(-847.619 -143.68)" fill="#7024df"/><path d="M1212.5,185.76v-9.565l-4.783,4.783Z" transform="translate(-934.994 -128.348)" fill="#7024df"/><path d="M1223.609,223.663l4.783-4.783,4.783-4.783h-19.131l4.783,4.783Z" transform="translate(-936.53 -137.545)" fill="#7024df"/><path d="M1147.8,157.422V138.292l-4.783,4.783-4.783,4.783,4.783,4.783Z" transform="translate(-918.136 -119.151)" fill="#6cc3fb"/><path d="M1083.083,490.541l-4.783-4.783-4.783,4.783-4.783,4.783,4.783,4.783,4.783-4.783,4.783,4.783h.01v-.01l4.773-4.773-4.773-4.773Z" transform="translate(-901.271 -203.462)" fill="#d92170"/><path d="M1037.146,489l4.783-4.783-4.783-4.783Z" transform="translate(-893.607 -201.926)" fill="#d92170"/><path d="M983.546,454.158l-.01.01-.01-.01H973.98l-.01.01,4.783,4.783,4.782,4.783,4.783,4.783,4.783-4.783h.01v-.01l4.783-4.783,4.783-4.783H983.546Z" transform="translate(-878.278 -195.794)" fill="#f0c400"/><path d="M1160.424,451.093h.01v-9.556l-.01-.01-4.783,4.783-4.773,4.773v.02l4.783,4.783,4.783,4.783V451.1Z" transform="translate(-921.201 -192.729)" fill="#6cc3fb"/><path d="M1234.707,338.917l-4.783-4.783-4.783,4.783-4.782,4.783,4.782,4.783,4.783-4.783,4.783,4.783,4.783-4.783Z" transform="translate(-938.062 -166.671)" fill="#6cc3fb"/><path d="M896.633,327.819,891.85,332.6l4.783,4.783Z" transform="translate(-858.351 -165.139)" fill="#6cc3fb"/><path d="M868.282,346.95h.01v-9.556l-.01-.01h.01v-9.565h-.01L863.5,332.6l-4.783,4.783-4.783,4.783,4.783,4.783,4.792,4.793,4.783,4.783V346.96Z" transform="translate(-849.151 -165.139)" fill="#d92170"/><path d="M887.24,364.375l4.783-4.783-4.783-4.783-4.783-4.783-.01-.01-4.773-4.773-4.783-4.783v9.556h.01l-.01.01v28.7l4.783-4.783,4.783-4.783Z" transform="translate(-853.751 -168.206)" fill="#f0c400"/><path d="M895.1,390.995l-4.782,4.783-4.783,4.783-.01.01v9.556h.01l4.783-4.783,4.782-4.783,4.783,4.783,4.783,4.783V400.56l-4.783-4.783Z" transform="translate(-856.816 -180.468)" fill="#f0c400"/><path d="M906.195,261.575l-4.783-4.783-4.783-4.783-.01-.01-4.783,4.783,4.792,4.792-4.783,4.783,4.783,4.783-4.783,4.783,4.783,4.783-4.792,4.792,4.783,4.783h.01v-.01l4.783-4.783,4.783-4.783,4.783-4.783,4.783-4.783-4.783-4.783Z" transform="translate(-858.348 -146.742)" fill="#d92170"/><path d="M1226.674,277.273V296.4l4.783-4.783,4.783-4.783-4.783-4.783Z" transform="translate(-939.594 -152.874)" fill="#f0c400"/><path d="M1192.2,305.979l-4.783-4.783-4.783-4.783-4.783-4.783-4.793-4.793-4.783-4.783-4.783-4.783v28.706h.01l-.01.01v47.837h9.565V344.26h9.575V334.7l-.01-.01h9.575V325.12h9.565v-9.575l-4.783-4.783Zm-19.131-9.565-.01.01v-.01Zm0,9.565-.01.01v-.01Zm9.565,19.151-.01-.01h.01Z" transform="translate(-924.265 -152.874)" fill="#7a0b72"/><path d="M1196.8,384.862V365.722l-4.783,4.783-4.783,4.783-4.783,4.783,4.783,4.783v.01h.01l4.773,4.773,4.783,4.783Z" transform="translate(-928.865 -174.335)" fill="#f0c400"/><path d="M1173.063,258.511l-4.783,4.783-4.783,4.783,4.783,4.783,4.783,4.783,4.793,4.793,4.783,4.783,4.783,4.783,4.783,4.783,4.783-4.783-4.783-4.783,4.783-4.783-4.783-4.783-.01-.01h.02l4.783-4.783-4.783-4.783-.01.01v-.01h.01l4.783-4.783-4.783-4.783h-.01v-.01l4.783-4.783-4.783-4.783,4.783-4.783-4.783-4.783-4.783,4.783-4.783,4.783-4.783,4.783Zm9.575,19.141-.01-.01h.02Zm0-9.565-.01-.01h.01Z" transform="translate(-924.265 -143.677)" fill="#d92170"/><path d="M1163.866,249.314l4.792-4.793-4.783-4.783-.01.01v-.02l-4.773-4.773-4.783-4.783h-.01v-.01l-4.783-4.783-4.783-4.783-4.783-4.783-4.783-4.783-.01.01v-.02l-4.783-4.783-4.773-4.773h-.01V220.6h.01l-.01.01,4.783,4.783,4.783,4.783,4.783,4.783,4.783,4.783h.01v.01l4.783,4.783-4.783,4.783-4.783,4.783-4.783,4.783-.01.01-4.783,4.783-4.773,4.773-.01.01v19.131l4.783-4.783,4.783-4.783,4.783-4.783,4.792-4.793,4.783-4.783,4.783-4.783,4.783-4.783ZM1135.151,220.6h.02l-.01.01Zm9.575,9.575h.01v.01Zm9.565,9.565h.02l-.01.01Zm-19.131,28.716-.01-.01h.02Z" transform="translate(-915.068 -134.48)" fill="#9926ad"/><path d="M1157.366,356.515V346.95l-4.783-4.783-4.783-4.783-4.783-4.783-4.783-4.783h-.01v9.565h.01l-.01.01v9.556h.01l-.01.01v38.271h.01l-.01.01V394.8h.01l-.01.01v9.565l4.783-4.783,4.793-4.793,4.783-4.783,4.783-4.783V366.1l-.01-.01h.01v-9.575Zm-9.565.01v.01l-.01-.01Zm0,9.575-.01-.01h.01Z" transform="translate(-918.133 -165.139)" fill="#6cc3fb"/><path d="M1149.336,206.432l-4.783,4.783,4.783,4.783,4.783,4.783,4.783,4.783v.01h.01l4.783,4.783,4.773,4.773v.01h.01l4.783,4.783,4.783-4.783-4.783-4.783,4.783-4.783-4.783-4.783,4.783-4.783-.01-.01-4.783-4.783,4.783-4.783-4.783-4.783,4.783-4.783h.01v-.01l-4.783-4.783,4.783-4.783-4.783-4.783-4.783,4.783-.01.01-4.783,4.783-4.783,4.783-4.783,4.783Zm19.131,19.151v-.01h.01Z" transform="translate(-919.668 -129.88)" fill="#6cc3fb"/><path d="M1144.736,286.838l-4.792,4.793-4.783,4.783-4.783,4.783-4.783,4.783,4.783,4.783,4.783,4.783v.01h.01l4.783,4.783,4.783,4.783,4.783,4.783,4.783,4.783v-28.7l-.01-.01h.01V277.273l-4.783,4.783Zm0,9.575v.01l-.01-.01Zm0,9.575-.01-.01h.01Z" transform="translate(-915.068 -152.874)" fill="#f0c400"/><path d="M1129.028,394.418l-4.783-4.783-4.773-4.773h-.01v-.01l-4.783-4.783-4.783-4.783-.01.01v-.02l-4.773-4.773-4.783-4.783h-.01v9.565h.01l-.01.01v47.837h.01l4.783-4.783,4.773-4.773v-.01h.01l4.783-4.783,4.783-4.783-.01-.01h.02l4.773-4.773,4.783-4.783v-.02Zm-9.565.02-.01-.01h.01Z" transform="translate(-908.936 -174.335)" fill="#7024df"/><path d="M1124.245,332.592l-4.783,4.783v.02l-.01-.01-4.783,4.783-4.783,4.783-4.783,4.783-4.783,4.783v.01h.01l4.783,4.783,4.773,4.773v.01h.01l4.783,4.783,4.783,4.783v.01h.01l4.773,4.773,4.783,4.783V346.96l-.01-.01h.01V327.819h-.01Zm-14.358,23.943v-.01h.01Zm9.575-9.575-.01-.01h.02Z" transform="translate(-908.936 -165.139)" fill="#9926ad"/><path d="M1121.181,310.762l-4.783-4.783-4.783-4.783-4.783-4.783-.01.01v-.02l-4.783-4.783-4.783-4.783-4.783-4.783-4.783-4.783v76.543l4.773-4.773,4.783-4.783h.01v-.01l4.783-4.783,4.783-4.783,4.783-4.783,4.783-4.783h.01v-.01l4.783-4.783,4.773-4.773h.01v-.01Zm-14.348-4.783-.01.01v-.01Zm-9.575,0h.01l-.01.01-.01-.01Z" transform="translate(-905.871 -152.874)" fill="#d92170"/><path d="M1125.6,199.932l4.773,4.773,4.783,4.783v.01h.01l4.783,4.783,4.783-4.783,4.783-4.783,4.783-4.783-4.783-4.783-4.783,4.783-4.792-4.792-4.783,4.783-4.783-4.783-4.783,4.783v.01Z" transform="translate(-915.068 -132.945)" fill="#d92170"/><path d="M1130.378,269.8l4.783-4.783v-.01h.01l4.783-4.783,4.783-4.783,4.783-4.783-4.783-4.783-.01-.01-4.783-4.783-4.783-4.783-4.783-4.783-4.783-4.783v47.837h.01Z" transform="translate(-915.068 -140.612)" fill="#6cc3fb"/><path d="M1106.833,182.692l-.01.01v-.02l-4.773-4.773-4.783-4.783h-.01v-.01l-4.783-4.782-4.783-4.783v86.128l4.783,4.783,4.783,4.783,4.783,4.783,4.783,4.783v.01h.01l4.783,4.783,4.783,4.783V259.254l-.01-.01h.01v-9.556l-.01-.01h.01V211.408l-.01-.01h.01v-9.556l-.01-.01h.01v-9.575l-4.783-4.783Zm-9.575,0h.01l-.01.01-.01-.01Zm0,47.847h.01l-.01.01-.01-.01Zm9.565.01v-.01h.01Zm0-9.565v-.01h.01Z" transform="translate(-905.871 -125.28)" fill="#f0c400"/><path d="M1092.657,419.691v-28.7l-4.783,4.783-4.783,4.783-4.783,4.783-4.783,4.783-.01.01-4.783,4.783,4.783,4.783,4.783,4.783,4.783,4.783h.01v.01l4.783,4.783,4.773,4.773h.01v-9.556l-.01-.01h.01v-9.575Zm-9.575.01h.01v.01Z" transform="translate(-901.271 -180.468)" fill="#d92170"/><path d="M1092.465,370.5l-4.773,4.773v.019l4.783,4.783,4.783,4.783V375.3l-.01-.01h.01v-9.565h-.01Z" transform="translate(-905.871 -174.335)" fill="#7a0b72"/><path d="M1066.231,335.422v-9.546l-.01-.01h.01V287.6l-.01-.01h.01V278.03l-.01-.01h.01V239.748l-.01-.01h.01v-9.556l-.01-.01h.01V201.467l-4.783,4.783-4.783,4.783-.01.01-4.783,4.783L1047.1,220.6l-.01.01-4.783,4.783-4.783,4.783-.009.01-4.774,4.773-4.783,4.783-.009.01-4.783,4.783-4.782,4.783L1013.6,254.1l-4.783,4.783-.009.01-4.783,4.783-4.774,4.773-.009.01,4.783,4.783,4.783,4.783,4.783,4.783,4.783,4.783h.01v.01l4.782,4.783,4.783,4.783,4.782,4.783,4.783,4.783,4.782,4.783,4.783,4.783h.019l-.01.01,4.783,4.783,4.783,4.783,4.783,4.783,4.783,4.783h.01Zm-28.715-57.4h.009l-.009.01Zm9.574-9.565-.009-.01h.019Zm0-9.565-.009-.01h.009Zm-9.574,28.7h.009l-.009.01Zm19.14,19.141h.01l-.01.01Zm0-38.272-.009-.01h.019Zm0-9.565v-.01h.01Zm0-38.291h.01l-.01.01-.009-.01Zm-19.131,19.141-.009.01v-.01ZM1008.8,268.445h.019l-.009.01Zm9.575,9.575h.01v.01Zm9.565,9.565h.019l-.009.01Zm19.141,19.141h.009v.01Zm9.565,9.565h.019l-.01.01Z" transform="translate(-884.41 -134.48)" fill="#6cc3fb"/><path d="M1065.669,171.78l4.783,4.783,4.783,4.783,4.792,4.793v-9.565l-.01-.01h.01v-9.556l-.01-.01h.01V138.291l-4.783,4.783-4.783,4.783-.01.009-4.783,4.783-4.773,4.773-.01.01-4.783,4.783,4.783,4.783Zm4.783-14.358h.01l-.01.01-.009-.01Z" transform="translate(-898.207 -119.151)" fill="#7024df"/><path d="M1059.352,407.436l4.783-4.783,4.782-4.783-.009-.01h.019l4.783-4.783,4.783-4.783,4.783-4.783,4.783-4.783-4.783-4.783-4.783-4.783-.01-.01-4.782-4.783-4.783-4.783-4.782-4.783-4.783-4.783-.009-.01-4.783-4.783-4.783-4.783V359.59h.009l-.009.01v9.556h.009l-.009.01v38.271h.009l-.009.01V417h.009l4.783-4.783Zm9.565-19.131v-.01h.01Zm-9.565-.01v.01l-.009-.01Zm0,9.565h.01l-.01.01-.009-.01Z" transform="translate(-896.671 -168.203)" fill="#f0c400"/><path d="M1039.048,388.3V340.449l-4.783,4.783-4.782,4.783L1024.7,354.8l-4.782,4.783v.02l-.01-.01-4.783,4.783-4.783,4.783-4.783,4.783,4.783,4.783v.01h.009l4.783,4.783,4.783,4.783,4.782,4.783,4.783,4.783,4.782,4.783,4.783,4.783V388.3Zm-9.565-19.131-.01-.01h.019Zm-9.565-.01v.01l-.01-.01Z" transform="translate(-885.942 -168.203)" fill="#d92170"/><path d="M1037.518,230.173h.009l4.783-4.783,4.783-4.783-.009-.01h.019l4.773-4.773,4.783-4.783v-.01h.01l4.783-4.783,4.783-4.783H999.256l4.774,4.773,4.783,4.783v.01h.009l4.783,4.783,4.783,4.783,4.782,4.783,4.783,4.783v.01h.009l4.783,4.783,4.774-4.773Zm9.575-19.141v.01l-.009-.01Z" transform="translate(-884.413 -134.48)" fill="#f0c400"/><path d="M1027.95,320.154l-4.783-4.783-4.782-4.783-.01-.01-4.783-4.783-4.783-4.783-4.783-4.783-4.783,4.783,4.783,4.783-4.783,4.783,4.783,4.783-4.783,4.783v.01h.009l4.774,4.773-4.783,4.783v.02l4.783,4.783-4.774,4.773-.009.01,4.783,4.783-4.783,4.783,4.783,4.783-4.783,4.783,4.783,4.783,4.783-4.783,4.783-4.783,4.783-4.783h.01v-.01l4.782-4.783,4.783-4.783,4.782-4.783,4.783-4.783-4.783-4.783Zm-19.141,9.565h.009l-.009.01Zm-.01,9.565h.019l-.009.01Z" transform="translate(-884.41 -157.474)" fill="#7024df"/><path d="M1018.385,399.025l-4.783-4.783-4.783-4.783h-.009v-.01l-4.783-4.783-4.783,4.783v.01h.009l4.774,4.773-4.783,4.783v.02l4.783,4.783-4.774,4.773-.009.01,4.783,4.783-4.783,4.783,4.783,4.783-4.783,4.783,4.783,4.783,4.783-4.783,4.783-4.783,4.783-4.783h.01v-.01l4.782-4.783,4.783-4.783-4.783-4.783Zm-9.575,0h.009l-.009.01Zm-.01,9.565h.019l-.009.01Z" transform="translate(-884.41 -178.932)" fill="#9926ad"/><path d="M999.253,190.735h66.978l-4.793-4.793-4.783-4.783-4.783-4.783-4.783-4.783-4.783-4.783-4.792-4.793-4.783-4.783-4.782,4.783-4.783,4.783-4.782,4.782v.02l-.01-.01-4.783,4.783-4.783,4.783-4.783,4.783-4.783,4.783v.01Zm28.687-9.575h.019l-.009.01Zm9.575,0h.009l-.009.01Zm.009-9.565-.009.01v-.01Zm-19.14,9.565v.01l-.01-.01Z" transform="translate(-884.41 -123.748)" fill="#9926ad"/><path d="M999.244,158.961l4.782,4.783,4.783-4.783-.01-.01h.02l4.783-4.783-4.783-4.783-.01.01v-.02l-4.783-4.783-4.782,4.783v.02l4.782,4.783-4.773,4.773Z" transform="translate(-884.41 -120.68)" fill="#f0c400"/><path d="M979.315,407.068l-.01-.01-4.783-4.783-4.783-4.783-4.783-4.783-4.783-4.783-4.783-4.783-4.783-4.783-.01-.01-4.783,4.783-4.783,4.783v.01h-.01l-4.773,4.773-4.783,4.783v.02l-.01-.01-4.783,4.783-4.783,4.783-4.783,4.783,4.783,4.783v.01h.01l4.783-4.783,4.783,4.783,4.783-4.783,4.783,4.783,4.783-4.783,4.783,4.783h.01v-.01l4.783-4.783,4.783,4.783,4.783-4.783,4.783,4.783v.01h.01l4.783-4.783,4.783,4.783,4.783-4.783Zm-38.271-9.575-.01.01v-.01Zm-9.585,9.565h.02l-.01.01Zm9.565,0h.02l-.01.01Z" transform="translate(-864.481 -177.4)" fill="#6cc3fb"/><path d="M973.981,185.759l-.01.01v47.837h.01l-.01.01v47.837h.01l4.783-4.783,4.773-4.773v-.01h.01l4.783-4.783,4.783-4.783-.01-.01h.019l4.774-4.773,4.783-4.783v-.01h.009l4.783-4.783,4.783-4.783,4.782-4.783,4.783-4.783-.01-.01h.019l4.783-4.783-4.783-4.783h-.009v-.01l-4.783-4.783-4.782-4.783-4.783-4.783-4.783-4.783-.009.01v-.02l-4.783-4.783-4.774-4.773h-.009v-.01l-4.783-4.783-4.783-4.783-.01.01v-.02l-4.773-4.773-4.783-4.783h-.01v9.565Zm38.271,38.291-.01-.01h.01Zm-28.716-.01h.01l-.01.01Zm9.575-9.565-.01-.01h.019Zm-9.565,19.131-.01.01v-.01Zm9.565,19.151-.01-.01h.01Zm19.141-19.141-.01-.01h.01Zm-9.566-19.151-.009.01-.01-.01h.019Zm-9.575-9.556-.01-.01h.01Z" transform="translate(-878.278 -128.348)" fill="#d92170"/><path d="M955.209,356.9l4.783,4.783,4.783,4.783,4.783,4.783,4.783,4.783,4.783,4.783L983.9,385.6h.019l4.774-4.773-4.783-4.783-.01-.01h.01v-.01l4.783-4.783-4.774-4.773h-.009v-.01l4.783-4.783-4.783-4.783,4.783-4.783-4.783-4.783,4.783-4.783-4.783-4.783-.01-.01h.019l4.774-4.773-4.783-4.783-.01-.01h.01v-.01l4.783-4.783-4.774-4.773h-.009v-.01l4.783-4.783-4.783-4.783,4.783-4.783-4.783-4.783L988.7,294.7l-4.783-4.783-4.783,4.783-4.783,4.783-.01.01-4.773,4.773-4.783,4.783-.01.01-4.783,4.783-4.783,4.783-4.783,4.783-4.783,4.783-.01.01-4.783,4.783-4.773,4.773-.01.01,4.783,4.783,4.783,4.783,4.783,4.783,4.783,4.783h.01Zm19.131,0v-.01h.01Zm0-9.565v-.01h.01Zm.01-38.291-.01.01v-.01Zm-28.726,28.706h.02l-.01.01Zm9.575,9.575h.01v.01Zm9.575,9.565h.01l-.01.01-.01-.01Z" transform="translate(-869.081 -155.942)" fill="#f0c400"/><path d="M959.982,301.2l-4.773-4.773-.01-.01-4.783-4.783-4.783-4.783-.01-.01-4.773-4.773-4.783-4.783v9.556h.01l-.01.01v47.837h.01l4.773-4.773,4.783-4.783v-.01h.01l4.783-4.783,4.783-4.783,4.783-4.783,4.783-4.783-.01-.01Zm-4.783,4.783h.01v.01Z" transform="translate(-869.081 -152.877)" fill="#9926ad"/><path d="M945.624,277.641h.02l-.01.01,4.783,4.783,4.783,4.783h.01v.01L959.982,292l4.783,4.783h.01V248.945l-.01-.01h.01V239.37h-.01l-4.783,4.783-4.773,4.773v.02l-.01-.01-4.783,4.783-4.783,4.783v.01h-.01l-4.773,4.773-4.783,4.783v.02l4.783,4.783Zm.02-9.565-.01.01v-.01Z" transform="translate(-869.081 -143.677)" fill="#6cc3fb"/><path d="M929.936,334.685V325.13l-.01-.01h.01V286.848l-.01-.01h.01v-9.556l-.01-.01-4.783,4.783-4.783,4.783-4.783,4.783L910.8,296.4v.01h.01l4.783,4.783-4.783,4.783-.01.01,4.783,4.783-4.783,4.783,4.783,4.783L910.8,325.12l4.783,4.783-4.783,4.783,4.783,4.783-4.783,4.783v.01h.01l4.783,4.783,4.773-4.773v-.01h.01l4.783-4.783,4.783-4.783-.01-.01Zm-9.575-38.272h.01l-.01.01Zm0,9.565h.01l-.01.01Z" transform="translate(-862.948 -152.874)" fill="#d92170"/><path d="M932.99,258.879H933v-.01l4.783-4.783,4.773-4.773h.01v-.01l4.783-4.783,4.783-4.783h.01v-.01l4.773-4.773,4.783-4.783h.01V201.467l-4.783,4.783-4.783,4.783-4.783,4.783-4.783,4.783-.01.01-4.783,4.783L933,230.173l-4.783,4.783-4.783,4.783-.01.01v28.7l4.783-4.783Zm19.151-28.7-.01-.01h.01Z" transform="translate(-866.013 -134.48)" fill="#7024df"/><path d="M923.425,230.173h.01l-.01.01v9.556h.01l4.783-4.783L933,230.173l4.783-4.783,4.783-4.783-.01-.01-4.773-4.773L933,211.042l-.01-.01-4.783-4.783-4.783-4.783v28.706ZM933,220.6h.01l-.01.01-.01-.01Z" transform="translate(-866.013 -134.48)" fill="#7a0b72"/><path d="M914.228,245.868V226.727h-28.7l-.01.01,4.783,4.783,4.783,4.783h.01v.01l4.773,4.773,4.783,4.783h.02l-.01.01,4.783,4.783,4.783,4.783v-9.575Z" transform="translate(-856.816 -140.609)" fill="#f0c400"/></g></g></svg>