<svg xmlns="http://www.w3.org/2000/svg" width="186" height="186" viewBox="0 0 186 186"><g transform="translate(-233 -7801)"><g transform="translate(233 7801)" fill="#fff" stroke="#47286d" stroke-width="3" stroke-dasharray="3 4"><circle cx="93" cy="93" r="93" stroke="none"/><circle cx="93" cy="93" r="91.5" fill="none"/></g><circle cx="83" cy="83" r="83" transform="translate(243 7811)" fill="#bb83ff" opacity="0.5"/><path d="M109.354,77.336v24.2a49.773,49.773,0,0,0,.786,10.356,11.447,11.447,0,0,0,7.178,8.408,21.5,21.5,0,0,0,6.392,1.128V123H80.027v-1.572a21.5,21.5,0,0,0,6.392-1.128,11.607,11.607,0,0,0,4.272-2.837,11.058,11.058,0,0,0,2.939-5.537,51.9,51.9,0,0,0,.752-10.391V51.154a51.9,51.9,0,0,0-.752-10.391,11.058,11.058,0,0,0-2.939-5.537,10.86,10.86,0,0,0-4.307-2.871,22.574,22.574,0,0,0-6.357-1.094V29.689h32.949q8.271,0,10.869.068,10.6.479,16.611,2.871A22.592,22.592,0,0,1,150.95,40.8a21.761,21.761,0,0,1,3.726,12.612,20.751,20.751,0,0,1-8.066,17.09,23.337,23.337,0,0,1-5.435,3.145,48.871,48.871,0,0,1-7.964,2.324,20.739,20.739,0,0,1,6.084,3.555,16.011,16.011,0,0,1,2.871,3.589q1.3,2.153,3.9,7.622,6.084,12.51,9.194,18.286a56.385,56.385,0,0,0,5.229,8.374,10.854,10.854,0,0,0,3.315,2.939,12.545,12.545,0,0,0,4.409,1.094V123h-22.7q-1.709-3.76-2.187-4.785l-4.785-10.869a174.157,174.157,0,0,0-8.682-17.295q-4.375-7.451-8-10.186a11.913,11.913,0,0,0-3.965-1.948,19.925,19.925,0,0,0-5.2-.581Zm0-1.5h2.6q8.477,0,12.134-.957a15.968,15.968,0,0,0,6.87-3.965,22.466,22.466,0,0,0,7.178-16.953,24.981,24.981,0,0,0-2.085-10.151,20.966,20.966,0,0,0-5.776-7.827,16.711,16.711,0,0,0-6.836-3.247,52.72,52.72,0,0,0-11.279-.923h-2.8Z" transform="translate(201.973 7817.311)" fill="#47286d"/></g></svg>