<svg xmlns="http://www.w3.org/2000/svg" xmlns:xlink="http://www.w3.org/1999/xlink" width="265.187" height="174.581" viewBox="0 0 265.187 174.581"><defs><clipPath id="a"><rect width="120.539" height="99.111" fill="none"/></clipPath></defs><g transform="translate(-300.465 -133.687)"><g transform="translate(383.79 163.564)"><g clip-path="url(#a)"><g transform="translate(-13.586)"><rect width="147.71" height="99.111" fill="#c5edfd"/></g><g transform="translate(-26.443 12.116)"><g transform="translate(0 2.368)"><path d="M921.836,602.281a9.164,9.164,0,0,1-2.4.816,2.905,2.905,0,0,0-2.307,2.85v.027a3.327,3.327,0,0,1-.123.855,3.21,3.21,0,0,1-2.616,2.431,4.565,4.565,0,0,1-3.579-1.809,14.738,14.738,0,0,0-2.92-2.943c-1.811-1.1-4.158-.848-6.132-.078s-3.74,2-5.687,2.832-4.242,1.251-6.154.341c-2.052-.977-3.393-3.338-5.637-3.7a3.976,3.976,0,0,0-1.781.139,11.251,11.251,0,0,0-3.468,2.063c-1.63,1.265-3.752,2.667-5.87,1.736a6.343,6.343,0,0,1-2.809-3.032,3.144,3.144,0,0,0-1.712-1.547l-.012,0-.049-.019c-1.811-.747-1.109-1.962-.75-3.359a2.7,2.7,0,0,0-.542-2.849c-1.725-2.476-3.376-4.673-2.472-7.78.052-.179.112-.362.183-.548a7.389,7.389,0,0,1,7.548-4.6c2.317.272,4.639,1.662,6.842.9,1.7-.591,2.734-2.3,3.385-3.979s1.088-3.487,2.205-4.9c2.214-2.794,6.525-3.1,9.8-1.689s5.757,4.148,8.156,6.785,4.938,5.337,8.256,6.642c2.676,1.051,5.642,1.1,8.387,1.958s5.485,2.963,5.586,5.836C925.247,598.063,924.437,600.92,921.836,602.281Z" transform="translate(-864.562 -573.616)" fill="#7bb281"/></g><g transform="translate(0 18.008)"><path d="M882.5,743.508a11.251,11.251,0,0,0-3.468,2.063c-1.63,1.265-3.752,2.667-5.87,1.736a6.343,6.343,0,0,1-2.809-3.032,3.144,3.144,0,0,0-1.712-1.547l-.012,0-.049-.019c-1.811-.747-1.109-1.962-.75-3.359a2.7,2.7,0,0,0-.542-2.849c-1.725-2.476-3.376-4.673-2.472-7.78.493,1.959,1.175,3.658,3.217,4.691.752.381,1.685.718,1.909,1.531.29,1.055-.861,2.212-.351,3.179.381.724,1.417.776,2.01,1.34,1.3,1.238-.348,3.771.832,5.122a2.414,2.414,0,0,0,2.989.09c.929-.559,1.658-1.418,2.619-1.919a3.741,3.741,0,0,1,4.2.487A3.176,3.176,0,0,1,882.5,743.508Z" transform="translate(-864.562 -728.716)" fill="#477d6d"/></g><g transform="translate(20.084 21.812)"><path d="M1079.089,767.042l-.84-.6-6.37,5.828-.221-1.895h-.672l-.7,3.257-5.665-5.133-.887.572,4.855,7.021-3.21,56.258h10.282l-2.959-55.527Z" transform="translate(-1063.733 -766.44)" fill="#8c6c65"/></g><g transform="translate(28.346 45.929)"><path d="M1146.12,1015.06a.12.12,0,0,1-.12-.116l-.333-9.214a.12.12,0,0,1,.24-.009l.334,9.214a.12.12,0,0,1-.116.124Z" transform="translate(-1145.667 -1005.605)" fill="#a38984"/></g><g transform="translate(27.642 53.838)"><path d="M1138.8,1091.79a.12.12,0,0,1-.12-.12v-7.517a.12.12,0,0,1,.24,0v7.517A.12.12,0,0,1,1138.8,1091.79Z" transform="translate(-1138.684 -1084.033)" fill="#a38984"/></g><g transform="translate(23.427 72.277)"><g transform="translate(0 0)"><path d="M1097,1280.9H1097a.12.12,0,0,1-.115-.125l.584-13.758a.12.12,0,0,1,.24.01l-.584,13.758A.12.12,0,0,1,1097,1280.9Z" transform="translate(-1096.881 -1266.899)" fill="#a38984"/></g></g><g transform="translate(14.389)"><path d="M1011.728,550.389c.6.6.136,2.023-1.028,3.187s-2.591,1.624-3.187,1.028-.136-2.023,1.028-3.187S1011.131,549.793,1011.728,550.389Z" transform="translate(-1007.252 -550.128)" fill="#7bb281"/></g><g transform="translate(11.765 9.624)"><g transform="translate(0 0)"><ellipse cx="1.945" cy="0.996" rx="1.945" ry="0.996" transform="translate(0 1.578) rotate(-23.938)" fill="#7bb281"/></g></g></g><g transform="translate(34.225 19.341)"><g transform="translate(4.519 2.105)"><path d="M1514.1,642.952c.12.344-.468.862-1.312,1.156s-1.626.255-1.746-.089.467-.862,1.312-1.156S1513.979,642.608,1514.1,642.952Z" transform="translate(-1511.026 -642.666)" fill="#fff"/></g><path d="M1493.226,626.911a3.3,3.3,0,0,0-4.68-2.608,6.129,6.129,0,0,0-5.921-2.468c-5.98.652-6.2,4.922-6.2,4.922s-6.959-1.443-10.221,4.972h32.533S1497.439,627.5,1493.226,626.911Z" transform="translate(-1466.207 -621.786)" fill="#fff"/></g><g transform="translate(84.23 12.706)"><g transform="translate(31.543 2.665)"><path d="M2274.927,582.768c-.152.435.591,1.09,1.66,1.464s2.058.322,2.21-.113-.591-1.091-1.659-1.463S2275.079,582.332,2274.927,582.768Z" transform="translate(-2274.907 -582.405)" fill="#fff"/></g><path d="M1969.076,562.467a4.172,4.172,0,0,1,5.922-3.3,7.756,7.756,0,0,1,7.493-3.123c7.568.825,7.843,6.229,7.843,6.229s8.807-1.827,12.935,6.292H1962.1S1963.744,563.206,1969.076,562.467Z" transform="translate(-1962.098 -555.98)" fill="#fff"/></g><g transform="translate(85.954 9.532)"><g transform="translate(0 3.251)"><path d="M1982.594,585.979a9.348,9.348,0,0,0,2.445.832,2.963,2.963,0,0,1,2.353,2.907v.028a3.4,3.4,0,0,0,.125.872,3.275,3.275,0,0,0,2.668,2.48,4.656,4.656,0,0,0,3.651-1.845,15.035,15.035,0,0,1,2.978-3c1.847-1.124,4.24-.865,6.254-.079s3.815,2.036,5.8,2.889,4.327,1.276,6.277.347c2.093-1,3.461-3.4,5.749-3.77a4.056,4.056,0,0,1,1.817.142,11.474,11.474,0,0,1,3.537,2.1c1.663,1.29,3.827,2.72,5.987,1.771a6.47,6.47,0,0,0,2.865-3.093,3.207,3.207,0,0,1,1.747-1.578l.012,0,.05-.02c1.847-.762,1.131-2,.765-3.426a2.753,2.753,0,0,1,.552-2.905c1.76-2.525,3.444-4.767,2.522-7.936q-.079-.275-.186-.559a7.537,7.537,0,0,0-7.7-4.691c-2.363.278-4.731,1.695-6.978.913-1.733-.6-2.788-2.349-3.452-4.059s-1.109-3.557-2.249-4.994c-2.258-2.85-6.655-3.164-9.994-1.722s-5.872,4.231-8.318,6.92-5.037,5.444-8.421,6.774c-2.729,1.072-5.754,1.125-8.554,2s-5.594,3.022-5.7,5.952C1979.115,581.677,1979.942,584.591,1982.594,585.979Z" transform="translate(-1979.195 -556.742)" fill="#7bb281"/></g><g transform="translate(43.518 19.202)"><path d="M2410.761,730.021a11.48,11.48,0,0,1,3.537,2.1c1.663,1.29,3.827,2.72,5.987,1.771a6.471,6.471,0,0,0,2.865-3.093,3.207,3.207,0,0,1,1.747-1.578l.012,0,.05-.02c1.847-.762,1.131-2,.765-3.426a2.753,2.753,0,0,1,.552-2.905c1.76-2.525,3.443-4.767,2.522-7.936-.5,2-1.2,3.731-3.281,4.784-.767.388-1.719.732-1.947,1.561-.3,1.076.878,2.256.358,3.243-.388.739-1.445.792-2.05,1.367-1.324,1.262.355,3.846-.849,5.224-.727.832-2.1.662-3.049.091s-1.691-1.447-2.672-1.957a3.815,3.815,0,0,0-4.288.5A3.238,3.238,0,0,0,2410.761,730.021Z" transform="translate(-2410.761 -714.934)" fill="#477d6d"/></g><g transform="translate(25.669 23.082)"><path d="M2233.757,754.025l.856-.615,6.5,5.944.225-1.933h.685l.715,3.322,5.778-5.235.905.583-4.952,7.161,3.274,57.379h-10.488L2240.271,764Z" transform="translate(-2233.757 -753.41)" fill="#8c6c65"/></g><g transform="translate(32.32 47.68)"><path d="M2299.829,1006.987a.122.122,0,0,0,.122-.118l.34-9.4a.122.122,0,0,0-.244-.009l-.34,9.4a.122.122,0,0,0,.118.127Z" transform="translate(-2299.707 -997.344)" fill="#a38984"/></g><g transform="translate(33.378 55.746)"><path d="M2310.324,1085.245a.122.122,0,0,0,.122-.122v-7.667a.122.122,0,1,0-.244,0v7.667A.122.122,0,0,0,2310.324,1085.245Z" transform="translate(-2310.202 -1077.334)" fill="#a38984"/></g><g transform="translate(37.082 74.553)"><path d="M2347.653,1278.122h.005a.123.123,0,0,0,.117-.127l-.6-14.032a.122.122,0,0,0-.244.01l.6,14.032A.122.122,0,0,0,2347.653,1278.122Z" transform="translate(-2346.935 -1263.846)" fill="#a38984"/></g><g transform="translate(41.474 0)"><ellipse cx="1.557" cy="3.04" rx="1.557" ry="3.04" transform="matrix(0.707, -0.707, 0.707, 0.707, 0, 2.202)" fill="#7bb281"/></g><g transform="translate(45.365 10.651)"><g transform="translate(0 0)"><ellipse cx="1.016" cy="1.984" rx="1.016" ry="1.984" transform="translate(0 1.857) rotate(-66.062)" fill="#7bb281"/></g></g></g><g transform="translate(-1.739 20.122)"><g transform="translate(0 2.869)"><path d="M1161.115,683.79a8.247,8.247,0,0,1-2.158.735,2.616,2.616,0,0,0-2.077,2.566v.024a2.991,2.991,0,0,1-.111.77,2.89,2.89,0,0,1-2.355,2.189,4.11,4.11,0,0,1-3.223-1.628,13.274,13.274,0,0,0-2.629-2.649,6.34,6.34,0,0,0-5.521-.07c-1.778.692-3.368,1.8-5.121,2.55a6.836,6.836,0,0,1-5.541.307c-1.847-.88-3.055-3.006-5.075-3.328a3.581,3.581,0,0,0-1.6.126,10.13,10.13,0,0,0-3.122,1.857c-1.468,1.139-3.378,2.4-5.285,1.563a5.712,5.712,0,0,1-2.529-2.73,2.831,2.831,0,0,0-1.542-1.393l-.011,0-.044-.018c-1.63-.672-1-1.766-.675-3.024a2.43,2.43,0,0,0-.488-2.565c-1.553-2.229-3.04-4.208-2.226-7,.047-.162.1-.326.165-.493a6.653,6.653,0,0,1,6.8-4.14c2.086.245,4.177,1.5,6.16.806,1.53-.532,2.462-2.073,3.047-3.583a16.271,16.271,0,0,1,1.986-4.408c1.993-2.516,5.875-2.793,8.822-1.52s5.183,3.735,7.343,6.109,4.446,4.805,7.433,5.98c2.409.946,5.08.993,7.551,1.763s4.939,2.668,5.029,5.254C1164.186,679.992,1163.456,682.565,1161.115,683.79Z" transform="translate(-1109.549 -657.982)" fill="#7bb281"/></g><g transform="translate(0 16.95)"><path d="M1125.7,810.941a10.13,10.13,0,0,0-3.122,1.857c-1.468,1.139-3.378,2.4-5.285,1.563a5.713,5.713,0,0,1-2.529-2.73,2.831,2.831,0,0,0-1.542-1.393l-.011,0-.044-.018c-1.63-.672-1-1.766-.675-3.024a2.43,2.43,0,0,0-.488-2.565c-1.553-2.229-3.04-4.208-2.226-7,.444,1.764,1.058,3.294,2.9,4.223.677.343,1.517.646,1.719,1.378.261.95-.775,1.991-.316,2.862.343.652,1.276.7,1.809,1.207,1.169,1.114-.313,3.395.75,4.612a2.173,2.173,0,0,0,2.691.081c.836-.5,1.493-1.277,2.358-1.728a3.368,3.368,0,0,1,3.785.438A2.874,2.874,0,0,1,1125.7,810.941Z" transform="translate(-1109.549 -797.623)" fill="#477d6d"/></g><g transform="translate(18.082 20.375)"><path d="M1302.694,832.129l-.756-.542-5.735,5.247-.2-1.706h-.6l-.631,2.932-5.1-4.621-.8.515,4.371,6.321-2.89,50.65h9.258l-2.664-49.992Z" transform="translate(-1288.869 -831.587)" fill="#8c6c65"/></g><g transform="translate(25.521 42.088)"><path d="M1363.044,1055.426a.108.108,0,0,1-.108-.1l-.3-8.3a.108.108,0,0,1,.216-.008l.3,8.3a.108.108,0,0,1-.1.112Z" transform="translate(-1362.636 -1046.915)" fill="#a38984"/></g><g transform="translate(24.887 49.208)"><path d="M1356.458,1124.508a.108.108,0,0,1-.108-.108v-6.768a.108.108,0,0,1,.216,0v6.768A.108.108,0,0,1,1356.458,1124.508Z" transform="translate(-1356.35 -1117.524)" fill="#a38984"/></g><g transform="translate(21.092 65.81)"><path d="M1318.821,1294.765h0a.108.108,0,0,1-.1-.112l.526-12.386a.108.108,0,1,1,.216.009l-.526,12.386A.108.108,0,0,1,1318.821,1294.765Z" transform="translate(-1318.713 -1282.163)" fill="#a38984"/></g><g transform="translate(12.217 0)"><g transform="translate(0)"><ellipse cx="2.683" cy="1.374" rx="2.683" ry="1.374" transform="translate(0 3.795) rotate(-45)" fill="#7bb281"/></g></g><g transform="translate(10.593 9.402)"><g transform="translate(0 0)"><ellipse cx="1.751" cy="0.897" rx="1.751" ry="0.897" transform="matrix(0.914, -0.406, 0.406, 0.914, 0, 1.421)" fill="#7bb281"/></g></g></g><g transform="translate(-9.522 63.758)"><path d="M1040.387,1098.3a20.013,20.013,0,1,1,23.854.1Z" transform="translate(-1032.367 -1062.262)" fill="#7bb281"/></g><g transform="translate(33.958 87.326)"><path d="M1463.553,1308.18a12.191,12.191,0,0,1,24.381,0Z" transform="translate(-1463.553 -1295.989)" fill="#7bb281"/></g><g transform="translate(-13.585 72.055)"><path d="M992.069,1172.175v-27.632s26.616-.61,26.413,27.835Z" transform="translate(-992.069 -1144.542)" fill="#5b9b6a"/></g><g transform="translate(14.656 76.798)"><path d="M1274.093,1214.677a15.543,15.543,0,1,1,27.515-.637Z" transform="translate(-1272.139 -1191.584)" fill="#5b9b6a"/></g><g transform="translate(90.031 63.766)"><path d="M2051.63,1098.374a20.013,20.013,0,1,0-23.854.1Z" transform="translate(-2019.625 -1062.338)" fill="#7bb281"/></g><g transform="translate(107.706 71.485)"><path d="M2221.323,1166.527V1138.9s-26.616-.61-26.413,27.835Z" transform="translate(-2194.908 -1138.894)" fill="#5b9b6a"/></g><rect width="120.539" height="3.053" fill="#42423f"/><g transform="translate(0 96.057)"><rect width="120.539" height="3.053" fill="#42423f"/></g></g></g><g transform="translate(348.031 133.687)"><g transform="translate(19.131 130.629)"><path d="M961.894,1436.484c.037-1.7.131-4.541.376-7.359l7.465.973-.3,5.824Z" transform="translate(-961.894 -1429.125)" fill="#f7bfa3"/></g><g transform="translate(19.142 137.38)"><path d="M969.583,1496.077c4.833.616,6.4,2.568,6.4,2.568l-13.921.4-.056-2.819Z" transform="translate(-962.006 -1496.077)" fill="#42423f"/></g><g transform="translate(19.198 139.948)"><path d="M976.488,1521.542v.051a1.006,1.006,0,0,1-.986,1.026l-12.158.243a.757.757,0,0,1-.772-.741l-.006-.3Z" transform="translate(-962.567 -1521.542)" fill="#42423f"/></g><g transform="translate(27.599 133.96)"><path d="M1046.408,1465.767a.456.456,0,0,1-.208-.052.557.557,0,0,1-.277-.36,4.973,4.973,0,0,1,.6-2.576,1.323,1.323,0,0,1,.47-.52.671.671,0,0,1,.787.067c.319.315.114.831.047,1-.021.054-.053.152-.094.278-.3.924-.664,1.926-1.146,2.125A.471.471,0,0,1,1046.408,1465.767Zm.953-3.242a.393.393,0,0,0-.188.049,1,1,0,0,0-.334.386h0a4.751,4.751,0,0,0-.568,2.292c.031.107.078.131.094.139a.091.091,0,0,0,.085,0c.368-.152.783-1.423.939-1.9.044-.136.079-.242.1-.3.124-.311.135-.511.035-.609A.232.232,0,0,0,1047.361,1462.525Zm-.679.345h0Z" transform="translate(-1045.879 -1462.163)" fill="#42423f"/></g><g transform="translate(27.553 135.382)"><path d="M1046.014,1478.429a.766.766,0,0,1-.322-.06.452.452,0,0,1-.254-.3.557.557,0,0,1,.076-.448,4.974,4.974,0,0,1,2.3-1.31,1.322,1.322,0,0,1,.7-.009.672.672,0,0,1,.485.623c-.015.448-.532.649-.7.714-.054.021-.148.064-.268.12A5.937,5.937,0,0,1,1046.014,1478.429Zm2.2-1.8a1.457,1.457,0,0,0-.321.044h0a4.752,4.752,0,0,0-2.067,1.142.2.2,0,0,0-.038.163.091.091,0,0,0,.057.064c.361.166,1.576-.393,2.033-.6.13-.06.231-.106.289-.129.313-.121.466-.248.471-.388a.314.314,0,0,0-.233-.266A.627.627,0,0,0,1048.215,1476.626Zm-.361-.133h0Z" transform="translate(-1045.42 -1476.263)" fill="#42423f"/></g><g transform="translate(21.647 53.458)"><path d="M986.846,668.206,989.2,679.25a2.905,2.905,0,0,0,1.017,1.835,3.317,3.317,0,0,0,5.328-1.8l3.688-14.956-3.059-.5-1.141,1.826Z" transform="translate(-986.846 -663.831)" fill="#f7bfa3"/></g><g transform="translate(1.656 134.808)"><path d="M788.6,1470.572v3.929h6.865v-3.754Z" transform="translate(-788.604 -1470.572)" fill="#f7bfa3"/></g><g transform="translate(1.094 76.846)"><path d="M806.261,895.956l7.014,25.718a9.617,9.617,0,0,1,.164,4.357l-4.7,28.334-7.692-.463.806-30.2-5.155-15.416-5.515,44-8.153.824.915-57.346Z" transform="translate(-783.026 -895.766)" fill="#f98968"/></g><g transform="translate(0.392 42.818)"><path d="M793.088,559.647l-5.588-1.14a9.533,9.533,0,0,0-11.417,9.977l1.6,23.855,22.319.19.557-25.356A7.365,7.365,0,0,0,793.088,559.647Z" transform="translate(-776.061 -558.311)" fill="#a0d9f2"/></g><g transform="translate(0 140.204)"><path d="M782.2,1524.077h0a1.065,1.065,0,0,1-1.065,1.065h-7.892a1.065,1.065,0,0,1-1.065-1.065H782.2Z" transform="translate(-772.177 -1524.077)" fill="#33312e"/></g><g transform="translate(0 137.626)"><path d="M782.2,1501.094H772.177s.932-2.331,4.661-2.564A5.843,5.843,0,0,1,782.2,1501.094Z" transform="translate(-772.177 -1498.516)" fill="#42423f"/></g><g transform="translate(18.792 132.761)"><rect width="8.644" height="2.47" rx="1.235" transform="translate(0.113 0) rotate(2.618)" fill="#eb7350"/></g><g transform="translate(0.722 132.298)"><rect width="8.644" height="2.47" rx="1.235" transform="translate(0.113 0) rotate(2.618)" fill="#eb7350"/></g><g transform="translate(14.761 84.947)"><path d="M918.565,980.528l2.1-4.424-.469,9.287Z" transform="translate(-918.565 -976.104)" fill="#eb7350"/></g><g transform="translate(20.103 103.039)"><path d="M973.175,1158.077a.153.153,0,0,1-.062-.013l-1.485-.653a.155.155,0,0,1-.035-.263l1.984-1.593a.155.155,0,0,1,.194.242l-1.785,1.432,1.251.55a.155.155,0,0,1-.062.3Z" transform="translate(-971.535 -1155.522)" fill="#eb7350"/></g><g transform="translate(15.294 44.088)"><path d="M925.967,570.973s9.627-1.607,12.549,11.039l-5.871,2.433-8.8-4.512Z" transform="translate(-923.842 -570.907)" fill="#a0d9f2"/></g><g transform="translate(23.707 55.519)"><path d="M1007.434,684.972a.155.155,0,0,1-.01-.31l6.208-.4a.155.155,0,1,1,.02.31l-6.208.4Z" transform="translate(-1007.279 -684.262)" fill="#68cbf7"/></g><g transform="translate(25.355 56.233)"><path d="M1023.78,698.839a.155.155,0,0,1-.132-.236l4.383-7.182a.155.155,0,0,1,.265.162l-4.383,7.182A.155.155,0,0,1,1023.78,698.839Z" transform="translate(-1023.625 -691.346)" fill="#ed9d8d"/></g><g transform="translate(12.395 30.587)"><path d="M904.386,441.276l.676-2.436-6.588-1.828-.826,2.976c-.451-.164-1.491-.436-1.841.384-.409.958.414,2.5,2.037,1.266l-2.749,7.823s.046,3.236,5.038,3.727l.023-6.25a4.818,4.818,0,0,0,2.644-.1.923.923,0,0,0,.675-.826c.071-1.007.291-2.3.366-2.719h.24a.559.559,0,0,0,.553-.641Z" transform="translate(-895.095 -437.013)" fill="#f7bfa3"/></g><g transform="translate(15.384 38.325)"><path d="M926.807,515.863s-.754.048-2.072-2.11l2.064,4.256Z" transform="translate(-924.735 -513.753)" fill="#ed9d8d"/></g><g transform="translate(13.317 33.646)"><path d="M904.539,468.852a.155.155,0,0,1-.134-.077,1.03,1.03,0,0,1,.27-1.39.155.155,0,0,1,.182.251h0a.72.72,0,0,0-.184.982.155.155,0,0,1-.134.233Z" transform="translate(-904.242 -467.356)" fill="#ed9d8d"/></g><g transform="translate(20.399 33.555)"><path d="M975.449,466.94a.227.227,0,0,1-.09,0h0a3.067,3.067,0,0,0-.648-.03.227.227,0,1,1-.023-.453,3.453,3.453,0,0,1,.756.038.227.227,0,0,1,.005.445Z" transform="translate(-974.472 -466.453)" fill="#42423f"/></g><g transform="translate(13.439 34.04)"><path d="M906.211,471.887a.154.154,0,0,1-.072-.018l-.608-.318a.155.155,0,0,1,.144-.275l.608.318a.155.155,0,0,1-.072.293Z" transform="translate(-905.448 -471.259)" fill="#ed9d8d"/></g><g transform="translate(19.925 36.477)"><path d="M969.777,495.426s.414.9,1.045.863c0,0-.432.439-.72.179A1.4,1.4,0,0,1,969.777,495.426Z" transform="translate(-969.773 -495.426)" fill="#fff"/></g><g transform="translate(20.734 34.404)"><path d="M977.822,475.12c-.061.174-.015.348.1.389s.263-.065.324-.239.015-.348-.1-.389S977.883,474.946,977.822,475.12Z" transform="translate(-977.794 -474.872)" fill="#33312e"/></g><g transform="translate(14.455 28.987)"><path d="M920.739,424.214a12.01,12.01,0,0,0,2.427.916,2.061,2.061,0,0,0,2.414-1.146.666.666,0,0,0-.125-.648c-.275-.3-.659-.172-1-.087a1.461,1.461,0,0,1-.184.034.418.418,0,0,1-.428-.557,1.2,1.2,0,0,0-1.28-1.571c-.694.081-1.278.752-1.967.633a3.97,3.97,0,0,1-.946-.464,2.091,2.091,0,0,0-2.281.5,10.276,10.276,0,0,0-1.838,3.765,1.706,1.706,0,0,1,1.217.769s1.334-2.01,1.617-2.28C918.931,423.531,920.125,423.964,920.739,424.214Z" transform="translate(-915.53 -421.146)" fill="#fdb34a"/></g><g transform="translate(20.727 29.471)"><path d="M977.95,427.607l-.078,0a.155.155,0,0,1,.019-.31,1.048,1.048,0,0,0,1.1-1.168.155.155,0,1,1,.308-.036,1.359,1.359,0,0,1-1.352,1.516Z" transform="translate(-977.725 -425.953)" fill="#eb972f"/></g><g transform="translate(21.652 31.618)"><path d="M987.77,448.122a2.925,2.925,0,0,1-.759-.1.155.155,0,0,1,.081-.3,2.752,2.752,0,0,0,2.32-.448.155.155,0,0,1,.186.248A3.069,3.069,0,0,1,987.77,448.122Z" transform="translate(-986.896 -447.244)" fill="#eb972f"/></g><g transform="translate(20.742 29.171)"><path d="M978.025,424.047a.155.155,0,0,1-.067-.3,1.154,1.154,0,0,0,.592-.673.155.155,0,0,1,.3.1,1.47,1.47,0,0,1-.754.858A.155.155,0,0,1,978.025,424.047Z" transform="translate(-977.87 -422.971)" fill="#eb972f"/></g><g transform="translate(4.864 133.724)"><path d="M820.944,1463.418a.456.456,0,0,1-.209-.052.557.557,0,0,1-.277-.36,4.976,4.976,0,0,1,.6-2.577,1.323,1.323,0,0,1,.47-.52.671.671,0,0,1,.787.067c.319.315.114.831.047,1-.021.054-.053.152-.094.278-.3.924-.664,1.926-1.145,2.125A.473.473,0,0,1,820.944,1463.418Zm.953-3.242a.392.392,0,0,0-.188.049,1,1,0,0,0-.334.386h0a4.751,4.751,0,0,0-.568,2.292c.032.107.078.131.094.139a.092.092,0,0,0,.086,0c.367-.152.783-1.423.939-1.9.044-.136.079-.242.1-.3.124-.311.135-.51.035-.609A.232.232,0,0,0,821.9,1460.176Zm-.679.345h0Z" transform="translate(-820.415 -1459.814)" fill="#42423f"/></g><g transform="translate(4.818 135.145)"><path d="M820.55,1476.081a.767.767,0,0,1-.322-.06.452.452,0,0,1-.254-.3.557.557,0,0,1,.076-.448,4.974,4.974,0,0,1,2.3-1.31,1.322,1.322,0,0,1,.7-.009.671.671,0,0,1,.485.623c-.015.448-.532.649-.7.714-.054.021-.147.064-.268.12A5.944,5.944,0,0,1,820.55,1476.081Zm2.2-1.8a1.465,1.465,0,0,0-.321.044h0a4.75,4.75,0,0,0-2.067,1.142.2.2,0,0,0-.038.163.092.092,0,0,0,.056.064c.361.166,1.576-.394,2.034-.6.13-.06.231-.106.289-.129.312-.121.466-.248.471-.388a.315.315,0,0,0-.233-.266A.625.625,0,0,0,822.751,1474.278Zm-.361-.133h0Z" transform="translate(-819.956 -1473.916)" fill="#42423f"/></g><g transform="translate(2.854 0)"><g transform="translate(69.638 7.108)"><path d="M0,0H12.674a3.457,3.457,0,0,1,3.457,3.457v0a3.457,3.457,0,0,1-3.457,3.457H0a0,0,0,0,1,0,0V0A0,0,0,0,1,0,0Z" transform="matrix(0.714, 0.7, -0.7, 0.714, 4.84, 0)" fill="#42423f"/></g><g transform="translate(69.602 7.09)"><path d="M1492.689,206.034c-1.349,1.377-2.211,2.72-1.924,3s1.613-.607,2.963-1.984,2.211-2.72,1.924-3S1494.039,204.657,1492.689,206.034Z" transform="translate(-1490.71 -203.998)" fill="#33312e"/></g><g transform="translate(62.652 0.354)"><rect width="11.944" height="2.222" transform="matrix(0.714, 0.7, -0.7, 0.714, 1.556, 0)" fill="#33312e"/></g><g transform="translate(62.327 0)"><rect width="0.986" height="2.677" rx="0.493" transform="translate(1.874 0) rotate(44.433)" fill="#42423f"/></g><g transform="translate(12.173 4.926)"><rect width="1.358" height="87.139" transform="matrix(0.784, 0.621, -0.621, 0.784, 54.07, 0)" fill="#33312e"/></g><g transform="translate(54.802 14.415)"><rect width="2.989" height="4.884" rx="1.494" transform="matrix(0.784, 0.621, -0.621, 0.784, 3.03, 0)" fill="#42423f"/></g><g transform="translate(0 71.976)"><rect width="2.989" height="19.554" rx="1.494" transform="matrix(0.784, 0.621, -0.621, 0.784, 12.133, 0)" fill="#42423f"/></g><g transform="translate(65.28 3.087)"><circle cx="1.802" cy="1.802" r="1.802" fill="#42423f"/></g></g><g transform="translate(4.577 55.572)"><path d="M820.591,693.8a3.132,3.132,0,0,0,4.1,1.649l14.647-6.225-.006-.012c1.209-.233,3.641-.881,3.606-2.325-.01-.4.248-1.446.025-1.657-.968-.918-5.051,1.175-5.051,1.175l-10.446.722-1.108-2.336-8.8,2.467Z" transform="translate(-817.564 -684.792)" fill="#f7bfa3"/></g><g transform="translate(27.768 56.366)"><path d="M1047.9,693.523h-.006a.391.391,0,0,1-.32-.156.155.155,0,0,1,.255-.177.092.092,0,0,0,.068.023.592.592,0,0,0,.168-.037l1.6-.5a.155.155,0,1,1,.094.3l-1.6.5A.85.85,0,0,1,1047.9,693.523Z" transform="translate(-1047.547 -692.664)" fill="#ed9d8d"/></g><g transform="translate(27.88 57.186)"><path d="M1048.813,701.806a.155.155,0,0,1-.027-.308,3.736,3.736,0,0,0,1.56-.67.155.155,0,0,1,.184.25,4.045,4.045,0,0,1-1.691.726Z" transform="translate(-1048.658 -700.798)" fill="#ed9d8d"/></g><g transform="translate(27.885 58.061)"><path d="M1048.866,710.357a.155.155,0,0,1-.017-.309,2.505,2.505,0,0,0,1.286-.536.155.155,0,1,1,.2.241,2.818,2.818,0,0,1-1.447.6Z" transform="translate(-1048.711 -709.477)" fill="#ed9d8d"/></g><g transform="translate(15.294 59.472)"><path d="M924.029,725.765a.155.155,0,0,1-.151-.12,1.457,1.457,0,0,1,.656-1.544,1.7,1.7,0,0,1,1.475.094,1.088,1.088,0,0,1,.162-.253,1.53,1.53,0,0,1,1.42-.445,2.769,2.769,0,0,1,1.295.677.155.155,0,1,1-.2.236,2.475,2.475,0,0,0-1.148-.607,1.216,1.216,0,0,0-1.13.342.777.777,0,0,0-.125.2,1.619,1.619,0,0,1,.186.139c.383.337.157.654-.025.909a.155.155,0,0,1-.23.026,1.023,1.023,0,0,1-.295-.924,1.486,1.486,0,0,0-1.226-.128,1.155,1.155,0,0,0-.513,1.208.155.155,0,0,1-.116.186A.16.16,0,0,1,924.029,725.765Zm2.186-1.088a.742.742,0,0,0,.09.365c.1-.171.07-.227-.041-.325Z" transform="translate(-923.843 -723.469)" fill="#ed9d8d"/></g><g transform="translate(0.039 42.689)"><path d="M786.674,570.31l-11.243,3.627-2.1-5.677c-2.742-6.589,2.258-12.152,9.731-11.1,0,0,.628,3.25,1.4,5.817Z" transform="translate(-772.566 -557.033)" fill="#a0d9f2"/></g><g transform="translate(1.876 53.813)"><path d="M790.939,670.871a.155.155,0,0,1-.042-.3l11.39-3.217a.155.155,0,0,1,.084.3l-11.39,3.217A.156.156,0,0,1,790.939,670.871Z" transform="translate(-790.784 -667.344)" fill="#68cbf7"/></g><g transform="translate(11.773 48.48)"><path d="M891.306,622.1a.155.155,0,0,1-.148-.11l-2.219-7.331a.155.155,0,0,1,.3-.09l2.219,7.331a.155.155,0,0,1-.149.2Z" transform="translate(-888.931 -614.46)" fill="#68cbf7"/></g><g transform="translate(4.985 56.13)"><path d="M821.614,693.117l8.654-2.792-7.529,5.223Z" transform="translate(-821.614 -690.326)" fill="#ed9d8d"/></g><g transform="translate(13.691 57.753)"><path d="M908.1,707.561a.155.155,0,0,1-.123-.249l.636-.834a.155.155,0,0,1,.247.188l-.636.834A.155.155,0,0,1,908.1,707.561Z" transform="translate(-907.947 -706.417)" fill="#ed9d8d"/></g><g transform="translate(30.454 50.552)"><path d="M1077.849,637.843a4.323,4.323,0,0,0,.177-1.554,1.3,1.3,0,0,0-2.144-.99,4.224,4.224,0,0,0-.928.974,2.514,2.514,0,0,0-.735,1.943c.146.656.773,1.072,1.349,1.418.406.245,1.283.793,1.725.365C1077.666,639.636,1077.729,638.347,1077.849,637.843Z" transform="translate(-1074.188 -635.003)" fill="#f7bfa3"/></g><g transform="translate(30.153 58.031)"><path d="M1071.649,713.15a.155.155,0,0,1-.095-.278,1.9,1.9,0,0,0,.545-.584.84.84,0,0,0,.1-.477.988.988,0,0,1-.742.009.418.418,0,0,1-.2-.148.323.323,0,0,1-.041-.266.476.476,0,0,1,.244-.292.731.731,0,0,1,.893.254,1.257,1.257,0,0,0,.275-.292,1.687,1.687,0,0,0,.094-1.676.155.155,0,0,1,.275-.143,2.006,2.006,0,0,1-.112,1.993,1.576,1.576,0,0,1-.4.408,1.122,1.122,0,0,1-.112.776,2.215,2.215,0,0,1-.63.685A.155.155,0,0,1,1071.649,713.15Zm.093-1.791a.313.313,0,0,0-.142.033.169.169,0,0,0-.083.094c0,.017.011.029.056.048a.683.683,0,0,0,.508-.01A.47.47,0,0,0,1071.742,711.359Z" transform="translate(-1071.206 -709.173)" fill="#ed9d8d"/></g><g transform="translate(26.292 70.209)"><path d="M1033.067,830.348a.155.155,0,0,1-.046-.3,2.313,2.313,0,0,1,1.317-.01.155.155,0,0,1-.087.3,2,2,0,0,0-1.139.009A.152.152,0,0,1,1033.067,830.348Z" transform="translate(-1032.912 -829.943)" fill="#ed9d8d"/></g><g transform="translate(9.059 64.986)"><path d="M863.146,779.011a.154.154,0,0,1-.1-.039,2.538,2.538,0,0,0-.921-.52.155.155,0,0,1,.093-.3,2.85,2.85,0,0,1,1.034.584.155.155,0,0,1-.1.271Z" transform="translate(-862.013 -778.149)" fill="#ed9d8d"/></g></g><g transform="translate(300.465 196.122)"><g transform="translate(28.23 16.414)"><path d="M582.7,916.7a5.779,5.779,0,0,0-.7,8.587l8.723,9.28a6.687,6.687,0,0,0,2.062,1.488,1.65,1.65,0,0,0,2.782.623,6.691,6.691,0,0,0,2.324-.4l13.681-6.313.008-3.257-14.925.852-1.1-1.819s-7.368-11.236-10.811-10.023a5.61,5.61,0,0,0-1.507.622h0c-.106.063-.211.129-.314.2Q582.812,916.619,582.7,916.7Z" transform="translate(-580.415 -915.626)" fill="#f7bfa3"/></g><g transform="translate(25.652 15.047)"><path d="M570.456,914.689l-10.473,4.194-5.133-11.193S565.7,891.219,570.456,914.689Z" transform="translate(-554.85 -902.074)" fill="#f9ca7d"/></g><g transform="translate(0 34.34)"><path d="M303.145,1095.951a51.449,51.449,0,0,0-2.463,20.777c1.123,11.156.008,45.712.008,45.712l7.819.169,8.768-55.4-5.429-13.813Z" transform="translate(-300.465 -1093.393)" fill="#84cae9"/></g><g transform="translate(5.267 39.311)"><path d="M371.655,1145.224l7.5,28.8a6.814,6.814,0,0,1-.013,3.559l-9.6,29.213-6.972-.019,3.2-30.972L352.7,1142.7Z" transform="translate(-352.698 -1142.697)" fill="#84cae9"/></g><g transform="translate(14.573 46.716)"><path d="M444.986,1231.715l1.67-13.927,4.413-1.663-3.1,3.243Z" transform="translate(-444.986 -1216.125)" fill="#5ea9cc"/></g><g transform="translate(18.524 70.273)"><path d="M486.09,1451.914h-1.772a.155.155,0,0,1-.112-.262l1.772-1.861a.155.155,0,1,1,.225.214l-1.523,1.6h1.41a.155.155,0,1,1,0,.31Z" transform="translate(-484.163 -1449.742)" fill="#5ea9cc"/></g><g transform="translate(1.93 39.017)"><g transform="translate(3.023)"><path d="M349.889,1140.7a.311.311,0,0,1-.3-.405q.048-.149.1-.3a.31.31,0,0,1,.589.194q-.048.146-.1.293A.31.31,0,0,1,349.889,1140.7Z" transform="translate(-349.578 -1139.78)" fill="#5ea9cc"/></g><g transform="translate(0.133 1.79)"><path d="M321.231,1217.625h-.021a.31.31,0,0,1-.289-.331l.041-.623a.31.31,0,0,1,.619.041l-.042.624A.31.31,0,0,1,321.231,1217.625Zm.14-2.183h-.019a.31.31,0,0,1-.291-.328l.037-.623a.31.31,0,0,1,.619.036l-.037.625A.31.31,0,0,1,321.371,1215.442Zm.123-2.184h-.017a.31.31,0,0,1-.293-.326l.032-.623a.31.31,0,0,1,.62.031l-.032.625A.31.31,0,0,1,321.494,1213.259Zm.107-2.185h-.014a.31.31,0,0,1-.3-.324l.028-.624a.31.31,0,1,1,.62.027l-.028.625A.31.31,0,0,1,321.6,1211.074Zm.091-2.185h-.012a.31.31,0,0,1-.3-.322l.023-.624a.31.31,0,0,1,.62.022l-.023.625A.31.31,0,0,1,321.693,1208.889Zm.075-2.186h-.01a.31.31,0,0,1-.3-.32l.018-.624a.31.31,0,1,1,.62.018l-.018.625A.31.31,0,0,1,321.767,1206.7Zm.058-2.186h-.007a.31.31,0,0,1-.3-.317l.014-.624a.31.31,0,1,1,.62.013l-.014.625A.31.31,0,0,1,321.826,1204.517Zm.042-2.187h0a.311.311,0,0,1-.305-.315l.009-.624a.31.31,0,1,1,.621.008l-.009.625A.31.31,0,0,1,321.868,1202.33Zm.026-2.187h0a.31.31,0,0,1-.308-.313l0-.624a.31.31,0,0,1,.621,0l0,.625A.31.31,0,0,1,321.894,1200.143Zm.01-2.187h0a.31.31,0,0,1-.31-.311v-.624a.31.31,0,1,1,.621,0v.625A.31.31,0,0,1,321.9,1197.956Zm-.007-2.187a.31.31,0,0,1-.31-.308l0-.624a.31.31,0,1,1,.62-.005l0,.625a.31.31,0,0,1-.308.312Zm-.023-2.187a.31.31,0,0,1-.31-.306l-.009-.624a.31.31,0,0,1,.62-.01l.01.625a.31.31,0,0,1-.306.315Zm-.039-2.187a.31.31,0,0,1-.31-.3l-.014-.624a.31.31,0,1,1,.62-.015l.014.625a.31.31,0,0,1-.3.317Zm-.055-2.186a.31.31,0,0,1-.31-.3l-.018-.624a.31.31,0,1,1,.62-.018l.018.625a.31.31,0,0,1-.3.319Zm-.065-2.186a.31.31,0,0,1-.31-.3l-.019-.625a.31.31,0,1,1,.62-.019l.019.625a.31.31,0,0,1-.3.32Zm-.067-2.186a.31.31,0,0,1-.31-.3l-.019-.625a.31.31,0,1,1,.62-.018l.019.624a.31.31,0,0,1-.3.319Zm-.062-2.186a.31.31,0,0,1-.31-.3l-.016-.625a.31.31,0,1,1,.62-.015l.016.624a.31.31,0,0,1-.3.318Zm-.049-2.187a.31.31,0,0,1-.31-.3q-.006-.313-.011-.626a.31.31,0,1,1,.62-.01q0,.312.011.624a.31.31,0,0,1-.3.316Zm-.029-2.187a.31.31,0,0,1-.31-.308q0-.313,0-.626a.31.31,0,0,1,.309-.311h0a.31.31,0,0,1,.31.309q0,.312,0,.623a.31.31,0,0,1-.308.313Zm0-2.187h0a.31.31,0,0,1-.308-.313q0-.313.006-.626a.31.31,0,1,1,.62.008q0,.312-.006.623A.31.31,0,0,1,321.508,1176.09Zm.036-2.187h-.008a.31.31,0,0,1-.3-.318q.008-.313.018-.626a.31.31,0,0,1,.62.02q-.01.311-.018.623A.31.31,0,0,1,321.544,1173.9Zm.081-2.185h-.015a.31.31,0,0,1-.295-.325q.015-.313.032-.626a.31.31,0,0,1,.62.034q-.017.311-.032.622A.31.31,0,0,1,321.625,1171.718Zm.133-2.183h-.023a.31.31,0,0,1-.286-.332q.023-.313.049-.625a.31.31,0,0,1,.618.051q-.026.31-.049.62A.31.31,0,0,1,321.758,1169.535Zm.194-2.178-.033,0a.31.31,0,0,1-.276-.341q.033-.312.068-.624a.31.31,0,1,1,.617.07q-.035.309-.068.618A.31.31,0,0,1,321.952,1167.357Zm.263-2.171a.3.3,0,0,1-.043,0,.31.31,0,0,1-.265-.35q.043-.311.09-.622a.31.31,0,0,1,.614.092q-.046.307-.089.615A.31.31,0,0,1,322.216,1165.187Zm.341-2.16a.31.31,0,0,1-.306-.365q.055-.309.114-.618a.31.31,0,0,1,.61.115q-.058.305-.112.611A.31.31,0,0,1,322.557,1163.027Zm.427-2.145a.311.311,0,0,1-.3-.377q.068-.307.14-.613a.31.31,0,0,1,.6.141q-.071.3-.138.606A.31.31,0,0,1,322.983,1160.882Zm.519-2.125a.31.31,0,0,1-.3-.391q.082-.3.168-.607a.31.31,0,1,1,.6.169q-.085.3-.165.6A.31.31,0,0,1,323.5,1158.758Z" transform="translate(-320.921 -1157.534)" fill="#5ea9cc"/></g><g transform="translate(0 62.822)"><path d="M319.915,1763.712h-.023a.31.31,0,0,1-.286-.332l.023-.309a.31.31,0,0,1,.619.045l-.023.31A.31.31,0,0,1,319.915,1763.712Z" transform="translate(-319.605 -1762.783)" fill="#5ea9cc"/></g></g><g transform="translate(15.227 103.141)"><path d="M458.927,1775.714c4.735.713,6.229,2.789,6.229,2.789l-13.686-.037.007-2.772Z" transform="translate(-451.47 -1775.694)" fill="#42423f"/></g><g transform="translate(15.226 105.913)"><path d="M465.149,1803.219v.051a.989.989,0,0,1-.992.986l-11.953-.032a.744.744,0,0,1-.742-.746v-.3Z" transform="translate(-451.462 -1803.182)" fill="#42423f"/></g><g transform="translate(21.758 99.173)"><path d="M516.751,1739.877a.438.438,0,0,1-.2-.048.539.539,0,0,1-.271-.345,4.88,4.88,0,0,1,.565-2.532,1.291,1.291,0,0,1,.453-.513.651.651,0,0,1,.763.057c.312.3.118.807.054.973-.02.053-.051.15-.09.275-.286.909-.631,1.9-1.1,2.094A.452.452,0,0,1,516.751,1739.877Zm.911-3.2a.394.394,0,0,0-.192.052.994.994,0,0,0-.328.386h0a4.682,4.682,0,0,0-.535,2.266c.033.109.082.133.1.141a.1.1,0,0,0,.092,0c.364-.155.76-1.412.909-1.885.042-.134.075-.238.1-.295.12-.311.128-.51.026-.609A.235.235,0,0,0,517.662,1736.681Zm-.667.355h0Z" transform="translate(-516.237 -1736.343)" fill="#42423f"/></g><g transform="translate(21.715 100.558)"><path d="M516.382,1752.206a.736.736,0,0,1-.3-.055.436.436,0,0,1-.247-.282.539.539,0,0,1,.069-.433,4.88,4.88,0,0,1,2.24-1.307h0a1.293,1.293,0,0,1,.684-.016.65.65,0,0,1,.477.6c-.01.435-.512.635-.677.7-.053.021-.145.065-.263.121A5.748,5.748,0,0,1,516.382,1752.206Zm2.165-1.795a1.422,1.422,0,0,0-.326.047h0a4.681,4.681,0,0,0-2.026,1.147.2.2,0,0,0-.037.168.1.1,0,0,0,.061.069c.36.161,1.552-.4,2-.615.127-.06.226-.107.282-.129.31-.124.462-.253.465-.395a.318.318,0,0,0-.238-.268A.612.612,0,0,0,518.547,1750.411Zm-.365-.117h0Z" transform="translate(-515.814 -1750.073)" fill="#42423f"/></g><g transform="translate(0.218 99.173)"><g transform="translate(0.001 3.968)"><path d="M310.09,1775.714c4.735.713,6.229,2.789,6.229,2.789l-13.686-.037.007-2.772Z" transform="translate(-302.633 -1775.694)" fill="#42423f"/></g><g transform="translate(0 6.74)"><path d="M316.313,1803.219v.051a.989.989,0,0,1-.992.986l-11.953-.032a.744.744,0,0,1-.742-.746v-.3Z" transform="translate(-302.626 -1803.182)" fill="#42423f"/></g><g transform="translate(6.532)"><path d="M367.914,1739.877a.438.438,0,0,1-.2-.048.538.538,0,0,1-.271-.345,4.879,4.879,0,0,1,.565-2.531,1.293,1.293,0,0,1,.453-.513.651.651,0,0,1,.763.057c.312.3.118.807.054.973-.02.053-.051.15-.09.275-.286.909-.631,1.9-1.1,2.094A.451.451,0,0,1,367.914,1739.877Zm.911-3.2a.394.394,0,0,0-.192.052.994.994,0,0,0-.328.386h0a4.683,4.683,0,0,0-.535,2.266c.033.109.082.133.1.141a.1.1,0,0,0,.092,0c.364-.155.76-1.412.909-1.885.042-.134.075-.238.1-.295.12-.311.128-.51.026-.609A.235.235,0,0,0,368.825,1736.681Zm-.667.355h0Z" transform="translate(-367.4 -1736.343)" fill="#42423f"/></g><g transform="translate(6.489 1.384)"><path d="M367.545,1752.206a.734.734,0,0,1-.3-.055.435.435,0,0,1-.247-.282.539.539,0,0,1,.069-.433,4.875,4.875,0,0,1,2.24-1.307,1.29,1.29,0,0,1,.684-.016.651.651,0,0,1,.477.6c-.01.435-.512.635-.677.7-.053.021-.145.065-.263.121A5.75,5.75,0,0,1,367.545,1752.206Zm2.165-1.795a1.427,1.427,0,0,0-.325.047h0a4.68,4.68,0,0,0-2.026,1.148.2.2,0,0,0-.037.168.1.1,0,0,0,.061.068c.361.161,1.552-.4,2-.615.127-.06.226-.107.282-.129.309-.124.461-.253.465-.395a.319.319,0,0,0-.238-.268A.617.617,0,0,0,369.711,1750.411Zm-.365-.118h0Z" transform="translate(-366.978 -1750.073)" fill="#42423f"/></g></g><g transform="translate(2.681 7.922)"><path d="M361.811,848.713l-12.149,20.694-22.613-9.014,7.989-22.284a10.1,10.1,0,0,1,14.3-5.477l3.733,2.014,4.782,2.581a9.659,9.659,0,0,1,3.412,2.909v0a10.643,10.643,0,0,1,1.3,2.265A7.163,7.163,0,0,1,361.811,848.713Z" transform="translate(-327.049 -831.417)" fill="#f9ca7d"/></g><g transform="translate(35.563 10.537)"><g transform="translate(14.881 22.74)"><rect width="2.566" height="6.536" fill="#33312e"/></g><g transform="translate(13.584 27.924)"><path d="M1.39,0H3.732a1.39,1.39,0,0,1,1.39,1.39v0a0,0,0,0,1,0,0H0a0,0,0,0,1,0,0v0A1.39,1.39,0,0,1,1.39,0Z" fill="#42423f"/></g><g transform="translate(7.249 20.134)"><rect width="7.065" height="1.237" transform="translate(6.548 1.025) rotate(145.986)" fill="#33312e"/></g><g transform="translate(1.027 22.982)"><rect width="8.75" height="1.913" rx="0.956" transform="matrix(0.829, -0.559, 0.559, 0.829, 0, 4.895)" fill="#42423f"/></g><g transform="translate(1.438 13.389)"><rect width="5.872" height="1.237" transform="translate(5.872 1.237) rotate(180)" fill="#33312e"/></g><g transform="translate(4.812 8.627)"><rect width="21.903" height="12.718" rx="6.359" fill="#42423f"/></g><g transform="translate(13.008 17.529)"><circle cx="3.321" cy="3.321" r="3.321" fill="#42423f"/></g><g transform="translate(14.853 19.374)"><circle cx="1.476" cy="1.476" r="1.476" fill="#33312e"/></g><g transform="translate(13.708 0)"><circle cx="4.451" cy="4.451" r="4.451" transform="translate(0 6.295) rotate(-45)" fill="#42423f"/></g><g transform="translate(16.601 2.893)"><circle cx="2.405" cy="2.405" r="2.405" transform="translate(0 3.402) rotate(-45)" fill="#33312e"/></g><g transform="translate(19.019 5.312)"><circle cx="0.983" cy="0.983" r="0.983" fill="#fff"/></g><g transform="translate(8.116 1.753)"><circle cx="4.451" cy="4.451" r="4.451" fill="#42423f"/></g><g transform="translate(10.161 3.799)"><circle cx="2.405" cy="2.405" r="2.405" fill="#33312e"/></g><g transform="translate(11.584 5.221)"><circle cx="0.983" cy="0.983" r="0.983" fill="#fff"/></g><g transform="translate(25.514 10.143)"><path d="M913.086,967.111l-6.924-1.551v-6.076l6.924-1.551Z" transform="translate(-906.161 -957.932)" fill="#42423f"/></g><g transform="translate(0 13.051)"><rect width="2.91" height="1.913" rx="0.956" fill="#42423f"/></g><g transform="translate(7.364 12.855)"><rect width="6.967" height="3.736" rx="1.868" fill="#33312e"/></g><g transform="translate(16.249 14.9)"><circle cx="0.631" cy="0.631" r="0.631" fill="#33312e"/></g><g transform="translate(8.07 14.112)"><circle cx="0.631" cy="0.631" r="0.631" fill="#fff"/></g><g transform="translate(18.899 14.9)"><circle cx="0.631" cy="0.631" r="0.631" fill="#33312e"/></g><g transform="translate(16.249 12.881)"><circle cx="0.631" cy="0.631" r="0.631" fill="#33312e"/></g><g transform="translate(18.899 12.881)"><circle cx="0.631" cy="0.631" r="0.631" fill="#33312e"/></g><g transform="translate(6.627 29.28)"><path d="M1.572,0h16.5a1.572,1.572,0,0,1,1.572,1.572v0a0,0,0,0,1,0,0H0a0,0,0,0,1,0,0v0A1.572,1.572,0,0,1,1.572,0Z" fill="#42423f"/></g></g><g transform="translate(40.293 7.105)"><path d="M700.528,823.781c-.126.153-.312.208-.416.122s-.086-.279.04-.432.313-.208.417-.122S700.654,823.628,700.528,823.781Z" transform="translate(-700.043 -823.309)" fill="#42423f"/></g><g transform="translate(40.768 6.167)"><path d="M705.467,814.922a.235.235,0,0,1-.077-.055h0a3.192,3.192,0,0,0-.528-.426.237.237,0,0,1,.26-.4,3.6,3.6,0,0,1,.615.5.237.237,0,0,1-.27.378Z" transform="translate(-704.755 -814.006)" fill="#42423f"/></g><g transform="translate(28.343 1.8)"><path d="M594.071,775.189l-1.286,2.421s-.136.2-.336.5c-.075.112-.157.24-.246.378a2.431,2.431,0,0,1-4.552,1.161h-.022l-.128.285-2.55,5.678c-4.561-2.591-3.229-5.7-3.229-5.7l4.862-5.154,1.09-1.154c-.063.015-.122.028-.18.036-1.9.345-2-1.39-1.229-2.111.681-.634,1.561.068,1.922.417l1.564-.887a2.742,2.742,0,0,1,3.118.286l.547.46A2.743,2.743,0,0,1,594.071,775.189Z" transform="translate(-581.541 -770.702)" fill="#f7bfa3"/></g><g transform="translate(33.382 7.78)"><path d="M632.591,832.9s-.741-.275-1.083-2.9l.164,4.944Z" transform="translate(-631.508 -829.999)" fill="#ed9d8d"/></g><g transform="translate(32.943 2.643)"><path d="M627.326,780.415a.158.158,0,0,1-.157-.141,1.073,1.073,0,0,1,.845-1.209.158.158,0,0,1,.065.31.757.757,0,0,0-.6.865.158.158,0,0,1-.14.175Z" transform="translate(-627.16 -779.062)" fill="#ed9d8d"/></g><g transform="translate(38.534 5.778)"><path d="M683.085,810.627c-.126.153-.312.207-.416.122s-.086-.279.04-.432.313-.208.416-.122S683.211,810.474,683.085,810.627Z" transform="translate(-682.601 -810.154)" fill="#42423f"/></g><g transform="translate(39.04 4.805)"><path d="M688.338,801.416a.237.237,0,0,1-.077-.055h0a3.2,3.2,0,0,0-.528-.426.237.237,0,1,1,.26-.4,3.6,3.6,0,0,1,.615.5.237.237,0,0,1-.27.378Z" transform="translate(-687.626 -800.5)" fill="#42423f"/></g><g transform="translate(33.268 2.915)"><path d="M630.99,782.632a.158.158,0,0,1-.124-.06l-.446-.562a.158.158,0,0,1,.248-.2l.446.562a.158.158,0,0,1-.124.257Z" transform="translate(-630.385 -781.753)" fill="#ed9d8d"/></g><g transform="translate(15.859 8.99)"><path d="M463.516,842a5.779,5.779,0,0,0-5.748,6.418l1.341,12.665a6.692,6.692,0,0,0,.743,2.431,1.65,1.65,0,0,0,1.84,2.178,6.693,6.693,0,0,0,2.094,1.085l14.715,3.239,1.974-2.591-12.406-8.342.226-2.111s.92-13.4-2.556-14.519a5.607,5.607,0,0,0-1.577-.415h0c-.122-.014-.246-.025-.37-.031Q463.653,842,463.516,842Z" transform="translate(-457.736 -842)" fill="#f7bfa3"/></g><g transform="translate(24.739 25.916)"><path d="M545.957,1010.615a.158.158,0,0,1-.051-.308l1.3-.441a.158.158,0,0,1,.1.3l-1.3.441A.156.156,0,0,1,545.957,1010.615Z" transform="translate(-545.798 -1009.858)" fill="#ed9d8d"/></g><g transform="translate(27.861 30.322)"><path d="M580.391,1056.911a.156.156,0,0,1-.089-.027.158.158,0,0,1-.042-.22l.749-1.1c.077-.113.16-.255.12-.345a.208.208,0,0,0-.2-.091.833.833,0,0,0-.326.114,6.887,6.887,0,0,0-.96.6,3.223,3.223,0,0,1-.629.532.158.158,0,0,1-.2-.244,7.2,7.2,0,0,1,.607-.517,1.031,1.031,0,0,0,.15-.246.684.684,0,0,0-.011-.535.387.387,0,0,0-.233-.216.584.584,0,0,0-.386.048,1.148,1.148,0,0,0-.2.117,2.4,2.4,0,0,1-.728.878.158.158,0,0,1-.237-.2,3.446,3.446,0,0,1,.7-.868.677.677,0,0,0-.078-.536.38.38,0,0,0-.264-.182.708.708,0,0,0-.543.27,1.906,1.906,0,0,0-.508,1.14.158.158,0,0,1-.315-.027,2.223,2.223,0,0,1,.593-1.33.972.972,0,0,1,.816-.367.692.692,0,0,1,.486.323.987.987,0,0,1,.153.5l0,0a.879.879,0,0,1,.6-.062.7.7,0,0,1,.429.384,1,1,0,0,1,.079.566q.259-.164.532-.306a1.09,1.09,0,0,1,.458-.149.515.515,0,0,1,.5.278.7.7,0,0,1-.147.652l-.749,1.1A.158.158,0,0,1,580.391,1056.911Z" transform="translate(-576.763 -1053.551)" fill="#ed9d8d"/></g><g transform="translate(14.573 8.711)"><path d="M446.656,854.7l11.205-1.312-.831-12.285S439.632,831.808,446.656,854.7Z" transform="translate(-444.986 -839.238)" fill="#f9ca7d"/></g><g transform="translate(36.625 34.34)"><path d="M663.675,1096.06s2.751,3.37,4.42,2.064a3.3,3.3,0,0,0,.768-1.55c.172-1.467-1.5-2.115-1.5-2.115l.8-.047a.51.51,0,0,0,.469-.619h0a.51.51,0,0,0-.514-.4l-2.467.077Z" transform="translate(-663.675 -1093.392)" fill="#f7bfa3"/></g><g transform="translate(14.416 10.99)"><path d="M445.251,875.174a.155.155,0,0,1-.141-.089c-.031-.067-3.12-6.806-.862-13.148a.155.155,0,1,1,.292.1c-2.214,6.22.82,12.846.851,12.913a.155.155,0,0,1-.141.221Z" transform="translate(-443.423 -861.833)" fill="#e4b568"/></g><g transform="translate(16.813 22.978)"><path d="M476.856,980.722l-9.658,1.13.293,2.764Z" transform="translate(-467.198 -980.722)" fill="#ed9d8d"/></g><g transform="translate(26.743 14.564)"><path d="M566.378,905.732a.155.155,0,0,1-.155-.145l-.551-8.145a.155.155,0,1,1,.31-.021l.551,8.145a.155.155,0,0,1-.144.165Z" transform="translate(-565.672 -897.276)" fill="#e4b568"/></g><g transform="translate(34.989)"><path d="M650.6,756a.764.764,0,0,0,.793.316.49.49,0,0,0,.276-.721l1.722,2.245a1.918,1.918,0,0,0,.669.629.658.658,0,0,0,.827-.182.946.946,0,0,0-.036-.792,17.718,17.718,0,0,0-1.067-2.394,5.961,5.961,0,0,0-1.033-1.473,2.581,2.581,0,0,0-1.589-.776,2.68,2.68,0,0,0-1.807.649,7.958,7.958,0,0,0-1.31,1.457c-.243.32-.6.932-.6.932a2.273,2.273,0,0,1,.524,1.781c.335-.4,1.051-1.345,1.41-1.69.151-.145.561-.636.789-.623C650.451,755.377,650.446,755.792,650.6,756Z" transform="translate(-647.446 -752.85)" fill="#a06340"/></g><g transform="translate(38.705 6.264)"><path d="M685.032,816.71a.761.761,0,0,1-.256-.046,1.52,1.52,0,0,1-.412-.248.158.158,0,0,1,.193-.251,1.259,1.259,0,0,0,.325.2.354.354,0,0,0,.288-.006.655.655,0,0,0,.217-.409l.232-.865a.158.158,0,0,1,.306.082l-.232.865a.924.924,0,0,1-.365.6A.594.594,0,0,1,685.032,816.71Z" transform="translate(-684.303 -814.969)" fill="#ed9d8d"/></g><g transform="translate(33.19 3.206)"><path d="M635.421,791.029a2.431,2.431,0,0,1-4.552,1.161h-.022l-.128.285a7.112,7.112,0,0,1-1.113-4.056,2.424,2.424,0,0,1,.543-1.547l1.809-2.225.778.585-1.391,2.23a.2.2,0,0,0,.082.288,26.322,26.322,0,0,1,4.174,2.81l.065.09C635.592,790.763,635.51,790.891,635.421,791.029Z" transform="translate(-629.605 -784.648)" fill="#a06340"/></g><g transform="translate(39.735 1.79)"><path d="M695.544,772.447a.155.155,0,0,1-.149-.112,3.568,3.568,0,0,0-.843-1.473.155.155,0,0,1,.225-.214,3.878,3.878,0,0,1,.917,1.6.155.155,0,0,1-.106.192A.158.158,0,0,1,695.544,772.447Z" transform="translate(-694.51 -770.599)" fill="#985b33"/></g><g transform="translate(40.919 2.58)"><path d="M706.894,779.614a.155.155,0,0,1-.144-.1,3.7,3.7,0,0,0-.465-.829.155.155,0,0,1,.249-.185,4.02,4.02,0,0,1,.5.9.155.155,0,0,1-.086.2A.153.153,0,0,1,706.894,779.614Z" transform="translate(-706.255 -778.44)" fill="#985b33"/></g><g transform="translate(37.672 8.204)"><path d="M675.173,835.2a1.261,1.261,0,0,1-.933-1S673.434,835.51,675.173,835.2Z" transform="translate(-674.053 -834.205)" fill="#fff"/></g><g transform="translate(34.381 25.639)"><path d="M641.414,1011.858l2.122-4.746-.373,4.066Z" transform="translate(-641.414 -1007.112)" fill="#e4b568"/></g><g transform="translate(52.834 39.954)"><path d="M839.963,1214.969a.931.931,0,0,1-.907-.724l-14.62-64.032a.931.931,0,0,1,1.815-.414l14.62,64.032a.932.932,0,0,1-.908,1.138Z" transform="translate(-824.413 -1149.074)" fill="#42423f"/></g><g transform="translate(33.8 39.954)"><path d="M636.593,1214.969a.932.932,0,0,1-.908-1.138L650.3,1149.8a.931.931,0,1,1,1.815.414l-14.62,64.032A.931.931,0,0,1,636.593,1214.969Z" transform="translate(-635.661 -1149.074)" fill="#42423f"/></g><g transform="translate(50.765 39.265)"><path d="M804.83,1207.406a.931.931,0,0,1-.931-.931v-63.307a.931.931,0,0,1,1.862,0v63.307A.931.931,0,0,1,804.83,1207.406Z" transform="translate(-803.899 -1142.238)" fill="#42423f"/></g><g transform="translate(38.076 76.228)"><path d="M704.648,1521.557a.926.926,0,0,1-.6-.218l-12.371-10.4-12.091,9.988a.931.931,0,0,1-1.186-1.435l12.689-10.482a.931.931,0,0,1,1.192.005l12.965,10.9a.931.931,0,0,1-.6,1.643Z" transform="translate(-678.064 -1508.8)" fill="#42423f"/></g></g><g transform="translate(509.716 211.119)"><g transform="translate(5.69 59.739)"><path d="M2433.326,1530.015a1.3,1.3,0,0,1-1.075-2.035l22.743-33.409a1.3,1.3,0,1,1,2.153,1.465l-22.743,33.41A1.3,1.3,0,0,1,2433.326,1530.015Z" transform="translate(-2432.025 -1494.001)" fill="#a06340"/></g><g transform="translate(0.79 43.732)"><path d="M0,0H25.369A2.133,2.133,0,0,1,27.5,2.133v0A2.367,2.367,0,0,1,25.136,4.5H0a0,0,0,0,1,0,0V0A0,0,0,0,1,0,0Z" transform="translate(27.503 4.5) rotate(180)" fill="#a06340"/></g><g transform="translate(27.704 59.739)"><path d="M2651.635,1530.015a1.3,1.3,0,0,1-1.075-2.035l22.743-33.409a1.3,1.3,0,1,1,2.153,1.465l-22.743,33.41A1.3,1.3,0,0,1,2651.635,1530.015Z" transform="translate(-2650.334 -1494.001)" fill="#a06340"/></g><g transform="translate(27.704 59.739)"><path d="M2674.381,1530.015a1.3,1.3,0,0,1-1.077-.569l-22.743-33.41a1.3,1.3,0,1,1,2.153-1.465l22.743,33.409a1.3,1.3,0,0,1-1.075,2.035Z" transform="translate(-2650.334 -1494.001)" fill="#a06340"/></g><g transform="translate(9.423 86.509)"><path d="M2476.879,1766.842c-.037-1.7-.131-4.541-.376-7.359l-7.465.973.3,5.824Z" transform="translate(-2469.037 -1759.483)" fill="#f7bfa3"/></g><g transform="translate(3.276 93.261)"><path d="M2414.477,1826.435c-4.833.616-6.4,2.568-6.4,2.568l13.921.4.057-2.819Z" transform="translate(-2408.077 -1826.435)" fill="#faa7a9"/></g><g transform="translate(3.274 95.828)"><path d="M2408.065,1851.9v.051a1.007,1.007,0,0,0,.986,1.026l12.158.243a.757.757,0,0,0,.772-.741l.006-.3Z" transform="translate(-2408.064 -1851.9)" fill="#42423f"/></g><g transform="translate(6.72 89.841)"><path d="M2443.779,1796.125a.468.468,0,0,1-.18-.037c-.482-.2-.844-1.2-1.146-2.125-.041-.126-.073-.225-.094-.278-.068-.17-.272-.686.047-1a.671.671,0,0,1,.787-.067,1.322,1.322,0,0,1,.47.52,4.977,4.977,0,0,1,.6,2.577.557.557,0,0,1-.277.36A.455.455,0,0,1,2443.779,1796.125Zm-.953-3.242a.232.232,0,0,0-.166.059c-.1.1-.088.3.035.609.023.058.058.164.1.3.156.479.572,1.75.939,1.9a.091.091,0,0,0,.085,0c.015-.008.062-.032.094-.139a4.753,4.753,0,0,0-.568-2.292h0a1,1,0,0,0-.334-.386A.393.393,0,0,0,2442.826,1792.884Z" transform="translate(-2442.231 -1792.522)" fill="#42423f"/></g><g transform="translate(5.262 91.263)"><path d="M2430.758,1808.788a5.935,5.935,0,0,1-2.015-.664c-.121-.056-.215-.1-.269-.12-.17-.066-.688-.267-.7-.715a.672.672,0,0,1,.485-.623,1.325,1.325,0,0,1,.7.009,4.973,4.973,0,0,1,2.3,1.31.557.557,0,0,1,.076.448.453.453,0,0,1-.254.3A.767.767,0,0,1,2430.758,1808.788Zm-2.2-1.8a.625.625,0,0,0-.19.027.314.314,0,0,0-.233.266c0,.14.159.267.471.388.058.022.159.069.289.129.457.211,1.672.771,2.033.6a.092.092,0,0,0,.056-.064.2.2,0,0,0-.038-.163,4.752,4.752,0,0,0-2.067-1.142h0A1.464,1.464,0,0,0,2428.558,1806.985Z" transform="translate(-2427.772 -1806.622)" fill="#42423f"/></g><g transform="translate(5.69 59.739)"><path d="M2456.072,1530.015a1.3,1.3,0,0,1-1.077-.569l-22.743-33.41a1.3,1.3,0,0,1,2.153-1.465l22.743,33.409a1.3,1.3,0,0,1-1.075,2.035Z" transform="translate(-2432.025 -1494.001)" fill="#a06340"/></g><g transform="translate(0.79 43.754)"><rect width="5.506" height="4.479" rx="2.239" transform="translate(5.506 4.479) rotate(180)" fill="#985b33"/></g><g transform="translate(52.916 31.446)"><rect width="3.02" height="30.761" fill="#a06340"/></g><g transform="translate(16.785 18.191)"><path d="M0,0H39.15a0,0,0,0,1,0,0V1.757A16.747,16.747,0,0,1,22.4,18.5H16.747A16.747,16.747,0,0,1,0,1.757V0A0,0,0,0,1,0,0Z" transform="translate(39.15 18.504) rotate(180)" fill="#faa7a9"/></g><g transform="translate(2.666 19.834)"><path d="M2422.465,1098.341a5.668,5.668,0,0,1,4.549,7.121l-3.3,12.047a6.564,6.564,0,0,1-1.1,2.236,1.618,1.618,0,0,1-2.126,1.817,6.566,6.566,0,0,1-2.2.719l-14.756.81-1.5-2.819,13.326-6.114.115-2.079s1.227-13.121,4.768-13.65a5.5,5.5,0,0,1,1.592-.153h0c.121.006.242.015.364.029C2422.289,1098.316,2422.377,1098.328,2422.465,1098.341Z" transform="translate(-2402.031 -1098.27)" fill="#84cae9"/></g><g transform="translate(7.139 59.719)"><rect width="48.797" height="5.314" rx="2.657" transform="translate(48.797 5.314) rotate(180)" fill="#faa7a9"/></g><g transform="translate(17.878 15.013)"><path d="M2552.92,1059.415l1.981,23.451,23.821,1.6,2.373-23.1a9.9,9.9,0,0,0-10.327-10.9l-4.156.2-5.323.257a9.473,9.473,0,0,0-4.25,1.128h0a10.441,10.441,0,0,0-2.111,1.452A7.026,7.026,0,0,0,2552.92,1059.415Z" transform="translate(-2552.887 -1050.463)" fill="#84cae9"/></g><g transform="translate(24.702 1.906)"><path d="M2622.73,930.281a2.384,2.384,0,0,1-1.725-3.764c.036-.594.05-1.032.05-1.033l.387-2.661a2.689,2.689,0,0,1,2.48-2.3l.7-.047a2.689,2.689,0,0,1,2.633,1.58l.723,1.608c.488-.066,1.59-.112,1.761.786.2,1.049-.959,2.413-2.318.825l1.051,8.44s-.751,3.233-5.861,2.638l1.338-6.269-.016-.013A2.387,2.387,0,0,1,2622.73,930.281Z" transform="translate(-2620.559 -920.476)" fill="#f7bfa3"/></g><g transform="translate(27.649 9.778)"><path d="M2650.241,1000.212s.745.212,2.536-1.664l-3,3.816Z" transform="translate(-2649.782 -998.548)" fill="#ed9d8d"/></g><g transform="translate(32.99 5.426)"><path d="M2702.909,956.931a.155.155,0,0,1-.114-.26.747.747,0,0,0,.03-1.029.155.155,0,0,1,.231-.207,1.052,1.052,0,0,1-.032,1.446A.155.155,0,0,1,2702.909,956.931Z" transform="translate(-2702.754 -955.383)" fill="#ed9d8d"/></g><g transform="translate(27.071 4.936)"><path d="M2644.058,950.895c.011.194.127.345.259.338s.23-.171.219-.365-.127-.345-.259-.338S2644.047,950.7,2644.058,950.895Z" transform="translate(-2644.057 -950.529)" fill="#42423f"/></g><g transform="translate(24.911 4.966)"><path d="M2622.635,951.187c.011.194.127.345.259.338s.23-.171.219-.365-.127-.345-.259-.338S2622.624,950.992,2622.635,951.187Z" transform="translate(-2622.634 -950.821)" fill="#42423f"/></g><g transform="translate(26.619 3.92)"><path d="M2639.786,941.03a.23.23,0,0,0,.092-.01h0a3.133,3.133,0,0,1,.656-.109.233.233,0,0,0-.031-.464,3.551,3.551,0,0,0-.766.129.233.233,0,0,0,.048.453Z" transform="translate(-2639.575 -940.446)" fill="#42423f"/></g><g transform="translate(24.46 4.019)"><path d="M2618.315,941.888a.232.232,0,0,0,.091.015h0a3.141,3.141,0,0,1,.662.065.233.233,0,0,0,.091-.457,3.547,3.547,0,0,0-.773-.074.233.233,0,0,0-.071.45Z" transform="translate(-2618.164 -941.437)" fill="#42423f"/></g><g transform="translate(32.504 5.874)"><path d="M2698.087,960.324a.155.155,0,0,1-.041-.3l.679-.186a.155.155,0,0,1,.082.3l-.679.186A.154.154,0,0,1,2698.087,960.324Z" transform="translate(-2697.932 -959.827)" fill="#ed9d8d"/></g><g transform="translate(23.944 77.486)"><path d="M2623.133,1675.806c-1.01-1.372-2.719-3.639-4.541-5.8l-5.547,5.09,3.594,4.592Z" transform="translate(-2613.045 -1670.003)" fill="#f7bfa3"/></g><g transform="translate(0 41.836)"><path d="M2378.263,1316.462s-3.618,3.054-2.43,4.758c.25.358.525.738.86.743.6.009,1.724-1.255,2.373-2.05a.111.111,0,0,1,.188.113l-.314.762a.49.49,0,0,0,.274.632.5.5,0,0,0,.248.022l.1-.016a.5.5,0,0,0,.4-.355l.734-2.536Z" transform="translate(-2375.593 -1316.462)" fill="#f7bfa3"/></g><g transform="translate(0.751 45.07)"><path d="M2383.192,1350.618l-.024,0a.155.155,0,0,1-.13-.177,4.367,4.367,0,0,1,.741-1.841.155.155,0,1,1,.254.179,4.053,4.053,0,0,0-.688,1.709A.155.155,0,0,1,2383.192,1350.618Z" transform="translate(-2383.037 -1348.533)" fill="#ed9d8d"/></g><g transform="translate(0.052 44.478)"><path d="M2376.262,1344.456h-.017a.155.155,0,0,1-.137-.171,3.037,3.037,0,0,1,.648-1.56.155.155,0,1,1,.241.195,2.725,2.725,0,0,0-.581,1.4A.155.155,0,0,1,2376.262,1344.456Z" transform="translate(-2376.107 -1342.666)" fill="#ed9d8d"/></g><g transform="translate(4.751 46.122)"><path d="M2461.672,1361.853l-.036,3.031a7.786,7.786,0,0,1-7.779,7.693l-17.518.014s-.169,16.466-.6,31.8l-9.871-.318-3.13-36.839a7.624,7.624,0,0,1,8.3-8.237Z" transform="translate(-2422.711 -1358.965)" fill="#f98968"/></g><g transform="translate(2.537 45.157)"><path d="M2408.747,1349.477l11.793,1.779-4.062,6.549s8.36,14.187,15.911,27.54l-8.616,4.826-21.707-29.928q-.116-.16-.223-.324C2398.638,1355,2402.939,1348.6,2408.747,1349.477Z" transform="translate(-2400.749 -1349.396)" fill="#f98968"/></g><g transform="translate(14.381 46.862)"><path d="M2525.868,1379.607a.155.155,0,0,1-.124-.061l-7.5-9.82a.155.155,0,0,1,.052-.232l6.148-3.173a.155.155,0,1,1,.142.276l-5.984,3.088,7.39,9.673a.155.155,0,0,1-.123.249Z" transform="translate(-2518.211 -1366.304)" fill="#eb7350"/></g><g transform="translate(13.163 49.453)"><path d="M2506.429,1393.476a.155.155,0,0,1-.074-.291l.807-.441-.945-.452a.155.155,0,0,1,.134-.28l1.219.583a.155.155,0,0,1,.008.276l-1.074.586A.157.157,0,0,1,2506.429,1393.476Z" transform="translate(-2506.128 -1391.996)" fill="#eb7350"/></g><g transform="translate(5.057 57.664)"><path d="M2438.829,1491.466l-13.084-18.04,12.987,23.09Z" transform="translate(-2425.746 -1473.426)" fill="#eb7350"/></g><g transform="translate(30.635 48.083)"><path d="M2682.636,1381.906h-.006a3.407,3.407,0,0,1-2.76-1.151,2.823,2.823,0,0,1-.4-2.226.155.155,0,0,1,.3.079,2.551,2.551,0,0,0,.347,1.964,3.125,3.125,0,0,0,2.521,1.023.155.155,0,0,1-.006.31Z" transform="translate(-2679.396 -1378.414)" fill="#eb7350"/></g><g transform="translate(19.228 48.083)"><path d="M2572.815,1387.485a49.356,49.356,0,0,1-6.4-.466.155.155,0,0,1,.045-.307c.107.016,10.717,1.537,13.086-1.076s1.244-6.984,1.232-7.028a.155.155,0,0,1,.3-.079c.049.186,1.178,4.58-1.3,7.316C2578.6,1387.137,2575.648,1387.485,2572.815,1387.485Z" transform="translate(-2566.279 -1378.413)" fill="#eb7350"/></g><g transform="translate(10.927 67.032)"><path d="M2485.185,1590.321a.155.155,0,0,1-.155-.148l-1.072-23.683a.155.155,0,0,1,.31-.014l1.072,23.683a.155.155,0,0,1-.148.162Z" transform="translate(-2483.957 -1566.328)" fill="#eb7350"/></g><g transform="translate(28.142 43.822)"><path d="M0,0H25.369A2.133,2.133,0,0,1,27.5,2.133v0A2.367,2.367,0,0,1,25.136,4.5H0a0,0,0,0,1,0,0V0A0,0,0,0,1,0,0Z" transform="translate(27.503 4.5) rotate(180)" fill="#a06340"/></g><g transform="translate(28.142 43.843)"><rect width="5.506" height="4.479" rx="2.239" transform="translate(5.506 4.479) rotate(180)" fill="#985b33"/></g><g transform="translate(15.837 35.568)"><path d="M2534.164,1255.262a.154.154,0,0,1-.067-.015l-1.36-.654a.155.155,0,0,1,.134-.28l1.36.654a.155.155,0,0,1-.068.295Z" transform="translate(-2532.649 -1254.297)" fill="#5ea9cc"/></g><g transform="translate(23.716 82.923)"><path d="M2614.544,1728.151c-3.6,3.284-3.759,5.782-3.759,5.782l11.62-7.678-1.576-2.339Z" transform="translate(-2610.786 -1723.916)" fill="#faa7a9"/></g><g transform="translate(23.716 85.16)"><path d="M2610.786,1753.879l.029.042a1.006,1.006,0,0,0,1.4.272l10.085-6.794a.757.757,0,0,0,.2-1.051l-.168-.249Z" transform="translate(-2610.786 -1746.099)" fill="#42423f"/></g><g transform="translate(23.316 85.582)"><path d="M2609.629,1752.908a4.661,4.661,0,0,1-2.027-1.093c-.106-.08-.189-.142-.237-.173-.153-.1-.617-.4-.538-.845a.672.672,0,0,1,.6-.508,1.322,1.322,0,0,1,.684.156c.278.128,1.725,1.026,1.975,1.761a.558.558,0,0,1-.019.454.453.453,0,0,1-.31.236A.6.6,0,0,1,2609.629,1752.908Zm-2.11-2.261-.051,0a.314.314,0,0,0-.283.211c-.025.138.1.294.379.478.052.034.141.1.256.186.4.3,1.475,1.1,1.862,1.016a.092.092,0,0,0,.069-.051.2.2,0,0,0,0-.168,4.754,4.754,0,0,0-1.783-1.549h0A1.1,1.1,0,0,0,2607.519,1750.647Z" transform="translate(-2606.819 -1750.284)" fill="#42423f"/></g><g transform="translate(22.987 87.061)"><path d="M2604.231,1766.744a.617.617,0,0,1-.523-1.03,1.321,1.321,0,0,1,.578-.4,4.976,4.976,0,0,1,2.634-.251.558.558,0,0,1,.32.323.454.454,0,0,1-.038.387c-.262.451-1.3.675-2.259.85-.131.024-.232.042-.288.056A1.763,1.763,0,0,1,2604.231,1766.744Zm2.026-1.424a6.3,6.3,0,0,0-1.833.333h0a1,1,0,0,0-.427.279.314.314,0,0,0-.038.351c.084.112.283.127.609.047.06-.015.17-.035.31-.061.5-.091,1.812-.332,2.011-.675a.091.091,0,0,0,.009-.085c-.006-.016-.023-.066-.125-.112A1.338,1.338,0,0,0,2606.257,1765.32Zm-1.9.166h0Z" transform="translate(-2603.557 -1764.956)" fill="#42423f"/></g><g transform="translate(25.472 4.476)"><path d="M2628.841,948.7a.586.586,0,0,1-.149-.019.688.688,0,0,1-.464-.507,1.382,1.382,0,0,1,.015-.621,7.21,7.21,0,0,1,.538-1.5.155.155,0,0,1,.283.128,6.948,6.948,0,0,0-.517,1.434,1.1,1.1,0,0,0-.018.482.386.386,0,0,0,.242.283c.18.047.382-.112.519-.253a.155.155,0,0,1,.223.216A.974.974,0,0,1,2628.841,948.7Z" transform="translate(-2628.198 -945.96)" fill="#ed9d8d"/></g><g transform="translate(25.079 0)"><path d="M2624.355,903.774a.771.771,0,0,1,.047-.691.555.555,0,0,1,.623-.236c.178.063.339.234.521.186s.236-.265.285-.443a1.535,1.535,0,0,1,.449-.76.967.967,0,0,1,.831-.233.711.711,0,0,1,.553.624,2.735,2.735,0,0,1,2.294-.406.844.844,0,0,1,.563.382,1.078,1.078,0,0,1,0,.684.809.809,0,0,0,.073.671c.142.177.394.21.594.319a.87.87,0,0,1,.353,1.106c-.084.172-.232.345-.179.528.037.127.159.206.247.3a.662.662,0,0,1-.407,1.1,3.744,3.744,0,0,0-.459.026,3.16,3.16,0,0,0-.419.211.846.846,0,0,1-.888-.191,1.256,1.256,0,0,1-.356-.868c-.011-.32.053-.691-.175-.915a.965.965,0,0,0-.854-.111.863.863,0,0,1-.838-.157c-.075-.093-.112-.218-.207-.291a.377.377,0,0,0-.36-.03,1.19,1.19,0,0,0-.313.209,1.543,1.543,0,0,1-.471.295.571.571,0,0,1-.532-.064c-.062-.049-.118-.12-.2-.125-.117-.007-.184.127-.272.205a.334.334,0,1,1-.344-.559c.2-.077.358-.08.207-.285A2.07,2.07,0,0,1,2624.355,903.774Z" transform="translate(-2624.296 -901.576)" fill="#42423f"/></g><g transform="translate(24.651 4.394)"><path d="M2625.379,945.156l-.141,2.967a32.957,32.957,0,0,0-4.7.141c-.513.133-.536,1.433-.447,2.6a1.916,1.916,0,0,0,2.162,1.754,9.937,9.937,0,0,0,1.746-.367,4.779,4.779,0,0,0,1.875-1.382,2.549,2.549,0,0,0,.64-1.677l.028-3.442Z" transform="translate(-2620.053 -945.156)" fill="#42423f"/></g><g transform="translate(25.554 7.783)"><path d="M2629.007,979.08a2.21,2.21,0,0,0,1.743-.317s-.211.792-.792.9S2629.007,979.08,2629.007,979.08Z" transform="translate(-2629.007 -978.763)" fill="#fff"/></g><g transform="translate(17.065 35.539)"><path d="M2547.275,1262.247l-.488-8.235-1.956,8.431Z" transform="translate(-2544.831 -1254.012)" fill="#5ea9cc"/></g><g transform="translate(25.072 13.847)"><path d="M2624.309,1040.783a1.433,1.433,0,0,1,.911-1.738,3.286,3.286,0,0,1,2.142.082,9.022,9.022,0,0,0,2.11.544,3.165,3.165,0,0,1,.724.067.645.645,0,0,1,.487.488.613.613,0,0,1-.3.558,1.8,1.8,0,0,1-.629.215C2628.565,1041.246,2624.964,1042.373,2624.309,1040.783Z" transform="translate(-2624.232 -1038.897)" fill="#e4b568"/></g><g transform="translate(24.871 14.254)"><path d="M2622.359,1046.87a1.935,1.935,0,0,0,1.48.912,6.725,6.725,0,0,0,3.65-.492,19.714,19.714,0,0,0,3.255-1.812c.477-.307,1.005-.7,1.031-1.267a1.343,1.343,0,0,0-1.119-1.2,4.983,4.983,0,0,0-3.231.737,6.772,6.772,0,0,1-1.958.687c-.487.066-.985-.083-1.46.006C2623.012,1044.624,2621.855,1045.806,2622.359,1046.87Z" transform="translate(-2622.237 -1042.933)" fill="#f9ca7d"/></g><g transform="translate(22.947 16.071)"><path d="M2604.163,1063.393c-1.691,4.154-.631,8.838-.441,13.319a33.419,33.419,0,0,1-.511,7.4c-.074.4-.12.906.214,1.146a1.086,1.086,0,0,0,.571.148l6.818.475c.656-2.943-.313-5.969-.988-8.908a46.19,46.19,0,0,1-1.107-12.739c.067-1.277-.179-3.2-1.864-3.282C2605.545,1060.89,2604.587,1062.351,2604.163,1063.393Z" transform="translate(-2603.158 -1060.949)" fill="#f9ca7d"/></g><g transform="translate(24.952 17.138)"><path d="M2626.382,1073.462h-.009a4.7,4.7,0,0,1-3.293-1.671.155.155,0,1,1,.239-.2,4.385,4.385,0,0,0,3.072,1.559.155.155,0,0,1-.009.31Z" transform="translate(-2623.044 -1071.536)" fill="#e4b568"/></g><g transform="translate(5.34 1.697)"><path d="M2443.648,924.079l-1.278,4.787-6.382-.888-1.118-.156-1.119-.156-1.118-.156-4.08-.568,2.279-8.534,3.784,1.674,1.037.46,1.038.459,1.037.46Z" transform="translate(-2428.554 -918.409)" fill="#fdeacb"/><g transform="translate(13.816 5.67)"><path d="M2566.841,974.637l-1.278,4.788.619.165a1.756,1.756,0,0,0,2.143-1.221l.386-1.371a1.756,1.756,0,0,0-1.189-2.159Z" transform="translate(-2565.563 -974.637)" fill="#faa7a9"/></g><g transform="translate(6.317 2.592)"><path d="M2494.052,944.575l-1.74,6.517-1.118-.156,1.821-6.821Z" transform="translate(-2491.195 -944.115)" fill="#faa7a9"/></g><g transform="translate(4.079 1.674)"><path d="M2472.03,935.466l-1.9,7.124-1.118-.156,1.983-7.428Z" transform="translate(-2469.01 -935.006)" fill="#faa7a9"/></g></g><g transform="translate(11.942 10.854)"><path d="M2498.277,1009.876l-1.642,5.706a1.473,1.473,0,0,1-1.846,1l-.239-.073a.744.744,0,0,1-.486-.954l2.192-6.345Z" transform="translate(-2494.023 -1009.211)" fill="#fdeacb"/></g><g transform="translate(11.008 14.811)"><path d="M2489.044,1053.313s-4.317-.918-4.281-2.995a3.7,3.7,0,0,1,.911-1.584c1.046-1,2.943,1.04,2.943,1.04l.289-1.015,1,1.477Z" transform="translate(-2484.763 -1048.457)" fill="#f7bfa3"/></g><g transform="translate(14.417 15.854)"><path d="M2545.454,1060.066q-.1-.088-.205-.174c-.095-.078-.192-.15-.291-.22h0a5.505,5.505,0,0,0-1.424-.729c-3.036-1.357-10.24,7.513-11.249,8.782l-11.92-8.282-1.8,3.2s11.006,14.566,11.791,14.726c1.367,1.266,5.2.093,5.828-.478l9.268-8.374A5.668,5.668,0,0,0,2545.454,1060.066Z" transform="translate(-2518.566 -1058.802)" fill="#84cae9"/></g><g transform="translate(28.413 18.413)"><path d="M2657.516,1090.122a.155.155,0,0,1-.122-.251,49.168,49.168,0,0,1,5.353-5.657.155.155,0,1,1,.206.232,48.8,48.8,0,0,0-5.315,5.616A.155.155,0,0,1,2657.516,1090.122Z" transform="translate(-2657.361 -1084.175)" fill="#5ea9cc"/></g><g transform="translate(30.5 25.414)"><path d="M2678.216,1162.985a.155.155,0,0,1-.1-.273l10.648-9.072a.155.155,0,1,1,.2.236l-10.649,9.073A.154.154,0,0,1,2678.216,1162.985Z" transform="translate(-2678.06 -1153.603)" fill="#5ea9cc"/></g><g transform="translate(17.763 24.22)"><path d="M2557.358,1149.061a.155.155,0,0,1-.123-.06l-5.453-6.986a.155.155,0,1,1,.245-.191l5.453,6.986a.155.155,0,0,1-.122.25Z" transform="translate(-2551.75 -1141.764)" fill="#5ea9cc"/></g><g transform="translate(19.297 18.597)"><path d="M2570.563,1088.783a.154.154,0,0,1-.09-.029l-3.45-2.471a.155.155,0,0,1,.18-.252l3.45,2.471a.155.155,0,0,1-.09.281Z" transform="translate(-2566.958 -1086.002)" fill="#5ea9cc"/></g></g><g transform="translate(408.927 175.026)"><g transform="translate(15.328 18.703)"><path d="M1544.931,729.112l-7.119,13.436-9.726,2.707,2.474,4.3,9.619-.971a5.8,5.8,0,0,0,4.583-3.138l4.28-8.41Z" transform="translate(-1528.086 -729.112)" fill="#f9ca7d"/></g><g transform="translate(0 9.535)"><g transform="translate(24.677 37.804)"><path d="M1623.291,1013.1l-2.493.38.748,2.227a.433.433,0,0,0,.547.273h0a.433.433,0,0,0,.288-.5l-.206-1,1,2.353a.433.433,0,0,0,.813-.045A4.977,4.977,0,0,0,1623.291,1013.1Z" transform="translate(-1620.798 -1013.096)" fill="#f7bfa3"/></g><g transform="translate(25.964 38.252)"><path d="M1633.7,1018.828a.137.137,0,0,1-.137-.137v-1.019a.137.137,0,0,1,.273,0v1.019A.137.137,0,0,1,1633.7,1018.828Z" transform="translate(-1633.562 -1017.536)" fill="#ed9d8d"/></g><g transform="translate(27.17 39.391)"><path d="M.325,0h0A.325.325,0,0,1,.649.325V2.179a0,0,0,0,1,0,0H0a0,0,0,0,1,0,0V.325A.325.325,0,0,1,.325,0Z" transform="translate(1.406 2.026) rotate(158.405)" fill="#f7bfa3"/></g><g transform="translate(3.009 1.886)"><path d="M1407.866,680.338a6.584,6.584,0,0,1-.61-8.655,13.056,13.056,0,0,1,2.811-2.507,13.816,13.816,0,0,0,2.6-2.261,13.448,13.448,0,0,0,2.253-5.475,18.453,18.453,0,0,1,1.574-4.539l.271.151a18.2,18.2,0,0,0-1.544,4.463,13.884,13.884,0,0,1-2.314,5.6,14.05,14.05,0,0,1-2.662,2.315,12.828,12.828,0,0,0-2.747,2.444,6.274,6.274,0,0,0,.582,8.247Z" transform="translate(-1405.918 -656.901)" fill="#42423f"/></g><g transform="translate(2.85 0.004)"><path d="M1414.893,640.407a11.929,11.929,0,0,0-1.42,5.465,12.593,12.593,0,0,1-1.351,5.489c-1.624,2.664-5.035,3.8-6.747,6.4a6.454,6.454,0,0,0,5.71,9.988c2.33-.113,4.465-1.474,6.8-1.581a8.806,8.806,0,0,0,2.857-.231,3.426,3.426,0,0,0,1.87-2.158,8.362,8.362,0,0,0,.3-2.918,63.083,63.083,0,0,0-.787-7.2l-1.022-6.888c-.326-2.2-.253-5.845-1.429-7.766C1418.508,637.128,1415.737,639.1,1414.893,640.407Z" transform="translate(-1404.342 -638.236)" fill="#42423f"/></g><g transform="translate(5.236 45.89)"><path d="M1436.684,1093.547c2.095-1.405,9.9,3.235,9.9,3.235s-1.234,2.008-6.681,20.539l-7.049,24.745-4.679-2.324s-1.49-15.5,4.313-22.608C1432.484,1117.135,1432.391,1096.427,1436.684,1093.547Z" transform="translate(-1427.999 -1093.282)" fill="#f7bfa3"/></g><g transform="translate(5.404 92.35)"><path d="M1434.353,1556.348a26.755,26.755,0,0,0,.331,5.261s-5.154-4.451-5.01-7.584Z" transform="translate(-1429.672 -1554.024)" fill="#f7bfa3"/></g><g transform="translate(3.64 93.139)"><path d="M1413.974,1561.851a3.3,3.3,0,0,0-1.026,3.723l-.767,3.487.7.174,1.737-3.833.414,3.592a1.093,1.093,0,0,0,.754.916l4.437,1.416a.423.423,0,0,0,.45-.678l-1.879-2.195Z" transform="translate(-1412.181 -1561.851)" fill="#42423f"/></g><g transform="translate(19.335 18.061)"><path d="M1573.151,819.353v10.262l2.806,7.4-2.715,1.466-5.416-9.054,2.286-12.122Z" transform="translate(-1567.826 -817.306)" fill="#f98968"/></g><g transform="translate(11.994 47.472)"><path d="M1496.231,1109.65c1.694-1.869,10.383.751,10.383.751s-.713,2.246-1.527,21.544l-.869,25.715-5.1-1.126s-5.187-14.682-1.27-22.98C1497.847,1133.554,1492.76,1113.48,1496.231,1109.65Z" transform="translate(-1495.019 -1108.978)" fill="#f7bfa3"/></g><g transform="translate(12.494 60.917)"><path d="M1510.169,1242.3l-10.192.727.593,2.582A11.739,11.739,0,0,0,1510.169,1242.3Z" transform="translate(-1499.977 -1242.304)" fill="#ed9d8d"/></g><g transform="translate(15.086 71.862)"><path d="M1526.577,1351.141h0l-.758-.023a.137.137,0,1,1,.008-.273l.758.023a.137.137,0,0,1,0,.273Z" transform="translate(-1525.682 -1350.844)" fill="#ed9d8d"/></g><g transform="translate(11.201 12.254)"><path d="M1497.136,759.724l-5.988.316c-2.253.08-4.341,2.281-3.937,4.5.758,4.154,4.668,9.731,2.525,14.2-.728,1.519,6.709.626,6.709.626a39.076,39.076,0,0,0,3.1-9.238,3.657,3.657,0,0,0,.912-5.832q.024-.247.046-.5h0A3.332,3.332,0,0,0,1497.136,759.724Z" transform="translate(-1487.161 -759.722)" fill="#f98968"/></g><g transform="translate(14.475 2.139)"><path d="M1521.458,669.8l.156-5.3a1.12,1.12,0,0,1-1.984-.654c-.006-.774.917-.919,1.333-.945l-.376-2.657,5.882-.833.365,2.581.641.875a.614.614,0,0,1-.38.966h0l.182,1.286a2.084,2.084,0,0,1-1.777,2.363,2.827,2.827,0,0,1-.845-.033l1.8,5.2C1523.515,673.423,1521.458,669.8,1521.458,669.8Z" transform="translate(-1519.63 -659.405)" fill="#f7bfa3"/></g><g transform="translate(14.036)"><path d="M1515.285,641.175l.423,3.6c.057-.9,1.333-.945,1.333-.945,3.183-.775,3.158-3.218,3.158-3.218.784,2.463,2.642,1.806,2.642,1.806l-.183-1.807a2.9,2.9,0,0,0-3.336-2.378l-1.983.281A2.408,2.408,0,0,0,1515.285,641.175Z" transform="translate(-1515.268 -638.197)" fill="#42423f"/></g><g transform="translate(14.828 5.992)"><path d="M1523.264,698.734a.137.137,0,0,1-.136-.127.9.9,0,0,1,.744-.983.137.137,0,0,1,.047.269.624.624,0,0,0-.518.694.137.137,0,0,1-.126.146Z" transform="translate(-1523.125 -697.622)" fill="#ed9d8d"/></g><g transform="translate(21.034 4.561)"><path d="M1585.079,683.7c.023.163-.048.308-.159.324s-.219-.1-.242-.267.048-.308.159-.324S1585.056,683.532,1585.079,683.7Z" transform="translate(-1584.673 -683.427)" fill="#42423f"/></g><g transform="translate(19.971 6.261)"><path d="M1575.783,701.286s-1.338-.367-1.65-1a1.252,1.252,0,0,0,.567,1.094A.962.962,0,0,0,1575.783,701.286Z" transform="translate(-1574.133 -700.288)" fill="#fff"/></g><g transform="translate(17.691 9.196)"><path d="M1553.332,730.371a3.112,3.112,0,0,1-1.809-.981l2.308,2.53Z" transform="translate(-1551.523 -729.39)" fill="#ed9d8d"/></g><g transform="translate(15.013 6.242)"><path d="M1525.528,700.92a.136.136,0,0,1-.108-.052l-.431-.549a.137.137,0,0,1,.215-.169l.431.549a.137.137,0,0,1-.107.221Z" transform="translate(-1524.96 -700.098)" fill="#ed9d8d"/></g><g transform="translate(12.531 62.29)"><path d="M1501.3,1276.518a.137.137,0,0,1-.135-.118,26.708,26.708,0,0,1,1.185-10.631l-2-9.678a.137.137,0,1,1,.268-.055l2.007,9.714a.137.137,0,0,1,0,.072,26.5,26.5,0,0,0-1.185,10.541.137.137,0,0,1-.117.154Z" transform="translate(-1500.35 -1255.927)" fill="#ed9d8d"/></g><g transform="translate(0 29.552)"><path d="M1397.209,932.225l-1.723-.581-1.6-.322c-4.7-.583-6.094,3.525-8.51,7.9,0,0-5.431,15.654-9.292,16.147,0,0,13.386,18.679,28.325,3.338Z" transform="translate(-1376.079 -931.267)" fill="#f9ca7d"/></g><g transform="translate(10.057 29.496)"><path d="M1475.951,962.855a.138.138,0,0,1-.046-.008.136.136,0,0,1-.083-.175c3.059-8.578,5.458-23.387,5.778-31.836a.137.137,0,1,1,.273.01c-.321,8.469-2.726,23.316-5.794,31.918A.137.137,0,0,1,1475.951,962.855Z" transform="translate(-1475.815 -930.705)" fill="#e4b568"/></g><g transform="translate(16.092 95.029)"><path d="M1540.763,1581.721a26.761,26.761,0,0,0,1.591,5.025s-6.076-3.075-6.692-6.151Z" transform="translate(-1535.662 -1580.595)" fill="#f7bfa3"/></g><g transform="translate(15.618 95.789)"><path d="M1531.647,1588.127a3.3,3.3,0,0,0-.1,3.86l.1,3.569h.722l.76-4.138,1.269,3.386a1.094,1.094,0,0,0,.953.707l4.647.3a.423.423,0,0,0,.273-.766l-2.353-1.676Z" transform="translate(-1530.957 -1588.127)" fill="#42423f"/></g><g transform="translate(19.862 29.792)"><path d="M1579.8,962.37a.137.137,0,0,1-.135-.114,214.4,214.4,0,0,0-6.609-28.431.137.137,0,1,1,.261-.082,214.673,214.673,0,0,1,6.618,28.469.137.137,0,0,1-.113.157Z" transform="translate(-1573.051 -933.647)" fill="#e4b568"/></g><g transform="translate(18.259 29.415)"><path d="M1562.24,961.4a.137.137,0,0,1-.136-.121c-1.2-10.126-2.959-21.21-4.948-31.211a.137.137,0,1,1,.268-.053c1.991,10.007,3.75,21.1,4.952,31.232a.137.137,0,0,1-.12.152Z" transform="translate(-1557.154 -929.901)" fill="#e4b568"/></g><g transform="translate(17.023 29.416)"><path d="M1545.461,963.328a.137.137,0,0,1-.136-.132c-.279-8.7-.614-21.6-.308-33.151a.137.137,0,1,1,.273.007c-.306,11.545.029,24.44.308,33.135a.137.137,0,0,1-.132.141Z" transform="translate(-1544.895 -929.911)" fill="#e4b568"/></g><g transform="translate(3.023 29.918)"><path d="M1406.2,961.828a.137.137,0,0,1-.087-.242c3.509-2.9,4.866-6.973,6.3-11.284l.154-.462c.478-1.43.89-3.03,1.326-4.724.942-3.656,1.915-7.437,3.705-10.167a.137.137,0,0,1,.229.15c-1.765,2.692-2.733,6.45-3.669,10.085-.437,1.7-.851,3.3-1.331,4.742l-.154.462c-1.449,4.349-2.818,8.457-6.388,11.408A.136.136,0,0,1,1406.2,961.828Z" transform="translate(-1406.059 -934.888)" fill="#e4b568"/></g><g transform="translate(23.647 30.215)"><path d="M1611.6,938.152h-.858a.155.155,0,0,1,0-.31h.858a.155.155,0,1,1,0,.31Z" transform="translate(-1610.586 -937.842)" fill="#eb7350"/></g><g transform="translate(9.583 69.605)"><path d="M1472.456,1329.239a.136.136,0,0,1-.052-.01l-1.2-.5a.137.137,0,0,1,.1-.253l1.2.5a.137.137,0,0,1-.052.263Z" transform="translate(-1471.117 -1328.468)" fill="#ed9d8d"/></g><g transform="translate(26.104 18.982)"><path d="M1634.955,828.606l.8-.942a3.37,3.37,0,0,1,1.052-1.063,1.473,1.473,0,0,1,.931-.124c.089.041.191.233.256.3.116-.045.438.335.366.447a2.863,2.863,0,0,1,.212.327,1.289,1.289,0,0,1,.144.522.8.8,0,0,1,.162.382c-.01.161-.446.654-.446.654a6.922,6.922,0,0,1-1.927,1.92Z" transform="translate(-1634.955 -826.444)" fill="#f7bfa3"/></g><g transform="translate(28.095 19.269)"><path d="M1654.83,830.233a.137.137,0,0,1-.1-.233c.7-.7.8-.712.846-.717a.137.137,0,0,1,.049.268,6.922,6.922,0,0,0-.7.642A.136.136,0,0,1,1654.83,830.233Zm.777-.678h0Z" transform="translate(-1654.694 -829.282)" fill="#ed9d8d"/></g><g transform="translate(28.663 19.908)"><path d="M1660.46,836.57a.137.137,0,0,1-.091-.239l.763-.678a.137.137,0,0,1,.182.2l-.763.678A.136.136,0,0,1,1660.46,836.57Z" transform="translate(-1660.323 -835.619)" fill="#ed9d8d"/></g><g transform="translate(12.032 13.107)"><path d="M1504.134,778.686s-1.089-3.775-1.368-5.054c-1.2-5.517-6.462-6.957-7.272-3.832-.614,2.366,1.989,9.719,3.742,14.257a2.8,2.8,0,0,0,4.474,1.084l7.319-6.5-1.554-2.426Z" transform="translate(-1495.402 -768.176)" fill="#f98968"/></g><g transform="translate(16.933 23.462)"><path d="M1544.153,873.624a.155.155,0,0,1-.086-.284l3.677-2.446a.155.155,0,1,1,.172.258l-3.677,2.446A.155.155,0,0,1,1544.153,873.624Z" transform="translate(-1543.998 -870.868)" fill="#eb7350"/></g><g transform="translate(19.801 1.903)"><path d="M1573.3,658.4a.181.181,0,0,1-.15-.078l-.671-.973a.181.181,0,1,1,.3-.206l.67.973a.181.181,0,0,1-.149.284Z" transform="translate(-1572.449 -657.065)" fill="#686865"/></g><g transform="translate(13.649 8.652)"><path d="M1511.617,726.964a.181.181,0,0,1-.128-.31,3.356,3.356,0,0,0,.978-2.47.181.181,0,1,1,.363-.013,3.724,3.724,0,0,1-1.085,2.741A.18.18,0,0,1,1511.617,726.964Z" transform="translate(-1511.435 -723.995)" fill="#686865"/></g><g transform="translate(5.957 19.02)"><path d="M1436.4,833.766a.181.181,0,0,1-.1-.031,2.833,2.833,0,0,1-1.137-2.485,4.517,4.517,0,0,1,1.056-2.527,13.145,13.145,0,0,1,1.956-1.867.181.181,0,1,1,.232.279,12.867,12.867,0,0,0-1.9,1.813,4.227,4.227,0,0,0-.978,2.321,2.465,2.465,0,0,0,.978,2.166.181.181,0,0,1-.1.332Z" transform="translate(-1435.154 -826.814)" fill="#686865"/></g><g transform="translate(9.165 23.434)"><path d="M1468.555,874.418a.18.18,0,0,1-.082-.02,2.762,2.762,0,0,1-1.207-3.7.181.181,0,0,1,.324.163,2.4,2.4,0,0,0,1.048,3.217.181.181,0,0,1-.083.343Z" transform="translate(-1466.971 -870.595)" fill="#686865"/></g><g transform="translate(16.837 18.47)"><path d="M1545.131,827.53l-2.08-6.164,3.159,5.471Z" transform="translate(-1543.05 -821.366)" fill="#eb7350"/></g></g><g transform="translate(26.355 0)"><g transform="translate(9.498 100.879)"><path d="M1739.645,1551.393c-.084-1.7-.257-4.535-.58-7.346l-7.436,1.179.46,5.813Z" transform="translate(-1731.629 -1544.047)" fill="#f7bfa3"/></g><path d="M1688.563,1005.861l.2-.02,3.693,57.963,8.919-.5.828-59.03Z" transform="translate(-1683.408 -957.829)" fill="#42423f"/><g transform="translate(3.584 107.769)"><path d="M1679.306,1612.432c-4.814.749-6.327,2.744-6.327,2.744l13.927.018-.021-2.82Z" transform="translate(-1672.979 -1612.374)" fill="#42423f"/></g><g transform="translate(3.584 110.464)"><path d="M1672.979,1639.209v.051a1.006,1.006,0,0,0,1.014,1l12.161-.093a.757.757,0,0,0,.751-.763l0-.3Z" transform="translate(-1672.979 -1639.102)" fill="#33312e"/></g><g transform="translate(6.878 104.473)"><path d="M1707.263,1583.27a.473.473,0,0,1-.169-.032c-.487-.185-.877-1.177-1.2-2.092-.045-.125-.079-.222-.1-.276-.072-.168-.291-.678.019-1a.671.671,0,0,1,.785-.089,1.323,1.323,0,0,1,.484.507,4.973,4.973,0,0,1,.673,2.559.557.557,0,0,1-.267.367A.454.454,0,0,1,1707.263,1583.27Zm-1.021-3.215a.236.236,0,0,0-.174.063c-.1.1-.08.3.052.608.024.057.062.162.11.3.169.474.62,1.734.991,1.875a.091.091,0,0,0,.085,0c.015-.008.061-.034.09-.142a4.748,4.748,0,0,0-.631-2.276h0a1,1,0,0,0-.345-.377A.392.392,0,0,0,1706.242,1580.055Z" transform="translate(-1705.645 -1579.694)" fill="#42423f"/></g><g transform="translate(5.46 105.929)"><path d="M1694.583,1596.239a6.171,6.171,0,0,1-2-.609c-.122-.052-.217-.093-.271-.112-.172-.061-.7-.247-.722-.695a.671.671,0,0,1,.468-.636,1.323,1.323,0,0,1,.7-.01,4.975,4.975,0,0,1,2.334,1.246.557.557,0,0,1,.088.445.452.452,0,0,1-.245.3A.8.8,0,0,1,1694.583,1596.239Zm-2.19-1.742a.643.643,0,0,0-.213.032.314.314,0,0,0-.226.272c.009.14.166.263.482.375.059.021.161.064.292.12.463.2,1.693.724,2.05.548a.091.091,0,0,0,.055-.066.2.2,0,0,0-.043-.162,4.751,4.751,0,0,0-2.1-1.084h0A1.538,1.538,0,0,0,1692.393,1594.5Z" transform="translate(-1691.591 -1594.134)" fill="#42423f"/></g><g transform="translate(18.172 102.271)"><path d="M1825.668,1565.2c-.084-1.7-.257-4.535-.58-7.346l-7.436,1.179.46,5.813Z" transform="translate(-1817.653 -1557.853)" fill="#f7bfa3"/></g><g transform="translate(12.258 109.161)"><path d="M1765.33,1626.239c-4.814.749-6.327,2.744-6.327,2.744l13.927.018-.022-2.82Z" transform="translate(-1759.003 -1626.181)" fill="#42423f"/></g><g transform="translate(12.258 111.856)"><path d="M1759,1653.016v.051a1.006,1.006,0,0,0,1.014,1l12.16-.093a.757.757,0,0,0,.751-.763l0-.3Z" transform="translate(-1759.003 -1652.909)" fill="#33312e"/></g><g transform="translate(15.552 105.865)"><path d="M1793.287,1597.077a.473.473,0,0,1-.169-.032c-.487-.185-.876-1.177-1.2-2.092-.045-.125-.079-.223-.1-.276-.072-.168-.291-.678.019-1a.672.672,0,0,1,.785-.089,1.322,1.322,0,0,1,.484.507,4.976,4.976,0,0,1,.673,2.559.557.557,0,0,1-.267.367A.453.453,0,0,1,1793.287,1597.077Zm-1.021-3.215a.236.236,0,0,0-.173.063c-.1.1-.08.3.052.608.024.057.062.162.11.3.169.474.62,1.734.991,1.875a.091.091,0,0,0,.085,0c.015-.008.061-.033.09-.142a4.749,4.749,0,0,0-.631-2.276h0a1.006,1.006,0,0,0-.345-.376A.4.4,0,0,0,1792.266,1593.862Z" transform="translate(-1791.67 -1593.5)" fill="#42423f"/></g><g transform="translate(14.135 107.322)"><path d="M1780.608,1610.045a6.167,6.167,0,0,1-2-.609c-.122-.052-.217-.093-.271-.113-.172-.061-.7-.247-.722-.695a.671.671,0,0,1,.468-.636,1.323,1.323,0,0,1,.7-.01,4.976,4.976,0,0,1,2.334,1.246.557.557,0,0,1,.088.445.452.452,0,0,1-.245.3A.8.8,0,0,1,1780.608,1610.045Zm-2.19-1.742a.642.642,0,0,0-.213.032.314.314,0,0,0-.226.272c.008.14.166.263.481.375.059.021.161.064.292.121.463.2,1.693.724,2.049.548a.091.091,0,0,0,.055-.066.2.2,0,0,0-.043-.162,4.751,4.751,0,0,0-2.1-1.084h0A1.541,1.541,0,0,0,1778.418,1608.3Z" transform="translate(-1777.616 -1607.94)" fill="#42423f"/></g><g transform="translate(5.155 47.842)"><path d="M1698.13,1030.61l3.25,45.484,9.042-.5.46-57.514-22.319.19Z" transform="translate(-1688.563 -1018.085)" fill="#42423f"/></g><g transform="translate(4.596 13.814)"><path d="M1690.489,681.966l5.588-1.14a9.533,9.533,0,0,1,11.417,9.977l-1.6,23.855-22.319.19-.557-25.356A7.365,7.365,0,0,1,1690.489,681.966Z" transform="translate(-1683.02 -680.63)" fill="#f9ca7d"/></g><g transform="translate(7.122 1.582)"><path d="M1708.638,563.1l-.566-1.94,6.588-1.828.825,2.976c.451-.164,1.491-.436,1.841.384.409.958-.414,2.5-2.037,1.266l2.793,7.975a29.126,29.126,0,0,1-5.082,3.575l-.023-6.25a4.819,4.819,0,0,1-2.644-.1.923.923,0,0,1-.675-.827c-.071-1.006-.291-2.3-.365-2.718,0,0-.319-.084-.656-.179a.752.752,0,0,1-.5-.986Z" transform="translate(-1708.072 -559.332)" fill="#f7bfa3"/></g><g transform="translate(12.028 9.321)"><path d="M1756.722,638.181s.754.048,2.072-2.11l-2.064,4.256Z" transform="translate(-1756.722 -636.071)" fill="#ed9d8d"/></g><g transform="translate(15.489 4.642)"><path d="M1791.42,591.172a.153.153,0,0,1-.078-.021.155.155,0,0,1-.056-.212.72.72,0,0,0-.184-.982.155.155,0,0,1,.182-.251,1.03,1.03,0,0,1,.27,1.39A.155.155,0,0,1,1791.42,591.172Z" transform="translate(-1791.039 -589.676)" fill="#ed9d8d"/></g><g transform="translate(7.817 4.202)"><path d="M1715.188,585.933a.225.225,0,0,0,.089-.017h0a3.052,3.052,0,0,1,.629-.158.227.227,0,0,0-.067-.449,3.456,3.456,0,0,0-.734.186.227.227,0,0,0,.083.437Z" transform="translate(-1714.964 -585.307)" fill="#42423f"/></g><g transform="translate(15.126 5.036)"><path d="M1787.6,594.207a.155.155,0,0,1-.072-.293l.608-.318a.155.155,0,0,1,.144.275l-.608.318A.155.155,0,0,1,1787.6,594.207Z" transform="translate(-1787.448 -593.578)" fill="#ed9d8d"/></g><g transform="translate(12.102 52.412)"><path d="M1757.451,1063.4l2.822,1.539.256,7.823-1.357-6.994Z" transform="translate(-1757.451 -1063.405)" fill="#33312e"/></g><g transform="translate(15.047 67.918)"><path d="M1788.723,1252.349a.181.181,0,0,1-.181-.172l-1.881-34.807a.181.181,0,0,1,.362-.02l1.881,34.807a.181.181,0,0,1-.171.191Z" transform="translate(-1786.661 -1217.179)" fill="#33312e"/></g><g transform="translate(5.47)"><path d="M1692.336,544.527a2.828,2.828,0,0,1,2.211-.735c.519.044,1.014.211,1.525.3a2.285,2.285,0,0,0,.355.027l.039-.015c.342-.156.586-.269.656-.3a2.09,2.09,0,0,1,2.281.5,10.276,10.276,0,0,1,1.838,3.765,1.706,1.706,0,0,0-1.217.769s-1.334-2.01-1.617-2.28c-.568-.543-1.762-.11-2.375.139-.412.167-.815.365-1.224.538a3.171,3.171,0,0,1-.863.5,1.544,1.544,0,0,1-.536.087,1.736,1.736,0,0,1-1.6-1.08A2.113,2.113,0,0,1,1692.336,544.527Z" transform="translate(-1691.682 -543.64)" fill="#42423f"/></g><g transform="translate(5.944 2.762)"><path d="M1697.462,571.965a1.148,1.148,0,0,1-.34-.051,1.177,1.177,0,0,1-.715-.632.181.181,0,1,1,.331-.149.8.8,0,0,0,1.143.354.181.181,0,1,1,.188.31A1.175,1.175,0,0,1,1697.462,571.965Z" transform="translate(-1696.391 -571.027)" fill="#686865"/></g><g transform="translate(6.426 2.013)"><path d="M1702.225,564.7h-.013a1.19,1.19,0,0,1-1.037-.86.181.181,0,0,1,.351-.092.828.828,0,0,0,.712.591.181.181,0,0,1-.013.362Z" transform="translate(-1701.169 -563.607)" fill="#686865"/></g><g transform="translate(8.03 5.295)"><path d="M1717.473,596.53a.538.538,0,0,1-.381-.16.069.069,0,1,1,.1-.1.39.39,0,0,0,.626-.092.069.069,0,1,1,.122.064.536.536,0,0,1-.391.278A.525.525,0,0,1,1717.473,596.53Z" transform="translate(-1717.073 -596.146)" fill="#42423f"/></g><path d="M1642.2,818.2l.008-.009-.622-.568-.045-.042h0l-.6-.544a.576.576,0,0,0-.776.85l.658.6c-.763-.213-2.549-.6-3.155.239-.18.249.268,1.216.334,1.612.313,1.881,4.648,1.565,4.648,1.565l.375-2.925Z" transform="translate(-1637.608 -789.334)" fill="#f7bfa3"/><g transform="translate(0 29.476)"><path d="M1639.413,836.87a.862.862,0,0,1-.269-.054l-1.58-.515a.178.178,0,1,1,.11-.339l1.58.515a.7.7,0,0,0,.159.037.08.08,0,0,0,.049-.013.178.178,0,0,1,.291.206.411.411,0,0,1-.338.163Z" transform="translate(-1637.441 -835.953)" fill="#ed9d8d"/></g><g transform="translate(0.225 30.394)"><path d="M1641.458,846.119a.173.173,0,0,1-.033,0,4.044,4.044,0,0,1-1.683-.739.178.178,0,1,1,.214-.285,3.686,3.686,0,0,0,1.534.674.178.178,0,0,1-.032.353Z" transform="translate(-1639.672 -845.056)" fill="#ed9d8d"/></g><g transform="translate(0.504 31.164)"><path d="M1643.971,853.626h-.021a2.824,2.824,0,0,1-1.444-.616.178.178,0,1,1,.226-.275,2.462,2.462,0,0,0,1.26.538.178.178,0,0,1-.021.355Z" transform="translate(-1642.44 -852.693)" fill="#ed9d8d"/></g><g transform="translate(4.876 27.984)"><path d="M1685.8,826.235l13.772,5.561a3.132,3.132,0,0,0,4.085-1.694l2.954-6.576-8.824-2.369L1696.7,823.5l-10.378-1.07Z" transform="translate(-1685.798 -821.157)" fill="#f9ca7d"/></g><g transform="translate(15.645 30.195)"><path d="M1793.372,844.185a.136.136,0,0,1-.108-.053l-.645-.827a.137.137,0,0,1,.216-.168l.645.827a.137.137,0,0,1-.108.221Z" transform="translate(-1792.589 -843.085)" fill="#e4b568"/></g><g transform="translate(5.692 30.217)"><path d="M1708.033,852.076a3.248,3.248,0,0,1-1.24-.246l-12.818-5.192a.137.137,0,1,1,.1-.253l12.819,5.192a3,3,0,0,0,3.908-1.62l2.956-6.579a.137.137,0,0,1,.25.112l-2.954,6.576A3.274,3.274,0,0,1,1708.033,852.076Z" transform="translate(-1693.889 -843.297)" fill="#e4b568"/></g><g transform="translate(5.582 21.003)"><path d="M1703,761.389h-.015l-10.063-1.137a.137.137,0,1,1,.031-.272l9.957,1.125,3.47-9.094a.137.137,0,0,1,.255.1l-3.508,9.193A.137.137,0,0,1,1703,761.389Z" transform="translate(-1692.797 -751.923)" fill="#e4b568"/></g><g transform="translate(8.932 7.955)"><path d="M1726.267,623.393a.9.9,0,0,1-.113-.007.155.155,0,0,1,.04-.308.7.7,0,0,0,.72-.447.155.155,0,0,1,.293.1A1.016,1.016,0,0,1,1726.267,623.393Z" transform="translate(-1726.018 -622.527)" fill="#ed9d8d"/></g><g transform="translate(12.051 14.023)"><path d="M1756.953,686.438l3.636,1.619,2.463-5.355-1.017.161Z" transform="translate(-1756.953 -682.702)" fill="#e4b568"/></g><g transform="translate(10.175 15.15)"><path d="M1740.22,696.489l-1.877.794,1.336-3.352.554-.051Z" transform="translate(-1738.344 -693.88)" fill="#e4b568"/></g></g></g></g></svg>