<svg xmlns="http://www.w3.org/2000/svg" width="48.93" height="49.352" viewBox="0 0 48.93 49.352"><g transform="translate(-908 -4199.159)"><path d="M547.337,382.979l0,0-5.747,5.747,5.747,5.747,0,0,1.2,1.2,0,0h0v-2.4h0L544,388.73l4.545-4.545h0v-2.4h0l0,0Z" transform="translate(408.387 3835.105)" fill="#47286d"/><path d="M551.65,589.6l0,0-5.146,5.146,0,0h2.4l3.945-3.945h0v-2.4h0l0,0Z" transform="translate(404.073 3653.758)" fill="#47286d"/><path d="M552.857,240.843l-3.945-3.945h-2.4l0,0,5.146,5.146,0,0,1.2,1.2,0,0h0v-2.4Z" transform="translate(404.073 3962.262)" fill="#47286d"/><path d="M246.128,338.025l0,0-11.154,11.154-12.109-12.108L210.76,349.183l-11.154-11.154,0,0-1.2-1.2,0,0h0v2.4h0l10.044,10.044L198.4,359.319h0v2.4h0l0,0,1.2-1.2,0,0,11.154-11.154,12.109,12.109,12.109-12.109,11.154,11.154,0,0,1.2,1.2,0,0h0v-2.4h0L237.29,349.275l10.044-10.044h0v-2.4h0l0,0Zm-23.259,21.046-9.8-9.8,9.8-9.8,9.8,9.8Z" transform="translate(709.596 3874.56)" fill="#47286d"/><path d="M512.2,544.646l0,0-10.645,10.645,0,0h2.4l9.444-9.444v-2.4h0l0,0Z" transform="translate(443.529 3693.214)" fill="#47286d"/><path d="M354.635,243l6.1-6.1,0,0h-2.4l-3.7,3.7-3.7-3.7h-2.4l0,0Z" transform="translate(577.83 3962.262)" fill="#47286d"/><path d="M348.535,596.557l0,0h2.4l3.7-3.7,3.7,3.7h2.4l0,0-6.1-6.1Z" transform="translate(577.83 3651.952)" fill="#47286d"/><path d="M343.621,390.538l6.7,6.7,6.7-6.7-6.7-6.7Zm6.7,4.3-4.3-4.3,4.3-4.3,4.3,4.3Z" transform="translate(582.143 3833.297)" fill="#47286d"/><path d="M315.179,248.5l11.6-11.6,0,0h-2.4l-9.2,9.2-9.2-9.2h-2.4l0,0Z" transform="translate(617.286 3962.262)" fill="#47286d"/><path d="M303.58,557.1l0,0h2.4l9.2-9.2,9.2,9.2h2.4l0,0-11.6-11.6Z" transform="translate(617.286 3691.407)" fill="#47286d"/><path d="M429.582,276.95l9.451-9.451-9.451-9.451-9.451,9.451Zm7.046-9.451-7.046,7.046-7.046-7.046,7.046-7.046Z" transform="translate(514.992 3943.699)" fill="#47286d"/><path d="M231.608,464.67l-9.451,9.451,9.451,9.451,9.451-9.451Zm-7.046,9.451,7.046-7.046,7.047,7.046-7.047,7.047Z" transform="translate(688.749 3762.352)" fill="#47286d"/><path d="M429.582,464.67l-9.451,9.451,9.451,9.451,9.451-9.451Zm-7.046,9.451,7.046-7.046,7.046,7.046-7.046,7.047Z" transform="translate(514.992 3762.352)" fill="#47286d"/><path d="M231.608,276.95l9.451-9.451-9.451-9.451-9.451,9.451Zm7.047-9.451-7.047,7.046-7.046-7.046,7.046-7.046Z" transform="translate(688.749 3943.699)" fill="#47286d"/><path d="M469.036,310.908l3.952-3.952L469.036,303l-3.952,3.952Zm1.547-3.952-1.547,1.547-1.547-1.547,1.547-1.547Z" transform="translate(475.538 3904.242)" fill="#47286d"/><path d="M271.064,509.624l-3.952,3.952,3.952,3.952,3.952-3.952Zm-1.547,3.952,1.547-1.547,1.547,1.547-1.547,1.547Z" transform="translate(649.293 3722.897)" fill="#47286d"/><path d="M469.036,509.624l-3.952,3.952,3.952,3.952,3.952-3.952Zm-1.547,3.952,1.547-1.547,1.547,1.547-1.547,1.547Z" transform="translate(475.538 3722.897)" fill="#47286d"/><path d="M271.064,310.908l3.952-3.952L271.064,303l-3.952,3.952Zm1.547-3.952-1.547,1.547-1.547-1.547,1.547-1.547Z" transform="translate(649.293 3904.242)" fill="#47286d"/><path d="M198.409,395.683l1.2-1.2,0,0,5.747-5.747-5.747-5.747,0,0-1.2-1.2,0,0h0v2.4h0l4.545,4.545-4.545,4.545h0v2.4h0Z" transform="translate(709.596 3835.105)" fill="#47286d"/><path d="M198.409,243.251l1.2-1.2,0,0,5.146-5.146,0,0h-2.4l-3.945,3.945h0v2.4h0Z" transform="translate(709.596 3962.262)" fill="#47286d"/><path d="M199.611,589.6l-1.2-1.2,0,0h0v2.4h0l3.945,3.945h2.4l0,0-5.146-5.146Z" transform="translate(709.596 3653.758)" fill="#47286d"/><path d="M198.409,248.75l1.2-1.2,0,0L210.252,236.9l0,0h-2.4l-9.444,9.444v2.4h0Z" transform="translate(709.596 3962.262)" fill="#47286d"/><path d="M199.611,544.646l-1.2-1.2,0,0h0v2.4l9.444,9.444h2.4l0,0L199.607,544.65Z" transform="translate(709.596 3693.214)" fill="#47286d"/><path d="M503.957,236.9h-2.4l0,0L512.2,247.544l0,0,1.2,1.2,0,0h0v-2.4l-9.444-9.444Z" transform="translate(443.529 3962.262)" fill="#47286d"/></g></svg>