<svg xmlns="http://www.w3.org/2000/svg" width="307.491" height="368.909" viewBox="0 0 307.491 368.909"><g transform="translate(-283.537 -211.159)"><path d="M919.087,618.32l2.062,3.894,3.77,2.13-3.77,2.129-2.062,3.894-2.062-3.894-3.77-2.129,3.77-2.13Z" transform="translate(-445.242 -287.883)" fill="#f17781"/><path d="M289.368,1130.4l2.062,3.894,3.77,2.13-3.77,2.13-2.062,3.894-2.062-3.894-3.77-2.13,3.77-2.13Z" transform="translate(0 -649.947)" fill="#f17781"/><path d="M703.67,211.159l2.062,3.894,3.77,2.13-3.77,2.13-2.062,3.894-2.062-3.894-3.77-2.13,3.77-2.13Z" transform="translate(-292.931)" fill="#f17781"/><g transform="translate(321.42 301.829)"><path d="M413.779,537.336a.926.926,0,0,1-.263-1.814,33.091,33.091,0,0,0,8.9-4.026,13.522,13.522,0,0,1-4.1-3.04c-1.326-1.446-1.857-2.858-1.577-4.2a4.436,4.436,0,0,1,2.555-2.928,6.346,6.346,0,0,1,5.566-.042,5.2,5.2,0,0,1,2.85,3.792,6.647,6.647,0,0,1-1.7,5.671,10.323,10.323,0,0,0,3.655.044,8.714,8.714,0,0,0,6.683-5.387.926.926,0,0,1,1.7.728,10.511,10.511,0,0,1-8.074,6.484,12.332,12.332,0,0,1-5.533-.345c-3.158,2.6-7.771,4.24-10.4,5.023A.932.932,0,0,1,413.779,537.336Zm8.371-14.823a4.534,4.534,0,0,0-2.021.473,2.854,2.854,0,0,0-1.571,1.65,3.313,3.313,0,0,0,1.129,2.568,11.665,11.665,0,0,0,4.333,2.973,5.278,5.278,0,0,0,1.874-4.761,3.344,3.344,0,0,0-1.855-2.47A4.246,4.246,0,0,0,422.15,522.514Z" transform="translate(-412.853 -520.665)" fill="#240448"/></g><rect width="253.645" height="189.801" transform="translate(324.901 383.212)" fill="#31d9e7" opacity="0.25"/><g transform="translate(307.186 362.53)"><path d="M618.671,773.58H365.026a.76.76,0,0,1-.76-.76V728.631a.76.76,0,0,1,.76-.76H472.288a.76.76,0,1,1,0,1.52h-106.5v42.67H617.911v-42.67H493.251a.76.76,0,1,1,0-1.52H618.671a.76.76,0,0,1,.76.76V772.82A.76.76,0,0,1,618.671,773.58Z" transform="translate(-364.266 -727.871)" fill="#240448"/></g><g transform="translate(332.744 374.432)"><g transform="translate(0 0)"><path d="M460.287,786.059a8.78,8.78,0,1,1,8.78-8.78A8.79,8.79,0,0,1,460.287,786.059Zm0-16.04a7.26,7.26,0,1,0,7.26,7.26A7.269,7.269,0,0,0,460.287,770.019Z" transform="translate(-451.507 -768.499)" fill="#240448"/></g><g transform="translate(25.659 0)"><path d="M547.875,786.059a8.78,8.78,0,1,1,8.78-8.78A8.79,8.79,0,0,1,547.875,786.059Zm0-16.04a7.26,7.26,0,1,0,7.26,7.26A7.269,7.269,0,0,0,547.875,770.019Z" transform="translate(-539.095 -768.499)" fill="#240448"/></g><g transform="translate(51.318 0)"><path d="M635.463,786.059a8.78,8.78,0,1,1,8.78-8.78A8.79,8.79,0,0,1,635.463,786.059Zm0-16.04a7.26,7.26,0,1,0,7.26,7.26A7.269,7.269,0,0,0,635.463,770.019Z" transform="translate(-626.683 -768.499)" fill="#240448"/></g></g><g transform="translate(379.249 431.789)"><g transform="translate(10.587 125.257)"><path d="M646.393,1407.824H706.1l-2.131-15.966c-30.522,5.176-31.75,8.454-47.326,1.322A40.106,40.106,0,0,0,646.393,1407.824Z" transform="translate(-646.393 -1391.858)" fill="#fccc6c"/></g><g transform="translate(59.291 62.464)"><path d="M870.858,1227.574a12.324,12.324,0,0,1-5.972-1.543l-45.835-25.29a12.385,12.385,0,0,1,11.967-21.689l45.835,25.29a12.387,12.387,0,0,1-5.994,23.232Z" transform="translate(-812.646 -1177.509)" fill="#ff98b5"/></g><path d="M861.259,1185.291l-17.888,26.319-21.81-14.183a15.837,15.837,0,0,1-6.43-21.454h0a15.837,15.837,0,0,1,21.454-6.43Z" transform="translate(-753.77 -1108.071)" fill="#fff"/><g transform="translate(87.114 75.263)"><path d="M912.012,1251.062a4.393,4.393,0,0,1-3.5-7.043l15.937-21.075a4.393,4.393,0,1,1,7.008,5.3l-15.937,21.076A4.386,4.386,0,0,1,912.012,1251.062Z" transform="translate(-907.622 -1221.2)" fill="#fff"/></g><g transform="translate(87.34 97.589)"><path d="M931.547,1346.97a8.819,8.819,0,0,1-2.969-.518h0a8.746,8.746,0,0,1-5-4.52l-14.336-30.252a8.806,8.806,0,0,1,4.186-11.727l3.832-1.816a7.545,7.545,0,0,1,10.027,3.579l1.992,4.2a7.514,7.514,0,0,1-7.069,10.733l5.73,12.093a7.53,7.53,0,0,1,12.786,1.331l1.992,4.2a7.547,7.547,0,0,1-3.582,10.021l-3.832,1.816A8.77,8.77,0,0,1,931.547,1346.97Zm-2.442-1.995a7.19,7.19,0,0,0,5.532-.274l3.832-1.816a5.978,5.978,0,0,0,2.836-7.932l-1.992-4.2a5.947,5.947,0,0,0-10.749-.021.784.784,0,0,1-.708.447h0a.784.784,0,0,1-.708-.448l-6.972-14.712a.784.784,0,0,1,.9-1.1,5.957,5.957,0,0,0,6.794-8.326l-1.992-4.2a5.979,5.979,0,0,0-7.938-2.834l-3.832,1.816a7.236,7.236,0,0,0-3.441,9.638L925,1341.261a7.187,7.187,0,0,0,4.107,3.715Z" transform="translate(-908.393 -1297.412)" fill="#240448"/></g><circle cx="9.751" cy="9.751" r="9.751" transform="translate(18.768 7.397) rotate(-22.289)" fill="#fccc6c"/><path d="M737.374,1011.407h0a4.434,4.434,0,0,0,5.8-2.385l.038-.09a4.434,4.434,0,0,0-2.385-5.8h0a4.434,4.434,0,0,0-5.8,2.385l-.037.09A4.434,4.434,0,0,0,737.374,1011.407Z" transform="translate(-698.206 -991.51)" fill="#240448"/><path d="M1043.252,1133.26a9.665,9.665,0,0,1-2.686,9.677l-37.229,45.75a13.31,13.31,0,1,1-19.9-17.678l41.007-40.747c4.245-4.267,11.3-4.889,15.748-1.389A8.928,8.928,0,0,1,1043.252,1133.26Z" transform="translate(-871.736 -1079.055)" fill="#ff98b5"/><g transform="translate(152.838 40.403)"><path d="M1136.645,1120.12a4.671,4.671,0,0,1-1.737-9.007l21.429-8.575a4.67,4.67,0,1,1,3.47,8.672l-21.429,8.574A4.659,4.659,0,0,1,1136.645,1120.12Z" transform="translate(-1131.972 -1102.204)" fill="#ff98b5"/></g><g transform="translate(157.311 47.825)"><path d="M1151.908,1140.425a4.67,4.67,0,0,1-.641-9.3l25.36-3.546a4.67,4.67,0,0,1,1.293,9.25l-25.36,3.546A4.728,4.728,0,0,1,1151.908,1140.425Z" transform="translate(-1147.243 -1127.538)" fill="#ff98b5"/></g><g transform="translate(161.454 55.557)"><path d="M1166.048,1165.917a4.671,4.671,0,0,1-.727-9.283l16.647-2.643a4.67,4.67,0,1,1,1.464,9.225l-16.647,2.643A4.683,4.683,0,0,1,1166.048,1165.917Z" transform="translate(-1161.383 -1153.932)" fill="#ff98b5"/></g><g transform="translate(151.5 39.658)"><path d="M1132.073,1116.593a4.673,4.673,0,0,1-4.186-6.735l3.739-7.589A4.67,4.67,0,0,1,1140,1106.4l-3.739,7.589A4.671,4.671,0,0,1,1132.073,1116.593Z" transform="translate(-1127.406 -1099.662)" fill="#ff98b5"/></g><path d="M761.458,1217.694l-35.649-4.452.075-50.727a34.192,34.192,0,0,1,5.546-16.23c4.788-7.128,12.156-11.642,20.338-11.642a23.813,23.813,0,0,1,17.462,8,29.171,29.171,0,0,1,2.654,3.316q.237.343.466.695a29.7,29.7,0,0,1,4.091,21.982Z" transform="translate(-691.957 -1084.737)" fill="#47286d"/><path d="M843.178,1179.863a12.168,12.168,0,0,0,23.918-4.5c-1.242-6.6-17.44-19.514-17.44-19.514C843.68,1158.927,841.936,1173.258,843.178,1179.863Z" transform="translate(-774.676 -1099.734)" fill="#47286d"/><g transform="translate(54.559 117.364)"><path d="M799.9,1389.405a.793.793,0,0,1-.253-.042c-3.339-1.133-4.146-7.351-1.837-14.157s6.734-11.251,10.072-10.117a.787.787,0,0,1-.506,1.491c-2.112-.715-5.947,2.858-8.075,9.132s-1.259,11.444.852,12.16a.787.787,0,0,1-.253,1.533Z" transform="translate(-796.494 -1364.912)" fill="#240448"/></g><g transform="translate(73.781 120.578)"><path d="M866.776,1387.375a4.671,4.671,0,0,1-1.184-9.188l8.182-2.15a4.67,4.67,0,0,1,2.374,9.033l-8.182,2.15A4.7,4.7,0,0,1,866.776,1387.375Z" transform="translate(-862.108 -1375.883)" fill="#ff98b5"/></g><g transform="translate(0 59.587)"><path d="M622.635,1229.808a12.386,12.386,0,0,1-9.336-20.519l32.515-37.346A12.386,12.386,0,0,1,664.5,1188.21l-32.516,37.346A12.359,12.359,0,0,1,622.635,1229.808Z" transform="translate(-610.255 -1167.691)" fill="#ff98b5"/></g><path d="M663.134,1179.69l25.665,18.855,12.684-12.684a15.836,15.836,0,0,0,0-22.4h0a15.837,15.837,0,0,0-22.4,0Z" transform="translate(-647.643 -1101.836)" fill="#fff"/><g transform="translate(13.032 74.882)"><path d="M681.964,1246.341a4.372,4.372,0,0,1-2.684-.918l-22.834-17.653a4.393,4.393,0,1,1,5.374-6.951l22.834,17.653a4.393,4.393,0,0,1-2.69,7.869Z" transform="translate(-654.74 -1219.901)" fill="#fff"/></g><path d="M692.753,1342.305a9.664,9.664,0,0,1-10.04.247l-63.445-23.058a13.31,13.31,0,0,1,11.119-24.186l59.758,28.129c5.318,2.819,7.966,9.384,5.913,14.662A8.925,8.925,0,0,1,692.753,1342.305Z" transform="translate(-611.146 -1197.472)" fill="#ff98b5"/><g transform="translate(69.872 125.437)"><path d="M879.164,1402.969c-.071,0-.142,0-.214,0l-25.723-1.158a4.67,4.67,0,1,1,.42-9.33l25.723,1.158a4.67,4.67,0,0,1-.206,9.335Z" transform="translate(-848.767 -1392.471)" fill="#ff98b5"/></g><g transform="translate(72.957 129.462)"><path d="M878.906,1418.539a4.692,4.692,0,0,1-.921-.092l-14.932-2.985a4.67,4.67,0,0,1,1.831-9.159l14.932,2.985a4.671,4.671,0,0,1-.91,9.25Z" transform="translate(-859.298 -1406.212)" fill="#ff98b5"/></g><g transform="translate(72.345 135.584)"><path d="M874.3,1439.8a4.66,4.66,0,0,1-1.22-.163l-12.422-3.352a4.67,4.67,0,0,1,2.433-9.018l12.422,3.353a4.671,4.671,0,0,1-1.214,9.18Z" transform="translate(-857.207 -1427.107)" fill="#ff98b5"/></g><path d="M770.738,1069.843l5.767,23.436,19.715,8.627-4.819-13.485-2.888-11.894-14.933-5.616Z" transform="translate(-723.724 -1038.92)" fill="#ff98b5"/><g transform="translate(50.166 49.952)"><path d="M803.83,1148.757a.924.924,0,0,1-.383-.083l-21.408-9.751a.924.924,0,0,1,.766-1.681l19.553,8.906-3.058-10.157a.924.924,0,1,1,1.769-.533l3.646,12.108a.923.923,0,0,1-.884,1.19Z" transform="translate(-781.499 -1134.802)" fill="#fff"/></g><g transform="translate(28.895 101.692)"><path d="M715.953,1315.163a.921.921,0,0,1-.273-.042l-6.141-1.9a.923.923,0,1,1,.546-1.765l6.141,1.9a.924.924,0,0,1-.273,1.806Z" transform="translate(-708.888 -1311.417)" fill="#240448"/></g><path d="M795,1029.322h0a10.692,10.692,0,0,0,5.072-14.246l-3.8-8.009a14.09,14.09,0,0,0-18.773-6.683h0a14.091,14.091,0,0,0-6.683,18.773l.888,1.87A17.489,17.489,0,0,0,795,1029.322Z" transform="translate(-722.809 -988.844)" fill="#ff98b5"/><path d="M781.569,983.173a17.792,17.792,0,0,0-9-6.768c-4.188-1.24-8.786-.5-12.761,1.141q-.549.227-1.088.48-.312.147-.62.3c-9.433,4.768-14.2,17.107-9.031,26.683,1.038,1.926,5.95,8.485,8.008,9.344,1.619.676,2.811-8.808,4.546-9.068a6.334,6.334,0,0,0,4.368-2.65c1.318-2.017,1.122-4.63.863-7.026a37.775,37.775,0,0,0,9.4-3.638,20.241,20.241,0,0,0,4.894-3.914c.614-.684,1.925-2.627,1.925-2.627S781.85,983.546,781.569,983.173Z" transform="translate(-706.903 -972.417)" fill="#fccc6c"/><path d="M810.7,1060.339h0a1.125,1.125,0,0,0,.879-1.216l-2-26.548-7.283,1.6,7.067,25.331A1.126,1.126,0,0,0,810.7,1060.339Z" transform="translate(-746.037 -1012.57)" fill="#fccc6c"/><circle cx="6.648" cy="6.648" r="6.648" transform="translate(44.342 31.723) rotate(-47.182)" fill="#ff98b5"/><circle cx="3.343" cy="3.343" r="3.343" transform="translate(50.777 35.023) rotate(-5.713)" fill="#fff"/><path d="M861.433,1029.029c2.288,3.266,4.591,6.283,7,7.785a1.494,1.494,0,0,1,.613,1.913,1.471,1.471,0,0,1-1.19.808l-6.115.576Z" transform="translate(-787.85 -1010.063)" fill="#ff98b5"/><g transform="translate(156.083 64.586)"><path d="M1149.085,1189.16c-2.426,0-5.086-.632-5.983-3.172a.924.924,0,1,1,1.743-.615c1.159,3.283,8.237,1.409,8.308,1.389a.924.924,0,1,1,.5,1.781A18.823,18.823,0,0,1,1149.085,1189.16Z" transform="translate(-1143.049 -1184.756)" fill="#e17895"/></g><g transform="translate(57.176 117.497)"><path d="M807.042,1389.862a3.351,3.351,0,0,1-1.081-.176.787.787,0,0,1,.506-1.491c2.111.715,5.947-2.859,8.075-9.132s1.259-11.444-.852-12.16a.787.787,0,1,1,.506-1.491c3.339,1.133,4.146,7.351,1.837,14.157C813.966,1385.661,810.2,1389.862,807.042,1389.862Z" transform="translate(-805.427 -1365.369)" fill="#240448"/></g><g transform="translate(60.194 124.878)"><path d="M822.436,1404.822h0a5.164,5.164,0,0,0,6.181-3.891l.311-1.369a5.165,5.165,0,0,0-3.891-6.182h0a5.165,5.165,0,0,0-6.182,3.891l-.311,1.369A5.165,5.165,0,0,0,822.436,1404.822Z" transform="translate(-817.628 -1392.463)" fill="#fff"/><path d="M821.682,1403.838a5.953,5.953,0,0,1-1.32-.149h0a5.96,5.96,0,0,1-4.485-7.124l.311-1.369a5.952,5.952,0,0,1,11.608,2.639l-.311,1.369A5.963,5.963,0,0,1,821.682,1403.838Zm-.971-1.685a4.381,4.381,0,0,0,5.239-3.3l.311-1.369a4.377,4.377,0,0,0-8.537-1.941l-.311,1.369a4.382,4.382,0,0,0,3.3,5.239Z" transform="translate(-815.729 -1390.562)" fill="#240448"/></g><g transform="translate(29.034 81.206)"><path d="M725.393,1255.3a.92.92,0,0,1-.573-.2l-15.105-11.97a.923.923,0,1,1,1.147-1.447l15.105,11.97a.923.923,0,0,1-.574,1.647Z" transform="translate(-709.365 -1241.486)" fill="#240448"/></g></g><g transform="translate(482.16 453.943)"><path d="M967.473,1039.912l2.1,3.959,3.834,2.166-3.834,2.165-2.1,3.959-2.1-3.959-3.833-2.165,3.833-2.166Z" transform="translate(-961.543 -1039.912)" fill="#fff"/><path d="M992.112,1068.859l3.058,5.774,5.59,3.158-5.59,3.158-3.058,5.774-3.057-5.774-5.59-3.158,5.59-3.158Z" transform="translate(-977.043 -1060.379)" fill="#fff"/></g><g transform="translate(566.065 520.228)"><path d="M1264.936,1284.053c-3.955,0-7.794-1.753-9.161-5.545a9.607,9.607,0,0,1-.519-2.385,11.748,11.748,0,0,1-4.67-3.4,10.619,10.619,0,0,1-2.625-5.689.784.784,0,0,1,1.562-.143,9.167,9.167,0,0,0,2.254,4.811,10.988,10.988,0,0,0,3.454,2.708,13.085,13.085,0,0,1,.229-1.783,5.314,5.314,0,0,1,2.055-3.631,3.574,3.574,0,0,1,5.478,3.688,4.424,4.424,0,0,1-1.4,2.343,5.6,5.6,0,0,1-4.252,1.552q-.223-.013-.45-.043a7.774,7.774,0,0,0,.364,1.439c1.677,4.651,7.6,5.117,11.271,3.962q.187-.059.372-.125a9.524,9.524,0,0,0,2.752-1.507.784.784,0,0,1,.98,1.224,11.086,11.086,0,0,1-3.2,1.759q-.214.076-.43.144A13.6,13.6,0,0,1,1264.936,1284.053Zm-8.157-9.121a4.994,4.994,0,0,0,.65.083,4.078,4.078,0,0,0,3.1-1.141,2.933,2.933,0,0,0,.928-1.5,2.006,2.006,0,0,0-3.074-2.069,3.882,3.882,0,0,0-1.383,2.628A11.307,11.307,0,0,0,1256.779,1274.932Z" transform="translate(-1247.957 -1266.178)" fill="#240448"/></g><g transform="translate(363.607 228.389)"><path d="M667.838,269.974,556.859,292.362l29.352,64.979,19.3-3.839-3.339,32.242L634.747,347.5l62.443-12.547Z" transform="translate(-556.859 -269.974)" fill="#dce5f7"/><g transform="translate(19.418 0.872)"><path d="M646.954,376.023a7.575,7.575,0,0,1-5.454-2.113c-5.191-5-3.712-17.127-3.363-19.508a52,52,0,0,1,12.651-26.94c1.987-2.209,4.185-4.263,6.31-6.25a68.892,68.892,0,0,0,8.662-9.146c3-4.073,5.95-12.794,3.7-18.578a7.7,7.7,0,0,0-6.107-4.909c-3.906-.763-6.116,3.249-7.607,6.83-.3.713-.583,1.431-.87,2.148-1.533,3.837-3.118,7.805-6.232,10.933-3.138,3.151-7.111,5.169-10.954,7.121-5.057,2.568-9.834,4.994-12.831,9.781a.928.928,0,1,1-1.573-.984c3.27-5.225,8.5-7.882,13.563-10.452,3.713-1.885,7.552-3.835,10.48-6.776,2.847-2.859,4.293-6.479,5.825-10.312.29-.726.58-1.452.88-2.173,1.035-2.486,3.784-9.092,9.676-7.938a9.568,9.568,0,0,1,7.48,6.056c2.362,6.062-.2,15.284-3.931,20.351a70.288,70.288,0,0,1-8.889,9.4c-2.1,1.96-4.265,3.986-6.2,6.135a50.13,50.13,0,0,0-12.2,25.969c-.9,6.142-.7,14.516,2.814,17.9,1.48,1.425,3.425,1.889,5.944,1.421,7.5-1.394,14.634-11,19.355-17.348.433-.583.848-1.141,1.244-1.668,6.55-8.71,11.186-18.824,15.67-28.6q.567-1.236,1.133-2.469c2.143-4.657,7.6-15.352,12.46-15.352.08,0,.158,0,.238.008,1.942.142,3.424,1.91,4.406,5.254a29.292,29.292,0,0,1,.891,7.164,37.014,37.014,0,0,0,.453,5.184c.6,3.247,2.406,5.8,4.493,6.355,1.957.519,3.637-.872,4.7-2.13,5.846-6.919,3.712-16.631,2.522-20.486-.8-2.6-1.856-5.172-2.876-7.664s-2.076-5.071-2.9-7.7c-1.695-5.444-3.592-15.265,2.748-19.883a8.44,8.44,0,0,1,4.767-1.7h.029a.928.928,0,0,1,.028,1.855,6.622,6.622,0,0,0-3.732,1.344c-5.607,4.084-3.315,13.831-2.069,17.832.8,2.556,1.835,5.1,2.841,7.553,1.036,2.53,2.106,5.146,2.932,7.82,1.279,4.146,3.559,14.611-2.878,22.23-1.993,2.358-4.335,3.325-6.594,2.726-2.809-.745-5.1-3.812-5.841-7.811a38.4,38.4,0,0,1-.483-5.446,27.508,27.508,0,0,0-.818-6.717c-.51-1.736-1.4-3.827-2.761-3.926-2.876-.213-7.647,7.25-10.877,14.268q-.567,1.232-1.132,2.466c-4.524,9.87-9.2,20.077-15.874,28.947-.394.523-.807,1.079-1.237,1.659-4.894,6.586-12.29,16.539-20.505,18.066A11.6,11.6,0,0,1,646.954,376.023Z" transform="translate(-623.142 -272.952)" fill="#fff"/></g></g><g transform="translate(414.526 269.072)"><circle cx="4.978" cy="4.978" r="4.978" transform="translate(0 0)" fill="#47286d"/><circle cx="4.978" cy="4.978" r="4.978" transform="translate(17.709)" fill="#47286d"/><circle cx="4.978" cy="4.978" r="4.978" transform="translate(35.417)" fill="#47286d"/></g><g transform="translate(483.317 274.792)"><path d="M979.79,465.545a1.034,1.034,0,0,1-.965-1.405l7.24-18.789-19.19,6.87a1.034,1.034,0,0,1-1.331-1.293l7.1-21.84a1.034,1.034,0,0,1,1.966.64l-6.453,19.837,19.331-6.921a1.034,1.034,0,0,1,1.313,1.345l-7.227,18.755,18.957-7.041a1.034,1.034,0,1,1,.72,1.938l-21.105,7.839A1.028,1.028,0,0,1,979.79,465.545Z" transform="translate(-965.493 -428.375)" fill="#31d9e7"/></g></g></svg>