<svg id="Capa_1" data-name="Capa 1" xmlns="http://www.w3.org/2000/svg" viewBox="0 0 776.33 589.11"><defs><style>.cls-1{fill:#f9e478;}.cls-1,.cls-4{isolation:isolate;}.cls-1,.cls-6{opacity:0.25;}.cls-15,.cls-19,.cls-2,.cls-21{fill:none;stroke-miterlimit:10;}.cls-2{stroke:#666;}.cls-3{fill:#18b8c4;}.cls-5{fill:#2d2d2d;}.cls-7{fill:#f17781;}.cls-8{fill:#bb83ff;}.cls-9{fill:#1a2e35;}.cls-10{fill:#ffbf9d;}.cls-11{fill:#ff9a6c;}.cls-12{fill:#375a64;}.cls-13{fill:#f5f5f5;}.cls-14{fill:#e1e1e1;}.cls-15,.cls-19{stroke:#44555b;}.cls-16{fill:#fafafa;}.cls-17{fill:#c78976;}.cls-18{fill:#bf654e;}.cls-19{stroke-width:0.05px;}.cls-20{opacity:0.2;}.cls-21{stroke:#b7b7b7;stroke-dasharray:3;}.cls-22{fill:#31d9e7;}.cls-23{fill:#fff;}</style></defs><path class="cls-1" d="M457,416h-46.8a28.72,28.72,0,0,1-47.71,0h-46.8a7,7,0,0,0-7,7h0v30.69a7,7,0,0,0,7,7H457a7,7,0,0,0,7-7h0V423a7,7,0,0,0-7-7Z" transform="translate(0)"/><path class="cls-2" d="M239.57,531.05H125.16a15.93,15.93,0,0,1-15.93-15.93V312.84" transform="translate(0)"/><path class="cls-2" d="M667.16,312.84V515.12a15.93,15.93,0,0,1-15.93,15.93H511.71" transform="translate(0)"/><path class="cls-3" d="M268.18,522l-2.34,2.34,5,5H257.2v3.32h13.66l-5,5,2.34,2.35,9-9Z" transform="translate(0)"/><rect class="cls-3" x="249.13" y="529.39" width="5.24" height="3.32"/><rect class="cls-3" x="243.29" y="529.39" width="2.76" height="3.32"/><path class="cls-3" d="M483.17,540.08l2.35-2.35-5-5h13.66v-3.32H480.5l5-5L483.17,522l-9,9Z" transform="translate(0)"/><rect class="cls-3" x="496.99" y="529.39" width="5.24" height="3.32"/><rect class="cls-3" x="505.31" y="529.39" width="2.76" height="3.32"/><g class="cls-4"><g class="cls-4"><path class="cls-5" d="M369,443.12a4.53,4.53,0,0,1-1.53,3.25,5.33,5.33,0,0,1-3.62,1.18A4.82,4.82,0,0,1,360,445.9a6.76,6.76,0,0,1-1.42-4.55v-.78a7.54,7.54,0,0,1,.66-3.25,4.86,4.86,0,0,1,1.85-2.16,5.83,5.83,0,0,1,6.38.43,4.86,4.86,0,0,1,1.56,3.33h-2.63a2.72,2.72,0,0,0-.69-1.79,2.53,2.53,0,0,0-1.81-.56,2.23,2.23,0,0,0-2,.94,5.26,5.26,0,0,0-.67,2.93v1a5.76,5.76,0,0,0,.62,3,2.2,2.2,0,0,0,2,1,2.56,2.56,0,0,0,1.82-.56,2.51,2.51,0,0,0,.69-1.72Z" transform="translate(0)"/><path class="cls-5" d="M370.16,442.54a5.7,5.7,0,0,1,.54-2.53,4,4,0,0,1,1.57-1.71,4.63,4.63,0,0,1,2.38-.61,4.35,4.35,0,0,1,3.14,1.18,4.77,4.77,0,0,1,1.36,3.2l0,.65a4.94,4.94,0,0,1-1.23,3.51,4.75,4.75,0,0,1-6.56,0,5.06,5.06,0,0,1-1.22-3.59Zm2.54.18a3.55,3.55,0,0,0,.51,2.07,1.67,1.67,0,0,0,1.46.72,1.7,1.7,0,0,0,1.44-.71,4,4,0,0,0,.51-2.27,3.58,3.58,0,0,0-.51-2.06,1.69,1.69,0,0,0-1.46-.73,1.65,1.65,0,0,0-1.44.73A3.94,3.94,0,0,0,372.7,442.72Zm2.45-8.84h2.77l-2.44,2.72h-2.06Z" transform="translate(0)"/><path class="cls-5" d="M380.33,442.55a5.76,5.76,0,0,1,1-3.54,3.25,3.25,0,0,1,2.73-1.32,2.9,2.9,0,0,1,2.29,1v-4.85h2.55v13.5h-2.29l-.12-1a3,3,0,0,1-2.45,1.18,3.23,3.23,0,0,1-2.69-1.32A5.9,5.9,0,0,1,380.33,442.55Zm2.54.19a3.74,3.74,0,0,0,.47,2.05,1.51,1.51,0,0,0,1.35.72,1.69,1.69,0,0,0,1.66-1v-3.76a1.66,1.66,0,0,0-1.64-1C383.49,439.76,382.87,440.75,382.87,442.74Z" transform="translate(0)"/><path class="cls-5" d="M390.85,435.41a1.23,1.23,0,0,1,.39-.94,1.41,1.41,0,0,1,1-.37,1.44,1.44,0,0,1,1,.37,1.35,1.35,0,0,1,0,1.89,1.62,1.62,0,0,1-2.06,0A1.28,1.28,0,0,1,390.85,435.41Zm2.7,12H391v-9.51h2.55Z" transform="translate(0)"/><path class="cls-5" d="M395.28,442.55a5.52,5.52,0,0,1,1-3.52,3.37,3.37,0,0,1,2.8-1.34,3,3,0,0,1,2.44,1.08l.11-.9H404v9.19a4,4,0,0,1-.57,2.17,3.63,3.63,0,0,1-1.59,1.41,5.66,5.66,0,0,1-2.41.48,5.35,5.35,0,0,1-2-.41,3.64,3.64,0,0,1-1.5-1.08l1.12-1.55a3,3,0,0,0,2.3,1.07,2.24,2.24,0,0,0,1.58-.54,2.08,2.08,0,0,0,.56-1.54v-.51a3,3,0,0,1-2.31,1,3.36,3.36,0,0,1-2.78-1.34,5.58,5.58,0,0,1-1.05-3.55Zm2.54.19a3.5,3.5,0,0,0,.51,2,1.66,1.66,0,0,0,1.43.74,1.77,1.77,0,0,0,1.66-.87v-4a1.76,1.76,0,0,0-1.64-.87,1.66,1.66,0,0,0-1.44.75A3.89,3.89,0,0,0,397.82,442.74Z" transform="translate(0)"/><path class="cls-5" d="M405.52,442.54a5.7,5.7,0,0,1,.55-2.53,4,4,0,0,1,1.57-1.71,4.59,4.59,0,0,1,2.37-.61,4.36,4.36,0,0,1,3.15,1.18,4.72,4.72,0,0,1,1.35,3.2l0,.65a5,5,0,0,1-1.22,3.51,4.75,4.75,0,0,1-6.56,0,5.06,5.06,0,0,1-1.23-3.59Zm2.54.18a3.55,3.55,0,0,0,.51,2.07,1.83,1.83,0,0,0,2.9,0,3.86,3.86,0,0,0,.52-2.27,3.51,3.51,0,0,0-.52-2.06,1.67,1.67,0,0,0-1.46-.73,1.65,1.65,0,0,0-1.44.73A3.94,3.94,0,0,0,408.06,442.72Z" transform="translate(0)"/></g></g><g class="cls-6"><path class="cls-7" d="M742.8,262.29H598.63a28.72,28.72,0,0,1,0,44.71H742.8a6.32,6.32,0,0,0,6.33-6.32h0V268.61A6.32,6.32,0,0,0,742.8,262.29Z" transform="translate(0)"/></g><g class="cls-4"><g class="cls-4"><path class="cls-5" d="M624.89,287.92h-2.1v4.69h-2.64v-12.8h4.75a5.39,5.39,0,0,1,3.5,1,3.49,3.49,0,0,1,1.23,2.86,4,4,0,0,1-.56,2.18,3.85,3.85,0,0,1-1.72,1.39l2.77,5.23v.13h-2.83Zm-2.1-2.13h2.12a2.15,2.15,0,0,0,1.54-.51,1.82,1.82,0,0,0,.55-1.39,1.92,1.92,0,0,0-.52-1.43,2.16,2.16,0,0,0-1.58-.52h-2.11Z" transform="translate(0)"/><path class="cls-5" d="M635.85,292.78a4.7,4.7,0,0,1-3.41-1.28,4.6,4.6,0,0,1-1.31-3.42v-.25a5.73,5.73,0,0,1,.55-2.56,4.08,4.08,0,0,1,1.57-1.74,4.39,4.39,0,0,1,2.32-.61,4,4,0,0,1,3.07,1.23,5,5,0,0,1,1.12,3.49v1H633.7a2.31,2.31,0,0,0,.75,1.49,2.2,2.2,0,0,0,1.56.56,2.74,2.74,0,0,0,2.3-1.06l1.25,1.4a3.86,3.86,0,0,1-1.55,1.26A5.09,5.09,0,0,1,635.85,292.78Zm-.29-7.81a1.58,1.58,0,0,0-1.23.51,2.69,2.69,0,0,0-.6,1.47h3.53v-.21a1.86,1.86,0,0,0-.46-1.31A1.61,1.61,0,0,0,635.56,285Z" transform="translate(0)"/><path class="cls-5" d="M645.15,290.73a1.73,1.73,0,0,0,1.15-.38,1.36,1.36,0,0,0,.45-1h2.39a3.36,3.36,0,0,1-.53,1.77,3.52,3.52,0,0,1-1.42,1.25,4.54,4.54,0,0,1-2,.44,4.12,4.12,0,0,1-3.22-1.3,5.13,5.13,0,0,1-1.18-3.58v-.16a5.06,5.06,0,0,1,1.17-3.51,4.1,4.1,0,0,1,3.21-1.31,4,4,0,0,1,2.86,1,3.6,3.6,0,0,1,1.1,2.7h-2.39a1.75,1.75,0,0,0-.45-1.21,1.71,1.71,0,0,0-2.5.18,3.8,3.8,0,0,0-.46,2.1V288a3.78,3.78,0,0,0,.45,2.11A1.54,1.54,0,0,0,645.15,290.73Z" transform="translate(0)"/><path class="cls-5" d="M655,292.78a4.67,4.67,0,0,1-3.4-1.28,4.57,4.57,0,0,1-1.32-3.42v-.25a5.73,5.73,0,0,1,.56-2.56,4.08,4.08,0,0,1,1.57-1.74,4.33,4.33,0,0,1,2.31-.61,3.93,3.93,0,0,1,3.07,1.23,5,5,0,0,1,1.12,3.49v1h-6a2.34,2.34,0,0,0,.74,1.49,2.22,2.22,0,0,0,1.57.56,2.73,2.73,0,0,0,2.29-1.06l1.25,1.4a3.73,3.73,0,0,1-1.55,1.26A5.09,5.09,0,0,1,655,292.78Zm-.29-7.81a1.58,1.58,0,0,0-1.22.51,2.62,2.62,0,0,0-.61,1.47h3.54v-.21a1.91,1.91,0,0,0-.46-1.31A1.63,1.63,0,0,0,654.67,285Z" transform="translate(0)"/><path class="cls-5" d="M668.88,287.94a5.74,5.74,0,0,1-1,3.52,3.21,3.21,0,0,1-2.7,1.32,2.93,2.93,0,0,1-2.32-1v4.48h-2.54V283.1h2.35l.09.93a3,3,0,0,1,2.41-1.11,3.21,3.21,0,0,1,2.73,1.3,5.87,5.87,0,0,1,1,3.59Zm-2.54-.19a3.75,3.75,0,0,0-.47-2,1.54,1.54,0,0,0-1.37-.72,1.64,1.64,0,0,0-1.64.91v3.89a1.68,1.68,0,0,0,1.66.94C665.73,290.73,666.34,289.74,666.34,287.75Z" transform="translate(0)"/><path class="cls-5" d="M673.49,280.76v2.34h1.63V285h-1.63v4.75a1.14,1.14,0,0,0,.2.75,1,1,0,0,0,.78.23,4,4,0,0,0,.74-.06v1.92a5,5,0,0,1-1.54.23,2.43,2.43,0,0,1-2.72-2.7V285h-1.39V283.1H671v-2.34Z" transform="translate(0)"/><path class="cls-5" d="M675.87,287.76a5.56,5.56,0,0,1,.55-2.52,3.89,3.89,0,0,1,1.57-1.71,4.5,4.5,0,0,1,2.37-.61,4.33,4.33,0,0,1,3.15,1.18,4.7,4.7,0,0,1,1.35,3.2l0,.65a5,5,0,0,1-1.22,3.51,4.74,4.74,0,0,1-6.56,0,5,5,0,0,1-1.23-3.58Zm2.54.18a3.57,3.57,0,0,0,.51,2.08,1.7,1.7,0,0,0,1.46.71,1.65,1.65,0,0,0,1.44-.71,3.82,3.82,0,0,0,.52-2.26,3.49,3.49,0,0,0-.52-2.06,1.81,1.81,0,0,0-2.9,0A4,4,0,0,0,678.41,287.94Z" transform="translate(0)"/><path class="cls-5" d="M691.79,285.48a6.43,6.43,0,0,0-.91-.07,1.84,1.84,0,0,0-1.89,1v6.23h-2.54V283.1h2.39l.08,1.13a2.34,2.34,0,0,1,2.11-1.31,2.85,2.85,0,0,1,.79.11Z" transform="translate(0)"/></g></g><g class="cls-6"><path class="cls-8" d="M33.6,262.29H177.78a28.71,28.71,0,0,0-4.33,40.38,28.14,28.14,0,0,0,4.33,4.33H33.6a6.32,6.32,0,0,1-6.32-6.32h0V268.61A6.32,6.32,0,0,1,33.6,262.29Z" transform="translate(0)"/></g><path class="cls-9" d="M631.54,151.55c.6,1.53-.42,3.21-1.57,4.4s-2.53,2.31-2.89,3.92c-.3,1.35.2,2.76.08,4.13a19,19,0,0,1-1.32,4,13.28,13.28,0,0,0,.23,7.57,14.05,14.05,0,0,0,2.82,5.58,7.43,7.43,0,0,0,5.51,2.64,2.19,2.19,0,0,0,1.63-.59,2.61,2.61,0,0,0,.47-1.45,140.27,140.27,0,0,0,0-31.86" transform="translate(0)"/><path class="cls-9" d="M632.65,185.67a8.45,8.45,0,0,0-8.44,8.47,2.44,2.44,0,0,0,0,.27,9.73,9.73,0,0,0-7,10.91,35.84,35.84,0,0,1,1.08,4.58,20.76,20.76,0,0,1-.84,5.07,15.91,15.91,0,0,0,.92,9.12c.72,1.75,2.06,3.54,4,3.6a3.9,3.9,0,0,0,3.17-1.86,9.78,9.78,0,0,0,1.28-3.59c.81-4.11,1.06-8.33,2.18-12.37s3.32-8,7-10.06c2-1.14,4.43-1.67,6-3.34a6.58,6.58,0,0,0,1.18-6.79,8.67,8.67,0,0,0-5.15-4.81" transform="translate(0)"/><path class="cls-9" d="M664.32,155.31c.06-1.95-1.75-3.46-3.57-4.18s-3.84-1-5.46-2.08c-1.44-1-2.4-2.47-3.62-3.7a12,12,0,0,0-20.24,5.52c-.7,2.78-.23,6.07,2,7.92,2.54,2.15,6.32,1.67,9.58,1s7-1.32,9.69.59c1.64,1.16,2.58,3,3.58,4.78s2.27,3.51,4.17,4.17,4.48-.48,4.55-2.48" transform="translate(0)"/><path class="cls-10" d="M656.61,155.71a3.28,3.28,0,0,1,2.92,3.33h0l-1.95,44.17c-.08,5.22-7.71,8.15-13.29,8h0c-5.64-.13-5.82-2.9-5.89-7.86-.12-8.29-.11-11.4-.12-11.36s-7.12-1.2-8.58-10.5c-.72-4.63-.47-12.21-.07-18.4.37-5.58,4.08-12.42,9.64-11.82Z" transform="translate(0)"/><path class="cls-9" d="M631.24,168.94a1.19,1.19,0,0,0,1.14,1.21,1.14,1.14,0,0,0,1.23-1v0a1.2,1.2,0,0,0-1.15-1.21,1.14,1.14,0,0,0-1.23,1Z" transform="translate(0)"/><path class="cls-9" d="M631.27,167.05c.15.16,1.05-.51,2.34-.5s2.22.65,2.36.49-.08-.35-.49-.65a3.3,3.3,0,0,0-1.89-.59,3.17,3.17,0,0,0-1.86.6C631.33,166.7,631.2,167,631.27,167.05Z" transform="translate(0)"/><path class="cls-9" d="M643.57,168.94a1.19,1.19,0,0,0,1.14,1.21,1.14,1.14,0,0,0,1.23-1.05v0a1.19,1.19,0,0,0-1.15-1.21,1.14,1.14,0,0,0-1.23,1Z" transform="translate(0)"/><path class="cls-9" d="M643.88,167.32c.15.15,1.06-.51,2.34-.5s2.22.65,2.36.49-.08-.35-.49-.65a3.26,3.26,0,0,0-1.89-.59,3.17,3.17,0,0,0-1.86.6C643.94,167,643.81,167.25,643.88,167.32Z" transform="translate(0)"/><path class="cls-9" d="M639.21,176.83a7.86,7.86,0,0,0-2.09-.38c-.33,0-.64-.1-.69-.33a1.64,1.64,0,0,1,.22-1l1-2.49a41.74,41.74,0,0,0,2.19-6.53,44.64,44.64,0,0,0-2.71,6.33c-.32.88-.63,1.72-.93,2.51a1.86,1.86,0,0,0-.17,1.29.82.82,0,0,0,.53.48,2.16,2.16,0,0,0,.56.08A8.84,8.84,0,0,0,639.21,176.83Z" transform="translate(0)"/><path class="cls-11" d="M638.28,192a23.66,23.66,0,0,0,12.47-3.3s-3,6.38-12.35,5.49Z" transform="translate(0)"/><path class="cls-11" d="M639.74,179.92a2.3,2.3,0,0,1,2.08-.85,2.08,2.08,0,0,1,1.45.78,1.34,1.34,0,0,1,.1,1.53,1.54,1.54,0,0,1-1.68.42,4.81,4.81,0,0,1-1.64-1,1.31,1.31,0,0,1-.36-.38.42.42,0,0,1,0-.48" transform="translate(0)"/><path class="cls-9" d="M643,177.72c-.21,0-.22,1.38-1.41,2.37s-2.68.83-2.69,1,.33.27,1,.29a3.43,3.43,0,0,0,2.24-.77,3,3,0,0,0,1.09-2C643.23,178.06,643.07,177.71,643,177.72Z" transform="translate(0)"/><path class="cls-9" d="M643.31,165.07c.13.35,1.41.19,2.91.37s2.73.6,2.93.29c.09-.15-.12-.48-.61-.82a5.11,5.11,0,0,0-4.45-.5C643.54,164.63,643.26,164.9,643.31,165.07Z" transform="translate(0)"/><path class="cls-9" d="M631.75,163.34c.22.29,1.11,0,2.17,0s2,.2,2.17-.1c.09-.15-.05-.44-.44-.72a3.14,3.14,0,0,0-3.5.1C631.77,162.9,631.65,163.2,631.75,163.34Z" transform="translate(0)"/><path class="cls-9" d="M663.11,186.31a8.26,8.26,0,0,1-9.83-9.13c.29-2.29,1.52-4.61.73-6.77-1-2.86-5-3.74-6.11-6.59-.62-1.66-.07-3.6-.77-5.22a6.2,6.2,0,0,0-3.83-3,15.92,15.92,0,0,1-4.56-2c-1.31-1-2.13-3-1.28-4.38a87.92,87.92,0,0,1,20.32,4.94,7.92,7.92,0,0,1,4,2.6c1,1.43.9,3.27.82,5-.39,8.35.88,16.18.49,24.53" transform="translate(0)"/><path class="cls-12" d="M665.32,183.69l.16-.05a1.83,1.83,0,0,0,.42-.21,3.1,3.1,0,0,0,1.16-1.37,4.55,4.55,0,0,0,.3-2.82,8.9,8.9,0,0,0-1.69-3.38,25,25,0,0,1-2.55-3.75,5.77,5.77,0,0,1-.62-2.4,7.89,7.89,0,0,1,.55-2.59,8,8,0,0,0,.55-2.81,6.28,6.28,0,0,0-3-5.08,7.2,7.2,0,0,0-3.07-.88,12.83,12.83,0,0,1-3.07-.53,4,4,0,0,1-2.15-1.94,14.89,14.89,0,0,1-1-2.75,15.88,15.88,0,0,0-1-2.65,9.93,9.93,0,0,0-3.49-3.92,7.47,7.47,0,0,0-4.41-1.14,5.52,5.52,0,0,0-5,3.81,4.48,4.48,0,0,0-.22,1.78,3.22,3.22,0,0,0,.11.62s0-.21,0-.62a4.51,4.51,0,0,1,.26-1.75,5.44,5.44,0,0,1,4.94-3.65,7.34,7.34,0,0,1,4.28,1.14,9.78,9.78,0,0,1,3.38,3.84,14.7,14.7,0,0,1,1,2.62,15.68,15.68,0,0,0,1,2.8,5,5,0,0,0,.94,1.24,4.12,4.12,0,0,0,1.36.82,13.36,13.36,0,0,0,3.13.56,7,7,0,0,1,3,.83,6,6,0,0,1,2.9,4.86,7.7,7.7,0,0,1-.53,2.72,8.1,8.1,0,0,0-.55,2.67,6.13,6.13,0,0,0,.65,2.49,24.51,24.51,0,0,0,2.6,3.77,8.8,8.8,0,0,1,1.7,3.3A4.48,4.48,0,0,1,667,182a3.05,3.05,0,0,1-1.09,1.37C665.53,183.61,665.32,183.67,665.32,183.69Z" transform="translate(0)"/><path class="cls-12" d="M638.3,143.14a1,1,0,0,0-.37.11,4,4,0,0,0-.87.53,4.51,4.51,0,0,0-.92,6.16,3.78,3.78,0,0,0,.68.76c.19.16.3.23.32.21a11.13,11.13,0,0,1-.84-1.08,4.55,4.55,0,0,1,.88-5.9A12.54,12.54,0,0,1,638.3,143.14Z" transform="translate(0)"/><path class="cls-12" d="M617.69,207a6.74,6.74,0,0,1-.26-1,4.51,4.51,0,0,1,.45-2.68,6.21,6.21,0,0,1,2.94-2.74,11.68,11.68,0,0,1,2.28-.81c.83-.21,1.69-.39,2.56-.67A5.81,5.81,0,0,0,628,197.8a3.83,3.83,0,0,0,1.11-2.23c.14-.78.19-1.53.36-2.19a4.41,4.41,0,0,1,.85-1.67,4.78,4.78,0,0,1,2.25-1.53c.63-.19,1-.19,1-.22a.82.82,0,0,0-.27,0,5,5,0,0,0-.76.12,4.83,4.83,0,0,0-2.37,1.51,4.48,4.48,0,0,0-.91,1.74c-.19.69-.25,1.44-.4,2.2a3.63,3.63,0,0,1-1,2.09,5.75,5.75,0,0,1-2.25,1.22c-.85.27-1.71.45-2.54.66a12,12,0,0,0-2.33.85,6.26,6.26,0,0,0-3,2.88,4.51,4.51,0,0,0-.39,2.78,3.12,3.12,0,0,0,.24.73A1.71,1.71,0,0,0,617.69,207Z" transform="translate(0)"/><path class="cls-9" d="M658.14,190.49c4.71-1.26,8.78-5.87,10.43-10.46s1.66-9.6,1.23-14.46c-.31-3.52-.92-7.24-3.26-9.89-3.53-4-7.34-6-12.66-5.87" transform="translate(0)"/><path class="cls-13" d="M630.64,200.75l4.39-1.1a2.51,2.51,0,0,1-.87-3.06,4,4,0,0,1,3.36-2.49l20-2.26a1.6,1.6,0,0,1,1.68,1q1.34,3.38.09,5.57h.1l3.86.77,6.52,57.71-42.85-2Z" transform="translate(0)"/><path class="cls-9" d="M636.94,199.87a5.37,5.37,0,0,0,.8.15c.52.08,1.28.18,2.22.27a51.88,51.88,0,0,0,14.66-.73c.93-.18,1.67-.35,2.18-.49a4.12,4.12,0,0,0,.78-.23,4.31,4.31,0,0,0-.8.13l-2.19.4a61.19,61.19,0,0,1-14.62.73l-2.21-.19A4.51,4.51,0,0,0,636.94,199.87Z" transform="translate(0)"/><path class="cls-14" d="M656.31,209a30.58,30.58,0,0,0-3.23-4.83A30.13,30.13,0,0,0,656.31,209Z" transform="translate(0)"/><path class="cls-14" d="M642.5,210a29.67,29.67,0,0,0,3.59-4.47A30.18,30.18,0,0,0,642.5,210Z" transform="translate(0)"/><path class="cls-14" d="M648.91,217.35a31,31,0,0,0,1-5.79,15.48,15.48,0,0,0-.64,2.87A15.9,15.9,0,0,0,648.91,217.35Z" transform="translate(0)"/><path class="cls-14" d="M638.37,217.8a46.65,46.65,0,0,0,5.06,5A46.65,46.65,0,0,0,638.37,217.8Z" transform="translate(0)"/><path class="cls-14" d="M652.51,227.63a12,12,0,0,0,4.56-4.83c-.07,0-.88,1.22-2.14,2.55S652.46,227.57,652.51,227.63Z" transform="translate(0)"/><path class="cls-14" d="M648,235.23c0,.07,1.2.46,2.59,1.2S653,238,653,237.88a10,10,0,0,0-5-2.66Z" transform="translate(0)"/><path class="cls-14" d="M640.58,235.72a6,6,0,0,0,.84-.9c.48-.58,1.13-1.41,1.8-2.35s1.24-1.82,1.63-2.47a4.89,4.89,0,0,0,.58-1.08,5.86,5.86,0,0,0-.74,1l-1.7,2.41-1.73,2.39A6.24,6.24,0,0,0,640.58,235.72Z" transform="translate(0)"/><path class="cls-14" d="M639.84,242.2a25.26,25.26,0,0,0,6.4,1.05Q643.06,242.61,639.84,242.2Z" transform="translate(0)"/><path class="cls-14" d="M651.8,199.05s-.21-.32-.43-.87a4.58,4.58,0,0,1-.23-2.29,9.34,9.34,0,0,1,.68-2.24,4.26,4.26,0,0,0,.35-.92,3.32,3.32,0,0,0-.53.84,7.37,7.37,0,0,0-.77,2.29,4.22,4.22,0,0,0,.32,2.4A1.82,1.82,0,0,0,651.8,199.05Z" transform="translate(0)"/><path class="cls-14" d="M643.8,194.73a4.81,4.81,0,0,0-.85,3.62c.08,0,.09-.84.33-1.84S643.87,194.77,643.8,194.73Z" transform="translate(0)"/><path class="cls-10" d="M607.7,235.84l-19.93-35-2.4-6.07s-6.22-13.36-6.65-14.72c-.5-1.57-1.38-1.71-1.94-1.49-.89.35-1.17,1.67-.78,3,.13.47,2.55,7.81,2.55,7.81a18,18,0,0,0-2.06-1.53c-1.53-1-4.34-1-6.93-.07s-3.24,1.41-2.93,2.43a1.37,1.37,0,0,0,.83.83,2.7,2.7,0,0,0,1.92,0c4.18-1.42,6,.46,6,.46l.31.79s-3.14-1-4.92.42a2.48,2.48,0,0,0-.65.76,3.44,3.44,0,0,0-1.28,5.81,1.43,1.43,0,0,0,1.58.4,1.78,1.78,0,0,0,.6-.68,2.41,2.41,0,0,1,.29-.4l1.19,2.1s2.93,4.58,4,6.71L590.23,244a9.68,9.68,0,0,0,12.47,5.66l.15-.06h0a9.69,9.69,0,0,0,5.44-12.57A11.41,11.41,0,0,0,607.7,235.84Z" transform="translate(0)"/><path class="cls-10" d="M586.4,200.72a2,2,0,0,1-2.31-.4c-.64-.55-1.07-1.3-1.66-1.89-1.78-1.78-4.75-1.94-6.44-3.8-.23-.26-.44-.65-.24-.94s.58-.23.9-.17l8.16,1.62" transform="translate(0)"/><path class="cls-11" d="M584.81,195.14a3.37,3.37,0,0,0-.87-.27c-.56-.14-1.37-.33-2.39-.55l-3.55-.75-1-.22a1.69,1.69,0,0,0-1.25.05.68.68,0,0,0-.26.74,1.3,1.3,0,0,0,.32.6,5.86,5.86,0,0,0,.91.81,33.37,33.37,0,0,0,4,1.95,6.51,6.51,0,0,1,1.55,1.05c.42.41.75.87,1.1,1.27a2.9,2.9,0,0,0,2.16,1.21,1.07,1.07,0,0,0,.86-.31,2.79,2.79,0,0,1-.85.13,2.84,2.84,0,0,1-1.92-1.25c-.32-.39-.63-.87-1.07-1.33a6.45,6.45,0,0,0-1.63-1.16,36.34,36.34,0,0,1-4-2,5.23,5.23,0,0,1-.83-.73c-.23-.26-.31-.57-.15-.66s.54,0,.89,0l1,.2,3.57.65c1,.18,1.85.32,2.42.4A3.44,3.44,0,0,0,584.81,195.14Z" transform="translate(0)"/><path class="cls-11" d="M575.83,192.36a3.34,3.34,0,0,0-.94-1.26,2.62,2.62,0,0,0-1.57-.52,7,7,0,0,0-2.08.35,11.25,11.25,0,0,1-2.14.49,3.54,3.54,0,0,1-1.79-.28,1.35,1.35,0,0,1-.76-1,.73.73,0,0,1,0-.44s0,.16.1.42a1.28,1.28,0,0,0,.75.78,3.38,3.38,0,0,0,1.67.19,11.36,11.36,0,0,0,2.07-.5,6.71,6.71,0,0,1,2.18-.33,2.72,2.72,0,0,1,1.7.63,2.42,2.42,0,0,1,.71,1A.85.85,0,0,1,575.83,192.36Z" transform="translate(0)"/><path class="cls-11" d="M575.86,181.06a10.43,10.43,0,0,1,.49,1.46c.31,1,.68,2.2,1.08,3.53l1.15,3.52A8.27,8.27,0,0,1,579,191a7.09,7.09,0,0,1-.64-1.4c-.35-.88-.79-2.12-1.23-3.5s-.78-2.65-1-3.57A6.49,6.49,0,0,1,575.86,181.06Z" transform="translate(0)"/><path class="cls-11" d="M574.7,194.55a1.94,1.94,0,0,1-.48,0,1.45,1.45,0,0,0-1.15.31.77.77,0,0,0-.18.73,3.76,3.76,0,0,0,.37.93,1.77,1.77,0,0,1,.2,1.21,1.48,1.48,0,0,1-.93.94,1.66,1.66,0,0,1-1.31-.13,2,2,0,0,1-.87-.85,6.58,6.58,0,0,1-.58-1.89,4,4,0,0,1,0-1.33.9.9,0,0,1,.18-.45s0,.17-.06.47a4.54,4.54,0,0,0,.1,1.27,7.49,7.49,0,0,0,.61,1.8,1.66,1.66,0,0,0,1.84.83,1.18,1.18,0,0,0,.74-.74,1.48,1.48,0,0,0-.16-1,3.87,3.87,0,0,1-.37-1,1,1,0,0,1,.29-.93,1.51,1.51,0,0,1,1.31-.27A1.45,1.45,0,0,1,574.7,194.55Z" transform="translate(0)"/><path class="cls-11" d="M571.26,198.25s.1.14.09.43a1.33,1.33,0,0,1-.61,1,1.8,1.8,0,0,1-1.77,0,2.93,2.93,0,0,1-1.34-1.71,3.62,3.62,0,0,1,0-2.16,3.44,3.44,0,0,1,1-1.48,3.25,3.25,0,0,1,1-.61,1,1,0,0,1,.42-.09,6.17,6.17,0,0,0-1.29.86,3.37,3.37,0,0,0-.85,1.4,3.46,3.46,0,0,0,0,2,2.71,2.71,0,0,0,1.19,1.55,1.58,1.58,0,0,0,1.52,0,1.28,1.28,0,0,0,.6-.85C571.28,198.4,571.23,198.25,571.26,198.25Z" transform="translate(0)"/><path class="cls-11" d="M577.9,201.54a1.19,1.19,0,0,1,.71-.21,2.84,2.84,0,0,1,1.82.43l-.22.15a8.81,8.81,0,0,1-.15-1,6.56,6.56,0,0,1,.53-3.55,16.59,16.59,0,0,0-.23,3.52,8.93,8.93,0,0,0,.14,1l.06.35-.29-.19a3,3,0,0,0-1.66-.5A6.12,6.12,0,0,1,577.9,201.54Z" transform="translate(0)"/><path class="cls-11" d="M573.75,189.07c.08,0,0,.63-.59,1.11s-1.18.52-1.18.44.5-.24,1-.67S573.67,189,573.75,189.07Z" transform="translate(0)"/><path class="cls-15" d="M663.93,156.79" transform="translate(0)"/><path class="cls-7" d="M636,264.89l-20.84.2,3.5-15.13-1.17,2.86a14.36,14.36,0,0,1-13.29,8.91h0c-6.59,0-11.15-4.9-13.94-10.88-6.52-14-12.81-36.46-12.81-36.46l12.72-11.16c9.2,17.4,17.84,32.51,17.84,32.51s2.5-7.58,4.43-14.35,1.92-10.33,4.88-13.71c4.55-5.19,11.05-6.49,17.08-8l.22,28.1L636,264.89" transform="translate(0)"/><path class="cls-7" d="M659.83,244l-38,7.4L620,265.94h58.22a11.47,11.47,0,0,0,11.62-11.31c0-.35,0-.71,0-1.06-.83-10.63-1.74-23.73-2.44-29.26a37.82,37.82,0,0,0-4.3-12.63c-2.93-5.53-12.73-12.63-21.32-13l-1.62,36.16" transform="translate(0)"/><path class="cls-9" d="M667.06,242.9a1.93,1.93,0,0,0,0-.34v-1c0-.9,0-2.14,0-3.66,0-3.08.06-7.35.3-12.05.12-2.36.27-4.6.43-6.63a27.51,27.51,0,0,1,.77-5.34,7.56,7.56,0,0,1,1.67-3.18,12.09,12.09,0,0,1,1-.88,4.27,4.27,0,0,0-1.08.8,7.45,7.45,0,0,0-1.78,3.2,26.43,26.43,0,0,0-.83,5.37c-.18,2-.34,4.28-.46,6.64-.24,4.71-.27,9-.21,12.07,0,1.55.07,2.8.11,3.66l0,1A1.34,1.34,0,0,0,667.06,242.9Z" transform="translate(0)"/><path class="cls-9" d="M622.6,252.39a5.52,5.52,0,0,1,1.38-1.12,8.38,8.38,0,0,1,1.94-.78c.79-.22,1.71-.4,2.72-.6,4.06-.83,9.66-2,15.87-3.14s11.85-2.1,15.94-2.75l4.84-.78,1.31-.22a2.36,2.36,0,0,0,.46-.1,3.73,3.73,0,0,0-.47,0l-1.32.17c-1.15.15-2.81.39-4.85.69-4.1.61-9.75,1.51-16,2.68s-11.81,2.34-15.86,3.21c-1,.22-1.93.41-2.72.65a8,8,0,0,0-2,.83,4.73,4.73,0,0,0-1,.84l-.22.27C622.62,252.35,622.59,252.38,622.6,252.39Z" transform="translate(0)"/><path class="cls-9" d="M666.94,242.9s.7.22,1.78.66a14.92,14.92,0,0,1,1.84.9,14.74,14.74,0,0,1,3.82,3.21,15,15,0,0,1,1.21,1.66c.62,1,.9,1.66.95,1.64a2.16,2.16,0,0,0-.16-.49,11.18,11.18,0,0,0-.62-1.25,14.53,14.53,0,0,0-1.18-1.72,13.76,13.76,0,0,0-3.89-3.27,14.15,14.15,0,0,0-1.9-.86,8.63,8.63,0,0,0-1.34-.4A2.26,2.26,0,0,0,666.94,242.9Z" transform="translate(0)"/><path class="cls-9" d="M617.92,252a2.29,2.29,0,0,0,.07-.36l.18-1c.14-.91.33-2.23.55-3.86.45-3.25,1-7.76,1.44-12.76s.72-9.53.86-12.81c.08-1.65.12-3,.14-3.89l0-1.06a2.26,2.26,0,0,0,0-.37,1.5,1.5,0,0,0,0,.37l-.06,1c-.06,1-.14,2.27-.23,3.89-.19,3.28-.5,7.8-1,12.8s-1,9.5-1.35,12.76c-.2,1.61-.35,2.92-.47,3.86l-.12,1.05A1.53,1.53,0,0,0,617.92,252Z" transform="translate(0)"/><path class="cls-9" d="M605.33,246.34a2,2,0,0,0,.3-.35,9,9,0,0,0,.7-1,13.92,13.92,0,0,0,1.87-8,10.27,10.27,0,0,0-.17-1.24,1.16,1.16,0,0,0-.12-.45s.06.65.09,1.7a15.53,15.53,0,0,1-1.84,7.87C605.67,245.78,605.29,246.31,605.33,246.34Z" transform="translate(0)"/><path class="cls-16" d="M667.21,223.37a.65.65,0,0,0,.2,0,3.66,3.66,0,0,0,.57.05,8.76,8.76,0,0,0,2.11-.16,14.84,14.84,0,0,0,3-.94c1.09-.45,2.25-1,3.46-1.63a24.92,24.92,0,0,1,3.5-1.47,12,12,0,0,1,3-.59,9.93,9.93,0,0,1,2.82.32.6.6,0,0,0-.18-.09l-.54-.18a7.14,7.14,0,0,0-2.1-.24A11.58,11.58,0,0,0,680,219a23.86,23.86,0,0,0-3.55,1.46c-1.21.6-2.36,1.19-3.44,1.65a15.76,15.76,0,0,1-2.93,1A13.53,13.53,0,0,1,667.21,223.37Z" transform="translate(0)"/><path class="cls-16" d="M660.71,222.08a35.61,35.61,0,0,0,6.23,1.07,36.54,36.54,0,0,0-6.23-1.06Z" transform="translate(0)"/><path class="cls-16" d="M667.44,233.37a3.72,3.72,0,0,0,.77.33c.5.2,1.23.46,2.14.75a53.46,53.46,0,0,0,7.26,1.8c1.44.26,2.83.44,4.09.57a17.27,17.27,0,0,0,3.37.09,5.59,5.59,0,0,0,2.19-.63,3,3,0,0,0,.53-.34l.16-.14s-.25.16-.73.39a6.46,6.46,0,0,1-2.16.53,18.64,18.64,0,0,1-3.34-.15c-1.25-.14-2.62-.33-4.06-.59a64.83,64.83,0,0,1-7.26-1.71l-2.16-.66A5.65,5.65,0,0,0,667.44,233.37Z" transform="translate(0)"/><path class="cls-16" d="M660.86,236.14a29.65,29.65,0,0,0,5.73.1,15.27,15.27,0,0,0-2.86-.18A14.48,14.48,0,0,0,660.86,236.14Z" transform="translate(0)"/><path class="cls-16" d="M687.92,260.1a1.27,1.27,0,0,0-.06-.28l-.21-.79-.16-.57c-.06-.2-.15-.42-.24-.66a14.56,14.56,0,0,0-.65-1.58l-.43-.9c-.15-.31-.35-.62-.53-.95a22,22,0,0,0-1.29-2,24,24,0,0,0-8.19-7.13c-.71-.37-1.43-.7-2.17-1-.35-.13-.68-.28-1-.39l-1-.3a15.55,15.55,0,0,0-1.66-.43c-.24-.05-.47-.11-.69-.14l-.58-.08-.81-.1a.93.93,0,0,0-.29,0,1,1,0,0,0,.28.07l.8.15.58.1.68.17c.55.13,1.1.28,1.63.46l.94.32c.33.11.65.26,1,.4a23.24,23.24,0,0,1,2.14,1,24.54,24.54,0,0,1,8.11,7c.47.69.94,1.32,1.3,2,.18.32.38.62.53.93l.44.89a14.33,14.33,0,0,1,.69,1.55c.09.24.18.45.26.65l.18.56.26.77A1,1,0,0,0,687.92,260.1Z" transform="translate(0)"/><path class="cls-16" d="M661.54,244a9.3,9.3,0,0,1,2.16,2.71,13.32,13.32,0,0,1,1.21,3.57,35.85,35.85,0,0,1,.5,4.62,33.09,33.09,0,0,0,.54,4.66,12.57,12.57,0,0,0,1.32,3.6,8.06,8.06,0,0,0,1.6,2,5.79,5.79,0,0,0,.55.43.92.92,0,0,0,.21.13,9.48,9.48,0,0,1-2.2-2.68,13.21,13.21,0,0,1-1.24-3.56,35.87,35.87,0,0,1-.51-4.62,33.07,33.07,0,0,0-.53-4.66,12.85,12.85,0,0,0-1.28-3.61,8.08,8.08,0,0,0-1.58-2,4.51,4.51,0,0,0-.54-.44A.67.67,0,0,0,661.54,244Z" transform="translate(0)"/><path class="cls-16" d="M652.57,266c.08,0,0-4.54-.19-10.12s-.4-10.12-.47-10.11,0,4.53.19,10.12S652.49,266,652.57,266Z" transform="translate(0)"/><path class="cls-16" d="M638.3,265.25a3,3,0,0,0,.23-.66,5.28,5.28,0,0,0,.21-.78c.07-.32.17-.67.23-1.06a20.42,20.42,0,0,0,.28-2.81,19.68,19.68,0,0,0-1-6.81,18,18,0,0,0-1.11-2.6c-.17-.36-.37-.67-.52-.94a8.18,8.18,0,0,0-.45-.69,3.84,3.84,0,0,0-.41-.56c-.05,0,.52.85,1.21,2.28a21.53,21.53,0,0,1,1,2.59,22,22,0,0,1,.79,3.32,21.26,21.26,0,0,1,0,6.18C638.54,264.29,638.24,265.23,638.3,265.25Z" transform="translate(0)"/><path class="cls-16" d="M662.54,207.13s.83-.32,2.2-.76a24.88,24.88,0,0,1,11-1c1.42.2,2.29.41,2.3.37a2.49,2.49,0,0,0-.6-.2,16,16,0,0,0-1.67-.36,22.45,22.45,0,0,0-11.14,1c-.53.19-1.06.41-1.58.65A2.94,2.94,0,0,0,662.54,207.13Z" transform="translate(0)"/><path class="cls-16" d="M621,229.24a16,16,0,0,0,2,0c1.2-.05,2.86-.11,4.7-.16s3.5-.06,4.7-.07a17.88,17.88,0,0,0,1.94-.07,1.51,1.51,0,0,0-.52-.06c-.33,0-.82,0-1.42-.07-1.2,0-2.87-.05-4.71,0s-3.5.14-4.7.24l-1.43.13A2.36,2.36,0,0,0,621,229.24Z" transform="translate(0)"/><path class="cls-16" d="M610.61,227.27s.66.28,1.69.78a16.51,16.51,0,0,1,6.57,5.86c.62,1,.92,1.6,1,1.58a1.66,1.66,0,0,0-.17-.47,9.26,9.26,0,0,0-.63-1.21,14.71,14.71,0,0,0-6.65-5.93,11.64,11.64,0,0,0-1.28-.49A2.07,2.07,0,0,0,610.61,227.27Z" transform="translate(0)"/><path class="cls-16" d="M615.73,210.42a7.86,7.86,0,0,1,2.68.37,19.14,19.14,0,0,1,2.7,1.2,22.15,22.15,0,0,0,3.33,1.5,13.64,13.64,0,0,0,6.59.43,11.85,11.85,0,0,0,1.94-.53,2.94,2.94,0,0,0,.68-.3,26.46,26.46,0,0,1-2.65.64,14.31,14.31,0,0,1-6.47-.5,23.14,23.14,0,0,1-3.3-1.46,16.64,16.64,0,0,0-2.76-1.16,5.88,5.88,0,0,0-2-.29,3.29,3.29,0,0,0-.54.05A.51.51,0,0,0,615.73,210.42Z" transform="translate(0)"/><path class="cls-16" d="M618.36,245.66a2.63,2.63,0,0,0,.61.29l.74.28c.29.09.62.22,1,.31a18.76,18.76,0,0,0,2.68.56,20.46,20.46,0,0,0,6.67-.2,19.79,19.79,0,0,0,2.64-.72c.37-.11.7-.26,1-.37l.73-.32a3.84,3.84,0,0,0,.59-.33s-.89.37-2.36.84a21.91,21.91,0,0,1-9.22.85,21.48,21.48,0,0,1-2.66-.49C619.26,246,618.37,245.61,618.36,245.66Z" transform="translate(0)"/><path class="cls-16" d="M606.28,261.22a1,1,0,0,0,.2-.16c.12-.12.32-.29.53-.53a12.2,12.2,0,0,0,1.67-2.24,18.07,18.07,0,0,0,2.34-8.8,35.2,35.2,0,0,0-1.19-9.08c-.28-1.14-.54-2-.72-2.68l-.22-.72a1.09,1.09,0,0,0-.1-.25.75.75,0,0,0,0,.26l.17.74c.16.67.38,1.59.64,2.7a37.58,37.58,0,0,1,1.1,9,18.67,18.67,0,0,1-2.23,8.71,14,14,0,0,1-1.57,2.25C606.51,261,606.26,261.21,606.28,261.22Z" transform="translate(0)"/><path class="cls-16" d="M587.14,243.37a10.6,10.6,0,0,1,2.78-1.57,23.16,23.16,0,0,1,3.37-.87,35.8,35.8,0,0,0,4.19-1,17.2,17.2,0,0,0,6.66-4,15.61,15.61,0,0,0,1.58-1.77,6.12,6.12,0,0,0,.37-.53c.08-.12.12-.19.11-.19a7.16,7.16,0,0,0-.57.65,18.59,18.59,0,0,1-1.62,1.7,17.93,17.93,0,0,1-6.61,3.89,42.56,42.56,0,0,1-4.16,1,20.06,20.06,0,0,0-3.39.94,8.23,8.23,0,0,0-2.07,1.15,4.87,4.87,0,0,0-.49.43C587.18,243.3,587.13,243.36,587.14,243.37Z" transform="translate(0)"/><path class="cls-16" d="M581.12,225.82a4.46,4.46,0,0,0,.57-.49c.17-.16.38-.36.64-.58s.54-.48.88-.74a24.59,24.59,0,0,1,2.45-1.73,24.32,24.32,0,0,1,9.64-3.44c.43-.07.81-.1,1.15-.13s.63-.06.87-.07a3.78,3.78,0,0,0,.74-.07,3.77,3.77,0,0,0-.75,0,6.65,6.65,0,0,0-.87,0c-.34,0-.73,0-1.16.08a22.77,22.77,0,0,0-3,.52,23.21,23.21,0,0,0-6.79,2.9,22.44,22.44,0,0,0-2.43,1.8c-.33.27-.61.54-.86.77s-.42.41-.62.62A4.46,4.46,0,0,0,581.12,225.82Z" transform="translate(0)"/><path class="cls-16" d="M627.13,201.68a3.84,3.84,0,0,0,1,.48,18.67,18.67,0,0,0,5.19,1.21,3.76,3.76,0,0,0,1.11,0c0-.08-1.67-.22-3.68-.7S627.16,201.61,627.13,201.68Z" transform="translate(0)"/><path class="cls-10" d="M608.48,275.75a1.46,1.46,0,0,0,1,1.81,1.52,1.52,0,0,0,.6.05h0a1.45,1.45,0,0,0,1.2-1l.44-1.66-.06,0a1.53,1.53,0,0,0,1.21,1.79,1.61,1.61,0,0,0,.49,0h0c.7,0,1.29-1,1.49-1.53h0a2.85,2.85,0,0,0,2.67-1.29l3.08-4.81,5.72-4.18-3.46-12.35-12.3,8c-.48.37-.55.53-1.32,1.24l-7.94,7.3a2.86,2.86,0,0,0,2.91,0c1.25-.5,6.74-4.2,6.74-4.2l-2.48,10.87" transform="translate(0)"/><path class="cls-11" d="M619,265.58a1.92,1.92,0,0,0-.37.22l-.41.28a3,3,0,0,0-.5.45,2.22,2.22,0,0,0-.42.71c-.1.27-.2.56-.3.86-.21.62-.44,1.28-.67,2-.47,1.4-.88,2.68-1.17,3.61a8.72,8.72,0,0,0-.4,1.52,9.69,9.69,0,0,0,.59-1.46c.33-.92.77-2.18,1.24-3.59.23-.7.44-1.36.65-2l.27-.87a2.12,2.12,0,0,1,.36-.66,2.4,2.4,0,0,1,.45-.45l.38-.32C618.91,265.71,619,265.6,619,265.58Z" transform="translate(0)"/><path class="cls-11" d="M611.61,275.18a2.78,2.78,0,0,0,.17-.51c.11-.39.24-.86.4-1.41.33-1.19.78-2.83,1.36-4.62a16.69,16.69,0,0,1,1.89-4.38,3.73,3.73,0,0,1,1-1c.28-.18.47-.23.46-.26l-.14,0a1.77,1.77,0,0,0-.38.15,3.59,3.59,0,0,0-1.11,1,15.16,15.16,0,0,0-2,4.41c-.57,1.8-1,3.46-1.28,4.66-.14.6-.25,1.1-.31,1.44A1.58,1.58,0,0,0,611.61,275.18Z" transform="translate(0)"/><path class="cls-11" d="M608.43,275.93a2.87,2.87,0,0,0,.22-.55l.48-1.54c.4-1.3.94-3.1,1.51-5.08s1.06-3.74,1.44-5.1a2.51,2.51,0,0,1,.85-1.29,3.1,3.1,0,0,1,.51-.27s-.06,0-.16,0a1.15,1.15,0,0,0-.41.17,2.54,2.54,0,0,0-1,1.31c-.43,1.3-.94,3.1-1.52,5.09s-1.08,3.8-1.43,5.11c-.16.61-.29,1.13-.4,1.56A2.71,2.71,0,0,0,608.43,275.93Z" transform="translate(0)"/><path class="cls-17" d="M219.62,200.22l8.32-9.44c2.25-2.25,3-3.34,2.57-3.73s-.34-.35-5,3.16c0,0,6.62-5.07,4.33-5.1a8.88,8.88,0,0,0-2.74,1.44c1.64-1.4,2.09-2.34,1.78-2.78-.53-.78-4.58,2-6.45,3.39a46.66,46.66,0,0,0,5-4c.7-1-.72-.87-1.88-.47s-8.48,4.1-10.6,5a1.37,1.37,0,0,1-1.88-.48,1.14,1.14,0,0,1-.1-.19c-.78-3.29-3.15-5.43-4.06-5.71a1,1,0,0,0-1,1.72,12.33,12.33,0,0,1,1.4,3.12,8,8,0,0,1,.43,2.7c0,1.06-.08,2-.15,2.72L202,202l12.72,7.38Z" transform="translate(0)"/><path class="cls-18" d="M222.61,191.65a30.38,30.38,0,0,0,6.27-5A30.38,30.38,0,0,0,222.61,191.65Z" transform="translate(0)"/><path class="cls-18" d="M221,190a34.58,34.58,0,0,0,7-4.88A34.31,34.31,0,0,0,221,190Z" transform="translate(0)"/><path class="cls-18" d="M219.81,188.23a31,31,0,0,0,6.69-4.53A30.66,30.66,0,0,0,219.81,188.23Z" transform="translate(0)"/><path class="cls-17" d="M208.86,193l-30.33,38.46,6.95,16.17s8.32-1.84,10.84-5.34,23.3-42.09,23.3-42.09Z" transform="translate(0)"/><path class="cls-9" d="M131.87,139.2c-2.19,1.89-2.18,5.22-1.93,8.1s.45,6.15-1.54,8.24c-1.65,1.73-4.63,2.48-5,4.83a2.7,2.7,0,0,0,4.47,2.45,4.67,4.67,0,0,0,1.42,5.3c1.61,1.13,4.3.44,4.8-1.46a2.38,2.38,0,1,0,4.68.85" transform="translate(0)"/><path class="cls-9" d="M163.12,158.61a2.87,2.87,0,0,0,5.36-2.05l-.07-.16c-.5-1.09-1.69-1.88-1.8-3.08-.14-1.45,1.34-2.48,2.65-3.12s2.85-1.45,3-2.9-1.11-2.49-2.16-3.42-2.08-2.38-1.44-3.63c.34-.64,1-1,1.47-1.58a3.15,3.15,0,0,0-.79-4.22,5.75,5.75,0,0,0-4.56-.84,42.78,42.78,0,0,0-4.56,1.39A19.09,19.09,0,0,1,145,133" transform="translate(0)"/><path class="cls-17" d="M153.81,192.52a10.55,10.55,0,0,1-12.41-8.1l-7.46-34.21A15.19,15.19,0,0,1,145.24,132l.41-.09.78-.12a15.29,15.29,0,0,1,17.11,11.71c1.67,7.22,3.4,15.22,3.93,19.15,1.09,8.13-6.84,10.58-6.84,10.58l1.42,6.85a10.55,10.55,0,0,1-8.19,12.48Z" transform="translate(0)"/><path class="cls-9" d="M162.08,148.81a1.17,1.17,0,0,1-.94,1.33,1.13,1.13,0,0,1-1.35-.84v0a1.16,1.16,0,0,1,.94-1.33,1.13,1.13,0,0,1,1.35.84Z" transform="translate(0)"/><path class="cls-9" d="M162.38,147.67c-.12.18-1.1-.35-2.34-.16s-2.07.94-2.23.81,0-.35.39-.7a3.22,3.22,0,0,1,1.75-.83,3.13,3.13,0,0,1,1.9.31C162.27,147.34,162.44,147.6,162.38,147.67Z" transform="translate(0)"/><path class="cls-9" d="M149.89,150.83a1.16,1.16,0,0,1-.95,1.33,1.12,1.12,0,0,1-1.34-.84v0a1.17,1.17,0,0,1,.94-1.33,1.12,1.12,0,0,1,1.34.84Z" transform="translate(0)"/><path class="cls-9" d="M150.15,149.7c-.12.17-1.1-.35-2.34-.16s-2.07.94-2.23.81,0-.35.39-.7a3.26,3.26,0,0,1,1.76-.84,3.18,3.18,0,0,1,1.89.32C150,149.37,150.21,149.62,150.15,149.7Z" transform="translate(0)"/><path class="cls-9" d="M156,158.29a8,8,0,0,1,2-.66c.31-.08.6-.19.63-.41a1.76,1.76,0,0,0-.35-.92c-.42-.72-.85-1.49-1.3-2.28a41.69,41.69,0,0,1-3.05-6,41.09,41.09,0,0,1,3.52,5.78l1.26,2.3a1.87,1.87,0,0,1,.35,1.23.79.79,0,0,1-.45.54,2,2,0,0,1-.53.16A8.39,8.39,0,0,1,156,158.29Z" transform="translate(0)"/><path class="cls-9" d="M149.76,144.77c-.07.35-1.34.37-2.78.77s-2.56,1-2.8.68c-.11-.13,0-.48.48-.88a5,5,0,0,1,4.25-1.11C149.48,144.37,149.79,144.6,149.76,144.77Z" transform="translate(0)"/><path class="cls-9" d="M161.39,144.13c-.17.32-1.08.15-2.11.29s-1.88.47-2.13.2,0-.44.33-.76a3.09,3.09,0,0,1,3.42-.4C161.31,143.7,161.47,144,161.39,144.13Z" transform="translate(0)"/><path class="cls-9" d="M141.45,140l0,0a6.48,6.48,0,0,0-1.77,4.48v.16c0,2.37.43,4.71.43,7.08a10.58,10.58,0,0,1-1.94,6.67c-.61.76-1.78,1.39-2.47.71a2,2,0,0,1-.45-1c-1.25-5.53-3.5-10.26-4.35-16.11a5,5,0,0,1,1.46-4.31c1.1-1.06,2.46-2.19,3.91-1.74s3.59,2.73,4.8,3.66" transform="translate(0)"/><path class="cls-17" d="M137.21,153.48c-.14,0-5.81-.83-4.82,4.69s6.33,3.4,6.31,3.23S137.21,153.48,137.21,153.48Z" transform="translate(0)"/><path class="cls-18" d="M136.64,159.61s-.09.09-.24.19a1,1,0,0,1-.71.15A2.44,2.44,0,0,1,134.2,158a3.29,3.29,0,0,1,0-1.43,1.16,1.16,0,0,1,.6-.87.49.49,0,0,1,.61.17c.1.14.09.25.12.26s.1-.12,0-.34a.63.63,0,0,0-.28-.3.73.73,0,0,0-.56-.05,1.35,1.35,0,0,0-.85,1,3.33,3.33,0,0,0-.06,1.6,2.54,2.54,0,0,0,1.83,2.13,1,1,0,0,0,.85-.3C136.65,159.75,136.66,159.62,136.64,159.61Z" transform="translate(0)"/><path class="cls-9" d="M136.17,136.87c-1.69-2,1.58-5.76,4.2-7s6.42-.45,9.27,0c1.8.32,3.64.87,5.44.53a12.25,12.25,0,0,0,3.38-1.42,9.26,9.26,0,0,1,3.45-1.22,3.38,3.38,0,0,1,3.19,1.43,2.11,2.11,0,0,1-.73,2.9,1.49,1.49,0,0,1-.25.13,2.76,2.76,0,1,1,1.46,4.95c.7-.71,2.06.1,2.1,1.1a2.89,2.89,0,0,1-1.59,2.38,10.51,10.51,0,0,1-7.42,1c-2.52-.46-4.92-1.39-7.42-1.9s-6.71-1.49-9-.3c-1.67.87-2.58,3.17-3.64,2.85a3.43,3.43,0,0,1-2.12-2.24,9.78,9.78,0,0,1-.35-3.18" transform="translate(0)"/><path class="cls-12" d="M125.35,162.51a.81.81,0,0,1-.29-.12,1.67,1.67,0,0,1-.6-.69,2.41,2.41,0,0,1-.18-1.43,3,3,0,0,1,1-1.62,7.36,7.36,0,0,1,2-1.16,13.49,13.49,0,0,0,2.33-1.12,4.72,4.72,0,0,0,1.69-2.2,7.61,7.61,0,0,0,.49-3c-.05-2.1-.64-4.07-.78-5.93a7.58,7.58,0,0,1,.89-4.8,4.48,4.48,0,0,1,2.62-2,3.4,3.4,0,0,1,.9-.09,1.12,1.12,0,0,1,.31.05,4.79,4.79,0,0,0-1.19.15,4.45,4.45,0,0,0-2.48,2,7.57,7.57,0,0,0-.8,4.67c.15,1.82.75,3.79.8,6a7.81,7.81,0,0,1-.51,3.1,5,5,0,0,1-1.8,2.3,14.11,14.11,0,0,1-2.39,1.13,7.1,7.1,0,0,0-2,1.1,2.72,2.72,0,0,0-1,1.5,2.32,2.32,0,0,0,.13,1.35A1.83,1.83,0,0,0,125.35,162.51Z" transform="translate(0)"/><path class="cls-12" d="M164.29,132.13a1.41,1.41,0,0,1,.24-.13,1.66,1.66,0,0,1,.31-.12,2.12,2.12,0,0,1,.45-.11,3.3,3.3,0,0,1,2.78.85h0a4.41,4.41,0,0,1,1,3.29,5.47,5.47,0,0,1-2,3.75,8.49,8.49,0,0,1-4.6,1.85,18.82,18.82,0,0,1-5.45-.34,24.32,24.32,0,0,1-8-3.11,25.44,25.44,0,0,0-3.32-1.72,9.05,9.05,0,0,0-3.16-.65,9.38,9.38,0,0,0-4.53,1.08,15.77,15.77,0,0,0-1.47.92,6.76,6.76,0,0,1,1.41-1,9.24,9.24,0,0,1,7.83-.55,24.85,24.85,0,0,1,3.37,1.72,24.78,24.78,0,0,0,8,3.06,18.6,18.6,0,0,0,5.37.34,8.28,8.28,0,0,0,4.47-1.77,5.29,5.29,0,0,0,2-3.58,4.32,4.32,0,0,0-.9-3.17h0a3.3,3.3,0,0,0-2.66-.88A7.12,7.12,0,0,0,164.29,132.13Z" transform="translate(0)"/><path class="cls-12" d="M161.21,127.53a3.1,3.1,0,0,1-.19,1.24,5.23,5.23,0,0,1-2.18,2.62,6.26,6.26,0,0,1-2.2.91,9.63,9.63,0,0,1-2.73.15,37,37,0,0,1-6.07-1.36,12.37,12.37,0,0,0-6.07-.35,8,8,0,0,0-4.12,2.68,8.35,8.35,0,0,0-1.58,3c-.21.77-.23,1.22-.27,1.22a1.22,1.22,0,0,1,0-.33,4.77,4.77,0,0,1,.15-.92,8.24,8.24,0,0,1,5.74-5.87,12.31,12.31,0,0,1,6.2.33,37.73,37.73,0,0,0,6,1.37,9.56,9.56,0,0,0,2.67-.11,6.64,6.64,0,0,0,2.14-.86,5.19,5.19,0,0,0,2.18-2.49A7,7,0,0,0,161.21,127.53Z" transform="translate(0)"/><path class="cls-18" d="M158.53,162.43a5.72,5.72,0,0,1-.43,1.57,1.91,1.91,0,0,1-1.18,1.06,1.76,1.76,0,0,1-1.6-.48,2.85,2.85,0,0,1-.74-1.55c-.09-.52,0-1.18.52-1.35a1.3,1.3,0,0,1,.65,0l2.91.53" transform="translate(0)"/><path class="cls-9" d="M158,164.63a4.06,4.06,0,0,1-1.45.28,2.15,2.15,0,0,1-1.36-.62,2.18,2.18,0,0,1-.58-1.7,1.88,1.88,0,0,1,.1-.47c.07-.14.05-.13.17-.15l.47,0,.48,0,1.68.11a5.1,5.1,0,0,0,1.56,0,5,5,0,0,0-1.52-.32l-1.67-.21-.49-.05a4.93,4.93,0,0,0-.54,0,.66.66,0,0,0-.38.14.71.71,0,0,0-.22.32,2.4,2.4,0,0,0-.13.59,2.56,2.56,0,0,0,.75,2.06,2.32,2.32,0,0,0,1.67.65,2.18,2.18,0,0,0,1.14-.32C157.94,164.78,158,164.65,158,164.63Z" transform="translate(0)"/><path class="cls-18" d="M160.62,173.18a18.81,18.81,0,0,1-10.46.55s3.9,3.26,11,2Z" transform="translate(0)"/><path class="cls-16" d="M152.54,248.57a6.64,6.64,0,0,0,.73-.55c.23-.19.5-.42.85-.66s.7-.54,1.15-.81.91-.61,1.45-.91,1.12-.61,1.73-.93a27.17,27.17,0,0,1,8.59-2.57c.68-.07,1.34-.15,2-.17s1.19,0,1.71,0,1,0,1.42,0,.77.05,1.06.08a4.64,4.64,0,0,0,.91.06,5.29,5.29,0,0,0-.9-.16,7.67,7.67,0,0,0-1.06-.13c-.42,0-.9-.09-1.42-.09s-1.11,0-1.73,0-1.28.09-2,.15a26,26,0,0,0-8.66,2.59c-.62.33-1.21.63-1.73,1a16.6,16.6,0,0,0-1.45.95c-.44.29-.81.6-1.14.85s-.56.45-.82.69A8,8,0,0,0,152.54,248.57Z" transform="translate(0)"/><path class="cls-19" d="M163.25,183.23" transform="translate(0)"/><path class="cls-8" d="M183.44,221.56l-4.31-18.68c-1.65-7-3.61-13.78-6.89-14.58v2.17l1.4,53.38s8.79,10,20,4.45c3.5-1.74,9.89-14,9.89-14s14.85-26.53,14.23-27.73-9.7-12.91-10.63-13.49Z" transform="translate(0)"/><path class="cls-8" d="M139.07,183c-8.57,1.65-18.22,6.65-22.66,19.45-1.62,4.68-13.42,39.18-13.42,39.18l20.12-.42,3.28-7.11-1.6,11.54-1.36,16.46,50.81.85-.35-24.79-.49-49.33s-.57-.75-9.33-5.58C158.62,180.28,139.07,183,139.07,183Z" transform="translate(0)"/><g class="cls-20"><path d="M134,216c-.83,10.41-1.8,13.62-2.63,24a9,9,0,0,1-.55,2.89,3.13,3.13,0,0,1-2.1,1.92c-1.48.3-3.4,1.37-3.82-.08l1.4-10a19.59,19.59,0,0,1,1.39-4.23c3.12-6.93,4.27-7.33,6.31-14.51" transform="translate(0)"/></g><path class="cls-8" d="M164.07,188.62l-.17-1.09-1.63-10.39a1.2,1.2,0,0,0-1.3-1l-20,1.67a2.32,2.32,0,0,0-2.1,2.47l.45,6,6.25,8.16,9,1.4" transform="translate(0)"/><path class="cls-9" d="M174.11,208.15c-.07,0-.13,8.14-.13,18.18s.06,18.18.13,18.18.14-8.14.14-18.18S174.19,208.15,174.11,208.15Z" transform="translate(0)"/><path class="cls-9" d="M122.68,242.9a.41.41,0,0,0,.07-.11l.16-.36.61-1.38,2.2-5.11c1.84-4.34,4.37-10.3,7.15-16.89,1.39-3.3,2.71-6.44,3.91-9.31a17.45,17.45,0,0,0,1.29-4.22,23.53,23.53,0,0,0,.35-3.84,15.33,15.33,0,0,0-.8-5.5c-.06-.15-.11-.3-.16-.44l-.19-.36a2.77,2.77,0,0,0-.31-.56l-.23-.33-.08-.1a10.23,10.23,0,0,1,.87,1.83,16,16,0,0,1,.71,5.45,20,20,0,0,1-1.68,8l-3.93,9.3-7.08,16.92c-.88,2.16-1.6,3.91-2.11,5.14-.24.6-.43,1.07-.57,1.4l-.14.37Z" transform="translate(0)"/><path class="cls-16" d="M132.83,184.85a5.57,5.57,0,0,0,.59.5,8.77,8.77,0,0,0,1.92,1.12,14.51,14.51,0,0,0,3.38.95,39.7,39.7,0,0,0,4.62.45c1.73.08,3.61,0,5.63.09a25.75,25.75,0,0,1,6.36.77,11.75,11.75,0,0,1,6,3.53,8.18,8.18,0,0,1,1.67,3.28,7.06,7.06,0,0,1-.06,3.76A6.18,6.18,0,0,1,162,201a4.61,4.61,0,0,1-1.43,1.2,3.12,3.12,0,0,1-1.75.37,2.39,2.39,0,0,1-1.54-.8,4.11,4.11,0,0,1-.78-3.32,5.47,5.47,0,0,1,.5-1.64,7.89,7.89,0,0,1,.93-1.42,10,10,0,0,1,5.39-3.2,11.58,11.58,0,0,1,5.52.07,15.2,15.2,0,0,1,4.23,1.8,20.32,20.32,0,0,1,2.8,2.08c.72.64,1.23,1.18,1.59,1.54l.39.42a.93.93,0,0,0,.14.14,17.54,17.54,0,0,0-2.05-2.17,19.3,19.3,0,0,0-2.79-2.14,15.41,15.41,0,0,0-4.26-1.86,11.62,11.62,0,0,0-5.62-.1,10.1,10.1,0,0,0-5.53,3.25,7.88,7.88,0,0,0-1,1.46,5.46,5.46,0,0,0-.53,1.72,5.68,5.68,0,0,0,0,1.84,3.62,3.62,0,0,0,.8,1.7,2.64,2.64,0,0,0,1.71.88,3.37,3.37,0,0,0,1.92-.4,4.72,4.72,0,0,0,1.51-1.27,6.09,6.09,0,0,0,.92-1.77,7.31,7.31,0,0,0,.07-3.91,8.59,8.59,0,0,0-1.72-3.39,12.09,12.09,0,0,0-6.13-3.6,26.21,26.21,0,0,0-6.42-.75c-2,0-3.91,0-5.62-.05a41.56,41.56,0,0,1-4.61-.42,14.44,14.44,0,0,1-3.37-.89,9.69,9.69,0,0,1-1.92-1.06c-.21-.14-.36-.28-.46-.35Z" transform="translate(0)"/><path class="cls-16" d="M115.44,206.73a.59.59,0,0,0,.23,0c.14,0,.36,0,.64,0a23.84,23.84,0,0,0,2.39-.06c1-.07,2.19-.23,3.5-.41s2.76-.38,4.28-.46a16.46,16.46,0,0,1,4.26.32,10.61,10.61,0,0,1,3.25,1.24,9.34,9.34,0,0,1,2.4,2.12.79.79,0,0,0-.11-.2,5,5,0,0,0-.39-.52,7.12,7.12,0,0,0-1.8-1.57A10.57,10.57,0,0,0,130.8,206a16.57,16.57,0,0,0-4.33-.35c-1.53.09-3,.3-4.3.49s-2.49.37-3.49.46-1.8.14-2.36.14A6.47,6.47,0,0,0,115.44,206.73Z" transform="translate(0)"/><path class="cls-16" d="M128.08,230.31a10.59,10.59,0,0,1,3-.26,16,16,0,0,1,3.5.63c1.35.36,2.84.89,4.52,1.41a18.56,18.56,0,0,0,5.67,1,16.15,16.15,0,0,0,6.46-1.34,15.93,15.93,0,0,0,5.89-4.28,12.47,12.47,0,0,0,2.09-3.27,7.54,7.54,0,0,0,.6-4,5.76,5.76,0,0,0-1.87-3.52,4.09,4.09,0,0,0-1.77-.9,4.16,4.16,0,0,0-3.64,1,3.15,3.15,0,0,0-1,1.64,3.24,3.24,0,0,0,.14,1.85,4.53,4.53,0,0,0,1,1.5,8,8,0,0,0,2.89,1.84,8.91,8.91,0,0,0,1.59.43l.78.15.78.09a17,17,0,0,0,5.74-.4,17.74,17.74,0,0,0,4.44-1.71,15.82,15.82,0,0,0,2.95-2l.53-.46.43-.43a8.68,8.68,0,0,0,.65-.7l.37-.45a.83.83,0,0,0,.12-.16.93.93,0,0,0-.14.14l-.4.43a8.5,8.5,0,0,1-.66.68l-.44.43-.53.44a16,16,0,0,1-3,2,17.55,17.55,0,0,1-4.4,1.65,16.89,16.89,0,0,1-5.67.37L158,224l-.77-.14a9.12,9.12,0,0,1-1.55-.43,7.85,7.85,0,0,1-2.79-1.79,4.19,4.19,0,0,1-.92-1.42,3,3,0,0,1-.13-1.7,3.3,3.3,0,0,1,2.45-2.36,3.66,3.66,0,0,1,1.83,0,3.73,3.73,0,0,1,1.65.85,5.44,5.44,0,0,1,1.77,3.35,7.31,7.31,0,0,1-.58,3.8,12.25,12.25,0,0,1-2,3.2,16.32,16.32,0,0,1-12.15,5.57,18.49,18.49,0,0,1-5.61-.94c-1.67-.5-3.18-1-4.54-1.38a16.27,16.27,0,0,0-3.53-.58,11.42,11.42,0,0,0-1.31,0c-.38.05-.7.08-1,.14l-.58.14A.7.7,0,0,0,128.08,230.31Z" transform="translate(0)"/><path class="cls-16" d="M174.29,224.7s.29-.56.8-1.41a13.75,13.75,0,0,1,5.61-5.24c.9-.45,1.49-.65,1.47-.69a1.28,1.28,0,0,0-.43.1,7.56,7.56,0,0,0-1.12.42,12.23,12.23,0,0,0-5.7,5.31,8.92,8.92,0,0,0-.5,1.09A1.21,1.21,0,0,0,174.29,224.7Z" transform="translate(0)"/><path class="cls-16" d="M194.69,247.21a1.1,1.1,0,0,0,.09-.14l.21-.4c.19-.35.46-.87.8-1.54a36.2,36.2,0,0,0,2.41-5.92,19,19,0,0,0,.75-4.36,12.71,12.71,0,0,0-.1-2.47,14.05,14.05,0,0,0-.62-2.56,11.21,11.21,0,0,0-3.08-4.67,7.65,7.65,0,0,0-5.62-2,4.12,4.12,0,0,0-2.76,1.35,3.38,3.38,0,0,0-.78,2.87,2.54,2.54,0,0,0,.74,1.3,3,3,0,0,0,1.29.7,3.74,3.74,0,0,0,2.74-.33,6.13,6.13,0,0,0,2-1.71,8.86,8.86,0,0,0,1.26-2.14,9.29,9.29,0,0,0,.7-4.36,8.77,8.77,0,0,0-1-3.5,9.37,9.37,0,0,0-1.65-2.21,8.42,8.42,0,0,0-1.35-1.1l-.39-.23-.14-.07.5.35a9.31,9.31,0,0,1,2.9,3.33,8.79,8.79,0,0,1,1,3.44,9.18,9.18,0,0,1-.72,4.26,8.88,8.88,0,0,1-1.24,2.07,6.05,6.05,0,0,1-1.94,1.65,3.5,3.5,0,0,1-2.56.3,2.48,2.48,0,0,1-1.84-1.8,3.14,3.14,0,0,1,.73-2.64,3.92,3.92,0,0,1,2.58-1.25,7.32,7.32,0,0,1,5.41,1.9,11,11,0,0,1,3,4.56,14.28,14.28,0,0,1,.62,2.5,13.11,13.11,0,0,1,.11,2.43,19.12,19.12,0,0,1-.71,4.31,39.2,39.2,0,0,1-2.32,5.93l-.75,1.57-.19.4A.94.94,0,0,0,194.69,247.21Z" transform="translate(0)"/><path class="cls-16" d="M201.19,200.78a.54.54,0,0,0-.05.22c0,.14-.06.36-.08.64a13.29,13.29,0,0,0,0,2.36,15,15,0,0,0,8.48,12.32,13.91,13.91,0,0,0,2.2.85c.26.08.48.12.62.15a.54.54,0,0,0,.22,0,4.9,4.9,0,0,0-.81-.29,17.82,17.82,0,0,1-2.15-.92,15.71,15.71,0,0,1-8.46-14.51A8.24,8.24,0,0,0,201.19,200.78Z" transform="translate(0)"/><path class="cls-16" d="M110.84,223.58a7.63,7.63,0,0,1,2,1.85c.52.68,1,1.56,1.65,2.53a18.9,18.9,0,0,0,7.64,7,15.66,15.66,0,0,0,1.88.81,4.27,4.27,0,0,0,.72.21,3.76,3.76,0,0,0-.68-.31c-.44-.2-1.08-.47-1.84-.88a20.27,20.27,0,0,1-5.27-4.07,20.55,20.55,0,0,1-2.24-2.92,27.77,27.77,0,0,0-1.71-2.51,6.66,6.66,0,0,0-1.5-1.4,4,4,0,0,0-.5-.27A.74.74,0,0,0,110.84,223.58Z" transform="translate(0)"/><path class="cls-9" d="M139.26,183.64a.73.73,0,0,0,.24.07l.7.12c.61.1,1.49.23,2.59.38,2.18.3,5.21.64,8.57.89a44.26,44.26,0,0,0,4.75.17,13.5,13.5,0,0,0,3.83-.66,8.64,8.64,0,0,0,2.35-1.18c.19-.14.37-.29.55-.45s.18-.18.17-.18-.27.21-.79.54a9.42,9.42,0,0,1-2.34,1.09,13.81,13.81,0,0,1-3.78.59,46.45,46.45,0,0,1-4.72-.2c-3.35-.24-6.38-.55-8.57-.8l-2.59-.3A7.77,7.77,0,0,0,139.26,183.64Z" transform="translate(0)"/><path class="cls-17" d="M103.24,245.38a14.13,14.13,0,0,0,11.21,16.54,13.4,13.4,0,0,0,2.53.25l39.83-.44-1.05-12.9-34.15-5.09" transform="translate(0)"/><path class="cls-17" d="M153.3,249.42a37.65,37.65,0,0,0,4.54-1.92,14.82,14.82,0,0,1,7-1.36l9.5.48a4.7,4.7,0,0,1-1.6,2.13c-1,.55-6.91.67-6.91.67l.3.31a6.82,6.82,0,0,0,4.73,2.07l.91,0a9,9,0,0,0,2-.38l2.34-.95c.71-.32,1.46-.27,1.76.45s.08,1.53-1.85,2.51c-1.08.54-5.09,1.93-5.09,1.93a10.73,10.73,0,0,1-.23,1.69c-.18.58-1.75,1.16-1.75,1.16a21.18,21.18,0,0,1-1.4,2.51,14.49,14.49,0,0,1-3.13,1.08,13.4,13.4,0,0,1-7.48-.06l-3.62-1.08v-11" transform="translate(0)"/><path class="cls-18" d="M166.29,256.62a10.71,10.71,0,0,0,4.79-1.26c0-.06-1.07.34-2.39.68S166.28,256.55,166.29,256.62Z" transform="translate(0)"/><path class="cls-18" d="M166.62,258.85a3.53,3.53,0,0,0,2.53-.69C168.32,258.41,167.47,258.64,166.62,258.85Z" transform="translate(0)"/><path class="cls-18" d="M164.88,248.57a4.2,4.2,0,0,0,.74.78,11.75,11.75,0,0,0,2.07,1.57,8.37,8.37,0,0,0,2.42.93,3.52,3.52,0,0,0,1.07.12,14,14,0,0,1-3.37-1.26,16.07,16.07,0,0,1-2.08-1.49A5.46,5.46,0,0,0,164.88,248.57Z" transform="translate(0)"/><path class="cls-8" d="M152.33,247.68l1,14.59H115.78a14,14,0,0,1-7.23-2h0A14,14,0,0,1,102,245.54a43.06,43.06,0,0,1,2.43-8.09l18.86,3.1-.6,2.35Z" transform="translate(0)"/><path class="cls-9" d="M114,241.68a1.89,1.89,0,0,0,.38.09l1.1.2,4,.68,13.33,2.12,13.35,2,4.05.59,1.1.15.39,0a2.34,2.34,0,0,0-.38-.09l-1.1-.2-4-.67-13.33-2.13-13.34-2-4.05-.59-1.1-.14A1.75,1.75,0,0,0,114,241.68Z" transform="translate(0)"/><path class="cls-16" d="M133.19,262.29c.07,0-.22-1.05-.26-2.77a10.93,10.93,0,0,1,.06-1.4,12.43,12.43,0,0,1,.23-1.59,14.68,14.68,0,0,1,1.22-3.46,16,16,0,0,1,2.05-3l.55-.62c.18-.2.38-.37.56-.54a10.64,10.64,0,0,1,1.05-.93c1.34-1.08,2.29-1.58,2.26-1.63a3.25,3.25,0,0,0-.67.34,5.91,5.91,0,0,0-.76.46c-.28.2-.62.4-.95.67a12,12,0,0,0-1.09.92c-.18.18-.39.35-.57.55l-.57.62a14.33,14.33,0,0,0-3.33,6.62,15,15,0,0,0-.21,1.62,13.65,13.65,0,0,0,0,1.43,11.11,11.11,0,0,0,.1,1.16,5,5,0,0,0,.16.87A3.56,3.56,0,0,0,133.19,262.29Z" transform="translate(0)"/><path class="cls-16" d="M110.36,261.19a7.33,7.33,0,0,0,1.74-.21,8.94,8.94,0,0,0,1.94-.68,7.53,7.53,0,0,0,2.2-1.64,7,7,0,0,0,1.61-2.89,8.11,8.11,0,0,0,.28-1.84,7.19,7.19,0,0,0-.16-2,5.89,5.89,0,0,0-.78-1.93,4.42,4.42,0,0,0-1.57-1.5,4,4,0,0,0-2.2-.51,3,3,0,0,0-2.06,1.07,2.89,2.89,0,0,0-.69,2.22,2.59,2.59,0,0,0,1.29,1.84,6.13,6.13,0,0,0,4.14.57,8.65,8.65,0,0,0,7.32-8.28,6.41,6.41,0,0,0-.15-1.75,14.44,14.44,0,0,1,0,1.74,8.79,8.79,0,0,1-1.5,4.43,8.59,8.59,0,0,1-5.75,3.61,5.9,5.9,0,0,1-4-.54,2.37,2.37,0,0,1-1.17-1.66,2.74,2.74,0,0,1,2.51-3,3.64,3.64,0,0,1,2,.47,4.76,4.76,0,0,1,2.24,3.25,6.73,6.73,0,0,1,.16,1.9,7.8,7.8,0,0,1-.25,1.79,6.91,6.91,0,0,1-1.54,2.82,7.62,7.62,0,0,1-2.12,1.62,9.07,9.07,0,0,1-1.9.72C111,261.15,110.35,261.15,110.36,261.19Z" transform="translate(0)"/><g class="cls-4"><g class="cls-4"><path class="cls-5" d="M106.77,283.4h-5.06v3.43h5.94V289H99.07v-12.8h8.56v2.14h-5.92v3h5.06Z" transform="translate(0)"/><path class="cls-5" d="M111.41,279.44l.08,1.06a3.35,3.35,0,0,1,2.73-1.24,2.53,2.53,0,0,1,2.52,1.45,3.28,3.28,0,0,1,2.86-1.45,2.83,2.83,0,0,1,2.3.9,4.13,4.13,0,0,1,.76,2.72V289h-2.55v-6.07a1.81,1.81,0,0,0-.32-1.18,1.39,1.39,0,0,0-1.11-.37,1.58,1.58,0,0,0-1.58,1.09V289h-2.54v-6.06a1.75,1.75,0,0,0-.32-1.19,1.41,1.41,0,0,0-1.11-.37,1.65,1.65,0,0,0-1.56.89V289H109v-9.51Z" transform="translate(0)"/><path class="cls-5" d="M124.59,277A1.23,1.23,0,0,1,125,276a1.63,1.63,0,0,1,2.07,0,1.23,1.23,0,0,1,.39.94,1.27,1.27,0,0,1-.39.95,1.48,1.48,0,0,1-1,.37,1.5,1.5,0,0,1-1-.37A1.27,1.27,0,0,1,124.59,277Zm2.7,12h-2.55v-9.51h2.55Z" transform="translate(0)"/><path class="cls-5" d="M134.53,286.32a.81.81,0,0,0-.46-.73,5.19,5.19,0,0,0-1.48-.48q-3.39-.72-3.39-2.89a2.62,2.62,0,0,1,1.05-2.11,4.26,4.26,0,0,1,2.75-.85,4.54,4.54,0,0,1,2.89.86,2.65,2.65,0,0,1,1.09,2.21h-2.54a1.22,1.22,0,0,0-.36-.9,1.46,1.46,0,0,0-1.09-.36,1.57,1.57,0,0,0-1,.29.94.94,0,0,0-.35.74.79.79,0,0,0,.4.68,3.87,3.87,0,0,0,1.35.45,11.25,11.25,0,0,1,1.6.43,2.62,2.62,0,0,1,2,2.55,2.49,2.49,0,0,1-1.11,2.11,4.82,4.82,0,0,1-2.89.8,5.11,5.11,0,0,1-2.12-.42,3.62,3.62,0,0,1-1.45-1.17,2.75,2.75,0,0,1-.53-1.61h2.41a1.31,1.31,0,0,0,.5,1,2,2,0,0,0,1.25.36,1.88,1.88,0,0,0,1.1-.27A.87.87,0,0,0,134.53,286.32Z" transform="translate(0)"/><path class="cls-5" d="M138.24,284.11a5.57,5.57,0,0,1,.55-2.53,3.89,3.89,0,0,1,1.57-1.71,4.5,4.5,0,0,1,2.37-.61,4.38,4.38,0,0,1,3.15,1.18,4.72,4.72,0,0,1,1.35,3.2l0,.65A5,5,0,0,1,146,287.8a4.75,4.75,0,0,1-6.56,0,5.06,5.06,0,0,1-1.23-3.59Zm2.54.18a3.55,3.55,0,0,0,.51,2.07,1.83,1.83,0,0,0,2.9,0,3.86,3.86,0,0,0,.52-2.27,3.49,3.49,0,0,0-.52-2.06,1.67,1.67,0,0,0-1.46-.73,1.65,1.65,0,0,0-1.44.73A3.94,3.94,0,0,0,140.78,284.29Z" transform="translate(0)"/><path class="cls-5" d="M154.16,281.82a6.43,6.43,0,0,0-.91-.07,1.85,1.85,0,0,0-1.89,1V289h-2.54v-9.51h2.39l.08,1.13a2.34,2.34,0,0,1,2.11-1.31,2.52,2.52,0,0,1,.79.12Z" transform="translate(0)"/></g></g><path class="cls-1" d="M315.87,152.17h46.8a28.75,28.75,0,0,1,47.72,0h46.8a7,7,0,0,0,7-7h0V114.47a7,7,0,0,0-7-7H315.87a7,7,0,0,0-7,7v30.69A7,7,0,0,0,315.87,152.17Z" transform="translate(0)"/><g class="cls-4"><g class="cls-4"><path class="cls-5" d="M355.9,125.13h-2.1v4.68h-2.64V117h4.75a5.33,5.33,0,0,1,3.5,1,3.48,3.48,0,0,1,1.23,2.86,4,4,0,0,1-.56,2.18,3.85,3.85,0,0,1-1.72,1.39l2.77,5.23v.12H358.3ZM353.8,123h2.12a2.15,2.15,0,0,0,1.54-.5,1.82,1.82,0,0,0,.55-1.39,2,2,0,0,0-.52-1.43,2.16,2.16,0,0,0-1.58-.52H353.8Z" transform="translate(0)"/><path class="cls-5" d="M366.86,130a4.7,4.7,0,0,1-3.41-1.28,4.6,4.6,0,0,1-1.31-3.42V125a5.73,5.73,0,0,1,.55-2.56,4.08,4.08,0,0,1,1.57-1.74,4.39,4.39,0,0,1,2.32-.61,4,4,0,0,1,3.07,1.23,5,5,0,0,1,1.12,3.49v1h-6.06a2.31,2.31,0,0,0,.75,1.49,2.2,2.2,0,0,0,1.56.56,2.74,2.74,0,0,0,2.3-1.06l1.25,1.4a3.8,3.8,0,0,1-1.55,1.26A5.09,5.09,0,0,1,366.86,130Zm-.29-7.81a1.58,1.58,0,0,0-1.23.51,2.69,2.69,0,0,0-.6,1.46h3.53V124a1.86,1.86,0,0,0-.46-1.31A1.61,1.61,0,0,0,366.57,122.18Z" transform="translate(0)"/><path class="cls-5" d="M372.9,129.81v-7.64h-1.41v-1.86h1.41v-.81a3.31,3.31,0,0,1,.92-2.49,3.55,3.55,0,0,1,2.57-.88,5.88,5.88,0,0,1,1.3.18l0,2a3.43,3.43,0,0,0-.77-.07c-1,0-1.44.44-1.44,1.34v.77h1.89v1.86h-1.89v7.64Z" transform="translate(0)"/><path class="cls-5" d="M383,130a4.7,4.7,0,0,1-3.41-1.28,4.6,4.6,0,0,1-1.31-3.42V125a5.73,5.73,0,0,1,.55-2.56,4.08,4.08,0,0,1,1.57-1.74,4.39,4.39,0,0,1,2.32-.61,4,4,0,0,1,3.07,1.23,5,5,0,0,1,1.12,3.49v1h-6.06a2.35,2.35,0,0,0,.75,1.49,2.2,2.2,0,0,0,1.56.56,2.74,2.74,0,0,0,2.3-1.06l1.25,1.4a3.8,3.8,0,0,1-1.55,1.26A5.09,5.09,0,0,1,383,130Zm-.29-7.81a1.58,1.58,0,0,0-1.23.51,2.69,2.69,0,0,0-.6,1.46h3.53V124a1.9,1.9,0,0,0-.45-1.31A1.65,1.65,0,0,0,382.75,122.18Z" transform="translate(0)"/><path class="cls-5" d="M393.73,122.69a6.33,6.33,0,0,0-.91-.07,1.86,1.86,0,0,0-1.89,1v6.22h-2.54v-9.5h2.4l.07,1.13a2.36,2.36,0,0,1,2.12-1.31,2.9,2.9,0,0,1,.79.11Z" transform="translate(0)"/><path class="cls-5" d="M399.33,130a4.67,4.67,0,0,1-3.4-1.28,4.57,4.57,0,0,1-1.32-3.42V125a5.73,5.73,0,0,1,.56-2.56,4.08,4.08,0,0,1,1.57-1.74,4.33,4.33,0,0,1,2.31-.61,3.93,3.93,0,0,1,3.07,1.23,5,5,0,0,1,1.12,3.49v1h-6.05a2.34,2.34,0,0,0,.74,1.49,2.22,2.22,0,0,0,1.57.56,2.73,2.73,0,0,0,2.29-1.06l1.25,1.4a3.8,3.8,0,0,1-1.55,1.26A5.09,5.09,0,0,1,399.33,130Zm-.29-7.81a1.58,1.58,0,0,0-1.22.51,2.62,2.62,0,0,0-.61,1.46h3.54V124a1.91,1.91,0,0,0-.46-1.31A1.63,1.63,0,0,0,399,122.18Z" transform="translate(0)"/><path class="cls-5" d="M407,120.31l.08,1.09a3.31,3.31,0,0,1,2.73-1.27,2.76,2.76,0,0,1,2.25.89,4.06,4.06,0,0,1,.76,2.65v6.14H410.3v-6.08a1.65,1.65,0,0,0-.35-1.17,1.59,1.59,0,0,0-1.17-.37,1.76,1.76,0,0,0-1.61.92v6.7h-2.54v-9.5Z" transform="translate(0)"/><path class="cls-5" d="M417.81,118v2.34h1.62v1.86h-1.62v4.74a1.1,1.1,0,0,0,.2.76,1,1,0,0,0,.77.23,4.22,4.22,0,0,0,.75-.06v1.92A5.32,5.32,0,0,1,418,130a2.42,2.42,0,0,1-2.72-2.7v-5.12h-1.39v-1.86h1.39V118Z" transform="translate(0)"/><path class="cls-5" d="M425.22,130a4.69,4.69,0,0,1-3.4-1.28,4.57,4.57,0,0,1-1.32-3.42V125a5.73,5.73,0,0,1,.56-2.56,4.08,4.08,0,0,1,1.57-1.74,4.36,4.36,0,0,1,2.31-.61,4,4,0,0,1,3.08,1.23,5,5,0,0,1,1.12,3.49v1h-6.06a2.34,2.34,0,0,0,.74,1.49,2.24,2.24,0,0,0,1.57.56,2.76,2.76,0,0,0,2.3-1.06l1.24,1.4a3.76,3.76,0,0,1-1.54,1.26A5.11,5.11,0,0,1,425.22,130Zm-.29-7.81a1.58,1.58,0,0,0-1.22.51,2.61,2.61,0,0,0-.6,1.46h3.53V124a1.86,1.86,0,0,0-.46-1.31A1.63,1.63,0,0,0,424.93,122.18Z" transform="translate(0)"/></g></g><line class="cls-21" x1="386.53" y1="228.67" x2="386.53" y2="256.98"/><path class="cls-3" d="M377.5,201.4l2.34,2.35,5-5v13.66h3.32V198.73l5,5,2.35-2.35-9-9Z" transform="translate(0)"/><rect class="cls-3" x="384.87" y="215.22" width="3.32" height="5.24"/><rect class="cls-3" x="384.87" y="223.53" width="3.32" height="2.76"/><line class="cls-21" x1="386.53" y1="341.15" x2="386.53" y2="312.84"/><path class="cls-3" d="M395.56,368.42l-2.34-2.35-5,5V357.43h-3.32V371.1l-5-5-2.35,2.35,9,9Z" transform="translate(0)"/><rect class="cls-3" x="384.87" y="349.37" width="3.32" height="5.24"/><rect class="cls-3" x="384.87" y="343.53" width="3.32" height="2.76"/><path class="cls-22" d="M478.84,261.74H334.67A28.73,28.73,0,0,1,339,302.13a29.06,29.06,0,0,1-4.33,4.33H478.84a6.32,6.32,0,0,0,6.32-6.32h0V268.07a6.33,6.33,0,0,0-6.32-6.33Z" transform="translate(0)"/><g class="cls-4"><g class="cls-4"><path class="cls-5" d="M359.64,279.27l3.28,9.28,3.27-9.28h3.47v12.79H367v-3.5l.26-6-3.45,9.53H362l-3.45-9.52.27,6v3.5h-2.64V279.27Z" transform="translate(0)"/><path class="cls-5" d="M376.17,292.24a4.7,4.7,0,0,1-3.41-1.28,4.6,4.6,0,0,1-1.31-3.42v-.25a5.73,5.73,0,0,1,.55-2.56,4.08,4.08,0,0,1,1.57-1.74,4.39,4.39,0,0,1,2.32-.61,4,4,0,0,1,3.07,1.23,5,5,0,0,1,1.12,3.49v1H374a2.38,2.38,0,0,0,.75,1.5,2.24,2.24,0,0,0,1.56.56,2.74,2.74,0,0,0,2.3-1.06l1.25,1.39a3.9,3.9,0,0,1-1.55,1.27A5.09,5.09,0,0,1,376.17,292.24Zm-.29-7.81a1.6,1.6,0,0,0-1.23.51,2.69,2.69,0,0,0-.6,1.46h3.53v-.2a1.88,1.88,0,0,0-.45-1.31A1.65,1.65,0,0,0,375.88,284.43Z" transform="translate(0)"/><path class="cls-5" d="M383.86,282.55l.08,1.1a3.31,3.31,0,0,1,2.73-1.27,2.73,2.73,0,0,1,2.25.89,4.12,4.12,0,0,1,.76,2.65v6.14h-2.54V286a1.65,1.65,0,0,0-.35-1.17,1.56,1.56,0,0,0-1.17-.37,1.75,1.75,0,0,0-1.61.92v6.7h-2.54v-9.51Z" transform="translate(0)"/><path class="cls-5" d="M396.75,289.44a.81.81,0,0,0-.46-.74,5.19,5.19,0,0,0-1.48-.48q-3.39-.71-3.39-2.88a2.6,2.6,0,0,1,1.05-2.11,4.19,4.19,0,0,1,2.74-.85,4.55,4.55,0,0,1,2.9.85,2.7,2.7,0,0,1,1.09,2.21h-2.54a1.22,1.22,0,0,0-.36-.9,1.87,1.87,0,0,0-2.09-.06.92.92,0,0,0-.35.74.77.77,0,0,0,.4.68,4.34,4.34,0,0,0,1.35.45,10.14,10.14,0,0,1,1.6.42,2.63,2.63,0,0,1,2,2.56,2.47,2.47,0,0,1-1.11,2.1,4.82,4.82,0,0,1-2.89.81,5,5,0,0,1-2.12-.43,3.46,3.46,0,0,1-1.45-1.17,2.65,2.65,0,0,1-.53-1.6h2.41a1.32,1.32,0,0,0,.5,1,2,2,0,0,0,1.25.36,1.88,1.88,0,0,0,1.1-.28A.85.85,0,0,0,396.75,289.44Z" transform="translate(0)"/><path class="cls-5" d="M406.37,292.06a2.94,2.94,0,0,1-.26-.85,3,3,0,0,1-2.4,1,3.36,3.36,0,0,1-2.31-.81,2.61,2.61,0,0,1-.92-2,2.68,2.68,0,0,1,1.12-2.32,5.57,5.57,0,0,1,3.24-.82H406v-.54a1.62,1.62,0,0,0-.34-1.06,1.35,1.35,0,0,0-1.07-.39,1.51,1.51,0,0,0-1,.31,1,1,0,0,0-.36.84h-2.54a2.56,2.56,0,0,1,.51-1.53,3.31,3.31,0,0,1,1.44-1.1,5.19,5.19,0,0,1,2.09-.4,4.15,4.15,0,0,1,2.79.88,3.09,3.09,0,0,1,1,2.48v4.13a4.52,4.52,0,0,0,.37,2v.15Zm-2.1-1.76a2.24,2.24,0,0,0,1-.25,1.73,1.73,0,0,0,.71-.68v-1.63h-.95c-1.27,0-1.95.44-2,1.32v.15a1,1,0,0,0,.33.78A1.35,1.35,0,0,0,404.27,290.3Z" transform="translate(0)"/><path class="cls-5" d="M413.2,282.55v10a3.39,3.39,0,0,1-.84,2.45,3.19,3.19,0,0,1-2.41.87,5,5,0,0,1-1.25-.15v-2a5,5,0,0,0,.8.08c.76,0,1.15-.41,1.15-1.22V282.55Zm-2.75-2.46a1.24,1.24,0,0,1,.38-.94,1.65,1.65,0,0,1,2.08,0,1.35,1.35,0,0,1,0,1.89,1.62,1.62,0,0,1-2.06,0A1.24,1.24,0,0,1,410.45,280.09Z" transform="translate(0)"/><path class="cls-5" d="M419.56,292.24a4.71,4.71,0,0,1-3.41-1.28,4.6,4.6,0,0,1-1.31-3.42v-.25a5.73,5.73,0,0,1,.55-2.56A4.15,4.15,0,0,1,417,283a4.39,4.39,0,0,1,2.32-.61,4,4,0,0,1,3.07,1.23,5,5,0,0,1,1.12,3.49v1h-6.05a2.37,2.37,0,0,0,.74,1.5,2.25,2.25,0,0,0,1.57.56,2.73,2.73,0,0,0,2.29-1.06l1.25,1.39a3.9,3.9,0,0,1-1.55,1.27A5.09,5.09,0,0,1,419.56,292.24Zm-.29-7.81a1.61,1.61,0,0,0-1.23.51,2.69,2.69,0,0,0-.6,1.46H421v-.2a1.88,1.88,0,0,0-.45-1.31A1.65,1.65,0,0,0,419.27,284.43Z" transform="translate(0)"/></g></g><g class="cls-6"><path class="cls-22" d="M463.78,507.15H319.6a28.72,28.72,0,0,1,0,44.72H463.78a6.32,6.32,0,0,0,6.32-6.33V513.48a6.32,6.32,0,0,0-6.32-6.33Z" transform="translate(0)"/></g><g class="cls-4"><g class="cls-4"><path class="cls-5" d="M353.78,533.21a4.51,4.51,0,0,1-1.53,3.25,5.33,5.33,0,0,1-3.62,1.19,4.8,4.8,0,0,1-3.87-1.66,6.79,6.79,0,0,1-1.41-4.55v-.78a7.58,7.58,0,0,1,.65-3.25,4.86,4.86,0,0,1,1.85-2.16,5.81,5.81,0,0,1,6.38.44A4.87,4.87,0,0,1,353.8,529h-2.64a2.72,2.72,0,0,0-.69-1.8,2.58,2.58,0,0,0-1.81-.56,2.24,2.24,0,0,0-2,1,5.24,5.24,0,0,0-.67,2.93v1a5.67,5.67,0,0,0,.63,3,2.19,2.19,0,0,0,2,1,2.61,2.61,0,0,0,1.82-.56,2.54,2.54,0,0,0,.69-1.73Z" transform="translate(0)"/><path class="cls-5" d="M360.85,537.47a3,3,0,0,1-.25-.85,3.07,3.07,0,0,1-2.4,1,3.4,3.4,0,0,1-2.32-.81,2.61,2.61,0,0,1-.92-2,2.69,2.69,0,0,1,1.13-2.32,5.51,5.51,0,0,1,3.23-.82h1.17v-.54a1.57,1.57,0,0,0-.34-1.06,1.32,1.32,0,0,0-1.06-.39,1.49,1.49,0,0,0-1,.31,1,1,0,0,0-.36.84h-2.54a2.56,2.56,0,0,1,.51-1.53,3.31,3.31,0,0,1,1.44-1.1,5.19,5.19,0,0,1,2.09-.4,4.15,4.15,0,0,1,2.79.88,3.09,3.09,0,0,1,1,2.48v4.13a4.51,4.51,0,0,0,.38,2v.15Zm-2.1-1.76a2.28,2.28,0,0,0,1-.25,1.64,1.64,0,0,0,.7-.68v-1.63h-.95c-1.27,0-1.94.44-2,1.32v.15a1,1,0,0,0,.34.78A1.32,1.32,0,0,0,358.75,535.71Z" transform="translate(0)"/><path class="cls-5" d="M367.33,528l.08,1.1a3.31,3.31,0,0,1,2.73-1.27,2.76,2.76,0,0,1,2.25.88,4.11,4.11,0,0,1,.76,2.66v6.14h-2.54v-6.08a1.65,1.65,0,0,0-.35-1.17,1.56,1.56,0,0,0-1.17-.37,1.75,1.75,0,0,0-1.61.92v6.7h-2.54V528Z" transform="translate(0)"/><path class="cls-5" d="M380.58,537.47a3,3,0,0,1-.25-.85,3.06,3.06,0,0,1-2.4,1,3.4,3.4,0,0,1-2.32-.81,2.6,2.6,0,0,1-.91-2,2.68,2.68,0,0,1,1.12-2.32,5.52,5.52,0,0,1,3.24-.82h1.16v-.54a1.62,1.62,0,0,0-.33-1.06,1.36,1.36,0,0,0-1.07-.39,1.51,1.51,0,0,0-1,.31,1,1,0,0,0-.36.84h-2.54a2.56,2.56,0,0,1,.51-1.53,3.31,3.31,0,0,1,1.44-1.1,5.19,5.19,0,0,1,2.09-.4,4.15,4.15,0,0,1,2.79.88,3.09,3.09,0,0,1,1,2.48v4.13a4.65,4.65,0,0,0,.38,2v.15Zm-2.1-1.76a2.25,2.25,0,0,0,1-.25,1.64,1.64,0,0,0,.7-.68v-1.63h-.94c-1.28,0-1.95.44-2,1.32v.15a1,1,0,0,0,.33.78A1.32,1.32,0,0,0,378.48,535.71Z" transform="translate(0)"/><path class="cls-5" d="M387.41,537.47h-2.55V524h2.55Z" transform="translate(0)"/></g></g><g class="cls-6"><path class="cls-22" d="M477.18,0H333a28.74,28.74,0,0,1,4.33,40.39A29.54,29.54,0,0,1,333,44.72H477.18a6.32,6.32,0,0,0,6.33-6.33V6.32A6.32,6.32,0,0,0,477.19,0Z" transform="translate(0)"/></g><g class="cls-4"><g class="cls-4"><path class="cls-5" d="M367.18,23.36a4.56,4.56,0,0,1-1.52,3.25A5.38,5.38,0,0,1,362,27.79a4.82,4.82,0,0,1-3.87-1.65,6.81,6.81,0,0,1-1.41-4.55v-.78a7.77,7.77,0,0,1,.65-3.26,4.84,4.84,0,0,1,1.86-2.15,5.83,5.83,0,0,1,6.38.43,4.86,4.86,0,0,1,1.56,3.33h-2.64a2.62,2.62,0,0,0-.69-1.79,2.49,2.49,0,0,0-1.8-.56,2.25,2.25,0,0,0-2,.94,5.34,5.34,0,0,0-.67,2.93v1a5.66,5.66,0,0,0,.63,3,2.2,2.2,0,0,0,2,1,2.59,2.59,0,0,0,1.83-.56,2.53,2.53,0,0,0,.69-1.72Z" transform="translate(0)"/><path class="cls-5" d="M368.35,22.78a5.57,5.57,0,0,1,.55-2.53,3.89,3.89,0,0,1,1.57-1.71,4.5,4.5,0,0,1,2.37-.61A4.33,4.33,0,0,1,376,19.11a4.68,4.68,0,0,1,1.36,3.2l0,.65a5,5,0,0,1-1.22,3.51,4.75,4.75,0,0,1-6.56,0,5.06,5.06,0,0,1-1.23-3.59Zm2.54.18A3.55,3.55,0,0,0,371.4,25a1.83,1.83,0,0,0,2.9,0,3.86,3.86,0,0,0,.52-2.27,3.49,3.49,0,0,0-.52-2.06,1.67,1.67,0,0,0-1.46-.73,1.65,1.65,0,0,0-1.44.73A3.94,3.94,0,0,0,370.89,23Z" transform="translate(0)"/><path class="cls-5" d="M381.26,18.11l.08,1.1a3.33,3.33,0,0,1,2.74-1.28,2.79,2.79,0,0,1,2.25.89,4.14,4.14,0,0,1,.75,2.65v6.15h-2.54V21.54a1.7,1.7,0,0,0-.35-1.18A1.58,1.58,0,0,0,383,20a1.75,1.75,0,0,0-1.61.91v6.71h-2.54V18.11Z" transform="translate(0)"/><path class="cls-5" d="M392.05,15.77v2.34h1.62V20h-1.62v4.75a1.09,1.09,0,0,0,.2.75,1,1,0,0,0,.77.23,4.22,4.22,0,0,0,.75-.06v1.93a5.31,5.31,0,0,1-1.54.22,2.42,2.42,0,0,1-2.72-2.69V20h-1.39V18.11h1.39V15.77Z" transform="translate(0)"/><path class="cls-5" d="M399.46,27.79a4.63,4.63,0,0,1-3.4-1.28,4.53,4.53,0,0,1-1.31-3.42v-.24a5.77,5.77,0,0,1,.55-2.57,4.08,4.08,0,0,1,1.57-1.74,4.45,4.45,0,0,1,2.31-.61,3.93,3.93,0,0,1,3.07,1.23,5,5,0,0,1,1.13,3.49v1h-6.06a2.34,2.34,0,0,0,.74,1.49,2.25,2.25,0,0,0,1.57.57,2.75,2.75,0,0,0,2.3-1.07l1.24,1.4a3.76,3.76,0,0,1-1.54,1.26A5.11,5.11,0,0,1,399.46,27.79ZM399.17,20a1.58,1.58,0,0,0-1.22.51,2.55,2.55,0,0,0-.6,1.47h3.53v-.21a1.86,1.86,0,0,0-.46-1.31A1.63,1.63,0,0,0,399.17,20Z" transform="translate(0)"/><path class="cls-5" d="M408.44,21l1.6-2.84h2.71l-2.7,4.66,2.82,4.85h-2.73l-1.69-3-1.69,3H404l2.82-4.85-2.7-4.66h2.72Z" transform="translate(0)"/><path class="cls-5" d="M417,15.77v2.34h1.62V20H417v4.75a1.09,1.09,0,0,0,.2.75,1,1,0,0,0,.77.23,4.22,4.22,0,0,0,.75-.06v1.93a5.31,5.31,0,0,1-1.54.22,2.42,2.42,0,0,1-2.72-2.69V20h-1.39V18.11h1.39V15.77Z" transform="translate(0)"/><path class="cls-5" d="M419.4,22.78a5.7,5.7,0,0,1,.54-2.53,4,4,0,0,1,1.57-1.71,4.53,4.53,0,0,1,2.38-.61A4.35,4.35,0,0,1,427,19.11a4.73,4.73,0,0,1,1.36,3.2l0,.65a5,5,0,0,1-1.22,3.51,4.26,4.26,0,0,1-3.28,1.32,4.32,4.32,0,0,1-3.29-1.31,5.1,5.1,0,0,1-1.22-3.59Zm2.54.18a3.55,3.55,0,0,0,.51,2.07,1.67,1.67,0,0,0,1.46.72,1.7,1.7,0,0,0,1.44-.71,3.94,3.94,0,0,0,.52-2.27,3.56,3.56,0,0,0-.52-2.06,1.68,1.68,0,0,0-1.46-.73,1.65,1.65,0,0,0-1.44.73A3.94,3.94,0,0,0,421.94,23Z" transform="translate(0)"/></g></g><circle class="cls-23" cx="454.05" cy="279.82" r="1.53"/><circle class="cls-23" cx="459.32" cy="279.82" r="1.53"/><path class="cls-23" d="M469.53,271.9h.09l.26,0a1.56,1.56,0,0,1,.41.15,1.54,1.54,0,0,1,.77,1.11,1.62,1.62,0,0,1,0,.22v.7l0,2.27c0,1.7,0,3.76,0,6.14v3.55a2.45,2.45,0,0,1,0,.27,1.61,1.61,0,0,1-1.55,1.35H467.4l.13-.12c-.14,1.52-.29,3.13-.44,4.8l0,.26-.2-.16-5.81-4.79.1,0h-15l-.3,0a1.66,1.66,0,0,1-1.25-1.2,1.9,1.9,0,0,1-.05-.58V273.46a1.79,1.79,0,0,1,.07-.51,1.56,1.56,0,0,1,.22-.47,1.6,1.6,0,0,1,.81-.62,1.43,1.43,0,0,1,.5-.09h4.08l6.47,0,9.38,0,2.55,0,.66,0h.23a.9.9,0,0,1-.23,0h-.66l-2.55,0-9.38.05-6.47,0h-4.07a1.25,1.25,0,0,0-.42.08,1.31,1.31,0,0,0-.67.51,1.46,1.46,0,0,0-.24.83v1c0,2.62,0,5.36,0,8.21v3.25a1.67,1.67,0,0,0,0,.5,1.34,1.34,0,0,0,1,1l.24,0h15l0,0,5.8,4.8-.23.09c.16-1.67.32-3.27.46-4.8l0-.11h2.27a1.38,1.38,0,0,0,1.32-1.15,1.79,1.79,0,0,0,0-.23V282.5c0-2.37,0-4.44,0-6.14v-3a1.27,1.27,0,0,0,0-.2,1.4,1.4,0,0,0-.27-.68,1.47,1.47,0,0,0-.82-.56C469.65,271.9,469.52,271.91,469.53,271.9Z" transform="translate(0)"/><rect class="cls-7" x="434.96" y="279.52" width="26.32" height="15.66" rx="5.46"/><path class="cls-7" d="M451,294.69l6.22,5.52.51-5.42" transform="translate(0)"/><circle class="cls-23" cx="443.17" cy="287.58" r="1.53"/><circle class="cls-23" cx="448.44" cy="287.58" r="1.53"/><circle class="cls-23" cx="453.72" cy="287.58" r="1.53"/><circle class="cls-23" cx="464.6" cy="279.82" r="1.53"/><path class="cls-21" d="M316.63,317.34a33.24,33.24,0,1,1,19.56-60.1H478.75a10.9,10.9,0,0,1,10.92,10.83v32.07A10.88,10.88,0,0,1,478.75,311H336.19A33.29,33.29,0,0,1,316.63,317.34Z" transform="translate(0)"/><line class="cls-21" x1="254.48" y1="284.51" x2="282.8" y2="284.51"/><path class="cls-3" d="M227.21,293.54l2.35-2.35-5-5H238.2v-3.32H224.53l5-5-2.35-2.35-9,9Z" transform="translate(0)"/><rect class="cls-3" x="241.03" y="282.85" width="5.24" height="3.32"/><rect class="cls-3" x="249.34" y="282.85" width="2.76" height="3.32"/><line class="cls-21" x1="519.57" y1="284.51" x2="491.26" y2="284.51"/><path class="cls-3" d="M546.84,275.47l-2.35,2.35,5,5H535.85v3.32h13.66l-5,5,2.35,2.35,9-9Z" transform="translate(0)"/><rect class="cls-3" x="527.79" y="282.85" width="5.24" height="3.32"/><rect class="cls-3" x="521.95" y="282.85" width="2.76" height="3.32"/><path class="cls-2" d="M489.67,22H753a22.85,22.85,0,0,1,22.85,22.84V565.77A22.85,22.85,0,0,1,753,588.61H23.34A22.85,22.85,0,0,1,.5,565.77h0V44.88A22.85,22.85,0,0,1,23.34,22h257" transform="translate(0)"/></svg>