<svg xmlns="http://www.w3.org/2000/svg" width="105" height="105" viewBox="0 0 105 105"><g transform="translate(-16 -16)"><g transform="translate(16 16)"><rect width="101.708" height="56.285" rx="10" transform="translate(1.975 1.317)" fill="#fdf8ff"/><path d="M26.187,24H31V80H26.187A2.187,2.187,0,0,1,24,77.812V26.187A2.187,2.187,0,0,1,26.187,24Z" transform="translate(-22.25 -22.25)" fill="#bb83ff"/><path d="M456,24h4.813A2.187,2.187,0,0,1,463,26.187V77.812A2.187,2.187,0,0,1,460.813,80H456Z" transform="translate(-359.75 -22.25)" fill="#bb83ff"/><circle cx="19.255" cy="19.255" r="19.255" transform="translate(33.574 10.204)" fill="#f9e478"/><path d="M232,129.5V112l14,8.75Z" transform="translate(-184.75 -91)" fill="#fffefa"/><path d="M117.062,16H19.938A3.942,3.942,0,0,0,16,19.937V71.562A3.942,3.942,0,0,0,19.938,75.5h97.125A3.942,3.942,0,0,0,121,71.562V19.938A3.942,3.942,0,0,0,117.062,16ZM19.5,71.562V19.938a.438.438,0,0,1,.438-.437H23V72H19.938a.438.438,0,0,1-.437-.437Zm7-52.062h84V72h-84Zm91,52.062a.438.438,0,0,1-.438.438H114V19.5h3.063a.438.438,0,0,1,.438.438Z" transform="translate(-16 -16)" fill="#47286d"/><path d="M181,56a20.828,20.828,0,0,0-12.539,4.153l2.092,2.806a17.514,17.514,0,1,1-2.253,2l-2.54-2.408A21,21,0,1,0,181,56Z" transform="translate(-128.499 -47.25)" fill="#47286d"/><path d="M225.75,125a1.75,1.75,0,0,0,.928-.266l14-8.75a1.75,1.75,0,0,0,0-2.968l-14-8.75A1.75,1.75,0,0,0,224,105.749v17.5A1.75,1.75,0,0,0,225.75,125Zm1.75-16.093,8.948,5.593-8.948,5.593Z" transform="translate(-178.5 -84.749)" fill="#47286d"/><path d="M80,49.75v3.5h3.5V51.5h1.75V48h-3.5A1.75,1.75,0,0,0,80,49.75Z" transform="translate(-66 -41)" fill="#47286d"/><path d="M411.5,48H408v3.5h1.75v1.75h3.5v-3.5A1.75,1.75,0,0,0,411.5,48Z" transform="translate(-322.25 -41)" fill="#47286d"/><path d="M409.75,233.75H408v3.5h3.5a1.75,1.75,0,0,0,1.75-1.75V232h-3.5Z" transform="translate(-322.25 -184.75)" fill="#47286d"/><path d="M83.5,232H80v3.5a1.75,1.75,0,0,0,1.75,1.75h3.5v-3.5H83.5Z" transform="translate(-66 -184.75)" fill="#47286d"/></g><g transform="translate(16 79)"><g transform="translate(1.75 1.75)"><path d="M28.375,352H38v22.75H28.375A4.375,4.375,0,0,1,24,370.375v-14A4.375,4.375,0,0,1,28.375,352Z" transform="translate(-24 -343.25)" fill="#bb83ff"/><path d="M424,352h9.625A4.375,4.375,0,0,1,438,356.375v14a4.375,4.375,0,0,1-4.375,4.375H424Z" transform="translate(-336.5 -343.25)" fill="#bb83ff"/><path d="M58.5,456H48v7h7Z" transform="translate(-42.75 -424.5)" fill="#8d5aed"/><path d="M426.5,456H416l3.5,7h7Z" transform="translate(-330.25 -424.5)" fill="#8d5aed"/><path d="M157.125,312H92.375A4.375,4.375,0,0,0,88,316.375V343.5h73.5V316.375A4.375,4.375,0,0,0,157.125,312Z" transform="translate(-74 -312)" fill="#e0c7ff"/><g transform="translate(14 19.25)"><path d="M92.375,400h28a4.375,4.375,0,0,1,4.375,4.375v7.875H88v-7.875A4.375,4.375,0,0,1,92.375,400Z" transform="translate(-88 -400)" fill="#8d5aed"/><path d="M0,0H36.75V7.875a4.375,4.375,0,0,1-4.375,4.375h-28A4.375,4.375,0,0,1,0,7.875Z" transform="translate(73.5 12.25) rotate(180)" fill="#8d5aed"/></g></g><rect width="16.787" height="10.862" rx="5.431" transform="translate(26.661 10.401)" fill="#fed672"/><rect width="17.774" height="10.862" rx="5.431" transform="translate(61.223 10.401)" fill="#fed672"/><path d="M121,325v-6.125a6.132,6.132,0,0,0-6.125-6.125H107v-2.625A6.132,6.132,0,0,0,100.875,304H43.98v3.5h56.9a2.628,2.628,0,0,1,2.625,2.625v13.717a6.089,6.089,0,0,0-2.625-.592h-4.4a3.958,3.958,0,0,0,.024-.437v-6.125a3.942,3.942,0,0,0-3.937-3.938H79.438a3.942,3.942,0,0,0-3.938,3.938v6.125a3.96,3.96,0,0,0,.024.438H72.875a6.107,6.107,0,0,0-4.375,1.843,6.107,6.107,0,0,0-4.375-1.843H61.476a3.959,3.959,0,0,0,.024-.437v-6.125a3.942,3.942,0,0,0-3.937-3.938H44.437a3.942,3.942,0,0,0-3.937,3.938v6.125a3.96,3.96,0,0,0,.024.438h-4.4a6.089,6.089,0,0,0-2.625.592V310.125a2.628,2.628,0,0,1,2.625-2.625H40.5V304H36.125A6.132,6.132,0,0,0,30,310.125v2.625H22.125A6.132,6.132,0,0,0,16,318.875v14a6.134,6.134,0,0,0,5.25,6.063v5.312A1.75,1.75,0,0,0,23,346h7a1.75,1.75,0,0,0,1.565-.967L34.582,339h67.837l3.016,6.033A1.75,1.75,0,0,0,107,346h7a1.75,1.75,0,0,0,1.75-1.75v-5.312a6.134,6.134,0,0,0,5.25-6.063V328.5h-3.5v4.375a2.628,2.628,0,0,1-2.625,2.625H107V316.25h7.875a2.628,2.628,0,0,1,2.625,2.625V325Zm-42-2.187v-6.125a.438.438,0,0,1,.438-.437H92.563a.438.438,0,0,1,.438.438v6.125a.438.438,0,0,1-.437.438H79.438A.438.438,0,0,1,79,322.813Zm-35,0v-6.125a.438.438,0,0,1,.438-.437H57.562a.438.438,0,0,1,.438.438v6.125a.438.438,0,0,1-.437.438H44.437a.438.438,0,0,1-.438-.437Zm-7.875,3.938h28a2.628,2.628,0,0,1,2.625,2.625V335.5H33.5v-6.125A2.628,2.628,0,0,1,36.125,326.75ZM19.5,332.875v-14a2.628,2.628,0,0,1,2.625-2.625H30V335.5H22.125A2.628,2.628,0,0,1,19.5,332.875Zm9.418,9.625H24.75V339h5.918ZM112.25,339v3.5h-4.168l-1.75-3.5Zm-42-3.5v-6.125a2.628,2.628,0,0,1,2.625-2.625h28a2.628,2.628,0,0,1,2.625,2.625V335.5Z" transform="translate(-16 -304)" fill="#47286d"/></g></g></svg>