<svg xmlns="http://www.w3.org/2000/svg" width="103.277" height="103.25" viewBox="0 0 103.277 103.25"><g transform="translate(-0.001 -0.481)"><path d="M152.965,27.445h70.246V86.488H152.965Zm0,0" transform="translate(-121.679 -21.45)" fill="#22a4af"/><path d="M152.965,27.445h65.01V86.488h-65.01Zm0,0" transform="translate(-121.679 -21.45)" fill="#31d9e7"/><path d="M69.348,276.85,68.6,278.6h6.981l.751-1.745ZM44.164,266.379V310.01a3.5,3.5,0,0,0,3.49,3.49h61.084a3.5,3.5,0,0,0,3.491-3.49V266.379Zm0,0" transform="translate(-35.13 -211.516)" fill="#607d8b"/><path d="M64.112,276.85l-.75,1.745h6.981l.75-1.745ZM44.164,266.379V310.01a3.5,3.5,0,0,0,3.49,3.49H103.5a3.5,3.5,0,0,0,3.49-3.49V266.379Zm0,0" transform="translate(-35.13 -211.516)" fill="#cfd8dc"/><path d="M61.068,15.966,55.6,21.445l-2.723,2.723L50.369,26.7l-5.236,5.235-2.705,2.723-2.513,2.531-2.723,2.723-2.513,2.53-2.705,2.705-2.531,2.549L24.207,52.93,21.52,55.635v.018l-2.548,2.531-2.688,2.705-.558.558-6.179-6.2a3.492,3.492,0,0,1,0-4.94l3.089-3.106,5.236-5.236,2.67-2.688,2.565-2.565,2.653-2.67,2.583-2.584L31,28.793l2.565-2.583,2.671-2.652L38.8,20.974l2.653-2.67,5.235-5.236,2.583-2.6.681-.681a3.476,3.476,0,0,1,4.939,0Zm0,0" transform="translate(-6.779 -6.584)" fill="#f9e478"/><path d="M86.828,368.777v17.452l20.944-8.726Zm0,0" transform="translate(-69.069 -292.971)" fill="#f17781"/><path d="M77.1,53.117H13.15L16.9,49.355a1.7,1.7,0,0,0,.631-.634l4.573-4.587a1.711,1.711,0,0,0,.673-.675l4.538-4.538a1.707,1.707,0,0,0,.713-.717l4.489-4.5a1.7,1.7,0,0,0,.757-.757l4.447-4.463a1.706,1.706,0,0,0,.8-.8l4.407-4.423a1.693,1.693,0,0,0,.839-.84l4.364-4.38A1.7,1.7,0,0,0,49,17.157l6.514-6.534a1.746,1.746,0,0,0,0-2.465L49.349,1.966A5.355,5.355,0,0,0,43.832.8a1.618,1.618,0,0,0-.317.014,1.7,1.7,0,0,0-.906.607,4.76,4.76,0,0,0-.673.546L6.267,37.747a1.98,1.98,0,0,0-.164.164L1.529,42.5a5.236,5.236,0,0,0,0,7.392l5.759,5.777V98.494a5.236,5.236,0,0,0,5.236,5.236H73.608a5.236,5.236,0,0,0,5.236-5.236V54.863A1.745,1.745,0,0,0,77.1,53.117ZM64.039,65.334l3.74-8.727h3.184l-3.741,8.727Zm-6.981,0,3.74-8.727h3.184l-3.741,8.727Zm-6.982,0,3.741-8.727H57l-3.74,8.727Zm-6.981,0,3.741-8.727h3.185l-3.741,8.727Zm-20.943,0,3.74-8.727h3.184l-3.741,8.727Zm-6.981,0,3.74-8.727H22.1l-3.741,8.727Zm-4.393,0V56.608h4.336l-3.741,8.727Zm.807-27.978,2.476,9.9-2.356,2.366L9.229,39.72Zm5.235-5.248,2.477,9.9-2.356,2.363-2.48-9.9Zm5.236-5.25,2.477,9.9-2.357,2.363-2.476-9.9Zm5.235-5.25,2.477,9.9-2.356,2.363-2.485-9.9Zm5.236-5.248L35,26.263l-2.356,2.363-2.475-9.9Zm5.236-5.25,2.476,9.9-2.356,2.363-2.5-9.9Zm-4.891,45.5h3.182l-3.738,8.727H29.134Zm6.982,0H43.04L39.3,65.334H36.113Zm34.9,0h.594v8.727H71.02ZM51.819,9.383l-3.49,3.49L46.112,4.006a1.7,1.7,0,0,1,.765.419Zm-8.838-3.52,2.475,9.906L43.1,18.132,40.623,8.226ZM4,44.965l2.352-2.359,2.4,9.586L4,47.43a1.746,1.746,0,0,1,0-2.465ZM73.608,100.24H12.524a1.745,1.745,0,0,1-1.746-1.746V68.825H75.353V98.494a1.745,1.745,0,0,1-1.746,1.746Zm0,0" fill="#47286d"/><path d="M101.658,369.105l-20.944-8.727A1.745,1.745,0,0,0,78.3,361.99v17.452a1.745,1.745,0,0,0,2.417,1.611l20.944-8.727a1.745,1.745,0,0,0,0-3.221Zm-19.87,7.719V364.608l14.66,6.109Zm0,0" transform="translate(-62.283 -286.184)" fill="#47286d"/><path d="M241.007,351.711H216.573a1.745,1.745,0,1,0,0,3.49h24.433a1.745,1.745,0,1,0,0-3.49Zm0,0" transform="translate(-170.89 -279.396)" fill="#47286d"/><path d="M241.007,385.844H216.573a1.745,1.745,0,1,0,0,3.49h24.433a1.745,1.745,0,1,0,0-3.49Zm0,0" transform="translate(-170.89 -306.548)" fill="#47286d"/><path d="M241.007,419.977H216.573a1.745,1.745,0,1,0,0,3.49h24.433a1.745,1.745,0,1,0,0-3.49Zm0,0" transform="translate(-170.89 -333.7)" fill="#47286d"/><path d="M241.007,454.109H216.573a1.746,1.746,0,1,0,0,3.491h24.433a1.746,1.746,0,1,0,0-3.491Zm0,0" transform="translate(-170.89 -360.851)" fill="#47286d"/><path d="M148.308,18.91a1.745,1.745,0,0,0-1.746,1.746V22.4a1.745,1.745,0,1,0,3.49,0,1.745,1.745,0,1,0,0-3.49Zm0,0" transform="translate(-116.586 -14.66)" fill="#47286d"/><path d="M319.94,18.91H276.308a1.745,1.745,0,1,0,0,3.49h41.886V78.248H302.487a1.745,1.745,0,1,0,0,3.49H319.94a1.745,1.745,0,0,0,1.746-1.745V20.655a1.745,1.745,0,0,0-1.746-1.746Zm0,0" transform="translate(-218.407 -14.66)" fill="#47286d"/><path d="M146.563,182.788v8.727a1.745,1.745,0,0,0,3.49,0v-8.727a1.745,1.745,0,1,0-3.49,0Zm0,0" transform="translate(-116.586 -143.633)" fill="#47286d"/><path d="M208.619,54.789a1.745,1.745,0,0,0-1.746-1.746h-5.235a1.745,1.745,0,1,0,0,3.49h3.49V72.241H182.44a1.745,1.745,0,1,0,0,3.49h24.433a1.745,1.745,0,0,0,1.746-1.745Zm0,0" transform="translate(-143.737 -41.812)" fill="#47286d"/><path d="M336.042,75.732h24.434a1.745,1.745,0,0,0,1.745-1.745v-19.2a1.745,1.745,0,0,0-1.745-1.746H336.042a1.745,1.745,0,0,0-1.745,1.746v19.2A1.745,1.745,0,0,0,336.042,75.732Zm1.746-19.2H358.73V72.241H337.787Zm0,0" transform="translate(-265.924 -41.812)" fill="#47286d"/><path d="M206.874,193.26a1.745,1.745,0,0,0,1.746-1.745v-8.727a1.745,1.745,0,0,0-1.746-1.746H182.44a1.745,1.745,0,0,0-1.746,1.746v8.727a1.745,1.745,0,0,0,3.49,0v-6.982h20.944v6.982a1.745,1.745,0,0,0,1.745,1.745Zm0,0" transform="translate(-143.738 -143.633)" fill="#47286d"/><path d="M334.3,191.515a1.745,1.745,0,0,0,3.49,0v-6.982H358.73v15.708H350a1.745,1.745,0,1,0,0,3.49h10.471a1.745,1.745,0,0,0,1.745-1.745v-19.2a1.745,1.745,0,0,0-1.745-1.746H336.041a1.745,1.745,0,0,0-1.745,1.746Zm0,0" transform="translate(-265.924 -143.633)" fill="#47286d"/></g></svg>