<svg xmlns="http://www.w3.org/2000/svg" width="107" height="107" viewBox="0 0 107 107"><g transform="translate(0 -0.006)"><circle cx="53.5" cy="53.5" r="53.5" transform="translate(0 0.006)" fill="#31d9e7"/><path d="M141.831,101.52A53.748,53.748,0,0,0,140.737,90.7L115.669,65.637l0,0a13.748,13.748,0,0,0-23.983,11.72L67.6,91.258c-.178-.182-.36-.36-.548-.531q-.255-.233-.521-.453-.509-.42-1.059-.792-.274-.185-.558-.358c-.253-.154-.513-.3-.777-.434-.327-.171-.66-.332-1-.476a13.706,13.706,0,0,0-5.352-1.08h0a13.747,13.747,0,0,0-8.833,24.282l42.5,42.5c.278.332.575.648.883.952A53.5,53.5,0,0,0,141.831,101.52Z" transform="translate(-34.831 -48.016)" fill="#1cb8c5"/><path d="M133.851,112.36l-3.653-6.327-53.181,30.7,53.181,30.7,3.653-6.326L91.628,136.737Z" transform="translate(-60.922 -83.871)" fill="#fff"/><circle cx="13.749" cy="13.749" r="13.749" transform="translate(9.204 39.117)" fill="#f9e478"/><path d="M109.822,187.164v27.5a13.749,13.749,0,0,0,0-27.5Z" transform="translate(-86.871 -148.046)" fill="#fec000"/><circle cx="13.749" cy="13.749" r="13.749" transform="translate(56.543 66.821)" fill="#f9e478"/><path d="M336.35,319.724v27.5a13.749,13.749,0,0,0,0-27.5Z" transform="translate(-266.058 -252.904)" fill="#fec000"/><circle cx="13.749" cy="13.749" r="13.749" transform="translate(56.543 12.69)" fill="#f9e478"/><path d="M336.35,60.706V88.2a13.749,13.749,0,0,0,0-27.5Z" transform="translate(-266.058 -48.016)" fill="#fec000"/></g></svg>