<svg xmlns="http://www.w3.org/2000/svg" width="386.329" height="239.501" viewBox="0 0 386.329 239.501"><g transform="translate(-109.988 -396.865)"><g transform="translate(406.247 396.865)"><path d="M1764.413,474.089s3.249-11.256,10.214-11.256c4.507,0,4.165,1.769,4.165,1.769l-1.866.884s1.024.172.956.688-1.275.934-1.275.934,1.5.491,1.025,1.007a2.859,2.859,0,0,1-1.07.712s.774.909.432,1.277-4.812.482-8.09,9.915S1763.85,476.127,1764.413,474.089Z" transform="translate(-1704.979 -448.653)" fill="#ffbc7d"/><g transform="translate(59.328 0)"><path d="M1789.989,408.715a56.146,56.146,0,0,1,7.929,1.656c1.114.543,2.239.381,1.684,2.285s-4.352,12.014-4.352,12.014-3.732,1.35-4.622,1.154S1789.989,408.715,1789.989,408.715Z" transform="translate(-1784.441 -406.168)" fill="#2b2926"/><path d="M1769.479,408.79s-5.948,14.029-5.1,14.807,5.82,2.288,6.366,2.166,4.991-14.491,4.969-14.836S1770.215,408.023,1769.479,408.79Z" transform="translate(-1764.295 -406.115)" fill="#383531"/><path d="M1805.934,435.137c.54.263,11.567,4.049,11.567,4.049l4.221-12.99-11.451-3.226s-1.411.492-2.436,2.851S1804.449,434.414,1805.934,435.137Z" transform="translate(-1796.609 -417.358)" fill="#383531"/><path d="M1847.075,434.553s-7.625,2.654-5.675,12.325l2.543.877,5.1-12.648Z" transform="translate(-1824.576 -426.452)" fill="#2b2926"/><path d="M1850.588,434.624a5.491,5.491,0,0,1,3.34-.332c1.653.452,4.884,1.013,4.9,2.481s-2.468,14.111-6.244,13.225-6.959-1.648-7.03-4.188S1846.658,437.446,1850.588,434.624Z" transform="translate(-1828.085 -426.137)" fill="#383531"/><path d="M1879.285,451.214c-1.254,3.383-3.125,5.847-4.18,5.5s-.892-3.365.362-6.749,3.125-5.847,4.18-5.5S1880.538,447.83,1879.285,451.214Z" transform="translate(-1850.741 -434.208)" fill="#2b2926"/><path d="M1895.3,455.122c-.218.919-.246,1.694-.062,1.733s.509-.675.728-1.594.245-1.694.062-1.733S1895.514,454.2,1895.3,455.122Z" transform="translate(-1866.994 -441.348)" fill="#fff1df"/><path d="M1803.194,400.152s2.189-3.677,3.331-3.253c.286.664-1.375,4.269-1.375,4.269Z" transform="translate(-1794.833 -396.865)" fill="#2b2926"/><path d="M1811.205,397.023s1.964.231,1.857.682a22.751,22.751,0,0,1-1.547,3.737,21.226,21.226,0,0,1-2.36-.036Z" transform="translate(-1799.513 -396.989)" fill="#383531"/><path d="M1816.516,399.406l-.925,1.938,1.636.141.621-1.8Z" transform="translate(-1804.565 -398.86)" fill="#dbd0c0"/><path d="M1822.464,400.269l-.428,1.149.169-.056.518-1.039Z" transform="translate(-1809.625 -399.537)" fill="#fff"/></g><path d="M1713.446,422.34s3.911-13.428,12.68-13.428c5.674,0,5.244,1.977,5.244,1.977l-2.35.989s1.29.192,1.2.769-1.6,1.043-1.6,1.043,1.891.549,1.29,1.126a3.69,3.69,0,0,1-1.347.8s.974,1.016.544,1.428-5.731,2.252-9.857,12.8S1712.737,424.617,1713.446,422.34Z" transform="translate(-1664.951 -406.322)" fill="#ffbc7d"/><path d="M1637.774,984.922l16.377-.343s-.561-6.1-1.427-8.293S1637.73,984.441,1637.774,984.922Z" transform="translate(-1605.641 -851.503)" fill="#ffbc7d"/><path d="M1640.184,1465.114s-2.665,5.694,0,5.858,20.116,0,20.116,0,4.127-.412,3.267-2.142-8.854-4.284-10.488-6.59S1640.184,1465.114,1640.184,1465.114Z" transform="translate(-1606.604 -1232.777)" fill="#ffcc40"/><path d="M1640.7,1101.522s15.13,36.411,3.954,61.29-6.189,21.324-6.189,21.324l12.379-4.024s10.832-36.741,7.565-52.228S1640.255,1096.572,1640.7,1101.522Z" transform="translate(-1605.311 -949.333)" fill="#24113b"/><path d="M1686.977,1470.85s-2.665,5.694,0,5.858,20.116,0,20.116,0,4.126-.412,3.267-2.142-8.854-4.283-10.488-6.59S1686.977,1470.85,1686.977,1470.85Z" transform="translate(-1643.339 -1237.281)" fill="#ffe64e"/><path d="M1626.758,1012.311s-.115,2.965.688,2.965-3.84,15.652,16.276,35.093-5.158,61.949-3.439,62.608,14.958-.824,14.958-3.625a2.5,2.5,0,0,0-2.407-2.8s12.723-31.149,8.425-43.83-10.832-29.981-11.863-36.242-2.579-12.851-3.611-14.169S1626.758,1012.311,1626.758,1012.311Z" transform="translate(-1596.99 -879.564)" fill="#47286d"/><path d="M1603.645,690.312s-3.8,2.746-2.608,5.712c.553,1.381,2.12,4.394.8,5s-8.969-1.455-8.281-4.476,3.582-6.892,4.671-6.728S1603.645,690.312,1603.645,690.312Z" transform="translate(-1570.896 -626.845)" fill="#ffbc7d"/><path d="M1622.137,687.657s-2.832.142-3.477-.408,1.361-2.169,2.765-2.142a2.157,2.157,0,0,1,1.863,1.51S1622.295,687.485,1622.137,687.657Z" transform="translate(-1590.539 -623.151)" fill="#f0a663"/><path d="M1619.114,611.059s16.608,3.905,16.118-16.146S1619.114,611.059,1619.114,611.059Z" transform="translate(-1590.992 -547.592)" fill="#ffbc7d"/><path d="M1652.447,664.539a3.745,3.745,0,0,0-1.029-.143,4.368,4.368,0,0,1-1.4-.625,3.527,3.527,0,0,1-1.518-2.34c-.026-.156-.285-.147-.319,0a2.009,2.009,0,0,0,.26,1.1,3.871,3.871,0,0,0,1.015,1.581c.681.623,2.175,1.262,3.017.626A.121.121,0,0,0,1652.447,664.539Z" transform="translate(-1613.796 -604.474)" fill="#ff6363"/><path d="M1679.371,621.652c-.049,1.226-.6,2.2-.854,2.189s-.131-1-.082-2.226,0-2.222.261-2.212S1679.42,620.426,1679.371,621.652Z" transform="translate(-1637.504 -571.569)" fill="#2189a3"/><path d="M1532.784,601.824s-11.118,14-9.055,14.059a17.38,17.38,0,0,0,4.4-.6s-3.024,5.327-.331,4.778a16.453,16.453,0,0,0,4.986-2.032s12.608-5.437,14.442-8.293,8.787-12.412,9.38-12.412,2.426,3.176,3.744,2.137a2.973,2.973,0,0,0,1.031-2.686s5.135,1.977,4.86,0-4.516-4.723-6.636-4.668S1535.707,596,1532.784,601.824Z" transform="translate(-1515.91 -550.137)" fill="#f9e478"/><path d="M1558.039,564.551s-3.009-12.439,0-14.746,19.01-10.405,24.414,0C1585.519,555.709,1558.039,564.551,1558.039,564.551Z" transform="translate(-1541.996 -512.864)" fill="#f9e478"/><path d="M1539.674,569.1s1.644,14.662,6.631,22.323,10.144,25.29,10.144,25.29-1.29,4.366,1.2,4.119,20.116-8.9,20.116-10.462-2.321-5.107-2.321-5.107-7.307-20.512-6.017-25.949,1.29-5.84.172-8.11a9.641,9.641,0,0,1,.258-8.531c1.547-3.213,21.434-27.707,23.726-46.929,0,0-3.783-1.977-5.33-4.888-2.235,5.547-10.746,34.187-28.2,43.908-1.2.577-1.175.824-1.175.824s1.318,4.586-.344,4.256a7.176,7.176,0,0,1-4.212-3.515C1553.812,555.066,1539.674,569.1,1539.674,569.1Z" transform="translate(-1528.628 -486.354)" fill="#f17781"/><path d="M1604.767,516.637s21.548,8.174,25.216.9,11.233-53.923,11.233-53.923.573-1.432.688.807-8.367,52.325-10.431,53.972-4.623,5.492-11.768,3.734-15.856-4.064-15.856-4.064Z" transform="translate(-1579.01 -448.914)" fill="#ffe64e"/><path d="M1539.4,532.323c-.589-.812-2.292-15.6,10.316-28.668s19.8-17.791,27.477-41.077c.458,1.867,2.095,8.235,7.138,9.444-6.877,13.071-13.869,26.91-28.2,42.178a34.247,34.247,0,0,0-2.866,7.03C1552.466,524.524,1542.666,536.826,1539.4,532.323Z" transform="translate(-1528.084 -448.453)" fill="#f17781"/><path d="M1488.481,623.564s31-12.344,30.516-13.366S1485.444,622.356,1488.481,623.564Z" transform="translate(-1488.284 -564.298)"/><path d="M1688.43,640.051s.115,1.8.8,1.941c-.344,1.016-1.662,1.044-1.662,1.044Z" transform="translate(-1644.735 -587.779)" fill="#ff8157"/><path d="M1689.523,1039.874a18.468,18.468,0,0,0,.149-3.489,51.583,51.583,0,0,0,.108-9.707.011.011,0,0,0-.021,0c-.248,2.261-.3,4.513-.591,6.775a24.045,24.045,0,0,0-.147,3.919,11.5,11.5,0,0,1,.081,2.359,1.131,1.131,0,1,0,.422.143Z" transform="translate(-1644.87 -891.295)" fill="#ff6363"/><path d="M1708.99,1039.6a18.475,18.475,0,0,0-.267-3.483,51.67,51.67,0,0,0-1.049-9.656.011.011,0,0,0-.021,0c.023,2.273.236,4.516.22,6.8a24.016,24.016,0,0,0,.321,3.909,11.5,11.5,0,0,1,.361,2.334,1.175,1.175,0,0,0-.2-.017,1.146,1.146,0,1,0,.641.113Z" transform="translate(-1660.245 -891.128)" fill="#ff6363"/></g><g transform="translate(317.23 455.249)"><path d="M1120.9,1457.04s-2.463,5.408-2.325,7.2-.275,2.614.482,2.958,22.084.55,22.015-.344-2.064-3.027-3.165-3.371-9.563-2.958-9.425-4.953S1120.9,1457.04,1120.9,1457.04Z" transform="translate(-1109.021 -1287.498)" fill="#383531"/><path d="M1225.59,1438.156s-2.463,5.408-2.326,7.2-.275,2.614.482,2.958,22.084.55,22.015-.344-2.064-3.027-3.165-3.371-9.563-2.958-9.425-4.953S1225.59,1438.156,1225.59,1438.156Z" transform="translate(-1191.208 -1272.673)" fill="#383531"/><path d="M1078.268,1041.589s1.926,20.914,5.917,25.317,12.246,16.511,12.659,26.281-6.467,34.261-8.118,35.224,6.963,6.192,9.948,2.614,11.82-36.463,8.573-44.718-7.789-22.841-7.789-22.841,15.135,9.907,17.612,18.988-3.3,41.278-6.192,43.48c5.779,2.2,8.256,3.3,9.907-.138s11.008-40.177,3.44-51.46-22.871-27.623-23.8-30.133S1079.369,1038.149,1078.268,1041.589Z" transform="translate(-1077.382 -960.272)" fill="#544f4a"/><path d="M1085.137,1043.681s10.781,8.483,13.395,8.758c2.821-2.546,4.678-7.843,4.678-7.843s5.642,2.271,6.329,2.408a73.7,73.7,0,0,1-4.128-6.6S1083.644,1040.427,1085.137,1043.681Z" transform="translate(-1082.717 -960.458)" fill="#ffefe0"/><path d="M1381.523,784.941a11.249,11.249,0,0,0,.529-3.133c-.069-1.25-1.412-.039-1.412-.039s.894-3.179.073-3.76-6.319,5.039-6.319,5.039a5.6,5.6,0,0,1-.42-1.131c-.284-.925-1.162-.651-2.205.779-.963,1.321-.519,9.978-.619,11.37-.009.115-.02.181-.037.188l8.331,1.762s2.916-6.077,3.164-6.924-.847-.482-.847-.482a8.168,8.168,0,0,0,1.062-3.12C1382.812,784.227,1381.523,784.941,1381.523,784.941Z" transform="translate(-1307.28 -754.434)" fill="#f0a663"/><path d="M1213.087,834.62c-.046-.271.368-8.69,8.474-6.12,1.856,1.357,1.964,7.5,2.493,9.168.486,1.527,6.513,16.2,17.895,3.334a33.613,33.613,0,0,0,5.628-8.865s4.782-.98,7.483,2.818c.151,2.2-9.357,24.675-25.369,23.076C1218.376,855.754,1214.275,841.665,1213.087,834.62Z" transform="translate(-1183.22 -793.723)" fill="#d9c663"/><path d="M1226.971,889.362s4.3-5.606,9.42-4.571c-.414-.662-.886-1.5-.886-1.5s-8.019-.949-9.121,4.735C1226.384,888.026,1226.87,889.145,1226.971,889.362Z" transform="translate(-1193.661 -837.073)" fill="#47286d"/><path d="M1106.4,788.827s-38.526,2.339-31.372,55.45c0,0,6.145,11.283,22.129-.55.711-8.393-1.628-22.644,12.682-32.374C1114.659,807.952,1124.153,790.753,1106.4,788.827Z" transform="translate(-1074.146 -762.96)" fill="#f9e478"/><path d="M1230.588,782.057s3.637-.928,4.582-2.121,7.412,4.862,7.412,4.862-6.009,5.5-8.623,5.32S1228.043,784.774,1230.588,782.057Z" transform="translate(-1196.243 -755.859)" fill="#ffbc7d"/><path d="M1272.233,706.133c-.625,6.792-4.868,13.743-11.042,13.743s-12.968-3.981-12.968-10.8,6.81-13.446,12.968-13.9C1273.4,694.284,1273.2,695.66,1272.233,706.133Z" transform="translate(-1210.806 -689.262)" fill="#ffbc7d"/><path d="M1238.873,684.032s1.926,3.784,3.1,3.165,3.715-7.155,5.573-7.774,12.246-2.064,13.071-3.371-.344-1.789-1.445-2.064-2.407-.482-2.407-.482,3.1-1.1,2.821-1.926-2.477-.688-3.99-.688a14.768,14.768,0,0,1-4.678-.757c-.895-.413-9.769-3.922-14.448.757-5.71,2.821-10.87,6.948-9.081,12.108s3.44,12.59,4.678,11.833,4.953-5.435,4.678-6.811S1238.254,683.895,1238.873,684.032Z" transform="translate(-1194.163 -668.485)" fill="#804937"/><path d="M1267.984,730.768s-1.926-4.4-3.921-2.408.482,7.774,1.961,7.705.447-3.752.31-4.112S1268.466,734.9,1267.984,730.768Z" transform="translate(-1222.656 -715.083)" fill="#ff8157"/><path d="M1287.165,754.712s0,6.925.688,8.76,6.008,7.567,7.522,7.017,4.586-7.506,4.953-8.363,2.2-3.333.5-3.241-6.742,2.247-7.568,1.789-4.082-4.357-4.128-5.137S1287.149,753.333,1287.165,754.712Z" transform="translate(-1241.377 -735.724)" fill="#573225"/><path d="M1327.411,775.436s-6.627,1.573-6.03.488,3.669-3.975,5-4.158S1330.093,771.631,1327.411,775.436Z" transform="translate(-1268.208 -749.521)" fill="#663b2b"/><path d="M1330.032,743.617s3.371-.447,4.4,0c-.1-1.032-3.371-2.2-3.371-2.2l1.445,1.323Z" transform="translate(-1275.03 -725.74)" fill="#333"/><path d="M1353.913,755.579c-.816,1.782-.516,3.026-1.953,2.98-.795-.025-.648-2.044.167-3.826s.586-3.554,1.309-3.223S1354.728,753.8,1353.913,755.579Z" transform="translate(-1291.832 -733.634)" fill="#ff8157"/><g transform="translate(60.21 12.968)"><path d="M1363.175,745.092a48.222,48.222,0,0,1,7.374,0c1.1.293,2.064-.082,1.972,1.826s-1.33,12.2-1.33,12.2-3.023,2.011-3.853,2S1363.175,745.092,1363.175,745.092Z" transform="translate(-1361.259 -741.475)" fill="#2b2926"/><path d="M1355.882,745.481s-2.321,14.422-1.408,14.99,5.637,1.013,6.1.79,1.376-14.67,1.284-14.991S1356.372,744.612,1355.882,745.481Z" transform="translate(-1354.261 -741.672)" fill="#383531"/><path d="M1390.519,764c.534.142,11.1,1.543,11.1,1.543l1.009-13.1-10.824-.788s-1.147.743-1.559,3.173S1389.051,763.615,1390.519,764Z" transform="translate(-1382.054 -746.748)" fill="#383531"/><path d="M1425.154,754.489s-6.2,4.01-2.437,12.759l2.437.327,1.858-12.95Z" transform="translate(-1407.052 -748.97)" fill="#2b2926"/><path d="M1429.854,752.606a4.709,4.709,0,0,1,2.889-.972c1.559.1,4.541-.006,4.862,1.377s.78,13.813-2.752,13.721-6.513-.183-7.109-2.568S1426.965,756.045,1429.854,752.606Z" transform="translate(-1411.667 -746.724)" fill="#383531"/><path d="M1458.287,764.513c-.4,3.442-1.54,6.138-2.547,6.021s-1.5-3-1.1-6.445,1.54-6.138,2.546-6.021S1458.687,761.071,1458.287,764.513Z" transform="translate(-1432.957 -751.778)" fill="#2b2926"/><path d="M1467.95,768.07c0,.911.138,1.649.309,1.649s.31-.738.31-1.649-.139-1.648-.31-1.648S1467.95,767.16,1467.95,768.07Z" transform="translate(-1443.513 -758.338)" fill="#fff1df"/><path d="M1375.5,732.67s1.167-3.9,2.267-3.73c.393.571-.321,4.3-.321,4.3Z" transform="translate(-1370.931 -728.909)" fill="#2b2926"/><path d="M1382.776,728.846s1.789-.169,1.789.278a22.861,22.861,0,0,1-.585,3.834,18.071,18.071,0,0,1-2.1.431Z" transform="translate(-1375.945 -728.815)" fill="#383531"/><path d="M1386.105,730.975l-.413,2.012,1.479-.189.172-1.823Z" transform="translate(-1378.936 -730.51)" fill="#dbd0c0"/><path d="M1390.951,730.975l-.137,1.169.137-.086.241-1.083Z" transform="translate(-1382.957 -730.51)" fill="#fff"/></g><path d="M1332.188,728.353s4.449.092,4.495-.321S1335.765,725.188,1332.188,728.353Z" transform="translate(-1276.723 -714.227)" fill="#573225"/><path d="M1352.341,782.676a11.245,11.245,0,0,0,1.146-2.963c.183-1.238-1.376-.321-1.376-.321s1.513-2.935.826-3.669-7.2,3.669-7.2,3.669a5.615,5.615,0,0,1-.185-1.192c-.093-.963-1.008-.872-2.317.321-1.209,1.1-2.51,9.671-2.887,11.014-.031.112-.056.173-.074.177l7.808,3.4s4.075-5.369,4.488-6.149-.734-.642-.734-.642a8.169,8.169,0,0,0,1.666-2.844C1353.747,782.235,1352.341,782.676,1352.341,782.676Z" transform="translate(-1283.071 -752.608)" fill="#ffbc7d"/><path d="M1152.354,818.378c.074-.265,4.036-7.705,10.273-1.926,1.1,2.018-1.421,7.626-1.651,9.356-.211,1.588-1.009,17.429,14.768,10.641,13.729-5.906,15.635-16.42,15.635-16.42s7.114-1.559,7.94,3.027c-1.651,5.137-19.172,35.224-41.921,23.575C1148.135,839.751,1150.428,825.258,1152.354,818.378Z" transform="translate(-1134.177 -782.925)" fill="#e5d26f"/><path d="M1150.813,886.566s3.478-5.035,10.536-2.522c-.211-1.075-.3-1.685-.3-1.685s-7.458-3.7-10.436,2.358Z" transform="translate(-1134.178 -835.511)" fill="#47286d"/><path d="M1155.332,907.532s4.136-6.71,10.521-4.23c.333.651.609,1.109.609,1.109s-5.9-1.526-10.412,5.14C1156.05,909.551,1155.417,907.827,1155.332,907.532Z" transform="translate(-1137.881 -852.397)" fill="#47286d"/><path d="M1221.319,789.518s-1.56,5.636,4.219,7.379c-.183,1.559-5.635,5.274-5.635,5.274s-3.951-11.833-.6-13.392C1219.3,788.779,1222.007,788.606,1221.319,789.518Z" transform="translate(-1187.044 -762.912)" fill="#ffefe0"/><path d="M1255.249,821.973c-.1.008,1.619,3.922,1.859,4.919.549-.757.825-5.744.687-6.089S1255.685,821.939,1255.249,821.973Z" transform="translate(-1216.318 -788.023)" fill="#ffefe0"/></g><g transform="translate(213.858 492.156)"><path d="M718.55,972.3a5.4,5.4,0,0,0,.81,4.868c1.754,2.706.8,2.27.8,2.27s-7.184-1.193-6.83-4.166S718.322,971.658,718.55,972.3Z" transform="translate(-687.501 -943.724)" fill="#ffbc7d"/><g transform="translate(22.241)"><path d="M800.189,841.467a29.6,29.6,0,0,1,4.337-1.276c.737.035,7.519,2.445,3.746,9.524,0,0-3.957,2.988-4.7,2.63S800.189,841.467,800.189,841.467Z" transform="translate(-777.943 -840.191)" fill="#383531"/><path d="M793.852,849.526c1.043,2.971-.124,6.113-2.606,7.018s-5.339-.771-6.382-3.743.124-6.113,2.605-7.018S792.809,846.554,793.852,849.526Z" transform="translate(-765.613 -844.388)" fill="#2b2926"/><path d="M765.728,865.9s8.43-4.328,9.369-5.838a6.169,6.169,0,0,0,.5-5.492,5.4,5.4,0,0,0-5.962-2.531,45.682,45.682,0,0,0-6.933,2.737Z" transform="translate(-748.514 -849.366)" fill="#383531"/><path d="M764.381,861.741s4.141,2.2,4.244,6.25-.843,4.8-1.241,5.125-4.682-9.976-4.682-9.976Z" transform="translate(-748.514 -857.109)" fill="#2b2926"/><path d="M712.19,856.617h-8.811s-7.01,1.562-6.673,2.317,3.952,15.332,3.952,15.332,10.149.09,11.532-.526,3.739-3.3,3.739-3.3Z" transform="translate(-696.694 -853.086)" fill="#2b2926"/><path d="M747.317,858.431s3.032,16.271,4.514,15.584a22.392,22.392,0,0,0,4.716-3.5c0-.206-4.615-13.9-4.615-13.9S747.913,856.793,747.317,858.431Z" transform="translate(-736.436 -853.086)" fill="#383531"/><path d="M703.853,872.742s6.019-.475,6.288-.2,2.38,11.311,2.38,11.311h-6.378Z" transform="translate(-702.314 -865.521)" fill="#383531"/><path d="M740.085,880.034a1.353,1.353,0,0,1-.945,1.637,1.331,1.331,0,0,1-1.443-1.2,1.352,1.352,0,0,1,.944-1.637A1.331,1.331,0,0,1,740.085,880.034Z" transform="translate(-728.864 -870.513)" fill="#383531"/><path d="M742.206,883.655c.048.328-.088.621-.3.654s-.431-.206-.479-.534.088-.621.3-.654S742.158,883.327,742.206,883.655Z" transform="translate(-731.801 -873.891)" fill="#2b2926"/></g><g transform="translate(22.088 11.3)"><path d="M706.548,904.881s-6.939-3.158-8.219-7.964.539-2.678.539-2.678.64-1.682,1.145-1.2a1.534,1.534,0,0,1,.539.789s.2-1.443.775-.876a8.9,8.9,0,0,0,1.01.876s.337-1.364.64-1.008.808,4.99,5.626,7.976S706.548,904.881,706.548,904.881Z" transform="translate(-697.467 -892.761)" fill="#ffbc7d"/><path d="M704.235,956.575c-1.989-3.322-9.451-.99-8.085,4.3,1.067,4.133,6.737,12.724,18.595,10.618s15.271-30.573-2.066-34.327c0,0-4.536-1.282-4.851,5.218a3.715,3.715,0,0,0,1.976,1.739c1.437.549,7.815,3.845,7.546,9.52S712.32,966.827,704.235,956.575Z" transform="translate(-695.985 -927.543)" fill="#48eefc"/><path d="M738.954,935.368s-3.849-1.09-3.311-3.012,2.066-4.165,3.1-3.524,3.638,2.288,3.638,2.288Z" transform="translate(-727.078 -920.99)" fill="#31d9e7"/></g><path d="M947.247,1426.423s-5.39,9.291-2.336,10.939,23.176,1.556,24.254,0-4.581-3.387-6.288-4.211S948.948,1423.047,947.247,1426.423Z" transform="translate(-868.582 -1299.837)" fill="#ff5959"/><path d="M672.35,1361.922s-2-4.188-4.222-2.952-8.624,22.724-4.581,25.2,14.957,1.236,14.35,0-6.67-8.788-6.67-8.788S672.934,1364.6,672.35,1361.922Z" transform="translate(-647.403 -1247.281)" fill="#ff5959"/><path d="M961.79,1208.466s18.549.567,18.7,13c.11,8.932-11.572,32.531-13.93,36.055,0,0-8.273,1.179-7.533-1.63,0,0,14.042-24.909,13.168-32.058-.95-7.764-9.038-6.375-9.038-6.375Z" transform="translate(-880.364 -1129.307)" fill="#ffbc7d"/><path d="M738.7,1377.913s-4.479,15.311-16.68,15.6c-3.518.083-10.525-.623-19.238-12.706,0,0-1.437-9.154,1.078-7.781,0,0,10.756,10.958,17.786,11.717,7.635.824,8.148-7.518,8.148-7.518Z" transform="translate(-678.909 -1258.384)" fill="#ffbc7d"/><path d="M802.834,1199.632s-2.576,8.737-1.054,11.209a9.447,9.447,0,0,1,1.593,3.982s-2.676,1.373-1.037,3.57,2,7.689,2,7.689-2.425,4.806-4.02,6.042l-1.595,1.236c.674,1.648,16.978,2.2,16.978,2.2s3.493-14.005,2.016-26.775c4.182-.137,17.118,4.806,17.118,4.806l11.858-16.477s-15.63-3.845-17.112-3.845h-1.482a1.66,1.66,0,0,0-.809-1.785l-2.83,2.06a10.414,10.414,0,0,0-5.659-1.007C815.967,1192.99,802.834,1199.632,802.834,1199.632Z" transform="translate(-754.549 -1115.972)" fill="#47286d"/><path d="M812.955,1185.415l.489,3.57s16.259-6.408,16.528-7.323-1.8-3.891-1.752-4.028S812.955,1185.415,812.955,1185.415Z" transform="translate(-765.725 -1105.1)" fill="#48eefc"/><path d="M717.227,1014.28s.539,13.113,11.251,21.351,7.007,9.406,7.68,11.534,1.819,1.922,1.819,1.922,14.35-6.8,14.957-6.728,2.762-1.922,2.493-3.707-8.556-16.889-9.432-18.88-.539-10.779-20.414-15.79C721.135,1003.776,717.227,1014.28,717.227,1014.28Z" transform="translate(-690.573 -968.773)" fill="#31d9e7"/><path d="M683.083,997.326s-10.106,18.33-11.992,18.468-10.375-12.426-9.769-16.408S683.5,994.684,683.083,997.326Z" transform="translate(-646.66 -962.323)" fill="#48eefc"/><g transform="translate(34.483 8.809)"><path d="M764.213,893.291s-6.939-3.158-8.219-7.964.539-2.677.539-2.677.64-1.682,1.145-1.2a1.534,1.534,0,0,1,.539.79s.2-1.443.775-.876a8.893,8.893,0,0,0,1.011.876s.337-1.363.64-1.008.808,4.99,5.626,7.976S764.213,893.291,764.213,893.291Z" transform="translate(-755.131 -881.171)" fill="#ffbc7d"/><path d="M761.9,944.985c-1.989-3.322-9.451-.991-8.085,4.3,1.067,4.133,6.737,12.724,18.595,10.619s15.271-30.574-2.066-34.327c0,0-4.536-1.282-4.851,5.218a3.716,3.716,0,0,0,1.976,1.739c1.437.549,7.815,3.845,7.546,9.52S769.984,955.238,761.9,944.985Z" transform="translate(-753.649 -915.954)" fill="#48eefc"/><path d="M796.618,923.777s-3.849-1.09-3.311-3.012,2.066-4.165,3.1-3.524,3.638,2.289,3.638,2.289Z" transform="translate(-784.742 -909.4)" fill="#31d9e7"/></g><g transform="translate(0 3.407)"><ellipse cx="5.165" cy="8.238" rx="5.165" ry="8.238" transform="translate(25.468 9.947)" fill="#ffbc7d"/><path d="M641.181,857.7s-5.3-1.922-9.163-.641-12.127,3.936-11.857,14.28c.27,1.281,1.976-.092,1.976-.458s-1.8,11.9-.449,11.717,2.335-2.105,2.335-2.105-1.886,15.1-.449,15.2,3.773-3.2,3.773-3.2-1.168,8.7,1.258,7.781,5.659-12.083,5.659-12.083,2.066,9.154,3.952,6.133a30.3,30.3,0,0,0,2.964-7.14s1.347,4.3,2.515,2.289,0-12.907,0-12.907v-6.774s2.156,7.14,3.324,5.95.449-6.224.449-6.224,1.707.366,1.527-2.014S649.607,858.543,641.181,857.7Z" transform="translate(-614.366 -856.494)" fill="#804937"/><path d="M650.589,873.854a2.041,2.041,0,1,1-2.038-2.145A2.094,2.094,0,0,1,650.589,873.854Z" transform="translate(-635.059 -868.341)" fill="#ff6e6e"/><path d="M607.1,859.993s-1.213-4.771-7.411-3.828-6.939,3.484-6.265,3.828a5.534,5.534,0,0,0,2.425,0s-3.3,4.119-1.752,4.119a7.8,7.8,0,0,0,3.571-1.51s-1.5,5.185.2,4.394a3.638,3.638,0,0,0,1.954-2.609s0,4.97,1.684,2.691.741-5.917,4.447-4.75C605.958,862.327,608.339,862.107,607.1,859.993Z" transform="translate(-593.224 -856.042)" fill="#945440"/><path d="M723.2,920.162c.17-.172-.943-5.254-2.605-3.652s-.674,6.408,1.662,6.682c.539-.183.09-2.975.09-2.975S722.438,920.93,723.2,920.162Z" transform="translate(-692.569 -903.268)" fill="#ff8157"/></g></g><g transform="translate(109.988 567.014)"><path d="M152.548,1346.058s-2.244-2.083-3.325-2.243-3.726.521-3.726,8.052,6.129,3.726,6.129,3.445S152.548,1346.058,152.548,1346.058Z" transform="translate(-137.865 -1310.405)" fill="#303030"/><path d="M423.513,1350.25s-3.955-1.229-4.782-3.846,2.378-4.647,3.633-3.9,4.647,2.577,4.273,3.185S423.513,1350.25,423.513,1350.25Z" transform="translate(-352.263 -1309.269)" fill="#7f4cbc"/><path d="M447.719,1357.615s10.341,4.485,17.73.82,4.424-6.91,3.543-6.91-5.448,3.89-13.781,1.965S447.719,1357.615,447.719,1357.615Z" transform="translate(-375.107 -1316.475)" fill="#f0a663"/><path d="M441.333,1359.707s-3.152.853-3.526-.483,1.448-5.662,2.086-5.715a17.236,17.236,0,0,1,3.415,1.095s-2.749,3.419-2.537,4.3S441.333,1359.707,441.333,1359.707Z" transform="translate(-367.304 -1318.029)" fill="#47286d"/><g transform="translate(91.917 29.176)"><path d="M541.3,1338.032a40.1,40.1,0,0,1,6.118-.445c.931.177,1.707-.192,1.747,1.4s-.367,10.206-.367,10.206-2.387,1.851-3.076,1.893S541.3,1338.032,541.3,1338.032Z" transform="translate(-540.505 -1334.679)" fill="#2b2926"/><path d="M538.173,1339.458s-1.055,12.106-.263,12.522a14.5,14.5,0,0,0,5.105.287c.367-.213.256-12.255.16-12.516S538.528,1338.707,538.173,1339.458Z" transform="translate(-537.616 -1335.927)" fill="#383531"/><path d="M566.939,1352.9c.451.085,9.3.609,9.3.609l.046-10.93h-9.028a3.881,3.881,0,0,0-1.1,2.727C565.961,1347.35,565.7,1352.667,566.939,1352.9Z" transform="translate(-559.891 -1338.628)" fill="#383531"/><path d="M594.805,1342.583s-4.9,3.7-1.252,10.733l2.042.124.759-10.857Z" transform="translate(-580.47 -1338.63)" fill="#2b2926"/><path d="M598.906,1340.25a3.918,3.918,0,0,1,2.339-.981c1.3-.011,3.767-.279,4.117.849s1.481,11.413-1.455,11.55-5.415.241-6.053-1.7S596.717,1343.279,598.906,1340.25Z" transform="translate(-584.478 -1336.001)" fill="#383531"/><path d="M623.038,1349.122c-.124,2.88-.907,5.186-1.749,5.15s-1.424-2.4-1.3-5.281.907-5.186,1.749-5.149S623.162,1346.242,623.038,1349.122Z" transform="translate(-602.27 -1339.617)" fill="#2b2926"/><path d="M629.876,1352c.055.755.215,1.359.356,1.349s.212-.631.157-1.386-.214-1.359-.356-1.349S629.821,1351.249,629.876,1352Z" transform="translate(-610.03 -1344.937)" fill="#fff1df"/><path d="M551.559,1327.8s.732-3.31,1.656-3.231c.361.45-.006,3.589-.006,3.589Z" transform="translate(-548.562 -1324.483)" fill="#2b2926"/><path d="M557.554,1324.272s1.474-.248,1.5.123a19.033,19.033,0,0,1-.254,3.216,14.977,14.977,0,0,1-1.715.484Z" transform="translate(-552.901 -1324.191)" fill="#383531"/><path d="M559.879,1325.872l-.221,1.694,1.216-.246.033-1.523Z" transform="translate(-554.92 -1325.452)" fill="#dbd0c0"/><path d="M563.714,1325.86l-.044.979.109-.08.134-.914Z" transform="translate(-558.07 -1325.49)" fill="#fff"/></g><path d="M421.689,1376.116s16.505-2.043,22.515-10.616c.561-2.2,2.564-6.957,3-6.624a2.08,2.08,0,0,1,.6,1.052s3.565-2.6,3.846-1.92a2.958,2.958,0,0,1,0,1.642s1.763-.32,1.723.681a2.769,2.769,0,0,1-.561,1.6.737.737,0,0,1,.881.721c.12.881-.921,1.843-.921,1.843s1.051.04.441,1.082-16.465,17.307-30.808,18.629C420.887,1383.006,421.689,1376.116,421.689,1376.116Z" transform="translate(-354.524 -1321.474)" fill="#ffbc7d"/><path d="M180.012,1196.1a20.292,20.292,0,0,1,4.174-1.5c2.525-.628,1.075,9.27,1.075,9.27s6.25,12.82,3.365,13.9-11.9-7.776-11.818-11.6S180.012,1196.1,180.012,1196.1Z" transform="translate(-162.444 -1193.26)" fill="#ffbc7d"/><path d="M239.7,1290.394a4.209,4.209,0,0,0-.588,5.943c2.564,3.352,18.108,23.115,22.114,20.445s8.5-7.371,4.09-13.3S239.7,1290.394,239.7,1290.394Z" transform="translate(-210.572 -1268.483)" fill="#587d8c"/><path d="M187.347,1368.155c.165.16,18.22,7.905,21.158,2.03s-1.5-9.134-5.021-10.79-13.717-1.656-13.717-1.656Z" transform="translate(-170.719 -1321.352)" fill="#628b9c"/><path d="M166.5,1359.319s1.117-8.135,3.55-6.845,5.414,2.913,5.414,2.913-.578-.18-1.219,1.048-1.816,7.158-1.816,7.158Z" transform="translate(-154.35 -1317.109)" fill="#7aaec2"/><path d="M120.745,1367.127s-5.929-5.662-8.119-4.914-2.884,3.686-2.564,8.439,1.5,11.965,1.763,14.048,6.623,4.224,9.722,3.127,5.074-1.816,3.686-3.566-3.2-3.567-3.2-3.567Z" transform="translate(-109.988 -1324.811)" fill="#363636"/><path d="M149.647,1394.9a5.56,5.56,0,0,1-3.1,0c-1.709-.487-4.22-1.289-4.594-1.716s-3.632-5.609-1.015-10.256,5.021-4.7,5.5-4.327,3.205,2.457,3.953,2.564,1.442.481,1.389,1.389S149.647,1394.9,149.647,1394.9Z" transform="translate(-133.496 -1337.617)" fill="#91cee6"/><path d="M150.62,1201.676s-25.319,19.153,0,34.175c12.74,4.605,21.473,6.849,18.348,9.413s-19.39-1.6-19.39-1.6-5.609,7.451-1.442,12.179c0,0,25.72,7.131,32.77-2.965s1.265-15.784-1.891-17.948-16.778-10.161-16.7-11.531c0,0-5.448.546-9.775-6.661S150.62,1201.676,150.62,1201.676Z" transform="translate(-133.052 -1198.834)" fill="#6c99ab"/><path d="M407.885,1439.427s-.32-.752.281-.752,2.491-.393,3.325,0c2.043.961,1.042,7.936-.16,9.1a3.846,3.846,0,0,1-3.245.8c-.6,0-.961-.561-.921-1.763S407.885,1439.427,407.885,1439.427Z" transform="translate(-343.285 -1384.754)" fill="#47286d"/><path d="M247.838,1207.919s-3.043-5.485-12.818-11.014-20.111-11.3-34.453-6.891c0,0-6.891,13.927,5.128,22.627,5.368,1.971,15.544,2.772,25.72,14.87,1.362,3.445-1.255,6.356-2.217,7.692s-7.158,12.392.481,14.743a37.856,37.856,0,0,0,14.9,1.282s2.778-5.342.534-8.119c0,0-8.92.374-7.478-2.244s8.28-8.279,8.814-15.01a12.2,12.2,0,0,1,5.983-9.548Z" transform="translate(-179.554 -1188.454)" fill="#bb83ff"/><path d="M371.651,1283.615s-10.676-8.44-12.523-10.2-3.183-10.262,3.228-11.271,11.057,4.968,11.057,4.968l3.846,12.192S373.254,1281.639,371.651,1283.615Z" transform="translate(-304.38 -1246.214)" fill="#47286d"/><path d="M396.738,1296.561s-5.773-8.936-7.055-10.578-.292-7.131,2.5-6.971,8.88,13.861,8.88,13.861Z" transform="translate(-329.129 -1259.545)" fill="#7a2e9e"/><g transform="translate(60.796 7.625)"><path d="M419.238,1284.922s5.528,10.737,14.222,6.29,7.1-15.5,5.411-18.549S418.637,1274.185,419.238,1284.922Z" transform="translate(-413.551 -1261.461)" fill="#ffbc7d"/><path d="M404.247,1225.916s9.174-3.245,10.817-1.442a2.5,2.5,0,0,1,0,3.485s3.045-1.122,3.566,0-1.122,3.485-1.122,3.485,3.365-.36,3.365,1.4-2.484,3.285-4.407,3.526-4.848.24-4.848.24-3.966,1.522-4.046,2.284.841,4.607-.28,4.888-2.6-1.923-2.6-1.923-3.605,2.364-3.405,3.886,1.282,3.606.16,4.086-2.4-2.6-2.4-2.6,1.322,3.147,0,2.655-7.692-8.784-5.889-13.832,3.886-5.007,3.886-5.007-1-1.242-.32-1.883,1.442.841,1.442.841S402.139,1226.593,404.247,1225.916Z" transform="translate(-392.831 -1223.928)" fill="#454545"/><path d="M481.125,1283.929c.073.033,3.365-1.444,3.205-2.031s-.107-.881-.828-.56S479.9,1283.369,481.125,1283.929Z" transform="translate(-461.911 -1268.895)" fill="#262626"/><path d="M505.507,1279.956s-.882.08-.374.748,2.217,1.391,2.27.882S506.522,1280.17,505.507,1279.956Z" transform="translate(-480.871 -1267.913)" fill="#262626"/><path d="M488.946,1300.04c-.022,1.2-.572,2.158-.842,2.153s-.161-.975-.139-2.173-.049-2.171.22-2.166S488.968,1298.842,488.946,1300.04Z" transform="translate(-467.485 -1281.964)" fill="#262626"/><path d="M511.648,1294.821c-.022,1.2-.572,2.158-.841,2.153s-.161-.975-.139-2.173-.049-2.172.22-2.166S511.67,1293.623,511.648,1294.821Z" transform="translate(-485.308 -1277.867)" fill="#262626"/><path d="M502.3,1306.174s3.4,4.407,1.725,5.8S500.514,1310.607,502.3,1306.174Z" transform="translate(-478.196 -1288.496)" fill="#ff8157"/><path d="M433.039,1304.435s-.761-3.926-3.325-3.405-2.884,7.331,0,7.011,1.843-2.283,1.843-2.283S433.39,1305.585,433.039,1304.435Z" transform="translate(-420.181 -1284.42)" fill="#ff8157"/><path d="M465.973,1335.794c-.316-.239-.663-.078-1.041-.034a2.385,2.385,0,0,1-2-.722,4.1,4.1,0,0,1-1.15-1.639c-.185-.513-.194-1.041-.426-1.546a.1.1,0,0,0-.173,0c-.63,1.428.271,2.687,1.353,3.582.751.621,2.736,1.51,3.443.373A.01.01,0,0,0,465.973,1335.794Z" transform="translate(-446.326 -1308.616)" fill="#ff8157"/></g><path d="M513.761,1366.2c-3.647-1.927-.429-5.527-.429-5.527s.756-.156,1.421-.325a3.559,3.559,0,0,0,.308,5.411S514.168,1366.086,513.761,1366.2Z" transform="translate(-425.605 -1323.396)" fill="#404040"/><path d="M179.512,1233.042s-12.752-2.39-11.176-18.024l-2,1.915S162.777,1233.689,179.512,1233.042Z" transform="translate(-153.974 -1209.308)" fill="#303030"/><path d="M164.88,1244.577l3.766-2.083,1.442,5.008-3.726,2.564Z" transform="translate(-153.082 -1230.878)" fill="#735336"/><path d="M192.592,1281.261l-2.364,2.844,1.8.959,1.165-2.8Z" transform="translate(-172.981 -1261.313)" fill="#6c99ab"/><path d="M161.525,1228.886l3.926-2.324-.2-1.4-3.525,2.083Z" transform="translate(-150.448 -1217.271)" fill="#6c99ab"/><path d="M142.391,1254.236s.921,3.846,1.642,5.809c0,0-3.165,4.046-3.605,5.609-.641-2.364-1.541-3.523-1.036-5.915S142.391,1254.236,142.391,1254.236Z" transform="translate(-132.956 -1240.097)" fill="#7aaec2"/></g></g></svg>