<svg xmlns="http://www.w3.org/2000/svg" width="105.667" height="100.696" viewBox="0 0 105.667 100.696"><g transform="translate(-3.115 -5.899)"><path d="M93.414,24.537H81.857v8.284A3.433,3.433,0,0,1,77,35.943L65.565,30.728V36.4a3.433,3.433,0,0,1-3.433,3.433H33.687A3.433,3.433,0,0,1,30.255,36.4V24.537H18.7A14.083,14.083,0,0,0,4.615,38.62V93.07A14.083,14.083,0,0,0,18.7,107.153H93.414A14.083,14.083,0,0,0,107.5,93.07V38.62A14.084,14.084,0,0,0,93.414,24.537Z" transform="translate(-0.107 -1.949)" fill="#fff"/><path d="M93.414,27.165H81.857v6.214A3.446,3.446,0,0,1,77,36.647L65.565,31.189v5.935a3.515,3.515,0,0,1-3.433,3.592H33.687a3.515,3.515,0,0,1-3.433-3.592V27.165H18.7c-7.777,0-14.083,6.6-14.083,14.737V80.01H107.5V41.9c0-8.139-6.3-14.736-14.082-14.736Z" transform="translate(-0.107 -4.577)" fill="#31d9e7"/><path d="M93.414,113.516H18.7A14.083,14.083,0,0,1,4.615,99.433V83.744H107.5V99.433a14.083,14.083,0,0,1-14.082,14.083Z" transform="translate(-0.107 -8.312)" fill="#f17781"/><path d="M80.087,11.289,68.653,16.5V10.833A3.433,3.433,0,0,0,65.221,7.4H36.776a3.433,3.433,0,0,0-3.433,3.433V34.559a3.433,3.433,0,0,0,3.433,3.433H65.221a3.433,3.433,0,0,0,3.433-3.433V28.887L80.087,34.1a3.433,3.433,0,0,0,4.858-3.123V14.413A3.434,3.434,0,0,0,80.087,11.289Z" transform="translate(-3.195 -0.108)" fill="#f17781"/><path d="M93.307,21.7H82.642v-7.39a4.326,4.326,0,0,0-6.121-3.936L66.35,15.008V10.725A4.331,4.331,0,0,0,62.024,6.4H53.29a.893.893,0,0,0,0,1.785h8.733a2.544,2.544,0,0,1,2.541,2.541V16.4a.893.893,0,0,0,1.263.812l11.433-5.216a2.54,2.54,0,0,1,3.6,2.312V30.871a2.54,2.54,0,0,1-3.594,2.311L65.829,27.966a.893.893,0,0,0-1.263.812V34.45a2.544,2.544,0,0,1-2.541,2.54H33.58a2.543,2.543,0,0,1-2.54-2.54V10.725a2.544,2.544,0,0,1,2.54-2.541h4.668a.893.893,0,0,0,0-1.785H33.58a4.33,4.33,0,0,0-4.325,4.326V21.7H18.591A14.992,14.992,0,0,0,3.615,36.67V91.12A14.992,14.992,0,0,0,18.591,106.1H93.307A14.992,14.992,0,0,0,108.282,91.12V36.67A14.992,14.992,0,0,0,93.307,21.7ZM18.591,23.48H29.255V34.451a4.33,4.33,0,0,0,4.325,4.325H62.025a4.331,4.331,0,0,0,4.326-4.325V30.167l10.171,4.639a4.326,4.326,0,0,0,6.121-3.935V23.48H93.308A13.2,13.2,0,0,1,106.5,36.67V74.539H5.4V36.67A13.206,13.206,0,0,1,18.591,23.48ZM106.5,91.12a13.2,13.2,0,0,1-13.19,13.19H18.591A13.206,13.206,0,0,1,5.4,91.12v-14.8H106.5Z" transform="translate(0 0)" fill="#47286d" stroke="#47286d" stroke-width="1"/><path d="M47.373,8.184h5.834a.893.893,0,0,0,0-1.785H47.373a.893.893,0,1,0,0,1.785Z" transform="translate(-4.607)" fill="#3a2c60"/><g transform="translate(18.426 13.606)"><path d="M48.4,14.633l13.674,7.9a1.175,1.175,0,0,1,0,2.036L48.4,32.459a1.175,1.175,0,0,1-1.763-1.017V15.65A1.175,1.175,0,0,1,48.4,14.633Z" transform="translate(-23.05 -14.473)" fill="#fff"/><path d="M37.332,68.607H28.178V52.124a3.366,3.366,0,0,0-.743-2.362,2.558,2.558,0,0,0-1.952-.807,2.479,2.479,0,0,0-1.924.818,3.416,3.416,0,0,0-.723,2.349v17.79a3.346,3.346,0,0,0,.766,2.423,3.319,3.319,0,0,0,2.434.776h11.3A2.894,2.894,0,0,0,39.3,72.5a2.076,2.076,0,0,0,.711-1.627,2.126,2.126,0,0,0-.715-1.632A2.841,2.841,0,0,0,37.332,68.607Z" transform="translate(-20.491 -18.179)" fill="#fff"/><path d="M47.64,48.957a2.484,2.484,0,0,0-1.915.818,3.392,3.392,0,0,0-.733,2.351v18.2a3.4,3.4,0,0,0,.741,2.358,2.479,2.479,0,0,0,1.907.825,2.549,2.549,0,0,0,1.954-.816,3.4,3.4,0,0,0,.742-2.368v-18.2a3.366,3.366,0,0,0-.743-2.362,2.565,2.565,0,0,0-1.953-.806Z" transform="translate(-22.872 -18.18)" fill="#fff"/><path d="M74,49.3a2.5,2.5,0,0,0-1.278-.345,2.316,2.316,0,0,0-1.5.461,2.621,2.621,0,0,0-.773.993c-.14.328-.35.912-.624,1.734L64.891,66.813,59.975,52.257a9.948,9.948,0,0,0-1.057-2.421,2.211,2.211,0,0,0-1.968-.878,2.5,2.5,0,0,0-1.86.761,2.385,2.385,0,0,0-.74,1.7,3.961,3.961,0,0,0,.111.844,6.5,6.5,0,0,0,.266.9c.1.26.195.524.29.8l5.5,14.963c.2.58.4,1.135.6,1.65a7.577,7.577,0,0,0,.734,1.442,3.381,3.381,0,0,0,1.169,1.083,3.544,3.544,0,0,0,1.763.413,3.352,3.352,0,0,0,2.923-1.495,7.319,7.319,0,0,0,.727-1.436c.2-.524.4-1.082.6-1.65l5.6-15.1q.141-.407.281-.79a7.281,7.281,0,0,0,.248-.826,3.619,3.619,0,0,0,.1-.825,2.29,2.29,0,0,0-.337-1.168A2.555,2.555,0,0,0,74,49.3Z" transform="translate(-23.878 -18.179)" fill="#fff"/><path d="M98.773,69.379a2.713,2.713,0,0,0-1.886-.6H86.315V62.873H95.69a2.578,2.578,0,0,0,1.836-.588,2.021,2.021,0,0,0,.622-1.524,1.961,1.961,0,0,0-.636-1.514,2.635,2.635,0,0,0-1.823-.567H86.315v-5.01H96.525a2.725,2.725,0,0,0,1.886-.583,2.175,2.175,0,0,0,0-3.105,2.725,2.725,0,0,0-1.886-.583H84.172a4.287,4.287,0,0,0-1.769.321,2.189,2.189,0,0,0-1.1,1.091,4.232,4.232,0,0,0-.331,1.788V69.964a2.769,2.769,0,0,0,3.2,3.2H96.887a2.71,2.71,0,0,0,1.886-.6,2.048,2.048,0,0,0,.667-1.576A2.08,2.08,0,0,0,98.773,69.379Z" transform="translate(-26.739 -18.227)" fill="#fff"/><path d="M28.942,97.987a5.866,5.866,0,0,0-1.466-.73,18.6,18.6,0,0,0-1.847-.527c-.528-.134-.911-.236-1.137-.3a3.285,3.285,0,0,1-.628-.267,1.326,1.326,0,0,1-.434-.358.683.683,0,0,1-.131-.426.888.888,0,0,1,.439-.727,2.237,2.237,0,0,1,1.319-.35,2.009,2.009,0,0,1,1.257.3,2.8,2.8,0,0,1,.7.955,3.045,3.045,0,0,0,.526.756,1.176,1.176,0,0,0,.849.3,1.278,1.278,0,0,0,1-.452,1.454,1.454,0,0,0,.384-.984,2.5,2.5,0,0,0-.276-1.1,3.347,3.347,0,0,0-.849-1.046,4.336,4.336,0,0,0-1.43-.781,6.227,6.227,0,0,0-2-.288,6.678,6.678,0,0,0-2.5.433,3.7,3.7,0,0,0-1.69,1.283,3.283,3.283,0,0,0-.593,1.926A3.162,3.162,0,0,0,21,97.5,3.794,3.794,0,0,0,22.5,98.7a11.6,11.6,0,0,0,2.207.723c.625.143,1.128.279,1.5.4a2.028,2.028,0,0,1,.808.485,1,1,0,0,1,.27.739,1.189,1.189,0,0,1-.541.99,2.543,2.543,0,0,1-1.549.436,2.46,2.46,0,0,1-1.111-.212,1.685,1.685,0,0,1-.627-.527,4.55,4.55,0,0,1-.456-.884,2.24,2.24,0,0,0-.53-.839,1.23,1.23,0,0,0-.86-.328,1.369,1.369,0,0,0-1.4,1.379,3.223,3.223,0,0,0,.556,1.723,4.2,4.2,0,0,0,1.426,1.382,6.047,6.047,0,0,0,3.062.708,6.427,6.427,0,0,0,2.669-.515,4.013,4.013,0,0,0,1.761-1.463,3.82,3.82,0,0,0,.606-2.11,3.6,3.6,0,0,0-.356-1.665,3.192,3.192,0,0,0-.991-1.138Z" transform="translate(-20.209 -22.8)" fill="#fff"/><path d="M42.373,92.181H34.719a1.662,1.662,0,0,0-1.11.344,1.325,1.325,0,0,0-.019,1.923,1.633,1.633,0,0,0,1.129.353h2.31v8.317a1.886,1.886,0,0,0,.42,1.317,1.441,1.441,0,0,0,1.1.467,1.426,1.426,0,0,0,1.092-.463,1.892,1.892,0,0,0,.416-1.322V94.8h2.31a1.669,1.669,0,0,0,1.134-.351,1.22,1.22,0,0,0,.416-.956,1.239,1.239,0,0,0-.408-.957,1.66,1.66,0,0,0-1.142-.356Z" transform="translate(-21.604 -22.825)" fill="#fff"/><path d="M56.991,101.271a10.676,10.676,0,0,0-1.074-1.459,5.423,5.423,0,0,0-.7-.673,4.1,4.1,0,0,0,1.744-1.033,3.287,3.287,0,0,0,.836-2.342,3.715,3.715,0,0,0-.245-1.342,3.271,3.271,0,0,0-.722-1.126,3.351,3.351,0,0,0-1.084-.74,3.823,3.823,0,0,0-1.132-.306,12.261,12.261,0,0,0-1.424-.071H49.274a1.571,1.571,0,0,0-1.793,1.793v9.146a1.96,1.96,0,0,0,.392,1.3,1.414,1.414,0,0,0,1.134.485,1.44,1.44,0,0,0,1.1-.458,1.892,1.892,0,0,0,.418-1.327v-3.5h.526a2.573,2.573,0,0,1,.943.147,1.993,1.993,0,0,1,.712.549,8.612,8.612,0,0,1,.894,1.3l.965,1.606c.229.382.414.677.549.875a2.161,2.161,0,0,0,.556.565,1.488,1.488,0,0,0,.861.246,1.619,1.619,0,0,0,.745-.169,1.377,1.377,0,0,0,.53-.474,1.159,1.159,0,0,0,.2-.639,2.574,2.574,0,0,0-.28-.954,11,11,0,0,0-.735-1.394ZM54.72,95.919a1.176,1.176,0,0,1-.235.785,1.409,1.409,0,0,1-.742.411,5.777,5.777,0,0,1-1.382.14H50.523V94.623h1.9a4.569,4.569,0,0,1,1.54.154,1.2,1.2,0,0,1,.556.447,1.216,1.216,0,0,1,.2.7Z" transform="translate(-23.14 -22.825)" fill="#fff"/><path d="M70.61,102.153H65.317V99.407h4.677a1.46,1.46,0,0,0,1.046-.344,1.181,1.181,0,0,0,.366-.891,1.15,1.15,0,0,0-.376-.887,1.5,1.5,0,0,0-1.036-.33H65.317V94.671h5.107a1.54,1.54,0,0,0,1.069-.338,1.266,1.266,0,0,0,0-1.815,1.538,1.538,0,0,0-1.069-.338H64.067a2.35,2.35,0,0,0-.971.179,1.27,1.27,0,0,0-.637.632,2.321,2.321,0,0,0-.184.983v8.935a1.567,1.567,0,0,0,1.793,1.792h6.543a1.531,1.531,0,0,0,1.069-.347,1.193,1.193,0,0,0,.391-.919,1.212,1.212,0,0,0-.391-.935,1.544,1.544,0,0,0-1.07-.345Z" transform="translate(-24.73 -22.825)" fill="#fff"/><path d="M83.3,94.4q-.221-.58-.364-.928a3.766,3.766,0,0,0-.381-.7,1.945,1.945,0,0,0-.648-.586,2,2,0,0,0-1-.231,1.98,1.98,0,0,0-.988.232,1.894,1.894,0,0,0-.65.6,4.4,4.4,0,0,0-.421.835L75.5,102.133c-.129.32-.22.563-.276.746a2,2,0,0,0-.1.6,1.325,1.325,0,0,0,.447.984,1.442,1.442,0,0,0,1.022.42,1.2,1.2,0,0,0,1.024-.438,5.547,5.547,0,0,0,.611-1.284l.491-1.317h4.393l.49,1.287,0,.008c.077.186.168.4.274.644a2.828,2.828,0,0,0,.337.6,1.317,1.317,0,0,0,.448.363,1.4,1.4,0,0,0,.628.135,1.448,1.448,0,0,0,1.056-.437,1.365,1.365,0,0,0,.437-.983,4.063,4.063,0,0,0-.388-1.391ZM82.229,99.4H79.582l1.311-3.656Z" transform="translate(-26.111 -22.801)" fill="#fff"/><path d="M102.29,92.506a2.254,2.254,0,0,0-1.271-.325h-.746a3.094,3.094,0,0,0-1.1.145,1.133,1.133,0,0,0-.62.6,6.938,6.938,0,0,0-.351,1.081l-1.42,5.354-1.42-5.353a6.9,6.9,0,0,0-.352-1.082,1.136,1.136,0,0,0-.62-.6,3.088,3.088,0,0,0-1.1-.145h-.746a2.254,2.254,0,0,0-1.271.326,1.472,1.472,0,0,0-.546,1.314v9.405a1.783,1.783,0,0,0,.391,1.24,1.432,1.432,0,0,0,2.072-.006,1.8,1.8,0,0,0,.385-1.233V97.583l1.281,5.089v0q.1.375.191.72a2.956,2.956,0,0,0,.287.7,1.6,1.6,0,0,0,1.443.809,1.57,1.57,0,0,0,1.087-.365,1.807,1.807,0,0,0,.522-.762c.081-.239.184-.6.311-1.108l1.28-5.089v5.643a1.785,1.785,0,0,0,.39,1.234,1.321,1.321,0,0,0,1.022.444,1.347,1.347,0,0,0,1.051-.446,1.8,1.8,0,0,0,.385-1.233V93.82a1.468,1.468,0,0,0-.544-1.314Z" transform="translate(-27.789 -22.825)" fill="#fff"/></g></g></svg>