<svg xmlns="http://www.w3.org/2000/svg" xmlns:xlink="http://www.w3.org/1999/xlink" width="417.272" height="324.222" viewBox="0 0 417.272 324.222"><defs><clipPath id="a"><circle cx="109.999" cy="109.999" r="109.999" transform="translate(206.922 9061.994)" fill="#bb83ff" opacity="0.81"/></clipPath><clipPath id="b"><path d="M244.432,464.8c-.265,6.427-1.194,12.811-4.423,16.729a23.54,23.54,0,0,1-7.522,5.492c-25.259,13.257-54.138,16.652-82.373,18.018-19.994.968-40.348.983-59.606-4.714a107.139,107.139,0,0,1-59.454-45.182c-14.7-23.225-21.07-53.214-15.353-80.63,3.239-15.538,11.672-30.466,24.93-38.277-2.348-12.026-2.282-22.47,3.124-33.559,18.752-38.46,64.386-33.572,97.5-22.193,10.992,3.777,20.073,3.673,31.526,2.088,10.687-1.479,21.652-2.237,32.169.241,15.588,3.673,29.227,14.9,36.848,29.5,9.258,17.74,8.129,39.864,7.076,59.4q-1.454,26.964-2.907,53.929l-1.331,24.719C244.425,454.338,244.647,459.583,244.432,464.8Z" transform="translate(-13.62 -272.299)" fill="none"/></clipPath><clipPath id="c"><path d="M12.5,0c7.015.112,12.794,6.253,12.906,13.714s-5.484,13.42-12.5,13.308S.114,20.771,0,13.309,5.485-.111,12.5,0Z" transform="matrix(0.231, -0.973, 0.973, 0.231, 0, 24.721)" fill="none"/></clipPath><clipPath id="d"><path d="M224.778,433.35c0-2.852.741-42.452,7.034-42.7,30-1.164,18.586,39.612,18.586,41.475,0,2.872-4.658,5.434-12.111,5.434C229.436,437.562,224.778,435.932,224.778,433.35Z" transform="translate(-224.778 -390.629)" fill="none"/></clipPath></defs><g transform="translate(-204 -9028.712)"><g opacity="0.75"><g transform="translate(499.888 9179.49)"><g transform="translate(4.292 3.317)"><rect width="96.833" height="2.403" fill="#47286d"/></g><g transform="translate(0 0.001)"><circle cx="4.518" cy="4.518" r="4.518" fill="#47286d"/></g><g transform="translate(96.381)"><path d="M247.035,581.154a4.518,4.518,0,1,0-4.518-4.518A4.519,4.519,0,0,0,247.035,581.154Z" transform="translate(-242.517 -572.117)" fill="#47286d"/></g></g><g transform="matrix(0.848, -0.53, 0.53, 0.848, 483.922, 9111.721)"><g transform="translate(4.04 3.122)"><rect width="145.101" height="2.262" fill="#47286d"/></g><g transform="translate(0 0.001)"><circle cx="4.253" cy="4.253" r="4.253" fill="#47286d"/></g><g transform="translate(148.139)"><path d="M246.77,580.623a4.253,4.253,0,1,0-4.253-4.253A4.254,4.254,0,0,0,246.77,580.623Z" transform="translate(-242.517 -572.117)" fill="#47286d"/></g></g><g transform="matrix(0.848, 0.53, -0.53, 0.848, 488.429, 9262.711)"><g transform="translate(4.04 3.122)"><rect width="145.101" height="2.262" transform="translate(0 0)" fill="#47286d"/></g><g transform="translate(0 0)"><ellipse cx="4.253" cy="4.253" rx="4.253" ry="4.253" transform="translate(0 0)" fill="#47286d"/></g><g transform="translate(148.139 0)"><path d="M4.253,0A4.253,4.253,0,1,1,0,4.253,4.254,4.254,0,0,1,4.253,0Z" fill="#47286d"/></g></g></g><g transform="translate(204 9059)" fill="#fff" stroke="#47286d" stroke-width="3" stroke-dasharray="3 4"><circle cx="136" cy="136" r="136" stroke="none"/><circle cx="136" cy="136" r="134.5" fill="none"/></g><circle cx="124" cy="124" r="124" transform="translate(216 9071)" fill="#bb83ff" opacity="0.5"/><g transform="translate(23.022 23.006)" clip-path="url(#a)"><g transform="translate(196.236 9048.768)"><g transform="translate(0 0)"><g transform="translate(0 0)" clip-path="url(#b)"><path d="M349.665,277.551V485.646H12.028V417.127l66.5-51.6V314.348l69.062-39.969,59.562-4.018C261.321,268.031,310.645,269.136,349.665,277.551Z" transform="translate(-100.109 -265.939)" fill="#fff" opacity="0.81"/><g transform="translate(136.241 53.608)"><g transform="translate(0 0)"><g transform="translate(1.174 1.447)"><g transform="translate(0 0)" clip-path="url(#c)"><g transform="translate(-0.556 -1.978)"><path d="M153.3,306.636V289.175l10.621,3.261Z" transform="translate(-136.641 -289.175)" fill="#f22"/><path d="M153.287,307.918v16.077l-9.842-3.422Z" transform="translate(-136.623 -290.456)" fill="#3eb725"/><path d="M153.3,307.918v16.077l9.789-2.484Z" transform="translate(-136.641 -290.456)" fill="#a6bc4a"/><path d="M153.285,306.636V289.175l-11.007,3.416Z" transform="translate(-136.621 -289.175)" fill="#9442ba"/><path d="M153.278,307.918l-15.249,3.966,5.407,8.688Z" transform="translate(-136.614 -290.456)" fill="#33918a" stroke="#33918a" stroke-miterlimit="10" stroke-width="1"/><path d="M153.275,306.886l-16.664-5.04,5.657-9.006Z" transform="translate(-136.611 -289.425)" fill="#713c87"/><path d="M136.611,302.508l1.414,9.005,15.25-3.966Z" transform="translate(-136.611 -290.087)" fill="#5763d3"/><path d="M153.3,306.875l10.621-14.2,5.823,8.54Z" transform="translate(-136.641 -289.414)" fill="#ff8224"/><path d="M153.3,307.5l16.444,4.432V301.841Z" transform="translate(-136.641 -290.041)" fill="#ffce00"/><path d="M153.3,307.918l9.789,13.592,6.655-9.161Z" transform="translate(-136.641 -290.456)" fill="#ffe269"/></g></g></g><path d="M13.115,0c7.417.176,13.571,6.042,13.747,13.1S21.167,25.749,13.751,25.573.179,19.532,0,12.471,5.7-.171,13.115,0Z" transform="matrix(0.925, -0.38, 0.38, 0.925, 0, 10.196)" fill="none" stroke="#fff" stroke-width="1"/></g><g transform="translate(14.779 14.678)"><rect width="15.725" height="14.673" transform="translate(22.687 41.852)" fill="#ffe269"/><rect width="15.639" height="14.673" transform="translate(43.404 41.852)" fill="#ff8224"/><rect width="15.223" height="14.673" transform="translate(62.62 41.852)" fill="#fff"/><rect width="7.112" height="8.85" transform="translate(17.824 9.479)" fill="#ff8224"/><ellipse cx="2.423" cy="2.261" rx="2.423" ry="2.261" fill="#fff"/></g><g transform="translate(43.209 7.155)"><rect width="34.19" height="41.223" fill="#fff6de"/><g transform="translate(3.482 2.675)"><rect width="6.489" height="35.598" transform="translate(0.012)" fill="#fff"/><g transform="translate(0 1.48)"><rect width="6.489" height="1.985" transform="translate(0.012)" fill="#353149"/><rect width="6.489" height="3.144" transform="translate(0.012 4.081)" fill="#463b89"/><rect width="6.489" height="3.144" transform="translate(0.012 9.385)" fill="#5763d3"/><rect width="6.489" height="3.144" transform="translate(0.012 14.445)" fill="#713c87"/><rect width="6.489" height="3.144" transform="translate(0.012 19.452)" fill="#9442ba"/><rect width="6.489" height="3.144" transform="translate(0.012 24.449)" fill="#ce67d6"/><rect width="6.489" height="3.144" transform="translate(0 29.498)" fill="#ce67d6" opacity="0.48"/></g></g><g transform="translate(13.964 2.675)"><rect width="6.489" height="35.598" transform="translate(0.008)" fill="#fff"/><g transform="translate(0 1.48)"><rect width="6.489" height="1.985" transform="translate(0.012)" fill="#722727"/><rect width="6.489" height="3.144" transform="translate(0.012 4.081)" fill="#f22"/><rect width="6.489" height="3.144" transform="translate(0.012 9.385)" fill="#ff8224"/><rect width="6.489" height="3.144" transform="translate(0.012 14.445)" fill="#ffce00"/><rect width="6.489" height="3.144" transform="translate(0.012 19.452)" fill="#ffe269"/><rect width="6.489" height="3.144" transform="translate(0.012 24.449)" fill="#ffe269" opacity="0.52"/><rect width="6.489" height="3.144" transform="translate(0 29.498)" fill="#ffeec5"/></g></g><g transform="translate(24.071 2.52)"><rect width="6.489" height="35.598" transform="translate(0.053)" fill="#fff"/><g transform="translate(0 1.476)"><rect width="6.489" height="1.985" transform="translate(0.012)" fill="#526584"/><rect width="6.489" height="3.144" transform="translate(0.012 4.081)" fill="#33918a"/><rect width="6.489" height="3.144" transform="translate(0.012 9.385)" fill="#3eb725"/><rect width="6.489" height="3.144" transform="translate(0.012 14.445)" fill="#3eb725" opacity="0.77"/><rect width="6.489" height="3.144" transform="translate(0.012 19.452)" fill="#3eb725" opacity="0.46"/><rect width="6.489" height="3.144" transform="translate(0.012 24.449)" fill="#3eb725" opacity="0.37"/><rect width="6.489" height="3.144" transform="translate(0 29.498)" fill="#3eb725" opacity="0.22"/></g></g></g><g transform="translate(2.032 40.516)"><rect width="30.571" height="44.195" fill="#fff"/><g transform="translate(3.868 4.377)"><g transform="translate(0.106)"><rect width="7.407" height="5.618" transform="translate(0 0.011)" fill="#353149"/><rect width="7.686" height="5.63" transform="translate(14.986)" fill="#5763d3"/><rect width="7.579" height="5.618" transform="translate(7.407 0.011)" fill="#463b89"/></g><g transform="translate(0.106 5.63)"><rect width="7.579" height="5.744" fill="#713c87"/><rect width="7.579" height="5.744" transform="translate(7.474)" fill="#9442ba"/><rect width="7.579" height="5.744" transform="translate(15.092)" fill="#ce67d6"/></g><g transform="translate(0.02 11.374)"><rect width="7.579" height="5.744" transform="translate(15.106)" fill="#ff8224"/><rect width="7.579" height="5.744" transform="translate(7.619)" fill="#f22"/><rect width="7.579" height="5.744" fill="#722727"/></g><g transform="translate(0.013 17.225)"><rect width="7.579" height="5.744" transform="translate(15.106)" fill="#ffe269" opacity="0.52"/><rect width="7.579" height="5.744" transform="translate(7.619)" fill="#ffe269"/><rect width="7.579" height="5.744" fill="#ffce00"/></g><g transform="translate(0.013 22.997)"><rect width="7.579" height="5.744" transform="translate(15.106)" fill="#3eb725" opacity="0.77"/><rect width="7.579" height="5.744" transform="translate(7.619)" fill="#33918a"/><rect width="7.579" height="5.744" fill="#526584"/></g><g transform="translate(0 28.792)"><rect width="7.579" height="5.744" transform="translate(15.106)" fill="#6e7387"/><rect width="7.579" height="5.744" transform="translate(7.619)" fill="#52545e"/><rect width="7.579" height="5.744" fill="#171523"/></g></g></g></g><g transform="translate(47.933 45.158)"><rect width="43.478" height="63.582" fill="#fff"/><g transform="translate(4.449 1.77)"><rect width="11.932" height="10.956" transform="translate(2.585)" fill="#ffe269"/><rect width="8.937" height="12.336" transform="translate(0.113 14.879)" fill="#ffce00"/><rect width="14.404" height="15.34" transform="translate(0 30.518)" fill="#ffe269"/><rect width="9.733" height="9.327" transform="translate(17.761 30.36)" fill="#ffe269" opacity="0.52"/><rect width="9.733" height="9.134" transform="translate(17.761 42.438)" fill="#ffce00"/></g></g><g transform="translate(30.813 100.758)"><path d="M77.179,468.867c6.991-.689,12.812-5.912,15.592-11.643,2.282-4.7,3.1-9.889,3.884-15l5.986-38.737c2.293-14.844,4.593-29.772,4.192-44.764-.145-5.431-.943-11.439-5.327-15.014-5.487-4.474-14.181-3.432-20.845-2.693A172.524,172.524,0,0,0,54.3,346.326c-5.135,1.407-10.347,3.095-14.4,6.359-4.814,3.88-7.506,9.657-8.61,15.5-2.015,10.672-.213,22.252.76,32.964,1.034,11.386,2.433,22.74,3.83,34.092.888,7.213,2.169,16.048,9.829,19.535,7.633,3.474,14.132,8.781,22.022,12.037C70.726,468.051,73.926,469.188,77.179,468.867Z" transform="translate(-30.377 -340.357)" fill="#463b89"/><path d="M103.216,346.052a10.686,10.686,0,0,1,2.178,4.788c3.394,13.874.831,29.256-1.163,43.2-1.818,12.715-3.8,25.409-5.771,38.1l-2.71,17.471c-.572,3.687-1.18,7.475-3.169,10.706-4,6.5-13.368,9.469-21.085,8.511-3.686-.457-7.454-2.183-11.065-3.144-4.155-1.107-8.657-2.809-10.8-6.565a16.465,16.465,0,0,1-1.559-4.593c-5.458-23.944-6.538-48.555-6.94-73.032-.107-6.474-.091-13.259,3.157-18.98,5.221-9.2,16.5-13.686,26.758-16.173C78.645,344.5,97.2,339.42,103.216,346.052Z" transform="translate(-30.396 -340.52)" fill="#353149"/><g transform="translate(2.725 3.794)"><path d="M43.754,451.25c-4.026-25.119-7.618-50.487-7.244-75.9.127-8.615,4.264-18.732,12.677-23.288" transform="translate(-33.113 -344.951)" fill="none" stroke="#463b89" stroke-miterlimit="10" stroke-width="1" opacity="0.32" style="mix-blend-mode:multiply;isolation:isolate"/><path d="M37.074,426.006c-1.251-9.638-2.649-19.273-3.264-28.971-.845-13.32-2.689-30.968,7.339-41.75" transform="translate(-33.107 -345.172)" fill="none" stroke="#463b89" stroke-miterlimit="10" stroke-width="1" opacity="0.32" style="mix-blend-mode:multiply;isolation:isolate"/><path d="M53.9,349.357l15.986-4.928" transform="translate(-33.144 -344.429)" fill="none" stroke="#463b89" stroke-miterlimit="10" stroke-width="1" opacity="0.32" style="mix-blend-mode:multiply;isolation:isolate"/></g></g></g></g><g transform="translate(67.345 147.402)"><path d="M120.943,461.258c.337.4.174,1.006,0,1.5-2.133,5.8-4.414,11.6-6.436,17.424a68.789,68.789,0,0,1-11.132-.694c-4.074-.538-8.253-1.041-12.256-1.877a100.382,100.382,0,0,1-11.843-3.42c-1.374-.47-2.735-.977-4.087-1.508-.593-.233-1.189-.463-1.771-.725-.32-.144-1.3-.864-1.614-.818a14.851,14.851,0,0,0,3.78-1.539q1.979-.913,3.938-1.868c2.965-1.452,5.919-2.926,8.833-4.481a106.481,106.481,0,0,0,16.429-10.511,23.991,23.991,0,0,0,15.1,8.114A1.579,1.579,0,0,1,120.943,461.258Z" transform="translate(-71.799 -394.687)" fill="#526584"/><path d="M140.284,393.22,106.308,475.4c20.661,2.4,91.87-.834,153.454-2.993l-29.113-81.981Z" transform="translate(-74.159 -390.425)" fill="#7d9faf"/></g><g transform="translate(127.247 128.537)"><g transform="translate(1.719 31.054)"><path d="M137.945,468.875h91.235l-14.533-65.367-54.266.155Z" transform="translate(-137.945 -403.508)" fill="#526584"/><path d="M137.945,468.887l68.473-14.44L200.643,408.9l-40.262-5.23Z" transform="translate(-137.945 -403.519)" fill="#526584" opacity="0.43" style="mix-blend-mode:multiply;isolation:isolate"/></g><g transform="translate(47.297 40.016)"><g transform="translate(7.751 19.008)"><path d="M195.188,443.22l.233-9.688,10.015.139,6.928,9.549Z" transform="translate(-195.188 -433.532)" fill="#171523"/></g><path d="M197.414,432.276l-10.546-17.285,6.7-1.863,11.3,19.147Z" transform="translate(-186.868 -413.128)" fill="#353149"/><path d="M197.741,415.128l18.519,30.094H195.066l-.233-3.261,11.179.233L190,416.4Z" transform="translate(-187.083 -413.265)" fill="#343842"/></g><path d="M157.693,400.917,136.1,463.9l74.17-51.8L198.45,370.175Z" transform="translate(-136.099 -370.175)" fill="#343842"/><path d="M136.1,466.977l1.719,2.7,74.52-52.031-2.07-2.468Z" transform="translate(-136.099 -373.252)" fill="#171523"/><path d="M203.028,370.175l1.532,1.072,12.356,43.318-2.07-2.468Z" transform="translate(-140.677 -370.175)" fill="#52545e"/><g transform="translate(6.843 3.726)"><path d="M143.445,455.379l17.312-53.723,36.565-27.482,9.471,36.8Z" transform="translate(-143.445 -374.175)" fill="#d7ffff" opacity="0.32"/><path d="M146.8,446.865l2.689-8.344L201.7,391.478l1.2,4.671Z" transform="translate(-143.674 -375.358)" fill="#fff" opacity="0.25"/><path d="M153.25,427.368l2.079-6.452,43.832-41.871.93,3.614Z" transform="translate(-144.115 -374.508)" fill="#fff" opacity="0.25"/></g><g transform="translate(82.614 19.055)"><path d="M224.778,436.4l5.59,27.891c2.795,4.057,13.2,4.057,16.924,0l3.105-29.113Z" transform="translate(-224.778 -393.676)" fill="#ff8224"/><path d="M224.778,436.13c0-2.852,6.512-4.85,12.81-4.85,6.987,0,12.81,1.765,12.81,3.629,0,2.872-4.658,5.434-12.111,5.434C229.436,440.343,224.778,438.712,224.778,436.13Z" transform="translate(-224.778 -393.409)" fill="#722727" stroke="#b80000" stroke-miterlimit="10" stroke-width="1"/><g clip-path="url(#d)"><g transform="translate(5.832 4.701)"><path d="M231.038,438.684V395.675h7.676l-1.009,44.7Z" transform="translate(-231.038 -395.675)" fill="#52545e"/><path d="M238.97,395.675l-1.009,44.7-3.183-.807,1.381-43.893Z" transform="translate(-231.294 -395.675)" fill="#6e7387"/></g><g transform="translate(2.64 8.117)"><line x1="5.565" y2="40.861" transform="translate(16.148 5.253)" fill="none" stroke="#353149" stroke-linecap="round" stroke-miterlimit="10" stroke-width="2.068"/><line x2="5.745" y2="31.957" transform="translate(6.677 12.843)" fill="none" stroke="#ffeec5" stroke-linecap="round" stroke-miterlimit="10" stroke-width="2.068"/><line x1="0.932" y2="43.164" transform="translate(13.353)" fill="none" stroke="#f22" stroke-linecap="round" stroke-miterlimit="10" stroke-width="2.068"/><line x1="3.105" y2="39.127" transform="translate(14.906 4.036)" fill="none" stroke="#171523" stroke-linecap="round" stroke-miterlimit="10" stroke-width="2.068"/><line x2="6.614" y2="23.523" transform="translate(1.087 18.476)" fill="none" stroke="#ffce00" stroke-linecap="round" stroke-miterlimit="10" stroke-width="2.068"/><line x2="3.192" y2="17.63" transform="translate(0 25.683)" fill="none" stroke="#ffeec5" stroke-linecap="round" stroke-miterlimit="10" stroke-width="2.068"/><line y1="34.398" x2="2.019" transform="translate(8.85 10.402)" fill="none" stroke="#526584" stroke-linecap="round" stroke-miterlimit="10" stroke-width="2.068"/><line x1="5.124" y1="25.774" transform="translate(15.527 13.818)" fill="none" stroke="#ff8224" stroke-linecap="round" stroke-miterlimit="10" stroke-width="2.068"/><line x2="2.798" y2="30.044" transform="translate(1.596 6.521)" fill="none" stroke="#353149" stroke-linecap="round" stroke-miterlimit="10" stroke-width="2.068"/></g></g></g></g><g transform="translate(52.897 53.696)"><g transform="translate(0 59.154)"><g transform="translate(28.766)"><g transform="translate(15.619)"><path d="M202.8,390.147c.306.011.407.415.4.72a6.774,6.774,0,0,1-3.4,5.615,1.761,1.761,0,0,1-1.421.266c-.468-.172-.715-.881-.318-1.181A27.087,27.087,0,0,0,202.8,390.147Z" transform="translate(-110.358 -355.854)" fill="#e88092"/><path d="M184.122,399.525a47.263,47.263,0,0,0,6.922-5.215,1.44,1.44,0,0,0,1.72.24,3.684,3.684,0,0,0,1.31-1.313,17.589,17.589,0,0,0,2.2-4.293c.174-.526.543-1.171.355-1.744-.03-.09-.8-1.41-.977-1a9,9,0,0,0,.686-3.111,2.932,2.932,0,0,0-.429-1.887,1.285,1.285,0,0,0-1.729-.372,6.915,6.915,0,0,1,.026-2.1c.172-4.035-9.332-1.069-11.435-.341a4.419,4.419,0,0,0-1.407.7,5.184,5.184,0,0,0-1.265,2.092,31.44,31.44,0,0,1-3.9,6.782,21.021,21.021,0,0,0-2.479,3.615,4.925,4.925,0,0,0-.186,4.239c-14.9,8.255-29.846,16.536-43.662,26.5-3.8-4.423-6.119-9.514-8.869-14.588-.294-.544-4.895-9.165-4.985-9.119q-6.258,4.353-12.081,9.289a153.529,153.529,0,0,0,10.9,17.3c1.982,2.7,4.067,5.333,6.269,7.862,1.348,1.548,4.14,5.947,6.317,6.209a3.953,3.953,0,0,0,2.467-.843,145.39,145.39,0,0,0,14.4-10.822q8.187-6.7,16.378-13.4c5.253-4.3,10.216-8.732,15.8-12.611a2.645,2.645,0,0,1,1.341-.593c1.932-.073,2.471.7,4.4-.372Q183.18,400.107,184.122,399.525Z" transform="translate(-103.934 -354.931)" fill="#f2adc9"/><path d="M201.107,388.482a12.536,12.536,0,0,1-1.117,1.408,1.541,1.541,0,0,1-1.147.626.4.4,0,0,1-.276-.116.524.524,0,0,1-.058-.435c.225-1.336,1.228-10.352,3.632-8.333C204,383.193,202.544,386.4,201.107,388.482Z" transform="translate(-110.401 -355.251)" fill="#f2adc9" stroke="#e88092" stroke-miterlimit="10" stroke-width="1"/><g transform="translate(68.172)"><line x1="21.997" y1="42.077" transform="translate(0 0.005)" fill="none" stroke="#000" stroke-miterlimit="10" stroke-width="3"/><line x2="10.148" y2="20.007" transform="translate(0.309)" fill="none" stroke="#000" stroke-linecap="round" stroke-miterlimit="10" stroke-width="3"/></g><path d="M200.458,378.026a79.574,79.574,0,0,1-2.248,14.949c-.217.793-1.171,2.067-1.95,1.15a5.4,5.4,0,0,1-.879-3.565c0-3.3.478-6.546-.078-9.837" transform="translate(-110.183 -355.025)" fill="#f2adc9" stroke="#e88092" stroke-miterlimit="10" stroke-width="1"/><path d="M179.856,390.628c1.294-2.077,2.887-3.974,3.979-6.158a1.56,1.56,0,0,1,.589-.752,1.494,1.494,0,0,1,.647-.117c1.655-.048,3.126.075,4.217,1.409a28.168,28.168,0,0,0,2.934,3.253,7.2,7.2,0,0,0,4.364,2.225,3.187,3.187,0,0,1-2.537,2.054c-2.213.383-4.714-1.136-6.613-2.1-.035,1.821-.6,5.611-2.87,5.983" transform="translate(-109.127 -355.405)" fill="#f2adc9" stroke="#e88092" stroke-miterlimit="10" stroke-width="1"/></g><path d="M87.168,363.949c5.052-1.654,10.728.512,14.64,4.112,4.3,3.962,6.7,8.9,9.006,14.126a84.925,84.925,0,0,0,5.023,9.855c.3.5,5.547,7.86,5.929,7.128a22.811,22.811,0,0,1-20.111,11.992c1.774-9.709.252-19.911-2.408-29.313A40.431,40.431,0,0,0,95,371.482a24.267,24.267,0,0,0-3.84-4.677C90.539,366.208,88.014,363.681,87.168,363.949Z" transform="translate(-87.168 -354.023)" fill="#713c87"/></g><path d="M57.066,417.554a162.719,162.719,0,0,0,6.58,34.006,4.159,4.159,0,0,0,.239,6.728c-.923-.523-1.328.126-1.493.955-.258,1.284.613,1.666,1.507,2.269,6.562,4.431,14.537,6.327,22.392,6.287,9.768-.05,15.917-4.947,21.536-12.362a8.421,8.421,0,0,0,1.771-3.4c.647-3.414-2.463-6.206-4.488-9.03a16.5,16.5,0,0,1-3.059-8.941c-.061-1.667-.023-3.663-1.413-4.584.821-8.9,1.415-18.331,3.287-27.043,1.919-8.934,3.2-16.709-1.016-25.361a58.83,58.83,0,0,0-4.222-6.986,18.6,18.6,0,0,0-4.054-4.739c-3.235-2.409-9.205-1.85-12.92-.991A34.764,34.764,0,0,0,63.05,375.488c-4.089,4.964-5.637,11.541-6.295,17.937A123.084,123.084,0,0,0,57.066,417.554Z" transform="translate(-56.29 -354.04)" fill="#9442ba"/><g transform="translate(2.443 20.561)"><path d="M168.873,429.82c1.047-.419,4.076.619,5.246.772,3.562.465,7.131,1.281,10.739.734,1.815-.275,3.6-1.607,5.223-2.444.1,2.593-1.609,4.233-3.529,5.682-.483.364-5.36,2.333-5.4,1.881.1,1.237.252,2.661-.741,3.542-.27.24-3.022,1.452-3.2,1.042.907,2.139-2.517,4.107-4.276,3.952a2.5,2.5,0,0,1-1.59,2.93,7.6,7.6,0,0,1-2.88.315,95.066,95.066,0,0,1-11.488-1.246,15.986,15.986,0,0,0-9.04.859c-3.307,1.3-6.666,2.486-10.025,3.643q-9.821,3.382-19.851,6.11c-9.713,2.644-18.952,6.233-29.1,7.142a5.407,5.407,0,0,1-2.561-.192,5.382,5.382,0,0,1-2.431-2.9,104.736,104.736,0,0,1-4.235-11.481c-1.534-4.444-3.439-8.774-5.02-13.206a170.767,170.767,0,0,1-8.635-33.019A89.268,89.268,0,0,1,78.1,401.206a2.014,2.014,0,0,1,1.152.065,2.043,2.043,0,0,1,.868,1.271c2.681,7.613,5.373,15.224,7.841,22.909,2.389,7.444,4.179,15,6.427,22.46a26.682,26.682,0,0,1,7.552-2.151c7.789-1.347,15.63-2.051,23.489-2.81a149.732,149.732,0,0,0,24.441-4.361,1.757,1.757,0,0,0,.582-.233,1.567,1.567,0,0,0,.472-.674c.529-1.21.733-2.606,1.612-3.591a7.416,7.416,0,0,1,1.426-1.127,49.758,49.758,0,0,0,6.626-5.352,6.225,6.225,0,0,1,1.7-1.311,7.516,7.516,0,0,1,3.156-.342,18.174,18.174,0,0,0,11.861-4.386,1.484,1.484,0,0,1,.828-.456c.961-.053.938,1.474.415,2.282C176.414,426.7,172.528,428.354,168.873,429.82Z" transform="translate(-59.404 -377.167)" fill="#f2adc9"/><path d="M66.749,376.664a10.662,10.662,0,0,1,2.654-1c7.4-1.686,11.816,5.229,14.067,11.1a76.709,76.709,0,0,1,3.176,11.773c1.515,7.205,3.085,14.723,7.662,20.491.974,1.227-13.45,7.215-14.772,7.537-5.242,1.274-11.807,1.928-16.8-.431a1.606,1.606,0,0,1-.861-.694,1.623,1.623,0,0,1-.091-.657c-.021-7.1-1.326-14.343-2.086-21.4-.744-6.914-1.872-14.778,1.6-21.156A13.718,13.718,0,0,1,66.749,376.664Z" transform="translate(-58.913 -375.406)" fill="#713c87"/><g transform="translate(107.578 57.794)"><path d="M177.99,437.443a40.676,40.676,0,0,0,9.406,1.348,11.143,11.143,0,0,0,5.41-1.032" transform="translate(-174.635 -437.443)" fill="none" stroke="#e88092" stroke-miterlimit="10" stroke-width="1"/><path d="M188.163,442.306a5.4,5.4,0,0,1-4.389,1.351c-2.54-.14-4.979-.733-7.494-.918" transform="translate(-174.518 -437.776)" fill="none" stroke="#e88092" stroke-miterlimit="10" stroke-width="1"/><path d="M174.389,447.165c3.091.533,7.568,1.664,9.8-1.232" transform="translate(-174.389 -438.024)" fill="none" stroke="#e88092" stroke-miterlimit="10" stroke-width="1"/></g></g></g><g transform="translate(8.579)"><path d="M105.914,301.8a31.415,31.415,0,0,1,6.163.976c5,1.315,7.75,4,8.553,9.2a28.329,28.329,0,0,1-1.455,14.175,23.556,23.556,0,0,0-1.681,5.2,8.39,8.39,0,0,0,1.663,6.1c.458.594,1.033,1.241.912,1.982a1.889,1.889,0,0,1-1.791,1.31,16.83,16.83,0,0,0-2.38.129,4.321,4.321,0,0,0-.3,2.916c.092,1-.046,2.2-.93,2.666.241-.127.135,3.687.075,3.943a6.5,6.5,0,0,0-.191.976c-.133,1.858,1.657,3.16.288,5.039a3.4,3.4,0,0,1-2.118,1.183c-4.735.973-10.87-2.012-15.348-3.318-.715,5.744-2.706,11.5,1.665,16.439.52.589,1.126,1.448.633,2.059a1.439,1.439,0,0,1-.89.42c-3.212.593-6.126-1.281-8.3-3.464-.567-.571-5.991-6.427-6.156-6.317a8.474,8.474,0,0,0,3.056-4.141,34.778,34.778,0,0,0,1.57-8.061,2.351,2.351,0,0,0-.014-.917,2.768,2.768,0,0,0-.535-.872,8.6,8.6,0,0,1-1.741-5.1c0-.289.3-4.106.287-4.106-1.77.077-3.162-1.194-4.228-2.47a10.358,10.358,0,0,1-1.821-3.882,13.084,13.084,0,0,1-.619-4.763c.21-2.251,1.612-5.037,4.186-4.889-.169-4.64.134-9.2,2.34-13.394C90.59,303.631,98.243,301.357,105.914,301.8Z" transform="translate(-66.508 -290.653)" fill="#f2adc9"/><path d="M77.183,290.731A8.95,8.95,0,0,0,74.93,292a3.22,3.22,0,0,0-2.659-2.1,7.923,7.923,0,0,0-3.519.445,27.448,27.448,0,0,1,4.129,2.256,8.848,8.848,0,0,0-7.382,3.029c2.187.956,4.645-.914,7.017-.644-2.182-.249-4.8,4.866-5.311,6.476a6.754,6.754,0,0,0,2.139,7.551,9.366,9.366,0,0,0,3.962,1.533,17.212,17.212,0,0,0,6.656-.139,3.235,3.235,0,0,0,1.233-.473,3.81,3.81,0,0,0,.888-1.089,16.947,16.947,0,0,1,6.81-6.209,2.226,2.226,0,0,0,.8-.633,1.985,1.985,0,0,0,.233-.525,12.993,12.993,0,0,0,.187-5.145,6.892,6.892,0,0,0-.41-2.044c-.46-1.089-2.235-2.2-3.231-2.807A10.691,10.691,0,0,0,77.183,290.731Z" transform="translate(-65.499 -289.839)" fill="#a3684f"/><path d="M105.55,346.213a.755.755,0,0,1,.425-.362,23.553,23.553,0,0,0-2.808,4.193c-.657-.584-.135-1.66-.254-2.531a1.3,1.3,0,0,0-1.032-1.136.913.913,0,0,0-1.019.978c-.567-.868.135-2.378-.768-2.89-.7-.4-1.483.347-1.945,1.006q.007-2.063.014-4.124c0-.388-.083-.889-.464-.965-.63-.127-.831,1.074-1.473,1.078q.066-1.737.132-3.473a.875.875,0,0,0-.083-.507.6.6,0,0,0-.811-.1,1.74,1.74,0,0,0-.54.716,1.079,1.079,0,0,1-.449-1.246,6.225,6.225,0,0,0,.316-1.4c-.014-.48-.441-1-.9-.856a1.1,1.1,0,0,0-.426.311l-1.082,1.1a14.571,14.571,0,0,0,1-6.379,1.961,1.961,0,0,0,2.091-1.194,5.725,5.725,0,0,0,.352-2.562l-.168-10.489a4.19,4.19,0,0,0,6.262-5.262c6.028-.194,10.916,6.089,17.113,4.533l-1.518-1.349c3.651,1.808,7.681,3.668,11.651,2.744a37.432,37.432,0,0,1-6.226-3.518,14.544,14.544,0,0,0,11.993-1.14,41.054,41.054,0,0,1-10.539-4.8,20.388,20.388,0,0,0,6.542-.215,6.892,6.892,0,0,0,4.913-3.974c-5.413.3-11.4.293-15.5-3.252a7.964,7.964,0,0,0,6.039-3,38.889,38.889,0,0,1-10.322,2.227c-4.442.221-8.875-.76-13.32-.586-8.1.318-15.788,4.768-21.743,10.069a7.648,7.648,0,0,0-2.1,2.567,7.45,7.45,0,0,0-.429,3.034,34.515,34.515,0,0,0,2.387,13.3,3.868,3.868,0,0,1,6.886-1.355c1.557,1.928,1.717,4.616,1.573,7.09A39.541,39.541,0,0,1,88.8,337a4.059,4.059,0,0,1-.954,2.213,5.531,5.531,0,0,1-1.828.559,17.038,17.038,0,0,0-1.218,5.34l1.223-1.252a4.629,4.629,0,0,0,.838,4.879,13.6,13.6,0,0,0,4.215,3.058l3.38,1.842a11.042,11.042,0,0,0,5.311,1.8.376.376,0,0,0-.431.3,9.435,9.435,0,0,0,4.776,1.046,1.615,1.615,0,0,0-1.1.323,8.065,8.065,0,0,0,5.006.768l-.7.375a11.71,11.71,0,0,0,5.28.559c2.038-.417,4.471-2.857,3.208-5.037a10.481,10.481,0,0,1-1.147-1.909,4.75,4.75,0,0,1,.084-2.422q.137-.65.275-1.3c-.7-.3-1.276.018-1.966.15.712,1.929-1.338,2.827-2.894,3.127a2.266,2.266,0,0,1,.254-1.995l-.775-.081a12.835,12.835,0,0,1,1.9-4.254c.441-.8,1.068-1.7,1.975-1.66.31.014.608.144.919.145a1.143,1.143,0,0,0,1.1-1.028,3.9,3.9,0,0,0,.781,1.389,13.206,13.206,0,0,0-.007-2.773.914.914,0,0,0-.147-.478.963.963,0,0,0-.762-.251,10.965,10.965,0,0,0-4.4.5C108.3,341.906,106.823,343.777,105.55,346.213Z" transform="translate(-66.386 -290.271)" fill="#a3684f"/><g transform="translate(13.991 28.19)"><g transform="translate(0 5.333)"><path d="M80.517,329.872a5.224,5.224,0,0,1,1.2-2.766,3.669,3.669,0,0,1,2.676-1.282c2.436-.008,4.338,2.394,4.659,4.633" transform="translate(-80.517 -325.824)" fill="none" stroke="#e88092" stroke-miterlimit="10" stroke-width="1"/><path d="M83.936,341.654a3.041,3.041,0,0,0,2.23,1.253c1.046.178,2.343.042,2.829-.9" transform="translate(-80.751 -326.907)" fill="none" stroke="#e88092" stroke-miterlimit="10" stroke-width="1"/><path d="M82.915,332.566A2.442,2.442,0,0,1,83.5,330.2a1.457,1.457,0,0,1,.941-.674c.613-.056,1.045.575,1.3,1.134a17.248,17.248,0,0,1,1.328,4.256,5.445,5.445,0,0,1,.062,1.964c-.059.3-.211.635-.51.688a.7.7,0,0,1-.49-.143,2.239,2.239,0,0,1-.865-2.258,3.585,3.585,0,0,1,1.38-2.093" transform="translate(-80.672 -326.077)" fill="none" stroke="#e88092" stroke-miterlimit="10" stroke-width="1"/></g><g transform="translate(26.944)"><path d="M113.17,330.869a1.136,1.136,0,0,0-1.478.1,2.557,2.557,0,0,0-.685,1.45,7.355,7.355,0,0,0-.136,1.363c-.011,1.533,1.816,2.421,2.189.554a4.867,4.867,0,0,0,.051-.856C113.131,332.731,113.794,331.45,113.17,330.869Z" transform="translate(-109.537 -320.82)" fill="#353149"/><path d="M115.528,323.552a3.426,3.426,0,0,1-.92.015,6.694,6.694,0,0,0-2.6-.227,3.711,3.711,0,0,0-1.283.8l-1.273,1.063a4.888,4.888,0,0,1,2.812-4.547,6.713,6.713,0,0,1,2.651-.559c.521,0,2.137.411,2.012,1.232l.091-.6a1.632,1.632,0,0,1-.152,2.187A2.375,2.375,0,0,1,115.528,323.552Z" transform="translate(-109.439 -320.099)" fill="#a3684f"/><path d="M120.417,331.43a15.82,15.82,0,0,0-.377,3.722,6.168,6.168,0,0,0,1.173,3.5c.346.443.77.825,1.083,1.292a1.847,1.847,0,0,1,.323,1.594,2.226,2.226,0,0,1-2,1.164,8.476,8.476,0,0,1-2.507-.1" transform="translate(-110.033 -320.874)" fill="none" stroke="#e88092" stroke-miterlimit="10" stroke-width="1"/></g></g></g></g></g></g></g></svg>