<svg xmlns="http://www.w3.org/2000/svg" width="83.881" height="83.881" viewBox="0 0 83.881 83.881"><path d="M404.16,354.5v24.575h-4.915L384.5,366.787,399.245,354.5Z" transform="translate(-321.507 -296.422)" fill="#bdf2ff"/><path d="M7.5,354.5v24.575H84.009V374.16L81.551,371.7l2.457-2.457V364.33l-2.457-2.457,2.457-2.457V354.5Z" transform="translate(-6.271 -296.422)" fill="#e5faff"/><path d="M48.842,384.5H37.5v14.745H58.417Z" transform="translate(-31.356 -321.507)" fill="#ffcf66"/><path d="M424.33,384.5v4.915h-4.915l-4.915-2.457,4.915-2.457Z" transform="translate(-346.592 -321.507)" fill="#28a6fa"/><path d="M399.5,384.5h7.372v4.915H399.5Z" transform="translate(-334.05 -321.507)" fill="#24c0ff"/><path d="M269.16,384.5v14.745h-4.915L249.5,391.872l14.745-7.372Z" transform="translate(-208.624 -321.507)" fill="#28a6fa"/><path d="M142.5,384.5l9.575,14.745h22.7V384.5Z" transform="translate(-119.154 -321.507)" fill="#24c0ff"/><path d="M424.33,444.5v4.915h-4.915l-4.915-2.457,4.915-2.457Z" transform="translate(-346.592 -371.677)" fill="#61ce5a"/><path d="M399.5,444.5h7.372v4.915H399.5Z" transform="translate(-334.05 -371.677)" fill="#94e368"/><path d="M256,7.5V79.094a2.454,2.454,0,0,0,2.06-1.121s19.733-30.382,19.733-30.382A25.972,25.972,0,0,0,256,7.5Z" transform="translate(-214.059 -6.271)" fill="#e33a38"/><path d="M123.467,7.5a25.97,25.97,0,0,0-21.792,40.092S121.4,77.973,121.4,77.973a2.46,2.46,0,0,0,2.062,1.121,1.933,1.933,0,0,0,1.67-1.121s16-30.382,16-30.382a30.374,30.374,0,0,0,3.384-14.125C144.519,19.126,135.094,7.5,123.467,7.5Z" transform="translate(-81.527 -6.271)" fill="#ff443b"/><path d="M256,67.5V99.775A16.137,16.137,0,0,0,256,67.5Z" transform="translate(-214.059 -56.441)" fill="#bdf2ff"/><path d="M184.86,83.637c0-8.912-5.025-16.137-11.222-16.137a16.137,16.137,0,0,0,0,32.275C179.835,99.775,184.86,92.55,184.86,83.637Z" transform="translate(-131.697 -56.441)" fill="#fff"/><path d="M256,127.5v12.615a6.307,6.307,0,1,0,0-12.615Z" transform="translate(-214.059 -106.612)" fill="#e33a38"/><path d="M225.2,133.807c0-3.484-.624-6.307-1.393-6.307a6.307,6.307,0,0,0,0,12.615C224.577,140.115,225.2,137.291,225.2,133.807Z" transform="translate(-181.867 -106.612)" fill="#ff443b"/><path d="M82.653,56.849H55.113l9.651-14.86a27.2,27.2,0,1,0-45.646,0l.007,0C19.19,42.1,31.96,61.764,31.96,61.764H23.346a1.229,1.229,0,0,0-1.03,1.9L31.89,78.407a1.229,1.229,0,0,0,1.03.56H60.535a1.229,1.229,0,0,0,1.229-1.229V62.993a1.229,1.229,0,0,0-1.229-1.229H51.921l1.6-2.457H81.424V81.424H2.457V59.307H25.171a1.229,1.229,0,1,0,0-2.457H1.229A1.229,1.229,0,0,0,0,58.078V82.653a1.229,1.229,0,0,0,1.229,1.229H82.653a1.229,1.229,0,0,0,1.229-1.229V58.078a1.229,1.229,0,0,0-1.229-1.229Zm-61.473-16.2a24.738,24.738,0,1,1,41.524,0c-.195.3-19.494,30.017-19.728,30.374l-.005.008a1.227,1.227,0,0,1-2.062,0c-.195-.3-19.443-29.939-19.724-30.373l-.006-.009ZM59.307,64.222V76.509H33.588L25.609,64.222h7.947l5.294,8.152a3.685,3.685,0,0,0,6.182,0l5.294-8.15Z" fill="#47286d"/><path d="M31.229,377A1.229,1.229,0,0,0,30,378.229v14.745a1.229,1.229,0,0,0,1.229,1.229H52.146a1.229,1.229,0,0,0,1.03-1.9L43.6,377.56a1.229,1.229,0,0,0-1.03-.56Zm18.654,14.745H32.457V379.457H41.9Z" transform="translate(-25.085 -315.236)" fill="#47286d"/><path d="M393.229,384.372h12.287a1.229,1.229,0,0,0,1.229-1.229v-4.915A1.229,1.229,0,0,0,405.516,377H393.229A1.229,1.229,0,0,0,392,378.229v4.915A1.229,1.229,0,0,0,393.229,384.372Zm1.229-4.915h9.83v2.457h-9.83Z" transform="translate(-327.778 -315.236)" fill="#47286d"/><path d="M392,443.144a1.229,1.229,0,0,0,1.229,1.229h12.287a1.229,1.229,0,0,0,1.229-1.229v-4.915A1.229,1.229,0,0,0,405.516,437H393.229A1.229,1.229,0,0,0,392,438.229Zm2.457-3.686h9.83v2.457h-9.83Z" transform="translate(-327.778 -365.406)" fill="#47286d"/><path d="M184.732,77.366a17.366,17.366,0,1,0-17.366,17.366A17.386,17.386,0,0,0,184.732,77.366Zm-32.275,0a14.909,14.909,0,1,1,14.909,14.909A14.925,14.925,0,0,1,152.457,77.366Z" transform="translate(-125.425 -50.17)" fill="#47286d"/><path d="M225.072,127.536a7.536,7.536,0,1,0-7.536,7.536A7.545,7.545,0,0,0,225.072,127.536Zm-12.615,0a5.079,5.079,0,1,1,5.079,5.079A5.085,5.085,0,0,1,212.457,127.536Z" transform="translate(-175.596 -100.34)" fill="#47286d"/></svg>