<svg xmlns="http://www.w3.org/2000/svg" xmlns:xlink="http://www.w3.org/1999/xlink" width="282.116" height="312.887" viewBox="0 0 282.116 312.887"><defs><filter id="a" x="143.806" y="75.499" width="43.966" height="43.966" filterUnits="userSpaceOnUse"><feOffset input="SourceAlpha"/><feGaussianBlur stdDeviation="6.5" result="b"/><feFlood flood-color="#f7f7f7" flood-opacity="0.749"/><feComposite operator="in" in2="b"/><feComposite in="SourceGraphic"/></filter></defs><g transform="translate(-41.025 -35.108)"><g transform="translate(41.025 35.108)"><path d="M314.578,347.995H66.341c-16.671-6.542-25.676-28.019-23.583-45.8s12.976-33.45,25.919-45.827c-10.466-4.94-20.568-12.209-25.084-22.856-4.974-11.745-2.181-25.542,3.762-36.822s14.74-20.75,22.587-30.8a218.406,218.406,0,0,0,28.281-47.665c6.434-14.888,11.24-30.556,19.431-44.548,9.759-16.658,24.835-30.845,43.35-36.317s40.45-.942,53.049,13.69c13.562-.4,34.433,6.313,42.523,17.21a66.967,66.967,0,0,1,8.11,15.54,156.824,156.824,0,0,1,6.044,18.778c2,7.881,3.385,15.911,5.633,23.718,2.389,8.292,3.688,15.365,8.11,23.011,6.7,11.57,14.45,22.52,20.629,34.379s10.8,24.889,10.547,38.249-6,27.1-17.041,34.628c10.055,12.673,18.7,26.821,22.621,42.516S323.092,334.238,314.578,347.995Z" transform="translate(-41.025 -35.108)" fill="#4e463e"/><path d="M298.11,58.555s35.451,18.225,29.742,73.758l8.3,2.977s12.572-50.919-17.226-73.254C318.928,62.036,307.469,56.454,298.11,58.555Z" transform="translate(-125.082 -42.62)" fill="#ffc675"/><path d="M305.729,388.519H157.84c.022-.384.044-.767.081-1.151.981-10.183,6.823-19.4,12.657-28.146s11.928-17.761,13.533-27.884c3.545-22.446-15.548-42.61-19.286-65.036-3.523-21.106,6.8-41.87,16.863-61.179q6.7-12.862,13.408-25.724c2.914-5.586,6-11.381,11.393-15.164,8.346-5.869,19.948-5.485,30.486-4.832a11.853,11.853,0,0,1,5.322,1.171c1.992,1.178,2.891,3.338,3.82,5.317,7.506,16.045,23.538,27.716,31.8,43.451a51.6,51.6,0,0,1,4.5,36.284c-2.23,8.992-6.889,17.411-8.621,26.484-2.081,10.944.208,22.2,3.723,32.838,6.183,18.731,16.09,36.3,22.444,54.981A103.609,103.609,0,0,1,305.729,388.519Z" transform="translate(-79.219 -75.632)" opacity="0.24"/><path d="M285.745,179.751a32.785,32.785,0,0,1-5.452-2.51l-.007.007c-9.577,22.19-11.213,55.889-11.213,55.889l7.767,11.529-14.383,32.723-42.139-1.7-9.2-30.744,8.817-11.812.7-25.8c-24.438-2.362-30.724-22.9-30.724-22.9-20.723-88.148,22.554-111.96,22.554-111.96l1.2,1.05c4.092,44.582,63.791,45.174,63.791,45.174l1.487,29.762c.915-1.245,1.837-2.484,2.753-3.729,2.5-3.392,4.846-6.172,8.938-7.713,3.742-1.413,8.076-1.46,11.529.734,4.449,2.82,6.475,8.231,6.576,13.306.151,7.3-1.7,18.589-7.644,25C298.333,179.045,291.282,181.922,285.745,179.751Z" transform="translate(-87.868 -47.325)" fill="#ffd7c2"/><g transform="translate(197.329 94.74)"><path d="M338.28,177.766s12.72-7.757,13.6,8.13-9.439,20.939-9.439,20.939a9.292,9.292,0,0,1-8.227,0" transform="translate(-334.216 -175.873)" fill="none" stroke="#000" stroke-miterlimit="10" stroke-width="1.5"/><path d="M339.729,201.281s11.393-5.392,13.735-2.171" transform="translate(-336.019 -183.135)" fill="none" stroke="#000" stroke-miterlimit="10" stroke-width="1.5"/></g><path d="M282.105,284.034l7.767,11.529-14.383,32.723-42.139-1.7-9.2-30.744,8.817-11.812.7-25.8s26.215.787,37.912-9.032a240.85,240.85,0,0,0,21.739-21.053C283.741,250.335,282.105,284.034,282.105,284.034Z" transform="translate(-100.9 -98.223)" fill="#eabfac"/><g transform="translate(85.798 51.183)"><g transform="translate(0)"><path d="M246.288,146.757H242.93s4.711-12.633,11.072-21.524c2.833-3.964,5.99-7.181,9.207-8.2,10.439-3.318,23.718,0,23.718,0s2.086,2.537,4.731,6.461c4.011,5.923,9.315,15.009,10.715,23.267C304.695,160.487,246.288,146.757,246.288,146.757Z" transform="translate(-192.839 -112.594)" fill="#625d89"/><rect width="13.144" height="5.487" transform="translate(74.714)" fill="#625d89"/><path d="M297.036,123.49c-18.212-4.718-30.758-1.427-37.656,1.743,2.833-3.964,5.99-7.181,9.207-8.2,10.439-3.318,23.718,0,23.718,0S294.391,119.566,297.036,123.49Z" transform="translate(-198.217 -112.594)" opacity="0.21"/><rect width="19.89" height="6.036" transform="translate(32.165 10.288)" fill="#504e75"/><path d="M287.69,196.595H171.806c-7.827-24.169.72-64.787.72-64.787s9.571-.067,23.058-.121c22.278-.087,55.243-.162,73.381.121C298.082,132.259,287.69,196.595,287.69,196.595Z" transform="translate(-168.505 -117.843)" fill="#625d89"/><path d="M194.272,196.633H171.806c-7.827-24.169.72-64.787.72-64.787s9.571-.067,23.058-.121C194.043,145.078,191.647,172.43,194.272,196.633Z" transform="translate(-168.505 -117.881)" opacity="0.21"/><circle cx="3.014" cy="3.014" r="3.014" transform="translate(44.065 19.616)" opacity="0.21"/><circle cx="32.102" cy="32.102" r="32.102" transform="translate(32.933 45.451) rotate(-45)" opacity="0.21"/><circle cx="22.303" cy="22.303" r="22.303" transform="translate(48.256 46.259) rotate(-45)" opacity="0.21"/><path d="M249.017,189.424s.761,13.305,16.833,18.051" transform="translate(-194.829 -136.746)" fill="none" stroke="#000" stroke-miterlimit="10" stroke-width="1"/></g><circle cx="5.083" cy="5.083" r="5.083" transform="translate(73.209 43.382) rotate(-21.414)" opacity="0.21"/></g><g transform="translate(27.733 65.148)"><path d="M180.708,325.685l-.384,12.741v.007L179.9,352.4v.007l-.828,27.339v.007l-.384,12.586L177,394.005l-10.1,9.921-6.508,6.4-7.188,7.074L116.83,406.335s0-10.977,8.776-25.239A90.5,90.5,0,0,1,135.493,369c1.851-2,3.863-4.1,5.963-6.246,3.049-3.109,6.3-6.327,9.571-9.5,2.053-1.992,4.112-3.971,6.145-5.9,3.971-3.776,7.821-7.356,11.206-10.479,2.093-1.925,4.011-3.682,5.68-5.2C178.124,327.98,180.708,325.685,180.708,325.685Z" transform="translate(-93.544 -195.263)" fill="#ffc675"/><g transform="translate(41.95 136.069)" opacity="0.38"><path d="M175.971,421.935l-6.508,6.4a261.084,261.084,0,0,0-24.9-41.325c1.851-2,3.863-4.1,5.963-6.246A266.723,266.723,0,0,1,175.971,421.935Z" transform="translate(-144.56 -349.341)" fill="#fff"/><path d="M195.686,390.275v.007l-.384,12.586-1.689,1.662a274.1,274.1,0,0,0-25.973-40.753c2.053-1.992,4.112-3.971,6.145-5.9A282.481,282.481,0,0,1,195.686,390.275Z" transform="translate(-152.106 -341.857)" fill="#fff"/><path d="M199.1,334.418l.68-.343s2.181,2.584,5.586,7.094v.007l-.424,13.972c-5.135-7.444-9.436-12.943-11.522-15.534" transform="translate(-160.535 -334.075)" fill="#fff"/></g><path d="M159.56,137.655a3.523,3.523,0,0,1-.295.224c-2.774,1.893-6.166,1.614-9.327,1.442-.446-.024-6.611-.477-6.617-.439,0,0-6.366,39.7.277,57.811,0,0-2.558,6.246-7.949,8.238,0,0-.222,3.008-.612,8.083-.209,2.793-.471,6.219-.774,10.116-2.309,29.641-6.286,87.553-8.776,100.832,0,0,2.88,5.286,6.716,12.319,4.61,8.447,9.685,17.748,9.692,17.761.242.444-5.243,4.826-5.633,5.142a65.454,65.454,0,0,1-14.134,9.12c-5.613,2.591-11.926,4.22-18.125,3.2-12.344-2.033-19.989-12.458-21.389-24.324a88.478,88.478,0,0,1,.215-18.1c.888-9.981,2.086-19.814,3.809-29.7a406.212,406.212,0,0,1,12.31-50.39q5.633-18.192,12.613-35.934,1.8-4.6,3.682-9.18,3.008-7.319,6.205-14.558c.929-7.551,2.208-15.076,3.695-22.54,1.218-6.111,2.6-12.2,4.415-18.165a69.85,69.85,0,0,1,3.338-9.369c.909-1.945,1.676-4.2,3.379-5.633,1.784-1.5,4.274-1.622,6.5-1.669q3.512-.066,7.025.026c3.468.09,6.763.592,9.577,2.8C160.534,135.657,160.594,136.774,159.56,137.655Z" transform="translate(-82.231 -131.904)" fill="#ffd7c2"/><g transform="translate(52.747 13.875)"><path d="M164.5,169.486c2.123-1.58,3.74-3.762,5.874-5.33,2.709-1.991,5.232-4.236,8.655-4.85q.382-.069-.15.011.281-.025.563-.032A93.22,93.22,0,0,1,196,161.076a3.464,3.464,0,0,0,4.139-2.35c.445-1.618-.549-3.832-2.35-4.14-2.53-.433-5.071-.8-7.615-1.139a58.22,58.22,0,0,0-11.013-.882c-3.908.235-7.605,2.253-10.906,4.215a69.606,69.606,0,0,0-5.993,3.972,3.47,3.47,0,0,0-1.207,4.6c.839,1.435,1.278,3.649,2.745,2.558Z" transform="translate(-160.603 -152.52)" fill="#ffd7c2"/></g><g transform="translate(50.912 25.99)"><path d="M162.908,187.621c2.107-1.345,10.618-8.624,12.4-9.46a10.613,10.613,0,0,1,1.763-.7c.3-.1.645-.145.938-.261.6-.239-.757-.055-.035.01,3.386.3,6.772.476,10.157.882q2.679.321,5.355.679c1,.132-.2-.028.3.04l.709.1.609.085c1.8.252,3.614-.439,4.139-2.35.433-1.575-.538-3.886-2.35-4.14-5.112-.716-10.243-1.409-15.388-1.844a15.26,15.26,0,0,0-6.882.546,60.136,60.136,0,0,0-8.758,4.321c-1.9,1.09-3.79,2.216-5.639,3.4-3.64,2.323-2.824,10.5.841,8.163Z" transform="translate(-157.876 -170.521)" fill="#ffd7c2"/></g><g transform="translate(52.797 39.616)"><path d="M165.4,206.994c1.5-.9,10.5-7.919,11.261-8.272.307-.142.615-.282.925-.417a2.045,2.045,0,0,1,.491-.2c.532-.195,1.061-.374,1.6-.537.2-.059.405-.073.6-.131-.922.273-.444.059-.018.075,1.526.055,3.066,0,4.593,0h7.377c4.33,0,4.338-6.73,0-6.73h-7.579c-2.864,0-5.65-.214-8.367.835a92.678,92.678,0,0,0-14,7.212c-3.713,2.221-.332,8.042,3.4,5.811Z" transform="translate(-160.676 -190.765)" fill="#ffd7c2"/></g><path d="M149.286,247.972c-.209,2.793-.471,6.219-.774,10.116a52.025,52.025,0,0,1-22.7-10.082q1.8-4.6,3.682-9.18C134.741,243.334,142.9,246.249,149.286,247.972Z" transform="translate(-96.48 -166.863)" fill="#ffa457"/><path d="M152.583,429.7l-8.023,4.57L146,417.637S148.746,422.67,152.583,429.7Z" transform="translate(-102.61 -225.328)" fill="#eabfac"/></g><path d="M311.347,438.261H197.24l.942-11.334.572-6.865,1.144-13.737.565-6.858,1.09-13.043.565-6.858,1.178-14.141.572-6.865,1.279-15.332.565-6.858,1-11.994.283-3.433,6.037-3.432,11.132-6.327a41.385,41.385,0,0,0-1.259,6.327,39.977,39.977,0,0,0-.269,6.865,22.152,22.152,0,0,0,3.8,11.994c2.335,3.2,5.977,5.754,11.536,6.858a33.562,33.562,0,0,0,7.053.606,37.659,37.659,0,0,0,6.495-.606,24.851,24.851,0,0,0,13.528-6.858,27.807,27.807,0,0,0,6.744-11.994,40.022,40.022,0,0,0,1.333-6.865,37.462,37.462,0,0,0,.175-6.327l20.757,6.327,6.845,2.086.417,4.779,1.057,11.994.606,6.858,1.346,15.332.606,6.865,1.245,14.141.6,6.858,1.151,13.043.606,6.858,1.2,13.737.606,6.865Z" transform="translate(-92.102 -125.374)" fill="#ffa457"/><g transform="translate(106.081 192.137)"><path d="M310.809,479.82H198.64l.572-6.865H310.2Z" transform="translate(-198.64 -370.404)" fill="#fff" opacity="0.38"/><path d="M309.832,449.213H201.19l.565-6.858H309.226Z" transform="translate(-199.474 -360.399)" fill="#fff" opacity="0.38"/><path d="M308.88,419.643H203.65l.565-6.858H308.281Z" transform="translate(-200.278 -350.731)" fill="#fff" opacity="0.38"/><path d="M307.882,388.44H206.24l.572-6.865H307.277Z" transform="translate(-201.125 -340.526)" fill="#fff" opacity="0.38"/><path d="M241.821,355.463H208.99l.565-6.858h20.73C232.62,351.809,236.262,354.359,241.821,355.463Z" transform="translate(-202.024 -329.746)" fill="#fff" opacity="0.38"/><path d="M329.361,355.463H277.9a24.85,24.85,0,0,0,13.528-6.858h37.327Z" transform="translate(-224.555 -329.746)" fill="#fff" opacity="0.38"/><path d="M227.513,320.585a39.974,39.974,0,0,0-.269,6.865H211.32l.283-3.433,6.037-3.432Z" transform="translate(-202.786 -320.585)" fill="#fff" opacity="0.38"/><path d="M337.546,327.45H308.02a40.022,40.022,0,0,0,1.333-6.865h20.932l6.845,2.086Z" transform="translate(-234.403 -320.585)" fill="#fff" opacity="0.38"/></g><path d="M361.9,374.513c-6.1,22.58-11.435,45.39-14.289,57.962-1.4,6.172-2.2,9.873-2.2,9.873H295.26l8.117-25.549,29.58-93.115S371,340.854,361.9,374.513Z" transform="translate(-124.15 -129.461)" fill="#eabfac"/><path d="M219.5,238.064s16.777,13.622,47.558,0" transform="translate(-99.378 -101.467)" fill="none" stroke="#000" stroke-miterlimit="10" stroke-width="1.5"/><path d="M367.12,367.406a40.818,40.818,0,0,1-1.272,7.107c-.135.491-.269.989-.4,1.481-1.333,4.974-2.625,9.948-3.863,14.807q-1.1,4.291-2.127,8.433c-1.144,4.6-2.221,9.032-3.217,13.192-.713,2.988-1.386,5.828-2.012,8.487-1.03,4.415-1.932,8.326-2.665,11.563-12.518-5.647-31.929-11.906-44.239-15.675l2.78-8.749,2.584-8.137,4.065-12.8,2.584-8.13L324,364.3l2.584-8.137L331.24,341.5l2.591-8.15,3.069-9.665a65.99,65.99,0,0,1,20.575,15.729,42.889,42.889,0,0,1,7.06,11.347A35.129,35.129,0,0,1,367.12,367.406Z" transform="translate(-128.093 -129.461)" fill="#ffc675"/><g transform="translate(182.006 203.888)"><path d="M357.587,449.457c-.713,2.988-1.386,5.828-2.012,8.487a274.361,274.361,0,0,0-44.124-12.862l2.584-8.137A276.818,276.818,0,0,1,357.587,449.457Z" transform="translate(-311.45 -370.382)" fill="#fff" opacity="0.38"/><path d="M366.161,417.664q-1.1,4.291-2.127,8.433a277.61,277.61,0,0,0-42.7-12.121l2.585-8.13A279.65,279.65,0,0,1,366.161,417.664Z" transform="translate(-314.68 -360.213)" fill="#fff" opacity="0.38"/><path d="M375.222,383.185a40.815,40.815,0,0,1-1.272,7.107c-.135.491-.269.989-.4,1.481A278.939,278.939,0,0,0,332.1,380.082l2.584-8.137A280.46,280.46,0,0,1,375.222,383.185Z" transform="translate(-318.202 -349.129)" fill="#fff" opacity="0.38"/><path d="M376.155,355.457a281.818,281.818,0,0,0-33.3-9.261l2.591-8.15c5.97,1.265,14.3,3.237,23.644,6.064A42.888,42.888,0,0,1,376.155,355.457Z" transform="translate(-321.72 -338.045)" fill="#fff" opacity="0.38"/></g><path d="M256.838,224.371s-19.575-10.114-28.548-34.584a84.917,84.917,0,0,1-.212-12.706c.34-6.6,1.061-15.605,5.775-20.735,1.411-1.535,5.2-2.968,5.2.489a80.837,80.837,0,0,0-2.3,9.366c-.8,4.663,3.113,28.97,3.113,28.97l19.086,20.88-2.284,9.135" transform="translate(-102.139 -74.211)" fill="#eabfac"/><path d="M302.761,189.783c-1.676,5.613-3.008,10.971-6.131,15.985a102.41,102.41,0,0,1-6.508,10.075c-2.645,3.318-5.526,6.428-8.211,9.705l1.164,15.588.8,10.748,10.493,140.463H245.674c-4.287-17.566,3.722-96.42,8.534-139.117.074-.693.155-1.38.229-2.06.606-5.384,1.158-10.129,1.615-14.033.087-.713.168-1.407.249-2.06.713-6.017,1.151-9.537,1.151-9.537l-19.733-23.166a65.952,65.952,0,0,1-4.9-23.328c-.162-12.72,6.367-7.013,6.367-7.013a40.011,40.011,0,0,0,5.263,22.513s4.031,9.948,23.933,11.987S297.094,189,299.867,186.391C302.256,184.15,303.313,187.925,302.761,189.783Z" transform="translate(-103.733 -79.46)" fill="#ffd7c2"/><path d="M266.139,274.525s18.078,1.716,27.427.538l.8,10.748c-7.185.309-22.675.389-29.462-.343" transform="translate(-114.225 -113.388)" fill="#a783b5"/><circle cx="8.818" cy="8.818" r="8.818" transform="translate(153.42 158.177)" fill="#504e72"/><circle cx="8.115" cy="8.115" r="8.115" transform="translate(151.166 161.932) rotate(-22.676)" fill="#625d89"/><circle cx="6.937" cy="6.937" r="6.937" transform="translate(151.803 166.122) rotate(-45)" fill="#c8c8c8"/><circle cx="6.511" cy="6.511" r="6.511" transform="translate(152.832 166.549) rotate(-45)" fill="#fff"/><path d="M282.619,283.435l-4.737-4.131,3.445-1.716" transform="translate(-118.468 -114.39)" fill="none" stroke="#000" stroke-miterlimit="10" stroke-width="1.5"/></g><g transform="matrix(1, 0, 0, 1, 41.03, 35.11)" filter="url(#a)"><path d="M288.632,178.74a2.483,2.483,0,1,1-2.483-2.483A2.483,2.483,0,0,1,288.632,178.74Z" transform="translate(-120.36 -81.26)" fill="#3b3b4c"/></g><path d="M258.248,116.505l22.185-28.52-1.338,36.107,35.326-7.588-24.234,26.8,31.939,16.9-35.791,4.952,13.607,33.472-30.6-19.212L258.248,213.8l-11.092-34.387-30.6,19.212,13.607-33.472L194.37,160.2l31.939-16.9-24.234-26.8,35.326,7.588-1.338-36.107Z" transform="translate(-50.138 -17.289)" fill="#fff" opacity="0.12"/><g transform="translate(157.082 81.811)"><path d="M328.517,149.9a3.986,3.986,0,0,1,.954-.254c.188-.028.376-.044.563-.056,0-.433.024-.866.066-1.3a9.033,9.033,0,0,1,.254-1.469,9.1,9.1,0,0,1,.254,1.469c.042.431.061.863.065,1.295a6.382,6.382,0,0,1,.7.061,4.035,4.035,0,0,1,.953.254,4.034,4.034,0,0,1-.953.254,6.492,6.492,0,0,1-.711.061c-.009.337-.026.674-.059,1.012a8.939,8.939,0,0,1-.254,1.468,8.869,8.869,0,0,1-.254-1.468c-.033-.339-.05-.678-.059-1.016-.19-.011-.38-.028-.569-.056A3.986,3.986,0,0,1,328.517,149.9Z" transform="translate(-251.081 -118.339)" fill="#fff"/><path d="M256.762,107.578a3.973,3.973,0,0,1,.953-.254c.188-.028.376-.045.563-.056,0-.433.024-.866.066-1.3a9.085,9.085,0,0,1,.254-1.468,9.079,9.079,0,0,1,.254,1.468c.042.432.061.864.066,1.295a6.553,6.553,0,0,1,.7.061,4,4,0,0,1,.953.254,4.034,4.034,0,0,1-.953.254,6.33,6.33,0,0,1-.71.061c-.01.338-.026.675-.059,1.012a8.869,8.869,0,0,1-.254,1.468,8.943,8.943,0,0,1-.254-1.468c-.033-.339-.05-.678-.059-1.016-.19-.011-.38-.028-.569-.056A3.972,3.972,0,0,1,256.762,107.578Z" transform="translate(-227.619 -104.5)" fill="#fff"/><path d="M216.668,192.5a3.987,3.987,0,0,1,.954-.254c.188-.028.376-.044.563-.055,0-.433.024-.866.066-1.3a9.009,9.009,0,0,1,.254-1.468,9.082,9.082,0,0,1,.254,1.468c.042.431.061.864.065,1.295a6.2,6.2,0,0,1,.7.061,4,4,0,0,1,.954.253,4,4,0,0,1-.954.254,6.3,6.3,0,0,1-.71.061c-.009.337-.026.674-.059,1.012a8.947,8.947,0,0,1-.254,1.469,8.88,8.88,0,0,1-.254-1.469c-.033-.339-.05-.677-.059-1.016-.19-.011-.38-.027-.569-.056A3.955,3.955,0,0,1,216.668,192.5Z" transform="translate(-214.51 -132.267)" fill="#fff"/><path d="M225.106,199.9a5.134,5.134,0,0,1,1.231-.329c.243-.036.485-.057.728-.071.006-.56.031-1.119.085-1.679a11.648,11.648,0,0,1,.328-1.9,11.651,11.651,0,0,1,.328,1.9c.054.557.079,1.115.085,1.673a8.289,8.289,0,0,1,.909.079,5.144,5.144,0,0,1,1.231.328,5.175,5.175,0,0,1-1.231.327,8.268,8.268,0,0,1-.917.079c-.012.435-.034.871-.076,1.306a11.51,11.51,0,0,1-.328,1.9,11.506,11.506,0,0,1-.328-1.9c-.042-.437-.064-.875-.076-1.312-.246-.014-.491-.036-.736-.072A5.164,5.164,0,0,1,225.106,199.9Z" transform="translate(-217.269 -134.393)" fill="#fff"/><path d="M213.462,208.513a5.4,5.4,0,0,1,1.305-.349c.257-.038.514-.061.771-.076.007-.593.033-1.186.09-1.78a12.383,12.383,0,0,1,.347-2.009,12.383,12.383,0,0,1,.347,2.009c.057.592.083,1.183.09,1.773a8.608,8.608,0,0,1,.964.083,5.477,5.477,0,0,1,1.305.347,5.475,5.475,0,0,1-1.305.347,8.606,8.606,0,0,1-.973.084c-.013.462-.036.923-.08,1.385a12.179,12.179,0,0,1-.349,2.01,12.177,12.177,0,0,1-.348-2.01c-.045-.464-.068-.927-.081-1.391-.26-.015-.52-.038-.78-.077A5.423,5.423,0,0,1,213.462,208.513Z" transform="translate(-213.462 -137.131)" fill="#fff"/><path d="M262.638,117.536a6.364,6.364,0,0,1,1.531-.409c.3-.045.6-.072.905-.09.007-.7.038-1.392.106-2.087a14.491,14.491,0,0,1,.408-2.358,14.561,14.561,0,0,1,.407,2.358c.067.693.1,1.386.106,2.08a10.174,10.174,0,0,1,1.131.1,6.415,6.415,0,0,1,1.531.407,6.415,6.415,0,0,1-1.531.407,10.191,10.191,0,0,1-1.141.1c-.015.542-.042,1.084-.094,1.625a14.346,14.346,0,0,1-.409,2.358,14.284,14.284,0,0,1-.409-2.358c-.052-.544-.079-1.088-.094-1.633-.306-.017-.61-.044-.915-.09A6.365,6.365,0,0,1,262.638,117.536Z" transform="translate(-229.541 -107.146)" fill="#fff"/><path d="M319.059,172.169a11.434,11.434,0,0,1,2.748-.734c.541-.081,1.082-.129,1.623-.16.014-1.248.069-2.5.19-3.745a26.084,26.084,0,0,1,.731-4.232,26.086,26.086,0,0,1,.732,4.232c.12,1.244.176,2.488.19,3.733a18.258,18.258,0,0,1,2.029.176,11.551,11.551,0,0,1,2.748.731,11.583,11.583,0,0,1-2.748.731,18.27,18.27,0,0,1-2.047.176c-.028.972-.075,1.944-.17,2.916a25.662,25.662,0,0,1-.734,4.232,25.733,25.733,0,0,1-.734-4.232c-.094-.977-.142-1.953-.17-2.929-.547-.032-1.094-.079-1.642-.161A11.465,11.465,0,0,1,319.059,172.169Z" transform="translate(-247.988 -123.725)" fill="#fff"/><path d="M310.489,158.579a6.8,6.8,0,0,1,1.629-.435c.32-.048.641-.076.962-.095.008-.74.041-1.481.113-2.22a15.4,15.4,0,0,1,.433-2.509,15.47,15.47,0,0,1,.433,2.509c.071.738.1,1.475.112,2.213a10.808,10.808,0,0,1,1.2.1,6.9,6.9,0,0,1,1.629.433,6.865,6.865,0,0,1-1.629.433,10.854,10.854,0,0,1-1.214.1c-.016.577-.044,1.153-.1,1.729a15.256,15.256,0,0,1-.435,2.509,15.19,15.19,0,0,1-.435-2.509c-.056-.579-.084-1.158-.1-1.736-.324-.019-.649-.047-.973-.095A6.776,6.776,0,0,1,310.489,158.579Z" transform="translate(-245.186 -120.462)" fill="#fff"/></g></g></svg>