<svg xmlns="http://www.w3.org/2000/svg" width="217.308" height="134.481" viewBox="0 0 217.308 134.481"><g transform="translate(6.654 10.23)"><path d="M1207.441,448.833c-22.523-9.605-33.784-66.464-5.079-95.39s68.451-29.368,93.182-2.871,36.433,32.459,57.19,30.472,38.862,57.41,3.091,68.12Z" transform="translate(-1185.216 -331.206)" fill="#f17781" opacity="0.3"/><path d="M1853.328,354.794c-23.076-5.325-20.535,23.019-5.3,29.478C1861.269,389.885,1887.774,362.743,1853.328,354.794Z" transform="translate(-1712.694 -349.779)" fill="#f17781" opacity="0.3"/><path d="M6.293,0h163.73a6.293,6.293,0,0,1,6.293,6.293v0a0,0,0,0,1,0,0H0a0,0,0,0,1,0,0v0A6.293,6.293,0,0,1,6.293,0Z" transform="translate(13.282 117.958)" fill="#f17781"/></g><g transform="translate(72.948 6.865)"><path d="M1548.753,342.126c-.119,0-.237,0-.355,0a.154.154,0,0,1-.151-.158.158.158,0,0,1,.158-.151,14.327,14.327,0,0,0,1.834-.074.155.155,0,0,1,.032.308A14.5,14.5,0,0,1,1548.753,342.126Zm-2.2-.17-.024,0a14.249,14.249,0,0,1-1.83-.41.155.155,0,0,1,.087-.3,13.963,13.963,0,0,0,1.79.4.155.155,0,0,1-.024.308Zm5.529-.224a.155.155,0,0,1-.036-.305,13.934,13.934,0,0,0,1.75-.546.155.155,0,0,1,.112.289,14.29,14.29,0,0,1-1.79.558A.162.162,0,0,1,1552.084,341.733Zm-9.081-.822a.151.151,0,0,1-.063-.013,14.345,14.345,0,0,1-1.66-.873.155.155,0,1,1,.162-.264,14.041,14.041,0,0,0,1.624.854.155.155,0,0,1-.063.3Zm12.534-.511a.155.155,0,0,1-.074-.291,14.089,14.089,0,0,0,1.549-.983.155.155,0,1,1,.182.25,14.408,14.408,0,0,1-1.583,1.005A.153.153,0,0,1,1555.537,340.4Zm-15.691-1.424a.154.154,0,0,1-.1-.034,14.416,14.416,0,0,1-1.378-1.272.155.155,0,0,1,.224-.213,14.135,14.135,0,0,0,1.348,1.245.155.155,0,0,1-.1.275Zm18.681-.76a.152.152,0,0,1-.112-.048.154.154,0,0,1,.005-.219,14.207,14.207,0,0,0,1.243-1.35.155.155,0,1,1,.241.194,14.385,14.385,0,0,1-1.27,1.38A.155.155,0,0,1,1558.526,338.216Zm-21.231-1.923a.155.155,0,0,1-.125-.064,14.36,14.36,0,0,1-1-1.584.155.155,0,1,1,.272-.148,14.108,14.108,0,0,0,.981,1.55.155.155,0,0,1-.125.246Zm23.557-.958a.155.155,0,0,1-.132-.235,14.02,14.02,0,0,0,.852-1.625.155.155,0,1,1,.283.125,14.32,14.32,0,0,1-.871,1.661A.155.155,0,0,1,1560.852,335.335Zm-25.326-2.291a.155.155,0,0,1-.145-.1,14.241,14.241,0,0,1-.556-1.791.155.155,0,1,1,.3-.072,13.943,13.943,0,0,0,.544,1.752.155.155,0,0,1-.144.21Zm-.863-3.6a.155.155,0,0,1-.154-.139,14.5,14.5,0,0,1-.078-1.5c0-.124,0-.248.005-.372a.153.153,0,0,1,.158-.151.154.154,0,0,1,.151.159q0,.181,0,.364a14.227,14.227,0,0,0,.076,1.469.155.155,0,0,1-.138.17Zm.1-3.7-.024,0a.155.155,0,0,1-.129-.177,14.246,14.246,0,0,1,.412-1.829.155.155,0,1,1,.3.088,13.952,13.952,0,0,0-.4,1.79A.155.155,0,0,1,1534.758,325.743Zm1.05-3.55a.152.152,0,0,1-.063-.014.155.155,0,0,1-.078-.2,14.314,14.314,0,0,1,.875-1.659.155.155,0,1,1,.264.162,14.033,14.033,0,0,0-.856,1.623A.155.155,0,0,1,1535.808,322.193Zm25.412-.971a.155.155,0,0,1-.136-.081,14.046,14.046,0,0,0-.978-1.553.155.155,0,1,1,.251-.181,14.393,14.393,0,0,1,1,1.587.155.155,0,0,1-.136.228Zm-23.474-2.184a.155.155,0,0,1-.12-.252,14.554,14.554,0,0,1,1.274-1.376.155.155,0,1,1,.213.225,14.122,14.122,0,0,0-1.246,1.347A.155.155,0,0,1,1537.746,319.037Zm21.3-.814a.153.153,0,0,1-.112-.048,14.173,14.173,0,0,0-1.345-1.248.155.155,0,1,1,.195-.24,14.447,14.447,0,0,1,1.375,1.276.155.155,0,0,1-.113.261Zm-18.615-1.734a.155.155,0,0,1-.091-.28,14.41,14.41,0,0,1,1.585-1,.155.155,0,0,1,.148.272,13.986,13.986,0,0,0-1.551.979A.155.155,0,0,1,1540.433,316.49Zm15.742-.6a.155.155,0,0,1-.081-.023,14.045,14.045,0,0,0-1.622-.858.155.155,0,1,1,.126-.282,14.334,14.334,0,0,1,1.658.877.155.155,0,0,1-.081.286Zm-12.491-1.163a.155.155,0,0,1-.056-.3,14.275,14.275,0,0,1,1.792-.554.155.155,0,1,1,.072.3,13.98,13.98,0,0,0-1.752.542A.153.153,0,0,1,1543.684,314.725Zm9.111-.349a.152.152,0,0,1-.044-.006,13.973,13.973,0,0,0-1.79-.405.155.155,0,0,1,.048-.306,14.242,14.242,0,0,1,1.829.415.155.155,0,0,1-.044.3Zm-5.511-.509a.155.155,0,0,1-.016-.309,14.5,14.5,0,0,1,1.873-.071.155.155,0,0,1-.008.309,14.367,14.367,0,0,0-1.834.069Z" transform="translate(-1534.431 -313.481)" fill="#a7b4a9"/></g><g transform="translate(95.826 16.282)"><path d="M1670.092,369.823h-15.107l-.023-.187a1.549,1.549,0,0,1,.6-1.471,2.571,2.571,0,0,1,2.208-.347,4.849,4.849,0,0,1,1.287-3.427,5.293,5.293,0,0,1,6.958,0,4.849,4.849,0,0,1,1.287,3.427,2.572,2.572,0,0,1,2.208.347,1.549,1.549,0,0,1,.6,1.471Zm-14.719-.426h14.33a1.111,1.111,0,0,0-.452-.895,2.219,2.219,0,0,0-2.083-.19l-.3.12.008-.323a4.558,4.558,0,0,0-1.162-3.419,4.872,4.872,0,0,0-6.352,0,4.557,4.557,0,0,0-1.162,3.419l.008.323-.3-.12a2.219,2.219,0,0,0-2.083.19A1.112,1.112,0,0,0,1655.373,369.4Z" transform="translate(-1654.947 -363.086)" fill="#a7b4a9"/></g><g transform="translate(167.424 31.882)"><g transform="translate(25.776 4.536)"><g transform="translate(15.44 9.048)"><path d="M2250.009,518.046a.178.178,0,0,0,.147-.278c-.2-.3-.409-.592-.622-.879a.178.178,0,0,0-.286.213c.21.282.416.573.613.865A.178.178,0,0,0,2250.009,518.046Z" transform="translate(-2249.213 -516.818)" fill="#a7b4a9"/></g><g transform="translate(2.939 0.573)"><path d="M2194.7,479.452c-.419-.475-.864-.938-1.322-1.377a.178.178,0,0,1,.247-.257c.465.446.917.916,1.342,1.4a.178.178,0,0,1-.267.236Zm-2.754-2.638c-.493-.4-1.009-.782-1.533-1.137a.178.178,0,1,1,.2-.295c.532.361,1.056.749,1.557,1.155a.178.178,0,0,1-.224.277Zm-3.155-2.142c-.552-.311-1.125-.6-1.7-.864a.178.178,0,0,1,.148-.324c.585.267,1.167.562,1.728.878a.178.178,0,1,1-.175.31Zm-3.47-1.582c-.6-.213-1.21-.4-1.822-.565a.178.178,0,0,1,.091-.344c.622.164,1.244.357,1.852.574a.178.178,0,0,1-.06.346A.183.183,0,0,1,2185.317,473.09Z" transform="translate(-2183.362 -472.174)" fill="#a7b4a9"/></g><path d="M2169.115,469.674a.178.178,0,0,0,.031-.353c-.352-.062-.71-.116-1.065-.161a.178.178,0,1,0-.045.354c.35.044.7.1,1.048.158Z" transform="translate(-2167.879 -469.158)" fill="#a7b4a9"/></g><g transform="translate(0 4.947)"><g transform="translate(16.619)"><path d="M2119.824,471.948a.181.181,0,0,0,.048-.007c.34-.1.685-.185,1.027-.265a.178.178,0,1,0-.081-.347c-.347.081-.7.171-1.043.269a.178.178,0,0,0,.049.35Z" transform="translate(-2119.646 -471.325)" fill="#a7b4a9"/></g><g transform="translate(0 0.958)"><path d="M2054.82,520.895c-.729-.01-1.464-.054-2.185-.132a.178.178,0,0,1,.039-.354c.71.077,1.434.12,2.151.13a.178.178,0,0,1,0,.356Zm2-.236a.178.178,0,0,1,.163-.192c.715-.057,1.434-.15,2.137-.274a.178.178,0,1,1,.062.351c-.714.126-1.445.22-2.171.278h-.015A.178.178,0,0,1,2056.815,520.659Zm-6.343-.235c-.712-.147-1.426-.329-2.121-.543a.178.178,0,0,1,.1-.34c.684.21,1.386.39,2.088.535a.178.178,0,0,1-.036.352A.185.185,0,0,1,2050.472,520.424Zm10.621-.488a.178.178,0,0,1,.124-.219c.69-.192,1.379-.419,2.047-.675a.178.178,0,1,1,.128.333c-.678.26-1.378.491-2.079.686a.173.173,0,0,1-.047.007A.178.178,0,0,1,2061.094,519.936Zm-14.8-.8c-.671-.279-1.336-.594-1.979-.937a.178.178,0,1,1,.168-.314c.633.337,1.288.647,1.948.922a.178.178,0,0,1-.137.329Zm18.864-.725a.178.178,0,0,1,.08-.239c.64-.319,1.273-.673,1.881-1.052a.178.178,0,1,1,.188.3c-.618.385-1.26.744-1.911,1.068a.178.178,0,0,1-.239-.08Zm-22.723-1.333c-.606-.4-1.2-.837-1.766-1.294a.178.178,0,0,1,.224-.277c.557.45,1.142.879,1.739,1.274a.178.178,0,0,1-.2.3Zm26.424-.934a.178.178,0,0,1,.033-.25c.569-.434,1.123-.9,1.649-1.388a.178.178,0,0,1,.242.261c-.534.495-1.1.969-1.675,1.409a.178.178,0,0,1-.25-.033Zm-29.826-1.815c-.52-.509-1.022-1.048-1.491-1.6a.178.178,0,1,1,.272-.23c.462.547.956,1.078,1.468,1.578a.178.178,0,1,1-.249.255Zm33.034-1.108a.178.178,0,0,1-.014-.251c.478-.534.935-1.1,1.359-1.673a.178.178,0,1,1,.287.211c-.431.585-.9,1.157-1.38,1.7a.179.179,0,0,1-.133.059A.176.176,0,0,1,2072.067,513.224Zm-35.859-2.232c-.415-.6-.806-1.221-1.163-1.855a.178.178,0,0,1,.311-.175c.351.624.736,1.238,1.145,1.826a.178.178,0,0,1-.293.2Zm38.46-1.243a.178.178,0,0,1-.061-.244c.368-.614.711-1.253,1.019-1.9a.178.178,0,1,1,.322.153c-.312.656-.661,1.305-1.035,1.929a.178.178,0,0,1-.244.061Zm-40.6-2.57c-.295-.665-.56-1.352-.79-2.042a.178.178,0,1,1,.338-.112c.226.679.488,1.355.778,2.01a.178.178,0,1,1-.325.144Zm42.5-1.333a.178.178,0,0,1-.106-.228c.245-.673.46-1.365.639-2.058a.178.178,0,1,1,.345.089c-.182.7-.4,1.407-.65,2.091a.178.178,0,0,1-.229.107Zm-43.883-2.817c-.162-.708-.292-1.433-.387-2.154a.178.178,0,0,1,.353-.046c.093.711.221,1.424.381,2.121a.178.178,0,0,1-.134.213.17.17,0,0,1-.04,0A.178.178,0,0,1,2032.683,503.03Zm45-1.375a.178.178,0,0,1-.148-.2c.112-.706.192-1.426.237-2.142a.178.178,0,1,1,.355.022c-.046.727-.127,1.459-.241,2.176a.178.178,0,0,1-.176.15Zm-45.571-2.96c-.01-.277-.015-.559-.015-.836,0-.45.013-.9.039-1.353a.178.178,0,0,1,.356.021c-.026.441-.038.889-.038,1.332,0,.274,0,.551.014.824a.178.178,0,0,1-.172.184h-.006A.178.178,0,0,1,2032.115,498.695Zm.4-4.163a.178.178,0,0,1-.149-.2c.111-.719.257-1.441.436-2.146a.178.178,0,0,1,.345.088c-.176.694-.32,1.4-.429,2.112a.178.178,0,0,1-.176.151Zm1.033-4.215a.178.178,0,0,1-.108-.228c.245-.684.526-1.365.836-2.022a.178.178,0,0,1,.322.151c-.3.648-.581,1.317-.823,1.991a.178.178,0,0,1-.168.118A.183.183,0,0,1,2033.55,490.317Zm1.815-3.94a.178.178,0,0,1-.062-.244c.37-.625.775-1.24,1.2-1.828a.178.178,0,1,1,.288.21c-.422.579-.82,1.185-1.185,1.8a.178.178,0,0,1-.153.087A.176.176,0,0,1,2035.365,486.377Zm2.528-3.527a.179.179,0,0,1-.015-.251c.482-.544,1-1.072,1.526-1.569a.178.178,0,0,1,.243.26c-.523.489-1.029,1.009-1.5,1.545a.179.179,0,0,1-.252.015Zm3.147-2.989a.178.178,0,0,1,.032-.25c.576-.445,1.18-.867,1.795-1.254a.178.178,0,0,1,.19.3c-.605.382-1.2.8-1.767,1.235a.178.178,0,0,1-.25-.032Zm3.654-2.344a.178.178,0,0,1,.079-.239c.649-.328,1.323-.628,2-.892a.178.178,0,1,1,.129.332c-.667.26-1.33.556-1.969.878a.178.178,0,0,1-.239-.079Z" transform="translate(-2032.1 -476.373)" fill="#a7b4a9"/></g><g transform="translate(45.65 20.455)"><path d="M2272.809,580.5h.006a.178.178,0,0,0,.172-.184c-.011-.357-.031-.719-.059-1.075a.178.178,0,1,0-.355.028c.028.351.047.707.058,1.059A.179.179,0,0,0,2272.809,580.5Z" transform="translate(-2272.572 -579.076)" fill="#a7b4a9"/></g></g><g transform="translate(25.776 4.536)"><g transform="translate(15.44 9.048)"><path d="M2250.009,518.046a.178.178,0,0,0,.147-.278c-.2-.3-.409-.592-.622-.879a.178.178,0,0,0-.286.213c.21.282.416.573.613.865A.178.178,0,0,0,2250.009,518.046Z" transform="translate(-2249.213 -516.818)" fill="#a7b4a9"/></g><g transform="translate(2.939 0.573)"><path d="M2194.7,479.452c-.419-.475-.864-.938-1.322-1.377a.178.178,0,0,1,.247-.257c.465.446.917.916,1.342,1.4a.178.178,0,0,1-.267.236Zm-2.754-2.638c-.493-.4-1.009-.782-1.533-1.137a.178.178,0,1,1,.2-.295c.532.361,1.056.749,1.557,1.155a.178.178,0,0,1-.224.277Zm-3.155-2.142c-.552-.311-1.125-.6-1.7-.864a.178.178,0,0,1,.148-.324c.585.267,1.167.562,1.728.878a.178.178,0,1,1-.175.31Zm-3.47-1.582c-.6-.213-1.21-.4-1.822-.565a.178.178,0,0,1,.091-.344c.622.164,1.244.357,1.852.574a.178.178,0,0,1-.06.346A.183.183,0,0,1,2185.317,473.09Z" transform="translate(-2183.362 -472.174)" fill="#a7b4a9"/></g><path d="M2169.115,469.674a.178.178,0,0,0,.031-.353c-.352-.062-.71-.116-1.065-.161a.178.178,0,1,0-.045.354c.35.044.7.1,1.048.158Z" transform="translate(-2167.879 -469.158)" fill="#a7b4a9"/></g><g transform="translate(17.907)"><path d="M2129.257,450.641l-2.826-2.054h3.494l1.08-3.323,1.08,3.323h3.494l-2.827,2.054,1.08,3.323L2131,451.91l-2.826,2.054Zm3.9,2.39-.821-2.526,2.149-1.561h-2.656l-.821-2.526-.821,2.526h-2.656l2.149,1.561-.821,2.526L2131,451.47Z" transform="translate(-2126.431 -445.264)" fill="#a7b4a9"/></g></g><g transform="translate(208.58 46.85)"><g transform="translate(2.084 2.084)"><path d="M2260.951,540.549v-.362a2.137,2.137,0,0,0-.534-1.38,2.255,2.255,0,1,1,3.452-.028,2.3,2.3,0,0,0-.557,1.474v.3a1.18,1.18,0,1,1-2.36,0Zm-.207-4.658a2.006,2.006,0,0,0-.14,2.755,2.389,2.389,0,0,1,.593,1.541v.362a.934.934,0,0,0,1.869,0v-.3a2.579,2.579,0,0,1,.614-1.63,2,2,0,0,0,.458-1.384,2.023,2.023,0,0,0-1.909-1.9l-.1,0A1.992,1.992,0,0,0,2260.744,535.891Z" transform="translate(-2259.877 -535.09)" fill="#a7b4a9"/></g><g transform="translate(4.215)"><rect width="0.246" height="1.573" fill="#a7b4a9"/></g><g transform="translate(1.173 1.209)"><rect width="0.246" height="1.573" transform="translate(0 0.174) rotate(-45)" fill="#a7b4a9"/></g><g transform="translate(0 4.266)"><rect width="1.573" height="0.246" fill="#a7b4a9"/></g><g transform="translate(6.232 1.173)"><rect width="1.573" height="0.246" transform="translate(0 1.112) rotate(-45)" fill="#a7b4a9"/></g><g transform="translate(7.155 4.215)"><rect width="1.573" height="0.246" fill="#a7b4a9"/></g><g transform="translate(3.45 6.727)"><rect width="1.801" height="0.246" fill="#a7b4a9"/></g><g transform="translate(3.552 7.463)"><rect width="1.624" height="0.246" fill="#a7b4a9"/></g></g><g transform="translate(23.431)"><path d="M1289.963,317.652a.219.219,0,1,1,.046-.435,20.184,20.184,0,0,0,2.589.1.224.224,0,0,1,.224.213.218.218,0,0,1-.213.224q-.25.006-.5.006A20.518,20.518,0,0,1,1289.963,317.652Zm5.033-.312a.219.219,0,0,1,.183-.25,19.7,19.7,0,0,0,2.527-.566.218.218,0,1,1,.124.419,20.184,20.184,0,0,1-2.584.579l-.034,0A.219.219,0,0,1,1295,317.34Zm-7.642-.138a20.1,20.1,0,0,1-2.527-.788.218.218,0,0,1,.157-.408,19.7,19.7,0,0,0,2.472.771.218.218,0,0,1-.1.425Zm12.674-1.284a.218.218,0,0,1,.111-.288,19.794,19.794,0,0,0,2.294-1.206.219.219,0,0,1,.228.373,20.257,20.257,0,0,1-2.344,1.233.218.218,0,0,1-.288-.111Zm-17.6-.618a20.286,20.286,0,0,1-2.236-1.419.218.218,0,0,1,.258-.353,19.933,19.933,0,0,0,2.187,1.388.218.218,0,0,1-.1.41A.216.216,0,0,1,1282.425,315.3Zm22.09-2.065a.218.218,0,0,1,.032-.307,19.945,19.945,0,0,0,1.9-1.758.219.219,0,0,1,.317.3,20.458,20.458,0,0,1-1.945,1.8.219.219,0,0,1-.307-.033Zm-26.358-1.052a20.4,20.4,0,0,1-1.794-1.948.219.219,0,0,1,.34-.274,19.932,19.932,0,0,0,1.755,1.906.218.218,0,1,1-.3.316Zm30-2.7a.218.218,0,0,1-.048-.305,19.844,19.844,0,0,0,1.385-2.188.218.218,0,0,1,.384.209,20.279,20.279,0,0,1-1.415,2.236.218.218,0,0,1-.305.048Zm-33.319-1.415a20.178,20.178,0,0,1-1.229-2.346.218.218,0,1,1,.4-.177,19.794,19.794,0,0,0,1.2,2.295.218.218,0,1,1-.373.228Zm35.868-3.145a.218.218,0,0,1-.125-.282,19.71,19.71,0,0,0,.768-2.474.219.219,0,0,1,.425.1,20.1,20.1,0,0,1-.786,2.529.217.217,0,0,1-.282.125Zm1.274-5.069a.219.219,0,0,1-.195-.24,20.074,20.074,0,0,0,.108-2.075q0-.258-.007-.514a.218.218,0,0,1,.213-.224.216.216,0,0,1,.224.213q.007.261.007.525a20.57,20.57,0,0,1-.11,2.12.219.219,0,0,1-.217.2Zm-.328-5.408a19.776,19.776,0,0,0-.569-2.527.218.218,0,0,1,.419-.124,20.159,20.159,0,0,1,.582,2.583.219.219,0,0,1-.182.25l-.034,0A.218.218,0,0,1,1311.653,294.448Zm-1.467-4.958a19.846,19.846,0,0,0-1.209-2.292.218.218,0,1,1,.372-.229,20.273,20.273,0,0,1,1.236,2.343.218.218,0,1,1-.4.178Zm-35.786-1.268a.218.218,0,0,1-.088-.3,20.273,20.273,0,0,1,1.411-2.241.218.218,0,0,1,.354.257,19.9,19.9,0,0,0-1.38,2.193.219.219,0,0,1-.193.115A.216.216,0,0,1,1274.4,288.222Zm33.079-3.139a20.007,20.007,0,0,0-1.76-1.9.218.218,0,1,1,.3-.317,20.466,20.466,0,0,1,1.8,1.943.218.218,0,0,1-.339.275Zm-30.057-1.128a.218.218,0,0,1-.009-.309,20.419,20.419,0,0,1,1.941-1.8.218.218,0,0,1,.276.339,20.008,20.008,0,0,0-1.9,1.762.219.219,0,0,1-.309.009Zm26.3-2.43a19.854,19.854,0,0,0-2.19-1.382.219.219,0,1,1,.209-.384,20.335,20.335,0,0,1,2.238,1.413.218.218,0,1,1-.257.353Zm-22.285-.913a.219.219,0,0,1,.072-.3,20.273,20.273,0,0,1,2.341-1.238.219.219,0,0,1,.179.4,19.8,19.8,0,0,0-2.29,1.212.218.218,0,0,1-.3-.071Zm17.745-1.553a19.683,19.683,0,0,0-2.474-.766.218.218,0,1,1,.1-.425,20.125,20.125,0,0,1,2.529.783.218.218,0,1,1-.156.408Zm-13-.635a.219.219,0,0,1,.147-.272,20.117,20.117,0,0,1,2.583-.585.218.218,0,1,1,.068.431,19.755,19.755,0,0,0-2.527.573.214.214,0,0,1-.062.009A.219.219,0,0,1,1286.191,278.425Zm7.968-.564a20.3,20.3,0,0,0-2.589-.1.218.218,0,0,1-.011-.437,20.475,20.475,0,0,1,2.645.1.218.218,0,0,1-.022.436Z" transform="translate(-1273.59 -277.319)" fill="#a7b4a9"/></g><g transform="translate(12.539 14.063)"><g transform="translate(8.923)"><path d="M1263.849,362.936h6.584a2.928,2.928,0,0,0,2.925-2.925v-7.98a.632.632,0,0,0-.631-.631v.242a.389.389,0,0,1,.389.389v7.98a2.686,2.686,0,0,1-2.683,2.683h-6.584a.389.389,0,0,1-.389-.389v-.51h-.242v.51A.631.631,0,0,0,1263.849,362.936Z" transform="translate(-1263.218 -351.4)" fill="#a7b4a9"/></g><g transform="translate(9.432)"><path d="M1265.9,355.873a4.478,4.478,0,0,1,4.473-4.473h4.647v6.044a4.477,4.477,0,0,1-4.472,4.472H1265.9Zm4.473-4.231a4.235,4.235,0,0,0-4.231,4.231v5.8h4.406a4.235,4.235,0,0,0,4.231-4.23v-5.8Z" transform="translate(-1265.903 -351.4)" fill="#a7b4a9"/></g><path d="M1219.142,362.936h6.584a.631.631,0,0,0,.631-.631v-.543h-.242v.543a.389.389,0,0,1-.389.389h-6.584a2.686,2.686,0,0,1-2.683-2.683v-7.98a.389.389,0,0,1,.389-.389V351.4a.632.632,0,0,0-.631.631v7.98A2.928,2.928,0,0,0,1219.142,362.936Z" transform="translate(-1216.217 -351.4)" fill="#a7b4a9"/><g transform="translate(0.51)"><path d="M1218.9,357.444V351.4h4.647a4.477,4.477,0,0,1,4.472,4.473v6.044h-4.647A4.477,4.477,0,0,1,1218.9,357.444Zm8.878-1.572a4.235,4.235,0,0,0-4.231-4.231h-4.406v5.8a4.235,4.235,0,0,0,4.231,4.23h4.406Z" transform="translate(-1218.903 -351.4)" fill="#a7b4a9"/></g></g><g transform="translate(166.839 67.436)"><path d="M2032.592,861.81c14.746-13.725,42.18-16.094,42.18-16.094-3.421,1.319-4.051,3.072-5.4,5.172s-5.162.563-7.116.091-1.437,7.63-4.583,9.044-5.649-2.925-7.966-.773-2.9,7.061-6.65,5.9-4.317-2.7-6.159-.412-4.9-.151-7.269-.379S2032.592,861.81,2032.592,861.81Z" transform="translate(-2029.018 -805.249)" fill="#ce5962"/><path d="M2061.07,785.393c10.326-17.3,36.008-27.233,36.008-27.233-2.917,2.222-3.032,4.082-3.745,6.475s-4.8,1.982-6.808,2.075.751,7.727-1.875,9.964-6.241-1.231-7.865,1.483-.814,7.59-4.737,7.526-4.9-1.387-6.029,1.324-4.746,1.222-7.085,1.665S2061.07,785.393,2061.07,785.393Z" transform="translate(-2052.707 -734.314)" fill="#f17781"/><path d="M2069.929,682.566c4.42-25.939,30.243-50.018,30.243-50.018-2.443,4.071-1.745,6.4-1.512,9.655s-4.769,4.653-7.1,5.7,1.861,6.514-.233,10.469-7.91,1.4-8.608,5.467,2.443,9.654-2.21,11.4-6.4.582-6.514,4.42-2.559,6.281-5.118,7.91S2069.929,682.566,2069.929,682.566Z" transform="translate(-2060.572 -632.548)" fill="#ce5962"/><path d="M2075.791,737.676c-2.259-15.65,8.481-34.405,8.481-34.405-.679,2.8.17,3.987.919,5.8s-1.945,3.581-3.123,4.631,4.279,4.339,3.784,7-4.413,2.336-4.061,4.793,3.257,5.029.835,6.929-3.672,1.577-3.02,3.788-2.288,3.092-3.5,4.519S2075.791,737.676,2075.791,737.676Z" transform="translate(-2066.658 -689.845)" fill="#f17781"/></g><path d="M1200.469,641.278c-14-13.027-40.035-15.275-40.035-15.275,3.247,1.252,3.845,2.916,5.129,4.909s4.9.535,6.754.087,1.364,7.242,4.35,8.584,5.362-2.776,7.561-.733,2.754,6.7,6.311,5.6,4.1-2.562,5.845-.391,4.65-.144,6.9-.36S1200.469,641.278,1200.469,641.278Z" transform="translate(-1158.484 -559.81)" fill="#f17781"/><path d="M1201.523,568.748c-9.8-16.417-34.176-25.847-34.176-25.847,2.769,2.109,2.878,3.874,3.554,6.146s4.555,1.881,6.461,1.97-.713,7.334,1.78,9.458,5.924-1.168,7.465,1.407.772,7.2,4.5,7.143,4.65-1.316,5.722,1.257,4.5,1.16,6.725,1.581S1201.523,568.748,1201.523,568.748Z" transform="translate(-1164.085 -492.484)" fill="#ce5962"/><path d="M1219.9,471.152c-4.2-24.62-28.705-47.474-28.705-47.474,2.318,3.864,1.656,6.072,1.435,9.164s4.527,4.416,6.735,5.41-1.766,6.183.221,9.936,7.508,1.325,8.17,5.189-2.318,9.164,2.1,10.82,6.072.552,6.183,4.2,2.429,5.962,4.858,7.507S1219.9,471.152,1219.9,471.152Z" transform="translate(-1183.403 -395.894)" fill="#f17781"/><path d="M1302.639,523.459c2.144-14.854-8.05-32.655-8.05-32.655.645,2.654-.162,3.784-.873,5.5s1.846,3.4,2.964,4.4-4.062,4.118-3.592,6.645,4.189,2.217,3.854,4.549-3.091,4.773-.792,6.577,3.486,1.5,2.866,3.6,2.172,2.935,3.317,4.289S1302.639,523.459,1302.639,523.459Z" transform="translate(-1265.932 -450.277)" fill="#ce5962"/><g transform="translate(36.497 22.06)"><path d="M1480.345,404.451l2.484,92.409-55.791-1.822V393.521C1441.777,400.476,1474.549,406.6,1480.345,404.451Z" transform="translate(-1410.974 -393.521)" fill="#80575b"/><path d="M1445.317,511.69l-55.791-1.822V408.351c14.739,6.955,49.995,11.427,55.791,9.274Z" transform="translate(-1380.583 -405.536)" fill="#c7ddea"/><path d="M1407.152,519.464h-64.734V417.947c14.739,6.955,58.938,9.605,64.734,7.452Z" transform="translate(-1342.418 -413.31)" fill="#d4efff"/><path d="M1686,404.451l-2.484,92.409,55.791-1.822V393.521C1724.565,400.476,1691.793,406.6,1686,404.451Z" transform="translate(-1618.76 -393.521)" fill="#80575b"/><path d="M1681.767,441.46h7.452A4.411,4.411,0,0,0,1681.767,441.46Z" transform="translate(-1617.346 -430.696)" fill="#80575b"/><path d="M1685.112,445.967h6.293C1689.832,442.986,1686.44,443.483,1685.112,445.967Z" transform="translate(-1620.056 -434.347)" fill="#c7ddea"/><rect width="7.452" height="94.065" transform="translate(64.421 12.089)" fill="#c7ddea"/><rect width="7.452" height="1.325" transform="translate(64.421 10.764)" fill="#d4efff"/><path d="M1721.024,511.69l55.791-1.822V408.351c-14.739,6.955-49.995,11.427-55.791,9.274Z" transform="translate(-1649.15 -405.536)" fill="#c7ddea"/><path d="M1721.024,519.464h64.734V417.947c-14.739,6.955-58.938,9.605-64.734,7.452Z" transform="translate(-1649.15 -413.31)" fill="#d4efff"/></g><g transform="translate(112.673 44.583)"><rect width="66.243" height="39.304" transform="translate(3.205 44.381)" fill="#86809c"/><rect width="72.867" height="8.17" transform="translate(3.205 36.211)" fill="#a9a1c4"/><g transform="translate(7.676 36.211)"><path d="M1917.479,702.919l-8.17,8.17h10.143l8.17-8.17Z" transform="translate(-1885.544 -702.919)" fill="#d5d0e8"/><path d="M1784.124,711.089h10.6l8.17-8.17h-10.6Z" transform="translate(-1784.124 -702.919)" fill="#d5d0e8"/><path d="M2046.764,702.919h-11.189l-8.17,8.17h11.189Z" transform="translate(-1981.221 -702.919)" fill="#d5d0e8"/></g><rect width="72.867" height="8.17" transform="translate(0 28.586) rotate(-23.098)" fill="#a9a1c4"/><g transform="translate(8.976 0.122)"><path d="M1911.736,565.809l-4.46,10.784,9.424-4.019,4.46-10.784Z" transform="translate(-1885.197 -552.492)" fill="#d5d0e8"/><path d="M1790.969,625.427l9.847-4.2,4.46-10.784-9.847,4.2Z" transform="translate(-1790.969 -591.909)" fill="#d5d0e8"/><path d="M2031.852,512.813l-10.4,4.433L2017,528.03l10.395-4.434Z" transform="translate(-1974.088 -512.813)" fill="#d5d0e8"/></g><circle cx="5.741" cy="5.741" r="5.741" transform="translate(0.776 25.723)" fill="#86809c"/><circle cx="3.533" cy="3.533" r="3.533" transform="translate(1.521 31.464) rotate(-45)" fill="#6a6382"/><rect width="65.47" height="0.773" transform="translate(3.536 55.532)" fill="#a9a1c4"/><rect width="0.552" height="38.09" transform="translate(21.091 45.154)" fill="#a9a1c4"/><rect width="43.058" height="0.883" transform="translate(24.403 70.326)" fill="#a9a1c4"/></g><g transform="translate(33.891 17.715)"><rect width="5.41" height="39.414" transform="translate(9.451 29.075)" fill="#474259"/><g transform="translate(0 0)"><path d="M1371.963,391.131l-.778-.3,2.243-5.873,7.526-2.535,10.851.186,5.146,4.67a4.4,4.4,0,0,1,1.139,4.831l-2.978,7.8-.778-.3,3.849-10.08-6.708-6.088-10.4-.178-7.014,2.362Z" transform="translate(-1363.118 -380.187)" fill="#474259"/><rect width="28.957" height="18.427" transform="translate(6.574 9.255) rotate(20.9)" fill="#86809c"/><rect width="4.908" height="9.707" transform="translate(33.193 34.477) rotate(-159.1)" fill="#474259"/><path d="M1503.536,512.287l4.351,4.287,5.213-13.651-6.1.3Z" transform="translate(-1470.343 -477.809)" fill="#86809c"/><rect width="2.276" height="0.932" rx="0.466" transform="matrix(0.934, 0.357, -0.357, 0.934, 31.942, 24.607)" fill="#424242" style="mix-blend-mode:screen;isolation:isolate"/><rect width="0.932" height="0.932" rx="0.466" transform="matrix(0.934, 0.357, -0.357, 0.934, 34.54, 25.599)" fill="#424242" style="mix-blend-mode:screen;isolation:isolate"/><path d="M1521.347,506.225l.182-.478,5.533-.294-.528,1.383Z" transform="translate(-1484.773 -479.859)" fill="#424242" style="mix-blend-mode:screen;isolation:isolate"/><path d="M1519.306,512.826l.183-.478,5.183.622-1.153,3.02Z" transform="translate(-1483.12 -485.445)" fill="#424242" style="mix-blend-mode:screen;isolation:isolate"/><rect width="14.917" height="5.868" transform="matrix(0.934, 0.357, -0.357, 0.934, 16.174, 16.091)" fill="#6a6382"/><rect width="1.042" height="1.042" transform="matrix(0.934, 0.357, -0.357, 0.934, 31.112, 19.711)" fill="#ffce80"/><rect width="1.316" height="1.522" transform="translate(19.158 25.111) rotate(20.9)" fill="#ffce80"/><rect width="1.316" height="1.522" transform="translate(21.154 25.874) rotate(20.901)" fill="#ffce80"/><rect width="1.316" height="1.522" transform="translate(23.151 26.636) rotate(20.901)" fill="#ffce80"/><g transform="translate(18.842)"><circle cx="7.404" cy="7.404" r="7.404" transform="translate(0 5.378) rotate(-21.295)" fill="#6a6382"/><circle cx="2.386" cy="2.386" r="2.386" transform="translate(6.432 8.392) rotate(-24.262)" fill="#86809c"/><path d="M1473.5,415.342a1.481,1.481,0,1,1-.855-1.912A1.481,1.481,0,0,1,1473.5,415.342Z" transform="translate(-1462.534 -405.227)" fill="#474259"/><rect width="3.729" height="2.303" rx="1.152" transform="translate(9.987 3.312) rotate(20.9)" fill="#474259"/><rect width="3.729" height="2.303" rx="1.152" transform="translate(15.858 9.989) rotate(110.9)" fill="#474259"/><rect width="3.729" height="2.303" rx="1.152" transform="translate(9.18 15.86) rotate(-159.1)" fill="#474259"/><rect width="3.729" height="2.303" rx="1.152" transform="translate(3.31 9.182) rotate(-69.099)" fill="#474259"/></g><g transform="translate(8.195 0.034)"><circle cx="5.224" cy="5.224" r="5.224" transform="translate(0 9.777) rotate(-69.353)" fill="#6a6382"/><path d="M1400.811,400.615a1.683,1.683,0,1,1,.849-2.224A1.683,1.683,0,0,1,1400.811,400.615Z" transform="translate(-1393.393 -392.348)" fill="#86809c"/><path d="M1403.276,402.758a1.045,1.045,0,1,1,.527-1.38A1.045,1.045,0,0,1,1403.276,402.758Z" transform="translate(-1396.119 -395.074)" fill="#474259"/><rect width="2.631" height="1.625" rx="0.813" transform="translate(10.061 3.799) rotate(65.901)" fill="#474259"/><rect width="2.631" height="1.625" rx="0.813" transform="translate(9.658 10.059) rotate(155.9)" fill="#474259"/><rect width="2.631" height="1.625" rx="0.813" transform="matrix(-0.408, -0.913, 0.913, -0.408, 3.398, 9.657)" fill="#474259"/><rect width="2.631" height="1.625" rx="0.813" transform="translate(3.8 3.396) rotate(-24.1)" fill="#474259"/></g><path d="M1373.769,501.063a16.411,16.411,0,0,1-4.632-3.082,34.344,34.344,0,0,1-5.906-6.854c-2.569-4-6.824-5.381-9.931-6.39-.663-.215-1.288-.419-1.831-.626l.1-.262c.536.2,1.158.407,1.817.621,3.147,1.022,7.457,2.422,10.08,6.505a34.059,34.059,0,0,0,5.855,6.8c2.278,2.014,4.315,3.2,5.735,3.331,1.2.113,2.194-.639,2.946-2.236a10.647,10.647,0,0,0,.783-2.5l.277.044a10.743,10.743,0,0,1-.8,2.575c-.8,1.694-1.912,2.525-3.228,2.4A4.865,4.865,0,0,1,1373.769,501.063Z" transform="translate(-1347.145 -462.357)" fill="#474259"/><rect width="1.104" height="0.377" transform="matrix(0.934, 0.357, -0.357, 0.934, 31.318, 33.754)" fill="#474259"/><rect width="1.481" height="2.084" transform="translate(3.928 20.435) rotate(20.9)" fill="#ffce80"/></g></g><g transform="translate(14.433 75.203)"><path d="M0,0H51.265a5.52,5.52,0,0,1,5.52,5.52v0a0,0,0,0,1,0,0H0a0,0,0,0,1,0,0V0A0,0,0,0,1,0,0Z" transform="translate(39.287 47.325)" fill="#5e5773"/><path d="M0,0H31.8a5.52,5.52,0,0,1,5.52,5.52v0a0,0,0,0,1,0,0H5.52A5.52,5.52,0,0,1,0,0V0A0,0,0,0,1,0,0Z" transform="translate(11.355 47.325)" fill="#86809c"/><path d="M1279.775,692.742H1229.9a3.711,3.711,0,0,0-3.563,4.748l11.315,38.889h56.306l-12.28-42.206A1.986,1.986,0,0,0,1279.775,692.742Z" transform="translate(-1226.191 -689.082)" fill="#86809c"/><path d="M1284.234,692.742h-49.87a3.711,3.711,0,0,0-3.563,4.748l11.315,38.889h56.306l-12.28-42.206A1.987,1.987,0,0,0,1284.234,692.742Z" transform="translate(-1229.804 -689.082)" fill="#474259"/><path d="M1246.364,739.145l-11.137-38.279a2.865,2.865,0,0,1,2.751-3.665h49.87a1.147,1.147,0,0,1,1.095.822l11.965,41.123Z" transform="translate(-1233.417 -692.694)" fill="#86809c"/><path d="M1251.952,753.571l-10.729-37.418,52.546-.1a.3.3,0,0,1,.282.212l10.68,37.308Z" transform="translate(-1238.369 -707.967)" fill="#f0b4a9"/><g transform="translate(16.654)"><path d="M1319.551,673.479c-4.085.331-3.422,8.17-3.091,12.586s-.773,6.514-2.539,6.735h17.113l-5.52-17.444S1320.544,673.259,1319.551,673.479Z" transform="translate(-1313.92 -673.463)" fill="#f0e2c9"/><path d="M1381.6,701.923c.552-11.924-1.325-28.263-5.852-28.374H1343.58c4.527.111,6.4,16.45,5.851,28.374s1.766,14.463,5.52,15.236h32.164C1383.362,716.386,1381.044,713.847,1381.6,701.923Z" transform="translate(-1337.949 -673.533)" fill="#fef5e4"/><path d="M1441.627,852.676h-34.28s2.208,9.6-3.864,9.6h34.281C1443.836,862.281,1441.627,852.676,1441.627,852.676Z" transform="translate(-1386.481 -818.655)" fill="#fffdfa"/><path d="M1508.932,746.793h-19.8a3.722,3.722,0,0,0-3.722,3.722V763.9l3.432-4.118h20.088a3.722,3.722,0,0,0,3.722-3.722v-5.543A3.722,3.722,0,0,0,1508.932,746.793Z" transform="translate(-1452.857 -732.872)" fill="#e0e0e0" style="mix-blend-mode:multiply;isolation:isolate"/><path d="M1503.681,733.742h-20.7a3.892,3.892,0,0,0-3.892,3.892v13.994l3.588-4.306h21a3.892,3.892,0,0,0,3.892-3.892v-5.8A3.892,3.892,0,0,0,1503.681,733.742Z" transform="translate(-1447.733 -722.299)" fill="#ffce80"/><rect width="13.359" height="1.325" transform="translate(34.667 14.314)" fill="#e0e0e0" style="mix-blend-mode:multiply;isolation:isolate"/><rect width="21.612" height="1.325" transform="translate(34.667 18.969)" fill="#e0e0e0" style="mix-blend-mode:multiply;isolation:isolate"/></g></g><g transform="translate(35.249 79.849)"><path d="M1376.278,790.968h9.193l-.885-4.341-12.054-5.789-5.584-13.348-8.176-.1,3.272,18.353,1.43,3.4Z" transform="translate(-1354.42 -754.205)" fill="#b5455a"/><path d="M1371.718,790.894h-.038l-11.69-.344a3.959,3.959,0,0,1-3.783-3.307l-3.046-18.461a1.276,1.276,0,1,1,2.518-.416l3.046,18.461a1.4,1.4,0,0,0,1.34,1.171l11.69.344a1.276,1.276,0,0,1-.037,2.552Z" transform="translate(-1349.859 -754.132)" fill="#ff617f"/><path d="M1529.309,922.061l1.415,4.057c2.1.666,4.473,1.629,5.062,2.55-6.011-.739-8.169.213-8.169.213a5.15,5.15,0,0,1-.017-2.441c.125-.529.212-4.026.212-4.026Z" transform="translate(-1491.084 -879.515)" fill="#ff8762"/><path d="M1530.482,945.268c.665-.289.471-.8.631-1.174,2,.658,4.121,1.56,4.674,2.425-4.97.194-8.169.213-8.169.213a4.949,4.949,0,0,1-.078-2.133A3.727,3.727,0,0,0,1530.482,945.268Z" transform="translate(-1491.085 -897.365)" fill="#2b1710"/><path d="M1549.068,945.59a.04.04,0,0,0,.034-.04c0-.009.007-.87.412-.984a.041.041,0,0,0-.022-.078c-.463.131-.471,1.024-.471,1.063a.04.04,0,0,0,.04.041Z" transform="translate(-1508.552 -897.683)" fill="#4f3025"/><path d="M1554.7,947.568a.041.041,0,0,0,.034-.04c0-.008.007-.87.411-.984a.041.041,0,1,0-.022-.078c-.463.131-.471,1.024-.471,1.062a.041.041,0,0,0,.04.041Z" transform="translate(-1513.115 -899.285)" fill="#4f3025"/><path d="M1537.413,955.094a.041.041,0,0,0-.008-.08l-7.184.05a.041.041,0,0,0,0,.081l7.184-.05Z" transform="translate(-1493.29 -906.211)" fill="#4f3025"/><path d="M1402.078,840.946c.136.318.726,2.588,2.769,3.224s14.392.045,14.438.272c.045,1.952,6.447,11.713,6.447,11.713a5.42,5.42,0,0,0,3.814-.908l-2.724-7.491s.363-9.489-.59-10.533-12.939-1.5-12.939-1.5Z" transform="translate(-1389.505 -809.568)" fill="#76a4bb"/><path d="M1524.132,751.724a3.438,3.438,0,0,1-1.719,1.26,6.006,6.006,0,0,1-.147-1.146,10.513,10.513,0,0,1,.919-1.073Z" transform="translate(-1486.872 -740.737)" fill="#d67152"/><path d="M1523.074,744.685c.034.034.783.976.715,1.09s-.386.965-.613,1.078-.375-.193-.375-.193a.775.775,0,0,1-.76-.193s-1.112.2-1.2-.011a2,2,0,0,1-.057-1.067,3.842,3.842,0,0,1,.908-.874,2.936,2.936,0,0,1,.738-.147A3.434,3.434,0,0,1,1523.074,744.685Z" transform="translate(-1485.632 -735.554)" fill="#eb7c5a"/><path d="M1502.285,746.267s2.02-2.157,2.247-2.565.749-2.111.931-2.338a7.443,7.443,0,0,1,1.589-.7l1.5.522.976.863c-.136.3-1-.068-1.2-.182a2.533,2.533,0,0,0-1-.182c-.34,0-1.09.885-.976,1.249s.522-.227,1.18-.341.795.386.318.59a1.587,1.587,0,0,0-1.044,1.18,1.7,1.7,0,0,1-.863,1.317c-.409.159-1.544,2.792-1.544,2.792s-1.5-.136-1.566-.454S1502.285,746.267,1502.285,746.267Z" transform="translate(-1470.688 -732.55)" fill="#ff8762"/><path d="M1382.474,747.191c-2.361-.091-3.586.318-5.039,4.222s-2.043,11.168-1.317,11.9a3.669,3.669,0,0,0,2.043.817c.136,1.861,1.362,5.539,2.361,5.948,4.132,0,11.577-5.811,11.714-5.948a28.189,28.189,0,0,0,.136-3.178l3.541.59a3.356,3.356,0,0,0,2.588-1c1-1.135,3.813-7.219,3.813-7.219a6.731,6.731,0,0,1-2.5-1.771s-3.45,4.041-4.767,4.131-3.133-3.859-4.495-5.221a7.855,7.855,0,0,0-3.314-1.827l-1.907-.216S1382.883,747.055,1382.474,747.191Z" transform="translate(-1368.221 -737.833)" fill="#64dbfd"/><path d="M1456.734,785.741c-3.291,3.428-2.678,6.2-2.678,6.2s-6.538,1-6.538.931c.068-1.635,2.452-8.74,5.244-8.921A13.093,13.093,0,0,1,1456.734,785.741Z" transform="translate(-1426.318 -767.621)" fill="#f0e2c9"/><path d="M1405.827,702.248c-.76-1.169-1.021-3.065.386-3.473,1.033-.942,2.906-.9,3.768-.76s1-.091,1.089.147a1.038,1.038,0,0,1,0,.556,2.688,2.688,0,0,1,.352,2.418,6.256,6.256,0,0,0,.023,2.247,9.379,9.379,0,0,1-.068,3.087c-.182.182-1.2.227-1.2.227s-1.521.284-1.759.261a6.962,6.962,0,0,1-1.249-.7l-.409-1.282-.133-.917s-.321-.956-.343-1.036-.409-.772-.409-.772Z" transform="translate(-1392.039 -697.94)" fill="#2b1710"/><path d="M1407.445,720.422c-.545-.965-1.249-.114-1.067.761a1.07,1.07,0,0,0,1.146.794,6.6,6.6,0,0,1-.306,3.189c1.112.534,1.464,1.158,2.259,2.315s2.338,1.362,2.452,1.135a2.936,2.936,0,0,0,.057-2.009c-.976-.579-.976-.9-.965-1.056s.079-.987.079-.987a12.707,12.707,0,0,1-2.406-.533c-.624-.3-.919-1.441-1.01-2S1407.445,720.422,1407.445,720.422Z" transform="translate(-1392.965 -715.808)" fill="#ff8762"/><path d="M1419.512,702.634c-.363.477-2.156.272-2.361.318s-.3.318-.227.386c.182.227.182.931-.363.953-.068.272-.408.2-.318.431a10.08,10.08,0,0,1,.59,1.271,5.336,5.336,0,0,1-.454.772,2.581,2.581,0,0,0,1.339,1.839c.59.159,1,.114,1.067.2.34.431,1.453.318,1.566-.159a6.816,6.816,0,0,0,.136-1.566,14.933,14.933,0,0,1,0-2.021C1420.556,704.518,1420.4,702.725,1419.512,702.634Z" transform="translate(-1400.968 -701.743)" fill="#ff8762"/><path d="M1424.859,730.4a.643.643,0,0,0-1.039.068c-.386.437-1.056.062-1.056.062.114.227.959,1.084,1.328.874a4.809,4.809,0,0,0,.777-.692c.21.357.721.624.982.471a2.168,2.168,0,0,0,.533-.732s-.4.357-.443.267A.687.687,0,0,0,1424.859,730.4Z" transform="translate(-1406.264 -724.052)" fill="#2b1710"/><g transform="translate(18.253 7.008)" style="mix-blend-mode:multiply;isolation:isolate"><path d="M1432.194,734.985a.861.861,0,0,1-.163-.015.041.041,0,1,1,.016-.08,1.085,1.085,0,0,0,.462-.033.041.041,0,1,1,.025.077A1.245,1.245,0,0,1,1432.194,734.985Z" transform="translate(-1431.998 -734.856)" fill="#e0b3a8"/></g><g transform="translate(18.397 3.711)"><path d="M1432.8,719.778a.041.041,0,0,1-.015-.078,6.94,6.94,0,0,0,.818-.352c-.027-.067-.18-.3-.3-.491a4.377,4.377,0,0,1-.334-.552,1.622,1.622,0,0,1,.081-.6,1.762,1.762,0,0,0,.038-.181.04.04,0,1,1,.081,0,1.324,1.324,0,0,1-.04.2,1.865,1.865,0,0,0-.083.553,5.092,5.092,0,0,0,.325.533c.281.432.329.515.319.557-.005.022-.02.081-.872.406Zm.807-.419Zm.005-.02Z" transform="translate(-1432.756 -717.487)" fill="#2b1710"/></g><g transform="translate(17.156 4.717)" style="mix-blend-mode:multiply;isolation:isolate"><path d="M1426.542,723.148a.285.285,0,0,1-.141-.037.417.417,0,0,1-.181-.271.041.041,0,0,1,.078-.021.341.341,0,0,0,.143.221.2.2,0,0,0,.14.022.041.041,0,1,1,.022.078A.241.241,0,0,1,1426.542,723.148Z" transform="translate(-1426.219 -722.789)" fill="#e0b3a8"/></g><g transform="translate(13.744 4.67)" style="mix-blend-mode:multiply;isolation:isolate"><path d="M1408.8,723.72h0a.365.365,0,0,1-.4-.343.457.457,0,0,1,.412-.444.667.667,0,0,0-.23-.257.363.363,0,0,0-.3-.04.041.041,0,0,1-.022-.078.56.56,0,0,1,.613.323c.037.069.041.1.018.118a.041.041,0,0,1-.029.01.385.385,0,0,0-.383.366c0,.123.089.257.317.264a.041.041,0,0,1,0,.081Z" transform="translate(-1408.242 -722.54)" fill="#e0b3a8"/></g><path d="M1401.291,754.4a.04.04,0,0,1-.04-.034c0-.029-.523-2.921-2.936-3.076a.041.041,0,1,1,.005-.081c2.478.159,3.006,3.114,3.011,3.144a.041.041,0,0,1-.033.047Z" transform="translate(-1386.425 -741.096)" fill="#ccc" style="mix-blend-mode:multiply;isolation:isolate"/><path d="M1400.948,786.729a.041.041,0,0,1-.032-.016.04.04,0,0,1-.007-.037c.01-.033.987-3.3,1.908-5.43a.041.041,0,1,1,.075.032c-.853,1.977-1.756,4.927-1.889,5.366l3.87-.2a.04.04,0,0,1,.042.039.04.04,0,0,1-.038.043l-3.927.2Z" transform="translate(-1388.557 -765.412)" fill="#ccc" style="mix-blend-mode:multiply;isolation:isolate"/><path d="M1396.1,811.6l-.012,0a.041.041,0,0,1-.027-.051c0-.007.21-.673.245-.86a5.25,5.25,0,0,0-.949.81.041.041,0,0,1-.058-.057c.152-.151.915-.9,1.059-.832a.063.063,0,0,1,.032.072c-.023.16-.242.862-.251.892A.041.041,0,0,1,1396.1,811.6Z" transform="translate(-1384.004 -789.212)" fill="#ccc" style="mix-blend-mode:multiply;isolation:isolate"/><path d="M1393.041,831.225q-.287,0-.584-.015a.041.041,0,0,1,0-.081,12.121,12.121,0,0,0,5.428-.995.041.041,0,1,1,.036.073A12.158,12.158,0,0,1,1393.041,831.225Z" transform="translate(-1381.678 -805.036)" fill="#ccc" style="mix-blend-mode:multiply;isolation:isolate"/><path d="M1450.215,782.346h-.007a.04.04,0,0,1-.033-.047,14.193,14.193,0,0,0,.022-3.3.041.041,0,1,1,.081-.007,14.286,14.286,0,0,1-.023,3.325A.041.041,0,0,1,1450.215,782.346Z" transform="translate(-1428.47 -763.572)" fill="#ccc" style="mix-blend-mode:multiply;isolation:isolate"/><path d="M1474.393,855.326a.04.04,0,0,1-.039-.032c-.018-.079-1.788-7.9-2.085-8.465-.113-.214-2.014-.625-10.431-1.366-.488-.043-.686-.06-.71-.065a.041.041,0,0,1,.016-.079h0c.023,0,.308.029.7.064,6.978.615,10.313,1.063,10.5,1.41.3.573,2.019,8.162,2.092,8.485a.04.04,0,0,1-.031.049Z" transform="translate(-1437.319 -817.339)" fill="#b3b3b3" style="mix-blend-mode:multiply;isolation:isolate"/><path d="M1495.641,875.127a.1.1,0,0,1-.092-.037c-.041-.06.016-.144.13-.312a2.448,2.448,0,0,0,.463-1.046.041.041,0,0,1,.081.011,2.519,2.519,0,0,1-.476,1.081.925.925,0,0,0-.129.22.32.32,0,0,0,.132-.014,1.439,1.439,0,0,0,.821-.617.041.041,0,0,1,.056-.014.04.04,0,0,1,.014.055,1.5,1.5,0,0,1-.874.655A.613.613,0,0,1,1495.641,875.127Zm-.023-.08h0Z" transform="translate(-1465.22 -840.332)" fill="#ccc" style="mix-blend-mode:multiply;isolation:isolate"/><path d="M1430.137,859.749a.039.039,0,0,1-.022-.006.041.041,0,0,1-.012-.056,1.457,1.457,0,0,0-.086-1.706.041.041,0,0,1,.058-.056,1.538,1.538,0,0,1,.1,1.806A.041.041,0,0,1,1430.137,859.749Z" transform="translate(-1412.13 -827.544)" fill="#ccc" style="mix-blend-mode:multiply;isolation:isolate"/><path d="M1438.781,877.59a.041.041,0,0,1-.034-.018c-1.83-2.775-4.728-11.085-4.728-11.645,0-.3-.052-.315-.176-.35a.8.8,0,0,1-.419-.258c-.244-.262-.183-.388-.081-.483l.015-.015-.014-.007c-.192-.06-5.571-.016-9.131.013-1.487.012-2.662.022-3.17.022-.314,0-.608.007-.892.013-1.324.029-2.281.05-2.892-.663a.041.041,0,0,1,.062-.053c.586.684,1.527.663,2.829.634.285-.006.579-.013.893-.013.508,0,1.682-.01,3.169-.022,4.94-.04,9.04-.068,9.168,0,.027.014.059.034.064.068s-.021.062-.047.086c-.058.055-.138.13.085.369a.724.724,0,0,0,.382.235c.154.044.234.083.234.429,0,.557,2.891,8.833,4.715,11.6a.041.041,0,0,1-.012.056A.04.04,0,0,1,1438.781,877.59Z" transform="translate(-1401.796 -832.581)" fill="#ccc" style="mix-blend-mode:multiply;isolation:isolate"/><path d="M1421.609,715.143a4.337,4.337,0,0,1,1.869-.2A1.143,1.143,0,0,0,1421.609,715.143Z" transform="translate(-1405.328 -711.399)" fill="#2b1710"/><g transform="translate(17.951 2.788)" style="mix-blend-mode:multiply;isolation:isolate"><path d="M1430.777,713.477a.042.042,0,0,1-.024-.008.041.041,0,0,1-.009-.057.809.809,0,0,0-.325-.716.041.041,0,0,1,.05-.064.836.836,0,0,1,.341.827A.041.041,0,0,1,1430.777,713.477Z" transform="translate(-1430.404 -712.624)" fill="#e0b3a8"/></g><path d="M1427.505,720.375c0,.177-.079.322-.178.322s-.178-.144-.178-.322.08-.322.178-.322S1427.505,720.2,1427.505,720.375Z" transform="translate(-1409.817 -715.855)" fill="#2b1710"/><path d="M1435.717,720.215c0,.178-.08.322-.178.322s-.178-.144-.178-.322.08-.322.178-.322S1435.717,720.037,1435.717,720.215Z" transform="translate(-1416.469 -715.726)" fill="#2b1710"/><path d="M1435.281,715.533a.676.676,0,0,1,.628.076C1435.743,715.056,1435.4,715.23,1435.281,715.533Z" transform="translate(-1416.404 -711.963)" fill="#2b1710"/><path d="M1422.548,797.589c-.409,3.2-.167,3.874-.167,3.874s5.486-2.2,6.053-2.179a4.546,4.546,0,0,0,1.6-.272c.2-.106.938-.53.938-.53-.015-.091-.182-.182-.484-.076.318-.378.666-.772.621-.968a.8.8,0,0,0,.212-.742c.363-.363.62-.8.394-.8s-.923.439-1.725.575-1.513.061-1.483-.121.061-.475.59-.605c.647-.159.817-.817.681-.893s-.288.182-.515.182a2.175,2.175,0,0,0-1.271.409,8.555,8.555,0,0,0-1.014,1.7A35.718,35.718,0,0,1,1422.548,797.589Z" transform="translate(-1405.896 -776.441)" fill="#ff8762"/><path d="M1434.372,807.991a8.163,8.163,0,0,0,.289,3.093l.778-.289a10.694,10.694,0,0,1-.239-2.872C1434.673,807.963,1434.372,807.991,1434.372,807.991Z" transform="translate(-1415.613 -787.044)" fill="#474259"/><path d="M1435.351,815.854c.031.253-.21.491-.54.532a.546.546,0,0,1-.654-.384c-.031-.253.211-.491.54-.532A.546.546,0,0,1,1435.351,815.854Z" transform="translate(-1415.492 -793.153)" fill="#585073"/><path d="M1435.623,816.138c.027.218-.182.423-.466.459a.471.471,0,0,1-.563-.331c-.027-.218.182-.423.466-.458A.47.47,0,0,1,1435.623,816.138Z" transform="translate(-1415.846 -793.427)" fill="#8e88a6"/><g transform="translate(23.792 20.214)" style="mix-blend-mode:multiply;isolation:isolate"><path d="M1461.217,805.115a.041.041,0,0,1,0-.081,4.036,4.036,0,0,0,1.436-.607.041.041,0,1,1,.042.07,4.021,4.021,0,0,1-1.47.619Z" transform="translate(-1461.176 -804.421)" fill="#e0b3a8"/></g><g transform="translate(23.679 20.736)" style="mix-blend-mode:multiply;isolation:isolate"><path d="M1460.618,808.319a.041.041,0,0,1-.017-.078,4.9,4.9,0,0,0,1.372-1.058.041.041,0,0,1,.059.056,4.98,4.98,0,0,1-1.4,1.076A.039.039,0,0,1,1460.618,808.319Z" transform="translate(-1460.577 -807.171)" fill="#e0b3a8"/></g><path d="M1475.141,782.107c1.09.885.182,2.837.568,3.11l6.038-.931a1.462,1.462,0,0,1-.25-.636c0-.272.068-1.635-.227-1.975Z" transform="translate(-1448.697 -765.78)" fill="#fef5e4"/><g transform="translate(36.482 9.352)" style="mix-blend-mode:multiply;isolation:isolate"><path d="M1528.254,747.817l-.012,0a.041.041,0,0,1-.027-.051l.051-.162-.238-.335a.041.041,0,0,1,.01-.057.04.04,0,0,1,.057.01l.25.352a.042.042,0,0,1,.006.036l-.057.182A.041.041,0,0,1,1528.254,747.817Z" transform="translate(-1528.02 -747.202)" fill="#e0b3a8"/></g><g transform="translate(37.345 9.431)" style="mix-blend-mode:multiply;isolation:isolate"><path d="M1532.6,749.076a.042.042,0,0,1-.018,0,.041.041,0,0,1-.018-.055,2.569,2.569,0,0,0,.257-.694,2.806,2.806,0,0,0-.208-.583c-.016-.035-.026-.059-.028-.066a.04.04,0,0,1,.077-.026c0,.007.012.028.025.058a2.546,2.546,0,0,1,.215.61,2.606,2.606,0,0,1-.265.736A.04.04,0,0,1,1532.6,749.076Z" transform="translate(-1532.564 -747.622)" fill="#e0b3a8"/></g><path d="M1354.541,887.4c-6.788,0-12.592-2.359-15.863-6.646a.406.406,0,1,1,.646-.493c4,5.245,12.044,7.457,20.986,5.772a10.8,10.8,0,0,0,6.429-3.969,8.616,8.616,0,0,0,2.054-6.095c-.374-3.047-3.156-4.646-7.635-4.386a.406.406,0,0,1-.047-.811,9.964,9.964,0,0,1,6.138,1.259,5.239,5.239,0,0,1,2.35,3.84,9.3,9.3,0,0,1-2.223,6.7,11.61,11.61,0,0,1-6.916,4.263A32.031,32.031,0,0,1,1354.541,887.4Z" transform="translate(-1338.073 -837.939)" fill="#6b484b"/><path d="M1368.969,842.661l-2.406,19.432.556-.17,2.488-19.261Z" transform="translate(-1360.732 -815.188)" fill="#6b484b"/><path d="M1371.72,842.661l-2.406,19.432.556-.17,2.488-19.261Z" transform="translate(-1362.96 -815.188)" fill="#4d3436"/><g transform="translate(16.68 27.791)"><path d="M1423.708,844.335l6.631,20.022.556-.17-6.549-19.852Z" transform="translate(-1423.708 -844.335)" fill="#6b484b"/><path d="M1426.459,844.335l6.631,20.022.556-.17-6.549-19.852Z" transform="translate(-1425.937 -844.335)" fill="#4d3436"/></g><path d="M1379.376,837.553H1364.53v-1.589h13.257a1.589,1.589,0,0,1,1.589,1.589Z" transform="translate(-1359.085 -809.762)" fill="#6b484b"/><circle cx="0.443" cy="0.443" r="0.443" transform="translate(5.661 26.531)" fill="#4d3436"/><path d="M1351.791,887.4c-6.788,0-12.591-2.359-15.863-6.646a.406.406,0,1,1,.646-.493c4,5.245,12.044,7.457,20.986,5.772a10.8,10.8,0,0,0,6.429-3.969,8.615,8.615,0,0,0,2.054-6.095c-.373-3.047-3.156-4.646-7.635-4.386a.406.406,0,0,1-.047-.811,9.964,9.964,0,0,1,6.138,1.259,5.24,5.24,0,0,1,2.351,3.84,9.305,9.305,0,0,1-2.223,6.7,11.61,11.61,0,0,1-6.916,4.263A32.028,32.028,0,0,1,1351.791,887.4Z" transform="translate(-1335.845 -837.939)" fill="#4d3436"/></g><g transform="translate(136.586 46.049)"><path d="M1878.1,560.355a6.079,6.079,0,0,0-2.255-2.15c-.787,1.1-6.187,3.828-6.187,3.828,2.543,1.232,4.641,6.45,3.88,9.805a25.679,25.679,0,0,1,6.188-3.041,38.833,38.833,0,0,0-.616-5.008l-.38-2.229Z" transform="translate(-1869.655 -550.931)" fill="#fef5e4"/><path d="M1920.511,571.563c-1.206-.891-8.888-2.386-9.465-2.7s-1.39-1.232-1.678-1.311-1.049.315-1.534.236a3.138,3.138,0,0,1-.6-.131.687.687,0,0,0,.524.813c.42.118.826.079.957.223s.551,2.661.826,2.661c1-.21,1.613-.695,2.229-.066s8.272,3.972,8.639,3.906.5-.1.5-.157S1920.511,571.563,1920.511,571.563Z" transform="translate(-1900.087 -558.495)" fill="#ff8762"/><g transform="translate(22.312 44.365)"><path d="M1988.522,754.487s1.206,8.154,1.153,8.259a14.85,14.85,0,0,0-2.491,6.4l6.318-4.641c.026-.813-.944-2.255-1.154-2.727s.708-6.423.629-7.708S1988.522,754.487,1988.522,754.487Z" transform="translate(-1987.185 -753.589)" fill="#ff8762"/><path d="M1993.5,802.663a4.836,4.836,0,0,0-.745-1.973c-.6,1.156-2.238,1.722-2.558,1.317-.238-.3-.237-.746-.6-.987a14.877,14.877,0,0,0-2.411,6.283Z" transform="translate(-1987.185 -791.748)" fill="#2b1710"/><path d="M1997.284,806.049a.047.047,0,0,1-.043-.029c0-.006-.264-.627-.725-.618a.048.048,0,0,1-.048-.046.047.047,0,0,1,.046-.048c.526-.009.8.648.813.676a.047.047,0,0,1-.026.061A.046.046,0,0,1,1997.284,806.049Z" transform="translate(-1994.706 -795.49)" fill="#4f3025"/><path d="M1994.613,811.436a.047.047,0,0,1-.043-.029c0-.006-.264-.627-.725-.618a.048.048,0,0,1-.048-.046.047.047,0,0,1,.046-.048c.526-.009.8.648.813.676a.047.047,0,0,1-.026.061A.048.048,0,0,1,1994.613,811.436Z" transform="translate(-1992.542 -799.854)" fill="#4f3025"/><path d="M1991.667,818.479a.047.047,0,0,1-.043-.029c0-.006-.264-.627-.725-.618a.048.048,0,0,1-.048-.046.047.047,0,0,1,.046-.048c.526-.009.8.648.813.676a.047.047,0,0,1-.026.061A.045.045,0,0,1,1991.667,818.479Z" transform="translate(-1990.155 -805.56)" fill="#4f3025"/><path d="M1989.793,812.906a.048.048,0,0,1-.038-.019.047.047,0,0,1,.01-.066l5.62-4.142a.047.047,0,1,1,.055.075l-5.619,4.143A.046.046,0,0,1,1989.793,812.906Z" transform="translate(-1989.26 -798.214)" fill="#4f3025"/></g><g transform="translate(8.669 44.323)"><path d="M1921.041,753.4s-1.326,8.135-1.408,8.219a14.846,14.846,0,0,0-4.315,5.339l7.429-2.5c.272-.766-.215-2.435-.271-2.948s2.625-5.906,2.94-7.153S1921.041,753.4,1921.041,753.4Z" transform="translate(-1915.318 -753.369)" fill="#ff8762"/><path d="M1922.747,800.02a4.838,4.838,0,0,0-.111-2.106c-.923.919-2.655.962-2.837.478-.135-.359,0-.783-.276-1.124a14.87,14.87,0,0,0-4.2,5.255Z" transform="translate(-1915.318 -788.934)" fill="#2b1710"/><path d="M1933.818,799.981a.047.047,0,0,1-.032-.041c0-.007-.062-.677-.5-.809a.048.048,0,0,1-.031-.058.047.047,0,0,1,.058-.032c.5.151.567.861.57.891a.047.047,0,0,1-.043.051A.049.049,0,0,1,1933.818,799.981Z" transform="translate(-1929.845 -790.37)" fill="#4f3025"/><path d="M1929.639,804.3a.047.047,0,0,1-.033-.041c0-.007-.062-.678-.5-.809a.048.048,0,0,1-.031-.058.047.047,0,0,1,.058-.031c.5.151.567.86.57.891a.047.047,0,0,1-.043.051A.047.047,0,0,1,1929.639,804.3Z" transform="translate(-1926.459 -793.871)" fill="#4f3025"/><path d="M1924.693,810.119a.047.047,0,0,1-.032-.041c0-.007-.062-.677-.5-.809a.048.048,0,0,1-.032-.059.047.047,0,0,1,.058-.031c.5.151.567.86.57.891a.047.047,0,0,1-.043.051A.049.049,0,0,1,1924.693,810.119Z" transform="translate(-1922.452 -798.583)" fill="#4f3025"/><path d="M1919.233,811.52a.047.047,0,0,1-.03-.03.047.047,0,0,1,.03-.059l6.611-2.241a.047.047,0,1,1,.03.089l-6.612,2.241A.047.047,0,0,1,1919.233,811.52Z" transform="translate(-1918.463 -798.591)" fill="#4f3025"/></g><path d="M1957.835,639.343c-.341.3-1.862,3.028-2.124,3.133-.734.21-9.071,2.517-10.487,5.453s-2.569,13.266-2.517,13.528c2.045,1.468,5.034.577,5.034.577,1.154-2.1,2.937-9.491,2.937-9.491l.524-.262a4.21,4.21,0,0,0-.1,1.992c.157,1.416,1.049,8.18,1.154,8.39,2.727,1,5.191-.472,5.191-.734s.472-7.236.682-7.551,8.442-3.618,9.072-6.345-1.416-8.39-1.416-8.39Z" transform="translate(-1928.838 -616.666)" fill="#64dbfd"/><path d="M2022.507,633.957c-.013.472-.17.918-.131,1.022.748.669,5.493,1.141,7.944.3a3.1,3.1,0,0,1-.314-1.114Z" transform="translate(-1993.379 -612.302)" fill="#2b1710"/><path d="M1987.037,568.514s-.49.21-.979.385c-1.958.734-8.809,2.8-10.208,2.657a10.159,10.159,0,0,0,.245,4.16l7.271-.594a2.552,2.552,0,0,0-.035,1.713c.35.664,1.049,3.74,1.363,4.02a17.219,17.219,0,0,0,7.586.245c.315-.245.664-3.74.839-3.636s2.377,4.894,2.377,4.894a4.714,4.714,0,0,0,3.531-.664s-2.272-8.32-3.671-9.893a13.907,13.907,0,0,0-4.335-2.692,3.539,3.539,0,0,0-1.713-1.014A15.846,15.846,0,0,0,1987.037,568.514Z" transform="translate(-1955.602 -558.942)" fill="#ff617f"/><path d="M2021.61,520.791c-.734.236-.944,1.521-.76,2.359a2.277,2.277,0,0,1-.865,2.071c-.551.551.472,2.333,2.805,2.333s5.558.21,5.689-1.39-.76-2.386-.577-3.2S2025.385,518.117,2021.61,520.791Z" transform="translate(-1991.328 -519.888)" fill="#2b1710"/><path d="M2028.154,529.985c.192,1.573,1.818,2.045,2.639,2.167a2.185,2.185,0,0,1,1.287.7c.234-.767,1.056-.715,1.125.019s-1.014,1.521-1.433,1.119c-.472,2.832.35,3.583.332,3.723-.3.821-1.678,1.224-1.7,1.346-.018.489-.751,1.7-.874,1.556-.175-.4.035-1.591-.035-1.7s-.49-.891-.49-.891a3.811,3.811,0,0,0,.188-1.8c-1.009-.2-1.254-1.656-1.376-2.53a7.3,7.3,0,0,1,.035-1.975A14.742,14.742,0,0,1,2028.154,529.985Z" transform="translate(-1997.75 -528.068)" fill="#ff8762"/><path d="M2040.292,544.341c0,.2-.094.361-.21.361s-.21-.161-.21-.361.094-.361.21-.361S2040.292,544.141,2040.292,544.341Z" transform="translate(-2007.559 -539.406)" fill="#2b1710"/><path d="M2031.385,544.065c0,.2-.094.36-.21.36s-.21-.162-.21-.36.094-.361.21-.361S2031.385,543.865,2031.385,544.065Z" transform="translate(-2000.342 -539.183)" fill="#2b1710"/><path d="M2032.909,543.883a2.064,2.064,0,0,1-.629-.089.1.1,0,0,1-.067-.078.107.107,0,0,1,.034-.1,1.629,1.629,0,0,0,.312-1.549.047.047,0,1,1,.09-.027,1.7,1.7,0,0,1-.339,1.646.014.014,0,0,0,0,.013.011.011,0,0,0,.007.008,2.1,2.1,0,0,0,.631.082.046.046,0,0,1,.048.046.047.047,0,0,1-.046.048Z" transform="translate(-2001.352 -537.807)" fill="#2b1710"/><g transform="translate(31.507 7.044)" style="mix-blend-mode:multiply;isolation:isolate"><path d="M2035.741,558.136l-.076,0a.047.047,0,0,1,.005-.094,3.069,3.069,0,0,0,1.988-1.024.047.047,0,1,1,.082.045A3.164,3.164,0,0,1,2035.741,558.136Z" transform="translate(-2035.621 -556.991)" fill="#e0b3a8"/></g><g transform="translate(34.299 4.589)" style="mix-blend-mode:multiply;isolation:isolate"><path d="M2050.536,545.121a.759.759,0,0,1-.17-.021.047.047,0,0,1-.035-.057.047.047,0,0,1,.056-.035c.178.042.309.014.371-.079a.28.28,0,0,0-.018-.3.185.185,0,0,0-.207-.077.047.047,0,0,1-.057-.061.621.621,0,0,1,.766-.4.047.047,0,0,1-.027.09.5.5,0,0,0-.618.266.28.28,0,0,1,.218.123.373.373,0,0,1,.02.411A.336.336,0,0,1,2050.536,545.121Z" transform="translate(-2050.329 -544.06)" fill="#e0b3a8"/></g><g transform="translate(29.435 4.002)"><path d="M2033.831,545.443a.047.047,0,0,1-.023-.006.505.505,0,0,0-.464-.014.047.047,0,0,1-.049-.08.59.59,0,0,1,.559.013.047.047,0,0,1-.023.088Z" transform="translate(-2031.648 -544.458)" fill="#2b1710"/><path d="M2036.9,540.971a.938.938,0,1,0,.938.938A.94.94,0,0,0,2036.9,540.971Zm0,1.8a.861.861,0,1,1,.861-.861A.861.861,0,0,1,2036.9,542.77Z" transform="translate(-2033.829 -540.971)" fill="#2b1710"/><path d="M2025.571,540.971a.942.942,0,1,0,.86.938A.9.9,0,0,0,2025.571,540.971Zm0,1.81a.876.876,0,1,1,.8-.872A.836.836,0,0,1,2025.571,542.781Z" transform="translate(-2024.711 -540.971)" fill="#2b1710"/><path d="M2045.405,545.179a.047.047,0,0,1-.01-.093l.882-.2a.047.047,0,0,1,.021.092l-.883.2Z" transform="translate(-2041.438 -544.141)" fill="#2b1710"/></g><path d="M2032.588,553.1c.039-.308.439-.315,1.436,0C2033.2,554.063,2032.634,553.939,2032.588,553.1Z" transform="translate(-2001.657 -546.606)" fill="#f54a4a"/><path d="M2028.479,538.828a1.86,1.86,0,0,1,.957.092C2029.056,538.369,2028.6,538.369,2028.479,538.828Z" transform="translate(-1998.328 -534.962)" fill="#2b1710"/><path d="M2032.761,553.938a2.491,2.491,0,0,1-.837-.144.047.047,0,1,1,.032-.088,2.059,2.059,0,0,0,1.559-.022.047.047,0,0,1,.049.08A1.634,1.634,0,0,1,2032.761,553.938Z" transform="translate(-2001.094 -547.262)" fill="#2b1710"/><path d="M2030.564,576.211a.045.045,0,0,1-.027-.009c-.325-.229-.2-1.038-.089-1.5.01-.043.007-.067,0-.07-.147-.045-.876.576-.975.831a.047.047,0,0,1-.091-.016,7.031,7.031,0,0,1,.141-1.48.047.047,0,1,1,.091.021,6.6,6.6,0,0,0-.138,1.292c.235-.309.809-.8,1-.739.037.011.095.05.065.18-.17.735-.151,1.259.051,1.4a.047.047,0,0,1-.027.085Z" transform="translate(-1999.058 -563.673)" fill="#ccc" style="mix-blend-mode:multiply;isolation:isolate"/><path d="M2042.479,577.636h-.012a.047.047,0,0,1-.033-.036c0-.006-.123-.579-.244-.975-.051-.169-.126-.269-.205-.275s-.182.1-.267.28a.047.047,0,1,1-.085-.039c.132-.288.268-.341.358-.335.122.008.224.129.289.341.093.3.187.714.226.893a8.487,8.487,0,0,0,1.38-1.96.047.047,0,0,1,.089.029,9.043,9.043,0,0,1-1.461,2.062A.047.047,0,0,1,2042.479,577.636Z" transform="translate(-2008.982 -564.941)" fill="#ccc" style="mix-blend-mode:multiply;isolation:isolate"/><path d="M2032.589,594.976a.047.047,0,0,1-.047-.041c0-.013-.158-1.3-.245-1.957a12.742,12.742,0,0,1,.372-2.529c.125-.623.243-1.212.257-1.465a.047.047,0,1,1,.093,0c-.014.259-.127.824-.259,1.478a12.855,12.855,0,0,0-.371,2.5c.086.657.243,1.945.245,1.958a.047.047,0,0,1-.041.052Z" transform="translate(-2001.415 -575.831)" fill="#ccc" style="mix-blend-mode:multiply;isolation:isolate"/><path d="M2018.013,589.948l-.012,0a.047.047,0,0,1-.033-.058,11.9,11.9,0,0,0,.453-3.2.047.047,0,1,1,.094-.008,11.986,11.986,0,0,1-.456,3.233A.047.047,0,0,1,2018.013,589.948Z" transform="translate(-1989.812 -573.966)" fill="#ccc" style="mix-blend-mode:multiply;isolation:isolate"/><path d="M2065.062,585.67h-.007a.046.046,0,0,1-.04-.053,5.907,5.907,0,0,1,1.377-3.017.047.047,0,1,1,.065.068,5.812,5.812,0,0,0-1.349,2.961A.047.047,0,0,1,2065.062,585.67Z" transform="translate(-2027.928 -570.684)" fill="#ccc" style="mix-blend-mode:multiply;isolation:isolate"/><path d="M2028.86,646.725a.047.047,0,0,1-.046-.038,7.061,7.061,0,0,1,.387-3.487.047.047,0,1,1,.087.035,6.963,6.963,0,0,0-.382,3.435.047.047,0,0,1-.038.055Z" transform="translate(-1998.543 -619.767)" fill="#ccc" style="mix-blend-mode:multiply;isolation:isolate"/><path d="M1989.379,680.179h-.009a.047.047,0,0,1-.037-.055c.488-2.475,6.446-5.866,6.7-6.009a.047.047,0,1,1,.046.082c-.062.035-6.174,3.513-6.654,5.946A.047.047,0,0,1,1989.379,680.179Z" transform="translate(-1966.613 -644.831)" fill="#ccc" style="mix-blend-mode:multiply;isolation:isolate"/><path d="M2011.134,666.562a.047.047,0,0,1-.047-.045c0-.065-.21-6.474-.21-7.028a.472.472,0,0,1,.262-.484.477.477,0,0,0,.263-.365,1.31,1.31,0,0,0,.018-.4c-.017-.21-.01-.319.32-.507.544-.311,8.134-5.038,8.579-6.3s-.136-5.771-.142-5.816a.047.047,0,0,1,.093-.012c.024.186.591,4.57.137,5.859-.481,1.37-8.54,6.307-8.62,6.353-.293.167-.287.241-.273.419a1.372,1.372,0,0,1-.019.424.566.566,0,0,1-.3.426.383.383,0,0,0-.218.4c0,.552.208,6.96.21,7.025a.047.047,0,0,1-.045.048Z" transform="translate(-1984.068 -621.706)" fill="#ccc" style="mix-blend-mode:multiply;isolation:isolate"/><path d="M2018.612,714.29a.377.377,0,0,1-.086-.013c-.275-.069-.763-.174-.767-.174a.047.047,0,0,1,.019-.092c.005,0,.494.106.771.175a.306.306,0,0,0,.057.01,3.083,3.083,0,0,0-.335-.421l-.153-.178a.047.047,0,1,1,.071-.061l.153.177c.31.358.4.464.352.539A.087.087,0,0,1,2018.612,714.29Zm0-.077h0Z" transform="translate(-1989.613 -676.761)" fill="#ccc" style="mix-blend-mode:multiply;isolation:isolate"/><path d="M1979.022,705.316a.374.374,0,0,1-.086-.013c-.276-.069-.763-.174-.767-.174a.047.047,0,1,1,.02-.092s.493.106.771.175a.309.309,0,0,0,.057.01,3.066,3.066,0,0,0-.335-.42l-.153-.178a.047.047,0,0,1,.071-.061l.153.177c.31.358.4.464.352.539A.087.087,0,0,1,1979.022,705.316Zm0-.077h0Z" transform="translate(-1957.539 -669.491)" fill="#ccc" style="mix-blend-mode:multiply;isolation:isolate"/><rect width="2.556" height="1.18" transform="matrix(0.993, 0.119, -0.119, 0.993, 30.191, 22.031)" fill="#ffce80"/><rect width="0.302" height="1.272" transform="translate(33.874 22.31)" fill="#64dbfd"/><path d="M2037.722,640.7l.1.769c-1.4,1.223-4.3,4.4-4.824,4.544s-2.377-1.189-2.377-1.189l-1.573.3a15.741,15.741,0,0,0-1.45,1.416c.227.192,1.433-.664,1.433-.664h.385s-.4.28-.455.437a10.606,10.606,0,0,0-.489,1.73c.087.035.349-.105.349-.105,0,.14-.227.227.035.192s.839-.821.839-.821l-.052.909c.227-.017.4-.7.542-.909a1.914,1.914,0,0,1,1.888.227c.4.489,1.136,1.031,2.272.035,2.884-1.224,6.991-4.213,7.009-4.982a14.286,14.286,0,0,0-.4-2.482A9.73,9.73,0,0,1,2037.722,640.7Z" transform="translate(-1997.618 -617.282)" fill="#ff8762"/><g transform="translate(31.205 28.791)" style="mix-blend-mode:multiply;isolation:isolate"><path d="M2034.08,673.114a.048.048,0,0,1-.017,0,.047.047,0,0,1-.027-.061,7.093,7.093,0,0,1,.524-1.119,5.768,5.768,0,0,1,.6-.373.047.047,0,1,1,.045.082,5.916,5.916,0,0,0-.581.361,6.963,6.963,0,0,0-.5,1.083A.047.047,0,0,1,2034.08,673.114Z" transform="translate(-2034.033 -671.552)" fill="#e0b3a8"/></g><path d="M2020.276,666.849l-2.976-1.127-.629.039.511.341,2.844,1.167.092-.262Z" transform="translate(-1988.762 -638.037)" fill="#2b1710"/><path d="M1902.34,632.093h7.551c-3.618,5.873-.577,10.33-.577,10.33s-8.337.629-8.495.629C1898.617,638.91,1901.449,632.827,1902.34,632.093Z" transform="translate(-1894.239 -610.792)" fill="#fef5e4"/></g><g transform="translate(0 94.237)"><g transform="translate(3.417 3.417)"><path d="M1169.923,800.679v-.594a3.507,3.507,0,0,0-.875-2.263,3.7,3.7,0,1,1,5.658-.046,3.773,3.773,0,0,0-.914,2.416v.487a1.935,1.935,0,1,1-3.869,0Zm-.338-7.636a3.288,3.288,0,0,0-.231,4.517,3.91,3.91,0,0,1,.972,2.525v.594a1.531,1.531,0,1,0,3.063,0v-.487a4.227,4.227,0,0,1,1.006-2.673,3.279,3.279,0,0,0,.75-2.268,3.316,3.316,0,0,0-3.13-3.114q-.08,0-.159,0A3.263,3.263,0,0,0,1169.585,793.043Z" transform="translate(-1168.162 -791.729)" fill="#a7b4a9"/></g><g transform="translate(6.91)"><rect width="0.403" height="2.579" fill="#a7b4a9"/></g><g transform="translate(1.923 1.982)"><rect width="0.403" height="2.579" transform="translate(0 0.285) rotate(-45)" fill="#a7b4a9"/></g><g transform="translate(0 6.994)"><rect width="2.579" height="0.403" fill="#a7b4a9"/></g><g transform="translate(10.217 1.923)"><rect width="2.579" height="0.403" transform="translate(0 1.823) rotate(-44.999)" fill="#a7b4a9"/></g><g transform="translate(11.729 6.91)"><rect width="2.579" height="0.403" fill="#a7b4a9"/></g><g transform="translate(5.656 11.028)"><rect width="2.953" height="0.403" fill="#a7b4a9"/></g><g transform="translate(5.823 12.234)"><rect width="2.662" height="0.403" fill="#a7b4a9"/></g></g><g transform="translate(119.58 22.41)"><g transform="translate(1.585)"><rect width="0.388" height="1.308" fill="#a7b4a9"/></g><g transform="translate(1.585 2.25)"><rect width="0.388" height="1.308" fill="#a7b4a9"/></g><g transform="translate(0 1.585)"><rect width="1.308" height="0.388" fill="#a7b4a9"/></g><g transform="translate(2.25 1.585)"><rect width="1.308" height="0.388" fill="#a7b4a9"/></g></g><g transform="translate(16.006 112.492)"><g transform="translate(1.585)"><rect width="0.388" height="1.308" fill="#a7b4a9"/></g><g transform="translate(1.585 2.25)"><rect width="0.388" height="1.308" fill="#a7b4a9"/></g><g transform="translate(0 1.585)"><rect width="1.308" height="0.388" fill="#a7b4a9"/></g><g transform="translate(2.25 1.585)"><rect width="1.308" height="0.388" fill="#a7b4a9"/></g></g><g transform="translate(205.985 83.535)"><g transform="translate(1.585)"><rect width="0.388" height="1.308" fill="#a7b4a9"/></g><g transform="translate(1.585 2.25)"><rect width="0.388" height="1.308" fill="#a7b4a9"/></g><g transform="translate(0 1.585)"><rect width="1.308" height="0.388" fill="#a7b4a9"/></g><g transform="translate(2.25 1.585)"><rect width="1.308" height="0.388" fill="#a7b4a9"/></g></g><g transform="translate(42.537 7.172)"><g transform="translate(1.585)"><rect width="0.388" height="1.308" fill="#a7b4a9"/></g><g transform="translate(1.585 2.25)"><rect width="0.388" height="1.308" fill="#a7b4a9"/></g><g transform="translate(0 1.585)"><rect width="1.308" height="0.388" fill="#a7b4a9"/></g><g transform="translate(2.25 1.585)"><rect width="1.308" height="0.388" fill="#a7b4a9"/></g></g><g transform="translate(180.833 16.364)"><g transform="translate(0 0.432)"><path d="M2107,365.795l1.133.895-4.267,5.4-1.132-.894Zm.892.923-.863-.682-4.055,5.132.863.682Z" transform="translate(-2102.737 -365.795)" fill="#a7b4a9"/></g><g transform="translate(4.108)"><path d="M2125.8,363.518l-.182,1.5-1.237-.977Zm-.2.258-.87.322.759.6Z" transform="translate(-2124.378 -363.518)" fill="#a7b4a9"/></g><g transform="translate(0 4.701)"><path d="M2103.631,388.281l1.133.895-.895,1.132-1.132-.894Zm.892.923-.864-.682-.682.864.863.682Z" transform="translate(-2102.737 -388.281)" fill="#a7b4a9"/></g></g><g transform="translate(130.015 12.332)"><path d="M1835.041,342.277h6.529l1.682,1.682v9.489h-8.211Zm7.92,1.8-1.512-1.512h-6.118v10.589h7.63Z" transform="translate(-1835.041 -342.277)" fill="#a7b4a9"/><g transform="translate(5.806 0.615)"><path d="M1865.627,347.345h1.825v-.291h-1.535v-1.535h-.291Z" transform="translate(-1865.627 -345.519)" fill="#a7b4a9"/></g></g><g transform="translate(187.963 59.545)"><g transform="translate(1.215 1.413)"><path d="M2152.663,605.478a46.028,46.028,0,0,0-5.774-7.052l-.195.184a45.821,45.821,0,0,1,5.738,7Z" transform="translate(-2146.694 -598.426)" fill="#a7b4a9"/></g><path d="M2146.071,597.838c-.122,0-3-.079-4.564-1.922l-.194-.234.262-.018,1.461-.1c-.474-.147-1.2-.367-2.108-.636l-.059-.018-.025-.056a7.589,7.589,0,0,1-.5-3.749l.017-.118.119,0a7.951,7.951,0,0,1,2.957.72l.084.04-.009.093c-.031.33-.059.711-.08,1.006l.566-.832.11.073a4.456,4.456,0,0,1,.936.82c1.566,1.843,1.179,4.694,1.162,4.814l-.017.117Zm-2.97-4.026.031-.489c0-.008.049-.776.106-1.413a7.892,7.892,0,0,0-2.64-.648,7.426,7.426,0,0,0,.466,3.424c2.791.829,2.791.83,2.779.971l-.012.11-.108.013c-.019,0-.075.009-1.856.134a6.65,6.65,0,0,0,4.089,1.651,6.469,6.469,0,0,0-1.115-4.481,4.109,4.109,0,0,0-.77-.7Z" transform="translate(-2140.292 -590.985)" fill="#a7b4a9"/></g></svg>