<svg xmlns="http://www.w3.org/2000/svg" width="108.677" height="108.678" viewBox="0 0 108.677 108.678"><g transform="translate(1.509 1.5)"><circle cx="45.634" cy="45.634" r="45.634" transform="translate(9.598 0)" fill="#f9ca78" stroke="#47286d" stroke-width="3"/><circle cx="40.829" cy="40.829" r="40.829" transform="translate(14.403 4.805)" fill="#f9e478"/><circle cx="36.026" cy="36.026" r="36.026" transform="translate(9.598 9.608)" fill="#744ec1"/><circle cx="31.223" cy="31.223" r="31.223" transform="translate(14.401 14.41)" fill="#653bba"/><circle cx="21.616" cy="21.616" r="21.616" transform="translate(24.009 24.018)" fill="#5628b4"/><g transform="translate(10.775 9.604)"><circle cx="12.008" cy="12.008" r="12.008" transform="translate(22.841 24.022)" fill="#3e0aa9"/><path d="M161.345,42.658a12.009,12.009,0,1,0,0,24.017h.311l.074,0h.1l.049,0h.078l.085,0a2.4,2.4,0,0,0-.135-4.8q-.069,0-.139,0-.21.012-.422.012a7.205,7.205,0,0,1,0-14.41,2.411,2.411,0,0,0,.6-4.785,3.792,3.792,0,0,0-.6-.019Z" transform="translate(-126.496 -42.655)" fill="#3e0aa9"/><path d="M98.676,235.631a12.009,12.009,0,0,0,0,24.017h.311l.074,0h.1l.049,0h.078l.085,0a2.4,2.4,0,0,0-.135-4.8q-.069,0-.139,0-.21.012-.422.012a7.205,7.205,0,1,1,0-14.41,2.4,2.4,0,0,0,0-4.8Z" transform="translate(-77.938 -192.18)" fill="#3e0aa9"/><path d="M59.907,116.374a12.009,12.009,0,0,0,0,24.017h.311l.074,0h.1l.049,0h.078l.085,0a2.4,2.4,0,0,0-.135-4.8q-.069,0-.139,0-.21.012-.422.012a7.205,7.205,0,1,1,0-14.41,2.4,2.4,0,1,0,0-4.8Z" transform="translate(-47.898 -99.775)" fill="#3e0aa9"/><path d="M262.776,116.374a12.009,12.009,0,0,0,0,24.017h.311l.074,0h.1l.049,0h.078l.085,0a2.4,2.4,0,0,0-.135-4.8q-.069,0-.139,0-.21.012-.422.012a7.205,7.205,0,0,1,0-14.41,2.4,2.4,0,1,0,0-4.8Z" transform="translate(-205.088 -99.775)" fill="#3e0aa9"/><path d="M224.062,235.631a12.009,12.009,0,1,0,0,24.017h.311l.074,0h.1l.049,0h.078l.085,0a2.4,2.4,0,0,0-.135-4.8q-.069,0-.139,0-.21.012-.422.012a7.205,7.205,0,0,1,0-14.41,2.4,2.4,0,0,0,0-4.8Z" transform="translate(-175.091 -192.18)" fill="#3e0aa9"/></g><path d="M355.745,213.337v24.018a14.411,14.411,0,0,0,14.411,14.411h0v19.214h0a28.821,28.821,0,0,1-28.821-28.821h0V213.337Z" transform="translate(-264.488 -165.301)" fill="#bb83ff" stroke="#47286d" stroke-width="3"/><path d="M45.635,0A45.633,45.633,0,1,0,91.268,45.636,45.633,45.633,0,0,0,45.635,0Zm0,9.607A12.009,12.009,0,1,1,33.627,21.619h0A12.008,12.008,0,0,1,45.635,9.61ZM11.372,34.5a12.009,12.009,0,1,1,7.71,15.132h0A12.009,12.009,0,0,1,11.372,34.5ZM41.233,72.125a12.009,12.009,0,1,1-2.657-16.774h0A12.009,12.009,0,0,1,41.233,72.125Zm-2.8-26.489a7.205,7.205,0,1,1,7.205,7.205,7.205,7.205,0,0,1-7.205-7.205ZM66.811,74.782a12.009,12.009,0,1,1,2.657-16.774A12.009,12.009,0,0,1,66.811,74.782Zm5.377-25.147A12.009,12.009,0,1,1,79.9,34.5h0a12.009,12.009,0,0,1-7.71,15.132Z" transform="translate(-0.011 -0.002)" fill="#f7b236"/><g transform="translate(-0.009 0.001)"><path d="M45.635,0A45.633,45.633,0,1,0,91.268,45.636,45.633,45.633,0,0,0,45.635,0Zm0,9.607A12.009,12.009,0,1,1,33.627,21.619h0A12.008,12.008,0,0,1,45.635,9.61ZM11.372,34.5a12.009,12.009,0,1,1,7.71,15.132h0A12.009,12.009,0,0,1,11.372,34.5ZM41.233,72.125a12.009,12.009,0,1,1-2.657-16.774h0A12.009,12.009,0,0,1,41.233,72.125Zm-2.8-26.489a7.205,7.205,0,1,1,7.205,7.205,7.205,7.205,0,0,1-7.205-7.205ZM66.811,74.782a12.009,12.009,0,1,1,2.657-16.774A12.009,12.009,0,0,1,66.811,74.782Zm5.377-25.147A12.009,12.009,0,1,1,79.9,34.5h0a12.009,12.009,0,0,1-7.71,15.132Z" transform="translate(-0.002 -0.003)" fill="#f9ca78" stroke="#47286d" stroke-width="3"/></g><path d="M62.166,21.337A40.83,40.83,0,1,0,103,62.167h0a40.829,40.829,0,0,0-40.83-40.83Zm0,4.8A12.009,12.009,0,1,1,50.157,38.149h0A12.008,12.008,0,0,1,62.165,26.14ZM27.9,51.034a12.009,12.009,0,1,1,7.71,15.132h0A12.009,12.009,0,0,1,27.9,51.034ZM57.764,88.656a12.009,12.009,0,1,1-2.657-16.774h0A12.009,12.009,0,0,1,57.764,88.656Zm-2.8-26.489a7.205,7.205,0,1,1,7.205,7.205,7.205,7.205,0,0,1-7.205-7.205ZM83.341,91.313A12.009,12.009,0,1,1,86,74.539,12.009,12.009,0,0,1,83.341,91.313Zm5.377-25.147a12.009,12.009,0,1,1,7.71-15.132h0a12.009,12.009,0,0,1-7.71,15.132Z" transform="translate(-16.541 -16.533)" fill="#f9e478"/></g></svg>