<svg xmlns="http://www.w3.org/2000/svg" width="288.848" height="291.333" viewBox="0 0 288.848 291.333"><g transform="translate(-908 -4199.16)"><path d="M575.5,388.874l.024.024-33.927,33.926L575.52,456.75l-.024.024,7.1,7.1.023-.023h0V449.653h0l-26.828-26.829,26.828-26.829h0V381.8h0l-.023-.023Z" transform="translate(614.23 3922.003)" fill="#47286d"/><path d="M576.862,595.5l.024.024L546.509,625.9l.009.009h14.175l23.29-23.29h0V588.423h0l-.023-.023Z" transform="translate(612.864 3864.586)" fill="#47286d"/><path d="M583.983,260.188l-23.29-23.29H546.519l-.01.01,30.377,30.377-.024.024,7.1,7.1.023-.023h0V260.188h0Z" transform="translate(612.864 3962.262)" fill="#47286d"/><path d="M480.131,343.92l.024.024-65.846,65.845-71.481-71.48-71.48,71.48L205.5,343.943l.023-.023-7.1-7.1-.024.023h0v14.194h0L257.7,410.332,198.4,469.624h0v14.194h0l.024.024,7.1-7.1-.023-.023,65.846-65.847,71.48,71.481,71.481-71.481,65.846,65.846-.024.024,7.1,7.1.023-.023h0V469.624h0L427.96,410.332l59.291-59.291h0V336.847h0l-.023-.023Zm-137.3,124.24L285,410.332,342.828,352.5l57.829,57.827Z" transform="translate(709.596 3934.495)" fill="#47286d"/><path d="M564.37,550.54l.024.024-62.84,62.841.009.009h14.175l55.753-55.753V543.468h0l-.023-.023Z" transform="translate(625.356 3877.079)" fill="#f17781"/><path d="M384.547,272.919l36.011-36.011-.01-.01H406.374l-21.827,21.827L362.72,236.9H348.545l-.01.01Z" transform="translate(667.877 3962.262)" fill="#47286d"/><path d="M348.535,626.469l.009.009H362.72l21.826-21.826,21.827,21.826h14.175l.009-.009-36.011-36.012Z" transform="translate(667.877 3864.015)" fill="#47286d"/><path d="M343.621,423.4l39.56,39.561L422.741,423.4l-39.561-39.559Zm39.56,25.366L357.816,423.4l25.365-25.365L408.546,423.4Z" transform="translate(669.243 3921.431)" fill="#f17781"/><path d="M372.054,305.383l68.474-68.475-.01-.01H426.345l-54.29,54.29-54.29-54.29H303.59l-.01.01Z" transform="translate(680.37 3962.262)" fill="#f17781"/><path d="M303.58,613.977l.009.009h14.176L372.054,559.7l54.29,54.289h14.175l.009-.009L372.054,545.5Z" transform="translate(680.37 3876.506)" fill="#f17781"/><path d="M475.922,369.631l55.792-55.792-55.792-55.791-55.791,55.791Zm41.6-55.792-41.6,41.6-41.6-41.6,41.6-41.6Z" transform="translate(647.982 3956.385)" fill="#47286d"/><path d="M277.948,464.67l-55.791,55.791,55.791,55.792,55.792-55.792Zm-41.6,55.791,41.6-41.6,41.6,41.6-41.6,41.6Z" transform="translate(702.996 3898.968)" fill="#47286d"/><path d="M475.922,464.67l-55.791,55.791,55.791,55.792,55.792-55.792Zm-41.6,55.791,41.6-41.6,41.6,41.6-41.6,41.6Z" transform="translate(647.982 3898.968)" fill="#47286d"/><path d="M277.948,369.631l55.792-55.792-55.792-55.791-55.791,55.791Zm41.6-55.792-41.6,41.6-41.6-41.6,41.6-41.6Z" transform="translate(702.996 3956.385)" fill="#47286d"/><path d="M488.413,349.661l23.33-23.329L488.413,303l-23.329,23.327Zm9.134-23.329-9.134,9.134-9.134-9.134,9.134-9.134Z" transform="translate(635.491 3943.893)" fill="#31d9e7"/><path d="M290.44,509.624l-23.328,23.329,23.328,23.329,23.329-23.329Zm-9.133,23.329,9.133-9.133,9.135,9.133-9.135,9.134Z" transform="translate(690.503 3886.477)" fill="#31d9e7"/><path d="M488.413,509.624l-23.329,23.329,23.329,23.329,23.33-23.329Zm-9.134,23.329,9.134-9.133,9.134,9.133-9.134,9.134Z" transform="translate(635.491 3886.477)" fill="#31d9e7"/><path d="M290.44,349.661l23.329-23.329L290.44,303l-23.328,23.327Zm9.135-23.329-9.135,9.134-9.133-9.134,9.133-9.134Z" transform="translate(690.503 3943.893)" fill="#31d9e7"/><path d="M198.428,463.871l7.1-7.1-.024-.024,33.926-33.926L205.5,388.9l.024-.024-7.1-7.1-.024.024h0v14.194h0l26.829,26.829L198.4,449.653h0v14.194h0Z" transform="translate(709.596 3922.003)" fill="#47286d"/><path d="M198.428,274.406l7.1-7.1-.023-.023,30.377-30.377-.01-.01H221.694l-23.29,23.29h0v14.194h0Z" transform="translate(709.596 3962.262)" fill="#47286d"/><path d="M205.525,595.5l-7.1-7.1-.024.024h0v14.194h0l23.29,23.29H235.87l.009-.009L205.5,595.519Z" transform="translate(709.596 3864.586)" fill="#47286d"/><path d="M198.428,306.869l7.1-7.1-.024-.024,62.84-62.84-.01-.01H254.157L198.4,292.651v14.194h0Z" transform="translate(709.596 3962.262)" fill="#f17781"/><path d="M205.525,550.54l-7.1-7.1-.024.024h0v14.194l55.753,55.753h14.176l.009-.009L205.5,550.564Z" transform="translate(709.596 3877.079)" fill="#f17781"/><path d="M515.739,236.9H501.565l-.01.01,62.84,62.84-.024.024,7.1,7.1.023-.023h0V292.651L515.738,236.9Z" transform="translate(625.356 3962.262)" fill="#f17781"/></g></svg>