<svg id="Capa_1" data-name="Capa 1" xmlns="http://www.w3.org/2000/svg" viewBox="0 0 125.63 202"><defs><style>.cls-1{isolation:isolate;}.cls-2{fill:#12263f;}.cls-3{fill:red;}.cls-4{fill:#ffd500;}.cls-5{fill:#0af;}</style></defs><g class="cls-1"><g class="cls-1"><path class="cls-2" d="M74.6,179H69.84l-1.07,3H67.22l4.34-11.38h1.32L77.23,182H75.69Zm-4.31-1.22h3.87l-1.94-5.32Z"/><path class="cls-2" d="M80,180.82h5V182H78.22v-1.06l4.66-6.2H78.29v-1.19H84.7v1Z"/><path class="cls-2" d="M91.77,181.16a3,3,0,0,1-2.47,1,2.64,2.64,0,0,1-2.06-.79,3.42,3.42,0,0,1-.72-2.32v-5.5H88V179q0,1.92,1.56,1.92a2.16,2.16,0,0,0,2.2-1.23v-6.15h1.45V182H91.8Z"/><path class="cls-2" d="M97,182H95.5V170H97Z"/></g></g><g class="cls-1"><g class="cls-1"><path class="cls-2" d="M74.6,101H69.84l-1.07,3H67.22l4.34-11.38h1.32L77.23,104H75.69ZM70.29,99.8h3.87l-1.94-5.32Z"/><path class="cls-2" d="M79.89,95.55l0,.93a3.12,3.12,0,0,1,2.51-1.09,2.41,2.41,0,0,1,2.41,1.36,3.15,3.15,0,0,1,1.1-1,3.24,3.24,0,0,1,1.6-.38c1.85,0,2.79,1,2.83,3V104H88.93V98.42a2,2,0,0,0-.41-1.35,1.84,1.84,0,0,0-1.4-.45,1.91,1.91,0,0,0-1.33.48,1.93,1.93,0,0,0-.62,1.29V104H83.72V98.46a1.61,1.61,0,0,0-1.81-1.84A1.93,1.93,0,0,0,80,97.83V104H78.52V95.55Z"/><path class="cls-2" d="M97.77,104a3.1,3.1,0,0,1-.2-.89,3.21,3.21,0,0,1-2.41,1,3,3,0,0,1-2-.71,2.3,2.3,0,0,1-.8-1.79,2.38,2.38,0,0,1,1-2,4.71,4.71,0,0,1,2.82-.73h1.41v-.67A1.61,1.61,0,0,0,97.09,97a1.8,1.8,0,0,0-1.33-.45,2.06,2.06,0,0,0-1.3.4,1.13,1.13,0,0,0-.52.94H92.48a2,2,0,0,1,.45-1.22,3.05,3.05,0,0,1,1.22-.94,4.12,4.12,0,0,1,1.69-.34,3.32,3.32,0,0,1,2.29.73,2.65,2.65,0,0,1,.86,2V102a4.75,4.75,0,0,0,.3,1.86V104Zm-2.39-1.1a2.54,2.54,0,0,0,1.28-.35,2.18,2.18,0,0,0,.89-.92V99.9H96.41c-1.77,0-2.65.52-2.65,1.55a1.33,1.33,0,0,0,.45,1.07A1.77,1.77,0,0,0,95.38,102.9Z"/><path class="cls-2" d="M105.34,96.84a5.16,5.16,0,0,0-.71,0A1.9,1.9,0,0,0,102.7,98v6h-1.44V95.55h1.4l0,1a2.24,2.24,0,0,1,2-1.13,1.5,1.5,0,0,1,.64.11Z"/><path class="cls-2" d="M106.68,93.3a.87.87,0,0,1,.21-.59.83.83,0,0,1,.64-.24.82.82,0,0,1,.64.24.83.83,0,0,1,.22.59.78.78,0,0,1-.86.82.82.82,0,0,1-.64-.23A.85.85,0,0,1,106.68,93.3Zm1.56,10.7H106.8V95.55h1.44Z"/><path class="cls-2" d="M112.12,104h-1.44V92h1.44Z"/><path class="cls-2" d="M116,104h-1.45V92H116Z"/><path class="cls-2" d="M117.94,99.7a5,5,0,0,1,.49-2.24,3.56,3.56,0,0,1,1.36-1.53,3.68,3.68,0,0,1,2-.54,3.57,3.57,0,0,1,2.8,1.2,4.58,4.58,0,0,1,1.06,3.18v.1a5.08,5.08,0,0,1-.47,2.21,3.6,3.6,0,0,1-1.35,1.53,3.8,3.8,0,0,1-2,.55A3.55,3.55,0,0,1,119,103a4.58,4.58,0,0,1-1.06-3.16Zm1.45.17a3.62,3.62,0,0,0,.65,2.25,2.1,2.1,0,0,0,1.75.86,2.07,2.07,0,0,0,1.75-.87,4,4,0,0,0,.65-2.41,3.63,3.63,0,0,0-.66-2.26,2.12,2.12,0,0,0-1.76-.86,2.05,2.05,0,0,0-1.72.85A3.92,3.92,0,0,0,119.39,99.87Z"/></g></g><g class="cls-1"><g class="cls-1"><path class="cls-2" d="M72.49,27.4H69.82V32H68.31V20.62h3.77a4.51,4.51,0,0,1,3,.88,3.14,3.14,0,0,1,1,2.55,3.1,3.1,0,0,1-.57,1.85,3.52,3.52,0,0,1-1.6,1.18l2.67,4.83V32H75Zm-2.67-1.23h2.3a2.58,2.58,0,0,0,1.78-.58A2,2,0,0,0,74.56,24a2.07,2.07,0,0,0-.63-1.62,2.7,2.7,0,0,0-1.81-.57h-2.3Z"/><path class="cls-2" d="M77.56,27.7a5.08,5.08,0,0,1,.49-2.24,3.6,3.6,0,0,1,3.35-2.07,3.55,3.55,0,0,1,2.79,1.2,4.58,4.58,0,0,1,1.07,3.18v.1a5.08,5.08,0,0,1-.47,2.21,3.56,3.56,0,0,1-1.36,1.53,3.77,3.77,0,0,1-2,.55A3.55,3.55,0,0,1,78.63,31a4.58,4.58,0,0,1-1.07-3.16Zm1.46.17a3.56,3.56,0,0,0,.65,2.25,2.19,2.19,0,0,0,3.49,0,3.88,3.88,0,0,0,.65-2.41,3.63,3.63,0,0,0-.66-2.26,2.1,2.1,0,0,0-1.75-.86,2.07,2.07,0,0,0-1.73.85A3.92,3.92,0,0,0,79,27.87Z"/><path class="cls-2" d="M88.56,23.55V33c0,1.62-.73,2.43-2.21,2.43a2.5,2.5,0,0,1-.88-.14V34.12a2.34,2.34,0,0,0,.65.07,1,1,0,0,0,.74-.26,1.31,1.31,0,0,0,.26-.92V23.55ZM87,21.3a.91.91,0,0,1,.21-.59,1,1,0,0,1,1.27,0,.83.83,0,0,1,.22.59.78.78,0,0,1-.86.82.79.79,0,0,1-.63-.23A.85.85,0,0,1,87,21.3Z"/><path class="cls-2" d="M90.51,27.7A5,5,0,0,1,91,25.46a3.56,3.56,0,0,1,1.36-1.53,3.68,3.68,0,0,1,2-.54,3.57,3.57,0,0,1,2.8,1.2,4.58,4.58,0,0,1,1.06,3.18v.1a5.08,5.08,0,0,1-.47,2.21,3.54,3.54,0,0,1-1.35,1.53,3.8,3.8,0,0,1-2,.55A3.57,3.57,0,0,1,91.57,31a4.58,4.58,0,0,1-1.06-3.16Zm1.45.17a3.62,3.62,0,0,0,.65,2.25,2.1,2.1,0,0,0,1.75.86,2.07,2.07,0,0,0,1.75-.87,4,4,0,0,0,.65-2.41,3.63,3.63,0,0,0-.66-2.26,2.12,2.12,0,0,0-1.76-.86,2.05,2.05,0,0,0-1.72.85A3.92,3.92,0,0,0,92,27.87Z"/></g></g><circle class="cls-3" cx="27" cy="27" r="27"/><circle class="cls-4" cx="27" cy="101" r="27"/><circle class="cls-5" cx="27" cy="175" r="27"/></svg>