<svg xmlns="http://www.w3.org/2000/svg" width="108" height="108" viewBox="0 0 108 108"><path d="M92.7,0H12.3A12.318,12.318,0,0,0,0,12.3V92.7A12.318,12.318,0,0,0,12.3,105H92.7A12.318,12.318,0,0,0,105,92.7V12.3A12.318,12.318,0,0,0,92.7,0Zm4.1,92.7a4.106,4.106,0,0,1-4.1,4.1H12.3a4.106,4.106,0,0,1-4.1-4.1V12.3a4.106,4.106,0,0,1,4.1-4.1H92.7a4.106,4.106,0,0,1,4.1,4.1ZM72.8,24.4H64.6V16.2h8.2Zm-48.6,0H16V16.2h8.2Zm16.2,0H32.2V16.2h8.2ZM64.6,80.8h8.2V89H64.6ZM80.8,16.2H89v8.2H80.8ZM80.6,80.8h8.2V89H80.6ZM16.2,80.6h8.2v8.2H16.2Zm15.791,0h8.2v8.2h-8.2ZM56.6,24.4H48.4V16.2h8.2ZM48.193,80.6h8.2v8.2h-8.2Zm-5.742-22.5A10.759,10.759,0,0,1,31.772,68.906H18.047V60.7H31.772a2.507,2.507,0,0,0,2.472-2.458c-.235-.307-1.486-1.637-6.247-3A48.608,48.608,0,0,0,21.629,53.9l-3.582-.457V36.094H40.811v8.2H26.25v2.087a51.645,51.645,0,0,1,5.244,1.35c7.271,2.316,10.957,5.8,10.957,10.36ZM79.16,68.7V57.012a3.9,3.9,0,0,0-7.793,0V68.7h-8.2V57.012a3.9,3.9,0,1,0-7.793,0V68.7h-8.2V44.707h8.2v.852a12.062,12.062,0,0,1,11.895,2.384,12.091,12.091,0,0,1,20.1,9.068V68.7Zm0,0" transform="translate(1.5 1.5)" fill="#f17781" stroke="#47286d" stroke-linejoin="round" stroke-width="3"/></svg>