<svg xmlns="http://www.w3.org/2000/svg" width="416" height="90" viewBox="0 0 416 90"><g transform="translate(6129 7054)"><g transform="translate(-6129 -7054)" fill="#fff" stroke="#f17781" stroke-width="2" stroke-dasharray="3" opacity="0.2"><path d="M6,0H83a7,7,0,0,1,7,7V83a7,7,0,0,1-7,7H7a7,7,0,0,1-7-7V6A6,6,0,0,1,6,0Z" stroke="none"/><path d="M6,1H83a6,6,0,0,1,6,6V83a6,6,0,0,1-6,6H7a6,6,0,0,1-6-6V6A5,5,0,0,1,6,1Z" fill="none"/></g><g transform="translate(-6084 -7054)" fill="#fff" stroke="#f17781" stroke-width="2" stroke-dasharray="3"><path d="M6,0H83a7,7,0,0,1,7,7V83a7,7,0,0,1-7,7H7a7,7,0,0,1-7-7V6A6,6,0,0,1,6,0Z" stroke="none"/><path d="M6,1H83a6,6,0,0,1,6,6V83a6,6,0,0,1-6,6H7a6,6,0,0,1-6-6V6A5,5,0,0,1,6,1Z" fill="none"/></g><g transform="translate(-6112 -7054)" fill="none" stroke="#f17781" stroke-width="2" stroke-dasharray="3" opacity="0.5"><path d="M6,0H83a7,7,0,0,1,7,7V83a7,7,0,0,1-7,7H7a7,7,0,0,1-7-7V6A6,6,0,0,1,6,0Z" stroke="none"/><path d="M6,1H83a6,6,0,0,1,6,6V83a6,6,0,0,1-6,6H7a6,6,0,0,1-6-6V6A5,5,0,0,1,6,1Z" fill="none"/></g><rect width="90" height="90" rx="6" transform="translate(-5803 -7054)" fill="#f17781"/><g transform="translate(-5897.567 -7051.977)"><g transform="translate(33.301 55.324)"><path d="M2320.187,661.037h-43.264a1.524,1.524,0,0,1,0-3.048h43.266a1.524,1.524,0,0,1,0,3.048Z" transform="translate(-2275.397 -657.989)" fill="#e8e8e8"/></g><g transform="translate(51.305 10.888)"><path d="M2313.9,649.021h-30.518a1.524,1.524,0,0,1,0-3.048H2313.9a1.524,1.524,0,0,1,0,3.048Z" transform="translate(-2281.86 -645.973)" fill="#e8e8e8"/></g><g transform="translate(64.733 44.796)"><path d="M2304.854,655.459h-11.292a1.522,1.522,0,0,1,0-3.044h11.3a1.522,1.522,0,1,1,0,3.044Z" transform="translate(-2292.04 -652.415)" fill="#e8e8e8"/></g><g transform="translate(0 44.796)"><path d="M2324.888,655.46h-57.469a1.577,1.577,0,1,1,0-3.045h57.472a1.578,1.578,0,1,1,0,3.045Z" transform="translate(-2265.428 -652.415)" fill="#e8e8e8"/></g><g transform="translate(31.573)"><path d="M2323.185,643.252h-50.251a1.522,1.522,0,0,1,0-3.044h50.252a1.522,1.522,0,1,1,0,3.044Z" transform="translate(-2271.412 -640.208)" fill="#e8e8e8"/></g></g><path d="M32.418,19.656c-2-1.371-4.021-2.707-6.047-4.033-4.241-2.775-8.509-5.51-12.735-8.3-3.422-2.264-6.8-4.586-10.117-7A1.975,1.975,0,0,0,2.37,0a2.558,2.558,0,0,0-.654.083A2.346,2.346,0,0,0,.083,2.963a2.519,2.519,0,0,0,1.074,1.4C9.358,10.346,18,15.67,26.463,21.279q3.5,2.324,6.931,4.782c-.679.261-1.361.514-2.035.787-1.995.8-3.965,1.677-5.943,2.515-.674.281-1.35.557-2.031.823a2.521,2.521,0,0,0-1.4,1.075,2.347,2.347,0,0,0,.841,3.2,2.25,2.25,0,0,0,1.8.233c2.371-.925,4.7-1.964,7.037-2.956,1.554-.64,3.121-1.233,4.69-1.833.951-.365,1.907-.72,2.84-1.13A2.767,2.767,0,0,0,40.869,26.3a8.408,8.408,0,0,0-.16-1.343c-.266-2.048-.564-4.073-.98-6.1-.4-1.982-.891-3.956-1.182-5.957-.006-.039-.01-.077-.016-.114L38.5,12.6l.015.116a2.27,2.27,0,0,0-.64-1.34,2.335,2.335,0,0,0-3.31,0,2.228,2.228,0,0,0-.686,1.652c.238,1.979.676,3.92,1.086,5.869q.312,1.475.582,2.958c-.064-.046-.128-.094-.193-.14Q33.9,20.675,32.418,19.656Z" transform="matrix(0.819, -0.574, 0.574, 0.819, -5983.825, -7005.444)" fill="#e8e8e8"/></g></svg>