<svg xmlns="http://www.w3.org/2000/svg" width="143.607" height="143.607" viewBox="0 0 143.607 143.607"><g transform="translate(-605.306 -9316.42)"><circle cx="62.586" cy="62.586" r="62.586" transform="translate(605.306 9439.977) rotate(-80.783)" fill="#fff"/><path d="M308.6,597.618a66.191,66.191,0,1,1,66.194-66.191A66.267,66.267,0,0,1,308.6,597.618Zm0-125.172a58.981,58.981,0,1,0,58.984,58.981A59.049,59.049,0,0,0,308.6,472.445Z" transform="translate(368.508 8856.798)" fill="#bb83ff"/><g transform="translate(-1724.866 9012.505)"><g transform="translate(2358.298 347.777)"><g transform="translate(5.231 0)"><g transform="translate(5.18)"><path d="M2447.254,549.03a.412.412,0,0,0,.025.071.4.4,0,0,0,.02.057c.006.009.016.013.022.022s.011.026.02.037a.416.416,0,0,0,.081.061.387.387,0,0,0,.049.037.415.415,0,0,0,.191.05H2486.1a.416.416,0,0,0,.182-.045.392.392,0,0,0,.047-.032.411.411,0,0,0,.073-.05.35.35,0,0,0,.028-.043c.007-.009.018-.013.025-.023a.374.374,0,0,0,.015-.038.431.431,0,0,0,.045-.159c0-.014.008-.026.007-.041l-.462-22.6c0-.008,0-.015-.005-.023a.405.405,0,0,0-.018-.082.422.422,0,0,0-.028-.079c0-.008,0-.016-.009-.024a.373.373,0,0,0-.035-.038.437.437,0,0,0-.059-.065.4.4,0,0,0-.067-.044.4.4,0,0,0-.07-.033.425.425,0,0,0-.088-.017.4.4,0,0,0-.045-.009h-34.488a.4.4,0,0,0-.048.009.39.39,0,0,0-.066.012.408.408,0,0,0-.085.036.371.371,0,0,0-.053.031.419.419,0,0,0-.073.075c-.009.011-.022.018-.03.03s0,.008,0,.011a.418.418,0,0,0-.043.11.338.338,0,0,0-.013.039.038.038,0,0,0,0,0l-3.489,22.6a.444.444,0,0,0,0,.048A.411.411,0,0,0,2447.254,549.03Zm37.976-21.955.431,21.079-17.18-11.111Zm-17.542,9.456-15.1-9.768H2484.1Zm16.98,11.988H2449.2l18.47-10.993Zm-33.2-21.47,15.408,9.964-18.66,11.106Z" transform="translate(-2447.244 -525.917)" fill="#47286d" stroke="#47286d" stroke-width="1"/></g><g transform="translate(47.097)"><path d="M2834.01,564.1a.423.423,0,0,0,.418-.487l-5.764-37.341a.422.422,0,0,0-.418-.359h-22.462a.423.423,0,0,0-.423.44l1.512,37.341a.424.424,0,0,0,.423.406Zm-27.785-37.341h21.66l5.633,36.5H2807.7Z" transform="translate(-2805.362 -525.917)" fill="#47286d" stroke="#47286d" stroke-width="1"/></g><g transform="translate(51.407 5.075)"><path d="M2842.8,573.391h15.073a.423.423,0,0,0,.419-.479l-.439-3.273a.423.423,0,0,0-.419-.367H2842.6a.422.422,0,0,0-.422.448l.2,3.273A.423.423,0,0,0,2842.8,573.391Zm14.264-3.273.325,2.427H2843.2l-.148-2.427Z" transform="translate(-2842.177 -569.272)" fill="#47286d" stroke="#47286d" stroke-width="1"/></g><g transform="translate(50.536 12.778)"><path d="M2835.162,635.933h18.076a.423.423,0,0,0,0-.846h-18.076a.423.423,0,0,0,0,.846Z" transform="translate(-2834.739 -635.087)" fill="#47286d" stroke="#47286d" stroke-width="1"/></g><g transform="translate(50.676 15.364)"><path d="M2836.362,657.181a.423.423,0,0,0,0,.846h18.3a.423.423,0,0,0,0-.846Z" transform="translate(-2835.939 -657.181)" fill="#47286d" stroke="#47286d" stroke-width="1"/></g><g transform="translate(50.82 18.015)"><path d="M2837.59,679.825a.423.423,0,0,0,0,.846h18.527a.423.423,0,0,0,0-.846Z" transform="translate(-2837.167 -679.825)" fill="#47286d" stroke="#47286d" stroke-width="1"/></g><g transform="translate(50.968 20.732)"><path d="M2838.853,703.041a.423.423,0,0,0,0,.846h18.76a.423.423,0,1,0,0-.846Z" transform="translate(-2838.43 -703.041)" fill="#47286d" stroke="#47286d" stroke-width="1"/></g><g transform="translate(51.12 23.519)"><path d="M2840.151,726.849a.423.423,0,0,0,0,.846h19a.423.423,0,0,0,0-.846Z" transform="translate(-2839.728 -726.849)" fill="#47286d" stroke="#47286d" stroke-width="1"/></g><g transform="translate(0 28.797)"><path d="M2447.567,772.326a.42.42,0,0,0-.018-.08.432.432,0,0,0-.03-.079c0-.009-.005-.019-.011-.028a24.968,24.968,0,0,1-.09-.1.422.422,0,0,0-.069-.045.367.367,0,0,0-.153-.048.386.386,0,0,0-.047-.009h-39.522a.422.422,0,0,0-.418.358l-4.224,27.367a.444.444,0,0,0,0,.051.429.429,0,0,0,.007.106.377.377,0,0,0,.027.071.389.389,0,0,0,.023.062c.006.008.015.011.021.019s.009.022.017.031a.415.415,0,0,0,.084.063.4.4,0,0,0,.049.037.419.419,0,0,0,.188.048h44.306a.424.424,0,0,0,.423-.431l-.56-27.367C2447.573,772.344,2447.568,772.336,2447.567,772.326Zm-39.576.46h37.686l-41.714,26.1Zm-3.113,26.521,41.865-26.19.536,26.19Z" transform="translate(-2402.986 -771.94)" fill="#47286d" stroke="#47286d" stroke-width="1"/></g><g transform="translate(48.827 42.728)"><path d="M2830.8,890.961H2820.56a.424.424,0,0,0-.423.44l.544,13.436a.424.424,0,0,0,.423.406h10.814a.422.422,0,0,0,.421-.458l-1.116-13.436A.423.423,0,0,0,2830.8,890.961Zm-9.291,13.436-.51-12.59h9.413l1.046,12.59Z" transform="translate(-2820.137 -890.961)" fill="#47286d" stroke="#47286d" stroke-width="1"/></g><g transform="translate(63.741 42.728)"><path d="M2960.808,891.32a.423.423,0,0,0-.418-.359h-12.415a.423.423,0,0,0-.42.466l1.379,13.436a.422.422,0,0,0,.42.38h13.11a.423.423,0,0,0,.418-.487ZM2949.736,904.4l-1.292-12.59h11.584l1.943,12.59Z" transform="translate(-2947.553 -890.961)" fill="#47286d" stroke="#47286d" stroke-width="1"/></g></g><g transform="translate(0.154 31.279)"><path d="M2360.113,817.641a.5.5,0,0,1-.491-.593l4.419-23.491a.5.5,0,0,1,.982.185l-4.418,23.491A.5.5,0,0,1,2360.113,817.641Z" transform="translate(-2359.613 -793.151)" fill="#fe6161"/></g><g transform="translate(7.723 61.5)"><path d="M2466.936,1052.344h-42.156a.5.5,0,0,1,0-1h42.156a.5.5,0,1,1,0,1Z" transform="translate(-2424.281 -1051.344)" fill="#fe6161"/></g><g transform="translate(19.763 59.029)"><path d="M2527.5,1031.681l-.357,4.3a.175.175,0,0,0,.175.19h3.149a1.581,1.581,0,0,0,1.58-1.517l.172-4.241a.176.176,0,0,0-.176-.183h-2.968A1.581,1.581,0,0,0,2527.5,1031.681Z" transform="translate(-2527.143 -1030.231)" fill="#febe76"/><g transform="translate(1.983 1.492)"><path d="M2544.956,1042.977h-.425a.24.24,0,0,0-.239.22l-.206,2.477a.24.24,0,0,0,.239.26h.425a.24.24,0,0,0,.239-.22l.206-2.477A.24.24,0,0,0,2544.956,1042.977Z" transform="translate(-2544.085 -1042.977)" fill="#fe866b"/></g></g><g transform="translate(0 40.603)"><path d="M2359.157,874.257l-.855,4.3a.163.163,0,0,0,.03.134.157.157,0,0,0,.123.057h3.149a1.825,1.825,0,0,0,1.755-1.517l.663-4.241a.161.161,0,0,0-.034-.129.156.156,0,0,0-.121-.054H2360.9A1.826,1.826,0,0,0,2359.157,874.257Z" transform="translate(-2358.298 -872.807)" fill="#febe76"/><g transform="translate(2.163 1.492)"><path d="M2377.962,885.553h-.425a.278.278,0,0,0-.265.22l-.492,2.477a.21.21,0,0,0,.209.26h.425a.278.278,0,0,0,.265-.22l.492-2.477A.211.211,0,0,0,2377.962,885.553Z" transform="translate(-2376.775 -885.553)" fill="#fe866b"/></g></g></g><g transform="translate(2376.531 324.162)"><g transform="translate(0)"><path d="M2539.5,336.877a12.715,12.715,0,1,0-22.65,7.925h-.009l8.068,10.24a2.371,2.371,0,0,0,3.75,0l8.068-10.24h-.009A12.651,12.651,0,0,0,2539.5,336.877Zm-12.716-6a6,6,0,1,1-6,6A6,6,0,0,1,2526.783,330.879Z" transform="translate(-2514.068 -324.162)" fill="#31d9e7"/></g><g transform="translate(5.186 5.186)" style="mix-blend-mode:multiply;isolation:isolate"><path d="M2565.9,368.47a7.529,7.529,0,1,0,7.529,7.529A7.529,7.529,0,0,0,2565.9,368.47Zm0,13.528a6,6,0,1,1,6-6A6,6,0,0,1,2565.9,382Z" transform="translate(-2558.375 -368.47)" fill="#c7c7c7"/></g></g><g transform="translate(2422.221 366.215)"><g transform="translate(0 0)"><path d="M2929.854,696.153a12.715,12.715,0,1,0-22.649,7.925h-.01l8.068,10.24a2.371,2.371,0,0,0,3.75,0l8.068-10.24h-.009A12.652,12.652,0,0,0,2929.854,696.153Zm-12.715-6a6,6,0,1,1-6,6A6,6,0,0,1,2917.138,690.155Z" transform="translate(-2904.423 -683.438)" fill="#f17781"/></g><g transform="translate(5.186 5.186)" style="mix-blend-mode:multiply;isolation:isolate"><path d="M2956.26,727.746a7.529,7.529,0,1,0,7.529,7.529A7.529,7.529,0,0,0,2956.26,727.746Zm0,13.528a6,6,0,1,1,6-6A6,6,0,0,1,2956.26,741.274Z" transform="translate(-2948.731 -727.746)" fill="#c7c7c7"/></g></g></g></g></svg>