<svg xmlns="http://www.w3.org/2000/svg" width="203.003" height="150.033" viewBox="0 0 203.003 150.033"><g transform="translate(-359.407 -2681.723)"><g transform="translate(359.407 2681.723)"><path d="M751.341,461.579c-15.77,1.116-2.715,35.832,18.459,40.175S789.706,458.865,751.341,461.579Z" transform="translate(-605.077 -422.899)" fill="#bb83ff" opacity="0.3"/><g transform="translate(154.554 43.127)"><path d="M827.426,504.98c-.091,0-.182,0-.272,0a.119.119,0,0,1-.116-.122.122.122,0,0,1,.122-.116,10.887,10.887,0,0,0,1.408-.057.119.119,0,0,1,.025.236A11.192,11.192,0,0,1,827.426,504.98Zm-1.687-.13h-.018a10.994,10.994,0,0,1-1.4-.315.119.119,0,1,1,.067-.228,10.7,10.7,0,0,0,1.374.308.119.119,0,0,1-.018.236Zm4.244-.172a.119.119,0,0,1-.028-.234,10.719,10.719,0,0,0,1.344-.419.119.119,0,1,1,.086.222,10.982,10.982,0,0,1-1.373.428A.116.116,0,0,1,829.982,504.678Zm-6.97-.631a.117.117,0,0,1-.048-.01,10.983,10.983,0,0,1-1.274-.67.119.119,0,1,1,.124-.2,10.8,10.8,0,0,0,1.247.656.119.119,0,0,1-.048.227Zm9.62-.392a.119.119,0,0,1-.057-.223,10.833,10.833,0,0,0,1.189-.755.119.119,0,1,1,.14.192,11.025,11.025,0,0,1-1.215.771A.118.118,0,0,1,832.632,503.655Zm-12.044-1.093a.118.118,0,0,1-.075-.026,11.063,11.063,0,0,1-1.057-.977.119.119,0,0,1,.172-.164,10.823,10.823,0,0,0,1.035.956.119.119,0,0,1-.075.211Zm14.338-.583a.119.119,0,0,1-.082-.2,10.871,10.871,0,0,0,.954-1.036.119.119,0,1,1,.185.149,11.128,11.128,0,0,1-.975,1.059A.117.117,0,0,1,834.927,501.979Zm-16.3-1.476a.119.119,0,0,1-.1-.049,11.023,11.023,0,0,1-.77-1.216.119.119,0,1,1,.209-.114,10.784,10.784,0,0,0,.753,1.189.119.119,0,0,1-.1.189Zm18.08-.735a.119.119,0,0,1-.1-.181,10.767,10.767,0,0,0,.654-1.247.119.119,0,1,1,.217.1,11,11,0,0,1-.669,1.275A.118.118,0,0,1,836.712,499.767Zm-19.439-1.758a.119.119,0,0,1-.111-.076,10.914,10.914,0,0,1-.427-1.375.119.119,0,1,1,.231-.055,10.716,10.716,0,0,0,.418,1.345.119.119,0,0,1-.068.154A.121.121,0,0,1,817.273,498.009Zm-.662-2.763a.119.119,0,0,1-.118-.106,11.183,11.183,0,0,1-.06-1.153c0-.1,0-.191,0-.285a.117.117,0,0,1,.122-.116.119.119,0,0,1,.116.122q0,.139,0,.279a11.037,11.037,0,0,0,.058,1.128.118.118,0,0,1-.106.13Zm.074-2.84h-.019a.119.119,0,0,1-.1-.136,11,11,0,0,1,.316-1.4.119.119,0,0,1,.228.067,10.733,10.733,0,0,0-.309,1.374A.119.119,0,0,1,816.684,492.405Zm.806-2.725a.119.119,0,0,1-.109-.167,11.017,11.017,0,0,1,.672-1.274.119.119,0,0,1,.2.124,10.782,10.782,0,0,0-.657,1.246A.119.119,0,0,1,817.49,489.68Zm19.5-.745a.119.119,0,0,1-.1-.062,10.775,10.775,0,0,0-.75-1.192.119.119,0,0,1,.192-.14,11.074,11.074,0,0,1,.767,1.218.119.119,0,0,1-.1.175Zm-18.017-1.677a.119.119,0,0,1-.092-.194,11.09,11.09,0,0,1,.978-1.056.119.119,0,1,1,.163.172,10.9,10.9,0,0,0-.956,1.034A.119.119,0,0,1,818.978,487.258Zm16.349-.625a.12.12,0,0,1-.087-.037,10.821,10.821,0,0,0-1.032-.958.119.119,0,0,1,.15-.184,11.093,11.093,0,0,1,1.055.979.119.119,0,0,1-.086.2ZM821.04,485.3a.119.119,0,0,1-.07-.215,11.058,11.058,0,0,1,1.216-.768.119.119,0,1,1,.113.209,10.757,10.757,0,0,0-1.19.751A.12.12,0,0,1,821.04,485.3Zm12.082-.463a.118.118,0,0,1-.062-.018,10.791,10.791,0,0,0-1.245-.659.119.119,0,0,1,.1-.217,11,11,0,0,1,1.273.673.119.119,0,0,1-.063.22Zm-9.587-.893a.119.119,0,0,1-.042-.23,10.931,10.931,0,0,1,1.375-.426.119.119,0,0,1,.055.231,10.74,10.74,0,0,0-1.345.416A.119.119,0,0,1,823.535,483.948Zm6.993-.268a.116.116,0,0,1-.034-.005,10.752,10.752,0,0,0-1.373-.311.119.119,0,1,1,.037-.235,10.971,10.971,0,0,1,1.4.318.119.119,0,0,1-.034.233Zm-4.23-.391a.119.119,0,0,1-.012-.237,11.116,11.116,0,0,1,1.438-.054.119.119,0,1,1-.006.237,11,11,0,0,0-1.407.053Z" transform="translate(-816.433 -482.994)" fill="#568584"/></g><path d="M215.095,426.752c-57.459-6.941-100.075,57.367-47.594,114.733H295.987c42.889-20.811,20.449-57.548-4.705-62.615S269.023,433.267,215.095,426.752Z" transform="translate(-131.626 -395.13)" fill="#bb83ff" opacity="0.3"/><g transform="translate(2.546 34.556)"><g transform="translate(2.584 3.024)"><g transform="translate(0 6.033)"><path d="M111.023,486.109a.119.119,0,0,1-.1-.185c.133-.2.273-.395.415-.586a.119.119,0,1,1,.191.142c-.14.188-.277.382-.409.577A.119.119,0,0,1,111.023,486.109Z" transform="translate(-110.904 -485.29)" fill="#568584"/></g><g transform="translate(1.22 0.382)"><path d="M116.781,463.5a.119.119,0,0,1-.089-.2c.284-.322.585-.635.9-.932a.119.119,0,1,1,.164.172c-.305.293-.6.6-.881.918A.118.118,0,0,1,116.781,463.5Zm1.851-1.773a.119.119,0,0,1-.075-.211c.334-.27.683-.53,1.038-.77a.119.119,0,1,1,.133.2c-.349.237-.693.492-1.022.758A.117.117,0,0,1,118.632,461.728Zm2.12-1.439a.119.119,0,0,1-.058-.222c.374-.211.762-.408,1.152-.585a.119.119,0,0,1,.1.216c-.384.175-.766.369-1.134.577A.119.119,0,0,1,120.752,460.289Zm2.332-1.063a.119.119,0,0,1-.04-.231c.4-.144.82-.273,1.235-.383a.119.119,0,1,1,.061.23c-.408.108-.817.234-1.215.377A.121.121,0,0,1,123.084,459.226Z" transform="translate(-116.663 -458.608)" fill="#568584"/></g><g transform="translate(10.002)"><path d="M158.248,457.15a.119.119,0,0,1-.02-.236c.234-.041.473-.077.71-.108a.119.119,0,1,1,.03.236c-.233.03-.468.065-.7.106Z" transform="translate(-158.13 -456.806)" fill="#568584"/></g></g><g transform="translate(0 3.299)"><g transform="translate(18.706)"><path d="M187.834,458.516a.115.115,0,0,1-.032,0c-.226-.064-.457-.123-.684-.176a.119.119,0,0,1,.054-.232c.231.054.466.114.7.179a.119.119,0,0,1-.032.233Z" transform="translate(-187.025 -458.1)" fill="#568584"/></g><g transform="translate(0.023 0.639)"><path d="M114.352,490.8a.119.119,0,0,1,0-.238c.478-.006.961-.036,1.434-.087a.119.119,0,1,1,.025.236c-.481.052-.971.082-1.456.088Zm-1.447-.048h-.01c-.484-.039-.971-.1-1.448-.186a.119.119,0,1,1,.041-.234c.469.083.948.144,1.425.183a.119.119,0,0,1-.009.237Zm4.323-.263a.119.119,0,0,1-.024-.235c.468-.1.936-.216,1.392-.356a.119.119,0,1,1,.07.227c-.463.143-.939.264-1.414.362Zm-7.172-.241a.119.119,0,0,1-.032,0c-.467-.13-.934-.283-1.386-.457a.119.119,0,0,1,.085-.222c.446.171.9.322,1.365.45a.119.119,0,0,1-.032.233Zm9.937-.61a.119.119,0,0,1-.046-.228c.44-.183.877-.39,1.3-.615a.119.119,0,0,1,.112.21c-.428.228-.872.438-1.319.624A.118.118,0,0,1,119.994,489.64Zm-12.639-.426a.118.118,0,0,1-.053-.012c-.434-.216-.862-.456-1.274-.712a.119.119,0,1,1,.126-.2c.405.253.827.489,1.254.7a.119.119,0,0,1-.053.225Zm15.192-.935a.119.119,0,0,1-.066-.218c.4-.264.788-.549,1.159-.85a.119.119,0,1,1,.149.185c-.377.3-.773.6-1.178.863A.116.116,0,0,1,122.547,488.279Zm-17.648-.6a.119.119,0,0,1-.072-.024c-.385-.294-.761-.61-1.117-.94a.119.119,0,0,1,.161-.174c.351.325.721.636,1.1.925a.119.119,0,0,1-.072.213Zm19.9-1.223a.119.119,0,0,1-.083-.2c.341-.334.671-.688.979-1.052a.119.119,0,0,1,.182.153c-.313.37-.648.73-.994,1.069A.118.118,0,0,1,124.8,486.46Zm-22.022-.742a.119.119,0,0,1-.089-.04c-.323-.362-.633-.743-.92-1.133a.119.119,0,0,1,.191-.141c.283.384.588.759.906,1.115a.119.119,0,0,1-.088.2Zm23.891-1.467a.119.119,0,0,1-.1-.187c.273-.392.529-.8.763-1.218a.119.119,0,0,1,.207.116c-.238.423-.5.839-.775,1.237A.119.119,0,0,1,126.666,484.251Zm-25.607-.863a.119.119,0,0,1-.1-.058c-.249-.416-.482-.849-.69-1.286a.119.119,0,1,1,.214-.1c.205.431.434.857.679,1.266a.119.119,0,0,1-.1.18Zm27.025-1.659a.117.117,0,0,1-.048-.01.119.119,0,0,1-.061-.156c.194-.437.368-.888.519-1.34a.119.119,0,0,1,.225.075c-.153.46-.33.918-.527,1.362A.119.119,0,0,1,128.085,481.729Zm-28.27-.952a.119.119,0,0,1-.112-.078c-.166-.456-.312-.924-.433-1.394a.119.119,0,1,1,.23-.059c.119.462.263.924.426,1.372a.119.119,0,0,1-.112.159ZM129,478.984a.117.117,0,0,1-.027,0,.119.119,0,0,1-.089-.142c.107-.464.192-.94.254-1.414a.119.119,0,1,1,.236.031c-.063.481-.15.964-.258,1.436A.119.119,0,0,1,129,478.984Zm-29.91-1.008a.119.119,0,0,1-.117-.1c-.076-.478-.13-.966-.161-1.451a.119.119,0,1,1,.237-.015c.03.477.083.957.158,1.428a.119.119,0,0,1-.1.136Zm30.285-1.861h0a.119.119,0,0,1-.115-.123c.007-.182.01-.367.01-.549,0-.3-.009-.594-.026-.888a.119.119,0,1,1,.237-.014c.017.3.026.6.026.9,0,.185,0,.373-.01.558A.119.119,0,0,1,129.374,476.115Zm-.168-2.889a.118.118,0,0,1-.117-.1c-.073-.472-.169-.946-.286-1.408a.119.119,0,0,1,.23-.058c.119.47.217.951.29,1.43a.119.119,0,0,1-.1.135Zm-.71-2.8a.119.119,0,0,1-.112-.079c-.161-.449-.345-.9-.548-1.328a.119.119,0,1,1,.215-.1c.206.439.394.892.557,1.348a.119.119,0,0,1-.072.152A.121.121,0,0,1,128.5,470.422Zm-1.23-2.617a.119.119,0,0,1-.1-.058c-.243-.41-.509-.814-.79-1.2a.119.119,0,0,1,.192-.14c.286.392.556.8.8,1.219a.119.119,0,0,1-.1.179Zm-1.7-2.338a.119.119,0,0,1-.089-.04c-.316-.357-.653-.7-1-1.03a.119.119,0,0,1,.162-.173c.354.331.7.683,1.018,1.046a.119.119,0,0,1-.089.2Zm-2.113-1.977a.118.118,0,0,1-.072-.025c-.378-.292-.775-.569-1.178-.823a.119.119,0,1,1,.127-.2c.41.259.813.54,1.2.836a.119.119,0,0,1-.073.213ZM121,461.945a.118.118,0,0,1-.053-.013c-.426-.215-.868-.412-1.313-.586a.119.119,0,1,1,.086-.221c.452.176.9.376,1.334.595a.119.119,0,0,1-.054.225Z" transform="translate(-98.811 -461.117)" fill="#568584"/></g><g transform="translate(0 13.639)"><path d="M98.822,523.447h0a.119.119,0,0,1-.115-.122c.008-.238.021-.479.039-.717a.119.119,0,0,1,.237.019c-.018.234-.031.471-.039.706A.119.119,0,0,1,98.822,523.447Z" transform="translate(-98.703 -522.498)" fill="#568584"/></g></g><g transform="translate(2.584 3.024)"><g transform="translate(0 6.033)"><path d="M111.023,486.109a.119.119,0,0,1-.1-.185c.133-.2.273-.395.415-.586a.119.119,0,1,1,.191.142c-.14.188-.277.382-.409.577A.119.119,0,0,1,111.023,486.109Z" transform="translate(-110.904 -485.29)" fill="#568584"/></g><g transform="translate(1.22 0.382)"><path d="M116.781,463.5a.119.119,0,0,1-.089-.2c.284-.322.585-.635.9-.932a.119.119,0,1,1,.164.172c-.305.293-.6.6-.881.918A.118.118,0,0,1,116.781,463.5Zm1.851-1.773a.119.119,0,0,1-.075-.211c.334-.27.683-.53,1.038-.77a.119.119,0,1,1,.133.2c-.349.237-.693.492-1.022.758A.117.117,0,0,1,118.632,461.728Zm2.12-1.439a.119.119,0,0,1-.058-.222c.374-.211.762-.408,1.152-.585a.119.119,0,0,1,.1.216c-.384.175-.766.369-1.134.577A.119.119,0,0,1,120.752,460.289Zm2.332-1.063a.119.119,0,0,1-.04-.231c.4-.144.82-.273,1.235-.383a.119.119,0,1,1,.061.23c-.408.108-.817.234-1.215.377A.121.121,0,0,1,123.084,459.226Z" transform="translate(-116.663 -458.608)" fill="#568584"/></g><g transform="translate(10.002)"><path d="M158.248,457.15a.119.119,0,0,1-.02-.236c.234-.041.473-.077.71-.108a.119.119,0,1,1,.03.236c-.233.03-.468.065-.7.106Z" transform="translate(-158.13 -456.806)" fill="#568584"/></g></g><g transform="translate(12.676)"><path d="M163.487,448.326l-1.885-1.369-1.885,1.369.72-2.216-1.885-1.369h2.33l.72-2.216.72,2.216h2.33l-1.885,1.369Zm-1.885-1.663,1.433,1.041-.547-1.684,1.433-1.041H162.15l-.547-1.685-.547,1.685h-1.771l1.433,1.041-.547,1.684Z" transform="translate(-158.553 -442.525)" fill="#568584"/></g></g><g transform="translate(159.055 88.297)"><path d="M837.688,718.251c7.806-30.893,32.607-30.655,21.161,9.885,14.785-11.923,36.485,8.346,8.346,22.416-1.3.649-27.185,1.908-27.424,1.192S837.688,718.251,837.688,718.251Z" transform="translate(-837.688 -696.271)" fill="#bb83ff"/><g transform="translate(3.468 3.44)"><path d="M854.823,762.448a.762.762,0,0,1-.736-.958l12.877-48.409a.762.762,0,0,1,1.472.392L855.99,760.262l30.451-15a.762.762,0,1,1,.673,1.367l-31.954,15.739A.761.761,0,0,1,854.823,762.448Z" transform="translate(-854.061 -712.515)" fill="#47286d"/><path d="M871.4,778.357a.762.762,0,0,1-.732-.552l-3.815-13.275a.762.762,0,1,1,1.464-.421l3.816,13.275a.762.762,0,0,1-.522.943A.754.754,0,0,1,871.4,778.357Z" transform="translate(-864.119 -752.748)" fill="#47286d"/><path d="M964.293,898.584a.762.762,0,0,1-.825.4l-13.551-2.675a.762.762,0,1,1,.295-1.495l13.551,2.675a.762.762,0,0,1,.53,1.1Z" transform="translate(-929.131 -856.193)" fill="#47286d"/><path d="M974.574,855.528a.762.762,0,0,1-.2-.9l3.251-7.114a.762.762,0,0,1,1.386.633l-3.251,7.114a.762.762,0,0,1-1.189.262Z" transform="translate(-948.841 -818.575)" fill="#47286d"/><path d="M872.1,876.39a.762.762,0,0,1,.559-.726l7.538-2.088a.762.762,0,0,1,.406,1.468l-7.538,2.088a.762.762,0,0,1-.937-.531A.77.77,0,0,1,872.1,876.39Z" transform="translate(-868.278 -839.443)" fill="#47286d"/></g></g><g transform="translate(14.815 0)"><path d="M237.478,293.841c0,8-7.148,14.478-7.148,14.478s-7.148-6.482-7.148-14.478,3.2-14.477,7.148-14.477S237.478,285.846,237.478,293.841Z" transform="translate(-209.087 -279.364)" fill="#bb83ff"/><path d="M254.352,376.085a.694.694,0,0,1-.694-.694V298.571a.694.694,0,1,1,1.387,0v76.821A.694.694,0,0,1,254.352,376.085Z" transform="translate(-233.109 -293.956)" fill="#47286d"/><g transform="translate(21.006 23.964)"><path d="M291.945,406.021c-5.2,4.163-13.139,2.888-13.139,2.888s.495-8.025,5.7-12.188,11.084-5.456,13.139-2.888S297.146,401.858,291.945,406.021Z" transform="translate(-273.937 -392.514)" fill="#bb83ff"/><path d="M255.944,428.591a.578.578,0,0,1,.09-.812l18.452-14.77a.578.578,0,1,1,.722.9l-18.452,14.77A.578.578,0,0,1,255.944,428.591Z" transform="translate(-255.818 -408.568)" fill="#47286d"/></g><g transform="translate(0 44.884)"><path d="M163.039,504.8c5.2,4.163,13.139,2.888,13.139,2.888s-.495-8.025-5.7-12.188-11.084-5.456-13.139-2.888S157.838,500.636,163.039,504.8Z" transform="translate(-156.632 -491.292)" fill="#bb83ff"/><path d="M196.065,525.721a.578.578,0,0,0-.09-.812l-15.706-13.123a.578.578,0,1,0-.722.9l15.706,13.123A.578.578,0,0,0,196.065,525.721Z" transform="translate(-174.522 -507.346)" fill="#47286d"/></g><path d="M275.064,528.93a.578.578,0,0,0-.812-.1l-18.43,13.912a.578.578,0,1,0,.716.908l18.43-13.912A.578.578,0,0,0,275.064,528.93Z" transform="translate(-234.641 -475.901)" fill="#08697d"/><path d="M278.451,533.582c-2.525,12.936-11.533,15.43-18.43,13.912Z" transform="translate(-238.124 -479.741)" fill="#13849c"/></g><path d="M317.259,971.533h-187.9v-3.17a1.192,1.192,0,0,1,1.192-1.192h185.52a1.192,1.192,0,0,1,1.192,1.192Z" transform="translate(-120.317 -821.5)" fill="#bb83ff"/><g transform="translate(19.165 110.265)"><path d="M290.921,800H194.879A17.706,17.706,0,0,0,177.173,817.7h0a17.706,17.706,0,0,0,17.706,17.706h96.042Z" transform="translate(-177.173 -799.997)" fill="#47286d"/><path d="M471.481,800H375.438A17.706,17.706,0,0,0,357.732,817.7h0a17.706,17.706,0,0,0,17.706,17.706h96.042Z" transform="translate(-319.491 -799.997)" fill="#bb83ff"/><path d="M385.078,842.458a15.116,15.116,0,0,1,0-30.232H481.12v30.232Z" transform="translate(-329.131 -809.636)" fill="#ffe9bf"/><g transform="translate(107.356 8.843)" style="mix-blend-mode:multiply;isolation:isolate"><path d="M727.274,842.665H684.529a.457.457,0,1,1,0-.914h42.745a.457.457,0,0,1,0,.914Z" transform="translate(-684.072 -841.751)" fill="#bfbfbf"/></g><g transform="translate(75.998 8.783)" style="mix-blend-mode:multiply;isolation:isolate"><path d="M565.082,842.383H536.466a.457.457,0,0,1,0-.914h28.616a.457.457,0,0,1,0,.914Z" transform="translate(-536.009 -841.469)" fill="#bfbfbf"/></g><g transform="translate(125.182 17.666)" style="mix-blend-mode:multiply;isolation:isolate"><path d="M792.065,884.325h-23.37a.457.457,0,0,1,0-.914h23.37a.457.457,0,1,1,0,.914Z" transform="translate(-768.238 -883.411)" fill="#bfbfbf"/></g><g transform="translate(49.588 17.666)" style="mix-blend-mode:multiply;isolation:isolate"><path d="M476.271,884.325H411.766a.457.457,0,1,1,0-.914h64.505a.457.457,0,0,1,0,.914Z" transform="translate(-411.309 -883.411)" fill="#bfbfbf"/></g><g transform="translate(70.573 24.105)" style="mix-blend-mode:multiply;isolation:isolate"><path d="M527.425,914.726H510.851a.457.457,0,0,1,0-.914h16.574a.457.457,0,0,1,0,.914Z" transform="translate(-510.394 -913.812)" fill="#bfbfbf"/></g><g transform="translate(100.5 24.105)" style="mix-blend-mode:multiply;isolation:isolate"><path d="M674.574,914.726H652.158a.457.457,0,1,1,0-.914h22.416a.457.457,0,0,1,0,.914Z" transform="translate(-651.701 -913.812)" fill="#bfbfbf"/></g><g transform="translate(127.685 24.105)" style="mix-blend-mode:multiply;isolation:isolate"><path d="M801.741,914.726H780.517a.457.457,0,1,1,0-.914h21.224a.457.457,0,0,1,0,.914Z" transform="translate(-780.06 -913.812)" fill="#bfbfbf"/></g></g><g transform="translate(26.872 74.864)"><path d="M315.123,632.846H238.887c-17.4,0-25.324,7.927-25.324,17.706h0c0,9.779,7.927,17.706,25.324,17.706h76.237Z" transform="translate(-213.563 -632.846)" fill="#47286d"/><path d="M516.416,632.846H447.8a17.706,17.706,0,0,0-17.706,17.706h0A17.706,17.706,0,0,0,447.8,668.258h68.619Z" transform="translate(-384.233 -632.846)" fill="#bb83ff"/><path d="M457.436,675.308a15.116,15.116,0,1,1,0-30.232h68.619v30.232Z" transform="translate(-393.872 -642.486)" fill="#ffe9bf"/><g transform="translate(87.55 8.843)" style="mix-blend-mode:multiply;isolation:isolate"><path d="M670.148,675.515H627.4a.457.457,0,0,1,0-.914h42.745a.457.457,0,1,1,0,.914Z" transform="translate(-626.946 -674.601)" fill="#bfbfbf"/></g><g transform="translate(60.762 8.784)" style="mix-blend-mode:multiply;isolation:isolate"><path d="M524.965,675.233H500.92a.457.457,0,0,1,0-.914h24.045a.457.457,0,0,1,0,.914Z" transform="translate(-500.463 -674.319)" fill="#bfbfbf"/></g><g transform="translate(105.376 17.666)" style="mix-blend-mode:multiply;isolation:isolate"><path d="M734.938,717.175h-23.37a.457.457,0,0,1,0-.914h23.37a.457.457,0,0,1,0,.914Z" transform="translate(-711.111 -716.261)" fill="#bfbfbf"/></g><g transform="translate(57.205 17.666)" style="mix-blend-mode:multiply;isolation:isolate"><path d="M521.206,717.175H484.125a.457.457,0,0,1,0-.914h37.081a.457.457,0,1,1,0,.914Z" transform="translate(-483.668 -716.261)" fill="#bfbfbf"/></g><g transform="translate(80.694 24.105)" style="mix-blend-mode:multiply;isolation:isolate"><path d="M617.447,747.576H595.031a.457.457,0,1,1,0-.914h22.416a.457.457,0,1,1,0,.914Z" transform="translate(-594.574 -746.662)" fill="#bfbfbf"/></g><g transform="translate(107.88 24.105)" style="mix-blend-mode:multiply;isolation:isolate"><path d="M744.615,747.576H723.391a.457.457,0,0,1,0-.914h21.224a.457.457,0,1,1,0,.914Z" transform="translate(-722.934 -746.662)" fill="#bfbfbf"/></g></g><g transform="translate(42.018 39.42)"><path d="M357.732,465.493h76.237c17.4,0,25.324,7.927,25.324,17.706h0c0,9.779-7.927,17.706-25.324,17.706H357.732Z" transform="translate(-342.344 -465.493)" fill="#47286d"/><path d="M285.077,465.493H338.46A17.706,17.706,0,0,1,356.166,483.2h0a17.706,17.706,0,0,1-17.706,17.706H285.077Z" transform="translate(-285.077 -465.493)" fill="#bb83ff"/><path d="M338.46,507.954a15.116,15.116,0,0,0,0-30.232H285.077v30.232Z" transform="translate(-285.077 -475.132)" fill="#ffe9bf"/><g transform="translate(0.974 8.843)" style="mix-blend-mode:multiply;isolation:isolate"><path d="M290.131,508.161h27.51a.457.457,0,0,0,0-.914h-27.51a.457.457,0,1,0,0,.914Z" transform="translate(-289.674 -507.247)" fill="#bfbfbf"/></g><g transform="translate(31.226 8.784)" style="mix-blend-mode:multiply;isolation:isolate"><path d="M432.972,507.88h24.045a.457.457,0,0,0,0-.914H432.972a.457.457,0,1,0,0,.914Z" transform="translate(-432.515 -506.966)" fill="#bfbfbf"/></g><g transform="translate(2.524 17.666)" style="mix-blend-mode:multiply;isolation:isolate"><path d="M297.45,549.822h8.134a.457.457,0,1,0,0-.914H297.45a.457.457,0,1,0,0,.914Z" transform="translate(-296.993 -548.908)" fill="#bfbfbf"/></g><g transform="translate(21.747 17.666)" style="mix-blend-mode:multiply;isolation:isolate"><path d="M388.215,549.822H425.3a.457.457,0,1,0,0-.914H388.215a.457.457,0,1,0,0,.914Z" transform="translate(-387.758 -548.908)" fill="#bfbfbf"/></g><g transform="translate(12.923 24.105)" style="mix-blend-mode:multiply;isolation:isolate"><path d="M346.554,580.223H368.97a.457.457,0,0,0,0-.914H346.554a.457.457,0,1,0,0,.914Z" transform="translate(-346.097 -579.309)" fill="#bfbfbf"/></g><g transform="translate(2.166 24.105)" style="mix-blend-mode:multiply;isolation:isolate"><path d="M295.761,580.223h5.988a.457.457,0,1,0,0-.914h-5.988a.457.457,0,1,0,0,.914Z" transform="translate(-295.304 -579.309)" fill="#bfbfbf"/></g></g><g transform="translate(14.553 88.087)"><path d="M205.967,905.253h-.882l3.667-16.641h2.1Z" transform="translate(-194.562 -847.667)" fill="#572807"/><path d="M156.281,866.128H155.4l6.321-27.057h2.1Z" transform="translate(-155.399 -808.617)" fill="#572807"/><path d="M251.525,905.253h.882l-3.667-16.641h-2.1Z" transform="translate(-227.313 -847.667)" fill="#572807"/><path d="M211.387,787.746h10.33l-1.817-7.982-10.713-19.417-3.109.478-3.233.066.913,2.469,2.893,20.111Z" transform="translate(-192.797 -746.567)" fill="#ebb781"/><path d="M299.743,856.108l2.165,3.491c0,.956-.526,5.117.67,8.13s2.822,7.652,2.726,8.37-.239,2.535-.239,2.535h8.465c-.1,0-5.069-2.391-5.452-3.2s.191-15.639.239-16.93-1.974-3.467-1.974-3.467S299.743,854.338,299.743,856.108Z" transform="translate(-269.172 -821.093)" fill="#f57954"/><path d="M325.049,953.667c-.086.833-.178,2-.178,2h8.465c-.09,0-4.479-2.108-5.332-3.038a3.124,3.124,0,0,0-.407,1.173C327.039,954.32,325.642,953.886,325.049,953.667Z" transform="translate(-288.979 -898.123)" fill="#2b1710"/><path d="M282.242,862.521l.861.335c0,.956-.526,5.117.67,8.13s2.822,7.652,2.726,8.37-.239,2.535-.239,2.535h8.465c-.1,0-5.07-2.391-5.452-3.2s.191-15.639.239-16.93-1.626-2.726-1.626-2.726S282.242,860.752,282.242,862.521Z" transform="translate(-255.378 -824.35)" fill="#ff8762"/><path d="M204.926,789.723h-.033l-3.586-.06A4.418,4.418,0,0,1,197,785.752L194.66,765.03a1.956,1.956,0,1,1,3.886-.439l2.341,20.722a.5.5,0,0,0,.484.439l3.586.06a1.956,1.956,0,0,1-.032,3.911Z" transform="translate(-186.335 -748.544)" fill="#ffdc9c"/><g transform="translate(29.434 22.245)"><path d="M324.84,809.719c-.5-.23-1.166.156-1.494.863a1.258,1.258,0,0,0,.307,1.7c.5.23,1.166-.156,1.493-.863A1.258,1.258,0,0,0,324.84,809.719Zm-1.032,2.228c-.269-.124-.387-.652-.129-1.211s.738-.809,1.007-.684.388.652.129,1.21S324.077,812.071,323.808,811.947Z" transform="translate(-317.071 -807.675)" fill="#ffdc9c"/><path d="M300.772,800.317h-6.166c-.669,3.42.215,5.835,1.507,6.839h3.153C300.557,806.152,301.442,803.737,300.772,800.317Z" transform="translate(-294.377 -800.317)" fill="#ffdc9c"/></g><path d="M223.3,710.5a20.293,20.293,0,0,0,2.3-5.643c.574-2.511.813-7.365,5.357-5.859,1.7.885,2.3,1.315,2.343,4.567s.383,8.011.717,8.513-7.461.144-7.461.144Z" transform="translate(-208.921 -697.985)" fill="#2b1710"/><path d="M205.385,746.4a12.658,12.658,0,0,0-5.847,7.4c-.813,2.463-2.654,7.556-1.124,9.23a5.4,5.4,0,0,0,3.4,1.769c-.789,2.368-2.678,7.437.574,8.083s13.32.861,13.32.861c.167-.717,8.656-4.807,10.546-4.137a78.411,78.411,0,0,0-7.652-4.472l-.957-8.633.263-2.463s-4.041-6.241-6.158-6.887A32.669,32.669,0,0,0,205.385,746.4Z" transform="translate(-188.84 -735.575)" fill="#f27522"/><path d="M238.758,702.311a7.2,7.2,0,0,1-2.81,2.3c-.179.215-.119,1.232-.119,1.136-.753-.932-1.447-.466-1.315.311s.753,1.267,1.231,1.16c.227,2.057.144,2.7-.6,3.276s-1.626,1.16-1.626,1.16c1.112,1.865,6.528,2.511,6.361.753-1.4-.945-1.578-1.782-1.519-2.284.8.1,1.829-1,2.021-2.248a15.3,15.3,0,0,0,.287-2.152,2.729,2.729,0,0,0-.442-1.829A14.284,14.284,0,0,0,238.758,702.311Z" transform="translate(-216.975 -700.822)" fill="#ff8762"/><path d="M254.541,728.723c1.2-.446,1.658-.255,1.738.032C256.151,729.521,255.386,729.648,254.541,728.723Z" transform="translate(-233.544 -721.432)" fill="#f05a48"/><path d="M253.871,718.593c0,.231-.107.419-.239.419s-.239-.187-.239-.419.107-.418.239-.418S253.871,718.362,253.871,718.593Z" transform="translate(-232.639 -713.326)" fill="#2b1710"/><path d="M262.791,719.008c0,.231-.107.418-.239.418s-.239-.187-.239-.418.107-.419.239-.419S262.791,718.776,262.791,719.008Z" transform="translate(-239.67 -713.653)" fill="#2b1710"/><path d="M259.47,719.429a.061.061,0,0,1,0-.122,3.3,3.3,0,0,0,.69-.126,3.628,3.628,0,0,0-.25-.311,3.485,3.485,0,0,1-.22-.273,1.713,1.713,0,0,1,.024-1.174.061.061,0,0,1,.118.033,1.632,1.632,0,0,0-.04,1.073c.042.063.128.164.211.261.212.248.292.348.285.416C260.272,719.371,259.478,719.429,259.47,719.429Z" transform="translate(-237.381 -712.699)" fill="#2b1710"/><path d="M254.456,729.6a4.625,4.625,0,0,1-1.327-.206.061.061,0,1,1,.036-.117,3.076,3.076,0,0,0,2.088.059.061.061,0,1,1,.078.094A1.64,1.64,0,0,1,254.456,729.6Z" transform="translate(-232.397 -722.073)" fill="#2b1710"/><g transform="translate(21.677 8.235)" style="mix-blend-mode:multiply;isolation:isolate"><path d="M258.151,734.341a1.145,1.145,0,0,1-.356-.058.061.061,0,0,1,.038-.116.884.884,0,0,0,.578.01.061.061,0,0,1,.049.112A.826.826,0,0,1,258.151,734.341Z" transform="translate(-257.752 -734.164)" fill="#e0b3a8"/></g><g transform="translate(17.819 4.58)" style="mix-blend-mode:multiply;isolation:isolate"><path d="M240.363,718.341h-.005a.527.527,0,0,1-.4-.818.338.338,0,0,1,.247-.136.611.611,0,0,0-.348-.353.21.21,0,0,0-.209.083.061.061,0,0,1-.091-.081.329.329,0,0,1,.326-.121.768.768,0,0,1,.472.517.061.061,0,0,1-.067.079.231.231,0,0,0-.231.085.4.4,0,0,0-.025.389.391.391,0,0,0,.342.233.061.061,0,0,1-.005.122Z" transform="translate(-239.536 -716.908)" fill="#e0b3a8"/></g><g transform="translate(19.023 7.222)" style="mix-blend-mode:multiply;isolation:isolate"><path d="M247.393,731.4h0a3.564,3.564,0,0,1-2.163-1.924.061.061,0,0,1,.111-.052,3.488,3.488,0,0,0,2.061,1.854.061.061,0,0,1,0,.122Z" transform="translate(-245.219 -729.384)" fill="#e0b3a8"/></g><g transform="translate(12.79 14.077)" style="mix-blend-mode:multiply;isolation:isolate"><path d="M218.431,764.48a.061.061,0,0,1-.061-.058c0-.017-.126-1.716-2.541-2.552a.061.061,0,0,1,.04-.116c2.5.864,2.623,2.643,2.624,2.661a.061.061,0,0,1-.058.064Z" transform="translate(-215.788 -761.751)" fill="#bfbfbf"/></g><g transform="translate(14.727 18.358)" style="mix-blend-mode:multiply;isolation:isolate"><path d="M228.295,787.752a.063.063,0,0,1-.019,0l-3.3-1.076a.061.061,0,0,1-.041-.067c0-.031.479-3.1.573-4.586a.061.061,0,0,1,.122.008c-.088,1.386-.5,4.135-.567,4.545l3.251,1.06a.061.061,0,0,1-.019.119Z" transform="translate(-224.934 -781.962)" fill="#bfbfbf"/></g><g transform="translate(13.507 23.165)" style="mix-blend-mode:multiply;isolation:isolate"><path d="M220.121,805.688l-.016,0a.062.062,0,0,1-.044-.075l.2-.742c-.176.131-.513.39-.982.78a.061.061,0,1,1-.078-.094c.711-.593,1.124-.885,1.128-.888a.061.061,0,0,1,.094.065l-.239.909A.061.061,0,0,1,220.121,805.688Z" transform="translate(-219.175 -804.657)" fill="#bfbfbf"/></g><g transform="translate(24.411 14.747)" style="mix-blend-mode:multiply;isolation:isolate"><path d="M271.7,768.144a.06.06,0,0,1-.051-.028,7.745,7.745,0,0,1-.99-3.136.061.061,0,0,1,.122-.012,7.612,7.612,0,0,0,.971,3.082.061.061,0,0,1-.051.094Z" transform="translate(-270.662 -764.913)" fill="#bfbfbf"/></g><path d="M248.764,712.49a3.467,3.467,0,0,1,1.937.012A1.074,1.074,0,0,0,248.764,712.49Z" transform="translate(-228.99 -708.37)" fill="#2b1710"/><path d="M262.2,713.877a1.026,1.026,0,0,1,1.028.251C263.061,713.183,262.391,713.554,262.2,713.877Z" transform="translate(-239.581 -709.662)" fill="#2b1710"/><path d="M241.239,725.129a.462.462,0,1,1-.462-.462A.462.462,0,0,1,241.239,725.129Z" transform="translate(-222.33 -718.444)" fill="#fff1d9"/><path d="M246.934,779.617h-13.71L230.78,789.66h13.71Z" transform="translate(-214.815 -761.755)" fill="#5d8dc2"/><path d="M249.243,779.617h-13.71l-2.444,10.044H246.8Z" transform="translate(-216.634 -761.755)" fill="#517aa8"/><path d="M228.172,828.25H209.4l-.095-1.212h18.775Z" transform="translate(-197.885 -799.134)" fill="#517aa8"/><path d="M268.209,802.032h-1.5a1.339,1.339,0,0,1,1.339-1.339h1.5A1.339,1.339,0,0,1,268.209,802.032Z" transform="translate(-243.135 -778.368)" fill="#5d8dc2"/><rect width="42.597" height="1.339" transform="translate(0.097 29.148)" fill="#833d0a"/><path d="M301.388,953.667c-.086.833-.178,2-.178,2h8.465c-.09,0-4.479-2.108-5.332-3.038a3.122,3.122,0,0,0-.407,1.173C303.378,954.32,301.981,953.886,301.388,953.667Z" transform="translate(-270.329 -898.123)" fill="#402218"/><path d="M165.185,729.492a.244.244,0,0,1-.244-.245V707.722a3.622,3.622,0,0,1,.879-2.365l2.09-2.422a.244.244,0,0,1,.37.319l-2.09,2.422a3.132,3.132,0,0,0-.761,2.045v21.526A.245.245,0,0,1,165.185,729.492Z" transform="translate(-162.92 -701.248)" fill="#293f57"/><path d="M164.032,825.609h-2.774a1.562,1.562,0,0,0-1.562,1.562h5.9A1.562,1.562,0,0,0,164.032,825.609Z" transform="translate(-158.786 -798.007)" fill="#42648a"/><g transform="translate(4.857)"><circle cx="1.172" cy="1.172" r="1.172" transform="matrix(0.057, -0.998, 0.998, 0.057, 3.237, 5.989)" fill="#fff1d9"/><path d="M178.687,695.552h0a1.064,1.064,0,0,0-.086,1.5l1.027,1.151,1.588-1.417-1.027-1.151A1.064,1.064,0,0,0,178.687,695.552Z" transform="translate(-178.331 -695.282)" fill="#42648a"/><path d="M180.19,698.7a4.328,4.328,0,0,0-.348,6.111l6.459-5.763A4.329,4.329,0,0,0,180.19,698.7Z" transform="translate(-178.656 -697.113)" fill="#517aa8"/></g></g><path d="M854.28,530.31l5.485-1.669c-.6,7.511,3.219,7.392,3.219,7.392l-3.338,1.789C855.592,537.345,854.28,530.31,854.28,530.31Z" transform="translate(-691.711 -475.847)" fill="#ffe9bf"/><path d="M858.5,698.359l5.485-1.669c-.6,7.512,3.219,7.393,3.219,7.393l-3.339,1.788C859.814,705.394,858.5,698.359,858.5,698.359Z" transform="translate(-695.039 -608.305)" fill="#ffe9bf"/><path d="M967.438,749.027l5.485-1.669c-.6,7.512,3.219,7.393,3.219,7.393l-3.338,1.788C968.75,756.062,967.438,749.027,967.438,749.027Z" transform="translate(-780.903 -648.242)" fill="#ffe9bf"/><path d="M880.27,604.643l11.089.119c-.477,4.769-4.531,11.208-8.108,12.4l-8.7-.954C881.82,613.7,880.27,604.643,880.27,604.643Z" transform="translate(-707.685 -535.752)" fill="#ffe9bf"/><path d="M818.124,482.476l7.392.08c-.318,3.179-3.021,7.472-5.405,8.267l-5.8-.636C819.157,488.517,818.124,482.476,818.124,482.476Z" transform="translate(-660.204 -439.459)" fill="#ffe9bf"/><g transform="translate(92.692 92.499)" style="mix-blend-mode:multiply;isolation:isolate"><path d="M535.789,743.536l-5.723-4.571-5.723,4.571V716.113h11.446Z" transform="translate(-524.343 -716.113)" fill="#bfbfbf"/></g><path d="M543.7,743.536l-5.723-4.571-5.723,4.571V716.113H543.7Z" transform="translate(-437.888 -623.614)" fill="#31d9e7"/><path d="M795.674,940.46H754.538a5.723,5.723,0,0,0-5.723,5.723H801.4A5.723,5.723,0,0,0,795.674,940.46Z" transform="translate(-608.582 -800.447)" fill="#314a66"/><g transform="translate(167.236 63.85)"><rect width="58.144" height="2.986" transform="translate(0 65.534) rotate(-71.642)" fill="#47286d"/><rect width="14.477" height="4.434" transform="translate(15.374 16.906) rotate(-71.642)" fill="#bb83ff"/><rect width="3.755" height="1.9" transform="translate(21.136 3.564) rotate(-71.642)" fill="#47286d"/><path d="M978.277,610.473a.347.347,0,0,0,.438-.22l5.073-15.286a4.242,4.242,0,0,0-2.687-5.356.347.347,0,1,0-.219.658,3.548,3.548,0,0,1,2.248,4.48l-5.073,15.287A.347.347,0,0,0,978.277,610.473Z" transform="translate(-956.495 -587.739)" fill="#47286d"/><circle cx="2.217" cy="2.217" r="2.217" transform="matrix(0.93, -0.367, 0.367, 0.93, 18.288, 22.63)" fill="#bb83ff"/></g><path d="M849.558,881.769h0A8.227,8.227,0,0,0,841.331,890v4.272h16.454V890A8.227,8.227,0,0,0,849.558,881.769Z" transform="translate(-681.504 -754.186)" fill="#42648a"/><g transform="translate(101.8 114.796)"><g transform="translate(0.624 13.165)"><path d="M606.026,901.3H604.2A15.936,15.936,0,0,0,588.28,885.38H570.3v-1.828H588.28A17.766,17.766,0,0,1,606.026,901.3Z" transform="translate(-570.296 -883.552)" fill="#203042"/></g><path d="M659.818,881.346a.457.457,0,0,1-.438-.328,4.942,4.942,0,0,0-3.457-2.89,3.075,3.075,0,0,0-3.211,1.447.457.457,0,1,1-.73-.55,3.986,3.986,0,0,1,4.1-1.8,5.8,5.8,0,0,1,4.171,3.532.457.457,0,0,1-.439.586Z" transform="translate(-633.984 -865.349)" fill="#203042"/><path d="M582.033,857.178c-2.035,0-3.981-1.361-5.48-3.833a20.852,20.852,0,0,1,0-19.611c1.5-2.472,3.444-3.833,5.48-3.833s3.981,1.361,5.48,3.833a20.851,20.851,0,0,1,0,19.611C586.014,855.817,584.069,857.178,582.033,857.178Z" transform="translate(-572.673 -828.099)" fill="#8a8a8a" style="mix-blend-mode:screen;isolation:isolate"/><g transform="translate(0.61)"><path d="M579.586,821.39c-5.169,0-9.36,6.913-9.36,15.44s4.19,15.441,9.36,15.441,9.36-6.913,9.36-15.441S584.755,821.39,579.586,821.39Zm0,29.079c-2.035,0-3.982-1.361-5.48-3.833a20.849,20.849,0,0,1,0-19.611c1.5-2.471,3.444-3.833,5.48-3.833s3.982,1.361,5.479,3.833a20.85,20.85,0,0,1,0,19.611C583.567,849.108,581.621,850.469,579.586,850.469Z" transform="translate(-570.226 -821.39)" fill="#203042"/></g><path d="M576.708,821.39c-5.169,0-9.36,6.913-9.36,15.44s4.19,15.441,9.36,15.441,9.36-6.913,9.36-15.441S581.877,821.39,576.708,821.39Zm0,29.079c-2.035,0-3.981-1.361-5.48-3.833a20.851,20.851,0,0,1,0-19.611c1.5-2.471,3.444-3.833,5.48-3.833s3.981,1.361,5.48,3.833a20.851,20.851,0,0,1,0,19.611C580.689,849.108,578.743,850.469,576.708,850.469Z" transform="translate(-567.348 -821.39)" fill="#314a66"/><path d="M592.168,880.69a19.186,19.186,0,0,0,2.449-9.805,21.543,21.543,0,0,0-.9-6.29l-13.7,13.6a14.983,14.983,0,0,0,1.2,2.5c1.5,2.472,3.444,3.833,5.48,3.833S590.67,883.161,592.168,880.69Z" transform="translate(-577.328 -855.444)" fill="#8a8a8a" style="mix-blend-mode:screen;isolation:isolate"/><g transform="translate(24.529)"><path d="M697.85,857.178c-2.035,0-3.981-1.361-5.48-3.833a20.85,20.85,0,0,1,0-19.611c1.5-2.472,3.444-3.833,5.48-3.833s3.982,1.361,5.48,3.833a20.851,20.851,0,0,1,0,19.611C701.832,855.817,699.885,857.178,697.85,857.178Z" transform="translate(-688.49 -828.099)" fill="#8a8a8a" style="mix-blend-mode:screen;isolation:isolate"/><g transform="translate(0.61)"><path d="M695.4,821.39c-5.169,0-9.36,6.913-9.36,15.44s4.19,15.441,9.36,15.441,9.36-6.913,9.36-15.441S700.572,821.39,695.4,821.39Zm0,29.079c-2.035,0-3.981-1.361-5.48-3.833a20.851,20.851,0,0,1,0-19.611c1.5-2.471,3.444-3.833,5.48-3.833s3.982,1.361,5.48,3.833a20.852,20.852,0,0,1,0,19.611C699.384,849.108,697.438,850.469,695.4,850.469Z" transform="translate(-686.043 -821.39)" fill="#203042"/></g><path d="M692.525,821.39c-5.169,0-9.36,6.913-9.36,15.44s4.191,15.441,9.36,15.441,9.36-6.913,9.36-15.441S697.694,821.39,692.525,821.39Zm0,29.079c-2.036,0-3.981-1.361-5.479-3.833a20.85,20.85,0,0,1,0-19.611c1.5-2.471,3.444-3.833,5.479-3.833s3.982,1.361,5.48,3.833a20.851,20.851,0,0,1,0,19.611C696.506,849.108,694.56,850.469,692.525,850.469Z" transform="translate(-683.165 -821.39)" fill="#314a66"/><path d="M707.985,880.69a19.185,19.185,0,0,0,2.449-9.805,21.537,21.537,0,0,0-.9-6.29l-13.7,13.6a14.974,14.974,0,0,0,1.2,2.5c1.5,2.472,3.444,3.833,5.479,3.833S706.487,883.161,707.985,880.69Z" transform="translate(-693.145 -855.444)" fill="#8a8a8a" style="mix-blend-mode:screen;isolation:isolate"/></g><path d="M657.566,882.1a.457.457,0,0,1-.438-.328,4.941,4.941,0,0,0-3.457-2.891,3.223,3.223,0,0,0-.576-.053,3.267,3.267,0,0,0-2.635,1.5.457.457,0,1,1-.73-.55,3.984,3.984,0,0,1,4.1-1.8A5.8,5.8,0,0,1,658,881.51a.457.457,0,0,1-.439.586Z" transform="translate(-632.209 -865.94)" fill="#314a66"/><g transform="translate(43.436 13.165)"><path d="M808.167,901.3h-1.828a15.936,15.936,0,0,0-15.917-15.918H772.437v-1.828h17.984A17.766,17.766,0,0,1,808.167,901.3Z" transform="translate(-772.437 -883.552)" fill="#203042"/></g></g><g transform="translate(123.528 33.836)"><path d="M774.048,596.329s4.042,1.348,4.975,2.9-7.152,19.28-7.152,19.28l-5.7-23.115Z" transform="translate(-745.789 -562.3)" fill="#004059"/><path d="M777.465,711.276a8.22,8.22,0,0,0-.311,4.975h12.024c-.415-.967-4.077-2.833-5.736-3.593a3.728,3.728,0,0,1-2.039-2.246Z" transform="translate(-754.25 -652.957)" fill="#f57954"/><path d="M691.113,602.428c-.017.449.864,2.263,4.388,2.263s10.054.259,10.054.259,3.421,16.844,3.576,16.9a9.6,9.6,0,0,0,5.183-.156s-.829-18.71-1.088-21.353a4.149,4.149,0,0,0-2.332-3.473l-15.7.052S690.974,599.284,691.113,602.428Z" transform="translate(-686.626 -563.458)" fill="#005769"/><path d="M775.385,532.75l1.486,2.971-4.941.328s-.294-1.969-.294-2.039S775.385,532.75,775.385,532.75Z" transform="translate(-750.098 -512.922)" fill="#f57954"/><path d="M680.236,488.783c-4.164,1.641-7.481,5.3-9.83,10.314.276.276.414.276.414.276s3.179,8.776,3.179,9.5a78.179,78.179,0,0,0,.795,8.362c2.488-3.49,6.668-5.667,7.636-5.667s9.225-6.53,9.225-6.53l.276-4.768a6.41,6.41,0,0,0,4.112-2.142c-.034-.1-4.008-6.185-5.183-6.7s-2.643-1.123-2.643-1.123Z" transform="translate(-670.307 -478.266)" fill="#de442a"/><path d="M670.452,538.786a17.432,17.432,0,0,0,5.943,2.039l.034,3.455c3.628,1.313,8.223,3.006,9.571,3.04s-.864,3.075-.864,3.075-11.437.1-13.648-.622c-1.417-.069-1.589-1.037-1.417-1.659C669.623,545.282,670.452,538.786,670.452,538.786Z" transform="translate(-669.939 -517.679)" fill="#f57954"/><path d="M746.378,541.886H731.106l-2.649,11.264h15.272Z" transform="translate(-716.064 -520.122)" fill="#3d5d80"/><path d="M725.445,442.915c-.441-3.11,1.633-3.835,2.565-3.628,1.892-.492,3.576.311,4.068.311s.052,1.011,0,1.192a7.579,7.579,0,0,1-.207,3.5,9.271,9.271,0,0,0,.337,3.161c.207.752.086,1.987-2.107,2.263-3.257.743-3.671.561-3.671.484s-.311-3.5-.311-3.5l-.039-1.736Z" transform="translate(-713.641 -439.127)" fill="#2b1710"/><path d="M719.5,457.049c-1.019-1.278-1.745.553-1.3,1.451s1,.847,1.054.881a4.068,4.068,0,0,1-2.436,4.043c2.332,3.334,6.5,3.783,7.982,1.52a5.385,5.385,0,0,1-1.451-1.451,3.354,3.354,0,0,1-2.885-.777c-.847-.795-1.071-2.54-.9-3.818A3.875,3.875,0,0,0,719.5,457.049Z" transform="translate(-706.891 -452.907)" fill="#f57954"/><path d="M732.9,447.2c-.225,1.866-.4,3.8.6,4.146s2.488-.4,3.87.017c.017-1.434.224-3.162.224-3.162a5.65,5.65,0,0,0-.795-1.4,2.565,2.565,0,0,1-1.555-.76c-.225.57-.656.535-1.227.518S732.9,447.2,732.9,447.2Z" transform="translate(-719.428 -444.576)" fill="#f57954"/><path d="M740.475,472.5a13.972,13.972,0,0,1,2.734,0c-.039.713-.389,1.736-1.335,1.581S740.475,472.5,740.475,472.5Z" transform="translate(-725.536 -465.378)" fill="#ff8762"/><path d="M742.134,461.338c0,.261-.125.473-.279.473s-.278-.212-.278-.473.124-.473.278-.473S742.134,461.077,742.134,461.338Z" transform="translate(-726.405 -456.261)" fill="#2b1710"/><ellipse cx="0.279" cy="0.473" rx="0.279" ry="0.473" transform="translate(17.258 4.565)" fill="#2b1710"/><g transform="translate(11.465 4.107)" style="mix-blend-mode:multiply;isolation:isolate"><path d="M724.981,460.3h-.013c-.507-.1-.686-.4-.639-.647a.547.547,0,0,1,.615-.4.863.863,0,0,0-.416-.584.353.353,0,0,0-.346.1.066.066,0,1,1-.087-.1.474.474,0,0,1,.475-.128,1.048,1.048,0,0,1,.527.773.066.066,0,0,1-.077.079.441.441,0,0,0-.561.285c-.033.173.087.405.534.492a.066.066,0,0,1-.013.131Z" transform="translate(-724.073 -458.519)" fill="#e0b3a8"/></g><path d="M747.448,461.014a.066.066,0,0,1,0-.132,7.513,7.513,0,0,0,1.076-.115c-.03-.043-.1-.125-.157-.193a3.022,3.022,0,0,1-.418-.582,1.644,1.644,0,0,1-.072-.911c.01-.1.021-.2.026-.3a.066.066,0,0,1,.132.008c-.006.105-.017.208-.027.307a1.524,1.524,0,0,0,.06.839,2.914,2.914,0,0,0,.4.554c.145.171.2.243.2.3s0,.153-1.216.222Z" transform="translate(-730.98 -454.568)" fill="#2b1710"/><path d="M742.575,474.324a3.607,3.607,0,0,1-1.019-.122.066.066,0,0,1,.039-.126,5.194,5.194,0,0,0,2.145,0,.066.066,0,0,1,.051.122A5.082,5.082,0,0,1,742.575,474.324Z" transform="translate(-726.351 -466.672)" fill="#2b1710"/><g transform="translate(16.065 8.125)" style="mix-blend-mode:multiply;isolation:isolate"><path d="M745.857,477.741a.066.066,0,0,1-.023-.128c.57-.212.809-.088.834-.073a.066.066,0,0,1-.067.114s-.209-.108-.721.083A.063.063,0,0,1,745.857,477.741Z" transform="translate(-745.791 -477.49)" fill="#e0b3a8"/></g><path d="M736.132,456.1c.946-.039,2.112-.026,2.151-.026A1.263,1.263,0,0,0,736.132,456.1Z" transform="translate(-722.113 -452.028)" fill="#2b1710"/><path d="M751,456.945a2.006,2.006,0,0,1,.972.13C751.658,456.349,750.984,456.53,751,456.945Z" transform="translate(-733.83 -452.885)" fill="#2b1710"/><path d="M749.505,541.886H734.233l-2.649,11.264h15.272Z" transform="translate(-718.528 -520.122)" fill="#314a66"/><path d="M768.438,566.174h-1.071a1.693,1.693,0,0,1,1.693-1.693h1.071A1.693,1.693,0,0,1,768.438,566.174Z" transform="translate(-746.733 -537.932)" fill="#3d5d80"/><rect width="21.146" height="1.002" transform="translate(7.113 33.027)" fill="#314a66"/><g transform="translate(5.734 13.681)" style="mix-blend-mode:multiply;isolation:isolate"><path d="M699.531,509.074a.066.066,0,0,1-.065-.057c-.014-.1-.027-.2-.041-.315a6.813,6.813,0,0,0-2.389-4.861.066.066,0,1,1,.085-.1,6.93,6.93,0,0,1,2.435,4.945c.014.11.027.215.041.314a.066.066,0,0,1-.057.075Z" transform="translate(-697.012 -503.724)" fill="#bfbfbf"/></g><g transform="translate(19.624 15.547)" style="mix-blend-mode:multiply;isolation:isolate"><path d="M764.043,517.918a.066.066,0,0,1-.063-.046c-.009-.028-.9-2.864-1.384-5.259a.066.066,0,0,1,.13-.026c.477,2.387,1.371,5.217,1.38,5.245a.066.066,0,0,1-.063.086Z" transform="translate(-762.595 -512.534)" fill="#bfbfbf"/></g><g transform="translate(19.049 40.113)" style="mix-blend-mode:multiply;isolation:isolate"><path d="M760.029,629.957h-.013a.145.145,0,0,1-.115-.055c-.037-.055-.016-.124.019-.238a2.939,2.939,0,0,0,.139-1.067.066.066,0,0,1,.064-.068.067.067,0,0,1,.068.064,3.065,3.065,0,0,1-.144,1.111.955.955,0,0,0-.033.119h.012a2.213,2.213,0,0,0,.94-.762.066.066,0,1,1,.115.066C760.938,629.377,760.3,629.957,760.029,629.957Z" transform="translate(-759.881 -628.528)" fill="#bfbfbf"/></g><path d="M783.443,718.614a3.91,3.91,0,0,1-.989-.646,1.652,1.652,0,0,0-.842,1.3c-.985,1.492-3.488.335-4.585-.273a6.611,6.611,0,0,0,.128,3.21h12.024C788.764,721.24,785.1,719.374,783.443,718.614Z" transform="translate(-754.251 -658.912)" fill="#2b1710"/></g><g transform="translate(106.723 29.421)"><g transform="translate(0)"><path d="M596.585,425.549h-4.149a1.845,1.845,0,0,1-1.843-1.843v-5.029a.4.4,0,0,1,.4-.4v.152a.246.246,0,0,0-.245.245v5.029a1.693,1.693,0,0,0,1.691,1.691h4.149a.245.245,0,0,0,.245-.245v-.321h.152v.321A.4.4,0,0,1,596.585,425.549Z" transform="translate(-590.592 -418.279)" fill="#568584"/></g><g transform="translate(0.321)"><path d="M597.857,424.907h-2.929a2.822,2.822,0,0,1-2.818-2.818v-3.809h2.929a2.822,2.822,0,0,1,2.819,2.818Zm-5.6-6.475v3.657a2.669,2.669,0,0,0,2.666,2.666H597.7V421.1a2.669,2.669,0,0,0-2.666-2.666Z" transform="translate(-592.109 -418.279)" fill="#568584"/></g><g transform="translate(5.623)"><path d="M621.689,425.549H617.54a.4.4,0,0,1-.4-.4v-.342h.152v.342a.246.246,0,0,0,.245.245h4.149a1.693,1.693,0,0,0,1.691-1.691v-5.029a.245.245,0,0,0-.245-.245v-.152a.4.4,0,0,1,.4.4v5.029A1.846,1.846,0,0,1,621.689,425.549Z" transform="translate(-617.142 -418.279)" fill="#568584"/></g><g transform="translate(5.944)"><path d="M621.588,424.907h-2.929V421.1a2.822,2.822,0,0,1,2.819-2.818h2.929v3.809A2.822,2.822,0,0,1,621.588,424.907Zm-2.776-.152h2.776a2.669,2.669,0,0,0,2.666-2.666v-3.657h-2.777a2.669,2.669,0,0,0-2.666,2.666Z" transform="translate(-618.659 -418.279)" fill="#568584"/></g></g><g transform="translate(7.241 103.756)"><g transform="translate(0.115 0.385)"><path d="M126.215,775.889l-1.008.8-3.8-4.806,1.007-.8Zm-.982.582.768-.607-3.608-4.567-.768.607Z" transform="translate(-121.411 -771.083)" fill="#568584"/></g><path d="M122.133,769.734l-1.1.87-.162-1.337Zm-.982.582.675-.533-.775-.287Z" transform="translate(-120.87 -769.267)" fill="#568584"/><g transform="translate(3.115 4.183)"><path d="M137.382,790.025l-1.008.8-.8-1.008,1.007-.8Zm-.982.582.768-.607-.607-.768-.768.607Z" transform="translate(-135.579 -789.017)" fill="#568584"/></g></g><g transform="translate(198.084 108.449)"><g transform="translate(0.114 0.385)"><path d="M1027.312,798.044l-1.007.8-3.8-4.806,1.008-.8Zm-.982.582.768-.607-3.608-4.567-.768.607Z" transform="translate(-1022.508 -793.238)" fill="#568584"/></g><path d="M1023.231,791.889l-1.1.87-.162-1.337Zm-.982.582.675-.533-.774-.286Z" transform="translate(-1021.968 -791.422)" fill="#568584"/><g transform="translate(3.115 4.183)"><path d="M1038.481,812.18l-1.007.8-.8-1.008,1.007-.8Zm-.982.582.768-.607-.607-.768-.768.607Z" transform="translate(-1036.677 -811.173)" fill="#568584"/></g></g><g transform="translate(195.704 91.684)"><path d="M1015.03,718.115h-4.3v-4.971l.881-.881h3.42Zm-4.149-.152h4v-5.548h-3.2l-.792.792Z" transform="translate(-1010.729 -712.263)" fill="#568584"/><g transform="translate(0.303 0.322)"><path d="M1013.118,714.741h-.956v-.152h.8v-.8h.152Z" transform="translate(-1012.162 -713.785)" fill="#568584"/></g></g><g transform="translate(14.599 72.675)"><g transform="translate(2.451 2.267)"><path d="M167.517,643.839a53.7,53.7,0,0,1-.2-10.625l.312.017a53.436,53.436,0,0,0,.192,10.554Z" transform="translate(-167.189 -633.214)" fill="#568584"/></g><path d="M158.323,633l-.1-.092c-.106-.094-2.6-2.334-2.6-5.154a5.209,5.209,0,0,1,.211-1.435l.043-.149,1.131.311c-.241-.246-.554-.563-.831-.833l-.078-.076.044-.1a9.275,9.275,0,0,1,2.082-2.873l.1-.092.1.092a8.852,8.852,0,0,1,2.389,3.707l.02.069-.039.06c-.6.923-1.082,1.668-1.393,2.157l1.376-1.012.246-.181,0,.354c0,2.82-2.5,5.06-2.6,5.154Zm-2.236-6.445a4.818,4.818,0,0,0-.158,1.2c0,2.36,1.922,4.365,2.394,4.822a7.753,7.753,0,0,0,2.386-4.554c-1.677,1.234-1.732,1.271-1.75,1.283l-.106.071-.093-.089c-.118-.116-.118-.117,1.735-2.961a8.654,8.654,0,0,0-2.172-3.394,9.21,9.21,0,0,0-1.855,2.57c.531.522,1.154,1.168,1.161,1.175l.4.411Z" transform="translate(-155.616 -622.511)" fill="#568584"/></g><g transform="translate(187.958 54.48)"><g transform="translate(0 1.257)"><path d="M974.155,548.809a40.987,40.987,0,0,1,5.138-6.275l.173.164a40.794,40.794,0,0,0-5.105,6.232Z" transform="translate(-974.155 -542.534)" fill="#568584"/></g><g transform="translate(1.081)"><path d="M979.325,542.7l-.015-.1a6.018,6.018,0,0,1,1.034-4.283,3.966,3.966,0,0,1,.832-.73l.1-.065.5.74c-.019-.263-.044-.6-.072-.9l-.008-.083.075-.036a7.08,7.08,0,0,1,2.631-.641l.106,0,.015.1a6.762,6.762,0,0,1-.443,3.336l-.022.05-.052.016c-.806.239-1.454.435-1.876.566l1.3.092.233.016-.173.208a6.019,6.019,0,0,1-4.061,1.71Zm1.886-4.853a3.67,3.67,0,0,0-.685.619,5.755,5.755,0,0,0-.991,3.987,5.918,5.918,0,0,0,3.638-1.469c-1.585-.111-1.635-.117-1.652-.119l-.1-.011-.01-.1c-.011-.126-.011-.126,2.473-.864a6.6,6.6,0,0,0,.415-3.047,7.036,7.036,0,0,0-2.349.577c.05.566.094,1.25.094,1.257l.028.435Z" transform="translate(-979.261 -536.6)" fill="#568584"/></g></g><g transform="translate(0 44.536)"><g transform="translate(1.424 1.39)"><path d="M94.907,500.636a.788.788,0,0,1-.787-.787v-.2a1.534,1.534,0,0,0-.371-.983,1.5,1.5,0,0,1-.342-1.035,1.514,1.514,0,0,1,1.429-1.422,1.5,1.5,0,0,1,1.214,2.476,1.428,1.428,0,0,0-.356.921v.242A.788.788,0,0,1,94.907,500.636Zm0-4.263h-.065a1.349,1.349,0,0,0-1.273,1.266,1.335,1.335,0,0,0,.3.923,1.72,1.72,0,0,1,.409,1.087v.2a.623.623,0,1,0,1.246,0v-.242a1.59,1.59,0,0,1,.4-1.027,1.338,1.338,0,0,0-1.017-2.207Z" transform="translate(-93.404 -496.209)" fill="#568584"/></g><g transform="translate(2.845)"><rect width="0.164" height="1.049" fill="#568584"/></g><g transform="translate(4.179 0.806)"><rect width="1.049" height="0.164" transform="translate(0 0.742) rotate(-45.005)" fill="#568584"/></g><g transform="translate(4.77 2.845)"><rect width="1.049" height="0.164" fill="#568584"/></g><g transform="translate(0.806 0.782)"><rect width="0.164" height="1.049" transform="translate(0 0.116) rotate(-45)" fill="#568584"/></g><g transform="translate(0 2.811)"><rect width="1.049" height="0.164" fill="#568584"/></g><g transform="translate(2.318 4.485)"><rect width="1.201" height="0.164" fill="#568584"/></g><g transform="translate(2.368 4.976)"><rect width="1.083" height="0.164" fill="#568584"/></g></g><g transform="translate(70.44 14.857)"><g transform="translate(2.828 2.761)"><path d="M435.616,371.345a1.565,1.565,0,0,1-1.563-1.563v-.394a3.049,3.049,0,0,0-.738-1.952,2.975,2.975,0,0,1-.68-2.057,3.009,3.009,0,0,1,2.84-2.826,2.984,2.984,0,0,1,2.413,4.92,2.835,2.835,0,0,0-.707,1.829v.48A1.565,1.565,0,0,1,435.616,371.345Zm0-8.47c-.043,0-.086,0-.129,0a2.68,2.68,0,0,0-2.529,2.517,2.651,2.651,0,0,0,.606,1.833,3.416,3.416,0,0,1,.813,2.16v.394a1.238,1.238,0,0,0,2.475,0v-.48a3.159,3.159,0,0,1,.786-2.041,2.659,2.659,0,0,0-2.022-4.386Z" transform="translate(-432.63 -362.549)" fill="#568584"/></g><g transform="translate(5.652)"><rect width="0.326" height="2.084" fill="#568584"/></g><g transform="translate(8.304 1.602)"><rect width="2.084" height="0.326" transform="matrix(0.707, -0.707, 0.707, 0.707, 0, 1.474)" fill="#568584"/></g><g transform="translate(9.478 5.652)"><rect width="2.084" height="0.326" fill="#568584"/></g><g transform="translate(1.602 1.554)"><rect width="0.326" height="2.084" transform="translate(0 0.23) rotate(-45)" fill="#568584"/></g><g transform="translate(0 5.584)"><rect width="2.084" height="0.326" fill="#568584"/></g><g transform="translate(4.605 8.912)"><rect width="2.386" height="0.326" fill="#568584"/></g><g transform="translate(4.705 9.887)"><rect width="2.151" height="0.326" fill="#568584"/></g></g><g transform="translate(172.114 50.354)"><path d="M910.969,522.291h-11.6l-.018-.143a1.189,1.189,0,0,1,.463-1.129,1.975,1.975,0,0,1,1.695-.266,3.721,3.721,0,0,1,.988-2.63,4.062,4.062,0,0,1,5.34,0,3.72,3.72,0,0,1,.988,2.63,1.975,1.975,0,0,1,1.695.266,1.189,1.189,0,0,1,.463,1.129Zm-11.3-.327h11a.853.853,0,0,0-.347-.686,1.7,1.7,0,0,0-1.6-.146l-.231.092.006-.248a3.5,3.5,0,0,0-.892-2.624,3.739,3.739,0,0,0-4.875,0,3.5,3.5,0,0,0-.892,2.624l.006.248-.23-.092a1.7,1.7,0,0,0-1.6.146A.854.854,0,0,0,899.672,521.964Z" transform="translate(-899.345 -517.12)" fill="#568584"/></g><g transform="translate(24.064 73.96)"><g transform="translate(1.41)"><rect width="0.345" height="1.164" fill="#568584"/></g><g transform="translate(1.41 2.002)"><rect width="0.345" height="1.164" fill="#568584"/></g><g transform="translate(2.002 1.41)"><rect width="1.164" height="0.345" fill="#568584"/></g><g transform="translate(0 1.41)"><rect width="1.164" height="0.345" fill="#568584"/></g></g><g transform="translate(19.057 100.251)"><g transform="translate(1.41)"><rect width="0.345" height="1.164" fill="#568584"/></g><g transform="translate(1.41 2.002)"><rect width="0.345" height="1.164" fill="#568584"/></g><g transform="translate(2.002 1.41)"><rect width="1.164" height="0.345" fill="#568584"/></g><g transform="translate(0 1.41)"><rect width="1.164" height="0.345" fill="#568584"/></g></g><g transform="translate(90.01 33.774)"><g transform="translate(1.41)"><rect width="0.345" height="1.164" fill="#568584"/></g><g transform="translate(1.41 2.002)"><rect width="0.345" height="1.164" fill="#568584"/></g><g transform="translate(2.002 1.41)"><rect width="1.164" height="0.345" fill="#568584"/></g><g transform="translate(0 1.41)"><rect width="1.164" height="0.345" fill="#568584"/></g></g><g transform="translate(124.115 28.519)"><g transform="translate(1.41)"><rect width="0.345" height="1.164" fill="#568584"/></g><g transform="translate(1.41 2.002)"><rect width="0.345" height="1.164" fill="#568584"/></g><g transform="translate(2.003 1.41)"><rect width="1.164" height="0.345" fill="#568584"/></g><g transform="translate(0 1.41)"><rect width="1.164" height="0.345" fill="#568584"/></g></g><g transform="translate(188.322 92.024)"><g transform="translate(1.41)"><rect width="0.345" height="1.164" fill="#568584"/></g><g transform="translate(1.41 2.002)"><rect width="0.345" height="1.164" fill="#568584"/></g><g transform="translate(2.002 1.41)"><rect width="1.164" height="0.345" fill="#568584"/></g><g transform="translate(0 1.41)"><rect width="1.164" height="0.345" fill="#568584"/></g></g><g transform="translate(182.007 44.616)"><g transform="translate(1.41)"><rect width="0.345" height="1.164" fill="#568584"/></g><g transform="translate(1.41 2.002)"><rect width="0.345" height="1.164" fill="#568584"/></g><g transform="translate(2.003 1.41)"><rect width="1.164" height="0.345" fill="#568584"/></g><g transform="translate(0 1.41)"><rect width="1.164" height="0.345" fill="#568584"/></g></g></g></g></svg>