<svg xmlns="http://www.w3.org/2000/svg" xmlns:xlink="http://www.w3.org/1999/xlink" width="341.01" height="235.312" viewBox="0 0 341.01 235.312"><defs><linearGradient id="a" y1="0.5" x2="1" y2="0.5" gradientUnits="objectBoundingBox"><stop offset="0" stop-color="#dae3fe"/><stop offset="1" stop-color="#e9effd"/></linearGradient><linearGradient id="b" x1="0.867" y1="-12.084" x2="0.694" y2="-6.143" gradientUnits="objectBoundingBox"><stop offset="0" stop-color="#09005d"/><stop offset="1" stop-color="#1a0f91"/></linearGradient><linearGradient id="d" x1="-79.608" y1="213.647" x2="-79.252" y2="235.508" gradientUnits="objectBoundingBox"><stop offset="0" stop-color="#4042e2"/><stop offset="1" stop-color="#4f52ff"/></linearGradient><linearGradient id="e" x1="-86.028" y1="0.5" x2="-85.028" y2="0.5" xlink:href="#b"/><linearGradient id="f" x1="-298.591" y1="0.5" x2="-297.591" y2="0.5" gradientUnits="objectBoundingBox"><stop offset="0" stop-color="#a22b25"/><stop offset="1" stop-color="#c0423c"/></linearGradient><linearGradient id="g" x1="-220.373" y1="150.743" x2="-219.445" y2="165.862" xlink:href="#d"/><linearGradient id="h" x1="-156.439" y1="0.5" x2="-155.439" y2="0.5" xlink:href="#b"/><linearGradient id="i" x1="-260.333" y1="0.5" x2="-259.333" y2="0.5" xlink:href="#f"/><linearGradient id="j" x1="0.843" y1="0.138" x2="1.768" y2="-0.854" xlink:href="#d"/><linearGradient id="k" x1="-187.677" y1="5.021" x2="-187.319" y2="4.213" gradientUnits="objectBoundingBox"><stop offset="0" stop-color="#53d8ff"/><stop offset="1" stop-color="#3840f7"/></linearGradient><linearGradient id="l" x1="-117.037" y1="-0.004" x2="-117.051" y2="1.888" xlink:href="#f"/><linearGradient id="m" x1="-151.19" y1="25.579" x2="-152.71" y2="26.916" xlink:href="#f"/><linearGradient id="n" x1="-85.634" y1="16.594" x2="-84.612" y2="16.594" xlink:href="#b"/><linearGradient id="o" x1="-417.064" y1="74.515" x2="-413.773" y2="72.159" xlink:href="#f"/><linearGradient id="p" x1="-231.884" y1="0.5" x2="-230.884" y2="0.5" gradientUnits="objectBoundingBox"><stop offset="0" stop-color="#ff928e"/><stop offset="1" stop-color="#feb3b1"/></linearGradient><linearGradient id="q" x1="-0.024" y1="0.247" x2="0.86" y2="0.68" xlink:href="#b"/><linearGradient id="r" x1="-47.262" y1="1.815" x2="-45.953" y2="-0.054" xlink:href="#b"/><linearGradient id="s" x1="0.614" y1="-1.748" x2="0.563" y2="-0.818" xlink:href="#p"/><linearGradient id="t" x1="-118.712" y1="-1.222" x2="-120.405" y2="3.818" xlink:href="#f"/><linearGradient id="u" x1="0.418" y1="-2.54" x2="0.59" y2="3.063" xlink:href="#a"/><linearGradient id="w" x1="-0.751" y1="-0.658" x2="1.547" y2="1.485" gradientUnits="objectBoundingBox"><stop offset="0" stop-color="#fe7062"/><stop offset="1" stop-color="#ff928e"/></linearGradient><linearGradient id="x" x1="-1.332" y1="-1.206" x2="1.014" y2="0.989" gradientUnits="objectBoundingBox"><stop offset="0" stop-color="#fecdc9"/><stop offset="1" stop-color="#ff928e"/></linearGradient><linearGradient id="y" x1="0.327" y1="0.31" x2="2.598" y2="2.521" gradientUnits="objectBoundingBox"><stop offset="0" stop-color="#fe1700"/><stop offset="1" stop-color="#ff928e"/></linearGradient><linearGradient id="z" x1="-0.193" y1="-0.136" x2="2.06" y2="1.957" gradientUnits="objectBoundingBox"><stop offset="0" stop-color="#fe3521"/><stop offset="1" stop-color="#ff928e"/></linearGradient><linearGradient id="aa" x1="-2.192" y1="-1.946" x2="0.513" y2="0.516" gradientUnits="objectBoundingBox"><stop offset="0" stop-color="#fefefe"/><stop offset="1" stop-color="#ff928e"/></linearGradient><linearGradient id="ac" x1="-0.003" y1="0.5" x2="1.016" y2="0.5" xlink:href="#b"/><linearGradient id="ad" x1="0" y1="0.5" x2="1" y2="0.5" xlink:href="#d"/><linearGradient id="ae" x1="0" y1="0.5" x2="1" y2="0.5" xlink:href="#b"/><linearGradient id="ag" x1="0" y1="0.5" x2="1" y2="0.5" xlink:href="#p"/><linearGradient id="ai" x1="1.265" y1="0.117" x2="0.584" y2="0.547" xlink:href="#b"/><linearGradient id="aj" x1="3.671" y1="-3.524" x2="-2.066" y2="3.756" gradientUnits="objectBoundingBox"><stop offset="0" stop-color="#020039"/><stop offset="1" stop-color="#090056"/></linearGradient><linearGradient id="ak" x1="0.515" y1="0.138" x2="-1.263" y2="5.758" xlink:href="#d"/><linearGradient id="al" x1="2.333" y1="-1.572" x2="1.894" y2="-1.046" xlink:href="#p"/><linearGradient id="am" x1="0.799" y1="-0.035" x2="0.155" y2="1.604" xlink:href="#p"/><linearGradient id="ar" x1="1.179" y1="-0.248" x2="-2.607" y2="4.074" xlink:href="#d"/><linearGradient id="as" x1="2.06" y1="-0.118" x2="1.181" y2="0.226" xlink:href="#p"/><linearGradient id="at" x1="-0.102" y1="-0.67" x2="0.73" y2="0.822" xlink:href="#p"/><linearGradient id="au" x1="0.281" y1="0.154" x2="1.01" y2="1.105" xlink:href="#b"/><linearGradient id="av" x1="-1.911" y1="-2.983" x2="1.492" y2="1.886" xlink:href="#p"/><linearGradient id="aw" x1="1.588" y1="-3.588" x2="1.191" y2="-2.148" xlink:href="#p"/><linearGradient id="az" x1="0.688" y1="-0.636" x2="0.216" y2="1.44" gradientUnits="objectBoundingBox"><stop offset="0" stop-color="#e1473d"/><stop offset="1" stop-color="#e9605a"/></linearGradient><linearGradient id="ba" x1="0.964" y1="0.148" x2="-0.564" y2="1.866" xlink:href="#p"/><linearGradient id="bb" x1="0.667" y1="0.435" x2="-2.097" y2="1.07" xlink:href="#w"/><linearGradient id="bc" x1="2.301" y1="-4.09" x2="1.569" y2="-2.162" gradientUnits="objectBoundingBox"><stop offset="0" stop-color="#4042e2"/><stop offset="0.577" stop-color="#4043e3"/><stop offset="0.784" stop-color="#4446ea"/><stop offset="0.932" stop-color="#4a4df6"/><stop offset="1" stop-color="#4f52ff"/></linearGradient><linearGradient id="bd" x1="0.425" y1="-0.829" x2="0.615" y2="2.451" xlink:href="#d"/></defs><g transform="translate(-170.741 -65.249)"><g transform="translate(196.598 135.522)"><path d="M431.575,665.451S453.481,599.14,384.1,527.869C384.1,527.869,358.878,616.03,431.575,665.451Z" transform="translate(-379.865 -527.869)" fill="#31d9e7" opacity="0.75"/><path d="M468.741,732.845a.165.165,0,0,1-.143-.083c-12.349-21.437-22.227-48.87-28.34-68.108-6.622-20.842-10.374-36.823-10.411-36.981a.165.165,0,0,1,.321-.075c.037.159,3.786,16.129,10.4,36.959,6.108,19.222,15.977,46.629,28.31,68.04a.165.165,0,0,1-.143.247Z" transform="translate(-421.597 -611.037)" fill="#fff"/></g><g transform="translate(170.741 171.658)"><path d="M223.905,746.9s-13.087,92.65,68.939,99.058C292.844,845.954,292.3,779.554,223.905,746.9Z" transform="translate(-223.14 -746.896)" fill="#31d9e7" opacity="0.7"/><path d="M303.356,878.422a.165.165,0,0,1-.117-.049,219.208,219.208,0,0,1-37.162-51.019,169.612,169.612,0,0,1-10.758-24.287.165.165,0,1,1,.314-.1,169.319,169.319,0,0,0,10.739,24.242,218.874,218.874,0,0,0,37.1,50.933.165.165,0,0,1-.117.281Z" transform="translate(-250.003 -793.619)" fill="url(#a)"/></g><path d="M1817.657,349.427s13.087,92.65-68.939,99.058C1748.718,448.485,1749.259,382.085,1817.657,349.427Z" transform="translate(-1326.278 -243.346)" fill="#31d9e7" opacity="0.63"/><path d="M1684.453,267.983s-21.906-66.311,47.478-137.582C1731.932,130.4,1757.151,218.562,1684.453,267.983Z" transform="translate(-1269.876 -60.456)" fill="#31d9e7"/><g transform="translate(216.789 245.817)"><g transform="translate(46.431 0.544)"><path d="M1121.644,1207.492c-57.181-10.413-98.665-8.681-125.074-4.732a38.841,38.841,0,0,1,1.6,21.275,345.608,345.608,0,0,0,123.788-7.835A4.459,4.459,0,0,0,1121.644,1207.492Z" transform="translate(-961.444 -1199.68)" fill="#7d97f4"/><path d="M818.792,1218.349c-23.562,3.523-35.126,8.811-35.126,8.811l.254,5.91a317.9,317.9,0,0,0,36.468,6.554A38.842,38.842,0,0,0,818.792,1218.349Z" transform="translate(-783.666 -1215.269)" fill="#7d97f4"/></g><path d="M502.244,1210.362s16.423,14.1,31.519,13.308,16.634-7.8,16.19-14.085-6.125-15.165-16.872-12.815C518.233,1200.018,512.089,1210.48,502.244,1210.362Z" transform="translate(-502.244 -1196.384)" fill="#91b3fa"/><path d="M561.936,1299.621a34.723,34.723,0,0,1-10.439-1.812,63.452,63.452,0,0,1-13.967-6.6.165.165,0,1,1,.182-.275A63.088,63.088,0,0,0,551.6,1297.5c7,2.231,16.666,3.474,22.928-3.275a.165.165,0,0,1,.242.224,16.263,16.263,0,0,1-11.058,5.108Q562.845,1299.621,561.936,1299.621Z" transform="translate(-531.646 -1275.315)" fill="#bdd0fb"/><path d="M808.614,1238.746a.165.165,0,0,1-.054-.321c.158-.055,15.972-5.47,29.356-6.48a.165.165,0,1,1,.025.329c-13.341,1.007-29.116,6.409-29.273,6.463A.167.167,0,0,1,808.614,1238.746Z" transform="translate(-757.93 -1226.078)" fill="#fff"/></g><g transform="translate(412.654 144.709)"><path d="M1691.028,590.283c-.522,21.046-2.214,93.64-1.406,119.366a5.165,5.165,0,0,0,5,5c13.479.441,62.893,1.559,84.94.634a8.7,8.7,0,0,0,8.339-8.508c.458-22.09,1.469-84.221-.934-112.684a7.1,7.1,0,0,0-6.37-6.467c-14.68-1.469-64.306-5.058-83.353-3.822A6.651,6.651,0,0,0,1691.028,590.283Z" transform="translate(-1689.407 -583.55)" fill="#47286d"/><path d="M1723.4,635.08c-.726,16.987-3.014,73.5-2.288,94.4a5.913,5.913,0,0,0,5.565,5.7c12.562.735,55.42,2.356,73.845.881a6.645,6.645,0,0,0,6.1-6.272c.934-17.33,3.615-69.951,2.918-90.614a6.533,6.533,0,0,0-5.949-6.283c-13.59-1.22-59.132-4.123-74.789-3.269A5.712,5.712,0,0,0,1723.4,635.08Z" transform="translate(-1715.76 -621.891)" fill="#f17781"/><path d="M1901.142,601.07h0a1.212,1.212,0,0,0,1.148,1.212c3.184.167,12.152.639,16.16.871a1.213,1.213,0,0,0,1.261-1.442l-.026-.133a1.213,1.213,0,0,0-1.08-.979,154.935,154.935,0,0,0-16.3-.743A1.21,1.21,0,0,0,1901.142,601.07Z" transform="translate(-1866.209 -597.138)" fill="url(#b)"/><g transform="translate(14.108 18.179)" opacity="0.42"><path d="M1918.378,884.961l24.749.824-1.728-17.761-23.021-.523Z" transform="translate(-1894.709 -838.832)" fill="#fff"/><path d="M2077.535,888.873l19.326.643.149-17.954-21.205-.482Z" transform="translate(-2026.163 -841.821)" fill="#fff"/><path d="M1859.049,720.547l.156-18.811a4.281,4.281,0,0,0-4.014-4.308l-58.9-3.682a4.281,4.281,0,0,0-4.544,4.082l-.946,21.167Z" transform="translate(-1788.178 -693.738)" fill="#fff"/><path d="M1804.36,865l-18.248-.415-.769,17.212,19.017.633Z" transform="translate(-1783.624 -836.394)" fill="#fff"/><path d="M1776.509,986.653l-1.584,35.455a4.281,4.281,0,0,0,4.168,4.471l61.823,1.57a4.281,4.281,0,0,0,4.39-4.244l.289-34.951Z" transform="translate(-1774.921 -938.326)" fill="#fff"/></g></g><g transform="translate(225.269 110.284)"><path d="M1089.692,1075.685l-4.741,42.521h55.005l-7.165-42.521Z" transform="translate(-997.293 -960.065)" fill="#361e54"/><path d="M553.644,385.757V483.14a14.773,14.773,0,0,0,14.392,14.769c35.569.917,159.972,3.141,193.831,2.642a10.87,10.87,0,0,0,10.7-10.561c.653-22.623,1.713-77.025-2.211-102.282a11.186,11.186,0,0,0-10.7-9.468c-29.8-.953-161.678-3.981-195.522-3.221A10.738,10.738,0,0,0,553.644,385.757Z" transform="translate(-553.644 -374.899)" fill="#47286d"/><path d="M590.681,404.432v92.52a8.559,8.559,0,0,0,8.431,8.558l188.811,2.333a8.33,8.33,0,0,0,8.455-8.3l.316-91.694a6.093,6.093,0,0,0-5.944-6.113l-193.307-3.905A6.6,6.6,0,0,0,590.681,404.432Z" transform="translate(-584.57 -394.047)" fill="#bb83ff"/><path d="M796.964,1067.495h0l-207.119-3.529a.165.165,0,1,1,.005-.33l207.118,3.529a.165.165,0,0,1,0,.33Z" transform="translate(-583.735 -950.004)" fill="#fff" opacity="0.65"/><path d="M1219.008,1089.666a2.32,2.32,0,1,1,2.32-2.32A2.322,2.322,0,0,1,1219.008,1089.666Zm0-4.31a1.99,1.99,0,1,0,1.99,1.99A1.992,1.992,0,0,0,1219.008,1085.356Z" transform="translate(-1107.295 -967.865)" fill="#fff" opacity="0.65"/><g transform="translate(20.08 39.553)" opacity="0.71"><path d="M722.269,680.487H679.193a3.843,3.843,0,0,1-3.844-3.844V620.477a3.843,3.843,0,0,1,3.844-3.844h46.233a3.844,3.844,0,0,1,3.838,4.059l-3.157,56.166A3.843,3.843,0,0,1,722.269,680.487Z" transform="translate(-675.349 -616.304)" fill="#fff" opacity="0.47"/><path d="M737.084,692.374h-1a.33.33,0,1,1,0-.66h1a.255.255,0,0,0,.23-.144.33.33,0,1,1,.592.291A.91.91,0,0,1,737.084,692.374Zm-2.646,0h-1.65a.33.33,0,0,1,0-.66h1.65a.33.33,0,0,1,0,.66Zm-3.3,0h-1.65a.33.33,0,0,1,0-.66h1.65a.33.33,0,0,1,0,.66Zm-3.3,0h-1.65a.33.33,0,0,1,0-.66h1.65a.33.33,0,0,1,0,.66Zm-3.3,0h-1.65a.33.33,0,0,1,0-.66h1.65a.33.33,0,0,1,0,.66Zm-3.3,0h-1.65a.33.33,0,0,1,0-.66h1.65a.33.33,0,0,1,0,.66Zm-3.3,0h-1.65a.33.33,0,0,1,0-.66h1.65a.33.33,0,1,1,0,.66Zm-3.3,0h-1.65a.33.33,0,1,1,0-.66h1.65a.33.33,0,0,1,0,.66Zm-3.3,0h-1.65a.33.33,0,0,1,0-.66h1.65a.33.33,0,0,1,0,.66Zm-3.3,0h-1.65a.33.33,0,0,1,0-.66h1.65a.33.33,0,0,1,0,.66Zm-3.3,0h-1.65a.33.33,0,0,1,0-.66h1.65a.33.33,0,0,1,0,.66Zm-3.3,0h-1.65a.33.33,0,0,1,0-.66h1.65a.33.33,0,0,1,0,.66Zm-3.3,0h-1.65a.33.33,0,0,1,0-.66h1.65a.33.33,0,0,1,0,.66Zm-3.3,0h-.833a.917.917,0,0,1-.917-.916v-.729a.33.33,0,1,1,.66,0v.729a.257.257,0,0,0,.256.256h.833a.33.33,0,0,1,0,.66Zm42.908-1.967h-.019a.33.33,0,0,1-.311-.348l.093-1.647a.33.33,0,0,1,.659.037l-.093,1.647A.33.33,0,0,1,737.749,690.407Zm-44.328-1a.33.33,0,0,1-.33-.33v-1.65a.33.33,0,1,1,.66,0v1.65A.33.33,0,0,1,693.421,689.409Zm44.513-2.3h-.019a.33.33,0,0,1-.311-.348l.093-1.647a.33.33,0,1,1,.659.037l-.093,1.647A.33.33,0,0,1,737.934,687.113Zm-44.513-1a.33.33,0,0,1-.33-.33v-1.65a.33.33,0,0,1,.66,0v1.65A.33.33,0,0,1,693.421,686.109Zm44.7-2.291H738.1a.33.33,0,0,1-.311-.348l.093-1.647a.33.33,0,0,1,.659.037l-.093,1.647A.33.33,0,0,1,738.119,683.818Zm-44.7-1.009a.33.33,0,0,1-.33-.33v-1.65a.33.33,0,1,1,.66,0v1.65A.33.33,0,0,1,693.421,682.81Zm44.883-2.286h-.019a.33.33,0,0,1-.311-.348l.092-1.647a.33.33,0,0,1,.659.037l-.093,1.647A.33.33,0,0,1,738.3,680.524Zm-44.883-1.014a.33.33,0,0,1-.33-.33v-1.65a.33.33,0,0,1,.66,0v1.65A.33.33,0,0,1,693.421,679.51Zm45.068-2.281h-.019a.33.33,0,0,1-.311-.348l.093-1.647a.335.335,0,0,1,.348-.311.33.33,0,0,1,.311.348l-.093,1.647A.33.33,0,0,1,738.489,677.229Zm-45.068-1.019a.33.33,0,0,1-.33-.33v-1.65a.33.33,0,0,1,.66,0v1.65A.33.33,0,0,1,693.421,676.21Zm45.253-2.276h-.019a.33.33,0,0,1-.311-.348l.093-1.647a.334.334,0,0,1,.348-.311.33.33,0,0,1,.311.348L739,673.623A.33.33,0,0,1,738.674,673.935Zm-45.253-1.024a.33.33,0,0,1-.33-.33v-1.65a.33.33,0,0,1,.66,0v1.65A.33.33,0,0,1,693.421,672.911Zm45.439-2.27h-.019a.33.33,0,0,1-.311-.348l.093-1.647a.33.33,0,0,1,.659.037l-.093,1.647A.33.33,0,0,1,738.86,670.64Zm-45.439-1.029a.33.33,0,0,1-.33-.33v-1.65a.33.33,0,0,1,.66,0v1.65A.33.33,0,0,1,693.421,669.611Zm45.624-2.265h-.019a.33.33,0,0,1-.311-.348l.093-1.647a.33.33,0,1,1,.659.037l-.093,1.647A.33.33,0,0,1,739.045,667.346Zm-45.624-1.034a.33.33,0,0,1-.33-.33v-1.65a.33.33,0,0,1,.66,0v1.65A.33.33,0,0,1,693.421,666.311Zm45.809-2.26h-.019a.33.33,0,0,1-.311-.348l.093-1.647a.33.33,0,0,1,.659.037l-.093,1.647A.33.33,0,0,1,739.23,664.051Zm-45.809-1.04a.33.33,0,0,1-.33-.33v-1.65a.33.33,0,0,1,.66,0v1.65A.33.33,0,0,1,693.421,663.011Zm45.994-2.255H739.4a.33.33,0,0,1-.311-.348l.093-1.647a.33.33,0,0,1,.659.037l-.093,1.647A.33.33,0,0,1,739.415,660.757Zm-45.994-1.045a.33.33,0,0,1-.33-.33v-1.65a.33.33,0,0,1,.66,0v1.65A.33.33,0,0,1,693.421,659.712Zm46.179-2.25h-.019a.33.33,0,0,1-.311-.348l.093-1.647a.33.33,0,0,1,.659.037l-.092,1.647A.33.33,0,0,1,739.6,657.462Zm-46.179-1.05a.33.33,0,0,1-.33-.33v-1.65a.33.33,0,1,1,.66,0v1.65A.33.33,0,0,1,693.421,656.412Zm46.365-2.244h-.019a.33.33,0,0,1-.311-.348l.092-1.647a.33.33,0,1,1,.659.037l-.092,1.647A.33.33,0,0,1,739.786,654.168Zm-46.365-1.055a.33.33,0,0,1-.33-.33v-1.65a.33.33,0,0,1,.66,0v1.65A.33.33,0,0,1,693.421,653.112Zm46.55-2.239h-.019a.33.33,0,0,1-.311-.348l.093-1.647a.334.334,0,0,1,.348-.311.33.33,0,0,1,.311.348l-.093,1.647A.33.33,0,0,1,739.971,650.873Zm-46.55-1.061a.33.33,0,0,1-.33-.33v-1.65a.33.33,0,0,1,.66,0v1.65A.33.33,0,0,1,693.421,649.813Zm46.735-2.234h-.019a.33.33,0,0,1-.311-.348l.093-1.647a.334.334,0,0,1,.348-.311.33.33,0,0,1,.311.348l-.093,1.647A.33.33,0,0,1,740.156,647.579Zm-46.735-1.066a.33.33,0,0,1-.33-.33v-1.65a.33.33,0,0,1,.66,0v1.65A.33.33,0,0,1,693.421,646.513Zm46.92-2.229h-.019a.33.33,0,0,1-.311-.348l.092-1.647a.333.333,0,0,1,.348-.311.33.33,0,0,1,.311.348l-.092,1.647A.33.33,0,0,1,740.341,644.284Zm-46.92-1.071a.33.33,0,0,1-.33-.33v-1.65a.33.33,0,0,1,.66,0v1.65A.33.33,0,0,1,693.421,643.213Zm47.105-2.224h-.019a.33.33,0,0,1-.311-.348l.092-1.647a.33.33,0,1,1,.659.037l-.092,1.647A.33.33,0,0,1,740.526,640.99Zm-47.105-1.076a.33.33,0,0,1-.33-.33v-1.65a.33.33,0,0,1,.66,0v1.65A.33.33,0,0,1,693.421,639.913Zm47.29-2.218h-.019a.33.33,0,0,1-.311-.348l.093-1.647a.33.33,0,1,1,.659.037l-.093,1.647A.33.33,0,0,1,740.711,637.7Zm-47.29-1.081a.33.33,0,0,1-.33-.33v-.992a.922.922,0,0,1,.518-.825.33.33,0,1,1,.288.594.259.259,0,0,0-.146.231v.992A.33.33,0,0,1,693.421,636.614Zm46.519-1.579h-1.65a.33.33,0,0,1,0-.66h1.65a.33.33,0,0,1,0,.66Zm-3.3,0h-1.65a.33.33,0,0,1,0-.66h1.65a.33.33,0,0,1,0,.66Zm-3.3,0h-1.65a.33.33,0,0,1,0-.66h1.65a.33.33,0,1,1,0,.66Zm-3.3,0h-1.65a.33.33,0,0,1,0-.66h1.65a.33.33,0,1,1,0,.66Zm-3.3,0h-1.65a.33.33,0,1,1,0-.66h1.65a.33.33,0,0,1,0,.66Zm-3.3,0h-1.65a.33.33,0,0,1,0-.66h1.65a.33.33,0,0,1,0,.66Zm-3.3,0h-1.65a.33.33,0,0,1,0-.66h1.65a.33.33,0,0,1,0,.66Zm-3.3,0h-1.65a.33.33,0,0,1,0-.66h1.65a.33.33,0,0,1,0,.66Zm-3.3,0h-1.65a.33.33,0,0,1,0-.66h1.65a.33.33,0,0,1,0,.66Zm-3.3,0h-1.65a.33.33,0,0,1,0-.66h1.65a.33.33,0,0,1,0,.66Zm-3.3,0h-1.65a.33.33,0,0,1,0-.66h1.65a.33.33,0,0,1,0,.66Zm-3.3,0h-1.65a.33.33,0,0,1,0-.66h1.65a.33.33,0,0,1,0,.66Zm-3.3,0h-1.65a.33.33,0,0,1,0-.66h1.65a.33.33,0,0,1,0,.66Zm-3.3,0h-1.65a.33.33,0,0,1,0-.66h1.65a.33.33,0,0,1,0,.66Z" transform="translate(-690.164 -631.118)" fill="#fff"/><path d="M1084.712,679.147h-1.65a.33.33,0,1,1,0-.66h1.65a3.491,3.491,0,0,0,1.4-.292.33.33,0,1,1,.264.6A4.143,4.143,0,0,1,1084.712,679.147Zm-3.3,0h-1.65a.33.33,0,1,1,0-.66h1.65a.33.33,0,0,1,0,.66Zm-3.3,0h-1.65a.33.33,0,1,1,0-.66h1.65a.33.33,0,1,1,0,.66Zm-3.3,0h-1.65a.33.33,0,1,1,0-.66h1.65a.33.33,0,1,1,0,.66Zm-3.3,0h-1.65a.33.33,0,1,1,0-.66h1.65a.33.33,0,0,1,0,.66Zm-3.3,0h-1.65a.33.33,0,1,1,0-.66h1.65a.33.33,0,1,1,0,.66Zm-3.3,0h-1.65a.33.33,0,1,1,0-.66h1.65a.33.33,0,1,1,0,.66Zm-3.3,0h-1.65a.33.33,0,1,1,0-.66h1.65a.33.33,0,1,1,0,.66Zm-3.3,0h-1.65a.33.33,0,1,1,0-.66h1.65a.33.33,0,1,1,0,.66Zm-3.3,0h-1.65a.33.33,0,0,1,0-.66h1.65a.33.33,0,1,1,0,.66Zm-3.3,0h-1.65a.33.33,0,1,1,0-.66h1.65a.33.33,0,1,1,0,.66Zm-3.3,0h-1.65a.33.33,0,1,1,0-.66h1.65a.33.33,0,1,1,0,.66Zm-3.3,0h-1.65a.33.33,0,0,1,0-.66h1.65a.33.33,0,1,1,0,.66Zm-3.3,0h-1.65a.33.33,0,1,1,0-.66h1.65a.33.33,0,1,1,0,.66Zm-3.3,0h-1.65a.33.33,0,1,1,0-.66h1.65a.33.33,0,1,1,0,.66Zm-3.3,0h-.084a4.145,4.145,0,0,1-1.653-.34.33.33,0,0,1,.262-.606,3.49,3.49,0,0,0,1.391.286h.084a.33.33,0,1,1,0,.66Zm-2.936-1.267a.33.33,0,0,1-.245-.109,4.2,4.2,0,0,1-.884-1.542.33.33,0,1,1,.629-.2,3.543,3.543,0,0,0,.745,1.3.33.33,0,0,1-.245.551Zm55.295-.012a.33.33,0,0,1-.245-.55,3.537,3.537,0,0,0,.739-1.3.33.33,0,0,1,.63.2,4.205,4.205,0,0,1-.878,1.545A.329.329,0,0,1,1087.575,677.868Zm-56.265-3.039h-.019a.33.33,0,0,1-.311-.348l.092-1.647a.33.33,0,0,1,.659.037l-.093,1.647A.33.33,0,0,1,1031.309,674.829Zm57.223-.016a.33.33,0,0,1-.329-.31l-.1-1.647a.33.33,0,0,1,.659-.04l.1,1.647a.33.33,0,0,1-.309.349Zm-57.038-3.279h-.019a.33.33,0,0,1-.311-.348l.093-1.647a.33.33,0,0,1,.659.037l-.093,1.647A.33.33,0,0,1,1031.494,671.535Zm56.837-.015a.33.33,0,0,1-.329-.31l-.1-1.647a.33.33,0,0,1,.659-.04l.1,1.647a.33.33,0,0,1-.309.349Zm-56.652-3.28h-.019a.33.33,0,0,1-.311-.348l.093-1.647a.333.333,0,0,1,.348-.311.33.33,0,0,1,.311.348l-.092,1.647A.33.33,0,0,1,1031.68,668.24Zm56.451-.014a.33.33,0,0,1-.329-.31l-.1-1.647a.33.33,0,0,1,.659-.04l.1,1.647a.33.33,0,0,1-.309.349Zm-56.266-3.281h-.019a.33.33,0,0,1-.311-.348l.092-1.647a.33.33,0,0,1,.659.037l-.093,1.647A.33.33,0,0,1,1031.865,664.946Zm56.065-.013a.33.33,0,0,1-.329-.31l-.1-1.647a.33.33,0,0,1,.659-.04l.1,1.647a.33.33,0,0,1-.309.349Zm-55.88-3.282h-.019a.33.33,0,0,1-.311-.348l.093-1.647a.33.33,0,0,1,.659.037l-.093,1.647A.33.33,0,0,1,1032.05,661.651Zm55.679-.012a.33.33,0,0,1-.329-.31l-.1-1.647a.33.33,0,1,1,.659-.04l.1,1.647a.33.33,0,0,1-.309.349Zm-55.494-3.283h-.019a.33.33,0,0,1-.311-.348l.093-1.647a.33.33,0,0,1,.659.037l-.093,1.647A.33.33,0,0,1,1032.235,658.357Zm55.293-.011a.33.33,0,0,1-.329-.31l-.1-1.647a.33.33,0,0,1,.309-.349.326.326,0,0,1,.349.309l.1,1.647a.33.33,0,0,1-.309.349Zm-55.108-3.284h-.019a.33.33,0,0,1-.311-.348l.093-1.647a.33.33,0,0,1,.659.037l-.093,1.647A.33.33,0,0,1,1032.42,655.062Zm54.907-.01a.33.33,0,0,1-.329-.31l-.1-1.647a.33.33,0,0,1,.309-.349.326.326,0,0,1,.349.309l.1,1.647a.33.33,0,0,1-.309.349Zm-54.722-3.284h-.019a.33.33,0,0,1-.311-.348l.093-1.647a.33.33,0,0,1,.659.037l-.093,1.647A.33.33,0,0,1,1032.605,651.767Zm54.521-.009a.33.33,0,0,1-.329-.31l-.1-1.647a.33.33,0,1,1,.659-.04l.1,1.647a.33.33,0,0,1-.309.349Zm-54.336-3.285h-.019a.33.33,0,0,1-.311-.348l.093-1.647a.334.334,0,0,1,.348-.311.33.33,0,0,1,.311.348l-.093,1.647A.33.33,0,0,1,1032.79,648.473Zm54.135-.008a.33.33,0,0,1-.329-.31l-.1-1.647a.33.33,0,1,1,.659-.04l.1,1.647a.33.33,0,0,1-.309.349Zm-53.95-3.286h-.019a.33.33,0,0,1-.311-.348l.093-1.647a.33.33,0,0,1,.659.037l-.093,1.647A.33.33,0,0,1,1032.976,645.178Zm53.749-.007a.33.33,0,0,1-.329-.31l-.1-1.647a.33.33,0,0,1,.309-.349.326.326,0,0,1,.349.309l.1,1.647a.33.33,0,0,1-.309.349Zm-53.564-3.287h-.019a.33.33,0,0,1-.311-.348l.093-1.647a.33.33,0,1,1,.659.037l-.093,1.647A.33.33,0,0,1,1033.161,641.884Zm53.363-.006a.33.33,0,0,1-.329-.31l-.1-1.647a.33.33,0,1,1,.658-.04l.1,1.647a.33.33,0,0,1-.309.349Zm-53.178-3.288h-.019a.33.33,0,0,1-.311-.348l.093-1.647a.33.33,0,0,1,.659.037l-.093,1.647A.33.33,0,0,1,1033.346,638.589Zm52.977-.006a.33.33,0,0,1-.329-.31l-.1-1.647a.33.33,0,0,1,.659-.04l.1,1.647a.33.33,0,0,1-.309.349Zm-52.792-3.289h-.019a.33.33,0,0,1-.311-.348l.093-1.647a.33.33,0,0,1,.659.037l-.092,1.647A.33.33,0,0,1,1033.531,635.295Zm52.59,0a.33.33,0,0,1-.329-.31l-.1-1.647a.33.33,0,1,1,.659-.04l.1,1.647a.33.33,0,0,1-.309.349ZM1033.716,632h-.019a.33.33,0,0,1-.311-.348l.092-1.647a.33.33,0,0,1,.659.037l-.092,1.647A.33.33,0,0,1,1033.716,632Zm52.2,0a.33.33,0,0,1-.329-.31l-.1-1.647a.33.33,0,1,1,.658-.04l.1,1.647a.33.33,0,0,1-.309.349Zm-52.019-3.291h-.019a.33.33,0,0,1-.311-.348l.093-1.647a.33.33,0,1,1,.659.037l-.093,1.647A.33.33,0,0,1,1033.9,628.706Zm51.818,0a.33.33,0,0,1-.329-.31l-.1-1.647a.33.33,0,1,1,.659-.04l.1,1.647a.33.33,0,0,1-.309.349Zm-51.633-3.292h-.019a.33.33,0,0,1-.311-.348l.093-1.647a.33.33,0,0,1,.659.037l-.093,1.647A.33.33,0,0,1,1034.087,625.411Zm51.432,0a.33.33,0,0,1-.329-.31l-.1-1.647a.33.33,0,0,1,.659-.04l.1,1.647a.33.33,0,0,1-.309.349Zm-51.247-3.293h-.019a.33.33,0,0,1-.311-.348l.093-1.647a.334.334,0,0,1,.348-.311.33.33,0,0,1,.311.348l-.093,1.647A.33.33,0,0,1,1034.272,622.117Zm51.046,0a.33.33,0,0,1-.329-.31l-.1-1.647a.33.33,0,1,1,.659-.04l.1,1.647a.33.33,0,0,1-.309.349Zm-.2-3.293a.33.33,0,0,1-.328-.3,3.485,3.485,0,0,0-.437-1.431.33.33,0,0,1,.576-.323,4.144,4.144,0,0,1,.519,1.7.33.33,0,0,1-.3.356Zm-50.658,0h-.027a.33.33,0,0,1-.3-.356,4.137,4.137,0,0,1,.519-1.7.33.33,0,0,1,.576.323,3.48,3.48,0,0,0-.437,1.431A.33.33,0,0,1,1034.458,618.822Zm49.093-2.79a.33.33,0,0,1-.195-.064,3.474,3.474,0,0,0-1.368-.6.33.33,0,0,1,.131-.647,4.137,4.137,0,0,1,1.626.719.33.33,0,0,1-.2.6Zm-47.529,0a.33.33,0,0,1-.195-.6,4.132,4.132,0,0,1,1.626-.719.33.33,0,0,1,.131.647,3.475,3.475,0,0,0-1.368.6A.329.329,0,0,1,1036.023,616.033Zm44.388-.739h-1.65a.33.33,0,0,1,0-.66h1.65a.33.33,0,0,1,0,.66Zm-3.3,0h-1.65a.33.33,0,0,1,0-.66h1.65a.33.33,0,1,1,0,.66Zm-3.3,0h-1.65a.33.33,0,0,1,0-.66h1.65a.33.33,0,1,1,0,.66Zm-3.3,0h-1.65a.33.33,0,1,1,0-.66h1.65a.33.33,0,1,1,0,.66Zm-3.3,0h-1.65a.33.33,0,1,1,0-.66h1.65a.33.33,0,1,1,0,.66Zm-3.3,0h-1.65a.33.33,0,0,1,0-.66h1.65a.33.33,0,1,1,0,.66Zm-3.3,0h-1.65a.33.33,0,0,1,0-.66h1.65a.33.33,0,0,1,0,.66Zm-3.3,0h-1.65a.33.33,0,0,1,0-.66h1.65a.33.33,0,1,1,0,.66Zm-3.3,0h-1.65a.33.33,0,1,1,0-.66h1.65a.33.33,0,1,1,0,.66Zm-3.3,0h-1.65a.33.33,0,1,1,0-.66h1.65a.33.33,0,1,1,0,.66Zm-3.3,0h-1.65a.33.33,0,1,1,0-.66h1.65a.33.33,0,0,1,0,.66Zm-3.3,0h-1.65a.33.33,0,0,1,0-.66h1.65a.33.33,0,0,1,0,.66Zm-3.3,0h-1.65a.33.33,0,1,1,0-.66h1.65a.33.33,0,0,1,0,.66Z" transform="translate(-972.305 -614.634)" fill="#fff"/><path d="M1461.309,679.147h-1.65a.33.33,0,1,1,0-.66h1.65a.33.33,0,0,1,0,.66Zm-3.3,0h-1.65a.33.33,0,0,1,0-.66h1.65a.33.33,0,0,1,0,.66Zm-3.3,0h-1.65a.33.33,0,1,1,0-.66h1.65a.33.33,0,1,1,0,.66Zm-3.3,0h-1.65a.33.33,0,1,1,0-.66h1.65a.33.33,0,0,1,0,.66Zm-3.3,0h-1.65a.33.33,0,0,1,0-.66h1.65a.33.33,0,1,1,0,.66Zm-3.3,0h-1.65a.33.33,0,1,1,0-.66h1.65a.33.33,0,1,1,0,.66Zm-3.3,0h-1.65a.33.33,0,1,1,0-.66h1.65a.33.33,0,0,1,0,.66Zm-3.3,0h-1.65a.33.33,0,0,1,0-.66h1.65a.33.33,0,1,1,0,.66Zm-3.3,0h-1.65a.33.33,0,0,1,0-.66h1.65a.33.33,0,1,1,0,.66Zm-3.3,0h-1.65a.33.33,0,0,1,0-.66h1.65a.33.33,0,0,1,0,.66Zm-3.3,0h-1.65a.33.33,0,0,1,0-.66h1.65a.33.33,0,1,1,0,.66Zm-3.3,0h-1.65a.33.33,0,1,1,0-.66h1.65a.33.33,0,1,1,0,.66Zm-3.3,0h-1.65a.33.33,0,0,1,0-.66h1.65a.33.33,0,0,1,0,.66Zm-3.3,0h-1.65a.33.33,0,0,1,0-.66h1.65a.33.33,0,1,1,0,.66Zm-3.3,0h-.487a4.173,4.173,0,0,1-1.244-.189.33.33,0,0,1,.2-.63,3.516,3.516,0,0,0,1.048.159h.487a.33.33,0,0,1,0,.66Zm46.947-.073a.33.33,0,0,1-.064-.654,3.471,3.471,0,0,0,1.371-.6.33.33,0,0,1,.387.535,4.126,4.126,0,0,1-1.63.711A.331.331,0,0,1,1462.06,679.074Zm-50-.911a.328.328,0,0,1-.22-.084,4.2,4.2,0,0,1-1.04-1.441.33.33,0,0,1,.605-.263,3.542,3.542,0,0,0,.875,1.213.33.33,0,0,1-.221.575Zm52.594-.963a.33.33,0,0,1-.287-.493,3.479,3.479,0,0,0,.444-1.429.33.33,0,1,1,.657.056,4.122,4.122,0,0,1-.527,1.7A.33.33,0,0,1,1464.653,677.2Zm-53.882-1.969a.33.33,0,0,1-.329-.31l-.1-1.647a.33.33,0,0,1,.659-.04l.1,1.647a.33.33,0,0,1-.309.349Zm54.381-1.243a.33.33,0,0,1-.33-.33v-1.65a.33.33,0,1,1,.66,0v1.65A.33.33,0,0,1,1465.153,673.987Zm-54.582-2.05a.33.33,0,0,1-.329-.31l-.1-1.647a.33.33,0,1,1,.658-.04l.1,1.647a.33.33,0,0,1-.309.349Zm54.582-1.249a.33.33,0,0,1-.33-.33v-1.65a.33.33,0,1,1,.66,0v1.65A.33.33,0,0,1,1465.153,670.688Zm-54.783-2.044a.33.33,0,0,1-.329-.31l-.1-1.647a.33.33,0,1,1,.658-.04l.1,1.647a.33.33,0,0,1-.309.349Zm54.783-1.255a.33.33,0,0,1-.33-.33v-1.65a.33.33,0,1,1,.66,0v1.65A.33.33,0,0,1,1465.153,667.388Zm-54.984-2.038a.33.33,0,0,1-.329-.31l-.1-1.647a.33.33,0,0,1,.309-.349.326.326,0,0,1,.349.309l.1,1.647a.33.33,0,0,1-.309.349Zm54.984-1.261a.33.33,0,0,1-.33-.33v-1.65a.33.33,0,1,1,.66,0v1.65A.33.33,0,0,1,1465.153,664.088Zm-55.185-2.032a.33.33,0,0,1-.329-.31l-.1-1.647a.33.33,0,0,1,.309-.349.326.326,0,0,1,.35.309l.1,1.647a.329.329,0,0,1-.309.349Zm55.185-1.268a.33.33,0,0,1-.33-.33v-1.65a.33.33,0,1,1,.66,0v1.65A.33.33,0,0,1,1465.153,660.788Zm-55.386-2.026a.33.33,0,0,1-.329-.31l-.1-1.647a.33.33,0,0,1,.659-.04l.1,1.647a.33.33,0,0,1-.309.349Zm55.386-1.274a.33.33,0,0,1-.33-.33v-1.65a.33.33,0,1,1,.66,0v1.65A.33.33,0,0,1,1465.153,657.489Zm-55.587-2.02a.33.33,0,0,1-.329-.31l-.1-1.647a.33.33,0,1,1,.659-.04l.1,1.647a.33.33,0,0,1-.309.349Zm55.587-1.28a.33.33,0,0,1-.33-.33v-1.65a.33.33,0,1,1,.66,0v1.65A.33.33,0,0,1,1465.153,654.189Zm-55.788-2.014a.33.33,0,0,1-.329-.31l-.1-1.647a.33.33,0,1,1,.659-.04l.1,1.647a.33.33,0,0,1-.309.349Zm55.788-1.286a.33.33,0,0,1-.33-.33v-1.65a.33.33,0,1,1,.66,0v1.65A.33.33,0,0,1,1465.153,650.889Zm-55.989-2.008a.33.33,0,0,1-.329-.31l-.1-1.647a.33.33,0,1,1,.659-.04l.1,1.647a.33.33,0,0,1-.309.349Zm55.989-1.292a.33.33,0,0,1-.33-.33v-1.65a.33.33,0,1,1,.66,0v1.65A.33.33,0,0,1,1465.153,647.59Zm-56.19-2a.33.33,0,0,1-.329-.31l-.1-1.647a.33.33,0,0,1,.659-.04l.1,1.647a.33.33,0,0,1-.309.349Zm56.19-1.3a.33.33,0,0,1-.33-.33v-1.65a.33.33,0,1,1,.66,0v1.65A.33.33,0,0,1,1465.153,644.29Zm-56.391-2a.33.33,0,0,1-.329-.31l-.1-1.647a.33.33,0,1,1,.658-.04l.1,1.647a.33.33,0,0,1-.309.349Zm56.391-1.3a.33.33,0,0,1-.33-.33v-1.65a.33.33,0,1,1,.66,0v1.65A.33.33,0,0,1,1465.153,640.99ZM1408.561,639a.33.33,0,0,1-.329-.31l-.1-1.647a.33.33,0,1,1,.658-.04l.1,1.647a.33.33,0,0,1-.309.349Zm56.591-1.31a.33.33,0,0,1-.33-.33v-1.65a.33.33,0,1,1,.66,0v1.65A.33.33,0,0,1,1465.153,637.69Zm-56.792-1.983a.33.33,0,0,1-.329-.31l-.1-1.647a.33.33,0,0,1,.659-.04l.1,1.647a.33.33,0,0,1-.309.349Zm56.792-1.317a.33.33,0,0,1-.33-.33v-1.65a.33.33,0,1,1,.66,0v1.65A.33.33,0,0,1,1465.153,634.391Zm-56.993-1.977a.329.329,0,0,1-.329-.31l-.1-1.647a.33.33,0,0,1,.659-.04l.1,1.647a.33.33,0,0,1-.309.35Zm56.993-1.323a.33.33,0,0,1-.33-.33v-1.65a.33.33,0,1,1,.66,0v1.65A.33.33,0,0,1,1465.153,631.091Zm-57.194-1.971a.33.33,0,0,1-.329-.31l-.1-1.647a.33.33,0,0,1,.659-.04l.1,1.647a.33.33,0,0,1-.309.349Zm57.194-1.329a.33.33,0,0,1-.33-.33v-1.65a.33.33,0,1,1,.66,0v1.65A.33.33,0,0,1,1465.153,627.791Zm-57.4-1.965a.33.33,0,0,1-.329-.31l-.1-1.647a.33.33,0,1,1,.658-.04l.1,1.647a.33.33,0,0,1-.309.349Zm57.4-1.335a.33.33,0,0,1-.33-.33v-1.65a.33.33,0,1,1,.66,0v1.65A.33.33,0,0,1,1465.153,624.492Zm-57.6-1.959a.33.33,0,0,1-.329-.31l-.1-1.647a.33.33,0,1,1,.658-.04l.1,1.647a.33.33,0,0,1-.309.349Zm57.6-1.341a.33.33,0,0,1-.33-.33v-1.65a.33.33,0,1,1,.66,0v1.65A.33.33,0,0,1,1465.153,621.192Zm-57.794-1.953a.33.33,0,0,1-.33-.321c0-.039,0-.077,0-.115a4.134,4.134,0,0,1,.333-1.631.33.33,0,0,1,.607.259,3.474,3.474,0,0,0-.28,1.372c0,.032,0,.065,0,.1a.33.33,0,0,1-.321.339Zm57.6-1.325a.33.33,0,0,1-.313-.225,3.533,3.533,0,0,0-.768-1.284.33.33,0,1,1,.481-.451,4.2,4.2,0,0,1,.912,1.526.33.33,0,0,1-.313.435Zm-56.342-1.617a.33.33,0,0,1-.223-.574,4.134,4.134,0,0,1,1.538-.891.33.33,0,1,1,.2.628,3.479,3.479,0,0,0-1.294.75A.329.329,0,0,1,1408.611,616.3Zm54.155-.717a.33.33,0,0,1-.125-.025,3.5,3.5,0,0,0-1.332-.261h-.155a.33.33,0,0,1,0-.66h.155a4.149,4.149,0,0,1,1.582.31.33.33,0,0,1-.125.635Zm-3.262-.286h-1.65a.33.33,0,1,1,0-.66h1.65a.33.33,0,0,1,0,.66Zm-3.3,0h-1.65a.33.33,0,0,1,0-.66h1.65a.33.33,0,0,1,0,.66Zm-3.3,0h-1.65a.33.33,0,1,1,0-.66h1.65a.33.33,0,1,1,0,.66Zm-3.3,0h-1.65a.33.33,0,1,1,0-.66h1.65a.33.33,0,0,1,0,.66Zm-3.3,0h-1.65a.33.33,0,1,1,0-.66h1.65a.33.33,0,0,1,0,.66Zm-3.3,0h-1.65a.33.33,0,1,1,0-.66h1.65a.33.33,0,1,1,0,.66Zm-3.3,0h-1.65a.33.33,0,1,1,0-.66h1.65a.33.33,0,0,1,0,.66Zm-3.3,0h-1.65a.33.33,0,1,1,0-.66h1.65a.33.33,0,1,1,0,.66Zm-3.3,0h-1.65a.33.33,0,1,1,0-.66h1.65a.33.33,0,1,1,0,.66Zm-3.3,0h-1.65a.33.33,0,1,1,0-.66h1.65a.33.33,0,1,1,0,.66Zm-3.3,0h-1.65a.33.33,0,0,1,0-.66h1.65a.33.33,0,1,1,0,.66Zm-3.3,0h-1.65a.33.33,0,1,1,0-.66h1.65a.33.33,0,1,1,0,.66Zm-3.3,0h-1.65a.33.33,0,0,1,0-.66h1.65a.33.33,0,1,1,0,.66Zm-3.3,0h-1.65a.33.33,0,0,1,0-.66h1.65a.33.33,0,1,1,0,.66Zm-3.3,0h-1.65a.33.33,0,1,1,0-.66h1.65a.33.33,0,1,1,0,.66Z" transform="translate(-1286.31 -614.634)" fill="#fff"/></g><path d="M847.8,1045.445c-21.867-10.855-38.737-27.932-40.619-63.663C807.18,981.782,864.1,1000.784,847.8,1045.445Z" transform="translate(-765.35 -881.655)" fill="#91b3fa"/><path d="M822.41,1251.148c-15.37,1.418-30.116-2.17-42.99-20.771C779.42,1230.377,816.352,1221.707,822.41,1251.148Z" transform="translate(-742.17 -1088.24)" fill="#bdd0fb"/><path d="M1419.694,1000.432c-10.247-22.159-12.7-46.038,8.214-75.07C1427.908,925.362,1460.372,975.825,1419.694,1000.432Z" transform="translate(-1270.396 -834.543)" fill="#91b3fa"/><path d="M1065.139,1325.812h-80.5c-2.187,0-3.829-1.557-3.406-3.229l1.033-4.085a3.331,3.331,0,0,1,3.268-2.181l77.609-2.422a3.432,3.432,0,0,1,3.528,2.115l1.862,6.507C1069.012,1324.207,1067.361,1325.812,1065.139,1325.812Z" transform="translate(-910.627 -1158.972)" fill="#47286d"/><path d="M1264.048,1332.785a.165.165,0,0,1,0-.33l3.326-.049a.165.165,0,0,1,0,.33l-3.326.049Z" transform="translate(-1146.703 -1174.431)" fill="#91b3fa"/><path d="M998.794,1339.541l-.026,0a.165.165,0,0,1-.137-.189l.474-2.971a3.217,3.217,0,0,1,3.136-2.714l35.273-.516a.165.165,0,0,1,0,.33l-35.273.516a2.888,2.888,0,0,0-2.815,2.436l-.474,2.971A.165.165,0,0,1,998.794,1339.541Z" transform="translate(-925.213 -1175.05)" fill="#91b3fa"/><path d="M881.845,1088.8a.166.166,0,0,1-.156-.11,115.364,115.364,0,0,0-18.494-33.232,89.815,89.815,0,0,0-10.948-11.713.165.165,0,1,1,.212-.253,90.1,90.1,0,0,1,10.988,11.753A115.7,115.7,0,0,1,882,1088.581a.165.165,0,0,1-.1.21A.169.169,0,0,1,881.845,1088.8Z" transform="translate(-802.932 -933.151)" fill="#bdd0fb"/><path d="M1474.058,1030.28a.165.165,0,0,1-.157-.215c7.689-24.086,5.511-52.277,5.488-52.559a.165.165,0,1,1,.329-.027,159.435,159.435,0,0,1,.173,17.183c-.366,9.231-1.647,22.884-5.676,35.5A.165.165,0,0,1,1474.058,1030.28Z" transform="translate(-1322.065 -877.936)" fill="#bdd0fb"/><path d="M842.306,1260.986a.166.166,0,0,1-.126-.058c-8.7-10.26-28.155-13.567-28.351-13.6a.165.165,0,1,1,.053-.326,72.837,72.837,0,0,1,10.937,2.926c5.5,1.932,13.02,5.372,17.613,10.786a.165.165,0,0,1-.126.272Z" transform="translate(-770.786 -1103.116)" fill="url(#a)"/></g><g transform="translate(444.974 183.709)"><g transform="translate(0 0)"><g opacity="0.36"><ellipse cx="22.36" cy="22.771" rx="22.36" ry="22.771" transform="translate(0 29.506) rotate(-41.284)" fill="#bdd0fb"/></g><path d="M1969.966,869.418a24.885,24.885,0,1,0-1.979,35.456A25.112,25.112,0,0,0,1969.966,869.418Zm-34.647,30.42a21.229,21.229,0,1,1,30.212,2.239A21.423,21.423,0,0,1,1935.32,899.838Z" transform="translate(-1919.444 -853.969)" fill="#47286d"/><g transform="translate(14.109 8.366)"><path d="M2011.589,890.848a.082.082,0,0,1-.081-.069,23.753,23.753,0,0,0-5.62-11.87,23.428,23.428,0,0,0-25.23-6.864h0a22.653,22.653,0,0,0-4.369,2.037.083.083,0,0,1-.085-.141,22.837,22.837,0,0,1,4.4-2.052h0a23.325,23.325,0,0,1,13.516-.463,24.056,24.056,0,0,1,17.55,19.326.082.082,0,0,1-.068.095ZM1970.9,878.554a.082.082,0,0,1-.062-.137c.391-.443.805-.877,1.232-1.29a.082.082,0,0,1,.115.118c-.423.411-.835.842-1.223,1.281A.083.083,0,0,1,1970.9,878.554Z" transform="translate(-1970.821 -870.644)" fill="#91b3fa"/></g></g><g transform="translate(29.057 55.131)"><path d="M2063.79,1154.1l-2.363,49.031a3.532,3.532,0,0,0,3.632,3.7l.338-.01a3.283,3.283,0,0,0,3.184-3.4l-1.78-49.318Z" transform="translate(-2061.423 -1154.098)" fill="#361e54"/><path d="M2070.613,1423.574a2.252,2.252,0,0,1-.786-.146,2.655,2.655,0,0,1-1.689-2.588l.151-5.943a.085.085,0,0,1,.084-.081.083.083,0,0,1,.08.085l-.151,5.943a2.491,2.491,0,0,0,1.581,2.429c.964.356,1.93,0,2.875-1.055a.082.082,0,1,1,.123.11A3.129,3.129,0,0,1,2070.613,1423.574Z" transform="translate(-2067.03 -1371.802)" fill="#361e54"/><path d="M2069.423,1399.984h0a.083.083,0,0,1-.08-.085l.02-.77a.085.085,0,0,1,.085-.081.083.083,0,0,1,.08.085l-.02.77A.082.082,0,0,1,2069.423,1399.984Z" transform="translate(-2068.034 -1358.635)" fill="#361e54"/></g></g><g transform="translate(208.431 278.377)"><path d="M451.583,1411.883l23.81-15.9a10.006,10.006,0,0,1,5.437-1.686c21.621-.265,154.883-1.749,185.714,1.522a7.429,7.429,0,0,1,4.05,1.752l16.7,14.314Z" transform="translate(-451.583 -1393.73)" fill="#47286d"/><path d="M452.186,1505.783l-.6-2.027H687.291l-1,1.9a3.982,3.982,0,0,1-3.526,2.13H454.872A2.8,2.8,0,0,1,452.186,1505.783Z" transform="translate(-451.583 -1485.603)" fill="#361e54"/><path d="M538.345,1422.4l12.556-8.78a6.647,6.647,0,0,1,3.836-1.2l177.625.733a9.879,9.879,0,0,1,6.465,2.444l6.566,5.746a1.33,1.33,0,0,1-.869,2.331l-205.41,1.145A1.33,1.33,0,0,1,538.345,1422.4Z" transform="translate(-523.554 -1409.339)" fill="#47286d"/><g transform="translate(14.67 2.8)"><g transform="translate(190.182 0.665)"><path d="M1703.057,1417.6a2.7,2.7,0,0,0,.615-.033c-.02-.017.308-.159,0-.343l-5.861-2.014a8.667,8.667,0,0,0-1.292-.123l-3.005-.35c-.358,0-.378.561-.15.837l1.271,1.539a1.57,1.57,0,0,0,1.066.5Z" transform="translate(-1693.213 -1414.733)" fill="#bb83ff"/></g><g transform="translate(176.994 4.544)"><path d="M1625.574,1439.056a1.569,1.569,0,0,0-1.066-.5l-10.927-.31c-.358,0-.372.578-.175.878l.965,1.466a1.349,1.349,0,0,0,1.01.543l11.237-.023c.358,0,.495-.53.267-.807Z" transform="translate(-1613.279 -1438.245)" fill="#bb83ff"/></g><g transform="translate(174.407 0.603)"><path d="M1610.341,1417.306c.358,0,.5-.517.276-.793l-1.332-1.275a1.583,1.583,0,0,0-1.066-.505l-10.306-.377c-.358,0-.39.577-.193.876l1.022,1.553a1.349,1.349,0,0,0,1.01.543Z" transform="translate(-1597.599 -1414.355)" fill="#bb83ff"/></g><g transform="translate(148.451 4.678)"><path d="M1450.888,1439.871a1.175,1.175,0,0,0-.951-.577l-9.317-.238c-.358,0-.4.533-.276.87l.482,1.331a1,1,0,0,0,.873.611l9.561-.02c.358,0,.547-.532.382-.85Z" transform="translate(-1440.282 -1439.056)" fill="#bb83ff"/></g><g transform="translate(162.617 4.583)"><path d="M1536.75,1439.328a1.35,1.35,0,0,0-1.009-.543l-9.3-.3c-.358,0-.363.584-.2.9l.724,1.4a1.176,1.176,0,0,0,.951.577l9.5-.019c.358,0,.49-.589.293-.888Z" transform="translate(-1526.14 -1438.481)" fill="#bb83ff"/></g><g transform="translate(119.246 0.711)"><path d="M1274,1417.969c.358,0,.6-.509.526-.858l-.378-1.423a.855.855,0,0,0-.792-.639l-9.472-.039a.613.613,0,0,0-.62.648l.082,1.683a.691.691,0,0,0,.683.649Z" transform="translate(-1263.263 -1415.01)" fill="#bb83ff"/></g><g transform="translate(133.433 0.593)"><path d="M1359.528,1417.344c.358,0,.581-.507.459-.843l-.611-1.379a1,1,0,0,0-.873-.615l-8.91-.212c-.358,0-.381.46-.3.81l.359,1.624a.849.849,0,0,0,.792.635Z" transform="translate(-1349.253 -1414.295)" fill="#bb83ff"/></g><g transform="translate(146.965 0.593)"><path d="M1441.739,1417.316c.358,0,.542-.546.377-.864l-.85-1.31a1.186,1.186,0,0,0-.951-.581l-8.7-.267c-.358,0-.408.5-.286.842l.574,1.587a1,1,0,0,0,.873.611Z" transform="translate(-1431.272 -1414.295)" fill="#bb83ff"/></g><g transform="translate(160.538 0.595)"><path d="M1524.362,1417.3c.358,0,.49-.589.293-.888l-1.037-1.234a1.361,1.361,0,0,0-1.01-.547l-8.753-.321c-.358,0-.385.543-.22.861l.813,1.571a1.175,1.175,0,0,0,.951.577Z" transform="translate(-1513.538 -1414.308)" fill="#bb83ff"/></g><g transform="translate(119.454 4.973)"><path d="M1276.135,1441.477a.848.848,0,0,0-.792-.635l-10.2.021a.618.618,0,0,0-.62.652l.061,1.257a.691.691,0,0,0,.683.649l10.636-.022c.358,0,.6-.459.523-.809Z" transform="translate(-1264.527 -1440.842)" fill="#bb83ff"/></g><g transform="translate(4.003 4.859)"><path d="M581.258,1440.96c.248-.259.219-.808-.139-.808l-12.383.364a2.442,2.442,0,0,0-1.185.375l-2.6,1.477c-.294.205-.241.715.117.715l13.537-.028a1.757,1.757,0,0,0,1.1-.472Z" transform="translate(-564.759 -1440.152)" fill="#bb83ff"/></g><g transform="translate(23.326 4.827)"><path d="M694.59,1440.808c.222-.281.172-.849-.186-.848l-9.727.358a1.759,1.759,0,0,0-1.1.472l-1.553,1.279c-.248.259-.157.813.2.812l10.093-.021a1.531,1.531,0,0,0,1.056-.512Z" transform="translate(-681.882 -1439.96)" fill="#bb83ff"/></g><g transform="translate(105.641 0.655)"><path d="M1190.609,1417.72a.618.618,0,0,0,.62-.652l-.083-1.7a.7.7,0,0,0-.683-.653l-8.765-.036a.733.733,0,0,0-.716.645l-.177,1.771a.578.578,0,0,0,.587.647Z" transform="translate(-1180.801 -1414.676)" fill="#bb83ff"/></g><g transform="translate(193.343 4.549)"><path d="M1713.819,1440.621a1.57,1.57,0,0,0,1.066.5l8.575-.018a.385.385,0,0,0,.253-.677l-2.028-1.448a2.009,2.009,0,0,0-1.142-.428l-7.886-.278c-.358,0-.346.521-.118.8Z" transform="translate(-1712.376 -1438.274)" fill="#bb83ff"/></g><g transform="translate(70.716 4.827)"><path d="M982.974,1440.827c.093-.346.04-.868-.318-.867l-11.906.264a1.1,1.1,0,0,0-.92.595l-.667,1.185a.552.552,0,0,0,.428.781l12.212-.025a.9.9,0,0,0,.821-.63Z" transform="translate(-969.115 -1439.96)" fill="#bb83ff"/></g><g transform="translate(87.559 5.031)"><path d="M1085.758,1441.845a.578.578,0,0,0-.587-.647l-12.753.026a.9.9,0,0,0-.821.63l-.37,1.135c-.093.346.142.8.5.795l13.187-.027a.739.739,0,0,0,.716-.649Z" transform="translate(-1071.207 -1441.198)" fill="#bb83ff"/></g><g transform="translate(105.255 5.003)"><path d="M1189.4,1441.673a.691.691,0,0,0-.683-.649l-9.411.019a.739.739,0,0,0-.716.65l-.126,1.262a.578.578,0,0,0,.587.647l9.791-.02a.618.618,0,0,0,.62-.652Z" transform="translate(-1178.46 -1441.024)" fill="#bb83ff"/></g><g transform="translate(55.657 4.827)"><path d="M890.039,1440.826c.148-.326.111-.866-.247-.866l-9.982.294a1.288,1.288,0,0,0-.988.559l-.9,1.237c-.185.307-.016.766.342.765l10.233-.021a1.1,1.1,0,0,0,.92-.595Z" transform="translate(-877.845 -1439.96)" fill="#bb83ff"/></g><g transform="translate(134.362 4.786)"><path d="M1365.575,1440.483a1,1,0,0,0-.873-.611l-9.47-.157c-.358,0-.39.464-.312.814l.284,1.285a.848.848,0,0,0,.792.635l9.632-.02c.358,0,.581-.508.459-.845Z" transform="translate(-1354.884 -1439.714)" fill="#bb83ff"/></g><g transform="translate(38.861 4.827)"><path d="M790,1440.821c.185-.307.128-.861-.231-.861l-11.345.327a1.532,1.532,0,0,0-1.056.512l-1.218,1.2c-.222.281-.111.853.247.852l11.741-.024a1.288,1.288,0,0,0,.988-.559Z" transform="translate(-776.038 -1439.96)" fill="#bb83ff"/></g><g transform="translate(119.642 8.832)"><path d="M1266.286,1464.257a.618.618,0,0,0-.62.652l.091,1.864a.688.688,0,0,0,.683.647l11.4-.063c.358,0,.6-.476.526-.826l-.423-1.661a.848.848,0,0,0-.792-.635Z" transform="translate(-1265.665 -1464.235)" fill="#bb83ff"/></g><g transform="translate(104.803 8.864)"><path d="M1176.632,1464.446a.739.739,0,0,0-.716.65l-.192,1.923a.575.575,0,0,0,.587.645l10.461-.058a.62.62,0,0,0,.62-.654l-.091-1.875a.691.691,0,0,0-.683-.649Z" transform="translate(-1175.72 -1464.426)" fill="#bb83ff"/></g><g transform="translate(135.217 8.583)"><path d="M1360.423,1462.726c-.358,0-.4.527-.325.877l.405,1.835a.845.845,0,0,0,.792.633l10.239-.057c.358,0,.583-.5.461-.838l-.7-1.619a1,1,0,0,0-.873-.611Z" transform="translate(-1360.065 -1462.726)" fill="#bb83ff"/></g><g transform="translate(88.599 0.587)"><path d="M1090.563,1417.4a.739.739,0,0,0,.716-.649l.179-1.791a.582.582,0,0,0-.587-.651l-11.985-.05a.9.9,0,0,0-.821.626l-.537,1.74c-.093.346.145.8.5.8Z" transform="translate(-1077.508 -1414.261)" fill="#bb83ff"/></g><g transform="translate(164.622 8.519)"><path d="M1538.611,1462.335c-.359,0-.386.506-.222.824l.954,1.842a1.17,1.17,0,0,0,.951.575l10.077-.056c.358,0,.526-.528.329-.828l-1.266-1.59a1.349,1.349,0,0,0-1.009-.543Z" transform="translate(-1538.292 -1462.335)" fill="#bb83ff"/></g><g transform="translate(179.531 8.4)"><path d="M1628.958,1461.617c-.358,0-.372.578-.176.877l1.221,1.856a1.342,1.342,0,0,0,1.009.541l11.911-.066c.358,0,.5-.527.271-.8l-1.6-1.6a1.57,1.57,0,0,0-1.066-.5Z" transform="translate(-1628.656 -1461.617)" fill="#bb83ff"/></g><g transform="translate(196.535 8.366)"><path d="M1742.454,1462.553c-.209.073-1-.83-1.355-.829l-9.086-.313c-.358,0-.366.559-.138.835l1.55,1.877a1.561,1.561,0,0,0,1.066.5l6.343-.036a2.109,2.109,0,0,0,.941-.283.664.664,0,0,0,.282-.347l.4-1.061C1742.4,1462.542,1742.48,1462.544,1742.454,1462.553Z" transform="translate(-1731.721 -1461.411)" fill="#bb83ff"/></g><g transform="translate(149.86 8.46)"><path d="M1449.2,1461.979c-.358,0-.454.61-.332.947l.662,1.829a.991.991,0,0,0,.873.609l10.218-.057c.358,0,.546-.541.381-.859l-.99-1.578a1.175,1.175,0,0,0-.951-.577Z" transform="translate(-1448.819 -1461.979)" fill="#bb83ff"/></g><g transform="translate(57.97 0.18)"><path d="M901.949,1415.411a1.1,1.1,0,0,0,.92-.595l.952-2.1c.148-.326.094-.917-.264-.919l-9.232.285a1.278,1.278,0,0,0-.988.555l-1.406,2.01a.52.52,0,0,0,.369.786Z" transform="translate(-891.86 -1411.795)" fill="#bb83ff"/></g><g transform="translate(41.885 0.18)"><path d="M805.781,1415.442a1.287,1.287,0,0,0,.988-.559l1.367-2.263c.185-.307.177-.823-.181-.824l-10.461.221a1.518,1.518,0,0,0-1.055.508l-1.967,2.154c-.222.281-.065.786.293.786Z" transform="translate(-794.369 -1411.795)" fill="#bb83ff"/></g><g transform="translate(26.993 0.059)"><path d="M713.93,1414.862a1.531,1.531,0,0,0,1.055-.512l1.942-2.455c.222-.281.23-.832-.128-.834l-8.927.284a1.742,1.742,0,0,0-1.1.468l-2.541,2.321a.44.44,0,0,0,.254.749Z" transform="translate(-704.104 -1411.06)" fill="#bb83ff"/></g><g transform="translate(52.835 8.747)"><path d="M863.189,1463.959a1.293,1.293,0,0,0-.988.561l-1.383,2.292c-.185.307-.044.556.315.554l54.138-.281a1.109,1.109,0,0,0,.92-.6l.985-2.176a.387.387,0,0,0-.383-.591Z" transform="translate(-860.736 -1463.721)" fill="#bb83ff"/></g><g transform="translate(72.473 0.348)"><path d="M991.737,1416.23a.9.9,0,0,0,.821-.63l.521-1.933c.094-.346.036-.85-.322-.851l-11.044.174a1.1,1.1,0,0,0-.92.591l-.979,1.844c-.148.326.061.83.42.829Z" transform="translate(-979.765 -1412.815)" fill="#bb83ff"/></g><g transform="translate(9.485)"><path d="M610.053,1414.594a1.759,1.759,0,0,0,1.1-.472l2.515-2.628c.248-.259.248-.791-.111-.792l-7.892.287a10.13,10.13,0,0,0-1.3.1l-2.607.815a10.045,10.045,0,0,0-1.119.66l-2.5,1.413a.352.352,0,0,0,.2.646Z" transform="translate(-597.988 -1410.703)" fill="#bb83ff"/></g><g transform="translate(35.084 8.747)"><path d="M756.255,1464a1.529,1.529,0,0,0-1.055.512l-1.937,2.449c-.222.281-.111.509.247.507l12.665-.071a1.294,1.294,0,0,0,.988-.561l1.392-2.305c.185-.307.168-.807-.19-.806Z" transform="translate(-753.148 -1463.721)" fill="#bb83ff"/></g><g transform="translate(18.697 9.033)"><path d="M657.546,1465.474a1.757,1.757,0,0,0-1.1.472l-2.478,2.589c-.248.259-.157.469.2.467l10.934-.061a1.538,1.538,0,0,0,1.055-.515l1.948-2.464c.222-.281.111-.51-.247-.51Z" transform="translate(-653.826 -1465.453)" fill="#bb83ff"/></g><g transform="translate(0 8.729)"><path d="M542.937,1463.977a2.434,2.434,0,0,0-1.182.375l-1.063.746c-.247.173-.174.292-.191.534a.914.914,0,0,0,.038.338l.2.637a1.338,1.338,0,0,0,.9.9,1.522,1.522,0,0,0,.394.058l11.66-.065a1.769,1.769,0,0,0,1.1-.474l2.494-2.605c.248-.259.243-.807-.115-.806Z" transform="translate(-540.499 -1463.611)" fill="#bb83ff"/></g></g><g transform="translate(14.682 2.744)"><g transform="translate(190.199 0.716)"><path d="M1703.205,1417.227a2.693,2.693,0,0,0,.615-.033c-.02-.018-.288-.182-.6-.365l-5.265-1.991a8.652,8.652,0,0,0-1.292-.123l-2.919-.012c-.358,0-.465.224-.237.5l1.271,1.539a1.57,1.57,0,0,0,1.066.5Z" transform="translate(-1693.391 -1414.702)" fill="#d8bafe"/></g><g transform="translate(177.017 4.568)"><path d="M1625.754,1438.548a1.569,1.569,0,0,0-1.066-.5l-10.808.022c-.358,0-.49.246-.293.546l.965,1.466a1.349,1.349,0,0,0,1.01.543l11.237-.023c.358,0,.465-.227.237-.5Z" transform="translate(-1613.494 -1438.047)" fill="#d8bafe"/></g><g transform="translate(174.424 0.651)"><path d="M1610.487,1416.924c.358,0,.465-.227.237-.5l-1.292-1.565a1.584,1.584,0,0,0-1.066-.5l-10.206-.042c-.358,0-.49.242-.293.542l1.022,1.553a1.35,1.35,0,0,0,1.01.543Z" transform="translate(-1597.774 -1414.308)" fill="#d8bafe"/></g><g transform="translate(148.466 4.629)"><path d="M1451.018,1439a1.175,1.175,0,0,0-.951-.577l-9.163.019a.429.429,0,0,0-.43.614l.482,1.331a1,1,0,0,0,.873.611l9.561-.02a.365.365,0,0,0,.352-.58Z" transform="translate(-1440.438 -1438.42)" fill="#d8bafe"/></g><g transform="translate(162.644 4.6)"><path d="M1536.948,1438.788a1.35,1.35,0,0,0-1.009-.543l-9.144.019a.365.365,0,0,0-.352.58l.724,1.4a1.176,1.176,0,0,0,.951.577l9.5-.02c.358,0,.49-.246.293-.546Z" transform="translate(-1526.378 -1438.245)" fill="#d8bafe"/></g><g transform="translate(119.234 0.424)"><path d="M1274,1415.893a.5.5,0,0,0,.511-.637l-.363-1.644a.855.855,0,0,0-.792-.639l-9.472-.039a.613.613,0,0,0-.62.648l.082,1.683a.691.691,0,0,0,.683.649Z" transform="translate(-1263.263 -1412.933)" fill="#d8bafe"/></g><g transform="translate(133.443 0.482)"><path d="M1359.636,1416.159a.429.429,0,0,0,.43-.614l-.582-1.608a1,1,0,0,0-.873-.615l-8.7-.036a.5.5,0,0,0-.511.633l.359,1.624a.849.849,0,0,0,.792.635Z" transform="translate(-1349.382 -1413.286)" fill="#d8bafe"/></g><g transform="translate(146.977 0.538)"><path d="M1441.858,1416.413a.366.366,0,0,0,.352-.58l-.825-1.593a1.185,1.185,0,0,0-.951-.581l-8.554-.035a.426.426,0,0,0-.43.61l.574,1.587a1,1,0,0,0,.873.611Z" transform="translate(-1431.414 -1413.623)" fill="#d8bafe"/></g><g transform="translate(160.558 0.594)"><path d="M1524.524,1416.667c.358,0,.49-.246.293-.546l-1.037-1.577a1.361,1.361,0,0,0-1.01-.547l-8.621-.036a.363.363,0,0,0-.352.576l.813,1.571a1.175,1.175,0,0,0,.951.577Z" transform="translate(-1513.732 -1413.962)" fill="#d8bafe"/></g><g transform="translate(119.443 4.686)"><path d="M1276.135,1439.4a.848.848,0,0,0-.792-.635l-10.2.021a.618.618,0,0,0-.62.652l.061,1.257a.691.691,0,0,0,.683.649l10.636-.022a.5.5,0,0,0,.511-.637Z" transform="translate(-1264.527 -1438.765)" fill="#d8bafe"/></g><g transform="translate(3.991 4.911)"><path d="M581.258,1440.6c.248-.259.157-.47-.2-.469l-12.321.025a2.441,2.441,0,0,0-1.185.375l-2.6,1.819c-.294.205-.241.373.117.372l13.537-.028a1.759,1.759,0,0,0,1.1-.472Z" transform="translate(-564.759 -1440.127)" fill="#d8bafe"/></g><g transform="translate(23.315 4.879)"><path d="M694.59,1440.445c.222-.281.111-.51-.247-.51l-9.666.02a1.758,1.758,0,0,0-1.1.472l-1.553,1.622c-.248.259-.157.47.2.469l10.093-.021a1.531,1.531,0,0,0,1.056-.512Z" transform="translate(-681.882 -1439.935)" fill="#d8bafe"/></g><g transform="translate(105.629 0.369)"><path d="M1190.609,1415.643a.618.618,0,0,0,.62-.652l-.083-1.7a.7.7,0,0,0-.683-.653l-8.765-.036a.733.733,0,0,0-.716.646l-.177,1.771a.578.578,0,0,0,.587.647Z" transform="translate(-1180.801 -1412.599)" fill="#d8bafe"/></g><g transform="translate(193.374 4.54)"><path d="M1714.034,1439.951a1.569,1.569,0,0,0,1.066.5l8.575-.017c.358,0,.431-.194.161-.43l-1.936-1.694a2.008,2.008,0,0,0-1.142-.428l-7.768.016c-.358,0-.465.227-.237.5Z" transform="translate(-1712.634 -1437.882)" fill="#d8bafe"/></g><g transform="translate(70.743 4.78)"><path d="M983.171,1439.965a.473.473,0,0,0-.482-.628l-11.743.024a1.1,1.1,0,0,0-.92.595l-.622,1.374a.388.388,0,0,0,.383.592L982,1441.9a.9.9,0,0,0,.821-.63Z" transform="translate(-969.352 -1439.337)" fill="#d8bafe"/></g><g transform="translate(87.565 4.745)"><path d="M1085.847,1439.768a.577.577,0,0,0-.587-.647l-12.753.026a.9.9,0,0,0-.821.63l-.351,1.3a.473.473,0,0,0,.482.627l13.187-.027a.739.739,0,0,0,.716-.649Z" transform="translate(-1071.314 -1439.121)" fill="#d8bafe"/></g><g transform="translate(105.243 4.716)"><path d="M1189.4,1439.6a.691.691,0,0,0-.683-.649l-9.411.019a.739.739,0,0,0-.716.65l-.126,1.262a.578.578,0,0,0,.587.647l9.791-.02a.618.618,0,0,0,.62-.652Z" transform="translate(-1178.46 -1438.948)" fill="#d8bafe"/></g><g transform="translate(55.668 4.814)"><path d="M890.149,1440.134a.388.388,0,0,0-.383-.592l-9.846.02a1.288,1.288,0,0,0-.988.559l-.873,1.446c-.185.307-.044.557.315.557l10.233-.021a1.1,1.1,0,0,0,.92-.595Z" transform="translate(-877.977 -1439.542)" fill="#d8bafe"/></g><g transform="translate(134.37 4.657)"><path d="M1365.674,1439.2a1,1,0,0,0-.873-.611l-9.272.019a.5.5,0,0,0-.511.638l.284,1.285a.849.849,0,0,0,.792.635l9.632-.02a.429.429,0,0,0,.43-.614Z" transform="translate(-1355.003 -1438.592)" fill="#d8bafe"/></g><g transform="translate(38.849 4.845)"><path d="M790,1440.284c.185-.307.044-.557-.315-.556l-11.261.023a1.531,1.531,0,0,0-1.056.512l-1.218,1.541c-.222.281-.111.51.247.51l11.741-.024a1.288,1.288,0,0,0,.988-.559Z" transform="translate(-776.038 -1439.728)" fill="#d8bafe"/></g><g transform="translate(119.631 8.545)"><path d="M1266.286,1462.18a.618.618,0,0,0-.62.652l.091,1.864a.689.689,0,0,0,.683.647l11.4-.064a.505.505,0,0,0,.511-.64l-.408-1.847a.848.848,0,0,0-.792-.635Z" transform="translate(-1265.665 -1462.158)" fill="#d8bafe"/></g><g transform="translate(135.223 8.516)"><path d="M1360.7,1462a.5.5,0,0,0-.511.638l.405,1.835a.845.845,0,0,0,.792.632l10.239-.057a.431.431,0,0,0,.43-.616l-.666-1.841a1,1,0,0,0-.873-.611Z" transform="translate(-1360.17 -1461.979)" fill="#d8bafe"/></g><g transform="translate(88.607 0.301)"><path d="M1090.665,1415.326a.739.739,0,0,0,.716-.65l.179-1.791a.582.582,0,0,0-.587-.651l-11.985-.05a.9.9,0,0,0-.821.626l-.516,1.913a.473.473,0,0,0,.482.628Z" transform="translate(-1077.63 -1412.185)" fill="#d8bafe"/></g><g transform="translate(164.642 8.456)"><path d="M1538.9,1461.637a.365.365,0,0,0-.352.58l.954,1.842a1.17,1.17,0,0,0,.951.575l10.077-.056c.358,0,.49-.249.293-.548l-1.23-1.87a1.35,1.35,0,0,0-1.009-.543Z" transform="translate(-1538.484 -1461.617)" fill="#d8bafe"/></g><g transform="translate(179.554 8.422)"><path d="M1629.254,1461.434c-.358,0-.49.246-.293.546l1.221,1.856a1.342,1.342,0,0,0,1.009.541l11.911-.067c.358,0,.465-.23.237-.506l-1.563-1.892a1.569,1.569,0,0,0-1.066-.5Z" transform="translate(-1628.869 -1461.411)" fill="#d8bafe"/></g><g transform="translate(196.558 8.393)"><path d="M1742.227,1461.495a1.715,1.715,0,0,0-.954-.264l-8.986.019c-.358,0-.465.227-.237.5l1.55,1.877a1.561,1.561,0,0,0,1.066.5l6.343-.035a2.077,2.077,0,0,0,.862-.24.794.794,0,0,0,.376-.429l.381-1.022A1.775,1.775,0,0,0,1742.227,1461.495Z" transform="translate(-1731.929 -1461.231)" fill="#d8bafe"/></g><g transform="translate(68.636 8.644)"><path d="M958.532,1462.778a1.105,1.105,0,0,0-.92.595l-.979,2.163a.386.386,0,0,0,.383.59l13.078-.073a.906.906,0,0,0,.821-.633l.55-2.04a.473.473,0,0,0-.482-.628Z" transform="translate(-956.58 -1462.753)" fill="#d8bafe"/></g><g transform="translate(149.862 8.486)"><path d="M1449.369,1461.819a.429.429,0,0,0-.43.614l.662,1.829a.992.992,0,0,0,.873.609l10.218-.057a.367.367,0,0,0,.352-.582l-.961-1.855a1.176,1.176,0,0,0-.951-.577Z" transform="translate(-1448.903 -1461.799)" fill="#d8bafe"/></g><g transform="translate(58.002 0.179)"><path d="M902.169,1414.776a1.1,1.1,0,0,0,.92-.595l.952-2.1a.391.391,0,0,0-.383-.6l-9.113-.038a1.277,1.277,0,0,0-.988.555l-1.352,2.24c-.185.307-.043.557.315.556Z" transform="translate(-892.124 -1411.445)" fill="#d8bafe"/></g><g transform="translate(41.907 0.115)"><path d="M805.952,1414.485a1.287,1.287,0,0,0,.988-.559l1.367-2.263c.185-.307.044-.559-.315-.56l-10.327-.043a1.518,1.518,0,0,0-1.055.508l-1.921,2.43c-.222.281-.111.51.247.51Z" transform="translate(-794.573 -1411.06)" fill="#d8bafe"/></g><g transform="translate(27.018 0.056)"><path d="M714.117,1414.221a1.531,1.531,0,0,0,1.055-.512l1.942-2.456c.222-.281.111-.512-.247-.514l-8.808-.036a1.742,1.742,0,0,0-1.1.468l-2.489,2.6c-.248.259-.157.47.2.469Z" transform="translate(-704.328 -1410.703)" fill="#d8bafe"/></g><path d="M924.375,1464.874l-.091-1.875a.691.691,0,0,0-.683-.649l-9.985.02a.666.666,0,0,0-.169.025l-50.258.078a1.288,1.288,0,0,0-.988.559l-1.383,2.292c-.185.307-.044.556.315.554l62.382-.265a1.27,1.27,0,0,0,.326-.093A.618.618,0,0,0,924.375,1464.874Z" transform="translate(-807.913 -1453.772)" fill="#d8bafe"/><g transform="translate(72.493 0.236)"><path d="M991.9,1415.035a.9.9,0,0,0,.821-.63l.522-1.933a.477.477,0,0,0-.482-.632l-10.885-.045a1.1,1.1,0,0,0-.92.591l-.942,2.081a.388.388,0,0,0,.383.592Z" transform="translate(-979.958 -1411.795)" fill="#d8bafe"/></g><g transform="translate(9.529)"><path d="M610.335,1413.968a1.758,1.758,0,0,0,1.1-.472l2.515-2.628c.248-.259.157-.472-.2-.473l-7.8-.032a10.131,10.131,0,0,0-1.3.1l-2.607.815a10.134,10.134,0,0,0-1.119.66l-2.412,1.687c-.294.205-.241.373.118.372Z" transform="translate(-598.325 -1410.363)" fill="#d8bafe"/></g><g transform="translate(35.072 8.711)"><path d="M756.255,1463.185a1.53,1.53,0,0,0-1.055.512l-1.937,2.449c-.222.281-.111.509.247.507l12.665-.071a1.294,1.294,0,0,0,.988-.561l1.392-2.305c.185-.307.044-.557-.315-.556Z" transform="translate(-753.148 -1463.16)" fill="#d8bafe"/></g><g transform="translate(18.686 8.746)"><path d="M657.546,1463.4a1.758,1.758,0,0,0-1.1.472l-2.478,2.589c-.248.259-.157.469.2.467l10.934-.061a1.539,1.539,0,0,0,1.055-.515l1.948-2.464c.222-.281.111-.51-.247-.51Z" transform="translate(-653.826 -1463.376)" fill="#d8bafe"/></g><g transform="translate(0 8.779)"><path d="M543,1463.6a2.444,2.444,0,0,0-1.185.375l-.6.42a1.966,1.966,0,0,0-.6.78.616.616,0,0,0-.013.427l.184.579a1.415,1.415,0,0,0,1.057.977,1.338,1.338,0,0,0,.257.026l11.66-.065a1.77,1.77,0,0,0,1.1-.474l2.494-2.605c.248-.259.157-.47-.2-.469Z" transform="translate(-540.57 -1463.576)" fill="#d8bafe"/></g></g></g><circle cx="3.815" cy="3.815" r="3.815" transform="translate(321.937 153.673)" fill="#fff"/><circle cx="3.815" cy="3.815" r="3.815" transform="translate(322.742 85.842) rotate(-10.93)" fill="#fff"/><g transform="translate(327.088 146.794)"><g transform="translate(57.765 5.969)"><g transform="translate(17.931 65.131)"><path d="M1629.834,1058.787c1.51.13,4.131.343,6.2.434a5.968,5.968,0,0,0,2.369-.232c0,.046,0,.09,0,.131a.427.427,0,0,1-.406.4,72.585,72.585,0,0,1-8.115.008.3.3,0,0,1-.248-.457A2.512,2.512,0,0,1,1629.834,1058.787Z" transform="translate(-1629.585 -1053.565)" fill="url(#d)"/><path d="M1637.291,1043.787c-2.066-.091-4.687-.3-6.2-.434,1.485-1.822,6.2-3.049,6.2-3.049h1.331a5.583,5.583,0,0,1,1.038,3.251A5.971,5.971,0,0,1,1637.291,1043.787Z" transform="translate(-1630.845 -1038.131)" fill="url(#e)"/><path d="M1665.516,1027.133l-.125,2.465a.563.563,0,0,1-.481.529,2.19,2.19,0,0,1-1-.083.666.666,0,0,1-.448-.512l-.43-2.4Z" transform="translate(-1657.515 -1027.133)" fill="url(#f)"/></g><g transform="translate(38.752 62.827)"><g transform="translate(0.586 2.288)"><path d="M1771.339,1057.277a1.2,1.2,0,0,0,1.075-.8l0,.01a.851.851,0,0,1-.573.97,3.748,3.748,0,0,1-1.588.249,1.578,1.578,0,0,1-1.191-.549l0-.005A4,4,0,0,0,1771.339,1057.277Z" transform="translate(-1767.456 -1051.624)" fill="url(#g)"/><path d="M1760.129,1027.037h1.1c1.672-.034,2.722,3.492,3.066,4.858a1.2,1.2,0,0,1-1.075.8,4,4,0,0,1-2.278-.121,10.487,10.487,0,0,1-1.566-3.946A1.385,1.385,0,0,1,1760.129,1027.037Z" transform="translate(-1759.333 -1027.036)" fill="url(#h)"/></g><path d="M1758.118,1013.171l.61,2.424a.658.658,0,0,1-.342.746,2.338,2.338,0,0,1-1.262.306.55.55,0,0,1-.448-.366l-.895-2.551Z" transform="translate(-1755.78 -1013.171)" fill="url(#i)"/></g><path d="M1655.769,842.969c-.758.673-3.225.762-3.225.762-8.885-21.325-12.52-24.355-12.52-24.355,1.283,8.049.207,25.869.207,25.869a5.332,5.332,0,0,1-3.357,0,137.352,137.352,0,0,0-4.537-33.729c6.005-.135,9.2-2.19,10.241-3.015C1647.585,816.571,1655.769,842.969,1655.769,842.969Z" transform="translate(-1613.953 -779.442)" fill="url(#j)"/><path d="M1600.273,659.119c1.137,5.67.729,15.817.462,20.446-.075,1.3.833,3.1,1.567,4.335a.386.386,0,0,1-.156.543,26.768,26.768,0,0,1-10.218,2.833.688.688,0,0,1-.692-.514,134.348,134.348,0,0,0-7.737-21.905C1588.089,657.526,1600.273,659.119,1600.273,659.119Z" transform="translate(-1573.171 -654.584)" fill="#47286d"/><path d="M1656.587,853.548a.285.285,0,0,0,.243-.432,8.923,8.923,0,0,0-3.523-3.058.284.284,0,1,0-.247.512,8.515,8.515,0,0,1,3.284,2.842A.284.284,0,0,0,1656.587,853.548Z" transform="translate(-1631.121 -814.118)" fill="url(#k)"/><g transform="translate(25.832 4.536)"><path d="M1706,756.489a19.5,19.5,0,0,1-3.6,8.582l-.82-.669a25.329,25.329,0,0,0,.409-8.2A9.818,9.818,0,0,1,1706,756.489Z" transform="translate(-1697.603 -740.218)" fill="#47286d"/><path d="M1677.474,666.855l1.27-7s8.483,6.484,7.13,16.272a9.818,9.818,0,0,0-4.013-.289A13.726,13.726,0,0,0,1677.474,666.855Z" transform="translate(-1677.474 -659.859)" fill="#47286d"/></g><g transform="translate(0 10.273)"><path d="M1567.771,694.632l3.274,7.052c-.529,4.257-2.816,6.1-5.282,6.8a14.963,14.963,0,0,0-1.1-4.592C1567.814,700.643,1567.771,694.632,1567.771,694.632Z" transform="translate(-1557.443 -694.632)" fill="#47286d"/><path d="M1528.121,750.78a14.964,14.964,0,0,1,1.1,4.592c-6.579,2.552-8.319-2.4-8.319-2.4l1.216-.214A6.892,6.892,0,0,0,1528.121,750.78Z" transform="translate(-1520.901 -741.516)" fill="#47286d"/></g><path d="M1601.783,633.935l1.581,5.811a1.13,1.13,0,0,0,1.512.752,22.925,22.925,0,0,0,2.278-1.041,1.523,1.523,0,0,0,.537-2.189l-3.286-4.9Z" transform="translate(-1588.439 -632.368)" fill="url(#l)"/></g><g transform="translate(66.009 0)"><path d="M1580.821,610.386c-.014.1,1.318,6.631,1.318,6.631l3.713-.84-.344-6.378S1581.062,608.716,1580.821,610.386Z" transform="translate(-1579.179 -607.265)" fill="url(#m)"/><path d="M1576.362,600.143l.444,3.343a.469.469,0,0,1,0,.128c-.037.262-.232,1.154-1.133.9a4.236,4.236,0,0,0-2.084-.272.471.471,0,0,0-.324.544,20.364,20.364,0,0,0,.855,3.043.47.47,0,0,0,.57.278,15.18,15.18,0,0,0,3.273-1.339.471.471,0,0,0,.23-.424c-.036-.844-.134-3.41-.051-4.129.078-.675.906-1.079,1.266-1.224a.463.463,0,0,0,.258-.259,1.221,1.221,0,0,0-.822-1.78.472.472,0,0,1-.3-.61,1.224,1.224,0,0,0-.686-1.691,1.726,1.726,0,0,0-2.059.5.472.472,0,0,1-.6.071.373.373,0,0,0-.424.014.464.464,0,0,1-.657-.2,1.407,1.407,0,0,0-1.635-.815c-1.664.285-1.852,2.129-1.413,3.209s2.225.669,3.121.124a2.015,2.015,0,0,1,1.95.252A.467.467,0,0,1,1576.362,600.143Z" transform="translate(-1570.867 -596.188)" fill="url(#n)"/><path d="M1614.351,626.935s-.684-1.916.019-2.385,1.744-.226,1.515,1.162C1615.6,627.438,1614.351,626.935,1614.351,626.935Z" transform="translate(-1606.927 -619.689)" fill="url(#o)"/></g><path d="M1510.783,754.9c-.331.259-1.466-.281-2.16-.655a.8.8,0,0,1-.386-.944c.167-.527.445-1.207.788-1.293C1509.595,751.866,1512.148,753.833,1510.783,754.9Z" transform="translate(-1452.53 -726.294)" fill="url(#p)"/><g transform="translate(0 10.498)"><path d="M1400.773,710.608,1314.137,679.8l-4.584,12.732,86.606,31.673a4.039,4.039,0,0,0,4.878-1.766,17.176,17.176,0,0,0,2.038-8.524A3.459,3.459,0,0,0,1400.773,710.608Z" transform="translate(-1286.657 -676.5)" fill="url(#q)"/><path d="M1171.456,659.824l11.967,1.469a10.517,10.517,0,0,1-2.378,6.223l-9.994-6.593A.6.6,0,0,1,1171.456,659.824Z" transform="translate(-1170.779 -659.819)" fill="url(#r)"/><path d="M1250.219,670.577a16.672,16.672,0,0,1-4.584,12.732l-12.629-8.331a10.517,10.517,0,0,0,2.378-6.223Z" transform="translate(-1222.739 -667.281)" fill="url(#s)"/><path d="M1435.14,739.386a.255.255,0,0,0,.085-.495L1352.337,709.6a.254.254,0,1,0-.17.48l82.888,29.293A.254.254,0,0,0,1435.14,739.386Z" transform="translate(-1322.099 -701.373)" fill="#7d97f4"/><path d="M1426.473,769.661a.255.255,0,0,0,.085-.495l-82.888-29.293a.255.255,0,1,0-.17.48l82.888,29.293A.249.249,0,0,0,1426.473,769.661Z" transform="translate(-1314.862 -726.653)" fill="#7d97f4"/></g><path d="M1675.858,804.165l-3.829-.312-1.658,1.529s.392.542,1.619.231a17.553,17.553,0,0,1,2.907-.388s1.693.763,1.714-.665Z" transform="translate(-1587.945 -769.591)" fill="url(#t)"/></g><path d="M812.138,311.282h-1.65a.33.33,0,1,1,0-.66h1.65a.33.33,0,0,1,0,.66Zm-3.3,0h-1.65a.33.33,0,0,1,0-.66h1.65a.33.33,0,0,1,0,.66Zm-3.3,0h-1.65a.33.33,0,0,1,0-.66h1.65a.33.33,0,0,1,0,.66Zm-3.3,0h-1.65a.33.33,0,0,1,0-.66h1.65a.33.33,0,0,1,0,.66Zm-3.3,0h-1.65a.33.33,0,0,1,0-.66h1.65a.33.33,0,1,1,0,.66Zm-3.3,0h-1.65a.33.33,0,1,1,0-.66h1.65a.33.33,0,0,1,0,.66Zm-3.3,0h-1.65a.33.33,0,0,1,0-.66h1.65a.33.33,0,1,1,0,.66Zm-3.3,0h-1.65a.33.33,0,0,1,0-.66h1.65a.33.33,0,0,1,0,.66Zm-3.3,0h-1.65a.33.33,0,0,1,0-.66h1.65a.33.33,0,0,1,0,.66Zm-3.3,0h-1.65a.33.33,0,1,1,0-.66h1.65a.33.33,0,0,1,0,.66Zm-3.3,0h-1.65a.33.33,0,0,1,0-.66h1.65a.33.33,0,0,1,0,.66Zm-3.3,0h-1.65a.33.33,0,0,1,0-.66h1.65a.33.33,0,1,1,0,.66Zm-3.3,0h-1.65a.33.33,0,1,1,0-.66h1.65a.33.33,0,0,1,0,.66Zm-3.3,0h-1.65a.33.33,0,0,1,0-.66h1.65a.33.33,0,1,1,0,.66Zm-3.3,0h-1.65a.33.33,0,1,1,0-.66h1.65a.33.33,0,0,1,0,.66Zm-3.3,0h-1.65a.33.33,0,0,1,0-.66h1.65a.33.33,0,1,1,0,.66Zm-3.3,0h-1.65a.33.33,0,0,1,0-.66h1.65a.33.33,0,0,1,0,.66Zm-3.3,0h-1.65a.33.33,0,0,1,0-.66h1.65a.33.33,0,0,1,0,.66Zm-3.3,0h-1.65a.33.33,0,0,1,0-.66h1.65a.33.33,0,1,1,0,.66Zm-3.3,0h-1.65a.33.33,0,0,1,0-.66h1.65a.33.33,0,0,1,0,.66Zm-3.3,0h-1.65a.33.33,0,0,1,0-.66h1.65a.33.33,0,1,1,0,.66Zm67.081-.574h-.006a.33.33,0,0,1-.324-.336l.032-1.65a.33.33,0,0,1,.33-.324h.006a.33.33,0,0,1,.324.336l-.032,1.65A.33.33,0,0,1,813.225,310.708Zm.063-3.3h-.006a.33.33,0,0,1-.324-.336l.032-1.65a.33.33,0,0,1,.33-.324h.006a.33.33,0,0,1,.324.336l-.032,1.65A.33.33,0,0,1,813.288,307.409Zm.063-3.3h-.006a.33.33,0,0,1-.324-.336l.032-1.65a.33.33,0,0,1,.66.013l-.032,1.65A.33.33,0,0,1,813.352,304.11Zm.063-3.3h-.007a.33.33,0,0,1-.324-.336l.031-1.65a.335.335,0,0,1,.336-.324.33.33,0,0,1,.324.336l-.032,1.65A.33.33,0,0,1,813.415,300.811Zm.063-3.3h-.006a.33.33,0,0,1-.324-.336l.032-1.65a.33.33,0,0,1,.33-.324h.006a.33.33,0,0,1,.324.336l-.032,1.65A.33.33,0,0,1,813.478,297.512Zm140.154-1.183a.33.33,0,0,1-.33-.327l-.013-1.65a.33.33,0,0,1,.328-.332h0a.33.33,0,0,1,.33.327l.013,1.65a.33.33,0,0,1-.328.333Zm-140.091-2.116h-.006a.33.33,0,0,1-.324-.336l.032-1.65a.33.33,0,0,1,.66.013l-.032,1.65A.33.33,0,0,1,813.542,294.212Zm140.066-1.184a.33.33,0,0,1-.33-.327l-.012-1.65a.33.33,0,0,1,.66-.005l.012,1.65a.33.33,0,0,1-.328.332Zm-140-2.115H813.6a.33.33,0,0,1-.324-.336l.032-1.65a.33.33,0,0,1,.33-.324h.006a.33.33,0,0,1,.324.336l-.031,1.65A.33.33,0,0,1,813.6,290.913Zm139.978-1.184a.33.33,0,0,1-.33-.327l-.012-1.65a.33.33,0,0,1,.328-.332h0a.33.33,0,0,1,.33.328l.012,1.65a.33.33,0,0,1-.328.333Zm-139.914-2.115h-.006a.33.33,0,0,1-.324-.336l.031-1.65a.33.33,0,0,1,.33-.324h.006a.33.33,0,0,1,.324.336L814,287.29A.33.33,0,0,1,813.668,287.614Zm139.889-1.184a.33.33,0,0,1-.33-.328l-.012-1.65a.33.33,0,0,1,.328-.332h0a.33.33,0,0,1,.33.327l.012,1.65a.33.33,0,0,1-.327.333Zm-139.826-2.115h-.006a.33.33,0,0,1-.323-.336l.031-1.65a.33.33,0,0,1,.33-.324h.006a.33.33,0,0,1,.324.336l-.031,1.65A.33.33,0,0,1,813.732,284.315Zm139.8-1.185a.33.33,0,0,1-.33-.328l-.012-1.65a.33.33,0,1,1,.66,0l.012,1.65a.33.33,0,0,1-.328.332Zm-139.738-2.114h-.006a.33.33,0,0,1-.324-.336l.032-1.65a.33.33,0,0,1,.66.013l-.032,1.65A.33.33,0,0,1,813.795,281.016Zm139.713-1.186a.33.33,0,0,1-.33-.328l-.013-1.65a.33.33,0,0,1,.328-.332h0a.33.33,0,0,1,.33.328l.013,1.65a.33.33,0,0,1-.328.333Zm-139.65-2.114h-.006a.33.33,0,0,1-.324-.336l.031-1.65a.33.33,0,0,1,.66.013l-.031,1.65A.33.33,0,0,1,813.858,277.717Zm139.625-1.186a.33.33,0,0,1-.33-.328l-.012-1.65a.33.33,0,0,1,.328-.333h0a.33.33,0,0,1,.33.327l.012,1.65a.33.33,0,0,1-.327.332Zm-139.561-2.113h-.006a.33.33,0,0,1-.324-.336l.031-1.65a.33.33,0,0,1,.33-.324h.006a.33.33,0,0,1,.324.336l-.031,1.65A.33.33,0,0,1,813.922,274.418Zm139.536-1.187a.33.33,0,0,1-.33-.327l-.012-1.65a.33.33,0,0,1,.328-.332h0a.33.33,0,0,1,.33.328l.012,1.65a.33.33,0,0,1-.328.332Zm-139.473-2.112h-.006a.33.33,0,0,1-.324-.336l.031-1.65a.33.33,0,0,1,.33-.324h.006a.33.33,0,0,1,.324.336l-.032,1.65A.33.33,0,0,1,813.985,271.119Zm139.448-1.187a.33.33,0,0,1-.33-.327l-.012-1.65a.33.33,0,0,1,.328-.333h0a.33.33,0,0,1,.33.328l.012,1.65a.33.33,0,0,1-.328.332ZM814.048,267.82h-.006a.33.33,0,0,1-.324-.336l.032-1.65a.33.33,0,0,1,.66.013l-.032,1.65A.33.33,0,0,1,814.048,267.82Zm139.36-1.188a.33.33,0,0,1-.33-.327l-.013-1.65a.33.33,0,0,1,.327-.332h0a.33.33,0,0,1,.33.328l.013,1.65a.33.33,0,0,1-.327.332Zm-139.3-2.111h-.006a.33.33,0,0,1-.324-.336l.032-1.65a.33.33,0,0,1,.33-.324h.006a.33.33,0,0,1,.324.336l-.032,1.65A.33.33,0,0,1,814.112,264.52Zm139.272-1.188a.33.33,0,0,1-.33-.327l-.012-1.65a.33.33,0,0,1,.327-.333.323.323,0,0,1,.333.328l.012,1.65a.33.33,0,0,1-.328.332Zm-139.208-2.111h-.006a.33.33,0,0,1-.324-.336l.031-1.649a.33.33,0,0,1,.33-.324h.007a.33.33,0,0,1,.323.336l-.031,1.65A.33.33,0,0,1,814.175,261.221Zm139.183-1.189a.33.33,0,0,1-.33-.327l-.013-1.65a.33.33,0,0,1,.328-.333h0a.33.33,0,0,1,.33.327l.013,1.65a.33.33,0,0,1-.327.332Zm-139.12-2.111h-.006a.33.33,0,0,1-.324-.336l.032-1.65a.33.33,0,0,1,.33-.324h.006a.33.33,0,0,1,.324.336l-.032,1.65A.33.33,0,0,1,814.238,257.922Zm139.1-1.189a.33.33,0,0,1-.33-.327l-.012-1.65a.33.33,0,0,1,.328-.332h0a.33.33,0,0,1,.33.327l.012,1.65a.33.33,0,0,1-.328.332ZM814.3,254.623H814.3a.33.33,0,0,1-.324-.336l.032-1.65a.33.33,0,0,1,.33-.324h.006a.33.33,0,0,1,.324.336l-.032,1.65A.33.33,0,0,1,814.3,254.623Zm139.007-1.19a.33.33,0,0,1-.33-.327l-.013-1.65a.33.33,0,0,1,.328-.333h0a.33.33,0,0,1,.33.327l.013,1.65a.33.33,0,0,1-.327.332Zm-138.944-2.109h-.006a.33.33,0,0,1-.324-.336l.032-1.65a.33.33,0,0,1,.33-.324h.006a.33.33,0,0,1,.324.336l-.032,1.65A.33.33,0,0,1,814.365,251.324Zm138.919-1.19a.33.33,0,0,1-.33-.327l-.012-1.65a.33.33,0,0,1,.327-.332.336.336,0,0,1,.332.327l.012,1.65a.33.33,0,0,1-.328.332Zm-138.855-2.109h-.006a.33.33,0,0,1-.324-.336l.032-1.65a.33.33,0,0,1,.66.013l-.032,1.65A.33.33,0,0,1,814.428,248.025Zm138.831-1.191a.33.33,0,0,1-.33-.327l-.013-1.65a.33.33,0,0,1,.327-.333h0a.33.33,0,0,1,.33.327l.013,1.65a.33.33,0,0,1-.327.332Zm-138.767-2.108h-.006a.33.33,0,0,1-.324-.336l.032-1.65a.33.33,0,0,1,.33-.324h.006a.33.33,0,0,1,.324.336l-.032,1.65A.33.33,0,0,1,814.492,244.726Zm138.742-1.191a.33.33,0,0,1-.33-.327l-.012-1.65a.33.33,0,0,1,.328-.332h0a.33.33,0,0,1,.33.327l.012,1.65a.33.33,0,0,1-.328.332Zm-1.476-1.838h-1.65a.33.33,0,0,1,0-.66h1.65a.33.33,0,0,1,0,.66Zm-3.3,0h-1.65a.33.33,0,1,1,0-.66h1.65a.33.33,0,0,1,0,.66Zm-3.3,0h-1.65a.33.33,0,0,1,0-.66h1.65a.33.33,0,1,1,0,.66Zm-3.3,0h-1.65a.33.33,0,1,1,0-.66h1.65a.33.33,0,0,1,0,.66Zm-3.3,0h-1.65a.33.33,0,0,1,0-.66h1.65a.33.33,0,1,1,0,.66Zm-3.3,0h-1.65a.33.33,0,1,1,0-.66h1.65a.33.33,0,0,1,0,.66Zm-3.3,0h-1.65a.33.33,0,0,1,0-.66h1.65a.33.33,0,0,1,0,.66Zm-3.3,0h-1.65a.33.33,0,1,1,0-.66h1.65a.33.33,0,0,1,0,.66Zm-3.3,0h-1.65a.33.33,0,0,1,0-.66h1.65a.33.33,0,0,1,0,.66Zm-3.3,0h-1.65a.33.33,0,0,1,0-.66h1.65a.33.33,0,0,1,0,.66Zm-3.3,0h-1.65a.33.33,0,1,1,0-.66h1.65a.33.33,0,1,1,0,.66Zm-3.3,0h-1.65a.33.33,0,0,1,0-.66h1.65a.33.33,0,1,1,0,.66Zm-3.3,0h-1.65a.33.33,0,1,1,0-.66h1.65a.33.33,0,0,1,0,.66Zm-3.3,0h-1.65a.33.33,0,0,1,0-.66h1.65a.33.33,0,1,1,0,.66Zm-3.3,0h-1.65a.33.33,0,0,1,0-.66h1.65a.33.33,0,0,1,0,.66Zm-3.3,0h-1.65a.33.33,0,0,1,0-.66h1.65a.33.33,0,0,1,0,.66Zm-3.3,0h-1.65a.33.33,0,0,1,0-.66h1.65a.33.33,0,1,1,0,.66Zm-3.3,0h-1.65a.33.33,0,0,1,0-.66h1.65a.33.33,0,0,1,0,.66Zm-3.3,0h-1.65a.33.33,0,1,1,0-.66h1.65a.33.33,0,0,1,0,.66Zm-3.3,0h-1.65a.33.33,0,0,1,0-.66h1.65a.33.33,0,1,1,0,.66Zm-3.3,0h-1.65a.33.33,0,0,1,0-.66h1.65a.33.33,0,1,1,0,.66Zm-3.3,0h-1.65a.33.33,0,1,1,0-.66h1.65a.33.33,0,0,1,0,.66Zm-3.3,0h-1.65a.33.33,0,0,1,0-.66h1.65a.33.33,0,1,1,0,.66Zm-3.3,0h-1.65a.33.33,0,0,1,0-.66h1.65a.33.33,0,0,1,0,.66Zm-3.3,0h-1.65a.33.33,0,1,1,0-.66h1.65a.33.33,0,0,1,0,.66Zm-3.3,0h-1.65a.33.33,0,0,1,0-.66h1.65a.33.33,0,1,1,0,.66Zm-3.3,0h-1.65a.33.33,0,0,1,0-.66h1.65a.33.33,0,0,1,0,.66Zm-3.3,0h-1.65a.33.33,0,1,1,0-.66h1.65a.33.33,0,0,1,0,.66Zm-3.3,0h-1.65a.33.33,0,0,1,0-.66h1.65a.33.33,0,1,1,0,.66Zm-3.3,0h-1.65a.33.33,0,1,1,0-.66h1.65a.33.33,0,0,1,0,.66Zm-3.3,0h-1.65a.33.33,0,1,1,0-.66h1.65a.33.33,0,0,1,0,.66Zm-3.3,0h-1.65a.33.33,0,0,1,0-.66h1.65a.33.33,0,0,1,0,.66Zm-3.3,0h-1.65a.33.33,0,0,1,0-.66h1.65a.33.33,0,0,1,0,.66Zm-3.3,0h-1.65a.33.33,0,1,1,0-.66h1.65a.33.33,0,1,1,0,.66Zm-3.3,0h-1.65a.33.33,0,0,1,0-.66h1.65a.33.33,0,0,1,0,.66Zm-3.3,0h-1.65a.33.33,0,0,1,0-.66h1.65a.33.33,0,0,1,0,.66Zm-3.3,0h-1.65a.33.33,0,1,1,0-.66h1.65a.33.33,0,0,1,0,.66Zm-3.3,0h-1.65a.33.33,0,0,1,0-.66h1.65a.33.33,0,1,1,0,.66Zm-3.3,0h-1.65a.33.33,0,1,1,0-.66h1.65a.33.33,0,0,1,0,.66Zm-3.3,0h-1.65a.33.33,0,0,1,0-.66h1.65a.33.33,0,1,1,0,.66Zm-3.3,0h-1.65a.33.33,0,0,1,0-.66h1.65a.33.33,0,0,1,0,.66Zm-3.3,0h-1.65a.33.33,0,0,1,0-.66h1.65a.33.33,0,0,1,0,.66Z" transform="translate(-487.462 -152.838)" fill="#fff"/><g transform="translate(178.89 67.88)"><g transform="translate(54.011 0)"><path d="M621.932,202.626H603.508a1.948,1.948,0,0,1-1.948-1.909l-1.66-80.845a1.949,1.949,0,0,1,2.088-1.983l20.084,1.449a1.949,1.949,0,0,1,1.808,1.944v79.4A1.949,1.949,0,0,1,621.932,202.626Z" transform="translate(-599.899 -117.884)" fill="#fff"/><g transform="translate(3.352 3.007)"><path d="M627.339,308.687l.4,9.576a1.7,1.7,0,0,0,1.674,1.629l12.868.18a1.7,1.7,0,0,0,1.723-1.7V308.8a1.7,1.7,0,0,0-1.676-1.7l-13.267-.186A1.7,1.7,0,0,0,627.339,308.687Z" transform="translate(-626.163 -278.736)" fill="#bdd0fb"/><path d="M645.376,394.583l-12.666-.177a1.7,1.7,0,0,0-1.722,1.77l.4,9.576a1.7,1.7,0,0,0,1.675,1.629l12.266.171a1.7,1.7,0,0,0,1.723-1.7v-9.57A1.7,1.7,0,0,0,645.376,394.583Z" transform="translate(-629.21 -351.791)" fill="url(#u)"/><path d="M638.058,146.9v-7.207A1.7,1.7,0,0,0,636.577,138l-14.443-1.877a1.7,1.7,0,0,0-1.917,1.756l.371,8.887a1.7,1.7,0,0,0,1.674,1.629l14.072.2A1.7,1.7,0,0,0,638.058,146.9Z" transform="translate(-620.216 -136.111)" fill="#7d97f4"/><path d="M623.691,221.2l.4,9.576a1.7,1.7,0,0,0,1.675,1.629l13.47.188a1.7,1.7,0,0,0,1.724-1.7v-9.57a1.7,1.7,0,0,0-1.676-1.7l-13.869-.194A1.7,1.7,0,0,0,623.691,221.2Z" transform="translate(-623.117 -205.682)" fill="#91b3fa"/><path d="M634.636,483.666l.291,6.968a1.7,1.7,0,0,0,1.7,1.629H648.4a1.7,1.7,0,0,0,1.7-1.7v-6.8a1.7,1.7,0,0,0-1.676-1.7l-12.063-.169A1.7,1.7,0,0,0,634.636,483.666Z" transform="translate(-632.256 -424.846)" fill="url(#a)"/></g></g><g transform="translate(26.873 5.849)"><path d="M485.937,231.165l-17.186,6.64a1.948,1.948,0,0,1-2.5-1.078l-30.685-74.814a1.948,1.948,0,0,1,1.233-2.6l19.257-5.887a1.949,1.949,0,0,1,2.387,1.161l28.614,74.061A1.948,1.948,0,0,1,485.937,231.165Z" transform="translate(-435.415 -153.338)" fill="#fff"/><g transform="translate(4.138 4.137)" opacity="0.69"><path d="M528.837,335.157l3.824,8.788a1.7,1.7,0,0,0,2.149.916l12.068-4.47a1.7,1.7,0,0,0,1-2.207l-3.449-8.927a1.7,1.7,0,0,0-2.176-.981l-12.443,4.608A1.7,1.7,0,0,0,528.837,335.157Z" transform="translate(-517.443 -303.462)" fill="#bb83ff"/><path d="M576.618,409.838l-11.878,4.4a1.7,1.7,0,0,0-.968,2.272L567.6,425.3a1.7,1.7,0,0,0,2.149.916l11.5-4.261a1.7,1.7,0,0,0,1-2.207l-3.449-8.927A1.7,1.7,0,0,0,576.618,409.838Z" transform="translate(-546.614 -371.567)" fill="#d0aaff"/><path d="M480.525,186.22l-2.6-6.722a1.7,1.7,0,0,0-1.989-1.039l-14.148,3.454a1.7,1.7,0,0,0-1.155,2.329l3.548,8.156a1.7,1.7,0,0,0,2.149.916l13.2-4.888A1.7,1.7,0,0,0,480.525,186.22Z" transform="translate(-460.493 -178.41)" fill="#8a4ad8"/><path d="M493.9,253.8l3.824,8.788a1.7,1.7,0,0,0,2.149.916l12.633-4.679a1.7,1.7,0,0,0,1-2.207l-3.449-8.927a1.7,1.7,0,0,0-2.176-.981l-13.007,4.817A1.7,1.7,0,0,0,493.9,253.8Z" transform="translate(-488.273 -235.356)" fill="#a96cf3"/><path d="M598.705,497.862l2.782,6.395a1.7,1.7,0,0,0,2.171.907l10.982-4.243a1.7,1.7,0,0,0,.973-2.2l-2.45-6.342a1.7,1.7,0,0,0-2.176-.981l-11.314,4.19A1.7,1.7,0,0,0,598.705,497.862Z" transform="translate(-575.784 -439.672)" fill="#e4ceff"/></g></g><g transform="translate(0 27.84)"><path d="M351,340.554l-11.772,14.172a1.948,1.948,0,0,1-2.713.279l-63.249-50.381a1.948,1.948,0,0,1-.191-2.874l13.948-14.523a1.948,1.948,0,0,1,2.65-.149l61.073,50.732A1.949,1.949,0,0,1,351,340.554Z" transform="translate(-272.532 -286.628)" fill="#fff"/><g transform="translate(4.354 4.238)"><path d="M435.526,428.039l7.621,5.812a1.7,1.7,0,0,0,2.323-.247l8.361-9.783a1.7,1.7,0,0,0-.206-2.412l-7.362-6.115a1.7,1.7,0,0,0-2.378.2l-8.62,10.087A1.7,1.7,0,0,0,435.526,428.039Z" transform="translate(-412.429 -397.976)" fill="url(#w)"/><path d="M513.125,471.368,504.9,481a1.7,1.7,0,0,0,.262,2.456l7.621,5.811a1.7,1.7,0,0,0,2.323-.247l7.969-9.326a1.7,1.7,0,0,0-.206-2.412l-7.362-6.115A1.7,1.7,0,0,0,513.125,471.368Z" transform="translate(-470.572 -444.629)" fill="url(#x)"/><path d="M317.921,317.311l-5.544-4.6a1.7,1.7,0,0,0-2.243.062l-10.672,9.91a1.7,1.7,0,0,0,.126,2.6l7.073,5.394a1.7,1.7,0,0,0,2.323-.247l9.143-10.7A1.7,1.7,0,0,0,317.921,317.311Z" transform="translate(-298.919 -312.314)" fill="url(#y)"/><path d="M365.9,372.627l7.621,5.811a1.7,1.7,0,0,0,2.323-.247l8.752-10.241a1.7,1.7,0,0,0-.206-2.412l-7.362-6.115a1.7,1.7,0,0,0-2.378.2l-9.011,10.545A1.7,1.7,0,0,0,365.9,372.627Z" transform="translate(-354.287 -351.323)" fill="url(#z)"/><path d="M574.787,538.866l5.545,4.229a1.7,1.7,0,0,0,2.338-.266l7.523-9.056a1.7,1.7,0,0,0-.221-2.394l-5.23-4.344a1.7,1.7,0,0,0-2.378.2l-7.838,9.172A1.7,1.7,0,0,0,574.787,538.866Z" transform="translate(-528.714 -491.282)" fill="url(#aa)"/></g></g></g><g transform="translate(185.979 155.745)"><g transform="translate(24.302)"><path d="M464.842,650.852l45.737-.41a1.607,1.607,0,0,1,1.622,1.616l-.2,35.1a1.606,1.606,0,0,1-1.654,1.6c-8.269-.246-44.984-1.334-46.6-1.266-1.6.067-.731-28.126-.492-35.083A1.606,1.606,0,0,1,464.842,650.852Z" transform="translate(-462.799 -650.442)" fill="#7d97f4"/><path d="M517.17,694.2h-.009c-6.577-.2-39.694-1.179-45.747-1.264h-.068l-.012-.067c-.573-3.233-.562-16.434.03-33.631a.266.266,0,0,1,.265-.257l45.737-.41a.263.263,0,0,1,.192.079.26.26,0,0,1,.078.19l-.2,35.1A.267.267,0,0,1,517.17,694.2Zm-45.685-1.429c6.232.092,39.128,1.068,45.681,1.263h.008a.1.1,0,0,0,.1-.1l.2-35.1a.1.1,0,0,0-.03-.073.1.1,0,0,0-.074-.03l-45.736.41a.1.1,0,0,0-.1.1C470.942,676.307,470.925,689.432,471.485,692.767Z" transform="translate(-469.573 -657.224)" fill="url(#a)"/></g><path d="M428.183,1379.125c2.377.109,4.678.041,6.214-.038a31.186,31.186,0,0,0-7.317-4.024l-1.851-.111a7.543,7.543,0,0,0-.851,3.137C424.685,1378.472,425.581,1379.005,428.183,1379.125Z" transform="translate(-406.414 -1255.418)" fill="url(#ac)"/><path d="M434.254,1394.976l-.019-.014c-1.536.079-3.837.148-6.214.038-2.6-.12-3.5-.653-3.805-1.036-.01.1-.021.2-.029.306a.867.867,0,0,0,.8.936c1.947.147,6.773.48,9.1.358A.325.325,0,0,0,434.254,1394.976Z" transform="translate(-406.251 -1271.293)" fill="url(#ad)"/><path d="M320.267,1379.034a17.941,17.941,0,0,0-.669-3.141c-.338-.647-1.5,0-1.5,0a3.075,3.075,0,0,0-1.187,1.011c-.239.4-.9,1.549-1.345,2.327a.522.522,0,0,0-.07.277l4.638.162A.926.926,0,0,0,320.267,1379.034Z" transform="translate(-315.499 -1255.963)" fill="url(#ae)"/><path d="M315.5,1399.261a.528.528,0,0,0,.514.513l3.3.091a.933.933,0,0,0,.82-.442Z" transform="translate(-315.5 -1275.716)" fill="url(#ad)"/><path d="M330.852,1351.938c-.04.134-.639,3.039-.9,4.314a.728.728,0,0,1-.749.582c-.2-.01-.424-.028-.664-.059a.879.879,0,0,1-.765-.838,11.9,11.9,0,0,1,.347-4.092C328.685,1350.7,330.852,1351.938,330.852,1351.938Z" transform="translate(-325.729 -1235.717)" fill="url(#ag)"/><path d="M427.33,1355.231c.257-.008-.1,1.327.286,2.639a.675.675,0,0,0,.618.532c.2,0,.437,0,.678-.021a.745.745,0,0,0,.686-.672l.316-3.4Z" transform="translate(-408.879 -1238.179)" fill="url(#ag)"/><path d="M350.789,1132.223c-.115.558-4.164,24.177-4.41,36.4a.416.416,0,0,1-.358.405,8.173,8.173,0,0,1-2.486-.016.293.293,0,0,1-.241-.269c-.142-2.278-1.28-21.534.114-30.6,0,0-11.513,24.231-13.259,30.913a.351.351,0,0,1-.359.263,8.692,8.692,0,0,1-2.333-.414.61.61,0,0,1-.384-.716c.975-4,7.808-31.548,12.448-37.618Z" transform="translate(-325.149 -1051.356)" fill="url(#ai)"/><path d="M425.406,1167.875a.151.151,0,0,1-.108-.257l1.542-1.576a.151.151,0,1,1,.216.211l-1.542,1.576A.151.151,0,0,1,425.406,1167.875Z" transform="translate(-407.146 -1080.937)" fill="url(#aj)"/><path d="M443.095,948.927a14.614,14.614,0,0,1-7.657.018c-3.37-.884-10.012-2.345-14.534-1.531l-.376,11.833,15.461,1.767.139-3.142s9.4-1.357,14.484-7.537a25.173,25.173,0,0,1-2.841-3.849A12.151,12.151,0,0,1,443.095,948.927Z" transform="translate(-403.2 -897.644)" fill="url(#ak)"/><path d="M591.222,887.944l-1.193-.524s.059,5.955-4.378,9.745a25.169,25.169,0,0,0,2.841,3.849C591,897.968,592.455,893.75,591.222,887.944Z" transform="translate(-541.08 -848.322)" fill="url(#al)"/><path d="M462.528,912.254s-.9,5.356-1.018,7.038c0,0,4.335,1.2,5.466.555l-.142-6.478Z" transform="translate(-437.42 -869.059)" fill="url(#am)"/><g transform="translate(0.999 58.99)"><path d="M323.108,1008.245l31.322-.256a1.568,1.568,0,0,1,1.578,1.58l-.161,21.1a1.568,1.568,0,0,1-1.615,1.555l-30.908-1.135a1.568,1.568,0,0,1-1.521-1.547l-.253-19.708A1.568,1.568,0,0,1,323.108,1008.245Z" transform="translate(-321.551 -1007.989)" fill="#7d97f4"/><path d="M361.062,1037.666l-30.916-1.136a.228.228,0,0,1-.22-.225l-.253-19.708a.228.228,0,0,1,.226-.231l31.322-.256a.228.228,0,0,1,.229.23l-.161,21.1A.228.228,0,0,1,361.062,1037.666Zm.159-21.391-31.321.256a.063.063,0,0,0-.063.064l.253,19.708a.063.063,0,0,0,.061.062h0l30.913,1.136a.062.062,0,0,0,.059-.063l.161-21.1a.063.063,0,0,0-.064-.063Z" transform="translate(-328.333 -1014.77)" fill="url(#a)"/></g><g transform="translate(4.444 62.376)"><g transform="translate(10.077 0.214)"><path d="M414.3,1047.14a.463.463,0,0,1-.355-.165l-.929-1.1a7.4,7.4,0,0,1-2.034-.052l-.984,1.057a.463.463,0,0,1-.527.108l-1.78-.79a.464.464,0,0,1-.274-.463l.124-1.439a7.387,7.387,0,0,1-1.4-1.474l-1.442.051a.464.464,0,0,1-.449-.3l-.7-1.817a.464.464,0,0,1,.134-.521l1.1-.929a7.387,7.387,0,0,1,.052-2.034l-1.057-.984a.464.464,0,0,1-.108-.527l.79-1.78a.463.463,0,0,1,.463-.274l1.439.123a7.391,7.391,0,0,1,1.474-1.4l-.051-1.442a.463.463,0,0,1,.3-.449l1.817-.7a.464.464,0,0,1,.521.133l.929,1.1a7.386,7.386,0,0,1,2.034.052l.984-1.057a.464.464,0,0,1,.527-.108l1.78.79a.464.464,0,0,1,.274.463l-.124,1.439a7.393,7.393,0,0,1,1.4,1.474l1.442-.051a.464.464,0,0,1,.449.3l.7,1.816a.463.463,0,0,1-.134.521l-1.1.929a7.387,7.387,0,0,1-.052,2.034l1.057.984a.463.463,0,0,1,.108.527l-.79,1.78a.463.463,0,0,1-.464.274l-1.438-.124a7.392,7.392,0,0,1-1.474,1.4l.051,1.442a.464.464,0,0,1-.3.449l-1.817.7A.461.461,0,0,1,414.3,1047.14Zm-1.012-1.97,1.072,1.273,1.555-.6-.059-1.663.15-.1a6.731,6.731,0,0,0,1.582-1.506l.11-.145,1.659.143.676-1.523-1.219-1.135.034-.179a6.727,6.727,0,0,0,.055-2.183l-.025-.181,1.273-1.072-.6-1.556-1.663.059-.1-.151a6.732,6.732,0,0,0-1.506-1.582l-.145-.11.142-1.659-1.523-.676-1.135,1.219-.179-.034a6.735,6.735,0,0,0-2.183-.055l-.18.025L410,1030.5l-1.555.6.059,1.663-.151.1a6.735,6.735,0,0,0-1.582,1.506l-.11.145-1.659-.142-.676,1.523,1.219,1.135-.034.179a6.728,6.728,0,0,0-.055,2.183l.025.18-1.273,1.072.6,1.555,1.663-.059.1.151a6.73,6.73,0,0,0,1.506,1.582l.145.11-.142,1.659,1.523.676,1.135-1.219.179.034a6.733,6.733,0,0,0,2.184.056Zm2.632.814h0Zm4.216-4.842h0Zm-15.907-5.337h0Zm15.274-1.194h0Zm-11.057-3.648h0Zm3.7,12.526a5.025,5.025,0,1,1,4.964-5.8.33.33,0,1,1-.652.1,4.407,4.407,0,0,0-.241-.9,4.367,4.367,0,1,0-.636,4.263.33.33,0,1,1,.52.406,5.033,5.033,0,0,1-3.955,1.93Z" transform="translate(-403.512 -1029.806)" fill="url(#a)"/><path d="M445.622,1073.972a2.059,2.059,0,1,1,1.679-3.246h0a2.058,2.058,0,0,1-1.679,3.246Zm-.006-3.458a1.4,1.4,0,1,0,.24.021A1.429,1.429,0,0,0,445.616,1070.514Z" transform="translate(-436.952 -1063.247)" fill="url(#a)"/></g><path d="M346.79,1037.28l-.037,0-.93-.115a.311.311,0,0,1-.267-.245l-.134-.633a3.646,3.646,0,0,1-.79-.448l-.612.21a.312.312,0,0,1-.347-.1l-.576-.738a.311.311,0,0,1-.016-.361l.353-.543a3.636,3.636,0,0,1-.242-.876l-.581-.284a.313.313,0,0,1-.173-.317l.115-.931a.311.311,0,0,1,.244-.266l.634-.134a3.636,3.636,0,0,1,.448-.79l-.21-.612a.312.312,0,0,1,.1-.347l.738-.576a.312.312,0,0,1,.361-.016l.543.353a3.649,3.649,0,0,1,.876-.242l.284-.581a.313.313,0,0,1,.318-.172l.929.115a.312.312,0,0,1,.267.245l.134.633a3.642,3.642,0,0,1,.79.448l.612-.21a.312.312,0,0,1,.346.1l.576.739a.311.311,0,0,1,.015.362l-.352.542a3.644,3.644,0,0,1,.242.876l.581.285a.311.311,0,0,1,.172.318l-.115.929a.312.312,0,0,1-.245.267l-.633.134a3.64,3.64,0,0,1-.448.79l.21.612a.312.312,0,0,1-.1.347l-.739.576a.312.312,0,0,1-.361.016l-.543-.353a3.635,3.635,0,0,1-.876.242l-.284.581A.313.313,0,0,1,346.79,1037.28Zm-.75-.465h0Zm-.027-.127.67.083.346-.707.136-.015a3.152,3.152,0,0,0,.985-.272l.124-.057.659.428.532-.415-.255-.744.086-.106a3.144,3.144,0,0,0,.5-.889l.047-.128.769-.163.083-.67-.707-.346-.014-.136a3.153,3.153,0,0,0-.272-.985l-.057-.124.428-.659-.415-.532-.744.255-.106-.086a3.147,3.147,0,0,0-.889-.5l-.128-.047-.163-.77-.67-.083-.345.707-.136.015a3.156,3.156,0,0,0-.985.272l-.124.057-.659-.428-.532.415.255.744-.086.106a3.147,3.147,0,0,0-.5.889l-.047.128-.769.163-.083.67.707.346.014.136a3.148,3.148,0,0,0,.272.985l.057.124-.428.659.415.532.744-.255.106.086a3.15,3.15,0,0,0,.889.5l.128.047Zm-1.95-1.049h0Zm6.681-1.963h0Zm-7.7-1.722v0Zm7.113-1.068h0Zm-.009-.212h0Zm-6.071-.54h0Zm3.527-1.162h0Zm-.8,6.428a2.526,2.526,0,0,1-.313-.019,2.507,2.507,0,1,1,2.285-4.03,2.518,2.518,0,0,1,.282.453.247.247,0,1,1-.446.215,2.031,2.031,0,0,0-.227-.364,2.011,2.011,0,1,0,.29,1.964.247.247,0,1,1,.462.178,2.51,2.51,0,0,1-2.334,1.6Z" transform="translate(-342.436 -1028.508)" fill="url(#a)"/></g><path d="M374.3,958.5l-3.794-6.386s-7.934,6.8-10.333,16.249L364.383,971C366.109,967.919,369.118,963.813,374.3,958.5Z" transform="translate(-352.804 -902.339)" fill="url(#ar)"/><path d="M362.648,1067.728c-.48-.01-.857-.075-1.059-.511a32.154,32.154,0,0,0-1.487-2.914.225.225,0,0,1,.152-.342,2.628,2.628,0,0,1,1.024.053,1.455,1.455,0,0,0,1.536-.381.228.228,0,0,0-.106-.329l-3.748-1.607a.222.222,0,0,1-.129-.144c-.172-.608-.509-2.879,2-7.446a.229.229,0,0,0-.076-.3L357,1051.441a.229.229,0,0,0-.344.139,20.059,20.059,0,0,0,.409,11.194.176.176,0,0,1,.007.028c.048.271.841,4.635,2.4,5.54,1.606.934,4.093-.579,4.093-.579Z" transform="translate(-349.362 -985.252)" fill="url(#as)"/><g transform="translate(21.614 34.644)"><path d="M467.953,882.334a21.22,21.22,0,0,1,1.538,5.047c.1,1.737.471,2.865-1.538,3.214a4.27,4.27,0,0,1-4.618-2.381s-1.436-2.666-1.114-3.758S467.953,882.334,467.953,882.334Z" transform="translate(-459.589 -878.719)" fill="url(#at)"/><path d="M450.938,868.674h.254s-1.046-2.146-.127-2.523,4.561-1.12,5.347-2.412a2.4,2.4,0,0,0-.929-3.305.135.135,0,0,0-.172.063l-.084.158a.136.136,0,0,1-.252-.026h0a.136.136,0,0,0-.245-.037c-.241.386-.892,1.015-2.638,1.337-2.479.457-4.117,1.46-4.157,3.173a.137.137,0,0,1-.211.112c-.183-.112-.476-.164-.867.165-.681.572-.4,2.057,1.09,3.278a.136.136,0,0,1-.006.219c-.27.176-.674.595.371,1.153a2.785,2.785,0,0,0,1.94.448.136.136,0,0,0,.1-.141l-.094-1.518a.136.136,0,0,1,.136-.145Z" transform="translate(-446.506 -860.423)" fill="url(#au)"/><path d="M464.59,904.127s-.55-2.114-1.5-1.521.492,2.369,1.254,2.448Z" transform="translate(-460.095 -895.558)" fill="url(#av)"/></g><path d="M592.252,860.5v2.391s1.947,2.476,4.482,2.574c0,0,2.233-.147,2.157-1.8l-3.571-.682a17.094,17.094,0,0,1-1.918-.669S593.094,860.575,592.252,860.5Z" transform="translate(-546.592 -825.843)" fill="url(#aw)"/><path d="M502.518,732.94H532.5a1.207,1.207,0,0,0,1.04-1.819L521.67,710.943a1.207,1.207,0,0,0-2.138.111L513.8,723.612a1.207,1.207,0,0,1-1.913.389l-2.318-2.125a1.207,1.207,0,0,0-1.806.2l-6.236,8.968A1.207,1.207,0,0,0,502.518,732.94Z" transform="translate(-470.653 -700.465)" fill="url(#a)"/><circle cx="4.31" cy="4.31" r="4.31" transform="translate(57.085 14.135) rotate(-89.414)" fill="url(#a)"/></g><g transform="translate(372.357 99.818)"><path d="M1535.988,316.863a9,9,0,0,1,5.5,1.868l3.223-4.56a14.37,14.37,0,0,0-8.417-2.71c-.416,0-.832.023-1.247.06l.827,5.345C1535.912,316.865,1535.95,316.863,1535.988,316.863Z" transform="translate(-1520.217 -311.461)" fill="url(#az)"/><path d="M1460.932,335.246c-4.992,0-10.063-3.719-10.063-8.711,0-4.954,4.994-9.3,9.949-9.364l-.827-5.345c-7.551.675-14.83,7.345-14.83,14.9,0,7.975,8.1,13.916,16.077,13.916a14.382,14.382,0,0,0,5.869-1.247l-3.246-4.643A9.024,9.024,0,0,1,1460.932,335.246Z" transform="translate(-1445.161 -311.767)" fill="url(#ba)"/><path d="M1570.32,339.617a14.418,14.418,0,0,0-6.024-11.731l-3.223,4.56a9.037,9.037,0,0,1-2.571,15.721l3.246,4.643A14.44,14.44,0,0,0,1570.32,339.617Z" transform="translate(-1539.803 -325.176)" fill="url(#bb)"/></g><g transform="translate(413.567 99.818)"><path d="M1739.8,316.863a9.037,9.037,0,0,1,8.093,5.014l3.725-4.692a14.416,14.416,0,0,0-11.512-5.724,16.654,16.654,0,0,0-10.33,3.893l3.3,4.165A10.482,10.482,0,0,1,1739.8,316.863Z" transform="translate(-1724.026 -311.461)" fill="#7d97f4"/><path d="M1700.65,345.931a9.087,9.087,0,0,1,3.338-6.711l-3.3-4.165a14.662,14.662,0,0,0-5.746,11.072c0,7.874,7.9,13.762,15.774,13.909l-.253-5.4C1705.553,354.515,1700.65,350.84,1700.65,345.931Z" transform="translate(-1694.942 -331.162)" fill="#91b3fa"/><path d="M1789.267,429.816c-.083,0-.167,0-.25-.006l.253,5.4c.1,0,.2.007.3.007a14.436,14.436,0,0,0,12.849-7.853c-1.382-.624-3.432-1.516-5.206-2.282A9.037,9.037,0,0,1,1789.267,429.816Z" transform="translate(-1773.496 -406.337)" fill="#bdd0fb"/><path d="M1842.581,346.155l-3.725,4.692a9.045,9.045,0,0,1-.144,8.33c1.774.766,3.824,1.658,5.206,2.282a14.433,14.433,0,0,0-1.337-15.3Z" transform="translate(-1814.992 -340.431)" fill="#91b3fa"/></g><g transform="translate(454.778 99.818)"><path d="M1988.072,316.863a8.994,8.994,0,0,1,5.183,1.636l2.913-4.754a14.368,14.368,0,0,0-7.79-2.284,16.721,16.721,0,0,0-10.628,4.143l3.456,4.038A10.515,10.515,0,0,1,1988.072,316.863Z" transform="translate(-1972.301 -311.461)" fill="#7d97f4"/><path d="M2075.566,336.941l5.626-1.137a14.433,14.433,0,0,0-6.554-10.5l-2.912,4.754A9.026,9.026,0,0,1,2075.566,336.941Z" transform="translate(-2050.772 -323.02)" fill="url(#bc)"/><path d="M1950.431,347.2a9.039,9.039,0,0,1,3.2-6.588l-3.456-4.038a14.56,14.56,0,0,0-5.449,10.822c0,5.167,3.4,9.478,7.967,11.875l2.823-4.587A8.652,8.652,0,0,1,1950.431,347.2Z" transform="translate(-1944.723 -332.427)" fill="#91b3fa"/><path d="M2009.837,390.083c.01.172.016.345.016.519a9.039,9.039,0,0,1-9.039,9.039,11.017,11.017,0,0,1-4.981-1.227L1993.01,403a17.611,17.611,0,0,0,8.11,2.041,14.425,14.425,0,0,0,14.343-16.1Z" transform="translate(-1985.043 -376.162)" fill="url(#bd)"/></g><g transform="translate(343.71 65.249)"><path d="M1328.341,102.236l-53.958-.3a2.832,2.832,0,0,0-2.444,4.29l.271.451a2.832,2.832,0,0,0,2.428,1.374h53.687a2.832,2.832,0,0,0,2.832-2.832v-.151A2.832,2.832,0,0,0,1328.341,102.236Z" transform="translate(-1271.531 -101.936)" fill="#bdd0fb"/><path d="M1661.548,106.971v.088a2.832,2.832,0,0,0,2.832,2.832h11.978a2.832,2.832,0,0,0,2.736-2.1h0a2.832,2.832,0,0,0-2.715-3.563l-11.978-.088A2.832,2.832,0,0,0,1661.548,106.971Z" transform="translate(-1597.201 -103.775)" fill="#bdd0fb"/></g><g transform="translate(343.71 75.416)"><path d="M1315.361,163.858l-40.978-.3a2.832,2.832,0,0,0-2.444,4.29l.271.451a2.832,2.832,0,0,0,2.428,1.374h40.707a2.832,2.832,0,0,0,2.832-2.832v-.151A2.832,2.832,0,0,0,1315.361,163.858Z" transform="translate(-1271.531 -163.558)" fill="#bdd0fb"/><path d="M1582.878,168.594v.088a2.832,2.832,0,0,0,2.832,2.832h11.978a2.832,2.832,0,0,0,2.736-2.1h0a2.832,2.832,0,0,0-2.716-3.563l-11.978-.088A2.832,2.832,0,0,0,1582.878,168.594Z" transform="translate(-1531.51 -165.398)" fill="#bdd0fb"/></g><g transform="translate(263.29 92.647)"><path d="M841.86,268a.874.874,0,0,0-.6.241l-11.915,11.286a5.533,5.533,0,0,1-3.82,1.522H784.968a.878.878,0,1,0,0,1.755h40.554a7.281,7.281,0,0,0,5.027-2l11.915-11.286a.878.878,0,0,0-.6-1.515Z" transform="translate(-784.09 -267.996)" fill="#91b3fa"/><path d="M819.295,380.071H784.968a.878.878,0,1,0,0,1.755h34.327a.878.878,0,1,0,0-1.755Z" transform="translate(-784.09 -361.58)" fill="#91b3fa"/><path d="M813.709,413.057H784.968a.878.878,0,1,0,0,1.755h28.742a.878.878,0,0,0,0-1.755Z" transform="translate(-784.09 -389.124)" fill="#91b3fa"/></g></g></svg>