<svg xmlns="http://www.w3.org/2000/svg" width="213.83" height="129.526" viewBox="0 0 213.83 129.526"><g transform="translate(0 65.857)"><path d="M1147.283,1748.28a1.921,1.921,0,1,1-2.073-2.767A4.892,4.892,0,0,1,1147.283,1748.28Z" transform="translate(-1142.279 -1745.513)" fill="#31d9e7"/><path d="M1136.857,1791.22a1.921,1.921,0,1,1-3.451-.212A4.892,4.892,0,0,1,1136.857,1791.22Z" transform="translate(-1133.406 -1782.504)" fill="#31d9e7"/><path d="M1153.759,1846.384a1.922,1.922,0,1,1-3.218,1.266A4.892,4.892,0,0,1,1153.759,1846.384Z" transform="translate(-1147.408 -1827.933)" fill="#31d9e7"/><path d="M1180.754,1888.875a1.921,1.921,0,1,1-2.691,2.171A4.892,4.892,0,0,1,1180.754,1888.875Z" transform="translate(-1169.898 -1862.597)" fill="#31d9e7"/><path d="M1207.819,1914.66a1.921,1.921,0,1,1-2.691,2.171A4.891,4.891,0,0,1,1207.819,1914.66Z" transform="translate(-1192.014 -1883.668)" fill="#31d9e7"/><path d="M1173.843,1803.587a1.921,1.921,0,1,1-.2,3.452A4.892,4.892,0,0,1,1173.843,1803.587Z" transform="translate(-1166.097 -1791.349)" fill="#31d9e7"/><path d="M1196.337,1843.088a1.921,1.921,0,1,1-.2,3.452A4.893,4.893,0,0,1,1196.337,1843.088Z" transform="translate(-1184.478 -1823.627)" fill="#31d9e7"/><path d="M1173.778,1798.687a.256.256,0,0,0,.1-.491c-7.809-3.392-12.813-10.7-15.635-16.226a45.274,45.274,0,0,1-4.675-13.645.256.256,0,1,0-.512.026c.086,1.717,1.606,7.732,4.73,13.853,2.861,5.6,7.939,13.011,15.888,16.463A.258.258,0,0,0,1173.778,1798.687Z" transform="translate(-1149.465 -1763.954)" fill="#5490a8"/></g><g transform="translate(1.561 93.96)"><path d="M1145.346,1901.375a1.932,1.932,0,1,1-3.4-.711A4.92,4.92,0,0,1,1145.346,1901.375Z" transform="translate(-1141.942 -1900.354)" fill="#31d9e7"/><path d="M1177.883,1902.028a1.932,1.932,0,1,1-2.039-2.816A4.92,4.92,0,0,1,1177.883,1902.028Z" transform="translate(-1168.831 -1899.211)" fill="#31d9e7"/><path d="M1167.606,1942.048a1.932,1.932,0,1,1,2.29-2.617A4.92,4.92,0,0,1,1167.606,1942.048Z" transform="translate(-1160.076 -1931.72)" fill="#31d9e7"/><path d="M1204.16,1957.281a1.933,1.933,0,1,1,1.094-3.3A4.919,4.919,0,0,1,1204.16,1957.281Z" transform="translate(-1190.11 -1943.966)" fill="#31d9e7"/><path d="M1172.634,1919a.2.2,0,0,1-.1.039c-3.182.405-7.161-.845-11.827-3.715a47.971,47.971,0,0,1-6.055-4.43.2.2,0,1,1,.272-.3c.1.09,10.18,8.985,17.559,8.045a.2.2,0,0,1,.148.366Z" transform="translate(-1152.275 -1908.467)" fill="#5490a8"/></g><path d="M1258.359,1583.727c-15.145-9.931-24.58-60.828,19.614-69.518s32.773-13.407,51.89-29.545,81.684-10.428,88.139,36.5c4.67,33.946-13.9,55.118-28.056,62.566Z" transform="translate(-1225.205 -1459.843)" fill="#31d9e7" opacity="0.3"/><g transform="translate(155.403 3.367)"><g transform="translate(39.382 10.731)"><path d="M2198.742,1462.525a.164.164,0,0,1,.289-.006c.161.287.317.581.465.875a.164.164,0,1,1-.292.147c-.146-.29-.3-.579-.458-.862A.165.165,0,0,1,2198.742,1462.525Z" transform="translate(-2198.725 -1462.435)" fill="#78abd4"/><g transform="translate(1.187 2.483)"><path d="M2205.235,1476.1a.164.164,0,0,1,.3.013c.22.55.42,1.116.593,1.682a.164.164,0,0,1-.313.1c-.171-.558-.367-1.115-.584-1.656A.163.163,0,0,1,2205.235,1476.1Zm1.036,3.382a.164.164,0,0,1,.306.039c.125.58.228,1.171.3,1.758a.164.164,0,1,1-.325.042c-.075-.578-.176-1.16-.3-1.731A.161.161,0,0,1,2206.271,1479.486Zm.457,3.507a.164.164,0,0,1,.311.066c.027.592.029,1.192.006,1.784a.164.164,0,1,1-.328-.013c.023-.582.02-1.173-.006-1.756A.166.166,0,0,1,2206.728,1482.993Zm-.138,3.534a.164.164,0,0,1,.31.094c-.073.588-.172,1.181-.295,1.759a.164.164,0,0,1-.321-.068c.121-.57.219-1.152.291-1.732A.155.155,0,0,1,2206.59,1486.527Z" transform="translate(-2205.217 -1476.014)" fill="#78abd4"/></g><g transform="translate(1.504 16.369)"><path d="M2207.272,1552.052a.164.164,0,0,1,.3.121c-.095.314-.2.631-.309.942a.164.164,0,1,1-.309-.11c.108-.306.21-.618.3-.927A.147.147,0,0,1,2207.272,1552.052Z" transform="translate(-2206.949 -1551.963)" fill="#78abd4"/></g></g><g transform="translate(36.537 34.54)"><path d="M2183.182,1593.479a.191.191,0,0,1,.026-.037c.219-.239.436-.486.642-.734a.164.164,0,0,1,.252.21c-.21.252-.43.5-.653.746a.164.164,0,0,1-.267-.184Z" transform="translate(-2183.165 -1592.649)" fill="#78abd4"/></g><path d="M1985.477,1415.67a.164.164,0,0,1,.294.146c-.289.594-.553,1.207-.784,1.822a.164.164,0,0,1-.307-.115c.234-.625.5-1.247.8-1.85Zm.958-1.754.006-.011c.349-.573.728-1.135,1.128-1.669a.164.164,0,0,1,.263.2c-.394.527-.767,1.079-1.111,1.644a.164.164,0,0,1-.286-.159Zm-2.36,5.492a.164.164,0,0,1,.3.117c-.172.636-.315,1.288-.425,1.937a.164.164,0,0,1-.323-.055c.112-.659.257-1.322.432-1.968A.149.149,0,0,1,1984.075,1419.409Zm4.751-8.69a.157.157,0,0,1,.025-.037c.45-.5.929-.975,1.424-1.425a.164.164,0,0,1,.221.242c-.488.443-.959.915-1.4,1.4a.164.164,0,0,1-.268-.184Zm-5.419,12.627a.164.164,0,0,1,.31.086c-.047.656-.064,1.323-.049,1.983a.164.164,0,0,1-.328.007c-.016-.67,0-1.347.049-2.014A.169.169,0,0,1,1983.406,1423.345Zm8.374-15.313a.163.163,0,0,1,.048-.057c.536-.4,1.1-.78,1.669-1.128a.164.164,0,0,1,.171.28c-.563.343-1.116.716-1.644,1.111a.164.164,0,0,1-.244-.205Zm-8.282,19.306a.164.164,0,0,1,.309.054c.078.654.188,1.312.327,1.957a.164.164,0,1,1-.32.069c-.142-.655-.253-1.323-.333-1.987A.165.165,0,0,1,1983.5,1427.338Zm11.693-21.383a.167.167,0,0,1,.075-.074c.6-.292,1.225-.559,1.852-.793a.164.164,0,0,1,.115.307c-.618.231-1.231.493-1.824.781a.164.164,0,0,1-.218-.221Zm-10.849,25.286a.164.164,0,0,1,.3.024c.2.628.431,1.254.689,1.86a.164.164,0,0,1-.3.128c-.262-.615-.5-1.251-.7-1.889A.164.164,0,0,1,1984.343,1431.241Zm14.591-26.683a.162.162,0,0,1,.1-.084c.647-.174,1.309-.319,1.968-.431a.164.164,0,0,1,.055.323c-.649.11-1.3.253-1.938.424a.164.164,0,0,1-.2-.116A.162.162,0,0,1,1998.934,1404.558Zm-13.028,30.358a.162.162,0,0,1,.068-.07.164.164,0,0,1,.222.066c.314.579.66,1.15,1.027,1.7a.164.164,0,1,1-.272.183c-.373-.555-.724-1.135-1.043-1.724A.163.163,0,0,1,1985.906,1434.917Zm16.965-31.027a.164.164,0,0,1,.134-.09c.668-.049,1.345-.067,2.014-.052a.164.164,0,1,1-.007.328c-.658-.014-1.325,0-1.983.051a.163.163,0,0,1-.175-.151A.16.16,0,0,1,2002.871,1403.889Zm-14.737,34.342a.157.157,0,0,1,.042-.053.164.164,0,0,1,.231.023c.418.51.865,1,1.33,1.472a.164.164,0,1,1-.233.231c-.472-.474-.926-.977-1.351-1.495A.163.163,0,0,1,1988.134,1438.232Zm18.73-34.255a.164.164,0,0,1,.166-.089c.664.078,1.333.19,1.987.332a.164.164,0,0,1-.069.321c-.644-.14-1.3-.25-1.956-.327a.164.164,0,0,1-.144-.182A.159.159,0,0,1,2006.863,1403.977Zm-15.913,37.086a.155.155,0,0,1,.02-.031.164.164,0,0,1,.231-.021c.507.42,1.04.82,1.585,1.191a.164.164,0,0,1-.184.271c-.554-.376-1.1-.784-1.61-1.21A.164.164,0,0,1,1990.95,1441.063Zm19.816-36.241a.164.164,0,0,1,.2-.082c.636.2,1.272.439,1.888.7a.164.164,0,0,1-.129.3c-.607-.259-1.232-.492-1.859-.692a.164.164,0,0,1-.106-.206A.152.152,0,0,1,2010.766,1404.822Zm-16.514,38.485,0-.005a.164.164,0,0,1,.223-.065c.22.121.446.24.671.353.364.184.737.358,1.11.52a.164.164,0,1,1-.13.3c-.379-.164-.758-.342-1.128-.528-.228-.115-.458-.236-.681-.358A.164.164,0,0,1,1994.252,1443.307Zm3.665,1.587a.164.164,0,0,1,.2-.082c.627.2,1.271.379,1.913.522a.164.164,0,1,1-.071.32c-.653-.145-1.307-.323-1.944-.53a.164.164,0,0,1-.105-.207A.18.18,0,0,1,1997.917,1444.894Zm3.9.866a.164.164,0,0,1,.166-.089c.653.08,1.318.131,1.977.148a.164.164,0,1,1-.009.328c-.669-.018-1.344-.069-2.008-.151a.164.164,0,0,1-.143-.183A.159.159,0,0,1,2001.816,1445.76Zm3.99.109a.164.164,0,0,1,.135-.09c.657-.044,1.319-.122,1.97-.229a.164.164,0,0,1,.053.324c-.661.108-1.334.187-2,.232a.164.164,0,0,1-.175-.152A.161.161,0,0,1,2005.806,1445.869Zm3.94-.648a.164.164,0,0,1,.1-.085c.637-.167,1.273-.368,1.892-.6a.164.164,0,0,1,.113.308c-.628.231-1.275.434-1.922.6a.164.164,0,0,1-.188-.232Zm3.749-1.378a.16.16,0,0,1,.075-.074c.594-.285,1.182-.6,1.747-.941a.164.164,0,1,1,.169.281c-.573.345-1.17.667-1.774.956a.164.164,0,0,1-.217-.222Zm3.423-2.059a.164.164,0,0,1,.049-.058c.53-.392,1.047-.814,1.537-1.254a.164.164,0,1,1,.219.244c-.5.447-1.023.876-1.562,1.274a.164.164,0,0,1-.244-.206Z" transform="translate(-1983.334 -1403.743)" fill="#78abd4"/><g transform="translate(31.114 2.572)"><path d="M2153.519,1417.9l0,0a.164.164,0,0,1,.222-.066c.289.157.578.323.859.494a.164.164,0,0,1-.17.281c-.277-.168-.562-.332-.846-.486A.164.164,0,0,1,2153.519,1417.9Z" transform="translate(-2153.502 -1417.808)" fill="#78abd4"/></g><g transform="translate(39.382 10.731)"><path d="M2198.742,1462.525a.164.164,0,0,1,.289-.006c.161.287.317.581.465.875a.164.164,0,1,1-.292.147c-.146-.29-.3-.579-.458-.862A.165.165,0,0,1,2198.742,1462.525Z" transform="translate(-2198.725 -1462.435)" fill="#78abd4"/><g transform="translate(1.187 2.483)"><path d="M2205.235,1476.1a.164.164,0,0,1,.3.013c.22.55.42,1.116.593,1.682a.164.164,0,0,1-.313.1c-.171-.558-.367-1.115-.584-1.656A.163.163,0,0,1,2205.235,1476.1Zm1.036,3.382a.164.164,0,0,1,.306.039c.125.58.228,1.171.3,1.758a.164.164,0,1,1-.325.042c-.075-.578-.176-1.16-.3-1.731A.161.161,0,0,1,2206.271,1479.486Zm.457,3.507a.164.164,0,0,1,.311.066c.027.592.029,1.192.006,1.784a.164.164,0,1,1-.328-.013c.023-.582.02-1.173-.006-1.756A.166.166,0,0,1,2206.728,1482.993Zm-.138,3.534a.164.164,0,0,1,.31.094c-.073.588-.172,1.181-.295,1.759a.164.164,0,0,1-.321-.068c.121-.57.219-1.152.291-1.732A.155.155,0,0,1,2206.59,1486.527Z" transform="translate(-2205.217 -1476.014)" fill="#78abd4"/></g><g transform="translate(1.504 16.369)"><path d="M2207.272,1552.052a.164.164,0,0,1,.3.121c-.095.314-.2.631-.309.942a.164.164,0,1,1-.309-.11c.108-.306.21-.618.3-.927A.147.147,0,0,1,2207.272,1552.052Z" transform="translate(-2206.949 -1551.963)" fill="#78abd4"/></g></g><g transform="translate(34.143 0.758)"><g transform="translate(3.538 2.685)"><path d="M2189.421,1426.427v-3.853l3.563,1.781Zm.294-3.377v2.865l2.649-1.54Z" transform="translate(-2189.421 -1422.575)" fill="#78abd4"/></g><path d="M2179.652,1415.6h-9.582v-7.713h3.593l.694,1.689h5.3Zm-9.288-.294h8.994v-5.435h-5.2l-.694-1.689h-3.1Z" transform="translate(-2170.07 -1407.889)" fill="#78abd4"/></g><g transform="translate(36.071 28.801)"><path d="M2187.424,1569.269l-2.6-1.89-2.6,1.89.993-3.058-2.6-1.89h3.216l.994-3.058.993,3.058h3.215l-2.6,1.89Zm-2.6-2.3,1.978,1.437-.756-2.325,1.978-1.437h-2.445l-.755-2.325-.756,2.325h-2.445l1.978,1.437-.756,2.325Z" transform="translate(-2180.613 -1561.263)" fill="#78abd4"/></g></g><g transform="translate(172.799 63.731)"><path d="M2256.764,1738.5c-.546,2.817,1.485,5.579,1.485,5.579s2.917-1.8,3.463-4.62-1.486-5.58-1.486-5.58S2257.31,1735.688,2256.764,1738.5Z" transform="translate(-2224.09 -1733.884)" fill="#31d9e7"/><path d="M2256.662,1810.213c-2.5,1.408-3.29,4.745-3.29,4.745s3.263,1.054,5.763-.353,3.29-4.745,3.29-4.745S2259.162,1808.8,2256.662,1810.213Z" transform="translate(-2221.394 -1795.658)" fill="#31d9e7"/><path d="M2222.6,1902.335c-2.86.22-4.986,2.912-4.986,2.912s2.512,2.334,5.373,2.114,4.986-2.912,4.986-2.912S2225.459,1902.115,2222.6,1902.335Z" transform="translate(-2192.173 -1871.523)" fill="#31d9e7"/><path d="M2178.575,1973.293c-2.795-.646-5.629,1.285-5.629,1.285s1.7,2.979,4.494,3.626,5.629-1.285,5.629-1.285S2181.37,1973.94,2178.575,1973.293Z" transform="translate(-2155.674 -1929.411)" fill="#31d9e7"/><path d="M2133.376,2016.354c-2.8-.646-5.629,1.285-5.629,1.285s1.7,2.979,4.494,3.626,5.629-1.285,5.629-1.285S2136.172,2017,2133.376,2016.354Z" transform="translate(-2118.739 -1964.599)" fill="#31d9e7"/><path d="M2209.252,1830.866c-1.4-2.506-4.731-3.31-4.731-3.31s-1.068,3.259.329,5.765,4.731,3.31,4.731,3.31S2210.649,1833.372,2209.252,1830.866Z" transform="translate(-2181.156 -1810.429)" fill="#31d9e7"/><path d="M2171.687,1896.832c-1.4-2.506-4.731-3.31-4.731-3.31s-1.068,3.259.329,5.765,4.731,3.31,4.731,3.31S2173.085,1899.338,2171.687,1896.832Z" transform="translate(-2150.46 -1864.333)" fill="#31d9e7"/><path d="M2078.908,1822.683a.428.428,0,0,1-.17-.821c13.041-5.665,21.4-17.862,26.11-27.1,5.572-10.916,7.7-20.658,7.806-22.787a.428.428,0,1,1,.855.043c-.143,2.868-2.681,12.912-7.9,23.134-4.778,9.36-13.258,21.728-26.532,27.493A.428.428,0,0,1,2078.908,1822.683Z" transform="translate(-2078.479 -1764.68)" fill="#5490a8"/></g><g transform="translate(158.99 28.543)"><path d="M2048.129,1545.028a2.088,2.088,0,1,0,1.1-3.594A5.316,5.316,0,0,0,2048.129,1545.028Z" transform="translate(-2039.837 -1541.434)" fill="#66aecc"/><path d="M2064.607,1584.533a2.088,2.088,0,1,0,3.449-1.492A5.317,5.317,0,0,0,2064.607,1584.533Z" transform="translate(-2052.53 -1575.433)" fill="#66aecc"/><path d="M2061.726,1650.06a2.088,2.088,0,1,0,3.756.1A5.316,5.316,0,0,0,2061.726,1650.06Z" transform="translate(-2049.013 -1629.94)" fill="#66aecc"/><path d="M2049,1704.22a2.088,2.088,0,1,0,3.552,1.225A5.316,5.316,0,0,0,2049,1704.22Z" transform="translate(-2037.996 -1674.437)" fill="#66aecc"/><path d="M2030.868,1740.576a2.088,2.088,0,1,0,3.552,1.224A5.315,5.315,0,0,0,2030.868,1740.576Z" transform="translate(-2023.182 -1704.145)" fill="#66aecc"/><path d="M2035.915,1615.105a2.088,2.088,0,1,0,1.477,3.455A5.315,5.315,0,0,0,2035.915,1615.105Z" transform="translate(-2026.924 -1600.819)" fill="#66aecc"/><path d="M2027.526,1663.788a2.088,2.088,0,1,0,1.478,3.455A5.315,5.315,0,0,0,2027.526,1663.788Z" transform="translate(-2020.069 -1640.6)" fill="#66aecc"/><path d="M2003.328,1605.122a.279.279,0,0,1-.286-.465c6.727-6.352,9.141-15.666,9.982-22.361.993-7.913.14-14.346-.266-15.672a.279.279,0,0,1,.533-.163c.547,1.786,1.217,8.495.286,15.905-.852,6.785-3.3,16.231-10.151,22.7A.284.284,0,0,1,2003.328,1605.122Z" transform="translate(-2002.955 -1561.724)" fill="#5490a8"/></g><g transform="translate(160.678 54.056)"><path d="M2102.229,1682.222a1.157,1.157,0,1,0,1.664-1.252A2.945,2.945,0,0,0,2102.229,1682.222Z" transform="translate(-2085.584 -1680.97)" fill="#66aecc"/><path d="M2095.451,1707.841a1.157,1.157,0,1,0,2.031.457A2.944,2.944,0,0,0,2095.451,1707.841Z" transform="translate(-2078.905 -1702.888)" fill="#66aecc"/><path d="M2075.538,1736.015a1.157,1.157,0,1,0,1.648,1.272A2.945,2.945,0,0,0,2075.538,1736.015Z" transform="translate(-2062.304 -1725.919)" fill="#66aecc"/><path d="M2053.836,1755.643a1.157,1.157,0,1,0,1.192,1.707A2.945,2.945,0,0,0,2053.836,1755.643Z" transform="translate(-2044.522 -1741.776)" fill="#66aecc"/><path d="M2033.853,1766.011a1.157,1.157,0,1,0,1.192,1.707A2.945,2.945,0,0,0,2033.853,1766.011Z" transform="translate(-2028.192 -1750.249)" fill="#66aecc"/><path d="M2077.729,1708.009a1.157,1.157,0,1,0-.466,2.03A2.946,2.946,0,0,0,2077.729,1708.009Z" transform="translate(-2064.258 -1701.74)" fill="#66aecc"/><path d="M2058.087,1727.077a1.157,1.157,0,1,0-.466,2.03A2.946,2.946,0,0,0,2058.087,1727.077Z" transform="translate(-2048.208 -1717.321)" fill="#66aecc"/><path d="M2012.3,1707.415a.154.154,0,0,1,.023-.3c5.086-.65,9.206-4.034,11.767-6.759a27.266,27.266,0,0,0,4.995-7.107.154.154,0,1,1,.292.1,27.745,27.745,0,0,1-5.061,7.218c-2.6,2.761-6.776,6.192-11.953,6.854A.155.155,0,0,1,2012.3,1707.415Z" transform="translate(-2012.185 -1690.918)" fill="#5490a8"/></g><path d="M1404.822,1437.955a18.769,18.769,0,0,1-2.345,9.908c-11.022,20.146-40.487,17.446-49.275,6.346-9.435-11.917,8.193-36.249,25.821-27.062C1394.691,1435.312,1404.279,1427,1404.822,1437.955Z" transform="translate(-1310.862 -1417.843)" fill="#31d9e7" opacity="0.3"/><g transform="translate(11.05 1.695)"><g transform="translate(0 4.885)"><path d="M1202.729,1426.766h-8.888v-5.451h8.888Zm-8.594-.294h8.3v-4.862h-8.3Z" transform="translate(-1193.841 -1421.315)" fill="#78abd4"/></g><g transform="translate(8.594 6.091)"><path d="M1242.994,1430.95l-2.149-.4v-2.234l2.149-.4Zm-1.855-.646,1.56.292v-2.33l-1.56.292Z" transform="translate(-1240.845 -1427.912)" fill="#78abd4"/></g><g transform="translate(4.071)"><path d="M1218.605,1399.6a2.5,2.5,0,1,1,2.5-2.5A2.5,2.5,0,0,1,1218.605,1399.6Zm0-4.7a2.2,2.2,0,1,0,2.2,2.205A2.208,2.208,0,0,0,1218.605,1394.891Z" transform="translate(-1216.106 -1394.597)" fill="#78abd4"/></g><g transform="translate(0.498 1.855)"><path d="M1198.111,1407.839a1.549,1.549,0,1,1,1.549-1.549A1.551,1.551,0,0,1,1198.111,1407.839Zm0-2.8a1.255,1.255,0,1,0,1.255,1.255A1.257,1.257,0,0,0,1198.111,1405.034Z" transform="translate(-1196.562 -1404.74)" fill="#78abd4"/></g></g><g transform="translate(15.206 0)"><path d="M1240.213,1387.909q.156.105.309.214a.163.163,0,0,1,.039.228.167.167,0,0,1-.228.039,15.177,15.177,0,0,0-1.656-1.019.164.164,0,1,1,.153-.29A15.425,15.425,0,0,1,1240.213,1387.909Zm1.832,1.449.02.016a15.109,15.109,0,0,1,1.366,1.442.164.164,0,1,1-.252.209,14.8,14.8,0,0,0-1.337-1.411.164.164,0,0,1,.2-.256Zm-4.993-3.072a.164.164,0,0,1-.149.29,14.739,14.739,0,0,0-1.862-.555.164.164,0,0,1,.073-.32,15.167,15.167,0,0,1,1.9.567A.159.159,0,0,1,1237.053,1386.286Zm7.5,6.091a.165.165,0,0,1,.047.049,15.2,15.2,0,0,1,.943,1.749.164.164,0,1,1-.3.136,14.927,14.927,0,0,0-.923-1.711.164.164,0,0,1,.23-.223Zm-11.32-6.961a.164.164,0,0,1-.106.3,14.872,14.872,0,0,0-1.943-.052.164.164,0,1,1-.013-.328,15.184,15.184,0,0,1,1.986.053A.16.16,0,0,1,1233.23,1385.417Zm12.952,10.528a.163.163,0,0,1,.065.088,15.327,15.327,0,0,1,.459,1.933.164.164,0,0,1-.323.055,14.983,14.983,0,0,0-.449-1.891.164.164,0,0,1,.248-.184Zm-16.87-10.376a.164.164,0,0,1-.064.3,14.984,14.984,0,0,0-1.891.452.164.164,0,0,1-.1-.313,15.271,15.271,0,0,1,1.932-.461A.163.163,0,0,1,1229.311,1385.569Zm17.526,14.242a.164.164,0,0,1,.073.13,15.252,15.252,0,0,1-.055,1.985.164.164,0,1,1-.326-.031,14.98,14.98,0,0,0,.054-1.942.164.164,0,0,1,.255-.142Zm-21.273-13.084a.164.164,0,0,1-.023.285,14.862,14.862,0,0,0-1.71.925.164.164,0,0,1-.175-.277,15.223,15.223,0,0,1,1.748-.946A.164.164,0,0,1,1225.563,1386.727Zm20.908,16.987a.164.164,0,0,1,.068.172,15.027,15.027,0,0,1-.57,1.9.164.164,0,1,1-.307-.115,14.789,14.789,0,0,0,.557-1.862.164.164,0,0,1,.251-.1Zm-1.37,3.674a.164.164,0,0,1,.053.213,15.349,15.349,0,0,1-.819,1.366q-.11.164-.224.324a.162.162,0,0,1-.229.039.164.164,0,0,1-.039-.228q.111-.157.219-.317a15.125,15.125,0,0,0,.8-1.337.164.164,0,0,1,.221-.068Zm-2.272,3.2.02.016a.164.164,0,0,1,.009.232,15.134,15.134,0,0,1-1.444,1.364.164.164,0,1,1-.209-.252,14.855,14.855,0,0,0,1.412-1.335A.164.164,0,0,1,1242.83,1410.584Zm-3.022,2.5a.164.164,0,0,1,0,.275,15.188,15.188,0,0,1-1.75.941.164.164,0,1,1-.136-.3,14.876,14.876,0,0,0,1.712-.921A.164.164,0,0,1,1239.808,1413.084Zm-22.913-14.17a.164.164,0,0,1,.072.152,14.956,14.956,0,0,0-.059,1.943.164.164,0,1,1-.327.012,15.163,15.163,0,0,1,.06-1.986.164.164,0,0,1,.254-.12Zm19.343,15.8a.166.166,0,0,1,.065.088.164.164,0,0,1-.109.2,15.329,15.329,0,0,1-1.933.456.164.164,0,0,1-.054-.323,15.039,15.039,0,0,0,1.892-.447A.164.164,0,0,1,1236.239,1414.712Zm-19.205-11.877a.163.163,0,0,1,.07.109,14.987,14.987,0,0,0,.445,1.893.164.164,0,1,1-.314.1,15.358,15.358,0,0,1-.454-1.934.164.164,0,0,1,.135-.188A.162.162,0,0,1,1217.033,1402.835Zm15.338,12.528a.164.164,0,0,1-.085.3,15.276,15.276,0,0,1-1.985-.057.164.164,0,1,1,.031-.326,14.9,14.9,0,0,0,1.942.056A.163.163,0,0,1,1232.371,1415.363Zm-14.194-8.777a.164.164,0,0,1,.057.068,14.905,14.905,0,0,0,.919,1.713.164.164,0,1,1-.278.174,15.161,15.161,0,0,1-.939-1.751.164.164,0,0,1,.241-.2Zm10.292,8.406a.164.164,0,0,1-.128.3,15.072,15.072,0,0,1-1.9-.572.164.164,0,0,1,.115-.307,14.84,14.84,0,0,0,1.861.559A.165.165,0,0,1,1228.47,1414.993Zm-8.215-5.079a.163.163,0,0,1,.035.032,14.806,14.806,0,0,0,1.334,1.414.164.164,0,0,1-.223.24,15.118,15.118,0,0,1-1.363-1.446.164.164,0,0,1,.218-.24Zm4.543,3.706a.164.164,0,0,1-.169.28,15.335,15.335,0,0,1-1.689-1.045.164.164,0,1,1,.19-.267,15.218,15.218,0,0,0,1.653,1.023Z" transform="translate(-1216.572 -1385.325)" fill="#78abd4"/></g><path d="M1368.974,2067.1h-175.6v-4.117a1.842,1.842,0,0,1,1.842-1.842h171.914a1.842,1.842,0,0,1,1.842,1.842Z" transform="translate(-1182.411 -1937.573)" fill="#a0d1d9"/><g transform="translate(44.542 22.805)"><path d="M1377.016,1510.05v100.379h116.726V1510.05Zm9.67,89.754a1.065,1.065,0,0,1-1.065,1.065h-5.928a1.065,1.065,0,0,1-1.065-1.065v-8.979a1.065,1.065,0,0,1,1.065-1.065h5.928a1.065,1.065,0,0,1,1.065,1.065Zm0-23.682a1.065,1.065,0,0,1-1.065,1.065h-5.928a1.065,1.065,0,0,1-1.065-1.065v-8.979a1.065,1.065,0,0,1,1.065-1.065h5.928a1.065,1.065,0,0,1,1.065,1.065Zm0-25.005a1.065,1.065,0,0,1-1.065,1.065h-5.928a1.065,1.065,0,0,1-1.065-1.065v-8.979a1.065,1.065,0,0,1,1.065-1.065h5.928a1.065,1.065,0,0,1,1.065,1.065Zm0-23.682a1.065,1.065,0,0,1-1.065,1.065h-5.928a1.065,1.065,0,0,1-1.065-1.065v-8.979a1.065,1.065,0,0,1,1.065-1.065h5.928a1.065,1.065,0,0,1,1.065,1.065Zm105.463,72.368a1.065,1.065,0,0,1-1.065,1.065h-5.928a1.065,1.065,0,0,1-1.065-1.065v-8.979a1.065,1.065,0,0,1,1.065-1.065h5.928a1.065,1.065,0,0,1,1.065,1.065Zm0-23.682a1.065,1.065,0,0,1-1.065,1.065h-5.928a1.065,1.065,0,0,1-1.065-1.065v-8.979a1.065,1.065,0,0,1,1.065-1.065h5.928a1.065,1.065,0,0,1,1.065,1.065Zm0-25.005a1.065,1.065,0,0,1-1.065,1.065h-5.928a1.065,1.065,0,0,1-1.065-1.065v-8.979a1.065,1.065,0,0,1,1.065-1.065h5.928a1.065,1.065,0,0,1,1.065,1.065Zm0-23.682a1.065,1.065,0,0,1-1.065,1.065h-5.928a1.065,1.065,0,0,1-1.065-1.065v-8.979a1.065,1.065,0,0,1,1.065-1.065h5.928a1.065,1.065,0,0,1,1.065,1.065Z" transform="translate(-1377.016 -1510.05)" fill="#47286d"/></g><rect width="93.472" height="100.379" transform="translate(56.169 22.805)" fill="#6398bf"/><circle cx="37.067" cy="37.067" r="37.067" transform="translate(52.672 74.146) rotate(-45)" fill="#70acd9"/><circle cx="28.088" cy="28.088" r="28.088" transform="translate(65.37 74.146) rotate(-45)" fill="#7dc0f2"/><g transform="translate(70.251 28.023)" style="mix-blend-mode:multiply;isolation:isolate"><path d="M1517.623,1613.568l71.371-58.324c-12.432-15.732-31.464-16.653-31.464-16.653l-9.669,91.937C1526.372,1628.84,1517.623,1613.568,1517.623,1613.568Z" transform="translate(-1517.623 -1538.591)" fill="#aed7f5"/></g><g transform="translate(97.358 62.759)"><path d="M1676.2,1734.793a4.616,4.616,0,0,0-.319-1.79,3.464,3.464,0,0,0-2.171-2.023,5.089,5.089,0,0,0-1.619-.249,5.355,5.355,0,0,0-1.463.2,7.107,7.107,0,0,0-1.393.56,8.569,8.569,0,0,0-1.307.856,9.449,9.449,0,0,0-1.175,1.1v-2.739a7.632,7.632,0,0,1,2.4-1.6,8.464,8.464,0,0,1,3.245-.552,7.833,7.833,0,0,1,2.537.4,5.82,5.82,0,0,1,2.023,1.159,5.365,5.365,0,0,1,1.346,1.883,6.355,6.355,0,0,1,.49,2.568,8.809,8.809,0,0,1-.3,2.4,7.414,7.414,0,0,1-.918,2.023,9.763,9.763,0,0,1-1.549,1.821,21.9,21.9,0,0,1-2.194,1.774q-1.572,1.12-2.591,1.914a11.457,11.457,0,0,0-1.619,1.486,4.315,4.315,0,0,0-.84,1.385,4.845,4.845,0,0,0-.241,1.6h11.113v2.288h-13.774v-1.1a9.207,9.207,0,0,1,.311-2.521,6.549,6.549,0,0,1,1.027-2.07,11.49,11.49,0,0,1,1.875-1.961q1.159-.981,2.84-2.21a17.9,17.9,0,0,0,2.031-1.665,8.645,8.645,0,0,0,1.315-1.587,5.711,5.711,0,0,0,.708-1.611A6.947,6.947,0,0,0,1676.2,1734.793Z" transform="translate(-1665.878 -1728.567)" fill="#c2e5ff"/></g><rect width="40.06" height="55.6" transform="translate(38.096 50.662)" fill="#e2f6f8"/><rect width="20.375" height="55.6" transform="translate(17.721 50.662)" fill="#80c4f7"/><ellipse cx="12.864" cy="15.54" rx="12.864" ry="15.54" transform="translate(46.557 64.649)" fill="#80c4f7"/><ellipse cx="12.864" cy="15.54" rx="12.864" ry="15.54" transform="translate(52.587 64.649)" fill="#6398bf"/><ellipse cx="10.952" cy="13.628" rx="10.952" ry="13.628" transform="translate(54.5 66.561)" fill="#404a7a"/><circle cx="3.816" cy="3.816" r="3.816" transform="translate(63.731 76.114)" fill="#1c1c1c" style="mix-blend-mode:screen;isolation:isolate"/><path d="M1455.3,1783.9a1.472,1.472,0,0,1-1.472-1.472,8.971,8.971,0,0,1,8.961-8.961,1.472,1.472,0,0,1,0,2.944,6.024,6.024,0,0,0-6.017,6.017A1.472,1.472,0,0,1,1455.3,1783.9Z" transform="translate(-1395.239 -1702.5)" fill="#1c1c1c" style="mix-blend-mode:screen;isolation:isolate"/><path d="M1470.308,1846a8.932,8.932,0,0,1-6.947-3.3,1.472,1.472,0,1,1,2.281-1.862,6,6,0,0,0,4.665,2.217,1.472,1.472,0,0,1,0,2.945Z" transform="translate(-1402.761 -1757.111)" fill="#1c1c1c" style="mix-blend-mode:screen;isolation:isolate"/><g transform="translate(45.597 18.2)"><path d="M1434.47,1517.5c5.054,0,9.151-7.306,9.151-16.317s-4.1-16.318-9.151-16.318h-3.415V1517.5Z" transform="translate(-1422.23 -1484.866)" fill="#47286d"/><ellipse cx="9.152" cy="16.317" rx="9.152" ry="16.317" transform="translate(0 0)" fill="#e2f6f8"/></g><g transform="translate(23.387 18.2)"><path d="M1313,1517.5c5.054,0,9.151-7.306,9.151-16.317s-4.1-16.318-9.151-16.318h-3.415V1517.5Z" transform="translate(-1300.755 -1484.866)" fill="#47286d"/><ellipse cx="9.152" cy="16.317" rx="9.152" ry="16.317" transform="translate(0 0)" fill="#e2f6f8"/></g><path d="M1339.095,1971.906h-19.787l-2.942-5.41h25.67Z" transform="translate(-1282.914 -1860.234)" fill="#5480a1"/><path d="M1318.178,1995.877h-5.372l-5.884,12.049h5.372Z" transform="translate(-1275.196 -1884.242)" fill="#6da8d4"/><path d="M1403.458,1995.877h5.372l5.884,12.049h-5.372Z" transform="translate(-1354.082 -1884.242)" fill="#6da8d4"/><g transform="translate(158.39 69.886)"><rect width="26.476" height="53.413" fill="#47286d"/><path d="M2021.559,1785.247h11.626a4.189,4.189,0,0,0,4.189,4.189V1828a4.189,4.189,0,0,0-4.189,4.189h-11.626a4.189,4.189,0,0,0-4.189-4.189v-38.563A4.189,4.189,0,0,0,2021.559,1785.247Z" transform="translate(-2014.134 -1782.011)" fill="#80c4f7"/><path d="M1999.672,1767.548l26.476,53.413h-26.476Z" transform="translate(-1999.672 -1767.548)" fill="#dbdbdb" style="mix-blend-mode:multiply;isolation:isolate"/></g><rect width="53.413" height="23.368" transform="translate(126.343 100.277)" fill="#dbdbdb" style="mix-blend-mode:multiply;isolation:isolate"/><g transform="translate(121.784 97.168)"><rect width="53.413" height="26.476" fill="#47286d"/><path d="M1817.163,1950.272v-11.626a4.189,4.189,0,0,0,4.189-4.189h38.563a4.189,4.189,0,0,0,4.189,4.189v11.626a4.189,4.189,0,0,0-4.189,4.19h-38.562A4.189,4.189,0,0,0,1817.163,1950.272Z" transform="translate(-1813.927 -1931.221)" fill="#e2f6f8"/></g><g transform="translate(23.057 54.346)"><g transform="translate(0 38.929)"><g transform="translate(0 15.445)"><path d="M1262.34,1979.935l-2.832,14.93h.669l4.427-14.93Z" transform="translate(-1259.509 -1979.935)" fill="#404a7a"/></g><g transform="translate(15.788 15.445)"><path d="M1348.122,1979.935l2.832,14.93h-.669l-4.428-14.93Z" transform="translate(-1345.857 -1979.935)" fill="#404a7a"/></g><g transform="translate(3.449 7.156)"><rect width="0.618" height="7.619" fill="#404a7a"/></g><rect width="0.618" height="7.619" transform="translate(16.672 7.156)" fill="#404a7a"/><g transform="translate(1.802)"><rect width="17.298" height="7.671" fill="#404a7a"/></g><g transform="translate(1.442 14.312)"><rect width="18.019" height="1.184" fill="#404a7a"/></g></g><g transform="translate(6.851)"><path d="M1344.41,1911.747c-.36,2.214-.566,6.281-.824,9.112-.149,1.644-2.42,14.312-2.214,14.827s1.224,2.368.915,3.038h-4.044c-.309-1.236.864-3.141,1.018-3.861s-1.029-10.863-.824-13.694.772-5.3.669-7.208-.1-2.729-.1-2.729Z" transform="translate(-1330.656 -1869.42)" fill="#ff8762"/><g transform="translate(9.808 49.501)" style="mix-blend-mode:multiply;isolation:isolate"><path d="M1350.787,1954.462a1.912,1.912,0,0,0,1.578-1.125.033.033,0,0,0-.011-.045.032.032,0,0,0-.045.011c-.767,1.266-1.638,1.085-1.646,1.083a.033.033,0,0,0-.015.064A.744.744,0,0,0,1350.787,1954.462Z" transform="translate(-1350.622 -1953.287)" fill="#e0b3a8"/></g><path d="M1338.243,2048.015a4.9,4.9,0,0,1,.577-2.72,5.478,5.478,0,0,0-.1,1.587,5.279,5.279,0,0,1,3.115,0l-.464-1.905c.206.515,1.224,2.368.915,3.037Z" transform="translate(-1330.656 -1978.712)" fill="#2b1710"/><path d="M1377.768,1911.747c.36,2.214.567,6.281.824,9.112.15,1.644,2.42,14.312,2.214,14.827s-1.224,2.368-.915,3.038h4.044c.309-1.236-.864-3.141-1.018-3.861s1.03-10.863.824-13.694-.772-5.3-.669-7.208.1-2.729.1-2.729Z" transform="translate(-1362.996 -1869.42)" fill="#ff8762"/><path d="M1338.109,1849.287a46.765,46.765,0,0,0-.017,11.609c4.788,1.544,12.974,1.39,13.205.463.463-8.186-.463-11.275-.463-11.275Z" transform="translate(-1330.27 -1818.802)" fill="#23c2c5"/><path d="M1362.638,1682.872c-1.956-.927-4.119.343-3.981,1.716s.411,1.51-.172,1.819-.446.824-.275,1.716a1.961,1.961,0,0,1-.618,1.785c-.309.343.412,1.167.446,1.785s-.892,1.132-.412,1.716,3.741,2.368,4.908,2.368a13.816,13.816,0,0,0,4.324-.755c.446-.343.034-2.437-.069-3.123a7.97,7.97,0,0,1-.549-2.471,15.8,15.8,0,0,0,.034-3.81A3.821,3.821,0,0,0,1362.638,1682.872Z" transform="translate(-1346.425 -1682.555)" fill="#2b1710"/><path d="M1341.029,1738.16c-3.724.412-5.611,4.084-6.229,5.938s-.618,6.041.481,6.933a15.07,15.07,0,0,0,.1,7.448c1.888,1.235,12.905,1.956,13.214,1.3.309-.824.206-5.148.24-6.418a41.308,41.308,0,0,1,.824-4.771,17.7,17.7,0,0,0,3.158-2.609,17.285,17.285,0,0,0-2.265-4.187,16.391,16.391,0,0,0-3.226-2.385l-4.942-.635Z" transform="translate(-1327.544 -1727.993)" fill="#fff"/><path d="M1337.586,1728.168a.079.079,0,0,0-.147.037,4.773,4.773,0,0,0,.335,1.561,12.568,12.568,0,0,1,.1,1.75c0,.36-.1.875-.669.747-.386,2.909-1.9,6.847-1.982,7.877s.644,3.913,1.673,4.144,1.931-1.956,2.111-3.707-.051-8.495.026-9.215.335-1.75-.077-1.982A3.7,3.7,0,0,1,1337.586,1728.168Z" transform="translate(-1328.228 -1719.797)" fill="#ff8762"/><path d="M1364.17,1695.988c.206.171,1.132-.052,1.132-.052s.463,1.939-.807,2.162a3.449,3.449,0,0,0,1.768,1.871,4.08,4.08,0,0,0,4.53-.618c.052-.052-.892-.515-1.441-.944s-1.768-3.93-1.476-4.633a1.563,1.563,0,0,0,.669-1.2c.086-.875-1.013-.841-1.081-.051,0,.12-.481-.463-.292-.858a4.141,4.141,0,0,1-.326-2.505,1.941,1.941,0,0,0-2.282,1.253c-.429.91-.034,1.3-.429,1.544s-1.1.549-1.03.6.755.378.7.584a1.313,1.313,0,0,1-.137.343c0,.171.275.343.275.343l.034.481s-.1.292,0,.377a1.337,1.337,0,0,1,.189.807C1364.136,1695.747,1364.067,1695.919,1364.17,1695.988Z" transform="translate(-1351.011 -1687.932)" fill="#ff8762"/><path d="M1373.407,1702.047c0,.206-.1.373-.212.373s-.212-.167-.212-.373.1-.373.212-.373S1373.407,1701.841,1373.407,1702.047Z" transform="translate(-1359.086 -1698.178)" fill="#2b1710"/><path d="M1371.715,1697.038a2.66,2.66,0,0,1,1.326.463C1372.333,1696.7,1371.753,1696.472,1371.715,1697.038Z" transform="translate(-1358.05 -1694.134)" fill="#2b1710"/><g transform="translate(16.554 4.341)" style="mix-blend-mode:multiply;isolation:isolate"><path d="M1387.619,1707.419a.474.474,0,0,1-.078-.007.033.033,0,1,1,.011-.065.256.256,0,0,0,.272-.093.243.243,0,0,0,0-.257.249.249,0,0,0-.263-.1.033.033,0,0,1-.028-.009.032.032,0,0,1-.01-.028.807.807,0,0,1,.273-.515.367.367,0,0,1,.323-.027.033.033,0,0,1,.021.042.033.033,0,0,1-.042.021.305.305,0,0,0-.268.02.691.691,0,0,0-.236.427.3.3,0,0,1,.283.134.308.308,0,0,1,0,.329A.3.3,0,0,1,1387.619,1707.419Z" transform="translate(-1387.513 -1706.294)" fill="#e0b3a8"/></g><g transform="translate(14.713 6.178)" style="mix-blend-mode:multiply;isolation:isolate"><path d="M1377.481,1718.072a.032.032,0,0,1-.032-.026.033.033,0,0,1,.025-.039,4,4,0,0,0,.905-.383.625.625,0,0,0,.371-.7,1.738,1.738,0,0,1,.064-.555.033.033,0,1,1,.063.02,1.669,1.669,0,0,0-.061.535.691.691,0,0,1-.406.758,3.946,3.946,0,0,1-.922.389Z" transform="translate(-1377.448 -1716.346)" fill="#e0b3a8"/></g><g transform="translate(16.97 49.501)" style="mix-blend-mode:multiply;isolation:isolate"><path d="M1391.372,1954.462a1.911,1.911,0,0,1-1.578-1.125.033.033,0,0,1,.011-.045.033.033,0,0,1,.045.011c.766,1.266,1.638,1.085,1.646,1.083a.033.033,0,0,1,.015.064A.742.742,0,0,1,1391.372,1954.462Z" transform="translate(-1389.79 -1953.287)" fill="#e0b3a8"/></g><path d="M1415.136,1785.525h0c-.055,0-.07-.076-.132-.643a7.588,7.588,0,0,0-.243-1.431.033.033,0,1,1,.062-.023,7.577,7.577,0,0,1,.247,1.447c.024.216.048.437.07.539a6.33,6.33,0,0,0,.134-.912.033.033,0,0,1,.035-.03.033.033,0,0,1,.031.035,6.389,6.389,0,0,1-.138.932C1415.19,1785.471,1415.176,1785.525,1415.136,1785.525Z" transform="translate(-1393.221 -1764.967)" fill="#a3a3a3" style="mix-blend-mode:multiply;isolation:isolate"/><path d="M1414.413,1763.176h0a.033.033,0,0,1-.03-.036,2.378,2.378,0,0,1,1.463-1.881.033.033,0,0,1,.042.02.033.033,0,0,1-.02.042,2.311,2.311,0,0,0-1.42,1.826A.033.033,0,0,1,1414.413,1763.176Z" transform="translate(-1392.914 -1746.867)" fill="#a3a3a3" style="mix-blend-mode:multiply;isolation:isolate"/><path d="M1367.769,1713.376a6.284,6.284,0,0,0-1.545-.463c0,.171.275.343.275.343l.034.48s-.087.249-.02.354A3.448,3.448,0,0,0,1367.769,1713.376Z" transform="translate(-1353.563 -1707.362)" fill="#f55454"/><path d="M1367.688,1714.79l1.055.155a2.969,2.969,0,0,1-1.021.326A1.3,1.3,0,0,1,1367.688,1714.79Z" transform="translate(-1354.752 -1708.896)" fill="#fff"/><g transform="translate(0 4.889)"><path d="M1338.815,1727.7l-1.484.8c1,.7,1.331,2.506,1.353,3.2a.377.377,0,0,0,.555.318l.459-.246a.894.894,0,0,0,.47-.8C1340.158,1730.276,1339.85,1728.421,1338.815,1727.7Z" transform="translate(-1329.953 -1724.334)" fill="#ffb1a3"/><path d="M1308.563,1711.905l-9.557,4.649-1.491-7.262,10.615.506Z" transform="translate(-1297.417 -1709.292)" fill="#f05e44"/><path d="M1310.3,1714.094l-2.728.049a.4.4,0,0,1-.411-.4h0a.4.4,0,0,1,.4-.411l2.728-.048a.4.4,0,0,1,.411.4h0A.4.4,0,0,1,1310.3,1714.094Z" transform="translate(-1305.301 -1712.557)" fill="#1c1c1c" style="mix-blend-mode:screen;isolation:isolate"/><path d="M1329.071,1714.064h0a.4.4,0,0,1-.41-.4h0a.4.4,0,0,1,.4-.411h0a.4.4,0,0,1,.411.4h0A.4.4,0,0,1,1329.071,1714.064Z" transform="translate(-1322.868 -1712.533)" fill="#1c1c1c" style="mix-blend-mode:screen;isolation:isolate"/><path d="M1356.585,1713.385l-.643.132-.43-2.093.643-.132a1.069,1.069,0,0,1,1.261.831h0A1.068,1.068,0,0,1,1356.585,1713.385Z" transform="translate(-1344.81 -1710.909)" fill="#ffb1a3"/><path d="M1297.255,1726.106l.746.048-.355-1.727-.666.338Z" transform="translate(-1296.979 -1721.66)" fill="#ffb1a3"/></g><path d="M1336.1,1737.233c1.249.077,2.535.592,2.2.708.155.348-.322.656-.322.656.257.206-.039.541-.039.541.219.309.167.644-.476.618s-.708-.425-.708-.425a.663.663,0,0,1-.463-.708c-.644-.386-.335-.721-.335-.721C1335.589,1737.529,1335.73,1737.143,1336.1,1737.233Z" transform="translate(-1328.655 -1727.224)" fill="#ff8762"/><rect width="6.591" height="10.194" transform="matrix(0.766, -0.643, 0.643, 0.766, 8.418, 31.893)" fill="#f05e44"/><path d="M1383.927,1785.652s1.39,8.263,1.081,8.881-7.027,5.02-7.027,5.02-2.917,2.368-2.643,1.613c-1,.412-.892-.1-.892-.1-1,.172-.652-.549-.652-.549-.789.137.034-1.854,1.75-2.574-.446-.687-.961-1.579-.961-1.579.206-.034.515.446.961.549a3.057,3.057,0,0,1,.892.412c.481-.069,5.011-4.256,5.251-4.462-.24-1.27-.858-5.045-.858-5.045C1381.962,1787.059,1383.927,1785.652,1383.927,1785.652Z" transform="translate(-1359.503 -1766.802)" fill="#ff8762"/><path d="M1393.161,2048.015a4.9,4.9,0,0,0-.577-2.72,5.484,5.484,0,0,1,.1,1.587,5.28,5.28,0,0,0-3.115,0l.463-1.905c-.206.515-1.224,2.368-.915,3.037Z" transform="translate(-1372.223 -1978.712)" fill="#2b1710"/></g></g><g transform="translate(127.539 56.418)"><path d="M1851.042,1734.344l-5.156.423c-2.311-1.494-7.3-3.071-8.172-3.86s-.31-1.747-.648-2.282a13.877,13.877,0,0,1-.9-2.16c-.037-.15-.272.084-.262.526s.375,1.588.084,1.681-3.823-2.038-3.973-1.822,1.954,1.775,1.634,1.747-2.536-1.08-2.677-.874.357.629.263.629c-.414.019-.282.5.319.939s1.353.78,1.052.789-1.3-.348-1.212-.122a14.126,14.126,0,0,0,3.757,2.264c1.371.836,8.82,7.336,10.285,7.646a39.644,39.644,0,0,0,6.03.056Z" transform="translate(-1830.945 -1720.47)" fill="#ff8762"/><path d="M2021.872,1821.917a16.68,16.68,0,0,1,.526,4.471,23.977,23.977,0,0,0,.526,6.049,28.919,28.919,0,0,1,.864,4.208c-.038.9.6.911.967.939s6.321,0,6.321,0a4.444,4.444,0,0,0-1.841-.77c-.751-.188-2.686-.469-3.156-1.165s.019-5.8-.263-7.176a19.21,19.21,0,0,1-.319-3.776c.019-.733.413-4.114.395-4.452S2021.872,1821.917,2021.872,1821.917Z" transform="translate(-1986.962 -1797.11)" fill="#ff8762"/><g transform="translate(3.481 39.244)"><path d="M1853.641,1908.87s.469,2.614-.151,2.883-3.559,2.572-3.506,4.106l8.814-3.834c-.259-1.444-2.065-2.3-2.508-3.129S1853.641,1908.87,1853.641,1908.87Z" transform="translate(-1849.983 -1908.52)" fill="#ff8762"/><path d="M1857.467,1917.159a2.309,2.309,0,0,1-2.916,2.165c-.453-.155-.64-.448-.971-.565a.44.44,0,0,1-.091.054c-.62.27-3.559,2.572-3.506,4.106l8.814-3.834A3.642,3.642,0,0,0,1857.467,1917.159Z" transform="translate(-1849.982 -1915.58)" fill="#2b1710"/><path d="M1860.609,1932.268a.071.071,0,0,1-.085-.021c-.005-.007-.506-.627-.885-.343a.072.072,0,0,1-.086-.115c.49-.368,1.06.338,1.084.368a.072.072,0,0,1-.011.1A.063.063,0,0,1,1860.609,1932.268Z" transform="translate(-1857.779 -1927.448)" fill="#45251a"/><path d="M1864.4,1927.846a.072.072,0,0,1-.085-.021c0-.006-.505-.626-.885-.343a.072.072,0,1,1-.086-.115c.491-.368,1.06.338,1.084.368a.072.072,0,0,1-.012.1A.069.069,0,0,1,1864.4,1927.846Z" transform="translate(-1860.877 -1923.835)" fill="#45251a"/></g><path d="M1870.156,1826.677s-11.779-4.283-13.356-3.776a3.28,3.28,0,0,0-2.085,3.043c0,.845,2.705,14.258,2.705,14.258,1.3.338,4.734-1.522,4.734-1.522l-.225-6.932,6.594,2.7s7.946.169,8.115.169a44.175,44.175,0,0,0,.563-4.678l-2.987-2.649Z" transform="translate(-1850.368 -1799.278)" fill="#1460c6"/><g transform="translate(0.008 58.958)"><path d="M1837.13,2016.343s-.612,2.584-1.288,2.584-4.29.939-4.853,2.367h9.612c.338-1.428-.977-2.931-1.052-3.87S1837.13,2016.343,1837.13,2016.343Z" transform="translate(-1830.988 -2016.343)" fill="#ff8762"/><path d="M1840.148,2030.486a2.309,2.309,0,0,1-3.537.822c-.354-.323-.408-.667-.665-.905a.431.431,0,0,1-.1.013c-.676,0-4.29.939-4.853,2.367h9.612A3.639,3.639,0,0,0,1840.148,2030.486Z" transform="translate(-1830.988 -2027.832)" fill="#2b1710"/><path d="M1846.949,2033.04a.072.072,0,0,1-.069-.053c0-.008-.214-.777-.675-.667a.072.072,0,1,1-.033-.14c.6-.141.837.732.847.77a.072.072,0,0,1-.051.088Z" transform="translate(-1843.35 -2029.271)" fill="#45251a"/><path d="M1852.189,2030.5a.072.072,0,0,1-.07-.053c0-.008-.214-.776-.675-.667a.072.072,0,0,1-.033-.14c.6-.141.837.733.847.77a.073.073,0,0,1-.051.088Z" transform="translate(-1847.632 -2027.193)" fill="#45251a"/></g><path d="M1875.663,1854.09a14.625,14.625,0,0,0-1.728,3.081s-10.708,4.02-11.572,5.56-6.725,21.19-6.725,21.19a15.381,15.381,0,0,0,5.3,1.127l8.341-18.485c1.69-.789,13.525-1.24,14.99-3.043a6.972,6.972,0,0,0,1.127-4.621l-3.832-5.3Z" transform="translate(-1851.123 -1824.4)" fill="#4385f3"/><path d="M1989.066,1866.319l-.014,0a1.539,1.539,0,0,1-.9-.91c-.3-.843.039-2.17,1.069-4.174a.036.036,0,0,1,.064.033c-1.021,1.986-1.359,3.294-1.066,4.117a1.47,1.47,0,0,0,.86.868.036.036,0,0,1-.014.069Z" transform="translate(-1959.322 -1830.619)" fill="#a3a3a3" style="mix-blend-mode:multiply;isolation:isolate"/><path d="M1873.765,1898a.034.034,0,0,1-.014,0,.036.036,0,0,1-.019-.047c.075-.174,7.477-17.437,7.625-18.1s.342-.922.851-1.078c.406-.125.428-.271.5-.754.011-.07.022-.147.037-.231.08-.482,3.461-1.3,7.538-2.236,1.1-.253,2.049-.472,2.557-.611,2.046-.562,3.784-1.315,4.332-4.855a.035.035,0,0,1,.041-.03.036.036,0,0,1,.03.041,5.873,5.873,0,0,1-1.683,3.633,6.381,6.381,0,0,1-2.7,1.281c-.51.14-1.459.359-2.56.612-2.77.638-7.4,1.7-7.483,2.177-.014.084-.026.161-.036.23-.075.491-.1.674-.552.813-.484.149-.656.369-.8,1.025-.149.672-7.323,17.4-7.629,18.115A.036.036,0,0,1,1873.765,1898Z" transform="translate(-1865.906 -1837.839)" fill="#a3a3a3" style="mix-blend-mode:multiply;isolation:isolate"/><path d="M1959.476,1698.463c.906.113-.169-1.381-.564-1.409-2.113.028-1.268-1.437,1.8-1.578-.761-.845-.366-1.691-.225-1.578s3.184,1.268,3.184,1.268c-.084-.2.366-.423.507-.028.507-.141.564.422.564.422,1.155.62,1.071,2.621.958,3.269s-.536,3.494-1.3,3.832S1959.25,1698.434,1959.476,1698.463Z" transform="translate(-1934.56 -1693.888)" fill="#2b1710"/><path d="M1967.444,1706.888c-.958,1.3,1.8.789,2.2.563-.338.7.789.761,1.043.7s.366.874.338,1.494-.366,1.437-.2,1.522.592.113.592,0c0-.564.451-1.3,1.127-.9s.225,2.142-.986,2.114c.282,2.958.423,3.409,1.043,3.691s2.17,3.1,1.268,3.522a20.507,20.507,0,0,1-4.649,1.071,10.926,10.926,0,0,1-2.452-.422c0-.113,1.466-3.832,1.466-3.832a2.294,2.294,0,0,0,.056-1.043,2.547,2.547,0,0,1-1.1-.789,15.2,15.2,0,0,1-.958-3.973,10.727,10.727,0,0,0-.113-1.747C1966.063,1708.269,1966.655,1707.029,1967.444,1706.888Z" transform="translate(-1941.401 -1704.511)" fill="#ff8762"/><path d="M1956.529,1785.054c2.63,3.306,8.979,2.179,8.979,2.179s-1.127-17.095-1.24-17.057c-3.644,1.653-3.532,1.165-4.546.3S1956.529,1785.054,1956.529,1785.054Z" transform="translate(-1933.567 -1756.227)" fill="#fff"/><path d="M1994.086,1754.457c.319,1.353-.225,2.329-.695,2.461s-.338,2.01-.188,3.062-.808,17.564,3.363,19.029a7.153,7.153,0,0,0,1.8-.282c-.958-2.254.282-10.313.282-10.313,3.043-.564,4.114-1.86,4.114-1.86s-1.578-7.664-2.423-8.284-4.565-2.7-4.565-2.7A17.775,17.775,0,0,0,1994.086,1754.457Z" transform="translate(-1963.422 -1743.382)" fill="#23c2c5"/><path d="M1946.274,1757.86c-.2,1.268-.683,2.346-.317,2.543s-.761,10.369-1.606,12.427-1.409,3.522-2.874,2.987a4.982,4.982,0,0,1-2.311-2.254c.592-.366,1.353-.507,1.409-.676s-.056-.225.226-.535.338-6.424.225-6.424a7.236,7.236,0,0,1-1.324.028c-.733-1.324-.422-6.115-.422-6.115a12.179,12.179,0,0,0,2.564-.564,26.277,26.277,0,0,1,3.043-1.042C1945.055,1758.233,1946.274,1757.86,1946.274,1757.86Z" transform="translate(-1919.379 -1746.163)" fill="#23c2c5"/><path d="M1982.124,1724.746c0,.2-.094.366-.211.366s-.211-.164-.211-.366.094-.366.211-.366S1982.124,1724.544,1982.124,1724.746Z" transform="translate(-1954.136 -1718.805)" fill="#2b1710"/><path d="M1971.49,1725.208c0,.2-.094.367-.211.367s-.211-.164-.211-.367.095-.366.211-.366S1971.49,1725.006,1971.49,1725.208Z" transform="translate(-1945.447 -1719.182)" fill="#2b1710"/><path d="M1972.865,1738.069c.385.084.573-.085.93-.1a1.872,1.872,0,0,1,1.315,1.531c-.338-.019-1.785.169-1.832,0s-.037-.507-.084-.714S1972.912,1738.351,1972.865,1738.069Z" transform="translate(-1946.916 -1729.906)" fill="#531710"/><path d="M1978.341,1742.206a1.655,1.655,0,0,0-1.057.333l-.1.272.056.113h.376l.507-.037s.264-.1.458-.175A2.01,2.01,0,0,0,1978.341,1742.206Z" transform="translate(-1950.442 -1733.371)" fill="#851b13"/><path d="M1974.2,1738.117a.768.768,0,0,0-.409-.152c-.357.019-.545.188-.93.1a.752.752,0,0,0,.05.168A1.681,1.681,0,0,0,1974.2,1738.117Z" transform="translate(-1946.916 -1729.906)" fill="#fff"/><path d="M1976.891,1744.28a1.794,1.794,0,0,0-.136-.461,2.211,2.211,0,0,1-.794.292c-.535.037-.413-.122-.395-.254.016-.108-.417.081-.522.354,0,.025.009.048.015.068C1975.107,1744.449,1976.553,1744.261,1976.891,1744.28Z" transform="translate(-1948.697 -1734.689)" fill="#fff"/><g transform="translate(26.533 9.93)" style="mix-blend-mode:multiply;isolation:isolate"><path d="M1977.184,1748.317h0s-.4-.029-1.088-.047a.036.036,0,0,1-.035-.037.035.035,0,0,1,.037-.035c.688.018,1.087.047,1.091.047a.036.036,0,0,1,0,.072Z" transform="translate(-1976.059 -1748.198)" fill="#e0b3a8"/></g><g transform="translate(27.402 7.822)" style="mix-blend-mode:multiply;isolation:isolate"><path d="M1980.846,1739.555a.036.036,0,0,1,0-.072,2.446,2.446,0,0,0,2.085-1.164,8.559,8.559,0,0,0,.264-1.621.036.036,0,0,1,.072.006,8.345,8.345,0,0,1-.272,1.648,2.516,2.516,0,0,1-2.142,1.2Z" transform="translate(-1980.81 -1736.665)" fill="#e0b3a8"/></g><g transform="translate(30.22 5.921)" style="mix-blend-mode:multiply;isolation:isolate"><path d="M1996.315,1727.583l-.06,0a.036.036,0,1,1,.005-.072.412.412,0,0,0,.438-.211.349.349,0,0,0-.051-.382.293.293,0,0,0-.347-.028.036.036,0,0,1-.051-.03.558.558,0,0,1,.2-.49.474.474,0,0,1,.452-.068.036.036,0,1,1-.023.068.4.4,0,0,0-.385.057.468.468,0,0,0-.175.378.347.347,0,0,1,.379.063.423.423,0,0,1,.065.463A.463.463,0,0,1,1996.315,1727.583Z" transform="translate(-1996.222 -1726.27)" fill="#e0b3a8"/></g><path d="M1971.161,1725.112c-.247,0-.505-.013-.522-.063-.01-.029,0-.052.164-.276a3.334,3.334,0,0,0,.5-.841,3.5,3.5,0,0,0-.062-.892c-.017-.118-.033-.22-.037-.283a.036.036,0,1,1,.072,0c0,.06.019.161.036.277a3.531,3.531,0,0,1,.062.915,3.276,3.276,0,0,1-.509.87c-.057.079-.115.161-.141.2a4.962,4.962,0,0,0,.872.014.036.036,0,0,1,.02.069S1971.39,1725.112,1971.161,1725.112Z" transform="translate(-1945.095 -1717.447)" fill="#2b1710"/><path d="M1978.463,1718.028a3.975,3.975,0,0,1,2,.155C1979.534,1717.113,1978.449,1717.31,1978.463,1718.028Z" transform="translate(-1951.491 -1713.129)" fill="#2b1710"/><path d="M1967.291,1719.313a1.527,1.527,0,0,1,1.085-.183A.561.561,0,0,0,1967.291,1719.313Z" transform="translate(-1942.361 -1714.217)" fill="#2b1710"/><path d="M1982.792,1727.55h-.021a.036.036,0,1,1,0-.072c.313.013.342-.319.343-.333a.036.036,0,0,1,.072.005S1983.156,1727.55,1982.792,1727.55Z" transform="translate(-1954.983 -1721.037)" fill="#2b1710"/><path d="M1978.36,1725.817a.37.37,0,0,1-.369-.339l-.074-.853a.072.072,0,0,1,.144-.012l.074.853a.226.226,0,0,0,.239.207l1-.054a.226.226,0,0,0,.215-.232l-.021-.865a.072.072,0,1,1,.144,0l.021.865a.37.37,0,0,1-.351.38l-1,.053Z" transform="translate(-1951.044 -1718.86)" fill="#2b1710"/><path d="M1964.625,1725.612a.37.37,0,0,1-.369-.34l-.055-.608a.072.072,0,1,1,.143-.013l.055.609a.226.226,0,0,0,.239.208l1-.053a.226.226,0,0,0,.215-.232l-.021-.865a.072.072,0,0,1,.07-.073.073.073,0,0,1,.074.07l.021.865a.369.369,0,0,1-.351.38l-1,.053Z" transform="translate(-1939.836 -1718.693)" fill="#2b1710"/><path d="M1973.925,1727.666a.072.072,0,0,1-.06-.032.582.582,0,0,0-.442-.243.676.676,0,0,0-.545.2.072.072,0,1,1-.1-.1.82.82,0,0,1,.662-.24.724.724,0,0,1,.549.307.072.072,0,0,1-.06.112Z" transform="translate(-1946.825 -1721.145)" fill="#2b1710"/><path d="M1987,1726.359a.072.072,0,0,1-.01-.144l1.634-.225a.072.072,0,1,1,.02.143l-1.634.225Z" transform="translate(-1958.411 -1720.12)" fill="#2b1710"/><path d="M1996.693,1768.526c-.1,0-.208-.18-.429-.552-.309-.523-.732-1.239-1.163-1.255a.036.036,0,0,1,0-.072c.47.018.905.753,1.223,1.29.144.243.309.518.367.517,0,0,.007-.005.012-.013.164-.3.667-2.977.673-3a.036.036,0,0,1,.071.013c-.021.111-.51,2.714-.68,3.026a.084.084,0,0,1-.074.05Z" transform="translate(-1965.058 -1752.331)" fill="#a3a3a3" style="mix-blend-mode:multiply;isolation:isolate"/><path d="M2021.107,1810.713a.036.036,0,0,1-.035-.027,13.037,13.037,0,0,0-.421-1.292.036.036,0,0,1,.067-.027c0,.005.179.45.355,1.054a29.654,29.654,0,0,1,.253-3.837.036.036,0,0,1,.042-.029.036.036,0,0,1,.029.042,32.061,32.061,0,0,0-.253,4.079.036.036,0,0,1-.031.036Z" transform="translate(-1985.963 -1785.955)" fill="#a3a3a3" style="mix-blend-mode:multiply;isolation:isolate"/><path d="M2026.078,1781.637h0a.036.036,0,0,1-.033-.039,7.06,7.06,0,0,1,1.275-3.231.036.036,0,1,1,.058.043,6.983,6.983,0,0,0-1.261,3.194A.036.036,0,0,1,2026.078,1781.637Z" transform="translate(-1990.37 -1762.909)" fill="#a3a3a3" style="mix-blend-mode:multiply;isolation:isolate"/><path d="M1946.355,1836.683a1.944,1.944,0,0,1-.893-.233.036.036,0,1,1,.033-.064,1.7,1.7,0,0,0,1.568.062,4.074,4.074,0,0,0,1.79-2.433.036.036,0,0,1,.07.016,4.158,4.158,0,0,1-1.83,2.482A1.727,1.727,0,0,1,1946.355,1836.683Z" transform="translate(-1924.507 -1808.371)" fill="#a3a3a3" style="mix-blend-mode:multiply;isolation:isolate"/><path d="M1950.718,1837.539a.037.037,0,0,1-.03-.016.036.036,0,0,1,.01-.05c1.029-.677,1.111-.988,1.111-.991a.036.036,0,0,1,.071.013c0,.013-.071.333-1.143,1.038A.035.035,0,0,1,1950.718,1837.539Z" transform="translate(-1928.789 -1810.386)" fill="#a3a3a3" style="mix-blend-mode:multiply;isolation:isolate"/><path d="M1950.13,1795.1l-.012,0a.036.036,0,0,1-.024-.036,11.061,11.061,0,0,0-.028-1.263.036.036,0,1,1,.072-.006,11.211,11.211,0,0,1,.032,1.156l.241-.329a.036.036,0,0,1,.05-.008.036.036,0,0,1,.008.05l-.31.423A.035.035,0,0,1,1950.13,1795.1Z" transform="translate(-1928.285 -1775.502)" fill="#a3a3a3" style="mix-blend-mode:multiply;isolation:isolate"/><path d="M1967.736,1765.541a.044.044,0,0,1-.024-.007c-.049-.032-.031-.135.263-1.15.167-.577.357-1.23.411-1.566a.036.036,0,1,1,.071.011c-.054.34-.245,1-.412,1.575-.119.41-.251.866-.278,1.029l.1-.1c.4-.393.813-.771.989-.7.051.022.078.075.078.159v.507a.036.036,0,0,1-.072,0v-.507c0-.036-.006-.081-.033-.093-.147-.062-.7.478-.911.681-.073.071-.126.123-.152.144A.051.051,0,0,1,1967.736,1765.541Zm.027-.054h0Z" transform="translate(-1942.688 -1750.189)" fill="#a3a3a3" style="mix-blend-mode:multiply;isolation:isolate"/><path d="M1884.762,1861.186c-.132,0-.429-.285-1.022-.884a10.016,10.016,0,0,0-.852-.806.036.036,0,0,1,.043-.058,9.98,9.98,0,0,1,.861.813c.35.354.879.888.971.863a.126.126,0,0,0,0-.037,10.821,10.821,0,0,0-1.205-2.069.036.036,0,1,1,.059-.042,10.471,10.471,0,0,1,1.218,2.1c.007.057-.006.094-.04.11A.067.067,0,0,1,1884.762,1861.186Z" transform="translate(-1873.379 -1828.772)" fill="#a3a3a3" style="mix-blend-mode:multiply;isolation:isolate"/><path d="M1960.112,1875.1a.037.037,0,0,1-.024-.01c-.324-.3-.96-.877-1.048-.936a.043.043,0,0,1-.016-.049c.018-.039.023-.051,1.327.287.392.1.785.206,1.029.271a7,7,0,0,0-2.55-.841.036.036,0,0,1-.031-.04.036.036,0,0,1,.04-.031,6.957,6.957,0,0,1,2.8.983.036.036,0,0,1-.03.065c-.834-.223-2.041-.539-2.425-.622.267.228.923.831.956.861a.036.036,0,0,1-.024.063Z" transform="translate(-1935.422 -1840.862)" fill="#a3a3a3" style="mix-blend-mode:multiply;isolation:isolate"/><g transform="translate(38.837 39.545)" style="mix-blend-mode:multiply;isolation:isolate"><path d="M2045.813,1911.058h0a.036.036,0,0,1-.033-.039c.04-.487-.866-.59-1.665-.68-.265-.03-.514-.058-.729-.1a.036.036,0,1,1,.013-.071c.212.04.461.068.724.1.832.094,1.775.2,1.729.757A.036.036,0,0,1,2045.813,1911.058Z" transform="translate(-2043.354 -1910.169)" fill="#e0b3a8"/></g><g transform="translate(3.28 8.354)" style="mix-blend-mode:multiply;isolation:isolate"><path d="M1850.145,1739.606a3.49,3.49,0,0,0,.094,1.622,2.045,2.045,0,0,0-1.348.7.035.035,0,0,0,0,.05.036.036,0,0,0,.051,0,2.213,2.213,0,0,1,1.919-.684.036.036,0,0,0,.04-.032.035.035,0,0,0,0-.013.036.036,0,0,0-.031-.026,2.744,2.744,0,0,0-.562,0,.02.02,0,0,0,0-.005,3.43,3.43,0,0,1-.095-1.591.035.035,0,0,0,0-.018.035.035,0,0,0-.026-.025A.036.036,0,0,0,1850.145,1739.606Z" transform="translate(-1848.882 -1739.578)" fill="#e0b3a8"/></g><g transform="translate(0.984 8.306)" style="mix-blend-mode:multiply;isolation:isolate"><path d="M1836.331,1739.339a.036.036,0,0,0,.021.046l1.454.526h0a1.921,1.921,0,0,0-.035.445.036.036,0,0,0,.037.035.036.036,0,0,0,.035-.037,1.729,1.729,0,0,1,.167-.829.036.036,0,0,0-.005-.042l-.008-.006a.036.036,0,0,0-.049.014,1.5,1.5,0,0,0-.126.352l-1.449-.524A.036.036,0,0,0,1836.331,1739.339Z" transform="translate(-1836.329 -1739.316)" fill="#e0b3a8"/></g></g><g transform="translate(8.64 33.056)"><path d="M1190.587,1577.809h-9.929v-11.693h6.993l2.935,2.935Zm-9.634-.294h9.34v-8.342l-2.763-2.763h-6.577Z" transform="translate(-1180.658 -1566.116)" fill="#78abd4"/><g transform="translate(7.305 0.599)"><path d="M1222.477,1571.441h-1.866v-2.047h.294v1.753h1.572Z" transform="translate(-1220.611 -1569.394)" fill="#78abd4"/></g><g transform="translate(3.302 4.297)"><path d="M1198.717,1594.315v-4.7l4.347,2.173Zm.294-4.224v3.713l3.433-2Z" transform="translate(-1198.717 -1589.615)" fill="#78abd4"/></g></g><g transform="translate(184.994 48.919)"><path d="M2155.6,1662.757h-10.427v-9.883H2155.6Zm-10.132-.294h9.838v-9.3h-9.838Z" transform="translate(-2145.174 -1652.873)" fill="#78abd4"/><g transform="translate(0 2.081)"><path d="M2155.6,1669.975h-10.427v-5.722H2155.6Zm-10.132-.294h9.838v-5.134h-9.838Z" transform="translate(-2145.174 -1664.253)" fill="#78abd4"/></g><g transform="translate(0.616 0.475)"><path d="M2150.226,1656.918h-1.682v-1.448h1.682Zm-1.388-.294h1.094v-.859h-1.094Z" transform="translate(-2148.544 -1655.471)" fill="#78abd4"/></g><g transform="translate(3.115 0.475)"><path d="M2163.89,1656.918h-1.682v-1.448h1.682Zm-1.387-.294h1.094v-.859H2162.5Z" transform="translate(-2162.208 -1655.471)" fill="#78abd4"/></g><g transform="translate(5.613 0.475)"><path d="M2177.554,1656.918h-1.682v-1.448h1.682Zm-1.388-.294h1.094v-.859h-1.094Z" transform="translate(-2175.872 -1655.471)" fill="#78abd4"/></g><g transform="translate(8.111 0.475)"><path d="M2191.218,1656.918h-1.682v-1.448h1.682Zm-1.387-.294h1.093v-.859h-1.093Z" transform="translate(-2189.536 -1655.471)" fill="#78abd4"/></g><g transform="translate(0.616 7.989)"><path d="M2150.226,1698.013h-1.682v-1.448h1.682Zm-1.388-.294h1.094v-.859h-1.094Z" transform="translate(-2148.544 -1696.565)" fill="#78abd4"/></g><g transform="translate(3.115 7.989)"><path d="M2163.89,1698.013h-1.682v-1.448h1.682Zm-1.387-.294h1.094v-.859H2162.5Z" transform="translate(-2162.208 -1696.565)" fill="#78abd4"/></g><g transform="translate(5.613 7.989)"><path d="M2177.554,1698.013h-1.682v-1.448h1.682Zm-1.388-.294h1.094v-.859h-1.094Z" transform="translate(-2175.872 -1696.565)" fill="#78abd4"/></g><g transform="translate(8.111 7.989)"><path d="M2191.218,1698.013h-1.682v-1.448h1.682Zm-1.387-.294h1.093v-.859h-1.093Z" transform="translate(-2189.536 -1696.565)" fill="#78abd4"/></g></g><g transform="translate(142.76 6.421)"><path d="M1918.858,1429.784a4.67,4.67,0,1,1,4.671-4.67A4.676,4.676,0,0,1,1918.858,1429.784Zm0-9.047a4.376,4.376,0,1,0,4.376,4.376A4.381,4.381,0,0,0,1918.858,1420.737Z" transform="translate(-1914.188 -1420.443)" fill="#78abd4"/><g transform="translate(3.272 2.329)"><path d="M1932.083,1437.881v-4.7l4.347,2.174Zm.294-4.224v3.713l3.433-2Z" transform="translate(-1932.083 -1433.181)" fill="#78abd4"/></g></g><g transform="translate(58.326 4.227)"><path d="M1456.3,1416.241a3.9,3.9,0,1,1,3.9-3.9A3.9,3.9,0,0,1,1456.3,1416.241Zm0-7.385a3.485,3.485,0,1,0,3.486,3.485A3.489,3.489,0,0,0,1456.3,1408.856Z" transform="translate(-1452.405 -1408.442)" fill="#78abd4"/><g transform="translate(3.215 3.215)"><path d="M1470.673,1427.394a.685.685,0,1,1,.684-.685A.685.685,0,0,1,1470.673,1427.394Zm0-.955a.27.27,0,1,0,.271.271A.271.271,0,0,0,1470.673,1426.439Z" transform="translate(-1469.988 -1426.025)" fill="#78abd4"/></g><g transform="translate(2.808 0.693)"><path d="M1468.854,1414.417a1.091,1.091,0,1,1,1.091-1.091A1.093,1.093,0,0,1,1468.854,1414.417Zm0-1.769a.677.677,0,1,0,.677.677A.678.678,0,0,0,1468.854,1412.648Z" transform="translate(-1467.763 -1412.234)" fill="#78abd4"/></g><g transform="translate(4.923 2.808)"><path d="M1480.422,1425.983a1.091,1.091,0,1,1,1.091-1.091A1.092,1.092,0,0,1,1480.422,1425.983Zm0-1.768a.677.677,0,1,0,.677.677A.678.678,0,0,0,1480.422,1424.215Z" transform="translate(-1479.331 -1423.801)" fill="#78abd4"/></g><g transform="translate(0.693 2.808)"><path d="M1457.287,1425.983a1.091,1.091,0,1,1,1.091-1.091A1.093,1.093,0,0,1,1457.287,1425.983Zm0-1.768a.677.677,0,1,0,.677.677A.678.678,0,0,0,1457.287,1424.215Z" transform="translate(-1456.196 -1423.801)" fill="#78abd4"/></g><g transform="translate(2.808 4.923)"><path d="M1468.854,1437.551a1.091,1.091,0,1,1,1.091-1.091A1.093,1.093,0,0,1,1468.854,1437.551Zm0-1.768a.677.677,0,1,0,.677.677A.678.678,0,0,0,1468.854,1435.782Z" transform="translate(-1467.763 -1435.368)" fill="#78abd4"/></g></g><g transform="translate(107.422 11.752)"><g transform="translate(0 1.26)"><path d="M1722.108,1458.55h-1.189v-2.058h1.189Zm-.895-.294h.6v-1.47h-.6Z" transform="translate(-1720.919 -1456.492)" fill="#78abd4"/></g><g transform="translate(0.894)"><path d="M1728.164,1454.179l-2.352-1.321v-1.936l2.352-1.321Zm-2.058-1.493,1.764.991V1450.1l-1.764.991Z" transform="translate(-1725.811 -1449.6)" fill="#78abd4"/></g><g transform="translate(3.786 1.554)"><path d="M1741.624,1459.57v-.294a.441.441,0,0,0,0-.882v-.294a.735.735,0,1,1,0,1.47Z" transform="translate(-1741.624 -1458.1)" fill="#78abd4"/></g></g><g transform="translate(6.559 55.641)"><path d="M1169.28,1694.337v-4.7l4.346,2.173Zm.294-4.224v3.713l3.433-2Z" transform="translate(-1169.28 -1689.637)" fill="#78abd4"/><g transform="translate(2.427 0)"><path d="M1182.556,1694.338v-1.45h.294v.938l3.433-2-3.433-1.717v.731h-.294v-1.207l4.347,2.173Z" transform="translate(-1182.556 -1689.637)" fill="#78abd4"/></g></g><g transform="translate(176.467 22.143)"><path d="M2098.541,1511.129v-4.7l4.347,2.173Zm.294-4.224v3.713l3.434-2Z" transform="translate(-2098.541 -1506.429)" fill="#78abd4"/><g transform="translate(2.428 0)"><path d="M2111.818,1511.129v-1.45h.294v.939l3.434-2-3.434-1.717v.731h-.294v-1.207l4.346,2.173Z" transform="translate(-2111.818 -1506.429)" fill="#78abd4"/></g></g><g transform="translate(80.248 11.592)"><path d="M1579.111,1456.729l-2.6-1.89-2.6,1.89.994-3.058-2.6-1.89h3.215l.993-3.058.994,3.058h3.215l-2.6,1.89Zm-2.6-2.295,1.978,1.437-.755-2.325,1.978-1.437h-2.445l-.756-2.325-.755,2.325h-2.445l1.978,1.437-.755,2.325Z" transform="translate(-1572.301 -1448.723)" fill="#78abd4"/></g><g transform="translate(2.77 111.796)"><path d="M1155.368,2004.768l-2.6-1.89-2.6,1.89.994-3.058-2.6-1.89h3.215l.994-3.058.994,3.058h3.215l-2.6,1.89Zm-2.6-2.3,1.978,1.437-.755-2.325,1.978-1.437h-2.445l-.755-2.325-.755,2.325h-2.445l1.978,1.437-.756,2.325Z" transform="translate(-1148.558 -1996.762)" fill="#78abd4"/></g><g transform="translate(95.918 6.311)"><path d="M1658,1424.539v-4.7l4.347,2.174Zm.294-4.224v3.713l3.433-2Z" transform="translate(-1658.002 -1419.839)" fill="#78abd4"/></g><g transform="translate(189.851 73.134)"><path d="M2171.74,1790.011v-4.7l4.347,2.174Zm.294-4.224v3.713l3.433-2Z" transform="translate(-2171.74 -1785.311)" fill="#78abd4"/></g></svg>