<svg xmlns="http://www.w3.org/2000/svg" width="396" height="227.885" viewBox="0 0 396 227.885"><g transform="translate(-459.539 -3734.12)"><path d="M459.539,3939.3a2.117,2.117,0,0,1,1.639-.507,5.383,5.383,0,0,1,1.433.1,2.1,2.1,0,0,1,.225,1.374q.022,4.024.021,8.049,0,17.6,0,35.2,0,10.233-.013,20.464a3.086,3.086,0,0,0,.181,1.548,10.3,10.3,0,0,0,1.031.1q9.482.007,18.964,0,11.6,0,23.194-.006,10.846,0,21.693.012a5.825,5.825,0,0,1,1.7.113,13.289,13.289,0,0,1,.049,2.759c-.426.041-.775.1-1.123.1-2.775,0-5.549-.008-8.323-.008l-42.977.012c-5.321,0-10.642-.005-15.963.008a4.564,4.564,0,0,1-1.729-.275Z" transform="translate(0 -49.348)" fill="#47286d"/><path d="M529.49,3734.12a1.519,1.519,0,0,1,.242.479,14.361,14.361,0,0,1,.01,2.24,2.537,2.537,0,0,1-1.554.233q-4.773.023-9.547.018H470.5c-2.045,0-4.091-.009-6.137-.008-.4,0-.809.025-1.291.041a5.757,5.757,0,0,0-.172.942c-.014,1.591,0,3.182,0,4.773,0,5.682.01,11.365,0,17.047-.008,3.318-.084,6.636-.08,9.954q.021,16.16.073,32.317a4.151,4.151,0,0,1-.153,1.679,7.344,7.344,0,0,1-2.135.084.655.655,0,0,1-.645-.6,7.626,7.626,0,0,1-.059-1.221c.016-3.773.049-7.545.053-11.318,0-2.454-.058-4.909-.05-7.363.01-3,.071-6,.087-9,.005-1-.092-2-.087-3,.021-4.227.071-8.454.091-12.68.005-1.044-.09-2.089-.088-3.133.006-4.045.044-8.091.049-12.137,0-2.5-.025-5-.059-7.5a5.471,5.471,0,0,1,.277-1.857Z" transform="translate(-0.085 0)" fill="#47286d"/><path d="M959.308,4008.669c-.453-.014-.907-.04-1.361-.04q-10.092,0-20.184,0c-6.136,0-12.273-.026-18.41-.025q-13.843,0-27.685.029h-1.506a6.071,6.071,0,0,1-.222-2.6,1.665,1.665,0,0,1,1.309-.271q9.478-.008,18.956,0,8.8,0,17.592.009,7.5,0,15-.009,6.068,0,12.137,0c.538,0,1.077-.047,1.536-.069a2.105,2.105,0,0,0,.294-1.542c.01-3.956,0-7.911.008-11.866.011-4.136.057-8.272.054-12.409q-.015-19.57-.054-39.14c0-.538.029-1.076.046-1.7a9.552,9.552,0,0,1,2.489.049Z" transform="translate(-103.769 -49.393)" fill="#47286d"/><path d="M959.327,3803.786a3.994,3.994,0,0,1-.654.13c-.54.019-1.08.007-1.656.007a2.2,2.2,0,0,1-.182-1.332q-.014-6.822-.009-13.643,0-25.1,0-50.207c0-.448-.027-.9-.043-1.4a4.127,4.127,0,0,0-.789-.246,11.934,11.934,0,0,0-1.226-.022q-14.188,0-28.378,0-17.257,0-34.515-.007a3.81,3.81,0,0,1-1.783-.172,6.623,6.623,0,0,1-.021-2.337,4.356,4.356,0,0,1,.77-.139q10.3,0,20.6.008,23.6,0,47.2,0c.226,0,.452.028.678.043Z" transform="translate(-103.788 -0.071)" fill="#47286d"/><path d="M680.711,4033.718c.005-.541-.007-1.083.023-1.623a.553.553,0,0,1,.527-.527,4.5,4.5,0,0,1,.811-.021c.587.033.767.228.77.865a1.872,1.872,0,0,1-.221,1.306Z" transform="translate(-53.329 -71.713)"/><path d="M690.413,4033.808a6.531,6.531,0,0,1,.1-1.9h1.463a5.258,5.258,0,0,1,.077,1.9Z" transform="translate(-55.662 -71.803)"/><path d="M650.041,4033.79c-.484-.547-.274-1.175-.263-1.805a2.5,2.5,0,0,1,1.525-.06c.253.482.058.979.116,1.472l-.558.394Z" transform="translate(-45.857 -71.784)"/><path d="M478.691,3763.04v-14.2a8.053,8.053,0,0,1,.8-.2,4.852,4.852,0,0,1,.68-.011q11.789,0,23.577.006a3.023,3.023,0,0,1,1.524.189c.25,1.137-.039,2.326.169,3.471.634.557,1.448.079,2.163.445a1.459,1.459,0,0,1,.146.45c.015,1.726.025,3.453.012,5.178,0,.629-.193.788-.82.818a2.781,2.781,0,0,0-1.4.175c-.387,1.141-.015,2.386-.26,3.674a8.805,8.805,0,0,1-1.031.129c-1.908.019-3.816.023-5.724.023q-8.654,0-17.307,0A11.669,11.669,0,0,1,478.691,3763.04Zm1.179-13.436a5.3,5.3,0,0,0-.123.713q-.006,5.588.006,11.174a2.358,2.358,0,0,0,.157.552c.439.028.839.076,1.238.076q10.9,0,21.8-.008a5.863,5.863,0,0,0,.949-.055.611.611,0,0,0,.536-.539,3.7,3.7,0,0,0,.034-.542q0-5.043,0-10.084a1.6,1.6,0,0,0-.341-1.2,4.62,4.62,0,0,0-.742-.111C495.581,3749.588,487.775,3749.574,479.87,3749.6Zm25.613,8.427a1.48,1.48,0,0,0,.334.093c.795-.005.917-.1.933-.806.019-.907.015-1.814,0-2.721a4.545,4.545,0,0,0-.131-.745c-.46-.158-.843-.246-1.193.048A14.8,14.8,0,0,0,505.483,3758.031Z" transform="translate(-4.618 -3.498)" fill="#fd2032"/><path d="M557.093,3788.092a2.364,2.364,0,0,1,.011,1.4,2.035,2.035,0,0,1-1.37.239q-7.366.01-14.732,0c-2.046,0-4.093-.031-6.139-.039-.4,0-.8.042-1.265.07-.248,2.783.142,5.494.044,8.205-.1,2.769-.094,5.542-.124,8.312-.03,2.71.276,5.424.046,8.14a4.154,4.154,0,0,1-.638.124c-.315.005-.631-.025-.93-.041-.363-.478-.213-1-.214-1.479q-.018-7.982-.008-15.963,0-3.751,0-7.5v-1.416c.3-.077.547-.158.8-.2a3.434,3.434,0,0,1,.545-.011c4.229-.023,8.458-.058,12.686-.066,2.137,0,4.273.05,6.41.059,1.091,0,2.181-.052,3.272-.05A2.566,2.566,0,0,1,557.093,3788.092Z" transform="translate(-17.412 -12.955)" fill="#47286d"/><path d="M531.887,3947.884h1.465c.021.305.055.567.055.829q.018,10.909.031,21.821c0,.494.023.989.032,1.37a1.162,1.162,0,0,0,1.1.373q6.341.012,12.682.013,4.092,0,8.183.011c.273,0,.547,0,.817.022a.632.632,0,0,1,.642.717.687.687,0,0,1-.6.776c-.815.061-1.634.1-2.45.1-2.818-.009-5.636-.06-8.455-.058-3.954,0-7.909.046-11.864.061a2.774,2.774,0,0,1-1.563-.2c-.194-1.154-.257-13.119-.132-24.305C531.836,3948.929,531.865,3948.439,531.887,3947.884Z" transform="translate(-17.415 -51.542)" fill="#47286d"/><path d="M902.04,3972.215c.134-2.9.059-5.619.052-8.334s.015-5.453.019-8.178,0-5.436,0-8.15a1.614,1.614,0,0,1,1.485-.028c.016.23.048.491.049.75q0,4.839,0,9.678,0,6.815.015,13.63c0,.227-.008.454-.013.681-.031,1.313-.044,1.348-1.411,1.361-2.317.02-4.635.009-6.951.01q-7.292,0-14.584,0c-.409,0-.819.012-1.226-.013-.717-.044-.91-.37-.668-1.106.026-.078.115-.135.263-.3Z" transform="translate(-101.07 -51.416)" fill="#47286d"/><path d="M902.108,3789.5c-.566-.012-1.059-.031-1.553-.032q-10.026,0-20.053,0c-.409,0-.819,0-1.226-.034a.449.449,0,0,1-.433-.443c-.021-.291.049-.577.36-.651a4.207,4.207,0,0,1,.943-.074q7.708-.005,15.414,0,3.41,0,6.821-.014c.136,0,.273-.021.408-.014.555.032.78.272.781.882,0,1.545-.02,3.091-.02,4.637,0,2.773.014,5.546.008,8.318-.006,2.546-.033,5.092-.049,7.638-.007,1.137,0,2.273-.014,3.41a4.812,4.812,0,0,1-.067.809.5.5,0,0,1-.607.4.792.792,0,0,1-.462-.409,3.268,3.268,0,0,1-.077-.943q0-9.686.014-19.371c0-1.046.016-2.093,0-3.138A6.05,6.05,0,0,0,902.108,3789.5Z" transform="translate(-101.101 -13.046)" fill="#47286d"/><path d="M717.41,4018.5a1.673,1.673,0,0,1,.442-.154c1.363-.015,2.727-.028,4.09-.018.472,0,.679.193.724.642.058.586.1,1.178.1,1.768.014,1.591-.023,3.182.017,4.771a2.676,2.676,0,0,1-.83,2.076c-.512.511-.989,1.056-1.491,1.577a.551.551,0,0,1-.929,0c-.628-.656-1.226-1.342-1.865-1.986a1.5,1.5,0,0,1-.44-1.1c-.006-.545-.009-1.091,0-1.636.012-1.681.021-3.363.049-5.043A6.406,6.406,0,0,1,717.41,4018.5Z" transform="translate(-62.132 -68.527)"/><path d="M768.823,4028.169c1.058.083,2.234.014,3.407.035a3.469,3.469,0,0,1,.805.056.539.539,0,0,1,.443.6,1.416,1.416,0,0,1-.324.548c-.043.054-.17.061-.259.061-1.772,0-3.544.01-5.316-.008a.6.6,0,0,1-.613-.608,3.332,3.332,0,0,1,1.3-3.363c1.027-.739,1.978-1.585,2.976-2.367a2.36,2.36,0,0,0,.821-2.439,1.188,1.188,0,0,0-1.061-1.087,7.726,7.726,0,0,0-1.755.023,1,1,0,0,0-.883.911c-.067.4-.115.795-.179,1.248l-1.1.054a1.459,1.459,0,0,1-.2-.4,2.864,2.864,0,0,1,.23-1.6,2.1,2.1,0,0,1,1.834-1.415c.814-.038,1.632-.032,2.447-.007a2.286,2.286,0,0,1,2.057,2.036,3.421,3.421,0,0,1-1.285,3.513c-1.044.8-2.05,1.642-3.072,2.466a1.215,1.215,0,0,0-.473,1.547C768.634,4028.018,768.682,4028.042,768.823,4028.169Z" transform="translate(-74.099 -68.545)"/><path d="M925.982,3762.013c-.266.366-.576.459-.839.178a4.151,4.151,0,0,1-.659-1.009c-.517-1.058-1.006-2.129-1.5-3.2a.942.942,0,0,0-.97-.605,7.871,7.871,0,0,0-2.494.188c-.03.377-.079.729-.083,1.081-.012.909,0,1.818-.007,2.728a1.837,1.837,0,0,1-.073.666.45.45,0,0,1-.826.015,1.758,1.758,0,0,1-.071-.669q-.006-5.183,0-10.368a7.9,7.9,0,0,1,.124-.974c.319-.036.58-.089.841-.092,1.182-.008,2.365.024,3.546-.007a2.762,2.762,0,0,1,2.837,2.831c-.005.545,0,1.091,0,1.637a2.733,2.733,0,0,1-1.4,2.61,4.088,4.088,0,0,0-.54.454C924.593,3759.024,925.293,3760.532,925.982,3762.013Zm-6.51-5.5a13.052,13.052,0,0,0,3.836.1,1.856,1.856,0,0,0,1.632-1.749,15.521,15.521,0,0,0,.005-2.309,1.867,1.867,0,0,0-1.613-1.768,21.962,21.962,0,0,0-3.8.011,4.042,4.042,0,0,0-.214.708A29.579,29.579,0,0,0,919.472,3756.516Z" transform="translate(-110.654 -3.816)" fill="#fd2032"/><path d="M686.43,3896.392a2.484,2.484,0,0,1,.91,1.218,16.443,16.443,0,0,0,2.149,3.891,27.926,27.926,0,0,0,5.616,6.01,22.944,22.944,0,0,0,5.387,3.324c.411.172.789.419,1.252.668l-.174.843a1.9,1.9,0,0,1-1.626-.247,27.192,27.192,0,0,1-5.908-3.772c-.776-.69-1.62-1.312-2.348-2.048a27.324,27.324,0,0,1-4.26-5.588c-.537-.933-1.04-1.888-1.513-2.855C685.537,3897.063,685.58,3897.009,686.43,3896.392Z" transform="translate(-54.529 -39.127)"/><path d="M906.119,3754.367a2.744,2.744,0,0,1,2.9,2.894,2.838,2.838,0,0,1-2.869,2.954,2.881,2.881,0,0,1-2.841-2.869A2.8,2.8,0,0,1,906.119,3754.367Z" transform="translate(-107 -4.88)" fill="#fd2032"/><path d="M701.695,3848.347c-.508.266-.935.51-1.378.718a27.23,27.23,0,0,0-8.6,6.465,26.363,26.363,0,0,0-4.521,6.865,3.464,3.464,0,0,1-.406.688.471.471,0,0,1-.6.149.591.591,0,0,1-.392-.642,1.243,1.243,0,0,1,.129-.382,34.3,34.3,0,0,1,4.436-6.944,29.892,29.892,0,0,1,9.963-7.545,1.148,1.148,0,0,1,.371-.162c.217-.017.5-.06.641.054C701.5,3847.758,701.558,3848.047,701.695,3848.347Z" transform="translate(-54.552 -27.347)"/><path d="M666.723,4029.291a5.9,5.9,0,0,1-.066-2.2,1.285,1.285,0,0,1,.485-.94q1.111-.9,2.2-1.814c.59-.493,1.185-.983,1.75-1.5a2.128,2.128,0,0,0,.579-2.01,1.6,1.6,0,0,0-1.579-1.414,6.386,6.386,0,0,0-1.089.012,1.679,1.679,0,0,0-1.437,1.413c-.041.267-.045.54-.071.885a1.946,1.946,0,0,1-.634.069c-.331-.078-.321-.394-.316-.663a8.148,8.148,0,0,1,.058-.816,1.894,1.894,0,0,1,1.88-1.781c.5-.038,1-.033,1.5-.028,1.424.014,1.424.018,2.533,1.039a7.2,7.2,0,0,1,.209,2.143,2.422,2.422,0,0,1-1,2.123c-1,.787-2.006,1.557-2.98,2.371a3.877,3.877,0,0,0-.866,1.024.756.756,0,0,0,.666,1.164c.953.037,1.909.014,2.864.019a9.365,9.365,0,0,1,.952.027.4.4,0,0,1,.379.464,1.1,1.1,0,0,1-.355.519c-.082.074-.26.057-.395.057q-2.454,0-4.909-.021A1.521,1.521,0,0,1,666.723,4029.291Z" transform="translate(-49.914 -68.569)"/><path d="M641.678,4023.905a2.965,2.965,0,0,0,.345.433,2.085,2.085,0,0,1,.694,1.833c-.022.408.022.82-.023,1.225a1.782,1.782,0,0,1-1.363,1.672,7.334,7.334,0,0,1-3.508.007,1.865,1.865,0,0,1-1.341-1.562,5.078,5.078,0,0,1,.017-1.237h.773c.034.3.063.556.095.816a1.764,1.764,0,0,0,.686,1.137,3.021,3.021,0,0,0,3.086.006,1.192,1.192,0,0,0,.483-.936c0-.591.03-1.184-.011-1.771a1.153,1.153,0,0,0-1.131-1.146c-.357-.051-.729-.014-1.083-.078-.128-.023-.327-.242-.311-.341a.563.563,0,0,1,.346-.349,3.416,3.416,0,0,1,.674-.058c1.128-.125,1.5-.52,1.526-1.664a9.705,9.705,0,0,0-.026-1.361,1.248,1.248,0,0,0-1.162-1.146,9.626,9.626,0,0,0-1.767,0c-.668.063-1,.58-1.227,1.141-.116.288-.1.63-.2.922a.5.5,0,0,1-.4.258.518.518,0,0,1-.348-.339,2.249,2.249,0,0,1,2.078-2.758,15.224,15.224,0,0,1,2.178.012,2.154,2.154,0,0,1,1.923,1.824,8.106,8.106,0,0,1,.007,1.9,1.558,1.558,0,0,1-.75,1.226C641.83,4023.638,641.773,4023.779,641.678,4023.905Z" transform="translate(-42.656 -68.588)"/><path d="M932.16,3750.231a1.759,1.759,0,0,1,.51-.168c1.635-.009,3.271,0,4.906.006.345,0,.628.111.579.624-1.646.258-3.326-.064-4.99.184-.5.764-.24,1.6-.267,2.393a8.5,8.5,0,0,0,.1,2.383,7.735,7.735,0,0,0,1.044.171c.908.025,1.818,0,2.727.019a6.621,6.621,0,0,1,.886.133c.034.445-.2.559-.48.563-1,.013-2,0-3,.01-.4,0-.826-.075-1.164.241a18.352,18.352,0,0,0,.017,4.58,1.847,1.847,0,0,0,1.3.283c1.045,0,2.091-.016,3.136-.006a2.141,2.141,0,0,1,.643.15c.042.014.051.148.058.229a.137.137,0,0,1-.067.1.53.53,0,0,1-.238.11c-1.857.006-3.715,0-5.632,0a3.3,3.3,0,0,1-.151-.674q-.014-5.387,0-10.771A3.718,3.718,0,0,1,932.16,3750.231Z" transform="translate(-113.935 -3.843)" fill="#fd2032"/><path d="M951.1,3753.892c-.048-.361-.1-.707-.14-1.053a2.074,2.074,0,0,0-2.243-2.058c-.635-.019-1.272-.023-1.906,0a1.759,1.759,0,0,0-1.856,1.61,5.644,5.644,0,0,0-.106,1.077c-.007,1.862-.007,3.723.01,5.583,0,.4.1.8.143,1.208a1.362,1.362,0,0,0,1.236,1.256,8.766,8.766,0,0,0,3.381-.036,1.8,1.8,0,0,0,1.325-1.566c.1-.429-.112-.921.275-1.317.1.07.277.119.31.216a2.634,2.634,0,0,1-1.239,3.237,2.787,2.787,0,0,1-.912.2c-1,.024-2,.038-3,0a2.1,2.1,0,0,1-2.253-1.918,6.011,6.011,0,0,1-.121-1.212q-.017-2.86,0-5.72c0-.45.095-.9.143-1.345a2.043,2.043,0,0,1,1.518-1.742,4.223,4.223,0,0,1,1.193-.234,19.513,19.513,0,0,1,2.042-.006c2.1.1,2.988,1.5,2.731,3.383a.708.708,0,0,1-.207.339C951.385,3753.843,951.278,3753.842,951.1,3753.892Z" transform="translate(-116.813 -3.84)" fill="#fd2032"/><path d="M750,3896.983l.656.077c.057.162.119.247.11.325a6.977,6.977,0,0,1-1.156,2.59,28.777,28.777,0,0,1-4.887,6.488,30.606,30.606,0,0,1-8.2,5.729,3.55,3.55,0,0,1-.5.2c-.335.1-.577.008-.678-.253s-.005-.468.31-.635c.958-.5,1.937-.973,2.869-1.52a27.094,27.094,0,0,0,8.844-8.267A32.6,32.6,0,0,0,750,3896.983Z" transform="translate(-66.493 -39.269)"/><path d="M750.891,3863.018l-.884.046a29.822,29.822,0,0,0-3.618-6.071,27.4,27.4,0,0,0-6.43-6,29.77,29.77,0,0,0-3.647-2.1,4.368,4.368,0,0,1-.832-.451.539.539,0,0,1-.106-.484.56.56,0,0,1,.381-.3.955.955,0,0,1,.515.127,29.1,29.1,0,0,1,11.114,8.926,35.666,35.666,0,0,1,2.991,4.843A12.388,12.388,0,0,1,750.891,3863.018Z" transform="translate(-66.505 -27.377)"/><path d="M742.646,4020.266c-.969-.3-1.345.728-2.117.648a.887.887,0,0,1,.254-1.305,12.516,12.516,0,0,1,1.881-1.07,1.309,1.309,0,0,1,1.279.1,5.39,5.39,0,0,1,.118.832q.014,4.5,0,8.991a1.994,1.994,0,0,1-.05.535.617.617,0,0,1-.607.455.525.525,0,0,1-.609-.419,3.659,3.659,0,0,1-.088-.8q-.037-3.27-.06-6.54C742.643,4021.237,742.646,4020.787,742.646,4020.266Z" transform="translate(-67.708 -68.549)"/><path d="M797.216,4026.283h.681c.044.333.065.642.128.94a1.6,1.6,0,0,0,1.581,1.417,7.92,7.92,0,0,0,1.227,0,1.513,1.513,0,0,0,1.51-1.465,7.139,7.139,0,0,0,.012-1.5c-.091-.929-.442-1.234-1.411-1.328-.359-.034-.718-.064-1.076-.1-.036,0-.066-.05-.1-.076a.365.365,0,0,1,.294-.509c.356-.064.728-.044,1.081-.121a1.339,1.339,0,0,0,1.188-1.3,7.451,7.451,0,0,0-.019-1.63,1.384,1.384,0,0,0-1.377-1.27c-.406-.038-.82.012-1.226-.021a1.61,1.61,0,0,0-1.7,1.429,2.291,2.291,0,0,1-.142.655c-.062.126-.26.185-.485.33a2.333,2.333,0,0,1-.094-1.9c.123-.339.551-.569.851-.84a.677.677,0,0,1,.248-.108,5.485,5.485,0,0,1,3.728.055,1.485,1.485,0,0,1,1.012,1.334,17.921,17.921,0,0,1,.033,2.039,1.442,1.442,0,0,1-.615,1.165,2.106,2.106,0,0,0-.331.373c.071.131.093.249.159.284a2.059,2.059,0,0,1,.965,2.32c-.049.449-.169.89-.237,1.336a1.4,1.4,0,0,1-1.122,1.222,7.373,7.373,0,0,1-3.646-.017,1.517,1.517,0,0,1-1.154-1.493C797.164,4027.1,797.2,4026.7,797.216,4026.283Z" transform="translate(-81.4 -68.589)"/><path d="M699.271,4029.3a1.094,1.094,0,0,1-1.362-.015c-.211-2.951.008-5.974-.14-9.066a2.72,2.72,0,0,0-1.141.56,1.251,1.251,0,0,1-1.067.151.9.9,0,0,1,.193-1.309,6.6,6.6,0,0,1,2.475-1.35,4.179,4.179,0,0,1,.842-.008,1.772,1.772,0,0,1,.192.519C699.273,4022.279,699.271,4025.773,699.271,4029.3Z" transform="translate(-56.861 -68.508)"/><path d="M710.184,4031.926v1.481a2.046,2.046,0,0,1-1.633.122c-.033-.512-.06-.951-.087-1.375C708.992,4031.7,709.53,4031.878,710.184,4031.926Z" transform="translate(-60.02 -71.788)"/><path d="M727.273,4031.936h1.5c.31.509.143,1,.148,1.5a2.186,2.186,0,0,1-1.779.075C727.12,4032.955,726.939,4032.436,727.273,4031.936Z" transform="translate(-64.508 -71.809)"/><path d="M733.474,4033.518a1.811,1.811,0,0,1-1.475-.058,2.961,2.961,0,0,1,.013-1.5,2.52,2.52,0,0,1,1.475-.017A2.14,2.14,0,0,1,733.474,4033.518Z" transform="translate(-65.673 -71.785)"/><path d="M755.209,4033.5v-1.482a2.827,2.827,0,0,1,1.612-.078c.335.448.168.939.171,1.438A2.067,2.067,0,0,1,755.209,4033.5Z" transform="translate(-71.292 -71.792)"/><path d="M703.991,4033.593a2.55,2.55,0,0,1,0-1.634h1.369c.312.442.142.936.142,1.442C705.055,4033.793,704.571,4033.635,703.991,4033.593Z" transform="translate(-58.91 -71.815)"/><path d="M736.6,4032a2.269,2.269,0,0,1,1.538-.048,2.85,2.85,0,0,1,.068,1.484,1.974,1.974,0,0,1-1.606.073Z" transform="translate(-66.804 -71.785)"/><path d="M760.038,4031.929h1.422c.355.525.155,1.044.169,1.515a1.726,1.726,0,0,1-1.446.114C759.859,4033.063,760.032,4032.542,760.038,4031.929Z" transform="translate(-72.444 -71.807)"/><path d="M656.009,4033.512a4.229,4.229,0,0,1-.647.119c-.263,0-.526-.039-.808-.063a2.555,2.555,0,0,1-.09-1.622,2.769,2.769,0,0,1,1.476,0A3.385,3.385,0,0,1,656.009,4033.512Z" transform="translate(-46.979 -71.788)"/><path d="M660.752,4033.564h-1.6a2.991,2.991,0,0,1-.068-1.526c.515-.335,1.04-.114,1.585-.172A3.694,3.694,0,0,1,660.752,4033.564Z" transform="translate(-48.099 -71.788)"/><path d="M685.889,4031.96h1.37a3.109,3.109,0,0,1,.121,1.493,1.992,1.992,0,0,1-1.5.107A1.743,1.743,0,0,1,685.889,4031.96Z" transform="translate(-54.529 -71.815)"/><path d="M713.453,4033.365v-1.258c.461-.4.929-.2,1.391-.161a2.527,2.527,0,0,1,.128.472c.015.313,0,.627,0,.961A1.21,1.21,0,0,1,713.453,4033.365Z" transform="translate(-61.223 -71.792)"/><path d="M752.071,4031.97v1.466a1.577,1.577,0,0,1-1.46.015v-1.371C751.024,4031.759,751.491,4031.879,752.071,4031.97Z" transform="translate(-70.183 -71.793)"/><path d="M782.634,4033.42a2.007,2.007,0,0,1-1.508.082,3.046,3.046,0,0,1-.049-1.48,2.447,2.447,0,0,1,1.5-.036A5.659,5.659,0,0,1,782.634,4033.42Z" transform="translate(-77.513 -71.797)"/><path d="M787.37,4033.542h-1.393c-.37-.459-.131-.959-.219-1.418a1.913,1.913,0,0,1,1.467-.191C787.527,4032.4,787.374,4032.888,787.37,4033.542Z" transform="translate(-78.658 -71.795)"/><path d="M791.991,4031.932v1.495a1.826,1.826,0,0,1-1.468.126,2.945,2.945,0,0,1-.08-1.529A2.541,2.541,0,0,1,791.991,4031.932Z" transform="translate(-79.772 -71.79)"/><path d="M513.939,3759.645a14.8,14.8,0,0,1-.059-4.13c.35-.294.733-.206,1.193-.048a4.545,4.545,0,0,1,.131.745c.017.907.021,1.814,0,2.722-.016.708-.138.8-.933.806A1.508,1.508,0,0,1,513.939,3759.645Z" transform="translate(-13.075 -5.112)" fill="#fff"/><path d="M919.732,3756.76a29.566,29.566,0,0,1-.15-5.008,4.04,4.04,0,0,1,.214-.709,22.012,22.012,0,0,1,3.8-.01,1.866,1.866,0,0,1,1.613,1.768,15.514,15.514,0,0,1-.005,2.308,1.856,1.856,0,0,1-1.632,1.75A13.037,13.037,0,0,1,919.732,3756.76Z" transform="translate(-110.914 -4.059)" fill="#fff"/><path d="M486.518,3761.444a69.389,69.389,0,0,1-.191-9.207,4.891,4.891,0,0,1,.181-.795,7.072,7.072,0,0,1,2.693,0,1.347,1.347,0,0,1,.173.416q.024,4.488.023,8.976a2.471,2.471,0,0,1-.133.544A6.7,6.7,0,0,1,486.518,3761.444Z" transform="translate(-6.443 -4.146)" fill="#fd2032"/><path d="M484.3,3761.224a4.406,4.406,0,0,1-2.738,0,16.974,16.974,0,0,1-.062-2.426c-.014-.769,0-1.539,0-2.309,0-.815-.02-1.63,0-2.445a9.16,9.16,0,0,1,.1-2.283,4.4,4.4,0,0,1,2.289-.191.534.534,0,0,1,.5.545c.016.181.019.362.018.542q-.017,3.939-.039,7.877C484.369,3760.755,484.329,3760.973,484.3,3761.224Z" transform="translate(-5.29 -4.194)" fill="#fd2032"/><rect width="1.036" height="27.939" rx="0.518" transform="translate(657.198 3832.674)"/><rect width="1.036" height="27.939" rx="0.518" transform="translate(671.685 3846.125) rotate(90)"/><g transform="translate(479.874 3741.206)"><line y2="220.464" transform="translate(105.481)" fill="none" stroke="#848484" stroke-miterlimit="10" stroke-width="1"/><line y2="220.464" transform="translate(252)" fill="none" stroke="#848484" stroke-miterlimit="10" stroke-width="1"/><line x1="357.182" transform="translate(0 67.784)" fill="none" stroke="#848484" stroke-miterlimit="10" stroke-width="1"/><line x1="357.182" transform="translate(0 148.948)" fill="none" stroke="#848484" stroke-miterlimit="10" stroke-width="1"/></g></g></svg>