<svg xmlns="http://www.w3.org/2000/svg" width="143.021" height="143.021" viewBox="0 0 143.021 143.021"><g transform="translate(-613.155 -9112.356)"><circle cx="62.586" cy="62.586" r="62.586" transform="translate(613.155 9236.024) rotate(-81.105)" fill="#fff"/><path d="M344.576,676.7a66.191,66.191,0,1,1,66.191-66.191A66.267,66.267,0,0,1,344.576,676.7Zm0-125.172a58.981,58.981,0,1,0,58.981,58.981A59.048,59.048,0,0,0,344.576,551.527Z" transform="translate(340.088 8573.359)" fill="#31d9e7"/><g transform="translate(663.951 8968.695)"><g transform="translate(-16.746 179)"><g transform="translate(16.994 15.662)"><path d="M320.449,145.811l15.509-30.247a2.973,2.973,0,0,0-5.291-2.713l-16.9,32.96Z" transform="translate(-311.295 -92.086)" fill="#47286d"/><path d="M353.461,106.069a1.469,1.469,0,0,0,.419-2.6l-9.963-7.084a1.469,1.469,0,0,1-.618-1.219l.187-12.224a1.469,1.469,0,0,0-2.344-1.2l-9.817,7.287a1.468,1.468,0,0,1-1.351.21l-11.567-3.955a1.469,1.469,0,0,0-1.868,1.858l3.9,11.587a1.471,1.471,0,0,1-.217,1.35l-7.337,9.779a1.469,1.469,0,0,0,1.19,2.35l12.225-.125a1.471,1.471,0,0,1,1.217.624l7.033,10a1.469,1.469,0,0,0,2.6-.406l3.659-11.665a1.469,1.469,0,0,1,.969-.965Z" transform="translate(-310.768 -78.802)" fill="#edb83e"/><g transform="translate(0 15.935)"><path d="M314.166,109.182a2.572,2.572,0,1,1-1.115-3.463A2.572,2.572,0,0,1,314.166,109.182Z" transform="translate(-309.305 -105.436)" fill="#edb83e"/><path d="M375.046,140.4a2.572,2.572,0,1,1-1.115-3.463A2.572,2.572,0,0,1,375.046,140.4Z" transform="translate(-336.456 -119.357)" fill="#edb83e"/></g><g transform="translate(15.48)"><path d="M342.108,80.419a2.572,2.572,0,1,1-1.115-3.463A2.572,2.572,0,0,1,342.108,80.419Z" transform="translate(-337.247 -76.672)" fill="#edb83e"/><circle cx="2.572" cy="2.572" r="2.572" transform="matrix(0.594, -0.805, 0.805, 0.594, 21.128, 14.473)" fill="#edb83e"/></g></g><rect width="64.8" height="64.8" transform="translate(5.06 5.06)" fill="none" stroke="#47286d" stroke-linecap="round" stroke-linejoin="round" stroke-width="2"/><g transform="translate(1.786 1.51)"><rect width="7.1" height="7.1" fill="#ffffe5" stroke="#47286d" stroke-linecap="round" stroke-linejoin="round" stroke-width="2"/><rect width="7.1" height="7.1" transform="translate(64.248)" fill="#ffffe5" stroke="#47286d" stroke-linecap="round" stroke-linejoin="round" stroke-width="2"/><g transform="translate(0 64.8)"><rect width="7.1" height="7.1" fill="#ffffe5" stroke="#47286d" stroke-linecap="round" stroke-linejoin="round" stroke-width="2"/><rect width="7.1" height="7.1" transform="translate(64.248)" fill="#ffffe5" stroke="#47286d" stroke-linecap="round" stroke-linejoin="round" stroke-width="2"/></g></g><rect width="7.248" height="7.248" transform="translate(32.474 5.125) rotate(-44.997)" fill="#ffffe5" stroke="#47286d" stroke-linecap="round" stroke-linejoin="round" stroke-width="2"/><rect width="7.248" height="7.248" transform="translate(64.671 37.322) rotate(-45)" fill="#ffffe5" stroke="#47286d" stroke-linecap="round" stroke-linejoin="round" stroke-width="2"/><rect width="7.248" height="7.248" transform="translate(0 37.599) rotate(-44.998)" fill="#ffffe5" stroke="#47286d" stroke-linecap="round" stroke-linejoin="round" stroke-width="2"/><rect width="7.248" height="7.248" transform="matrix(0.707, -0.707, 0.707, 0.707, 32.197, 69.796)" fill="#ffffe5" stroke="#47286d" stroke-linecap="round" stroke-linejoin="round" stroke-width="2"/></g></g></g></svg>