<svg xmlns="http://www.w3.org/2000/svg" width="186" height="186" viewBox="0 0 186 186"><g transform="translate(-862 -7801)"><g transform="translate(862 7801)" fill="#fff" stroke="#47286d" stroke-width="3" stroke-dasharray="3 4"><circle cx="93" cy="93" r="93" stroke="none"/><circle cx="93" cy="93" r="91.5" fill="none"/></g><circle cx="83" cy="83" r="83" transform="translate(872 7811)" fill="#bb83ff" opacity="0.5"/><path d="M177.713,104.559q-8.864,14.287-19.843,14.287a12.959,12.959,0,0,1-6.75-1.915,18.826,18.826,0,0,1-5.66-5.369,19.2,19.2,0,0,1-3.2-6.669L140,94.565q-2.633-11.54-4.237-15.434t-5.154-4.445v-1.5q5.851-1.025,10.1-7.52a25.1,25.1,0,0,0,4.252-14.014,20.2,20.2,0,0,0-6.8-15.791q-6.8-6.084-17.6-6.084a36.041,36.041,0,0,0-24.541,9.468Q85.291,48.709,85.291,62.107q0,7.109,3.418,11.553A10.328,10.328,0,0,0,97.186,78.1a11.351,11.351,0,0,0,9.229-4.785l1.436,1.094q-4.854,9.844-14.7,9.844a13.072,13.072,0,0,1-10.459-4.648q-3.965-4.648-3.965-12.578,0-15.859,13.433-28.437T124.8,26.014q13.125,0,20.679,6.016t7.554,16.543A26.923,26.923,0,0,1,148.2,64.021a24.19,24.19,0,0,1-12.87,9.707,15.072,15.072,0,0,1,5.919,4.412,18,18,0,0,1,3.81,6.052l3.165,10.043q3.822,12.441,5.972,16t7.133,3.555q6.757,0,14.265-10.937ZM131.775,38.182q-6.7,6.426-6.7,16.543a103.665,103.665,0,0,0,1.674,14.15A104.108,104.108,0,0,1,128.494,85.9q0,14.15-7.77,23.687t-19,9.536a20.255,20.255,0,0,1-13.35-4.717q-5.682-4.717-6.846-13.193L91.58,98.543l.615.684a11.355,11.355,0,0,0-1.709,6.016,10.467,10.467,0,0,0,3.35,7.588,11.746,11.746,0,0,0,8.682,3.35,15.669,15.669,0,0,0,12.783-6.221q4.99-6.221,4.99-15.518a115.29,115.29,0,0,0-1.23-16.27Q117.9,69.49,117.9,67.3q0-10.732,2.461-17.432t10.186-13.535Z" transform="translate(828 7817.766)" fill="#47286d"/></g></svg>