<svg xmlns="http://www.w3.org/2000/svg" width="124" height="119.344" viewBox="0 0 124 119.344"><g transform="translate(-576.5 -4695.656)"><circle cx="50" cy="50" r="50" transform="translate(578.5 4715)" fill="#f17781"/><g transform="translate(576.5 4673.344)"><g transform="translate(12.594 63.969)"><path d="M25.875,64.5H6.5V45.125a11.625,11.625,0,0,1,23.25,0v15.5A3.874,3.874,0,0,1,25.875,64.5Z" transform="translate(-6.5 -33.5)" fill="#eec78e"/></g><g transform="translate(12.594 94.969)"><path d="M19.094,53.375H6.5V49.5H22a2.907,2.907,0,0,0-2.906,2.906Z" transform="translate(-6.5 -49.5)" fill="#db9e68"/></g><g transform="translate(0 98.844)"><path d="M2.906,73.781H37.781V57.313A5.812,5.812,0,0,0,31.969,51.5H5.812A5.812,5.812,0,0,0,0,57.313V70.875A2.907,2.907,0,0,0,2.906,73.781Z" transform="translate(0 -51.5)" fill="#f9e478"/></g><g transform="translate(26.156 98.844)"><path d="M19.313,51.5a5.812,5.812,0,0,1,5.813,5.813V73.781H13.5V57.313A5.812,5.812,0,0,1,19.313,51.5Z" transform="translate(-13.5 -51.5)" fill="#f9d278"/></g><g transform="translate(9.688 61.063)"><path d="M31.156,32H18.562A13.562,13.562,0,0,0,5,45.563V63a2.907,2.907,0,0,0,2.906,2.906h9.687A2.907,2.907,0,0,0,20.5,63V53.313h3.875V49.438A1.938,1.938,0,0,1,26.312,47.5a7.75,7.75,0,0,0,7.75-7.75V34.906A2.907,2.907,0,0,0,31.156,32Z" transform="translate(-5 -32)" fill="#55525b"/></g><g transform="translate(25.188 78.5)"><path d="M13,41a3.875,3.875,0,0,1,0,7.75Z" transform="translate(-13 -41)" fill="#db9e68"/></g><g transform="translate(37.781 113.375)"><path d="M98.938,66.75H19.5V59H98.938a2.907,2.907,0,0,1,2.906,2.906v1.938A2.907,2.907,0,0,1,98.938,66.75Z" transform="translate(-19.5 -59)" fill="#85151e"/></g><g transform="translate(91.063 113.375)"><path d="M73.156,66.75H49.906A2.907,2.907,0,0,1,47,63.844V61.906A2.907,2.907,0,0,1,49.906,59h23.25a2.907,2.907,0,0,1,2.906,2.906v1.938A2.907,2.907,0,0,1,73.156,66.75Z" transform="translate(-47 -59)" fill="#500007"/></g><g transform="translate(42.625 41.688)" opacity="0.66"><path d="M99.5,78.188H22V25.875A3.874,3.874,0,0,1,25.875,22h69.75A3.874,3.874,0,0,1,99.5,25.875Z" transform="translate(-22 -22)" fill="#500007"/></g><g transform="translate(42.625 41.688)" opacity="0.76"><path d="M95.625,78.188H22V25.875A3.874,3.874,0,0,1,25.875,22H91.75a3.874,3.874,0,0,1,3.875,3.875Z" transform="translate(-22 -22)" fill="#85151e"/></g><g transform="translate(42.625 97.875)"><path d="M95.625,58.75H25.875A3.874,3.874,0,0,1,22,54.875V51H99.5v3.875A3.874,3.874,0,0,1,95.625,58.75Z" transform="translate(-22 -51)" fill="gray"/></g><g transform="translate(42.625 97.875)"><path d="M91.75,58.75H25.875A3.874,3.874,0,0,1,22,54.875V51H95.625v3.875A3.874,3.874,0,0,1,91.75,58.75Z" transform="translate(-22 -51)" fill="#dbdee3"/></g><g transform="translate(71.688 105.625)"><path d="M37,55H52.5v3.875H37Z" transform="translate(-37 -55)" fill="#b3b4b6"/></g><g transform="translate(87.188 105.625)"><path d="M0,0H3.875V3.875H0Z" transform="translate(3.875 3.875) rotate(180)" fill="gray"/></g><g transform="translate(56.188 109.5)"><path d="M32.875,57H67.75a3.874,3.874,0,0,1,3.875,3.875H29A3.874,3.874,0,0,1,32.875,57Z" transform="translate(-29 -57)" fill="#dbdee3"/></g><g transform="translate(87.188 109.5)"><path d="M52.75,57H48.875A3.874,3.874,0,0,0,45,60.875H56.625A3.874,3.874,0,0,0,52.75,57Z" transform="translate(-45 -57)" fill="gray"/></g><g transform="translate(50.375 59.125)"><path d="M45.375,46.5A3.874,3.874,0,0,1,41.5,50.375H29.875A3.874,3.874,0,0,1,26,46.5V40.687a9.687,9.687,0,0,1,19.375,0Z" transform="translate(-26 -31)" fill="#fbbe18"/></g><g transform="translate(116.25 53.313)"><path d="M63.875,28H60a3.874,3.874,0,0,1,3.875,3.875V57.063A3.874,3.874,0,0,1,60,60.938h3.875a3.874,3.874,0,0,0,3.875-3.875V31.875A3.874,3.874,0,0,0,63.875,28Z" transform="translate(-60 -28)" fill="#f68820"/></g><g transform="translate(74.992 53.313)"><path d="M83.838,31.875V57.063a3.874,3.874,0,0,1-3.875,3.875H39.677a.97.97,0,0,1-.686-1.655l2.222-2.22V31.875A3.874,3.874,0,0,1,45.088,28H79.963A3.874,3.874,0,0,1,83.838,31.875Z" transform="translate(-38.706 -28)" fill="#fbbe18"/></g><g transform="translate(50.375 82.375)"><path d="M37.625,43H33.75A7.75,7.75,0,0,0,26,50.75V58.5H45.375V50.75A7.75,7.75,0,0,0,37.625,43Z" transform="translate(-26 -43)" fill="#6fa4d8"/></g><g transform="translate(54.25 68.813)"><path d="M28,36v3.875a5.812,5.812,0,0,0,3.875,5.475v4.212a1.937,1.937,0,1,0,3.875,0V45.35a5.81,5.81,0,0,0,3.875-5.475V36Z" transform="translate(-28 -36)" fill="#db9e68"/></g><g transform="translate(90.094 60.094)"><path d="M46.5,33.437A1.938,1.938,0,0,1,48.438,31.5H70.719a1.937,1.937,0,1,1,0,3.875H48.438A1.938,1.938,0,0,1,46.5,33.437Z" transform="translate(-46.5 -31.5)" fill="#dbdee3"/></g><g transform="translate(81.375 67.844)"><path d="M42,37.438A1.938,1.938,0,0,1,43.937,35.5h31a1.938,1.938,0,0,1,0,3.875h-31A1.938,1.938,0,0,1,42,37.438Z" transform="translate(-42 -35.5)" fill="#dbdee3"/></g><g transform="translate(81.375 75.594)"><path d="M42,41.438A1.938,1.938,0,0,1,43.937,39.5h31a1.937,1.937,0,1,1,0,3.875h-31A1.938,1.938,0,0,1,42,41.438Z" transform="translate(-42 -39.5)" fill="#dbdee3"/></g><g transform="translate(54.25 22.313)"><path d="M31.875,12H28a3.874,3.874,0,0,1,3.875,3.875v23.25A3.874,3.874,0,0,1,28,43h3.875a3.874,3.874,0,0,0,3.875-3.875V15.875A3.874,3.874,0,0,0,31.875,12Z" transform="translate(-28 -12)" fill="#21acb8"/></g><g transform="translate(34.875 22.313)"><path d="M37.375,12h-15.5A3.874,3.874,0,0,0,18,15.875V44.536a.97.97,0,0,0,1.655.686L21.875,43h15.5a3.874,3.874,0,0,0,3.875-3.875V15.875A3.874,3.874,0,0,0,37.375,12Z" transform="translate(-18 -12)" fill="#31d9e7"/></g><g transform="translate(44.563 44.594)"><path d="M25.906,27.375H23.969A.969.969,0,0,1,23,26.406V24.469a.969.969,0,0,1,.969-.969h1.938a.969.969,0,0,1,.969.969v1.938A.969.969,0,0,1,25.906,27.375Z" transform="translate(-23 -23.5)" fill="#fff"/></g><g transform="translate(40.784 27.156)"><path d="M27.735,29.031H25.8a.969.969,0,0,1-.969-.969v-.287a7.286,7.286,0,0,1,3-5.838,2.243,2.243,0,0,0,.589-.628,1.933,1.933,0,1,0-3.482-1.633.958.958,0,0,1-.907.635H22.021a.971.971,0,0,1-.951-1.163A5.815,5.815,0,0,1,26.991,14.5,5.812,5.812,0,0,1,30.2,25a3.47,3.47,0,0,0-1.5,2.776v.287a.969.969,0,0,1-.969.969Z" transform="translate(-21.05 -14.5)" fill="#fff"/></g></g></g></svg>