<svg xmlns="http://www.w3.org/2000/svg" width="84.369" height="79.763" viewBox="0 0 84.369 79.763"><g transform="translate(1 0.5)"><path d="M243.418,91.043,217.355,106.1l-11.583,6.66L192.5,89.788l24.855-14.334,12.79-7.384Zm0,0" transform="translate(-161.531 -56.7)" fill="#ffe470" stroke="#47286d" stroke-linejoin="round" stroke-width="2"/><path d="M55.824,207.172,0,238.929H82.369v-46.96Zm0,0" transform="translate(0 -160.666)" fill="#bb83ff" stroke="#47286d" stroke-linejoin="round" stroke-width="2"/><path d="M309.357,269.691l-8.929,8.977-8.929-8.977,3.378-3.378,3.137,3.089V243.871h4.826V269.4l3.137-3.089Zm0,0" transform="translate(-244.604 -204.219)" fill="#f9e478" stroke="#47286d" stroke-linejoin="round" stroke-width="2"/><path d="M147.936,229.256l-2.413-4.181-17.944,10.36,1.141-4.261-4.661-1.249-3.273,12.219L133,245.417l1.249-4.661-4.26-1.141Zm0,0" transform="translate(-101.354 -188.446)" fill="#f17781" stroke="#47286d" stroke-linejoin="round" stroke-width="2"/><path d="M234.323,29.394l-12.7-22.106,4.283,1.146,1.249-4.661L214.938.5l-3.273,12.219,4.661,1.249,1.136-4.242L230.137,31.8Zm0,0" transform="translate(-177.612)" fill="#31d9e7" stroke="#47286d" stroke-linejoin="round" stroke-width="2"/></g></svg>