<svg xmlns="http://www.w3.org/2000/svg" width="105" height="105" viewBox="0 0 105 105"><circle cx="50" cy="50" r="50" transform="translate(5 5)" fill="#f9e478"/><path d="M49.559,92.3a20.573,20.573,0,0,1,24.993-3.167V53.763H0v64.991a2.057,2.057,0,0,0,2.051,2.051H49.027A20.575,20.575,0,0,1,49.559,92.3Z" transform="translate(0 -42.737)" fill="#eef6ff"/><path d="M4.651,118.754V53.763H0v64.991a2.057,2.057,0,0,0,2.051,2.051H6.7A2.057,2.057,0,0,1,4.651,118.754Z" transform="translate(0 -42.737)" fill="#c3ddf4"/><path d="M73.38,0H1.172A1.176,1.176,0,0,0,0,1.172V11.607H74.552V1.172A1.176,1.176,0,0,0,73.38,0Z" fill="#293d7c"/><path d="M5.823,0H1.172A1.176,1.176,0,0,0,0,1.172V11.607H4.651V1.172A1.176,1.176,0,0,1,5.823,0Z" fill="#1a2b63"/><path d="M61.721,111.111a1.028,1.028,0,0,1-1.025,1.025H37.841a1.028,1.028,0,0,1-1.025-1.025V94.721A1.028,1.028,0,0,1,37.841,93.7H60.7a1.028,1.028,0,0,1,1.025,1.025v16.39h0Z" transform="translate(-29.266 -74.481)" fill="#31d9e7"/><path d="M41.467,111.111V94.721A1.028,1.028,0,0,1,42.493,93.7H37.841a1.028,1.028,0,0,0-1.025,1.025v16.39a1.028,1.028,0,0,0,1.025,1.025h4.651A1.028,1.028,0,0,1,41.467,111.111Z" transform="translate(-29.266 -74.481)" fill="#52bbef"/><path d="M73.8,281.788H37.841a1.028,1.028,0,0,0-1.025,1.025v9.8a1.028,1.028,0,0,0,1.025,1.025H73.575A20.7,20.7,0,0,1,73.8,281.788Z" transform="translate(-29.266 -223.999)" fill="#f17781"/><path d="M41.467,292.618v-9.8a1.028,1.028,0,0,1,1.025-1.025H37.841a1.028,1.028,0,0,0-1.025,1.025v9.8a1.028,1.028,0,0,0,1.025,1.025h4.651A1.028,1.028,0,0,1,41.467,292.618Z" transform="translate(-29.266 -223.999)" fill="#c94e58"/><path d="M188.294,281.788H180.85v11.855h7.221A20.694,20.694,0,0,1,188.294,281.788Z" transform="translate(-143.762 -223.999)" fill="#ffd00d"/><g transform="translate(6.012 17.677)"><path d="M217.343,89.272H192.2a1.538,1.538,0,1,1,0-3.076h25.14a1.538,1.538,0,1,1,0,3.076Z" transform="translate(-157.576 -86.196)" fill="#31d9e7"/><path d="M217.343,119.245H192.2a1.538,1.538,0,0,1,0-3.076h25.14a1.538,1.538,0,0,1,0,3.076Z" transform="translate(-157.576 -110.022)" fill="#31d9e7"/><path d="M217.343,149.218H192.2a1.538,1.538,0,0,1,0-3.076h25.14a1.538,1.538,0,0,1,0,3.076Z" transform="translate(-157.576 -133.848)" fill="#31d9e7"/><path d="M217.343,179.191H192.2a1.538,1.538,0,0,1,0-3.076h25.14a1.538,1.538,0,0,1,0,3.076Z" transform="translate(-157.576 -157.675)" fill="#31d9e7"/><path d="M84.716,213.148H30.854a1.538,1.538,0,0,0,0,3.076h45.44A20.331,20.331,0,0,1,84.716,213.148Z" transform="translate(-29.316 -187.113)" fill="#31d9e7"/><path d="M72.463,243.662H30.854a1.538,1.538,0,0,0,0,3.076H70.063A20.507,20.507,0,0,1,72.463,243.662Z" transform="translate(-29.316 -211.369)" fill="#31d9e7"/></g><path d="M28.933,22.686a1.537,1.537,0,1,1,1.087-.449A1.555,1.555,0,0,1,28.933,22.686Z" transform="translate(-21.777 -15.588)" fill="#e26693"/><path d="M53.528,22.686a1.537,1.537,0,1,1,1.089-.451A1.544,1.544,0,0,1,53.528,22.686Z" transform="translate(-41.328 -15.588)" fill="#ffaf10"/><path d="M78.133,22.686a1.537,1.537,0,1,1,1.087-.449A1.546,1.546,0,0,1,78.133,22.686Z" transform="translate(-60.887 -15.588)" fill="#37c47a"/><path d="M393.428,389.207l-4.215,4.216,8.293,8.293a50.58,50.58,0,0,0,4.216-4.216Z" transform="translate(-309.394 -309.389)" fill="#47286d"/><path d="M371.733,363.27l-3.493-3.493a20.67,20.67,0,0,1-8.424,8.437L363.3,371.7a1.028,1.028,0,0,0,1.45,0l6.981-6.981A1.029,1.029,0,0,0,371.733,363.27Z" transform="translate(-286.025 -285.995)" fill="#47286d"/><path d="M365.694,394.7l-2.982-2.982a20.482,20.482,0,0,1-2.9,1.888l3.487,3.487a1.028,1.028,0,0,0,1.45,0l2.393-2.393A1.028,1.028,0,0,1,365.694,394.7Z" transform="translate(-286.024 -311.382)" fill="#291443"/><path d="M246.092,216.443a20.962,20.962,0,1,1-29.644,0A20.962,20.962,0,0,1,246.092,216.443Z" transform="translate(-167.179 -167.175)" fill="#47286d"/><path d="M265.945,265.94a14.7,14.7,0,1,1,0-20.785A14.7,14.7,0,0,1,265.945,265.94Z" transform="translate(-191.461 -191.458)" fill="#69cdff"/><path d="M265.945,277.106a14.793,14.793,0,0,0,1.424-1.652A14.7,14.7,0,0,1,246.812,254.9a14.7,14.7,0,1,0,19.133,22.209Z" transform="translate(-191.461 -202.623)" fill="#52bbef"/><path d="M165.521,0H115.912V11.607h50.781V1.172A1.176,1.176,0,0,0,165.521,0Z" transform="translate(-92.141)" fill="#bb83ff"/><g transform="translate(64.155 51.788)"><circle cx="2.461" cy="2.461" r="2.461" fill="#d9eafc"/><circle cx="1.743" cy="1.743" r="1.743" transform="translate(5.888 3.275)" fill="#d9eafc"/></g></svg>