<svg id="Capa_1" data-name="Capa 1" xmlns="http://www.w3.org/2000/svg" viewBox="0 0 195.24 265"><defs><style>.cls-1{isolation:isolate;}.cls-2{fill:#12263f;}.cls-3{fill:#ffb000;}.cls-4{fill:#ff0068;}.cls-5{fill:#00a4a8;}.cls-6{fill:#ff4f00;}.cls-7{fill:#6f00ff;}.cls-8{fill:#d7fc13;}</style></defs><g class="cls-1"><g class="cls-1"><path class="cls-2" d="M50.6,17H45.84l-1.07,3H43.22L47.56,8.62h1.32L53.23,20H51.69ZM46.29,15.8h3.87l-1.94-5.32Z"/><path class="cls-2" d="M55.89,11.55l0,.93a3.12,3.12,0,0,1,2.51-1.09,2.41,2.41,0,0,1,2.41,1.36,3.15,3.15,0,0,1,1.1-1,3.24,3.24,0,0,1,1.6-.38c1.85,0,2.79,1,2.83,2.95V20H64.93V14.42a2,2,0,0,0-.41-1.35,1.84,1.84,0,0,0-1.4-.45,1.91,1.91,0,0,0-1.33.48,1.93,1.93,0,0,0-.62,1.29V20H59.72V14.46a1.61,1.61,0,0,0-1.81-1.84A1.93,1.93,0,0,0,56,13.83V20H54.52V11.55Z"/><path class="cls-2" d="M73.77,20a3.1,3.1,0,0,1-.2-.89,3.21,3.21,0,0,1-2.41,1.05,3,3,0,0,1-2-.71,2.3,2.3,0,0,1-.8-1.79,2.38,2.38,0,0,1,1-2.05,4.71,4.71,0,0,1,2.82-.73h1.41v-.67A1.61,1.61,0,0,0,73.09,13a1.8,1.8,0,0,0-1.33-.45,2.06,2.06,0,0,0-1.3.4,1.13,1.13,0,0,0-.52.94H68.48a2,2,0,0,1,.45-1.22,3.05,3.05,0,0,1,1.22-.94,4.12,4.12,0,0,1,1.69-.34,3.32,3.32,0,0,1,2.29.73,2.65,2.65,0,0,1,.86,2V18a4.75,4.75,0,0,0,.3,1.86V20Zm-2.39-1.1a2.54,2.54,0,0,0,1.28-.35,2.18,2.18,0,0,0,.89-.92V15.9H72.41c-1.77,0-2.65.52-2.65,1.55a1.33,1.33,0,0,0,.45,1.07A1.77,1.77,0,0,0,71.38,18.9Z"/><path class="cls-2" d="M81.34,12.84a5.16,5.16,0,0,0-.71-.05A1.9,1.9,0,0,0,78.7,14v6H77.26V11.55h1.4l0,1a2.24,2.24,0,0,1,2-1.13,1.5,1.5,0,0,1,.64.11Z"/><path class="cls-2" d="M82.68,9.3a.87.87,0,0,1,.21-.59.83.83,0,0,1,.64-.24.82.82,0,0,1,.64.24.83.83,0,0,1,.22.59.78.78,0,0,1-.86.82.82.82,0,0,1-.64-.23A.85.85,0,0,1,82.68,9.3ZM84.24,20H82.8V11.55h1.44Z"/><path class="cls-2" d="M88.12,20H86.68V8h1.44Z"/><path class="cls-2" d="M92,20H90.56V8H92Z"/><path class="cls-2" d="M93.94,15.7a5,5,0,0,1,.49-2.24,3.56,3.56,0,0,1,1.36-1.53,3.68,3.68,0,0,1,2-.54,3.57,3.57,0,0,1,2.8,1.2,4.58,4.58,0,0,1,1.06,3.18v.1a4.94,4.94,0,0,1-.47,2.21,3.6,3.6,0,0,1-1.35,1.53,3.8,3.8,0,0,1-2,.55A3.55,3.55,0,0,1,95,19a4.58,4.58,0,0,1-1.06-3.16Zm1.45.17A3.62,3.62,0,0,0,96,18.12a2.1,2.1,0,0,0,1.75.86,2.07,2.07,0,0,0,1.75-.87,4,4,0,0,0,.65-2.41,3.63,3.63,0,0,0-.66-2.26,2.12,2.12,0,0,0-1.76-.86,2.05,2.05,0,0,0-1.72.85A3.92,3.92,0,0,0,95.39,15.87Z"/><path class="cls-2" d="M110.41,15.76H106.6V14.58h3.81Z"/><path class="cls-2" d="M122.29,17h-4.77l-1.07,3h-1.54l4.34-11.38h1.31L124.91,20h-1.53ZM118,15.8h3.86l-1.93-5.32Z"/><path class="cls-2" d="M127.59,11.55l0,1.06a3.09,3.09,0,0,1,2.53-1.22c1.79,0,2.69,1,2.71,3V20h-1.45V14.41a1.93,1.93,0,0,0-.42-1.36,1.67,1.67,0,0,0-1.27-.43,2.11,2.11,0,0,0-1.24.37,2.6,2.6,0,0,0-.83,1v6h-1.44V11.55Z"/><path class="cls-2" d="M140.27,20a2.73,2.73,0,0,1-.21-.89,3.21,3.21,0,0,1-2.4,1.05,3,3,0,0,1-2-.71,2.27,2.27,0,0,1-.81-1.79,2.38,2.38,0,0,1,1-2.05,4.71,4.71,0,0,1,2.82-.73H140v-.67a1.65,1.65,0,0,0-.45-1.21,1.84,1.84,0,0,0-1.34-.45,2.06,2.06,0,0,0-1.3.4,1.13,1.13,0,0,0-.52.94H135a2,2,0,0,1,.45-1.22,3,3,0,0,1,1.21-.94,4.13,4.13,0,0,1,1.7-.34,3.31,3.31,0,0,1,2.28.73,2.61,2.61,0,0,1,.86,2V18a4.75,4.75,0,0,0,.3,1.86V20Zm-2.4-1.1a2.61,2.61,0,0,0,1.29-.35,2.16,2.16,0,0,0,.88-.92V15.9h-1.13c-1.78,0-2.66.52-2.66,1.55a1.33,1.33,0,0,0,.45,1.07A1.77,1.77,0,0,0,137.87,18.9Z"/><path class="cls-2" d="M147.84,12.84a5.31,5.31,0,0,0-.72-.05A1.89,1.89,0,0,0,145.2,14v6h-1.45V11.55h1.41l0,1a2.26,2.26,0,0,1,2-1.13,1.53,1.53,0,0,1,.64.11Z"/><path class="cls-2" d="M154.07,20a3.1,3.1,0,0,1-.2-.89,3.23,3.23,0,0,1-2.41,1.05,3,3,0,0,1-2.05-.71,2.3,2.3,0,0,1-.8-1.79,2.38,2.38,0,0,1,1-2.05,4.72,4.72,0,0,1,2.83-.73h1.4v-.67a1.65,1.65,0,0,0-.45-1.21,1.82,1.82,0,0,0-1.34-.45,2,2,0,0,0-1.29.4,1.15,1.15,0,0,0-.53.94h-1.45a2,2,0,0,1,.45-1.22,3.05,3.05,0,0,1,1.22-.94,4.08,4.08,0,0,1,1.69-.34,3.33,3.33,0,0,1,2.29.73,2.65,2.65,0,0,1,.86,2V18a4.75,4.75,0,0,0,.3,1.86V20Zm-2.4-1.1a2.61,2.61,0,0,0,1.29-.35,2.1,2.1,0,0,0,.88-.92V15.9h-1.13c-1.77,0-2.66.52-2.66,1.55a1.34,1.34,0,0,0,.46,1.07A1.76,1.76,0,0,0,151.67,18.9Z"/><path class="cls-2" d="M158.92,11.55l.05,1.06a3.08,3.08,0,0,1,2.53-1.22c1.79,0,2.69,1,2.7,3V20h-1.44V14.41a2,2,0,0,0-.42-1.36,1.68,1.68,0,0,0-1.28-.43,2.06,2.06,0,0,0-1.23.37,2.51,2.51,0,0,0-.83,1v6h-1.45V11.55Z"/><path class="cls-2" d="M167.88,11.55V21q0,2.43-2.22,2.43a2.54,2.54,0,0,1-.88-.14V22.12a2.42,2.42,0,0,0,.66.07,1,1,0,0,0,.74-.26,1.37,1.37,0,0,0,.25-.92V11.55Zm-1.6-2.25a.87.87,0,0,1,.22-.59.78.78,0,0,1,.62-.24.84.84,0,0,1,.65.24.87.87,0,0,1,.21.59.85.85,0,0,1-.21.59.83.83,0,0,1-.65.23.79.79,0,0,1-.63-.23A.85.85,0,0,1,166.28,9.3Z"/><path class="cls-2" d="M175.42,20a3.1,3.1,0,0,1-.2-.89,3.23,3.23,0,0,1-2.41,1.05,3,3,0,0,1-2.05-.71,2.3,2.3,0,0,1-.8-1.79,2.38,2.38,0,0,1,1-2.05,4.74,4.74,0,0,1,2.83-.73h1.41v-.67a1.65,1.65,0,0,0-.46-1.21,1.81,1.81,0,0,0-1.33-.45,2.06,2.06,0,0,0-1.3.4,1.13,1.13,0,0,0-.52.94h-1.46a2,2,0,0,1,.45-1.22,3.05,3.05,0,0,1,1.22-.94,4.08,4.08,0,0,1,1.69-.34,3.32,3.32,0,0,1,2.29.73,2.65,2.65,0,0,1,.86,2V18a4.75,4.75,0,0,0,.3,1.86V20ZM173,18.9a2.55,2.55,0,0,0,1.29-.35,2.18,2.18,0,0,0,.89-.92V15.9h-1.14c-1.77,0-2.65.52-2.65,1.55a1.33,1.33,0,0,0,.45,1.07A1.76,1.76,0,0,0,173,18.9Z"/><path class="cls-2" d="M178.55,15.7a4.94,4.94,0,0,1,.93-3.13,3.13,3.13,0,0,1,4.76-.16V8h1.45V20h-1.33l-.07-.91a3.11,3.11,0,0,1-4.81-.14,5,5,0,0,1-.93-3.14Zm1.45.17a3.78,3.78,0,0,0,.59,2.25,1.94,1.94,0,0,0,1.64.81,2.11,2.11,0,0,0,2-1.23V13.81a2.12,2.12,0,0,0-2-1.19,1.93,1.93,0,0,0-1.66.82A4.14,4.14,0,0,0,180,15.87Z"/><path class="cls-2" d="M187.55,15.7a5,5,0,0,1,.49-2.24,3.6,3.6,0,0,1,1.35-1.53,3.71,3.71,0,0,1,2-.54,3.59,3.59,0,0,1,2.8,1.2,4.58,4.58,0,0,1,1.06,3.18v.1a5.08,5.08,0,0,1-.47,2.21,3.6,3.6,0,0,1-1.35,1.53,3.8,3.8,0,0,1-2,.55,3.55,3.55,0,0,1-2.79-1.2,4.58,4.58,0,0,1-1.06-3.16Zm1.45.17a3.62,3.62,0,0,0,.65,2.25,2.1,2.1,0,0,0,1.75.86,2.07,2.07,0,0,0,1.75-.87,4,4,0,0,0,.65-2.41,3.63,3.63,0,0,0-.66-2.26,2.12,2.12,0,0,0-1.76-.86,2.05,2.05,0,0,0-1.72.85A3.92,3.92,0,0,0,189,15.87Z"/></g><g class="cls-1"><path class="cls-2" d="M48.49,63.4H45.82V68H44.31V56.62h3.77a4.51,4.51,0,0,1,3,.88,3.14,3.14,0,0,1,1,2.55,3.1,3.1,0,0,1-.57,1.85,3.52,3.52,0,0,1-1.6,1.18l2.67,4.83V68H51Zm-2.67-1.23h2.3a2.58,2.58,0,0,0,1.78-.58A2,2,0,0,0,50.56,60a2.07,2.07,0,0,0-.63-1.62,2.7,2.7,0,0,0-1.81-.57h-2.3Z"/><path class="cls-2" d="M53.56,63.7a5.08,5.08,0,0,1,.49-2.24,3.6,3.6,0,0,1,3.35-2.07,3.55,3.55,0,0,1,2.79,1.2,4.58,4.58,0,0,1,1.07,3.18v.1a5.08,5.08,0,0,1-.47,2.21,3.56,3.56,0,0,1-1.36,1.53,3.77,3.77,0,0,1-2,.55A3.55,3.55,0,0,1,54.63,67a4.58,4.58,0,0,1-1.07-3.16Zm1.46.17a3.56,3.56,0,0,0,.65,2.25,2.19,2.19,0,0,0,3.49,0,3.88,3.88,0,0,0,.65-2.41,3.63,3.63,0,0,0-.66-2.26,2.1,2.1,0,0,0-1.75-.86,2.07,2.07,0,0,0-1.73.85A3.92,3.92,0,0,0,55,63.87Z"/><path class="cls-2" d="M64.56,59.55V69c0,1.62-.73,2.43-2.21,2.43a2.5,2.5,0,0,1-.88-.14V70.12a2.34,2.34,0,0,0,.65.07,1,1,0,0,0,.74-.26,1.31,1.31,0,0,0,.26-.92V59.55ZM63,57.3a.91.91,0,0,1,.21-.59,1,1,0,0,1,1.27,0,.83.83,0,0,1,.22.59.78.78,0,0,1-.86.82.79.79,0,0,1-.63-.23A.85.85,0,0,1,63,57.3Z"/><path class="cls-2" d="M66.51,63.7A5,5,0,0,1,67,61.46a3.56,3.56,0,0,1,1.36-1.53,3.68,3.68,0,0,1,2-.54,3.57,3.57,0,0,1,2.8,1.2,4.58,4.58,0,0,1,1.06,3.18v.1a4.94,4.94,0,0,1-.47,2.21,3.54,3.54,0,0,1-1.35,1.53,3.8,3.8,0,0,1-2,.55A3.57,3.57,0,0,1,67.57,67a4.58,4.58,0,0,1-1.06-3.16Zm1.45.17a3.62,3.62,0,0,0,.65,2.25,2.1,2.1,0,0,0,1.75.86,2.07,2.07,0,0,0,1.75-.87,4,4,0,0,0,.65-2.41,3.63,3.63,0,0,0-.66-2.26,2.12,2.12,0,0,0-1.76-.86,2.05,2.05,0,0,0-1.72.85A3.92,3.92,0,0,0,68,63.87Z"/><path class="cls-2" d="M83,63.76H79.17V62.58H83Z"/><path class="cls-2" d="M94.86,65H90.09L89,68H87.48l4.34-11.38h1.31L97.48,68H96ZM90.55,63.8h3.86l-1.93-5.32Z"/><path class="cls-2" d="M100.16,59.55l0,1.06a3.09,3.09,0,0,1,2.53-1.22c1.79,0,2.69,1,2.71,3V68H104V62.41a1.93,1.93,0,0,0-.42-1.36,1.65,1.65,0,0,0-1.27-.43,2.11,2.11,0,0,0-1.24.37,2.6,2.6,0,0,0-.83,1v6H98.79V59.55Z"/><path class="cls-2" d="M112.84,68a2.73,2.73,0,0,1-.21-.89,3.21,3.21,0,0,1-2.4,1,3,3,0,0,1-2-.71,2.27,2.27,0,0,1-.8-1.79,2.38,2.38,0,0,1,1-2,4.71,4.71,0,0,1,2.82-.73h1.41v-.67a1.65,1.65,0,0,0-.45-1.21,1.84,1.84,0,0,0-1.34-.45,2.06,2.06,0,0,0-1.3.4,1.13,1.13,0,0,0-.52.94h-1.45a2,2,0,0,1,.45-1.22,3,3,0,0,1,1.21-.94,4.13,4.13,0,0,1,1.7-.34,3.35,3.35,0,0,1,2.29.73,2.64,2.64,0,0,1,.85,2V66a4.75,4.75,0,0,0,.3,1.86V68Zm-2.4-1.1a2.61,2.61,0,0,0,1.29-.35,2.16,2.16,0,0,0,.88-.92V63.9h-1.13c-1.77,0-2.66.52-2.66,1.55a1.33,1.33,0,0,0,.45,1.07A1.79,1.79,0,0,0,110.44,66.9Z"/><path class="cls-2" d="M120.41,60.84a5.27,5.27,0,0,0-.71-.05A1.89,1.89,0,0,0,117.77,62v6h-1.45V59.55h1.41l0,1a2.26,2.26,0,0,1,2-1.13,1.53,1.53,0,0,1,.64.11Z"/><path class="cls-2" d="M126.64,68a3.1,3.1,0,0,1-.2-.89,3.23,3.23,0,0,1-2.41,1,3,3,0,0,1-2-.71,2.3,2.3,0,0,1-.8-1.79,2.38,2.38,0,0,1,1-2,4.72,4.72,0,0,1,2.83-.73h1.4v-.67A1.65,1.65,0,0,0,126,61a1.82,1.82,0,0,0-1.34-.45,2,2,0,0,0-1.29.4,1.15,1.15,0,0,0-.53.94h-1.45a2,2,0,0,1,.45-1.22,3.05,3.05,0,0,1,1.22-.94,4.08,4.08,0,0,1,1.69-.34,3.33,3.33,0,0,1,2.29.73,2.65,2.65,0,0,1,.86,2V66a4.75,4.75,0,0,0,.3,1.86V68Zm-2.4-1.1a2.58,2.58,0,0,0,1.29-.35,2.1,2.1,0,0,0,.88-.92V63.9h-1.13c-1.77,0-2.66.52-2.66,1.55a1.34,1.34,0,0,0,.46,1.07A1.76,1.76,0,0,0,124.24,66.9Z"/><path class="cls-2" d="M131.49,59.55l0,1.06a3.08,3.08,0,0,1,2.53-1.22c1.79,0,2.69,1,2.7,3V68h-1.44V62.41a2,2,0,0,0-.42-1.36,1.68,1.68,0,0,0-1.28-.43,2.06,2.06,0,0,0-1.23.37,2.51,2.51,0,0,0-.83,1v6h-1.45V59.55Z"/><path class="cls-2" d="M140.45,59.55V69q0,2.43-2.22,2.43a2.54,2.54,0,0,1-.88-.14V70.12a2.42,2.42,0,0,0,.66.07,1,1,0,0,0,.74-.26A1.32,1.32,0,0,0,139,69V59.55Zm-1.6-2.25a.87.87,0,0,1,.22-.59.79.79,0,0,1,.63-.24.83.83,0,0,1,.64.24.87.87,0,0,1,.21.59.85.85,0,0,1-.21.59.82.82,0,0,1-.64.23.8.8,0,0,1-.64-.23A.85.85,0,0,1,138.85,57.3Z"/><path class="cls-2" d="M148,68a3.1,3.1,0,0,1-.2-.89,3.23,3.23,0,0,1-2.41,1,3,3,0,0,1-2-.71,2.3,2.3,0,0,1-.8-1.79,2.38,2.38,0,0,1,1-2,4.69,4.69,0,0,1,2.82-.73h1.41v-.67a1.65,1.65,0,0,0-.46-1.21,1.81,1.81,0,0,0-1.33-.45,2.06,2.06,0,0,0-1.3.4,1.13,1.13,0,0,0-.52.94H142.7a2,2,0,0,1,.45-1.22,3.05,3.05,0,0,1,1.22-.94,4.08,4.08,0,0,1,1.69-.34,3.32,3.32,0,0,1,2.29.73,2.65,2.65,0,0,1,.86,2V66a4.75,4.75,0,0,0,.3,1.86V68Zm-2.4-1.1a2.55,2.55,0,0,0,1.29-.35,2.18,2.18,0,0,0,.89-.92V63.9h-1.14c-1.77,0-2.65.52-2.65,1.55a1.33,1.33,0,0,0,.45,1.07A1.76,1.76,0,0,0,145.59,66.9Z"/><path class="cls-2" d="M151.12,63.7a4.94,4.94,0,0,1,.93-3.13,3.13,3.13,0,0,1,4.76-.16V56h1.45V68h-1.33l-.07-.91a3.11,3.11,0,0,1-4.81-.14,5,5,0,0,1-.93-3.14Zm1.45.17a3.78,3.78,0,0,0,.59,2.25,1.94,1.94,0,0,0,1.64.81,2.11,2.11,0,0,0,2-1.23V61.81a2.12,2.12,0,0,0-2-1.19,1.93,1.93,0,0,0-1.66.82A4.14,4.14,0,0,0,152.57,63.87Z"/><path class="cls-2" d="M160.12,63.7a5,5,0,0,1,.49-2.24A3.6,3.6,0,0,1,162,59.93a3.71,3.71,0,0,1,2-.54,3.57,3.57,0,0,1,2.8,1.2,4.58,4.58,0,0,1,1.06,3.18v.1a5.08,5.08,0,0,1-.47,2.21A3.6,3.6,0,0,1,166,67.61a3.8,3.8,0,0,1-2,.55,3.55,3.55,0,0,1-2.79-1.2,4.58,4.58,0,0,1-1.06-3.16Zm1.45.17a3.62,3.62,0,0,0,.65,2.25A2.1,2.1,0,0,0,164,67a2.07,2.07,0,0,0,1.75-.87,4,4,0,0,0,.65-2.41,3.63,3.63,0,0,0-.66-2.26,2.12,2.12,0,0,0-1.76-.86,2.05,2.05,0,0,0-1.72.85A3.92,3.92,0,0,0,161.57,63.87Z"/></g><g class="cls-1"><path class="cls-2" d="M48.49,111.4H45.82V116H44.31V104.62h3.77a4.51,4.51,0,0,1,3,.88,3.14,3.14,0,0,1,1,2.55,3.1,3.1,0,0,1-.57,1.85,3.52,3.52,0,0,1-1.6,1.18l2.67,4.83V116H51Zm-2.67-1.23h2.3a2.58,2.58,0,0,0,1.78-.58,2,2,0,0,0,.66-1.55,2.07,2.07,0,0,0-.63-1.62,2.7,2.7,0,0,0-1.81-.57h-2.3Z"/><path class="cls-2" d="M53.56,111.7a5.08,5.08,0,0,1,.49-2.24,3.6,3.6,0,0,1,3.35-2.07,3.55,3.55,0,0,1,2.79,1.2,4.58,4.58,0,0,1,1.07,3.18v.1a5.08,5.08,0,0,1-.47,2.21,3.56,3.56,0,0,1-1.36,1.53,3.77,3.77,0,0,1-2,.55,3.55,3.55,0,0,1-2.78-1.2,4.58,4.58,0,0,1-1.07-3.16Zm1.46.17a3.56,3.56,0,0,0,.65,2.25,2.19,2.19,0,0,0,3.49,0,3.88,3.88,0,0,0,.65-2.41,3.63,3.63,0,0,0-.66-2.26,2.1,2.1,0,0,0-1.75-.86,2.07,2.07,0,0,0-1.73.85A3.92,3.92,0,0,0,55,111.87Z"/><path class="cls-2" d="M64.56,107.55V117c0,1.62-.73,2.43-2.21,2.43a2.5,2.5,0,0,1-.88-.14v-1.15a2.34,2.34,0,0,0,.65.07,1,1,0,0,0,.74-.26,1.31,1.31,0,0,0,.26-.92v-9.46ZM63,105.3a.91.91,0,0,1,.21-.59,1,1,0,0,1,1.27,0,.83.83,0,0,1,.22.59.78.78,0,0,1-.86.82.79.79,0,0,1-.63-.23A.85.85,0,0,1,63,105.3Z"/><path class="cls-2" d="M66.51,111.7a5,5,0,0,1,.49-2.24,3.56,3.56,0,0,1,1.36-1.53,3.68,3.68,0,0,1,2-.54,3.57,3.57,0,0,1,2.8,1.2,4.58,4.58,0,0,1,1.06,3.18v.1a4.94,4.94,0,0,1-.47,2.21,3.54,3.54,0,0,1-1.35,1.53,3.8,3.8,0,0,1-2,.55,3.57,3.57,0,0,1-2.79-1.2,4.58,4.58,0,0,1-1.06-3.16Zm1.45.17a3.62,3.62,0,0,0,.65,2.25,2.1,2.1,0,0,0,1.75.86,2.07,2.07,0,0,0,1.75-.87,4,4,0,0,0,.65-2.41,3.63,3.63,0,0,0-.66-2.26,2.12,2.12,0,0,0-1.76-.86,2.05,2.05,0,0,0-1.72.85A3.92,3.92,0,0,0,68,111.87Z"/><path class="cls-2" d="M83,111.76H79.17v-1.18H83Z"/><path class="cls-2" d="M92.34,114l3.25-9.39h1.64L93,116H91.69l-4.21-11.38h1.63Z"/><path class="cls-2" d="M98.54,105.3a.87.87,0,0,1,.21-.59.83.83,0,0,1,.64-.24.82.82,0,0,1,.64.24.83.83,0,0,1,.22.59.78.78,0,0,1-.86.82.82.82,0,0,1-.64-.23A.85.85,0,0,1,98.54,105.3ZM100.1,116H98.66v-8.45h1.44Z"/><path class="cls-2" d="M102,111.7a5,5,0,0,1,.49-2.24,3.62,3.62,0,0,1,1.36-1.53,3.69,3.69,0,0,1,2-.54,3.55,3.55,0,0,1,2.79,1.2,4.58,4.58,0,0,1,1.07,3.18v.1a5,5,0,0,1-.48,2.21,3.47,3.47,0,0,1-1.35,1.53,3.77,3.77,0,0,1-2,.55,3.55,3.55,0,0,1-2.78-1.2A4.58,4.58,0,0,1,102,111.8Zm1.45.17a3.56,3.56,0,0,0,.66,2.25,2.19,2.19,0,0,0,3.49,0,4,4,0,0,0,.65-2.41,3.63,3.63,0,0,0-.66-2.26,2.1,2.1,0,0,0-1.75-.86,2.07,2.07,0,0,0-1.73.85A3.92,3.92,0,0,0,103.48,111.87Z"/><path class="cls-2" d="M113.11,116h-1.45V104h1.45Z"/><path class="cls-2" d="M120.64,116a3.1,3.1,0,0,1-.2-.89,3.23,3.23,0,0,1-2.41,1,3,3,0,0,1-2-.71,2.3,2.3,0,0,1-.8-1.79,2.38,2.38,0,0,1,1-2,4.72,4.72,0,0,1,2.83-.73h1.4v-.67A1.65,1.65,0,0,0,120,109a1.82,1.82,0,0,0-1.34-.45,2,2,0,0,0-1.29.4,1.15,1.15,0,0,0-.53.94h-1.45a2,2,0,0,1,.45-1.22,3.05,3.05,0,0,1,1.22-.94,4.08,4.08,0,0,1,1.69-.34,3.33,3.33,0,0,1,2.29.73,2.65,2.65,0,0,1,.86,2V114a4.75,4.75,0,0,0,.3,1.86V116Zm-2.4-1.1a2.58,2.58,0,0,0,1.29-.35,2.1,2.1,0,0,0,.88-.92V111.9h-1.13c-1.77,0-2.66.52-2.66,1.55a1.34,1.34,0,0,0,.46,1.07A1.76,1.76,0,0,0,118.24,114.9Zm1.34-10.9h1.75l-2.1,2.3h-1.16Z"/><path class="cls-2" d="M127.52,115a2.11,2.11,0,0,0,1.35-.47,1.67,1.67,0,0,0,.64-1.17h1.37a2.73,2.73,0,0,1-.5,1.38,3.36,3.36,0,0,1-1.24,1,3.52,3.52,0,0,1-1.62.39,3.48,3.48,0,0,1-2.75-1.16,4.57,4.57,0,0,1-1-3.15v-.24a5.15,5.15,0,0,1,.45-2.2,3.5,3.5,0,0,1,1.3-1.49,3.77,3.77,0,0,1,2-.53,3.37,3.37,0,0,1,2.36.85,3.08,3.08,0,0,1,1,2.21h-1.37a2,2,0,0,0-.62-1.34,1.93,1.93,0,0,0-1.38-.53,2,2,0,0,0-1.71.79,3.74,3.74,0,0,0-.6,2.29v.28a3.67,3.67,0,0,0,.6,2.25A2,2,0,0,0,127.52,115Z"/><path class="cls-2" d="M136,116.16a3.71,3.71,0,0,1-2.8-1.13,4.2,4.2,0,0,1-1.08-3v-.27a5,5,0,0,1,.48-2.24A3.71,3.71,0,0,1,134,108a3.39,3.39,0,0,1,1.87-.56,3.14,3.14,0,0,1,2.56,1.09,4.69,4.69,0,0,1,.91,3.11v.6h-5.72a3,3,0,0,0,.73,2,2.3,2.3,0,0,0,1.78.77,2.47,2.47,0,0,0,1.29-.32,3,3,0,0,0,.93-.82l.89.68A3.57,3.57,0,0,1,136,116.16Zm-.18-7.58a1.92,1.92,0,0,0-1.47.63,3.13,3.13,0,0,0-.74,1.79h4.24v-.11a2.8,2.8,0,0,0-.59-1.71A1.84,1.84,0,0,0,135.83,108.58Z"/><path class="cls-2" d="M140.59,111.7a5.08,5.08,0,0,1,.49-2.24,3.6,3.6,0,0,1,3.35-2.07,3.55,3.55,0,0,1,2.79,1.2,4.58,4.58,0,0,1,1.07,3.18v.1a5.08,5.08,0,0,1-.47,2.21,3.56,3.56,0,0,1-1.36,1.53,3.74,3.74,0,0,1-2,.55,3.55,3.55,0,0,1-2.79-1.2,4.58,4.58,0,0,1-1.07-3.16Zm1.46.17a3.56,3.56,0,0,0,.65,2.25,2.2,2.2,0,0,0,3.5,0,4,4,0,0,0,.64-2.41,3.63,3.63,0,0,0-.66-2.26,2.2,2.2,0,0,0-3.48,0A4,4,0,0,0,142.05,111.87Z"/></g><g class="cls-1"><path class="cls-2" d="M50.6,161H45.84l-1.07,3H43.22l4.34-11.38h1.32L53.23,164H51.69Zm-4.31-1.22h3.87l-1.94-5.32Z"/><path class="cls-2" d="M56,162.82h5V164H54.22v-1.06l4.66-6.2H54.29v-1.19H60.7v1Z"/><path class="cls-2" d="M67.77,163.16a3,3,0,0,1-2.47,1,2.64,2.64,0,0,1-2.06-.79,3.42,3.42,0,0,1-.72-2.32v-5.5H64V161q0,1.92,1.56,1.92a2.15,2.15,0,0,0,2.2-1.23v-6.15h1.45V164H67.8Z"/><path class="cls-2" d="M73,164H71.5V152H73Z"/><path class="cls-2" d="M82.23,159.76H78.41v-1.18h3.82Z"/><path class="cls-2" d="M91.59,162l3.25-9.39h1.64L92.26,164H90.93l-4.21-11.38h1.63Z"/><path class="cls-2" d="M97.78,153.3a.83.83,0,0,1,.22-.59.79.79,0,0,1,.63-.24.82.82,0,0,1,.64.24.83.83,0,0,1,.22.59.78.78,0,0,1-.86.82.79.79,0,0,1-.63-.23A.82.82,0,0,1,97.78,153.3ZM99.34,164H97.9v-8.45h1.44Z"/><path class="cls-2" d="M101.27,159.7a5.08,5.08,0,0,1,.49-2.24,3.6,3.6,0,0,1,3.35-2.07,3.55,3.55,0,0,1,2.79,1.2,4.58,4.58,0,0,1,1.07,3.18v.1a5.08,5.08,0,0,1-.47,2.21,3.56,3.56,0,0,1-1.36,1.53,3.75,3.75,0,0,1-2,.55,3.55,3.55,0,0,1-2.78-1.2,4.58,4.58,0,0,1-1.07-3.16Zm1.46.17a3.56,3.56,0,0,0,.65,2.25,2.2,2.2,0,0,0,3.5,0,4,4,0,0,0,.64-2.41,3.63,3.63,0,0,0-.66-2.26,2.2,2.2,0,0,0-3.48,0A4,4,0,0,0,102.73,159.87Z"/><path class="cls-2" d="M112.35,164h-1.44V152h1.44Z"/><path class="cls-2" d="M119.88,164a3.1,3.1,0,0,1-.2-.89,3.21,3.21,0,0,1-2.41,1,3,3,0,0,1-2-.71,2.3,2.3,0,0,1-.8-1.79,2.38,2.38,0,0,1,1-2,4.69,4.69,0,0,1,2.82-.73h1.41v-.67a1.65,1.65,0,0,0-.46-1.21,1.8,1.8,0,0,0-1.33-.45,2.06,2.06,0,0,0-1.3.4,1.13,1.13,0,0,0-.52.94h-1.46a2,2,0,0,1,.45-1.22,3.05,3.05,0,0,1,1.22-.94,4.08,4.08,0,0,1,1.69-.34,3.32,3.32,0,0,1,2.29.73,2.65,2.65,0,0,1,.86,2V162a4.75,4.75,0,0,0,.3,1.86V164Zm-2.4-1.1a2.55,2.55,0,0,0,1.29-.35,2.18,2.18,0,0,0,.89-.92V159.9h-1.14c-1.77,0-2.65.52-2.65,1.55a1.33,1.33,0,0,0,.45,1.07A1.76,1.76,0,0,0,117.48,162.9Zm1.34-10.9h1.75l-2.09,2.3h-1.17Z"/><path class="cls-2" d="M126.76,163a2.11,2.11,0,0,0,1.35-.47,1.67,1.67,0,0,0,.64-1.17h1.37a2.73,2.73,0,0,1-.5,1.38,3.41,3.41,0,0,1-1.23,1.05,3.59,3.59,0,0,1-1.63.39A3.49,3.49,0,0,1,124,163a4.57,4.57,0,0,1-1-3.15v-.24a5,5,0,0,1,.46-2.2,3.44,3.44,0,0,1,1.3-1.49,3.71,3.71,0,0,1,2-.53,3.35,3.35,0,0,1,2.36.85,3,3,0,0,1,1,2.21h-1.37a2,2,0,0,0-.62-1.34,1.89,1.89,0,0,0-1.38-.53,2,2,0,0,0-1.71.79,3.74,3.74,0,0,0-.6,2.29v.28a3.67,3.67,0,0,0,.6,2.25A2,2,0,0,0,126.76,163Z"/><path class="cls-2" d="M135.25,164.16a3.71,3.71,0,0,1-2.8-1.13,4.19,4.19,0,0,1-1.07-3v-.27a5,5,0,0,1,.48-2.24A3.69,3.69,0,0,1,133.2,156a3.39,3.39,0,0,1,1.87-.56,3.14,3.14,0,0,1,2.56,1.09,4.69,4.69,0,0,1,.92,3.11v.6h-5.73a3,3,0,0,0,.73,2,2.32,2.32,0,0,0,1.78.77,2.47,2.47,0,0,0,1.29-.32,3,3,0,0,0,.93-.82l.89.68A3.55,3.55,0,0,1,135.25,164.16Zm-.18-7.58a2,2,0,0,0-1.47.63,3.13,3.13,0,0,0-.73,1.79h4.23v-.11a2.8,2.8,0,0,0-.59-1.71A1.84,1.84,0,0,0,135.07,156.58Z"/><path class="cls-2" d="M139.84,159.7a5.08,5.08,0,0,1,.48-2.24,3.6,3.6,0,0,1,3.35-2.07,3.55,3.55,0,0,1,2.79,1.2,4.53,4.53,0,0,1,1.07,3.18v.1a5.08,5.08,0,0,1-.47,2.21,3.6,3.6,0,0,1-1.35,1.53,3.8,3.8,0,0,1-2,.55,3.55,3.55,0,0,1-2.79-1.2,4.58,4.58,0,0,1-1.06-3.16Zm1.45.17a3.62,3.62,0,0,0,.65,2.25,2.2,2.2,0,0,0,3.5,0,4,4,0,0,0,.65-2.41,3.63,3.63,0,0,0-.66-2.26,2.12,2.12,0,0,0-1.76-.86,2.05,2.05,0,0,0-1.72.85A3.92,3.92,0,0,0,141.29,159.87Z"/></g><g class="cls-1"><path class="cls-2" d="M50.6,209H45.84l-1.07,3H43.22l4.34-11.38h1.32L53.23,212H51.69Zm-4.31-1.22h3.87l-1.94-5.32Z"/><path class="cls-2" d="M56,210.82h5V212H54.22v-1.06l4.66-6.2H54.29v-1.19H60.7v1Z"/><path class="cls-2" d="M67.77,211.16a3,3,0,0,1-2.47,1,2.64,2.64,0,0,1-2.06-.79,3.42,3.42,0,0,1-.72-2.32v-5.5H64V209q0,1.92,1.56,1.92a2.15,2.15,0,0,0,2.2-1.23v-6.15h1.45V212H67.8Z"/><path class="cls-2" d="M73,212H71.5V200H73Z"/><path class="cls-2" d="M82.23,207.76H78.41v-1.18h3.82Z"/><path class="cls-2" d="M91.59,210l3.25-9.39h1.64L92.26,212H90.93l-4.21-11.38h1.63Z"/><path class="cls-2" d="M101.28,212.16a3.72,3.72,0,0,1-2.8-1.13,4.24,4.24,0,0,1-1.07-3v-.27a5,5,0,0,1,.48-2.24A3.69,3.69,0,0,1,99.23,204a3.41,3.41,0,0,1,1.87-.56,3.14,3.14,0,0,1,2.56,1.09,4.69,4.69,0,0,1,.92,3.11v.6H98.85a3.05,3.05,0,0,0,.73,2,2.32,2.32,0,0,0,1.78.77,2.53,2.53,0,0,0,1.3-.32,3.27,3.27,0,0,0,.93-.82l.88.68A3.55,3.55,0,0,1,101.28,212.16Zm-.18-7.58a2,2,0,0,0-1.47.63A3.13,3.13,0,0,0,98.9,207h4.23v-.11a2.8,2.8,0,0,0-.59-1.71A1.83,1.83,0,0,0,101.1,204.58Z"/><path class="cls-2" d="M110.34,204.84a5.31,5.31,0,0,0-.72-.05A1.89,1.89,0,0,0,107.7,206v6h-1.45v-8.45h1.41l0,1a2.26,2.26,0,0,1,2-1.13,1.53,1.53,0,0,1,.64.11Z"/><path class="cls-2" d="M111.31,207.7a5,5,0,0,1,.92-3.13,3.14,3.14,0,0,1,4.77-.16V200h1.45v12h-1.33l-.07-.91a3,3,0,0,1-2.42,1.07,2.89,2.89,0,0,1-2.39-1.21,5,5,0,0,1-.93-3.14Zm1.45.17a3.78,3.78,0,0,0,.59,2.25,1.92,1.92,0,0,0,1.64.81,2.11,2.11,0,0,0,2-1.23v-3.89a2.13,2.13,0,0,0-2-1.19,1.93,1.93,0,0,0-1.66.82A4.14,4.14,0,0,0,112.76,207.87Z"/><path class="cls-2" d="M120.3,207.7a5.08,5.08,0,0,1,.49-2.24,3.6,3.6,0,0,1,3.35-2.07,3.55,3.55,0,0,1,2.79,1.2,4.58,4.58,0,0,1,1.07,3.18v.1a5.08,5.08,0,0,1-.47,2.21,3.6,3.6,0,0,1-1.35,1.53,3.8,3.8,0,0,1-2,.55,3.55,3.55,0,0,1-2.79-1.2,4.58,4.58,0,0,1-1.07-3.16Zm1.46.17a3.56,3.56,0,0,0,.65,2.25,2.2,2.2,0,0,0,3.5,0,4,4,0,0,0,.64-2.41,3.63,3.63,0,0,0-.66-2.26,2.2,2.2,0,0,0-3.48,0A4,4,0,0,0,121.76,207.87Z"/><path class="cls-2" d="M134.73,209.76a1,1,0,0,0-.44-.91,4.16,4.16,0,0,0-1.54-.56,7.41,7.41,0,0,1-1.74-.56,2.45,2.45,0,0,1-.95-.78,1.88,1.88,0,0,1-.31-1.08,2.18,2.18,0,0,1,.88-1.76,3.41,3.41,0,0,1,2.25-.72,3.57,3.57,0,0,1,2.33.74,2.38,2.38,0,0,1,.89,1.9h-1.45a1.29,1.29,0,0,0-.51-1,1.85,1.85,0,0,0-1.26-.43,2,2,0,0,0-1.24.34,1.07,1.07,0,0,0-.44.9.87.87,0,0,0,.41.79,4.84,4.84,0,0,0,1.5.51,7.44,7.44,0,0,1,1.75.58,2.58,2.58,0,0,1,1,.8,2.05,2.05,0,0,1,.32,1.16,2.14,2.14,0,0,1-.91,1.81,3.77,3.77,0,0,1-2.35.69,4.29,4.29,0,0,1-1.8-.36,3,3,0,0,1-1.22-1,2.44,2.44,0,0,1-.44-1.39h1.45a1.48,1.48,0,0,0,.58,1.15,2.66,2.66,0,0,0,2.75.09A1,1,0,0,0,134.73,209.76Z"/><path class="cls-2" d="M137.68,207.7a5,5,0,0,1,.49-2.24,3.62,3.62,0,0,1,1.36-1.53,3.69,3.69,0,0,1,2-.54,3.55,3.55,0,0,1,2.79,1.2,4.58,4.58,0,0,1,1.07,3.18v.1a5,5,0,0,1-.48,2.21,3.47,3.47,0,0,1-1.35,1.53,3.8,3.8,0,0,1-2,.55,3.53,3.53,0,0,1-2.78-1.2,4.58,4.58,0,0,1-1.07-3.16Zm1.45.17a3.56,3.56,0,0,0,.66,2.25,2.19,2.19,0,0,0,3.49,0,4,4,0,0,0,.65-2.41,3.63,3.63,0,0,0-.66-2.26,2.11,2.11,0,0,0-1.75-.86,2.07,2.07,0,0,0-1.73.85A3.92,3.92,0,0,0,139.13,207.87Z"/></g><g class="cls-1"><path class="cls-2" d="M50.6,257H45.84l-1.07,3H43.22l4.34-11.38h1.32L53.23,260H51.69Zm-4.31-1.22h3.87l-1.94-5.32Z"/><path class="cls-2" d="M55.89,251.55l0,.93a3.12,3.12,0,0,1,2.51-1.09,2.41,2.41,0,0,1,2.41,1.36,3.15,3.15,0,0,1,1.1-1,3.24,3.24,0,0,1,1.6-.38c1.85,0,2.79,1,2.83,3V260H64.93v-5.58a2,2,0,0,0-.41-1.35,1.84,1.84,0,0,0-1.4-.45,1.91,1.91,0,0,0-1.33.48,1.93,1.93,0,0,0-.62,1.29V260H59.72v-5.54a1.61,1.61,0,0,0-1.81-1.84A1.93,1.93,0,0,0,56,253.83V260H54.52v-8.45Z"/><path class="cls-2" d="M73.77,260a3.1,3.1,0,0,1-.2-.89,3.21,3.21,0,0,1-2.41,1.05,3,3,0,0,1-2-.71,2.3,2.3,0,0,1-.8-1.79,2.38,2.38,0,0,1,1-2.05,4.71,4.71,0,0,1,2.82-.73h1.41v-.67a1.61,1.61,0,0,0-.46-1.21,1.8,1.8,0,0,0-1.33-.45,2.06,2.06,0,0,0-1.3.4,1.13,1.13,0,0,0-.52.94H68.48a2,2,0,0,1,.45-1.22,3.05,3.05,0,0,1,1.22-.94,4.12,4.12,0,0,1,1.69-.34,3.32,3.32,0,0,1,2.29.73,2.65,2.65,0,0,1,.86,2V258a4.75,4.75,0,0,0,.3,1.86V260Zm-2.39-1.1a2.54,2.54,0,0,0,1.28-.35,2.18,2.18,0,0,0,.89-.92V255.9H72.41c-1.77,0-2.65.52-2.65,1.55a1.33,1.33,0,0,0,.45,1.07A1.77,1.77,0,0,0,71.38,258.9Z"/><path class="cls-2" d="M81.34,252.84a5.16,5.16,0,0,0-.71-.05A1.9,1.9,0,0,0,78.7,254v6H77.26v-8.45h1.4l0,1a2.24,2.24,0,0,1,2-1.13,1.5,1.5,0,0,1,.64.11Z"/><path class="cls-2" d="M82.68,249.3a.87.87,0,0,1,.21-.59.83.83,0,0,1,.64-.24.82.82,0,0,1,.64.24.83.83,0,0,1,.22.59.78.78,0,0,1-.86.82.82.82,0,0,1-.64-.23A.85.85,0,0,1,82.68,249.3ZM84.24,260H82.8v-8.45h1.44Z"/><path class="cls-2" d="M88.12,260H86.68V248h1.44Z"/><path class="cls-2" d="M92,260H90.56V248H92Z"/><path class="cls-2" d="M93.94,255.7a5,5,0,0,1,.49-2.24,3.56,3.56,0,0,1,1.36-1.53,3.68,3.68,0,0,1,2-.54,3.57,3.57,0,0,1,2.8,1.2,4.58,4.58,0,0,1,1.06,3.18v.1a4.94,4.94,0,0,1-.47,2.21,3.6,3.6,0,0,1-1.35,1.53,3.8,3.8,0,0,1-2,.55A3.55,3.55,0,0,1,95,259a4.58,4.58,0,0,1-1.06-3.16Zm1.45.17a3.62,3.62,0,0,0,.65,2.25,2.1,2.1,0,0,0,1.75.86,2.07,2.07,0,0,0,1.75-.87,4,4,0,0,0,.65-2.41,3.63,3.63,0,0,0-.66-2.26,2.12,2.12,0,0,0-1.76-.86,2.05,2.05,0,0,0-1.72.85A3.92,3.92,0,0,0,95.39,255.87Z"/><path class="cls-2" d="M110.41,255.76H106.6v-1.18h3.81Z"/><path class="cls-2" d="M119.77,258l3.25-9.39h1.64L120.45,260h-1.33l-4.21-11.38h1.63Z"/><path class="cls-2" d="M129.47,260.16a3.71,3.71,0,0,1-2.8-1.13,4.2,4.2,0,0,1-1.08-3v-.27a5,5,0,0,1,.48-2.24,3.71,3.71,0,0,1,1.35-1.55,3.39,3.39,0,0,1,1.87-.56,3.14,3.14,0,0,1,2.56,1.09,4.69,4.69,0,0,1,.92,3.11v.6H127a3,3,0,0,0,.73,2,2.32,2.32,0,0,0,1.78.77,2.47,2.47,0,0,0,1.29-.32,3,3,0,0,0,.93-.82l.89.68A3.57,3.57,0,0,1,129.47,260.16Zm-.18-7.58a2,2,0,0,0-1.47.63,3.06,3.06,0,0,0-.73,1.79h4.23v-.11a2.8,2.8,0,0,0-.59-1.71A1.84,1.84,0,0,0,129.29,252.58Z"/><path class="cls-2" d="M138.52,252.84a5.16,5.16,0,0,0-.71-.05,1.9,1.9,0,0,0-1.93,1.21v6h-1.44v-8.45h1.4l0,1a2.24,2.24,0,0,1,2-1.13,1.5,1.5,0,0,1,.64.11Z"/><path class="cls-2" d="M139.5,255.7a5,5,0,0,1,.92-3.13,3.14,3.14,0,0,1,4.77-.16V248h1.44v12H145.3l-.07-.91a2.93,2.93,0,0,1-2.41,1.07,2.88,2.88,0,0,1-2.39-1.21,5,5,0,0,1-.93-3.14Zm1.45.17a3.71,3.71,0,0,0,.59,2.25,1.91,1.91,0,0,0,1.64.81,2.11,2.11,0,0,0,2-1.23v-3.89a2.14,2.14,0,0,0-2-1.19,1.92,1.92,0,0,0-1.66.82A4.07,4.07,0,0,0,141,255.87Z"/><path class="cls-2" d="M148.49,255.7a5,5,0,0,1,.49-2.24,3.6,3.6,0,0,1,3.35-2.07,3.55,3.55,0,0,1,2.79,1.2,4.58,4.58,0,0,1,1.07,3.18v.1a5,5,0,0,1-.48,2.21,3.47,3.47,0,0,1-1.35,1.53,3.77,3.77,0,0,1-2,.55,3.55,3.55,0,0,1-2.78-1.2,4.58,4.58,0,0,1-1.07-3.16Zm1.46.17a3.56,3.56,0,0,0,.65,2.25,2.19,2.19,0,0,0,3.49,0,3.88,3.88,0,0,0,.65-2.41,3.63,3.63,0,0,0-.66-2.26,2.1,2.1,0,0,0-1.75-.86,2.07,2.07,0,0,0-1.73.85A3.92,3.92,0,0,0,150,255.87Z"/><path class="cls-2" d="M162.92,257.76a1.07,1.07,0,0,0-.44-.91,4.23,4.23,0,0,0-1.54-.56,7.41,7.41,0,0,1-1.74-.56,2.45,2.45,0,0,1-.95-.78,1.88,1.88,0,0,1-.31-1.08,2.18,2.18,0,0,1,.88-1.76,3.4,3.4,0,0,1,2.24-.72,3.54,3.54,0,0,1,2.33.74,2.36,2.36,0,0,1,.9,1.9h-1.45a1.29,1.29,0,0,0-.51-1,1.86,1.86,0,0,0-1.27-.43,2,2,0,0,0-1.23.34,1.08,1.08,0,0,0-.45.9.88.88,0,0,0,.42.79,4.85,4.85,0,0,0,1.49.51,7.54,7.54,0,0,1,1.76.58,2.54,2.54,0,0,1,1,.8,2,2,0,0,1,.33,1.16,2.17,2.17,0,0,1-.91,1.81,3.77,3.77,0,0,1-2.35.69,4.25,4.25,0,0,1-1.8-.36,2.91,2.91,0,0,1-1.22-1,2.36,2.36,0,0,1-.44-1.39h1.44a1.49,1.49,0,0,0,.59,1.15,2.66,2.66,0,0,0,2.75.09A1,1,0,0,0,162.92,257.76Z"/><path class="cls-2" d="M165.87,255.7a5,5,0,0,1,.49-2.24,3.6,3.6,0,0,1,1.35-1.53,3.71,3.71,0,0,1,2-.54,3.57,3.57,0,0,1,2.8,1.2,4.58,4.58,0,0,1,1.06,3.18v.1a5.08,5.08,0,0,1-.47,2.21,3.6,3.6,0,0,1-1.35,1.53,3.8,3.8,0,0,1-2,.55,3.55,3.55,0,0,1-2.79-1.2,4.58,4.58,0,0,1-1.06-3.16Zm1.45.17a3.62,3.62,0,0,0,.65,2.25,2.1,2.1,0,0,0,1.75.86,2.07,2.07,0,0,0,1.75-.87,4,4,0,0,0,.65-2.41,3.63,3.63,0,0,0-.66-2.26,2.12,2.12,0,0,0-1.76-.86,2.05,2.05,0,0,0-1.72.85A3.92,3.92,0,0,0,167.32,255.87Z"/></g></g><circle class="cls-3" cx="13" cy="13" r="13"/><circle class="cls-4" cx="13" cy="111" r="13"/><circle class="cls-5" cx="13" cy="205" r="13"/><circle class="cls-6" cx="13" cy="64" r="13"/><circle class="cls-7" cx="13" cy="158" r="13"/><circle class="cls-8" cx="13" cy="252" r="13"/></svg>