<svg id="Capa_1" data-name="Capa 1" xmlns="http://www.w3.org/2000/svg" xmlns:xlink="http://www.w3.org/1999/xlink" viewBox="0 0 246.84 950.95"><defs><style>.cls-1{fill:#c9c0c0;}.cls-2{fill:#f17781;}.cls-3{fill:#47286d;}.cls-4{fill:#31d9e7;}.cls-5{fill:url(#Degradado_sin_nombre);}.cls-6{isolation:isolate;}.cls-7{fill:#12263f;}.cls-8{fill:#fff;}.cls-9{fill:url(#Degradado_sin_nombre_2);}.cls-10{fill:url(#Degradado_sin_nombre_3);}.cls-11{fill:url(#Degradado_sin_nombre_4);}.cls-12{fill:url(#Degradado_sin_nombre_5);}.cls-13{fill:url(#Degradado_sin_nombre_6);}.cls-14{fill:url(#Degradado_sin_nombre_7);}</style><linearGradient id="Degradado_sin_nombre" x1="-831.75" y1="1017.03" x2="-832.48" y2="1019.38" gradientTransform="matrix(183.56, 0, 0, -56.93, 152672.56, 57796.93)" gradientUnits="userSpaceOnUse"><stop offset="0" stop-color="#edebeb"/><stop offset="1" stop-color="#fff"/></linearGradient><linearGradient id="Degradado_sin_nombre_2" x1="-831.75" y1="1017.03" x2="-832.48" y2="1019.38" gradientTransform="matrix(183.56, 0, 0, -56.93, 152672.56, 58083.6)" xlink:href="#Degradado_sin_nombre"/><linearGradient id="Degradado_sin_nombre_3" x1="-831.87" y1="1017.03" x2="-832.6" y2="1019.38" gradientTransform="matrix(188.59, 0, 0, -56.94, 156881.85, 58373.73)" xlink:href="#Degradado_sin_nombre"/><linearGradient id="Degradado_sin_nombre_4" x1="-831.75" y1="1017.03" x2="-832.48" y2="1019.38" gradientTransform="matrix(183.56, 0, 0, -56.93, 152672.56, 58656.95)" xlink:href="#Degradado_sin_nombre"/><linearGradient id="Degradado_sin_nombre_5" x1="-833.17" y1="1021.47" x2="-833.89" y2="1023.82" gradientTransform="matrix(183.56, 0, 0, -56.94, 152627.78, 57943.58)" xlink:href="#Degradado_sin_nombre"/><linearGradient id="Degradado_sin_nombre_6" x1="-833.17" y1="1021.47" x2="-833.89" y2="1023.82" gradientTransform="matrix(183.56, 0, 0, -56.94, 152627.78, 58230.25)" xlink:href="#Degradado_sin_nombre"/><linearGradient id="Degradado_sin_nombre_7" x1="-833.17" y1="1021.47" x2="-833.89" y2="1023.82" gradientTransform="matrix(183.56, 0, 0, -56.94, 152627.78, 58516.92)" xlink:href="#Degradado_sin_nombre"/></defs><rect class="cls-1" x="121.3" y="83.77" width="2.94" height="63.4" transform="matrix(0.74, -0.67, 0.67, 0.74, -45.73, 111.81)"/><rect class="cls-1" x="121.3" y="371.44" width="2.94" height="63.4" transform="matrix(0.74, -0.67, 0.67, 0.74, -238.22, 185.7)"/><rect class="cls-1" x="121.3" y="658.39" width="2.94" height="63.4" transform="matrix(0.74, -0.67, 0.67, 0.74, -430.23, 259.4)"/><rect class="cls-1" x="91.07" y="258.17" width="63.4" height="2.94" transform="translate(-152.33 177.14) rotate(-48)"/><rect class="cls-1" x="91.07" y="545.84" width="63.4" height="2.94" transform="translate(-366.11 272.32) rotate(-48)"/><rect class="cls-1" x="91.07" y="832.79" width="63.4" height="2.94" transform="translate(-579.36 367.27) rotate(-48)"/><path class="cls-2" d="M17.17,67H49.64V23.9H17.17a5.59,5.59,0,0,0-4.53,2.31l-11.57,16a5.6,5.6,0,0,0,0,6.57l11.57,16A5.58,5.58,0,0,0,17.17,67Z" transform="translate(0 0)"/><circle class="cls-3" cx="82.56" cy="45.46" r="45.46"/><circle class="cls-4" cx="82.56" cy="45.46" r="36.63"/><path class="cls-5" d="M82.56,73.93H219.74A17.9,17.9,0,0,0,237.65,56V34.9A17.91,17.91,0,0,0,219.74,17H82.56A28.47,28.47,0,0,0,54.09,45.47h0A28.47,28.47,0,0,0,82.56,73.93Z" transform="translate(0 0)"/><circle class="cls-3" cx="82.82" cy="45.03" r="22.15"/><g class="cls-6"><g class="cls-6"><path class="cls-7" d="M125.27,45.48h-2.1v4.68h-2.64V37.36h4.76a5.37,5.37,0,0,1,3.5,1A3.47,3.47,0,0,1,130,41.23a4,4,0,0,1-.57,2.19,3.91,3.91,0,0,1-1.72,1.39L130.5,50v.12h-2.83Zm-2.1-2.14h2.13a2.14,2.14,0,0,0,1.53-.51,1.77,1.77,0,0,0,.55-1.39,1.93,1.93,0,0,0-.51-1.42,2.13,2.13,0,0,0-1.58-.52h-2.12Z" transform="translate(0 0)"/><path class="cls-7" d="M131.83,38.19a1.24,1.24,0,0,1,.39-.94,1.41,1.41,0,0,1,1-.37,1.44,1.44,0,0,1,1,.37,1.27,1.27,0,0,1,.38.94,1.25,1.25,0,0,1-.39,1,1.62,1.62,0,0,1-2.06,0A1.26,1.26,0,0,1,131.83,38.19Zm2.7,12H132V40.65h2.55Z" transform="translate(0 0)"/><path class="cls-7" d="M139.67,38.31v2.34h1.62v1.86h-1.62v4.75a1.13,1.13,0,0,0,.2.76,1,1,0,0,0,.77.23,4.16,4.16,0,0,0,.75-.07v1.93a5.32,5.32,0,0,1-1.54.23,2.42,2.42,0,0,1-2.72-2.7V42.51h-1.39V40.65h1.39V38.31Z" transform="translate(0 0)"/><path class="cls-7" d="M145.09,40.65l.08,1.06a3.34,3.34,0,0,1,2.73-1.23,2.52,2.52,0,0,1,2.52,1.45,3.26,3.26,0,0,1,2.86-1.45,2.83,2.83,0,0,1,2.3.9,4.1,4.1,0,0,1,.76,2.71v6.07h-2.55V44.1a1.79,1.79,0,0,0-.32-1.18,1.39,1.39,0,0,0-1.11-.38,1.58,1.58,0,0,0-1.58,1.09v6.53h-2.54v-6a1.78,1.78,0,0,0-.32-1.2,1.41,1.41,0,0,0-1.11-.37,1.64,1.64,0,0,0-1.56.9v6.72h-2.54V40.65Z" transform="translate(0 0)"/><path class="cls-7" d="M157.89,45.32a5.66,5.66,0,0,1,.55-2.52A4,4,0,0,1,160,41.08a4.6,4.6,0,0,1,2.38-.6,4.34,4.34,0,0,1,3.14,1.17,4.77,4.77,0,0,1,1.36,3.2v.65A4.94,4.94,0,0,1,165.68,49a4.72,4.72,0,0,1-6.56,0,5.06,5.06,0,0,1-1.23-3.59Zm2.54.18a3.55,3.55,0,0,0,.51,2.07,1.83,1.83,0,0,0,2.9,0,3.86,3.86,0,0,0,.52-2.27,3.51,3.51,0,0,0-.52-2.06,1.81,1.81,0,0,0-2.9,0A3.94,3.94,0,0,0,160.43,45.5Z" transform="translate(0 0)"/></g></g><circle class="cls-8" cx="82.82" cy="45.03" r="17.66"/><g class="cls-6"><g class="cls-6"><path class="cls-8" d="M23.59,48a5.05,5.05,0,0,1-.86,3.17,3,3,0,0,1-2.51,1.1,3,3,0,0,1-2.49-1.08,4.85,4.85,0,0,1-.89-3.08V46.3a5,5,0,0,1,.87-3.18A3,3,0,0,1,20.21,42a3,3,0,0,1,2.49,1.07,4.94,4.94,0,0,1,.89,3.09Zm-2-2a3.69,3.69,0,0,0-.34-1.8,1.15,1.15,0,0,0-1.06-.57,1.12,1.12,0,0,0-1,.54,3.38,3.38,0,0,0-.36,1.68v2.43a3.88,3.88,0,0,0,.33,1.82,1.15,1.15,0,0,0,1.07.59,1.1,1.1,0,0,0,1.05-.57,3.81,3.81,0,0,0,.34-1.74Z" transform="translate(0 0)"/><path class="cls-8" d="M29.74,52.16h-2V44.52l-2.37.74V43.65l4.14-1.48h.21Z" transform="translate(0 0)"/></g></g><path class="cls-2" d="M17.17,353.7H49.64V310.58H17.17a5.56,5.56,0,0,0-4.53,2.31L1.07,328.84a5.6,5.6,0,0,0,0,6.57l11.57,16A5.6,5.6,0,0,0,17.17,353.7Z" transform="translate(0 0)"/><circle class="cls-3" cx="82.56" cy="332.14" r="45.46"/><circle class="cls-4" cx="82.56" cy="332.14" r="36.63"/><path class="cls-9" d="M82.56,360.61H219.74a17.9,17.9,0,0,0,17.91-17.9V321.58a17.9,17.9,0,0,0-17.91-17.9H82.56a28.47,28.47,0,0,0-28.47,28.47h0A28.47,28.47,0,0,0,82.56,360.61Z" transform="translate(0 0)"/><circle class="cls-3" cx="82.82" cy="331.71" r="22.15"/><g class="cls-6"><g class="cls-6"><path class="cls-7" d="M128.23,333.29h-5.06v3.43h5.94v2.11h-8.58V326h8.56v2.13h-5.92v3.05h5.06Z" transform="translate(0 0)"/><path class="cls-7" d="M130.09,334a5.72,5.72,0,0,1,1-3.54,3.26,3.26,0,0,1,2.74-1.3,2.91,2.91,0,0,1,2.43,1.17l.17-1h2.23v13.16h-2.54V338a3,3,0,0,1-2.31,1,3.22,3.22,0,0,1-2.7-1.32A5.92,5.92,0,0,1,130.09,334Zm2.54.18a3.74,3.74,0,0,0,.48,2.08,1.52,1.52,0,0,0,1.35.71,1.73,1.73,0,0,0,1.66-.93v-3.94a1.72,1.72,0,0,0-1.64-.89,1.53,1.53,0,0,0-1.36.71A4.14,4.14,0,0,0,132.63,334.17Z" transform="translate(0 0)"/><path class="cls-7" d="M146.35,337.87a3.17,3.17,0,0,1-2.6,1.14,3,3,0,0,1-2.33-.88,3.7,3.7,0,0,1-.82-2.57v-6.23h2.54v6.15c0,1,.45,1.48,1.35,1.48a1.86,1.86,0,0,0,1.78-.89v-6.74h2.55v9.5h-2.4Z" transform="translate(0 0)"/><path class="cls-7" d="M150.71,326.86a1.24,1.24,0,0,1,.39-.94,1.63,1.63,0,0,1,2.07,0,1.34,1.34,0,0,1,0,1.89,1.62,1.62,0,0,1-2.06,0A1.21,1.21,0,0,1,150.71,326.86Zm2.7,12h-2.55v-9.5h2.55Z" transform="translate(0 0)"/><path class="cls-7" d="M158.18,338.83h-2.54v-13.5h2.54Z" transform="translate(0 0)"/><path class="cls-7" d="M160.26,326.86a1.27,1.27,0,0,1,.38-.94,1.65,1.65,0,0,1,2.08,0,1.34,1.34,0,0,1,0,1.89,1.44,1.44,0,0,1-1,.37,1.42,1.42,0,0,1-1-.37A1.24,1.24,0,0,1,160.26,326.86Zm2.7,12h-2.55v-9.5H163Z" transform="translate(0 0)"/><path class="cls-7" d="M173.62,334.17a5.75,5.75,0,0,1-1,3.56,3.24,3.24,0,0,1-2.72,1.28,2.94,2.94,0,0,1-2.47-1.19l-.12,1h-2.28v-13.5h2.54v4.85a2.88,2.88,0,0,1,2.31-1,3.27,3.27,0,0,1,2.73,1.28,5.75,5.75,0,0,1,1,3.6Zm-2.54-.19a3.71,3.71,0,0,0-.46-2.1,1.55,1.55,0,0,0-1.36-.67,1.68,1.68,0,0,0-1.67,1V336a1.69,1.69,0,0,0,1.69,1,1.55,1.55,0,0,0,1.61-1.21A6,6,0,0,0,171.08,334Z" transform="translate(0 0)"/><path class="cls-7" d="M180.53,331.71a6.46,6.46,0,0,0-.92-.07,1.86,1.86,0,0,0-1.89,1v6.22h-2.54v-9.5h2.4l.07,1.13a2.36,2.36,0,0,1,2.12-1.31,2.85,2.85,0,0,1,.79.11Z" transform="translate(0 0)"/><path class="cls-7" d="M181.73,326.86a1.27,1.27,0,0,1,.38-.94,1.65,1.65,0,0,1,2.08,0,1.34,1.34,0,0,1,0,1.89,1.63,1.63,0,0,1-2.07,0A1.24,1.24,0,0,1,181.73,326.86Zm2.7,12h-2.55v-9.5h2.55Z" transform="translate(0 0)"/><path class="cls-7" d="M186.12,334a5.69,5.69,0,0,1,.55-2.52,3.94,3.94,0,0,1,1.57-1.71,4.51,4.51,0,0,1,2.38-.61,4.31,4.31,0,0,1,3.14,1.18,4.75,4.75,0,0,1,1.36,3.2v.65a4.94,4.94,0,0,1-1.22,3.51,4.74,4.74,0,0,1-6.56,0,5,5,0,0,1-1.23-3.58Zm2.55.18a3.57,3.57,0,0,0,.5,2.08,1.7,1.7,0,0,0,1.46.71,1.68,1.68,0,0,0,1.45-.71,3.91,3.91,0,0,0,.51-2.26,3.56,3.56,0,0,0-.51-2.06,1.82,1.82,0,0,0-2.91,0A4,4,0,0,0,188.67,334.17Z" transform="translate(0 0)"/></g></g><circle class="cls-8" cx="82.82" cy="331.71" r="17.66"/><g class="cls-6"><g class="cls-6"><path class="cls-8" d="M23.59,334.71a5.09,5.09,0,0,1-.86,3.17A3,3,0,0,1,20.22,339a3,3,0,0,1-2.49-1.07,4.88,4.88,0,0,1-.89-3.09V333a5,5,0,0,1,.87-3.17,3,3,0,0,1,2.5-1.09,3,3,0,0,1,2.49,1.08,4.89,4.89,0,0,1,.89,3.08Zm-2-2a3.74,3.74,0,0,0-.34-1.81,1.15,1.15,0,0,0-1.06-.57,1.12,1.12,0,0,0-1,.54,3.4,3.4,0,0,0-.36,1.69V335a3.88,3.88,0,0,0,.33,1.82,1.13,1.13,0,0,0,1.07.59,1.1,1.1,0,0,0,1.05-.57,3.81,3.81,0,0,0,.34-1.74Z" transform="translate(0 0)"/><path class="cls-8" d="M26.94,333H28a1.48,1.48,0,0,0,1.11-.38,1.36,1.36,0,0,0,.37-1,1.21,1.21,0,0,0-.36-.94,1.37,1.37,0,0,0-1-.34,1.53,1.53,0,0,0-1,.31,1,1,0,0,0-.38.82h-2a2.49,2.49,0,0,1,.42-1.41,2.85,2.85,0,0,1,1.18-1,4,4,0,0,1,1.67-.35,3.77,3.77,0,0,1,2.48.76,2.59,2.59,0,0,1,.9,2.09,2.08,2.08,0,0,1-.42,1.26,2.68,2.68,0,0,1-1.1.89A2.33,2.33,0,0,1,31.62,336a2.66,2.66,0,0,1-1,2.13,3.89,3.89,0,0,1-2.57.8,3.7,3.7,0,0,1-2.45-.79,2.57,2.57,0,0,1-.95-2.08h2a1.16,1.16,0,0,0,.42.92,1.77,1.77,0,0,0,2.14,0,1.29,1.29,0,0,0,.41-1q0-1.5-1.65-1.5h-1Z" transform="translate(0 0)"/></g></g><path class="cls-2" d="M17.17,640.38H49.64V597.25H17.17a5.59,5.59,0,0,0-4.53,2.31l-11.57,16a5.58,5.58,0,0,0,0,6.56l11.57,16A5.64,5.64,0,0,0,17.17,640.38Z" transform="translate(0 0)"/><circle class="cls-3" cx="82.56" cy="618.81" r="45.46"/><circle class="cls-4" cx="82.56" cy="618.81" r="36.63"/><path class="cls-10" d="M83.34,647.28H224.28a18.14,18.14,0,0,0,18.4-17.9V608.25a18.15,18.15,0,0,0-18.4-17.9H83.34c-16.15,0-29.25,12.75-29.25,28.47S67.19,647.28,83.34,647.28Z" transform="translate(0 0)"/><circle class="cls-3" cx="82.82" cy="618.38" r="22.15"/><g class="cls-6"><g class="cls-6"><path class="cls-7" d="M114.27,608.82h-2.1v4.69h-2.64v-12.8h4.76a5.41,5.41,0,0,1,3.5,1,3.51,3.51,0,0,1,1.23,2.86,3.91,3.91,0,0,1-.57,2.18,3.86,3.86,0,0,1-1.72,1.4l2.77,5.23v.12h-2.83Zm-2.1-2.13h2.13a2.14,2.14,0,0,0,1.53-.51,1.77,1.77,0,0,0,.55-1.39,1.93,1.93,0,0,0-.51-1.42,2.13,2.13,0,0,0-1.58-.52h-2.12Z" transform="translate(0 0)"/><path class="cls-7" d="M125.23,613.68a4.67,4.67,0,0,1-3.41-1.28,4.57,4.57,0,0,1-1.31-3.42v-.24a5.77,5.77,0,0,1,.55-2.57,4.15,4.15,0,0,1,1.57-1.74,4.49,4.49,0,0,1,2.32-.61,4,4,0,0,1,3.07,1.23,5,5,0,0,1,1.12,3.49v1h-6a2.34,2.34,0,0,0,.74,1.49,2.21,2.21,0,0,0,1.57.57,2.73,2.73,0,0,0,2.29-1.07l1.25,1.4a3.8,3.8,0,0,1-1.55,1.26A5.09,5.09,0,0,1,125.23,613.68Zm-.29-7.81a1.61,1.61,0,0,0-1.23.51,2.69,2.69,0,0,0-.6,1.47h3.53v-.2a1.91,1.91,0,0,0-.45-1.32A1.68,1.68,0,0,0,124.94,605.87Z" transform="translate(0 0)"/><path class="cls-7" d="M133.26,613.51h-2.55V600h2.55Z" transform="translate(0 0)"/><path class="cls-7" d="M140.87,613.51a2.66,2.66,0,0,1-.26-.85,3.07,3.07,0,0,1-2.4,1,3.35,3.35,0,0,1-2.31-.8,2.58,2.58,0,0,1-.92-2,2.68,2.68,0,0,1,1.12-2.32,5.52,5.52,0,0,1,3.24-.82h1.16v-.55a1.57,1.57,0,0,0-.33-1,1.37,1.37,0,0,0-1.07-.4,1.56,1.56,0,0,0-1,.31,1.07,1.07,0,0,0-.36.85h-2.54a2.51,2.51,0,0,1,.51-1.53,3.4,3.4,0,0,1,1.44-1.11,5.37,5.37,0,0,1,2.09-.4,4.15,4.15,0,0,1,2.79.89,3.07,3.07,0,0,1,1,2.48v4.12a4.7,4.7,0,0,0,.38,2.05v.15Zm-2.11-1.77a2.13,2.13,0,0,0,1-.25,1.57,1.57,0,0,0,.7-.67v-1.64h-.94c-1.28,0-1.95.44-2,1.32v.15a1,1,0,0,0,.33.78A1.27,1.27,0,0,0,138.76,611.74Z" transform="translate(0 0)"/><path class="cls-7" d="M149,611.64a1.64,1.64,0,0,0,1.14-.39,1.33,1.33,0,0,0,.46-1h2.38a3.15,3.15,0,0,1-.53,1.77,3.36,3.36,0,0,1-1.41,1.25,4.44,4.44,0,0,1-2,.44,4.12,4.12,0,0,1-3.21-1.29,5.12,5.12,0,0,1-1.18-3.58v-.17a5.08,5.08,0,0,1,1.17-3.51,4.1,4.1,0,0,1,3.21-1.31,4,4,0,0,1,2.86,1,3.57,3.57,0,0,1,1.09,2.7h-2.38a1.73,1.73,0,0,0-.46-1.21,1.55,1.55,0,0,0-1.16-.46,1.53,1.53,0,0,0-1.34.65,3.76,3.76,0,0,0-.45,2.1v.26a3.76,3.76,0,0,0,.45,2.11A1.55,1.55,0,0,0,149,611.64Z" transform="translate(0 0)"/><path class="cls-7" d="M154.37,601.54a1.23,1.23,0,0,1,.39-.94,1.63,1.63,0,0,1,2.07,0,1.23,1.23,0,0,1,.39.94,1.27,1.27,0,0,1-.39,1,1.62,1.62,0,0,1-2.06,0A1.24,1.24,0,0,1,154.37,601.54Zm2.7,12h-2.55V604h2.55Z" transform="translate(0 0)"/><path class="cls-7" d="M158.77,608.67a5.7,5.7,0,0,1,.54-2.53,4.06,4.06,0,0,1,1.57-1.71,4.66,4.66,0,0,1,2.38-.61A4.35,4.35,0,0,1,166.4,605a4.73,4.73,0,0,1,1.36,3.2l0,.65a5,5,0,0,1-1.22,3.51,4.75,4.75,0,0,1-6.56,0,5.06,5.06,0,0,1-1.23-3.59Zm2.54.18a3.55,3.55,0,0,0,.51,2.07,1.67,1.67,0,0,0,1.46.72,1.7,1.7,0,0,0,1.44-.71,3.94,3.94,0,0,0,.52-2.27,3.58,3.58,0,0,0-.52-2.06,1.68,1.68,0,0,0-1.46-.73,1.65,1.65,0,0,0-1.44.73A3.94,3.94,0,0,0,161.31,608.85Zm2.45-8.84h2.77l-2.44,2.72H162Z" transform="translate(0 0)"/><path class="cls-7" d="M171.68,604l.08,1.1a3.32,3.32,0,0,1,2.73-1.28,2.76,2.76,0,0,1,2.25.89,4.15,4.15,0,0,1,.76,2.66v6.14H175v-6.08a1.7,1.7,0,0,0-.35-1.18,1.61,1.61,0,0,0-1.17-.36,1.74,1.74,0,0,0-1.61.91v6.71h-2.54V604Z" transform="translate(0 0)"/><path class="cls-7" d="M184.6,613.51v-7.65h-1.42V604h1.42v-.81a3.28,3.28,0,0,1,.92-2.48,3.55,3.55,0,0,1,2.57-.89,5.8,5.8,0,0,1,1.29.18l0,2a3.31,3.31,0,0,0-.77-.08c-1,0-1.43.45-1.43,1.34V604H189v1.86h-1.89v7.65Z" transform="translate(0 0)"/><path class="cls-7" d="M190.34,601.54a1.26,1.26,0,0,1,.38-.94,1.65,1.65,0,0,1,2.08,0,1.23,1.23,0,0,1,.39.94,1.27,1.27,0,0,1-.39,1,1.48,1.48,0,0,1-1,.37,1.46,1.46,0,0,1-1-.37A1.27,1.27,0,0,1,190.34,601.54Zm2.7,12h-2.55V604H193Z" transform="translate(0 0)"/><path class="cls-7" d="M194.76,608.68a5.58,5.58,0,0,1,1-3.52,3.39,3.39,0,0,1,2.81-1.34A3,3,0,0,1,201,604.9l.11-.9h2.3v9.19a4.12,4.12,0,0,1-.56,2.17,3.61,3.61,0,0,1-1.6,1.41,5.66,5.66,0,0,1-2.41.48,5.17,5.17,0,0,1-2-.42,3.54,3.54,0,0,1-1.5-1.07l1.12-1.55a3,3,0,0,0,2.31,1.07,2.21,2.21,0,0,0,1.57-.54,2,2,0,0,0,.56-1.54v-.51a2.92,2.92,0,0,1-2.31,1,3.35,3.35,0,0,1-2.77-1.34,5.52,5.52,0,0,1-1.06-3.55Zm2.54.19a3.43,3.43,0,0,0,.52,2,1.64,1.64,0,0,0,1.42.74,1.75,1.75,0,0,0,1.66-.87v-4a1.75,1.75,0,0,0-1.64-.87,1.66,1.66,0,0,0-1.44.75A3.89,3.89,0,0,0,197.3,608.87Z" transform="translate(0 0)"/><path class="cls-7" d="M211.1,612.54a3.2,3.2,0,0,1-2.6,1.14,3,3,0,0,1-2.34-.87,3.8,3.8,0,0,1-.82-2.58V604h2.54v6.15c0,1,.45,1.49,1.36,1.49a1.82,1.82,0,0,0,1.77-.9V604h2.55v9.51h-2.39Z" transform="translate(0 0)"/><path class="cls-7" d="M220.82,606.38a6.43,6.43,0,0,0-.91-.07,1.85,1.85,0,0,0-1.89,1v6.22h-2.54V604h2.4l.07,1.13a2.35,2.35,0,0,1,2.11-1.31,2.52,2.52,0,0,1,.79.12Z" transform="translate(0 0)"/><path class="cls-7" d="M227.29,613.51a2.94,2.94,0,0,1-.26-.85,3.07,3.07,0,0,1-2.4,1,3.35,3.35,0,0,1-2.31-.8,2.61,2.61,0,0,1-.92-2,2.68,2.68,0,0,1,1.12-2.32,5.57,5.57,0,0,1,3.24-.82h1.17v-.55a1.53,1.53,0,0,0-.34-1,1.35,1.35,0,0,0-1.07-.4,1.51,1.51,0,0,0-1,.31,1,1,0,0,0-.37.85h-2.54a2.51,2.51,0,0,1,.51-1.53,3.4,3.4,0,0,1,1.44-1.11,5.37,5.37,0,0,1,2.09-.4,4.12,4.12,0,0,1,2.79.89,3.08,3.08,0,0,1,1,2.48v4.12a4.57,4.57,0,0,0,.37,2.05v.15Zm-2.1-1.77a2.12,2.12,0,0,0,1-.25,1.59,1.59,0,0,0,.71-.67v-1.64h-1c-1.27,0-1.95.44-2,1.32v.15a1,1,0,0,0,.33.78A1.3,1.3,0,0,0,225.19,611.74Z" transform="translate(0 0)"/></g><g class="cls-6"><path class="cls-7" d="M110.06,635.11v-7.65h-1.41V625.6h1.41v-.81a3.28,3.28,0,0,1,.92-2.48,3.55,3.55,0,0,1,2.57-.89,5.8,5.8,0,0,1,1.29.18l0,2a3.31,3.31,0,0,0-.77-.08c-1,0-1.43.45-1.43,1.34v.77h1.89v1.86h-1.89v7.65Z" transform="translate(0 0)"/><path class="cls-7" d="M115.42,630.27a5.57,5.57,0,0,1,.55-2.53,3.94,3.94,0,0,1,1.57-1.71,4.59,4.59,0,0,1,2.37-.61,4.33,4.33,0,0,1,3.14,1.18,4.68,4.68,0,0,1,1.36,3.2l0,.65a5,5,0,0,1-1.22,3.51,4.72,4.72,0,0,1-6.56,0,5.06,5.06,0,0,1-1.23-3.59Zm2.54.18a3.55,3.55,0,0,0,.51,2.07,1.83,1.83,0,0,0,2.9,0,3.86,3.86,0,0,0,.52-2.27,3.51,3.51,0,0,0-.52-2.06,1.67,1.67,0,0,0-1.46-.73,1.65,1.65,0,0,0-1.44.73A3.94,3.94,0,0,0,118,630.45Z" transform="translate(0 0)"/><path class="cls-7" d="M128.33,625.6l.08,1.1a3.32,3.32,0,0,1,2.73-1.28,2.76,2.76,0,0,1,2.25.89,4.1,4.1,0,0,1,.76,2.66v6.14h-2.54V629a1.7,1.7,0,0,0-.35-1.18,1.61,1.61,0,0,0-1.17-.36,1.75,1.75,0,0,0-1.61.91v6.71h-2.54V625.6Z" transform="translate(0 0)"/><path class="cls-7" d="M135.68,630.28a5.7,5.7,0,0,1,1-3.54,3.22,3.22,0,0,1,2.73-1.32,2.91,2.91,0,0,1,2.29,1v-4.85h2.55v13.5H142l-.13-1a3,3,0,0,1-2.44,1.19A3.22,3.22,0,0,1,136.7,634,5.9,5.9,0,0,1,135.68,630.28Zm2.54.19a3.72,3.72,0,0,0,.47,2,1.51,1.51,0,0,0,1.35.72,1.69,1.69,0,0,0,1.66-1v-3.76a1.67,1.67,0,0,0-1.64-1C138.83,627.49,138.22,628.48,138.22,630.47Z" transform="translate(0 0)"/><path class="cls-7" d="M145.82,630.27a5.57,5.57,0,0,1,.55-2.53,3.94,3.94,0,0,1,1.57-1.71,4.59,4.59,0,0,1,2.37-.61,4.38,4.38,0,0,1,3.15,1.18,4.72,4.72,0,0,1,1.35,3.2l0,.65a5,5,0,0,1-1.22,3.51,4.72,4.72,0,0,1-6.56,0,5.06,5.06,0,0,1-1.23-3.59Zm2.54.18a3.55,3.55,0,0,0,.51,2.07,1.83,1.83,0,0,0,2.9,0,3.86,3.86,0,0,0,.52-2.27,3.51,3.51,0,0,0-.52-2.06,1.67,1.67,0,0,0-1.46-.73,1.65,1.65,0,0,0-1.44.73A3.94,3.94,0,0,0,148.36,630.45Z" transform="translate(0 0)"/></g></g><circle class="cls-8" cx="82.82" cy="618.38" r="17.66"/><g class="cls-6"><g class="cls-6"><path class="cls-8" d="M23.59,621.38a5.07,5.07,0,0,1-.86,3.17,3,3,0,0,1-2.51,1.1,3,3,0,0,1-2.49-1.08,4.88,4.88,0,0,1-.89-3.09v-1.83a5,5,0,0,1,.87-3.18,3,3,0,0,1,2.5-1.08,3,3,0,0,1,2.49,1.07,4.91,4.91,0,0,1,.89,3.08Zm-2-2a3.74,3.74,0,0,0-.34-1.81,1.14,1.14,0,0,0-1.06-.56,1.13,1.13,0,0,0-1,.53,3.43,3.43,0,0,0-.36,1.69v2.43a3.91,3.91,0,0,0,.33,1.82,1.15,1.15,0,0,0,1.07.59,1.1,1.1,0,0,0,1.05-.57,3.81,3.81,0,0,0,.34-1.74Z" transform="translate(0 0)"/><path class="cls-8" d="M25.22,620.6l.58-5.07h5.59v1.65h-4l-.25,2.14a3.18,3.18,0,0,1,1.51-.37,2.86,2.86,0,0,1,2.23.88,3.54,3.54,0,0,1,.81,2.48,3.65,3.65,0,0,1-.41,1.73,2.83,2.83,0,0,1-1.17,1.18,3.62,3.62,0,0,1-1.79.43,3.9,3.9,0,0,1-1.68-.37,3,3,0,0,1-1.23-1,2.76,2.76,0,0,1-.47-1.52h2a1.44,1.44,0,0,0,.43,1,1.4,1.4,0,0,0,1,.35,1.19,1.19,0,0,0,1-.49,2.16,2.16,0,0,0,.37-1.36,1.87,1.87,0,0,0-.42-1.31,1.54,1.54,0,0,0-1.19-.45,1.68,1.68,0,0,0-1.14.37l-.19.18Z" transform="translate(0 0)"/></g></g><path class="cls-2" d="M17.17,927.05H49.64V883.92H17.17a5.59,5.59,0,0,0-4.53,2.31l-11.57,16a5.6,5.6,0,0,0,0,6.57l11.57,16A5.6,5.6,0,0,0,17.17,927.05Z" transform="translate(0 0)"/><circle class="cls-3" cx="82.56" cy="905.48" r="45.46"/><circle class="cls-4" cx="82.56" cy="905.48" r="36.63"/><path class="cls-11" d="M82.56,934H219.74a17.91,17.91,0,0,0,17.91-17.9V894.92A17.91,17.91,0,0,0,219.74,877H82.56a28.47,28.47,0,0,0-28.47,28.47h0A28.47,28.47,0,0,0,82.56,934Z" transform="translate(0 0)"/><circle class="cls-3" cx="82.82" cy="905.06" r="22.15"/><g class="cls-6"><g class="cls-6"><path class="cls-7" d="M125.27,907.5h-2.1v4.68h-2.64V899.39h4.76a5.37,5.37,0,0,1,3.5,1,3.47,3.47,0,0,1,1.23,2.85,3.57,3.57,0,0,1-2.29,3.58l2.77,5.23v.12h-2.83Zm-2.1-2.14h2.13a2.18,2.18,0,0,0,1.53-.5,1.79,1.79,0,0,0,.55-1.4,2,2,0,0,0-.51-1.42,2.13,2.13,0,0,0-1.58-.52h-2.12Z" transform="translate(0 0)"/><path class="cls-7" d="M136.23,912.36a4.7,4.7,0,0,1-3.41-1.28,4.6,4.6,0,0,1-1.31-3.42v-.25a5.73,5.73,0,0,1,.55-2.56,4.15,4.15,0,0,1,1.57-1.74,4.39,4.39,0,0,1,2.32-.61,4,4,0,0,1,3.07,1.23,5,5,0,0,1,1.12,3.49v1h-6.06a2.43,2.43,0,0,0,.75,1.5,2.25,2.25,0,0,0,1.57.56,2.73,2.73,0,0,0,2.29-1.06l1.25,1.39a3.9,3.9,0,0,1-1.55,1.27A5.09,5.09,0,0,1,136.23,912.36Zm-.29-7.82a1.62,1.62,0,0,0-1.23.52,2.69,2.69,0,0,0-.6,1.46h3.53v-.2a1.88,1.88,0,0,0-.45-1.31A1.65,1.65,0,0,0,135.94,904.54Z" transform="translate(0 0)"/><path class="cls-7" d="M150.14,907.52a5.76,5.76,0,0,1-1,3.52,3.22,3.22,0,0,1-2.7,1.32,3,3,0,0,1-2.33-1v4.48h-2.54V902.67h2.36l.09.93a3,3,0,0,1,2.4-1.1,3.21,3.21,0,0,1,2.74,1.3,5.85,5.85,0,0,1,1,3.58Zm-2.54-.19a3.7,3.7,0,0,0-.47-2.05,1.53,1.53,0,0,0-1.36-.72,1.67,1.67,0,0,0-1.65.92v3.89a1.69,1.69,0,0,0,1.66.94C147,910.31,147.6,909.32,147.6,907.33Z" transform="translate(0 0)"/><path class="cls-7" d="M156.09,912.36a4.67,4.67,0,0,1-3.4-1.28,4.57,4.57,0,0,1-1.32-3.42v-.25a5.73,5.73,0,0,1,.56-2.56,4.08,4.08,0,0,1,1.57-1.74,4.33,4.33,0,0,1,2.31-.61,3.93,3.93,0,0,1,3.07,1.23,5,5,0,0,1,1.12,3.49v1H154a2.37,2.37,0,0,0,.74,1.5,2.27,2.27,0,0,0,1.57.56,2.73,2.73,0,0,0,2.29-1.06l1.25,1.39a3.83,3.83,0,0,1-1.55,1.27A5.09,5.09,0,0,1,156.09,912.36Zm-.29-7.82a1.59,1.59,0,0,0-1.22.52,2.62,2.62,0,0,0-.61,1.46h3.54v-.2a1.89,1.89,0,0,0-.46-1.31A1.64,1.64,0,0,0,155.8,904.54Z" transform="translate(0 0)"/><path class="cls-7" d="M164.49,900.33v2.34h1.62v1.87h-1.62v4.74a1.12,1.12,0,0,0,.2.76,1,1,0,0,0,.77.23,4.22,4.22,0,0,0,.75-.06v1.92a5.32,5.32,0,0,1-1.54.23,2.42,2.42,0,0,1-2.72-2.7v-5.12h-1.39v-1.87H162v-2.34Z" transform="translate(0 0)"/><path class="cls-7" d="M167.51,900.21a1.27,1.27,0,0,1,.38-.94,1.65,1.65,0,0,1,2.08,0,1.34,1.34,0,0,1,0,1.89,1.63,1.63,0,0,1-2.07,0A1.24,1.24,0,0,1,167.51,900.21Zm2.7,12h-2.55v-9.51h2.55Z" transform="translate(0 0)"/><path class="cls-7" d="M176.25,910.31a1.69,1.69,0,0,0,1.15-.39,1.34,1.34,0,0,0,.45-1h2.39a3.36,3.36,0,0,1-.53,1.77,3.59,3.59,0,0,1-1.42,1.25,4.5,4.5,0,0,1-2,.44,4.12,4.12,0,0,1-3.22-1.3,5.15,5.15,0,0,1-1.18-3.58v-.17a5.05,5.05,0,0,1,1.17-3.5,4.06,4.06,0,0,1,3.21-1.31,4,4,0,0,1,2.86,1,3.63,3.63,0,0,1,1.1,2.7h-2.39a1.74,1.74,0,0,0-.45-1.2,1.69,1.69,0,0,0-2.5.18,3.75,3.75,0,0,0-.46,2.1v.27a3.78,3.78,0,0,0,.45,2.11A1.55,1.55,0,0,0,176.25,910.31Z" transform="translate(0 0)"/><path class="cls-7" d="M181.67,900.21a1.27,1.27,0,0,1,.38-.94,1.65,1.65,0,0,1,2.08,0,1.34,1.34,0,0,1,0,1.89,1.63,1.63,0,0,1-2.07,0A1.24,1.24,0,0,1,181.67,900.21Zm2.7,12h-2.55v-9.51h2.55Z" transform="translate(0 0)"/><path class="cls-7" d="M186.06,907.34a5.69,5.69,0,0,1,.55-2.52,4,4,0,0,1,1.57-1.72,4.59,4.59,0,0,1,2.37-.6,4.35,4.35,0,0,1,3.15,1.17,4.74,4.74,0,0,1,1.35,3.2l0,.65a5,5,0,0,1-1.22,3.52,4.74,4.74,0,0,1-6.56,0,5,5,0,0,1-1.23-3.59Zm2.54.18a3.53,3.53,0,0,0,.51,2.07,1.83,1.83,0,0,0,2.9,0,3.86,3.86,0,0,0,.52-2.27,3.45,3.45,0,0,0-.52-2.05,1.8,1.8,0,0,0-2.9,0A3.94,3.94,0,0,0,188.6,907.52Zm2.46-8.84h2.76l-2.43,2.73h-2.07Z" transform="translate(0 0)"/><path class="cls-7" d="M199,902.67l.08,1.1a3.32,3.32,0,0,1,2.74-1.27,2.78,2.78,0,0,1,2.25.88,4.17,4.17,0,0,1,.75,2.66v6.14h-2.54V906.1a1.61,1.61,0,0,0-.35-1.17,1.53,1.53,0,0,0-1.17-.37,1.76,1.76,0,0,0-1.61.92v6.7h-2.54v-9.51Z" transform="translate(0 0)"/></g></g><circle class="cls-8" cx="82.82" cy="905.05" r="17.66"/><g class="cls-6"><g class="cls-6"><path class="cls-8" d="M23.59,908.05a5.05,5.05,0,0,1-.86,3.17,3,3,0,0,1-2.51,1.1,3,3,0,0,1-2.49-1.08,4.83,4.83,0,0,1-.89-3.08v-1.84a5,5,0,0,1,.87-3.17,3,3,0,0,1,2.5-1.09,3,3,0,0,1,2.49,1.07,4.94,4.94,0,0,1,.89,3.09Zm-2-2a3.69,3.69,0,0,0-.34-1.8,1.15,1.15,0,0,0-1.06-.57,1.12,1.12,0,0,0-1,.54,3.38,3.38,0,0,0-.36,1.68v2.43a3.88,3.88,0,0,0,.33,1.82,1.15,1.15,0,0,0,1.07.59,1.1,1.1,0,0,0,1.05-.57,3.81,3.81,0,0,0,.34-1.74Z" transform="translate(0 0)"/><path class="cls-8" d="M31.71,903.3l-3.86,8.88H25.76l3.87-8.38h-5v-1.6h7.05Z" transform="translate(0 0)"/></g></g><path class="cls-2" d="M229.68,208.6H197.2V165.47h32.48a5.6,5.6,0,0,1,4.53,2.31l11.57,16a5.6,5.6,0,0,1,0,6.57l-11.57,16A5.58,5.58,0,0,1,229.68,208.6Z" transform="translate(0 0)"/><circle class="cls-3" cx="164.29" cy="187.04" r="45.46"/><circle class="cls-4" cx="164.28" cy="187.04" r="36.63"/><path class="cls-12" d="M164.29,215.51H27.11A17.91,17.91,0,0,1,9.2,197.6h0V176.47a17.89,17.89,0,0,1,17.9-17.9H164.29a28.47,28.47,0,0,1,0,56.94Z" transform="translate(0 0)"/><circle class="cls-3" cx="164.03" cy="186.61" r="22.15"/><g class="cls-6"><g class="cls-6"><path class="cls-7" d="M29.52,194.33v-12.8h3.94a6,6,0,0,1,3,.76,5.31,5.31,0,0,1,2.08,2.17,6.61,6.61,0,0,1,.75,3.18v.59a6.65,6.65,0,0,1-.74,3.17,5.26,5.26,0,0,1-2.07,2.16,6,6,0,0,1-3,.77Zm2.64-10.66v8.54h1.27a2.85,2.85,0,0,0,2.37-1,4.58,4.58,0,0,0,.83-2.89v-.68a4.67,4.67,0,0,0-.8-2.95,2.84,2.84,0,0,0-2.37-1Z" transform="translate(0 0)"/><path class="cls-7" d="M41,182.36a1.24,1.24,0,0,1,.38-.94,1.41,1.41,0,0,1,1-.37,1.44,1.44,0,0,1,1,.37,1.24,1.24,0,0,1,.38.94,1.25,1.25,0,0,1-.39.95,1.62,1.62,0,0,1-2.06,0A1.25,1.25,0,0,1,41,182.36Zm2.7,12H41.19v-9.51h2.55Z" transform="translate(0 0)"/><path class="cls-7" d="M48.17,184.82l.07,1.1A3.33,3.33,0,0,1,51,184.64a2.76,2.76,0,0,1,2.25.89,4.15,4.15,0,0,1,.75,2.66v6.14H51.44v-6.08a1.65,1.65,0,0,0-.35-1.18,1.58,1.58,0,0,0-1.17-.36,1.75,1.75,0,0,0-1.61.91v6.71H45.77v-9.51Z" transform="translate(0 0)"/><path class="cls-7" d="M61.42,194.33a2.94,2.94,0,0,1-.26-.85,3.08,3.08,0,0,1-2.4,1,3.36,3.36,0,0,1-2.31-.81,2.61,2.61,0,0,1-.92-2,2.68,2.68,0,0,1,1.12-2.32,5.57,5.57,0,0,1,3.24-.82h1.17V188a1.55,1.55,0,0,0-.34-1.06,1.35,1.35,0,0,0-1.07-.39,1.51,1.51,0,0,0-1,.3,1,1,0,0,0-.37.85H55.74a2.56,2.56,0,0,1,.51-1.53A3.4,3.4,0,0,1,57.69,185a5.37,5.37,0,0,1,2.09-.4,4.12,4.12,0,0,1,2.79.89,3.08,3.08,0,0,1,1,2.48v4.12a4.39,4.39,0,0,0,.38,2.05v.15Zm-2.1-1.77a2.19,2.19,0,0,0,1-.25,1.62,1.62,0,0,0,.7-.67V190h-1c-1.27,0-2,.44-2,1.31v.15a1,1,0,0,0,.33.79A1.34,1.34,0,0,0,59.32,192.56Z" transform="translate(0 0)"/><path class="cls-7" d="M67.94,184.82l.08,1.06a3.35,3.35,0,0,1,2.73-1.24,2.55,2.55,0,0,1,2.53,1.45,3.27,3.27,0,0,1,2.85-1.45,2.86,2.86,0,0,1,2.3.9,4.14,4.14,0,0,1,.76,2.72v6.07H76.64v-6.06a1.84,1.84,0,0,0-.31-1.19,1.42,1.42,0,0,0-1.12-.37,1.58,1.58,0,0,0-1.58,1.09v6.53H71.1v-6.06a1.76,1.76,0,0,0-.33-1.19,1.41,1.41,0,0,0-1.11-.37,1.64,1.64,0,0,0-1.56.9v6.72H65.56v-9.51Z" transform="translate(0 0)"/><path class="cls-7" d="M81.12,182.36a1.24,1.24,0,0,1,.39-.94,1.63,1.63,0,0,1,2.07,0,1.34,1.34,0,0,1,0,1.89,1.62,1.62,0,0,1-2.06,0A1.22,1.22,0,0,1,81.12,182.36Zm2.7,12H81.27v-9.51h2.55Z" transform="translate(0 0)"/><path class="cls-7" d="M91.06,191.7a.81.81,0,0,0-.46-.73,5.08,5.08,0,0,0-1.48-.48q-3.39-.72-3.39-2.88a2.62,2.62,0,0,1,1-2.12,4.28,4.28,0,0,1,2.75-.85,4.54,4.54,0,0,1,2.89.86,2.66,2.66,0,0,1,1.09,2.21H91a1.25,1.25,0,0,0-.35-.9,1.48,1.48,0,0,0-1.1-.35,1.51,1.51,0,0,0-1,.29.9.9,0,0,0-.35.73.79.79,0,0,0,.4.68,3.87,3.87,0,0,0,1.35.45,11.25,11.25,0,0,1,1.6.43,2.62,2.62,0,0,1,2,2.56,2.48,2.48,0,0,1-1.11,2.1,4.81,4.81,0,0,1-2.88.81,5.13,5.13,0,0,1-2.13-.43A3.46,3.46,0,0,1,86,192.91a2.72,2.72,0,0,1-.53-1.6h2.41a1.3,1.3,0,0,0,.5,1,2,2,0,0,0,1.25.36,1.88,1.88,0,0,0,1.1-.27A.87.87,0,0,0,91.06,191.7Z" transform="translate(0 0)"/><path class="cls-7" d="M97.55,184.82l.08,1.06a3.35,3.35,0,0,1,2.73-1.24,2.55,2.55,0,0,1,2.53,1.45,3.27,3.27,0,0,1,2.85-1.45,2.86,2.86,0,0,1,2.3.9,4.14,4.14,0,0,1,.76,2.72v6.07h-2.55v-6.06a1.84,1.84,0,0,0-.31-1.19,1.42,1.42,0,0,0-1.12-.37,1.58,1.58,0,0,0-1.58,1.09v6.53h-2.54v-6.06a1.76,1.76,0,0,0-.33-1.19,1.41,1.41,0,0,0-1.11-.37,1.64,1.64,0,0,0-1.56.9v6.72H95.17v-9.51Z" transform="translate(0 0)"/><path class="cls-7" d="M110.36,189.49a5.7,5.7,0,0,1,.54-2.53,4.06,4.06,0,0,1,1.57-1.71,4.63,4.63,0,0,1,2.38-.61,4.35,4.35,0,0,1,3.14,1.18,4.77,4.77,0,0,1,1.36,3.2l0,.65a4.94,4.94,0,0,1-1.23,3.51,4.2,4.2,0,0,1-3.27,1.33,4.27,4.27,0,0,1-3.29-1.32,5.1,5.1,0,0,1-1.22-3.59Zm2.54.18a3.55,3.55,0,0,0,.51,2.07,1.67,1.67,0,0,0,1.46.72,1.7,1.7,0,0,0,1.44-.71,3.94,3.94,0,0,0,.52-2.27,3.58,3.58,0,0,0-.52-2.06,1.72,1.72,0,0,0-1.46-.73,1.65,1.65,0,0,0-1.44.73A3.94,3.94,0,0,0,112.9,189.67Z" transform="translate(0 0)"/></g></g><circle class="cls-8" cx="164.03" cy="186.61" r="17.66"/><g class="cls-6"><g class="cls-6"><path class="cls-8" d="M223.65,190.2a5,5,0,0,1-.86,3.17,3,3,0,0,1-2.5,1.1,3,3,0,0,1-2.5-1.08,4.94,4.94,0,0,1-.89-3.09v-1.83a5,5,0,0,1,.87-3.18,3.44,3.44,0,0,1,5,0,4.93,4.93,0,0,1,.88,3.08Zm-2-2a3.62,3.62,0,0,0-.34-1.81,1.16,1.16,0,0,0-1.06-.56,1.12,1.12,0,0,0-1,.54,3.4,3.4,0,0,0-.35,1.68v2.43a3.91,3.91,0,0,0,.33,1.82,1.13,1.13,0,0,0,1.07.59,1.1,1.1,0,0,0,1-.57,3.68,3.68,0,0,0,.34-1.74Z" transform="translate(0 0)"/><path class="cls-8" d="M231.83,194.33H225V193l3.23-3.44a7.81,7.81,0,0,0,1-1.27,2.05,2.05,0,0,0,.32-1,1.53,1.53,0,0,0-.33-1,1.22,1.22,0,0,0-1-.38,1.28,1.28,0,0,0-1.05.46,1.82,1.82,0,0,0-.39,1.22h-2a3.27,3.27,0,0,1,.43-1.67,3.13,3.13,0,0,1,1.24-1.18,3.69,3.69,0,0,1,1.8-.43,3.57,3.57,0,0,1,2.4.74,2.64,2.64,0,0,1,.85,2.09,3.3,3.3,0,0,1-.39,1.51,8.19,8.19,0,0,1-1.31,1.79l-2.27,2.39h4.29Z" transform="translate(0 0)"/></g></g><path class="cls-2" d="M229.68,495.27H197.2V452.15h32.48a5.6,5.6,0,0,1,4.53,2.31l11.57,16a5.6,5.6,0,0,1,0,6.57l-11.57,16A5.6,5.6,0,0,1,229.68,495.27Z" transform="translate(0 0)"/><circle class="cls-3" cx="164.29" cy="473.71" r="45.46"/><circle class="cls-4" cx="164.28" cy="473.71" r="36.63"/><path class="cls-13" d="M164.29,502.18H27.11A17.91,17.91,0,0,1,9.2,484.28h0V463.14a17.9,17.9,0,0,1,17.9-17.9H164.29a28.47,28.47,0,1,1,0,56.94Z" transform="translate(0 0)"/><circle class="cls-3" cx="164.03" cy="473.28" r="22.15"/><g class="cls-6"><g class="cls-6"><path class="cls-7" d="M33,466.14l3.29,9.28,3.27-9.28H43v12.8H40.34v-3.5l.27-6-3.46,9.54H35.34l-3.44-9.53.26,6v3.5H29.52v-12.8Z" transform="translate(0 0)"/><path class="cls-7" d="M44.73,474.09a5.69,5.69,0,0,1,.54-2.52,4,4,0,0,1,1.57-1.71,4.53,4.53,0,0,1,2.38-.61,4.31,4.31,0,0,1,3.14,1.18,4.7,4.7,0,0,1,1.36,3.2l0,.65a5,5,0,0,1-1.22,3.51,4.75,4.75,0,0,1-6.57,0,5.06,5.06,0,0,1-1.22-3.58Zm2.54.18a3.57,3.57,0,0,0,.51,2.08,1.67,1.67,0,0,0,1.46.71,1.69,1.69,0,0,0,1.44-.7,4,4,0,0,0,.52-2.27,3.56,3.56,0,0,0-.52-2.06,1.68,1.68,0,0,0-1.46-.73,1.65,1.65,0,0,0-1.44.73A3.92,3.92,0,0,0,47.27,474.27Z" transform="translate(0 0)"/><path class="cls-7" d="M58.73,475.83l1.77-6.4h2.65l-3.21,9.51H57.52l-3.21-9.51H57Z" transform="translate(0 0)"/><path class="cls-7" d="M64.25,467a1.26,1.26,0,0,1,.38-.94,1.65,1.65,0,0,1,2.08,0,1.23,1.23,0,0,1,.39.94,1.27,1.27,0,0,1-.39.95,1.5,1.5,0,0,1-1,.36,1.47,1.47,0,0,1-1-.36A1.27,1.27,0,0,1,64.25,467Zm2.7,12H64.4v-9.51H67Z" transform="translate(0 0)"/><path class="cls-7" d="M71.42,469.43l.08,1.06a3.32,3.32,0,0,1,2.73-1.24,2.54,2.54,0,0,1,2.53,1.45,3.24,3.24,0,0,1,2.85-1.45,2.86,2.86,0,0,1,2.31.9,4.17,4.17,0,0,1,.75,2.71v6.08H80.12v-6.07a1.81,1.81,0,0,0-.31-1.18,1.42,1.42,0,0,0-1.12-.37,1.58,1.58,0,0,0-1.58,1.09v6.53H74.58v-6.06a1.75,1.75,0,0,0-.33-1.19,1.4,1.4,0,0,0-1.11-.37,1.65,1.65,0,0,0-1.56.89v6.73H69v-9.51Z" transform="translate(0 0)"/><path class="cls-7" d="M84.6,467A1.23,1.23,0,0,1,85,466a1.41,1.41,0,0,1,1-.37,1.44,1.44,0,0,1,1,.37,1.35,1.35,0,0,1,0,1.89,1.65,1.65,0,0,1-2.06,0A1.24,1.24,0,0,1,84.6,467Zm2.7,12H84.75v-9.51H87.3Z" transform="translate(0 0)"/><path class="cls-7" d="M93.77,479.11a4.63,4.63,0,0,1-3.4-1.28,4.57,4.57,0,0,1-1.32-3.42v-.25a5.76,5.76,0,0,1,.56-2.56,4.06,4.06,0,0,1,1.56-1.74,4.49,4.49,0,0,1,2.32-.61,4,4,0,0,1,3.07,1.23A5,5,0,0,1,97.68,474v1H91.63a2.34,2.34,0,0,0,.74,1.49,2.22,2.22,0,0,0,1.57.56A2.73,2.73,0,0,0,96.23,476l1.25,1.4a3.8,3.8,0,0,1-1.55,1.26A5.09,5.09,0,0,1,93.77,479.11Zm-.29-7.81a1.58,1.58,0,0,0-1.22.51,2.62,2.62,0,0,0-.61,1.47h3.54v-.21a2,2,0,0,0-.46-1.31A1.63,1.63,0,0,0,93.48,471.3Z" transform="translate(0 0)"/><path class="cls-7" d="M101.46,469.43l.08,1.1a3.32,3.32,0,0,1,2.73-1.28,2.76,2.76,0,0,1,2.25.89,4.08,4.08,0,0,1,.76,2.65v6.15h-2.54v-6.09a1.69,1.69,0,0,0-.35-1.17,1.61,1.61,0,0,0-1.17-.36,1.74,1.74,0,0,0-1.61.91v6.71H99.07v-9.51Z" transform="translate(0 0)"/><path class="cls-7" d="M112.25,467.09v2.34h1.62v1.86h-1.62V476a1.09,1.09,0,0,0,.2.75,1,1,0,0,0,.77.23A4.22,4.22,0,0,0,114,477v1.92a5,5,0,0,1-1.54.23,2.42,2.42,0,0,1-2.72-2.7v-5.12h-1.39v-1.86h1.39v-2.34Z" transform="translate(0 0)"/><path class="cls-7" d="M114.63,474.09a5.69,5.69,0,0,1,.54-2.52,4,4,0,0,1,1.57-1.71,4.53,4.53,0,0,1,2.38-.61,4.31,4.31,0,0,1,3.14,1.18,4.7,4.7,0,0,1,1.36,3.2l0,.65a5,5,0,0,1-1.22,3.51,4.75,4.75,0,0,1-6.57,0,5.06,5.06,0,0,1-1.22-3.58Zm2.54.18a3.57,3.57,0,0,0,.51,2.08,1.67,1.67,0,0,0,1.46.71,1.69,1.69,0,0,0,1.44-.7,4,4,0,0,0,.52-2.27,3.56,3.56,0,0,0-.52-2.06,1.68,1.68,0,0,0-1.46-.73,1.65,1.65,0,0,0-1.44.73A3.92,3.92,0,0,0,117.17,474.27Z" transform="translate(0 0)"/></g></g><circle class="cls-8" cx="164.03" cy="473.28" r="17.66"/><g class="cls-6"><g class="cls-6"><path class="cls-8" d="M223.65,476.88a5,5,0,0,1-.86,3.16,3,3,0,0,1-2.5,1.1,3,3,0,0,1-2.5-1.08,4.89,4.89,0,0,1-.89-3.08v-1.84a5,5,0,0,1,.87-3.17,3.42,3.42,0,0,1,5,0,4.89,4.89,0,0,1,.88,3.08Zm-2-2a3.58,3.58,0,0,0-.34-1.8,1.15,1.15,0,0,0-1.06-.57,1.12,1.12,0,0,0-1,.54,3.4,3.4,0,0,0-.35,1.68v2.43a3.88,3.88,0,0,0,.33,1.82,1.13,1.13,0,0,0,1.07.59,1.1,1.1,0,0,0,1-.57,3.68,3.68,0,0,0,.34-1.74Z" transform="translate(0 0)"/><path class="cls-8" d="M230.85,477.25H232v1.59h-1.13V481h-2v-2.16h-4.09l-.09-1.25,4.16-6.57h2Zm-4.19,0h2.21v-3.53l-.13.23Z" transform="translate(0 0)"/></g></g><path class="cls-2" d="M229.68,782H197.2V738.82h32.48a5.6,5.6,0,0,1,4.53,2.31l11.57,16a5.6,5.6,0,0,1,0,6.57l-11.57,16A5.58,5.58,0,0,1,229.68,782Z" transform="translate(0 0)"/><circle class="cls-3" cx="164.29" cy="760.38" r="45.46"/><circle class="cls-4" cx="164.28" cy="760.38" r="36.63"/><path class="cls-14" d="M164.29,788.85H27.11A17.9,17.9,0,0,1,9.2,771h0V749.82a17.89,17.89,0,0,1,17.9-17.9H164.29a28.47,28.47,0,1,1,0,56.93Z" transform="translate(0 0)"/><circle class="cls-3" cx="164.03" cy="759.95" r="22.15"/><g class="cls-6"><g class="cls-6"><path class="cls-7" d="M39.16,756H35.24v10.66H32.6V756H28.73v-2.14H39.16Z" transform="translate(0 0)"/><path class="cls-7" d="M44.87,766.79a4.66,4.66,0,0,1-3.41-1.29,4.57,4.57,0,0,1-1.31-3.42v-.24a5.7,5.7,0,0,1,.55-2.56,4,4,0,0,1,1.57-1.74,4.39,4.39,0,0,1,2.32-.61,4,4,0,0,1,3.07,1.23,5,5,0,0,1,1.12,3.49v1H42.72a2.4,2.4,0,0,0,.75,1.5,2.25,2.25,0,0,0,1.57.56,2.77,2.77,0,0,0,2.29-1.06l1.25,1.39A3.8,3.8,0,0,1,47,766.33,5,5,0,0,1,44.87,766.79ZM44.58,759a1.59,1.59,0,0,0-1.23.52,2.69,2.69,0,0,0-.6,1.46h3.53v-.2a1.88,1.88,0,0,0-.45-1.31A1.65,1.65,0,0,0,44.58,759Z" transform="translate(0 0)"/><path class="cls-7" d="M52.56,757.1l.08,1.1a3.31,3.31,0,0,1,2.73-1.27,2.76,2.76,0,0,1,2.25.88,4.17,4.17,0,0,1,.76,2.66v6.14H55.84v-6.08a1.65,1.65,0,0,0-.35-1.17,1.56,1.56,0,0,0-1.17-.37,1.75,1.75,0,0,0-1.61.92v6.7H50.17V757.1Z" transform="translate(0 0)"/><path class="cls-7" d="M65.45,764a.81.81,0,0,0-.46-.73,5.19,5.19,0,0,0-1.48-.48c-2.26-.47-3.39-1.44-3.39-2.88a2.62,2.62,0,0,1,1.05-2.12,4.26,4.26,0,0,1,2.75-.84,4.54,4.54,0,0,1,2.89.85A2.69,2.69,0,0,1,67.9,760H65.36a1.22,1.22,0,0,0-.36-.9,1.87,1.87,0,0,0-2.09-.06.92.92,0,0,0-.35.73.79.79,0,0,0,.4.69,4.13,4.13,0,0,0,1.35.44,11.25,11.25,0,0,1,1.6.43,2.63,2.63,0,0,1,2,2.56,2.47,2.47,0,0,1-1.11,2.1,4.82,4.82,0,0,1-2.89.81,5.11,5.11,0,0,1-2.12-.43,3.46,3.46,0,0,1-1.45-1.17,2.72,2.72,0,0,1-.53-1.6h2.41a1.3,1.3,0,0,0,.5,1A1.94,1.94,0,0,0,64,765a1.88,1.88,0,0,0,1.1-.28A.87.87,0,0,0,65.45,764Z" transform="translate(0 0)"/><path class="cls-7" d="M69.54,754.64a1.27,1.27,0,0,1,.38-.94,1.65,1.65,0,0,1,2.08,0,1.34,1.34,0,0,1,0,1.89,1.63,1.63,0,0,1-2.07,0A1.25,1.25,0,0,1,69.54,754.64Zm2.7,12H69.69V757.1h2.55Z" transform="translate(0 0)"/><path class="cls-7" d="M73.93,761.77a5.66,5.66,0,0,1,.55-2.52,4,4,0,0,1,1.57-1.72,4.6,4.6,0,0,1,2.38-.6,4.34,4.34,0,0,1,3.14,1.17,4.79,4.79,0,0,1,1.36,3.2V762a4.94,4.94,0,0,1-1.22,3.51,4.72,4.72,0,0,1-6.56,0,5.06,5.06,0,0,1-1.23-3.59Zm2.54.18A3.55,3.55,0,0,0,77,764a1.83,1.83,0,0,0,2.9,0,3.86,3.86,0,0,0,.52-2.27,3.51,3.51,0,0,0-.52-2.06,1.81,1.81,0,0,0-2.9,0A3.94,3.94,0,0,0,76.47,762Zm2.46-8.84H81.7l-2.44,2.73H77.2Z" transform="translate(0 0)"/><path class="cls-7" d="M86.85,757.1l.07,1.1a3.33,3.33,0,0,1,2.74-1.27,2.76,2.76,0,0,1,2.25.88,4.17,4.17,0,0,1,.75,2.66v6.14H90.12v-6.08a1.61,1.61,0,0,0-.35-1.17A1.53,1.53,0,0,0,88.6,759a1.74,1.74,0,0,0-1.6.92v6.7H84.46V757.1Z" transform="translate(0 0)"/></g></g><circle class="cls-8" cx="164.03" cy="759.95" r="17.66"/><g class="cls-6"><g class="cls-6"><path class="cls-8" d="M223.65,763.55a5,5,0,0,1-.86,3.17,3,3,0,0,1-2.5,1.09,3,3,0,0,1-2.5-1.07,4.94,4.94,0,0,1-.89-3.09v-1.84a5,5,0,0,1,.87-3.17,3.44,3.44,0,0,1,5,0,4.89,4.89,0,0,1,.88,3.08Zm-2-2a3.62,3.62,0,0,0-.34-1.81,1.15,1.15,0,0,0-1.06-.57,1.12,1.12,0,0,0-1,.54,3.41,3.41,0,0,0-.35,1.69v2.43a3.83,3.83,0,0,0,.33,1.81,1.12,1.12,0,0,0,1.07.6,1.1,1.1,0,0,0,1-.57,3.69,3.69,0,0,0,.34-1.75Z" transform="translate(0 0)"/><path class="cls-8" d="M230.36,757.59v1.63h-.19a3.41,3.41,0,0,0-2.16.7,2.78,2.78,0,0,0-1,1.89,2.66,2.66,0,0,1,2-.81,2.57,2.57,0,0,1,2.08.93,4.16,4.16,0,0,1,.34,4.22,3.13,3.13,0,0,1-1.19,1.23,3.52,3.52,0,0,1-1.75.43,3.25,3.25,0,0,1-2.55-1.09,4.29,4.29,0,0,1-1-2.93v-.71a6.38,6.38,0,0,1,.61-2.87,4.51,4.51,0,0,1,1.76-1.93,5.11,5.11,0,0,1,2.67-.69Zm-1.93,5a1.55,1.55,0,0,0-.87.25,1.49,1.49,0,0,0-.58.66v.6a2.6,2.6,0,0,0,.4,1.55,1.25,1.25,0,0,0,1.09.56,1.23,1.23,0,0,0,1-.51,2.33,2.33,0,0,0,0-2.61A1.28,1.28,0,0,0,228.43,762.6Z" transform="translate(0 0)"/></g></g></svg>