<svg id="Capa_1" data-name="Capa 1" xmlns="http://www.w3.org/2000/svg" viewBox="0 0 396 415"><defs><style>.cls-1{fill:#f6f6f6;}.cls-2{fill:#bb83ff;opacity:0.5;}.cls-2,.cls-3{isolation:isolate;}.cls-4{fill:#12263f;}</style></defs><rect class="cls-1" width="396" height="415"/><rect class="cls-2" x="28" y="82" width="170" height="103"/><rect class="cls-2" x="28" y="193" width="170" height="103"/><rect class="cls-2" x="205" y="82" width="171" height="103"/><rect class="cls-2" x="205" y="193" width="171" height="103"/><g class="cls-3"><g class="cls-3"><path class="cls-4" d="M76.76,141.87a5.48,5.48,0,0,1-2.64,1.72,12,12,0,0,1-4.15.68,7.21,7.21,0,0,1-6.67-4.13,10,10,0,0,1-1-4.45v-3.42a9.89,9.89,0,0,1,.94-4.39,7,7,0,0,1,6.49-4.06,7.45,7.45,0,0,1,4.84,1.52,6,6,0,0,1,2.16,4.14H76a5.51,5.51,0,0,0-2-3.65,6.69,6.69,0,0,0-4.28-1.27,6.06,6.06,0,0,0-4.85,2.15A8.34,8.34,0,0,0,63,132.35v3.17a9.6,9.6,0,0,0,.86,4.17A6.49,6.49,0,0,0,70,143.54a11.34,11.34,0,0,0,3.7-.59A5,5,0,0,0,76,141.52v-5.81H69.94V135h6.82Z"/><path class="cls-4" d="M88.1,129.75l-1-.08A4.4,4.4,0,0,0,84,130.89a6.15,6.15,0,0,0-1.67,3.43V144h-.74V129.21h.74v3.07a5.36,5.36,0,0,1,1.81-2.44,4.84,4.84,0,0,1,3-.91,2.77,2.77,0,0,1,1,.16Z"/><path class="cls-4" d="M100,144a10.4,10.4,0,0,1-.27-2.71,6,6,0,0,1-2.4,2.2,7.37,7.37,0,0,1-3.43.78,4.77,4.77,0,0,1-3.3-1.11,3.72,3.72,0,0,1-1.25-2.91A3.75,3.75,0,0,1,91.14,137,8.88,8.88,0,0,1,96,135.74h3.65v-2.16a3.62,3.62,0,0,0-1.17-2.88,4.9,4.9,0,0,0-3.35-1,5.37,5.37,0,0,0-3.37,1,3.12,3.12,0,0,0-1.36,2.57l-.73,0a3.77,3.77,0,0,1,1.58-3.06,6,6,0,0,1,3.88-1.26,5.64,5.64,0,0,1,3.8,1.2,4.27,4.27,0,0,1,1.45,3.37v7.07a9.37,9.37,0,0,0,.39,3.31V144Zm-6.1-.46a6.65,6.65,0,0,0,3.58-.93A5.84,5.84,0,0,0,99.68,140v-3.51H96.26a8,8,0,0,0-4.86,1.26A3.07,3.07,0,0,0,90,140.29a2.94,2.94,0,0,0,1.08,2.3A4,4,0,0,0,93.85,143.54Z"/><path class="cls-4" d="M110.19,143.54a5.06,5.06,0,0,0,3.31-1.07,3.93,3.93,0,0,0,1.43-2.95h.74A4.61,4.61,0,0,1,114,143a5.73,5.73,0,0,1-3.83,1.3,5.39,5.39,0,0,1-4.41-2,8.37,8.37,0,0,1-1.63-5.45v-.49a8.26,8.26,0,0,1,1.63-5.38,5.36,5.36,0,0,1,4.38-2,5.5,5.5,0,0,1,3.88,1.41,5.11,5.11,0,0,1,1.63,3.75h-.74a4.48,4.48,0,0,0-1.4-3.21,4.78,4.78,0,0,0-3.37-1.21,4.64,4.64,0,0,0-3.87,1.79,7.79,7.79,0,0,0-1.41,4.95v.48a7.61,7.61,0,0,0,1.42,4.87A4.68,4.68,0,0,0,110.19,143.54Z"/><path class="cls-4" d="M119.17,124.59a.73.73,0,0,1,.22-.54.72.72,0,0,1,.53-.23.79.79,0,0,1,.77.77.72.72,0,0,1-.23.53.77.77,0,0,1-.54.22.75.75,0,0,1-.53-.22A.71.71,0,0,1,119.17,124.59ZM120.29,144h-.74V129.21h.74Z"/><path class="cls-4" d="M134.7,144a10.4,10.4,0,0,1-.27-2.71,5.9,5.9,0,0,1-2.39,2.2,7.4,7.4,0,0,1-3.43.78,4.82,4.82,0,0,1-3.31-1.11,3.72,3.72,0,0,1-1.25-2.91,3.78,3.78,0,0,1,1.84-3.26,8.93,8.93,0,0,1,4.89-1.25h3.65v-2.16a3.62,3.62,0,0,0-1.17-2.88,4.87,4.87,0,0,0-3.34-1,5.4,5.4,0,0,0-3.38,1,3.13,3.13,0,0,0-1.35,2.57l-.74,0a3.79,3.79,0,0,1,1.59-3.06,6,6,0,0,1,3.88-1.26,5.68,5.68,0,0,1,3.8,1.2,4.3,4.3,0,0,1,1.45,3.37v7.07a9.68,9.68,0,0,0,.38,3.31V144Zm-6.09-.46a6.64,6.64,0,0,0,3.57-.93,5.72,5.72,0,0,0,2.25-2.62v-3.51H131a8,8,0,0,0-4.85,1.26,3.08,3.08,0,0,0-1.37,2.55,2.94,2.94,0,0,0,1.08,2.3A4,4,0,0,0,128.61,143.54Z"/><path class="cls-4" d="M149,140.38q0-2.7-4.59-3.67a8.94,8.94,0,0,1-3.84-1.51,3.15,3.15,0,0,1-1.08-2.53A3.24,3.24,0,0,1,140.9,130a5.69,5.69,0,0,1,3.58-1.06,6,6,0,0,1,3.84,1.15,3.69,3.69,0,0,1,1.45,3.08H149a3.06,3.06,0,0,0-1.26-2.49,5.09,5.09,0,0,0-3.28-1,5,5,0,0,0-3.08.85,2.74,2.74,0,0,0-.71,3.68,3.65,3.65,0,0,0,1.38,1,13.81,13.81,0,0,0,2.79.88,11.93,11.93,0,0,1,2.9,1,3.85,3.85,0,0,1,1.54,1.36,3.6,3.6,0,0,1,.48,1.92,3.36,3.36,0,0,1-1.43,2.82,6.16,6.16,0,0,1-3.76,1.06,6.57,6.57,0,0,1-4-1.12,3.48,3.48,0,0,1-1.53-2.91h.74a3.06,3.06,0,0,0,1.37,2.43,6,6,0,0,0,3.43.87,5.23,5.23,0,0,0,3.22-.93A2.72,2.72,0,0,0,149,140.38Z"/></g></g><g class="cls-3"><g class="cls-3"><path class="cls-4" d="M254,141.39a6.15,6.15,0,0,1-2.83,2.17,11.53,11.53,0,0,1-4.21.71,8.15,8.15,0,0,1-4.32-1.14,7.57,7.57,0,0,1-2.92-3.25,11.2,11.2,0,0,1-1.06-4.88v-1.73q0-4.5,2.1-7a7.33,7.33,0,0,1,5.9-2.47,7.54,7.54,0,0,1,5,1.59,7,7,0,0,1,2.33,4.52h-2.63a4.34,4.34,0,0,0-4.7-4,4.64,4.64,0,0,0-4,1.85,9.05,9.05,0,0,0-1.37,5.37v1.63a8.5,8.5,0,0,0,1.53,5.33,5,5,0,0,0,4.14,2,9,9,0,0,0,2.58-.33,4.13,4.13,0,0,0,1.84-1.1v-4.47h-4.61v-2.14H254Z"/><path class="cls-4" d="M265.14,131.48a7,7,0,0,0-1.25-.1,3.33,3.33,0,0,0-3.37,2.12V144H258V129.21h2.46l0,1.71a3.92,3.92,0,0,1,3.53-2,2.72,2.72,0,0,1,1.12.19Z"/><path class="cls-4" d="M276.05,144a5.09,5.09,0,0,1-.36-1.56,5.64,5.64,0,0,1-4.21,1.83,5.25,5.25,0,0,1-3.59-1.23,4,4,0,0,1-1.4-3.14,4.19,4.19,0,0,1,1.76-3.59,8.3,8.3,0,0,1,4.94-1.28h2.46v-1.16a2.83,2.83,0,0,0-.79-2.11,3.17,3.17,0,0,0-2.34-.79,3.73,3.73,0,0,0-2.27.68,2,2,0,0,0-.92,1.66h-2.54a3.46,3.46,0,0,1,.79-2.14,5.28,5.28,0,0,1,2.13-1.63,7,7,0,0,1,3-.61,5.89,5.89,0,0,1,4,1.28,4.65,4.65,0,0,1,1.5,3.52v6.81a8.24,8.24,0,0,0,.52,3.24V144Zm-4.2-1.93a4.49,4.49,0,0,0,2.26-.61,3.75,3.75,0,0,0,1.54-1.6v-3h-2q-4.65,0-4.65,2.72a2.28,2.28,0,0,0,.79,1.86A3,3,0,0,0,271.85,142.07Z"/><path class="cls-4" d="M288.08,142.21a3.61,3.61,0,0,0,2.36-.82,2.86,2.86,0,0,0,1.12-2H294a4.62,4.62,0,0,1-.88,2.42,5.84,5.84,0,0,1-2.15,1.83,6.17,6.17,0,0,1-2.85.68,6.11,6.11,0,0,1-4.81-2,8.05,8.05,0,0,1-1.78-5.52v-.42a9,9,0,0,1,.79-3.85,6.05,6.05,0,0,1,2.28-2.61,6.44,6.44,0,0,1,3.5-.93,6,6,0,0,1,4.14,1.49,5.37,5.37,0,0,1,1.76,3.87h-2.4a3.5,3.5,0,0,0-1.08-2.36,3.41,3.41,0,0,0-2.42-.92,3.51,3.51,0,0,0-3,1.39,6.47,6.47,0,0,0-1.06,4v.48a6.42,6.42,0,0,0,1.05,3.94A3.55,3.55,0,0,0,288.08,142.21Z"/><path class="cls-4" d="M296.81,125.28a1.53,1.53,0,0,1,.38-1,1.41,1.41,0,0,1,1.11-.42,1.46,1.46,0,0,1,1.13.42,1.53,1.53,0,0,1,.38,1,1.47,1.47,0,0,1-.38,1,1.49,1.49,0,0,1-1.13.41,1.44,1.44,0,0,1-1.11-.41A1.47,1.47,0,0,1,296.81,125.28ZM299.55,144H297V129.21h2.53Z"/><path class="cls-4" d="M312.73,144a5.09,5.09,0,0,1-.36-1.56,5.64,5.64,0,0,1-4.21,1.83,5.25,5.25,0,0,1-3.59-1.23,4,4,0,0,1-1.4-3.14,4.19,4.19,0,0,1,1.76-3.59,8.3,8.3,0,0,1,4.94-1.28h2.46v-1.16a2.83,2.83,0,0,0-.79-2.11,3.17,3.17,0,0,0-2.34-.79,3.73,3.73,0,0,0-2.27.68,2,2,0,0,0-.91,1.66h-2.55a3.46,3.46,0,0,1,.79-2.14,5.28,5.28,0,0,1,2.13-1.63,7.06,7.06,0,0,1,3-.61,5.87,5.87,0,0,1,4,1.28,4.65,4.65,0,0,1,1.5,3.52v6.81a8.24,8.24,0,0,0,.52,3.24V144Zm-4.2-1.93a4.46,4.46,0,0,0,2.26-.61,3.75,3.75,0,0,0,1.54-1.6v-3h-2q-4.65,0-4.65,2.72a2.28,2.28,0,0,0,.79,1.86A3,3,0,0,0,308.53,142.07Z"/><path class="cls-4" d="M327.44,140.08a1.88,1.88,0,0,0-.77-1.6,7.64,7.64,0,0,0-2.7-1,13.3,13.3,0,0,1-3.05-1,4.29,4.29,0,0,1-1.66-1.37,3.23,3.23,0,0,1-.54-1.88,3.86,3.86,0,0,1,1.53-3.08,6,6,0,0,1,3.94-1.26,6.24,6.24,0,0,1,4.08,1.3,4.14,4.14,0,0,1,1.56,3.32h-2.54a2.28,2.28,0,0,0-.88-1.79,3.31,3.31,0,0,0-2.22-.75,3.43,3.43,0,0,0-2.16.6,1.9,1.9,0,0,0-.78,1.58,1.54,1.54,0,0,0,.72,1.38,9.14,9.14,0,0,0,2.62.89,13.77,13.77,0,0,1,3.07,1,4.49,4.49,0,0,1,1.74,1.41,3.48,3.48,0,0,1,.57,2,3.79,3.79,0,0,1-1.59,3.18,6.62,6.62,0,0,1-4.11,1.19,7.44,7.44,0,0,1-3.15-.63,5.09,5.09,0,0,1-2.14-1.75,4.27,4.27,0,0,1-.77-2.44h2.53a2.6,2.6,0,0,0,1,2,3.93,3.93,0,0,0,2.51.75,4.06,4.06,0,0,0,2.3-.58A1.79,1.79,0,0,0,327.44,140.08Z"/></g></g><g class="cls-3"><g class="cls-3"><path class="cls-4" d="M77.53,252.48a7.09,7.09,0,0,1-3.13,2.06,13.09,13.09,0,0,1-4.49.73,8.9,8.9,0,0,1-4.53-1.12,7.61,7.61,0,0,1-3-3.28,11.48,11.48,0,0,1-1.08-5v-1.36a12.28,12.28,0,0,1,1-5.16,7.45,7.45,0,0,1,2.9-3.33,9.52,9.52,0,0,1,10,.53,7.22,7.22,0,0,1,2.37,4.91h-4a4,4,0,0,0-1.21-2.5,3.88,3.88,0,0,0-2.58-.79,3.63,3.63,0,0,0-3.19,1.57,8.21,8.21,0,0,0-1.1,4.68v1.27a7.89,7.89,0,0,0,1.18,4.73,4.08,4.08,0,0,0,3.49,1.6,4.55,4.55,0,0,0,3.3-1v-3.43H69.69v-3h7.84Z"/><path class="cls-4" d="M88.9,243.91a11.27,11.27,0,0,0-1.42-.11,2.91,2.91,0,0,0-2.94,1.52V255h-4V240.21h3.73l.11,1.76a3.66,3.66,0,0,1,3.3-2,4.16,4.16,0,0,1,1.23.18Z"/><path class="cls-4" d="M99,255a4.46,4.46,0,0,1-.39-1.33,4.77,4.77,0,0,1-3.73,1.6A5.32,5.32,0,0,1,91.23,254a4.07,4.07,0,0,1-1.43-3.18,4.2,4.2,0,0,1,1.75-3.61,8.67,8.67,0,0,1,5-1.27H98.4v-.84a2.45,2.45,0,0,0-.52-1.65,2.07,2.07,0,0,0-1.66-.61,2.36,2.36,0,0,0-1.57.48,1.61,1.61,0,0,0-.57,1.31h-4a4,4,0,0,1,.8-2.38,5.11,5.11,0,0,1,2.24-1.71,8.05,8.05,0,0,1,3.25-.63,6.44,6.44,0,0,1,4.34,1.38,4.8,4.8,0,0,1,1.61,3.86v6.41a7,7,0,0,0,.59,3.19V255Zm-3.26-2.75a3.39,3.39,0,0,0,1.61-.39,2.55,2.55,0,0,0,1.09-1v-2.55H96.93c-2,0-3,.69-3.16,2v.24a1.56,1.56,0,0,0,.52,1.21A2,2,0,0,0,95.7,252.25Z"/><path class="cls-4" d="M111.56,252.09a2.56,2.56,0,0,0,1.77-.6,2.09,2.09,0,0,0,.71-1.6h3.71a5,5,0,0,1-.82,2.75,5.35,5.35,0,0,1-2.21,1.94,6.92,6.92,0,0,1-3.1.69,6.43,6.43,0,0,1-5-2,8,8,0,0,1-1.83-5.57v-.26a7.91,7.91,0,0,1,1.82-5.46,6.33,6.33,0,0,1,5-2,6.24,6.24,0,0,1,4.45,1.58,5.65,5.65,0,0,1,1.7,4.21H114a2.67,2.67,0,0,0-.71-1.88,2.35,2.35,0,0,0-1.8-.72,2.39,2.39,0,0,0-2.09,1,5.8,5.8,0,0,0-.7,3.26v.41a5.87,5.87,0,0,0,.7,3.29A2.42,2.42,0,0,0,111.56,252.09Z"/><path class="cls-4" d="M120,236.38a2,2,0,0,1,.59-1.46,2.55,2.55,0,0,1,3.24,0,2.09,2.09,0,0,1,0,2.94,2.26,2.26,0,0,1-1.61.57,2.24,2.24,0,0,1-1.6-.57A2,2,0,0,1,120,236.38Zm4.2,18.62h-4V240.21h4Z"/><path class="cls-4" d="M136,255a4.46,4.46,0,0,1-.39-1.33,4.79,4.79,0,0,1-3.74,1.6,5.28,5.28,0,0,1-3.6-1.25,4.07,4.07,0,0,1-1.43-3.18,4.2,4.2,0,0,1,1.74-3.61,8.71,8.71,0,0,1,5-1.27h1.82v-.84a2.45,2.45,0,0,0-.52-1.65,2.1,2.1,0,0,0-1.67-.61,2.35,2.35,0,0,0-1.56.48,1.61,1.61,0,0,0-.57,1.31h-4a4,4,0,0,1,.79-2.38,5.2,5.2,0,0,1,2.25-1.71,8.05,8.05,0,0,1,3.25-.63,6.44,6.44,0,0,1,4.34,1.38,4.8,4.8,0,0,1,1.61,3.86v6.41a7.14,7.14,0,0,0,.58,3.19V255Zm-3.27-2.75a3.4,3.4,0,0,0,1.62-.39,2.61,2.61,0,0,0,1.09-1v-2.55H134c-2,0-3,.69-3.15,2l0,.24a1.59,1.59,0,0,0,.52,1.21A2,2,0,0,0,132.73,252.25Z"/><path class="cls-4" d="M150.45,250.91a1.28,1.28,0,0,0-.71-1.14,7.88,7.88,0,0,0-2.31-.74q-5.28-1.11-5.28-4.49a4.08,4.08,0,0,1,1.64-3.29,6.58,6.58,0,0,1,4.27-1.32,7.14,7.14,0,0,1,4.51,1.33,4.18,4.18,0,0,1,1.68,3.45H150.3a1.94,1.94,0,0,0-.54-1.41,2.33,2.33,0,0,0-1.71-.55,2.39,2.39,0,0,0-1.55.45,1.43,1.43,0,0,0-.54,1.15,1.2,1.2,0,0,0,.62,1.06,6.38,6.38,0,0,0,2.1.7,15.86,15.86,0,0,1,2.48.66c2.09.77,3.13,2.09,3.13,4a3.83,3.83,0,0,1-1.73,3.27,7.45,7.45,0,0,1-4.49,1.25,7.84,7.84,0,0,1-3.3-.66,5.55,5.55,0,0,1-2.26-1.82,4.2,4.2,0,0,1-.82-2.49h3.75a2,2,0,0,0,.77,1.61,3.14,3.14,0,0,0,1.95.56,2.84,2.84,0,0,0,1.71-.43A1.33,1.33,0,0,0,150.45,250.91Z"/></g></g><g class="cls-3"><g class="cls-3"><path class="cls-4" d="M254.53,252.48a7.09,7.09,0,0,1-3.13,2.06,13.09,13.09,0,0,1-4.49.73,8.9,8.9,0,0,1-4.53-1.12,7.61,7.61,0,0,1-3-3.28,11.48,11.48,0,0,1-1.08-5v-1.36a12.28,12.28,0,0,1,1-5.16,7.45,7.45,0,0,1,2.9-3.33,9.52,9.52,0,0,1,10,.53,7.22,7.22,0,0,1,2.37,4.91h-4a4,4,0,0,0-1.21-2.5,3.88,3.88,0,0,0-2.58-.79,3.63,3.63,0,0,0-3.19,1.57,8.21,8.21,0,0,0-1.1,4.68v1.27a7.89,7.89,0,0,0,1.18,4.73,4.08,4.08,0,0,0,3.49,1.6,4.55,4.55,0,0,0,3.3-1v-3.43h-3.74v-3h7.84Z"/><path class="cls-4" d="M265.9,243.91a11.27,11.27,0,0,0-1.42-.11,2.91,2.91,0,0,0-2.94,1.52V255h-4V240.21h3.73l.11,1.76a3.66,3.66,0,0,1,3.3-2,4.16,4.16,0,0,1,1.23.18Z"/><path class="cls-4" d="M276,255a4.46,4.46,0,0,1-.39-1.33,4.77,4.77,0,0,1-3.73,1.6,5.32,5.32,0,0,1-3.61-1.25,4.07,4.07,0,0,1-1.43-3.18,4.2,4.2,0,0,1,1.75-3.61,8.67,8.67,0,0,1,5-1.27h1.81v-.84a2.45,2.45,0,0,0-.52-1.65,2.07,2.07,0,0,0-1.66-.61,2.36,2.36,0,0,0-1.57.48,1.61,1.61,0,0,0-.57,1.31h-3.95a4,4,0,0,1,.8-2.38,5.11,5.11,0,0,1,2.24-1.71,8.05,8.05,0,0,1,3.25-.63,6.44,6.44,0,0,1,4.34,1.38,4.8,4.8,0,0,1,1.61,3.86v6.41a7,7,0,0,0,.59,3.19V255Zm-3.26-2.75a3.39,3.39,0,0,0,1.61-.39,2.55,2.55,0,0,0,1.09-1v-2.55h-1.47c-2,0-3,.69-3.16,2v.24a1.56,1.56,0,0,0,.52,1.21A2,2,0,0,0,272.7,252.25Z"/><path class="cls-4" d="M288.56,252.09a2.56,2.56,0,0,0,1.77-.6,2.09,2.09,0,0,0,.71-1.6h3.71a5,5,0,0,1-.82,2.75,5.35,5.35,0,0,1-2.21,1.94,6.92,6.92,0,0,1-3.1.69,6.43,6.43,0,0,1-5-2,8,8,0,0,1-1.83-5.57v-.26a7.87,7.87,0,0,1,1.82-5.46,6.33,6.33,0,0,1,5-2,6.24,6.24,0,0,1,4.45,1.58,5.65,5.65,0,0,1,1.7,4.21H291a2.67,2.67,0,0,0-.71-1.88,2.35,2.35,0,0,0-1.8-.72,2.39,2.39,0,0,0-2.09,1,5.8,5.8,0,0,0-.7,3.26v.41a5.87,5.87,0,0,0,.7,3.29A2.42,2.42,0,0,0,288.56,252.09Z"/><path class="cls-4" d="M297,236.38a2,2,0,0,1,.59-1.46,2.55,2.55,0,0,1,3.24,0,2.09,2.09,0,0,1,0,2.94,2.26,2.26,0,0,1-1.61.57,2.24,2.24,0,0,1-1.6-.57A2,2,0,0,1,297,236.38Zm4.2,18.62h-4V240.21h4Z"/><path class="cls-4" d="M313,255a4.46,4.46,0,0,1-.39-1.33,4.79,4.79,0,0,1-3.74,1.6,5.28,5.28,0,0,1-3.6-1.25,4.07,4.07,0,0,1-1.43-3.18,4.2,4.2,0,0,1,1.74-3.61,8.71,8.71,0,0,1,5-1.27h1.82v-.84a2.45,2.45,0,0,0-.52-1.65,2.1,2.1,0,0,0-1.67-.61,2.35,2.35,0,0,0-1.56.48,1.61,1.61,0,0,0-.57,1.31h-3.95a4,4,0,0,1,.79-2.38,5.2,5.2,0,0,1,2.25-1.71,8.05,8.05,0,0,1,3.25-.63,6.44,6.44,0,0,1,4.34,1.38,4.8,4.8,0,0,1,1.61,3.86v6.41a7.14,7.14,0,0,0,.58,3.19V255Zm-3.27-2.75a3.4,3.4,0,0,0,1.62-.39,2.61,2.61,0,0,0,1.09-1v-2.55H311c-2,0-3,.69-3.15,2l0,.24a1.59,1.59,0,0,0,.52,1.21A2,2,0,0,0,309.73,252.25Z"/><path class="cls-4" d="M327.45,250.91a1.28,1.28,0,0,0-.71-1.14,7.88,7.88,0,0,0-2.31-.74q-5.28-1.11-5.28-4.49a4.08,4.08,0,0,1,1.64-3.29,6.58,6.58,0,0,1,4.27-1.32,7.14,7.14,0,0,1,4.51,1.33,4.18,4.18,0,0,1,1.68,3.45H327.3a1.94,1.94,0,0,0-.54-1.41,2.33,2.33,0,0,0-1.71-.55,2.39,2.39,0,0,0-1.55.45,1.43,1.43,0,0,0-.54,1.15,1.2,1.2,0,0,0,.62,1.06,6.38,6.38,0,0,0,2.1.7,15.86,15.86,0,0,1,2.48.66c2.09.77,3.13,2.09,3.13,4a3.83,3.83,0,0,1-1.73,3.27,7.45,7.45,0,0,1-4.49,1.25,7.84,7.84,0,0,1-3.3-.66,5.55,5.55,0,0,1-2.26-1.82,4.2,4.2,0,0,1-.82-2.49h3.75a2,2,0,0,0,.77,1.61,3.14,3.14,0,0,0,2,.56,2.84,2.84,0,0,0,1.71-.43A1.33,1.33,0,0,0,327.45,250.91Z"/></g></g><g class="cls-3"><g class="cls-3"><path class="cls-4" d="M30.83,37.77h5.39V39h-6.9V27.62h1.51Z"/><path class="cls-4" d="M37.71,28.3a.83.83,0,0,1,.22-.59.79.79,0,0,1,.63-.24.82.82,0,0,1,.64.24.83.83,0,0,1,.22.59.78.78,0,0,1-.86.82.79.79,0,0,1-.63-.23A.82.82,0,0,1,37.71,28.3ZM39.27,39H37.83V30.55h1.44Z"/><path class="cls-4" d="M41.24,34.7a5,5,0,0,1,.92-3.14A3.15,3.15,0,0,1,47,31.48l.07-.93h1.32V38.8a3.42,3.42,0,0,1-1,2.58,3.59,3.59,0,0,1-2.61.95A4.34,4.34,0,0,1,43,41.94a3.09,3.09,0,0,1-1.34-1.07l.75-.87a2.82,2.82,0,0,0,2.28,1.15,2.19,2.19,0,0,0,1.64-.6,2.27,2.27,0,0,0,.59-1.67v-.72a3,3,0,0,1-2.37,1,2.88,2.88,0,0,1-2.4-1.2A5.24,5.24,0,0,1,41.24,34.7Zm1.46.17a3.77,3.77,0,0,0,.58,2.24,1.9,1.9,0,0,0,1.64.82,2.12,2.12,0,0,0,2-1.24V32.83a2.14,2.14,0,0,0-2-1.21,1.9,1.9,0,0,0-1.65.82A4.07,4.07,0,0,0,42.7,34.87Z"/><path class="cls-4" d="M54.07,39.16A3.71,3.71,0,0,1,51.27,38a4.19,4.19,0,0,1-1.07-3v-.27a5,5,0,0,1,.48-2.24A3.69,3.69,0,0,1,52,31a3.39,3.39,0,0,1,1.87-.56,3.14,3.14,0,0,1,2.56,1.09,4.69,4.69,0,0,1,.92,3.11v.6H51.64a3,3,0,0,0,.73,2,2.32,2.32,0,0,0,1.78.77,2.53,2.53,0,0,0,1.3-.32,3.27,3.27,0,0,0,.93-.82l.88.68A3.55,3.55,0,0,1,54.07,39.16Zm-.18-7.58a2,2,0,0,0-1.47.63A3.13,3.13,0,0,0,51.69,34h4.23v-.11a2.8,2.8,0,0,0-.59-1.71A1.84,1.84,0,0,0,53.89,31.58Z"/><path class="cls-4" d="M63.12,31.84a5,5,0,0,0-.71-.05A1.91,1.91,0,0,0,60.48,33v6H59V30.55h1.41l0,1a2.24,2.24,0,0,1,2-1.13,1.47,1.47,0,0,1,.64.11Z"/><path class="cls-4" d="M69.36,39a3.1,3.1,0,0,1-.2-.89,3.24,3.24,0,0,1-2.41,1,3,3,0,0,1-2-.71,2.3,2.3,0,0,1-.8-1.79,2.38,2.38,0,0,1,1-2,4.72,4.72,0,0,1,2.83-.73h1.4v-.67A1.65,1.65,0,0,0,68.68,32a1.82,1.82,0,0,0-1.34-.45,2,2,0,0,0-1.29.4,1.15,1.15,0,0,0-.53.94H64.07a2,2,0,0,1,.45-1.22,3.05,3.05,0,0,1,1.22-.94,4.05,4.05,0,0,1,1.69-.34,3.33,3.33,0,0,1,2.29.73,2.65,2.65,0,0,1,.86,2V37a4.75,4.75,0,0,0,.3,1.86V39ZM67,37.9a2.61,2.61,0,0,0,1.29-.35,2.1,2.1,0,0,0,.88-.92V34.9H68c-1.77,0-2.66.52-2.66,1.55a1.31,1.31,0,0,0,.46,1.07A1.76,1.76,0,0,0,67,37.9Z"/><path class="cls-4" d="M77.09,40H75.85L80.6,27.62h1.24Z"/><path class="cls-4" d="M89.09,37.77h5.39V39H87.59V27.62h1.5Z"/><path class="cls-4" d="M96,28.3a.87.87,0,0,1,.21-.59.82.82,0,0,1,.64-.24.83.83,0,0,1,.64.24.88.88,0,0,1,.22.59.86.86,0,0,1-.22.59.82.82,0,0,1-.64.23.81.81,0,0,1-.64-.23A.85.85,0,0,1,96,28.3ZM97.54,39H96.09V30.55h1.45Z"/><path class="cls-4" d="M99.51,34.7a5,5,0,0,1,.91-3.14,3.16,3.16,0,0,1,4.84-.08l.07-.93h1.32V38.8a3.46,3.46,0,0,1-1,2.58,3.6,3.6,0,0,1-2.62.95,4.38,4.38,0,0,1-1.79-.39,3.06,3.06,0,0,1-1.33-1.07l.75-.87A2.8,2.8,0,0,0,103,41.15a2.23,2.23,0,0,0,1.65-.6,2.27,2.27,0,0,0,.59-1.67v-.72a3,3,0,0,1-2.37,1,2.88,2.88,0,0,1-2.4-1.2A5.18,5.18,0,0,1,99.51,34.7Zm1.45.17a3.77,3.77,0,0,0,.59,2.24,1.88,1.88,0,0,0,1.64.82,2.12,2.12,0,0,0,2-1.24V32.83a2.15,2.15,0,0,0-2-1.21,1.92,1.92,0,0,0-1.65.82A4.14,4.14,0,0,0,101,34.87Z"/><path class="cls-4" d="M110.27,31.57a3.07,3.07,0,0,1,2.5-1.18c1.79,0,2.69,1,2.71,3V39H114V33.41a1.93,1.93,0,0,0-.42-1.36,1.67,1.67,0,0,0-1.27-.43,2.11,2.11,0,0,0-1.24.37,2.6,2.6,0,0,0-.83,1v6h-1.44V27h1.44Z"/><path class="cls-4" d="M119.6,28.5v2.05h1.58v1.11H119.6v5.25a1.2,1.2,0,0,0,.21.77.92.92,0,0,0,.72.25,3.61,3.61,0,0,0,.69-.09V39a4.38,4.38,0,0,1-1.11.16,1.8,1.8,0,0,1-1.46-.59,2.51,2.51,0,0,1-.49-1.66V31.66h-1.54V30.55h1.54V28.5Z"/></g><g class="cls-3"><path class="cls-4" d="M29.32,63V51.62h3.21a5.16,5.16,0,0,1,2.63.66,4.48,4.48,0,0,1,1.76,1.87,6.19,6.19,0,0,1,.63,2.78v.73a6.17,6.17,0,0,1-.62,2.82,4.5,4.5,0,0,1-1.78,1.86,5.51,5.51,0,0,1-2.68.66Zm1.5-10.15v8.92H32.4a3.45,3.45,0,0,0,2.7-1.08,4.46,4.46,0,0,0,1-3.07V57a4.52,4.52,0,0,0-.91-3,3.25,3.25,0,0,0-2.58-1.09Z"/><path class="cls-4" d="M43.09,63.16A3.7,3.7,0,0,1,40.3,62a4.2,4.2,0,0,1-1.08-3v-.27a5,5,0,0,1,.48-2.24A3.76,3.76,0,0,1,41,55a3.41,3.41,0,0,1,1.87-.56,3.17,3.17,0,0,1,2.57,1.09,4.69,4.69,0,0,1,.91,3.11v.6H40.66a3.05,3.05,0,0,0,.73,2,2.32,2.32,0,0,0,1.78.77,2.53,2.53,0,0,0,1.3-.32,3.27,3.27,0,0,0,.93-.82l.88.68A3.55,3.55,0,0,1,43.09,63.16Zm-.18-7.58a1.92,1.92,0,0,0-1.46.63A3.07,3.07,0,0,0,40.71,58H45v-.11a2.8,2.8,0,0,0-.6-1.71A1.81,1.81,0,0,0,42.91,55.58Z"/><path class="cls-4" d="M49.63,63H48.19V51h1.44Z"/><path class="cls-4" d="M51.6,58.7a5,5,0,0,1,.92-3.14,3.15,3.15,0,0,1,4.83-.08l.07-.93h1.32V62.8a3.42,3.42,0,0,1-1,2.58,3.59,3.59,0,0,1-2.61,1,4.34,4.34,0,0,1-1.79-.39A3.09,3.09,0,0,1,52,64.87l.75-.87a2.82,2.82,0,0,0,2.27,1.15,2.2,2.2,0,0,0,1.65-.6,2.27,2.27,0,0,0,.59-1.67v-.72a3,3,0,0,1-2.37,1,2.88,2.88,0,0,1-2.4-1.2A5.24,5.24,0,0,1,51.6,58.7Zm1.45.17a3.77,3.77,0,0,0,.59,2.24,1.9,1.9,0,0,0,1.64.82,2.12,2.12,0,0,0,2-1.24V56.83a2.14,2.14,0,0,0-2-1.21,1.9,1.9,0,0,0-1.65.82A4.07,4.07,0,0,0,53.05,58.87Z"/><path class="cls-4" d="M66.14,63a3.1,3.1,0,0,1-.2-.89,3.23,3.23,0,0,1-2.41,1,3,3,0,0,1-2.05-.71,2.3,2.3,0,0,1-.8-1.79,2.38,2.38,0,0,1,1-2,4.72,4.72,0,0,1,2.83-.73h1.4v-.67A1.65,1.65,0,0,0,65.46,56a1.82,1.82,0,0,0-1.34-.45,2,2,0,0,0-1.29.4,1.15,1.15,0,0,0-.53.94H60.85a2,2,0,0,1,.45-1.22,3.05,3.05,0,0,1,1.22-.94,4.08,4.08,0,0,1,1.69-.34,3.33,3.33,0,0,1,2.29.73,2.65,2.65,0,0,1,.86,2V61a4.75,4.75,0,0,0,.3,1.86V63Zm-2.4-1.1A2.58,2.58,0,0,0,65,61.55a2.1,2.1,0,0,0,.88-.92V58.9H64.78c-1.77,0-2.66.52-2.66,1.55a1.34,1.34,0,0,0,.46,1.07A1.76,1.76,0,0,0,63.74,61.9Z"/><path class="cls-4" d="M69.27,58.7a4.94,4.94,0,0,1,.93-3.13A3.13,3.13,0,0,1,75,55.41V51h1.45V63H75.08L75,62.09a3,3,0,0,1-2.42,1.07A2.89,2.89,0,0,1,70.2,62a5,5,0,0,1-.93-3.14Zm1.45.17a3.78,3.78,0,0,0,.59,2.25,1.92,1.92,0,0,0,1.64.81,2.11,2.11,0,0,0,2-1.23V56.81a2.13,2.13,0,0,0-2-1.19,1.93,1.93,0,0,0-1.66.82A4.14,4.14,0,0,0,70.72,58.87Z"/><path class="cls-4" d="M83.87,63a3,3,0,0,1-.21-.89,3.21,3.21,0,0,1-2.4,1,3,3,0,0,1-2.05-.71,2.27,2.27,0,0,1-.8-1.79,2.38,2.38,0,0,1,1-2,4.71,4.71,0,0,1,2.82-.73h1.41v-.67A1.65,1.65,0,0,0,83.19,56a1.82,1.82,0,0,0-1.34-.45,2.08,2.08,0,0,0-1.3.4,1.16,1.16,0,0,0-.52.94H78.58A2,2,0,0,1,79,55.67a3,3,0,0,1,1.22-.94,4.05,4.05,0,0,1,1.69-.34,3.35,3.35,0,0,1,2.29.73,2.68,2.68,0,0,1,.86,2V61a4.77,4.77,0,0,0,.29,1.86V63Zm-2.4-1.1a2.61,2.61,0,0,0,1.29-.35,2.16,2.16,0,0,0,.88-.92V58.9H82.51c-1.77,0-2.66.52-2.66,1.55a1.33,1.33,0,0,0,.45,1.07A1.79,1.79,0,0,0,81.47,61.9Z"/><path class="cls-4" d="M91.6,64H90.36l4.75-12.36h1.23Z"/><path class="cls-4" d="M109.64,52.85H106V63h-1.49V52.85h-3.65V51.62h8.8Z"/><path class="cls-4" d="M112.55,55.57a3.06,3.06,0,0,1,2.5-1.18c1.78,0,2.68,1,2.7,3V63H116.3V57.41a2,2,0,0,0-.41-1.36,1.69,1.69,0,0,0-1.28-.43,2.06,2.06,0,0,0-1.23.37,2.43,2.43,0,0,0-.83,1v6H111.1V51h1.45Z"/><path class="cls-4" d="M119.92,52.3a.83.83,0,0,1,.22-.59.79.79,0,0,1,.63-.24.82.82,0,0,1,.64.24.83.83,0,0,1,.22.59.78.78,0,0,1-.86.82.79.79,0,0,1-.63-.23A.82.82,0,0,1,119.92,52.3ZM121.48,63H120V54.55h1.44Z"/><path class="cls-4" d="M125.16,54.55l0,1.06a3.09,3.09,0,0,1,2.53-1.22c1.79,0,2.69,1,2.71,3V63H129V57.41a2,2,0,0,0-.42-1.36,1.68,1.68,0,0,0-1.28-.43,2.08,2.08,0,0,0-1.23.37,2.6,2.6,0,0,0-.83,1v6H123.8V54.55Z"/></g></g><g class="cls-3"><g class="cls-3"><path class="cls-4" d="M215.06,39h-1.51l-5.72-8.77V39h-1.51V27.62h1.51l5.74,8.81V27.62h1.49Z"/><path class="cls-4" d="M217.12,34.7a5,5,0,0,1,.49-2.24A3.6,3.6,0,0,1,219,30.93a3.71,3.71,0,0,1,2-.54,3.57,3.57,0,0,1,2.8,1.2,4.58,4.58,0,0,1,1.06,3.18v.1a5.08,5.08,0,0,1-.47,2.21A3.6,3.6,0,0,1,223,38.61a3.8,3.8,0,0,1-2,.55,3.55,3.55,0,0,1-2.79-1.2,4.58,4.58,0,0,1-1.06-3.16Zm1.45.17a3.62,3.62,0,0,0,.65,2.25A2.1,2.1,0,0,0,221,38a2.07,2.07,0,0,0,1.75-.87,4,4,0,0,0,.65-2.41,3.63,3.63,0,0,0-.66-2.26,2.12,2.12,0,0,0-1.76-.86,2.05,2.05,0,0,0-1.72.85A3.92,3.92,0,0,0,218.57,34.87Z"/><path class="cls-4" d="M230.71,31.84a5.27,5.27,0,0,0-.71-.05A1.9,1.9,0,0,0,228.07,33v6h-1.45V30.55H228l0,1a2.27,2.27,0,0,1,2-1.13,1.53,1.53,0,0,1,.64.11Z"/><path class="cls-4" d="M233.4,30.55l0,.93A3.11,3.11,0,0,1,236,30.39a2.41,2.41,0,0,1,2.41,1.36,3.15,3.15,0,0,1,1.1-1,3.22,3.22,0,0,1,1.59-.38c1.86,0,2.8,1,2.83,3V39h-1.44V33.42a1.92,1.92,0,0,0-.42-1.35,1.81,1.81,0,0,0-1.39-.45,1.91,1.91,0,0,0-1.33.48,1.93,1.93,0,0,0-.62,1.29V39h-1.45V33.46a1.61,1.61,0,0,0-1.81-1.84,1.92,1.92,0,0,0-1.94,1.21V39H232V30.55Z"/><path class="cls-4" d="M251.28,39a3.1,3.1,0,0,1-.2-.89,3.23,3.23,0,0,1-2.41,1,3,3,0,0,1-2-.71,2.3,2.3,0,0,1-.8-1.79,2.38,2.38,0,0,1,1-2,4.72,4.72,0,0,1,2.83-.73h1.4v-.67A1.65,1.65,0,0,0,250.6,32a1.81,1.81,0,0,0-1.33-.45,2.06,2.06,0,0,0-1.3.4,1.13,1.13,0,0,0-.52.94H246a2,2,0,0,1,.45-1.22,3.05,3.05,0,0,1,1.22-.94,4.08,4.08,0,0,1,1.69-.34,3.32,3.32,0,0,1,2.29.73,2.65,2.65,0,0,1,.86,2V37a4.75,4.75,0,0,0,.3,1.86V39Zm-2.4-1.1a2.55,2.55,0,0,0,1.29-.35,2.1,2.1,0,0,0,.88-.92V34.9h-1.13c-1.77,0-2.65.52-2.65,1.55a1.33,1.33,0,0,0,.45,1.07A1.76,1.76,0,0,0,248.88,37.9Z"/><path class="cls-4" d="M256.34,39h-1.45V27h1.45Z"/><path class="cls-4" d="M262.9,40h-1.24l4.75-12.36h1.23Z"/><path class="cls-4" d="M277.56,34.4h-2.67V39h-1.51V27.62h3.77a4.49,4.49,0,0,1,3,.88,3.17,3.17,0,0,1,1,2.55,3.1,3.1,0,0,1-.57,1.85,3.52,3.52,0,0,1-1.6,1.18l2.67,4.83V39H280Zm-2.67-1.23h2.31a2.57,2.57,0,0,0,1.77-.58,2,2,0,0,0,.66-1.55,2.07,2.07,0,0,0-.63-1.62,2.7,2.7,0,0,0-1.81-.57h-2.3Z"/><path class="cls-4" d="M286.52,39.16A3.7,3.7,0,0,1,283.73,38a4.2,4.2,0,0,1-1.08-3v-.27a5,5,0,0,1,.48-2.24A3.76,3.76,0,0,1,284.47,31a3.41,3.41,0,0,1,1.87-.56,3.17,3.17,0,0,1,2.57,1.09,4.69,4.69,0,0,1,.91,3.11v.6h-5.73a3.05,3.05,0,0,0,.73,2,2.32,2.32,0,0,0,1.78.77,2.53,2.53,0,0,0,1.3-.32,3.27,3.27,0,0,0,.93-.82l.88.68A3.55,3.55,0,0,1,286.52,39.16Zm-.18-7.58a1.92,1.92,0,0,0-1.46.63,3.07,3.07,0,0,0-.74,1.79h4.24v-.11a2.87,2.87,0,0,0-.6-1.71A1.81,1.81,0,0,0,286.34,31.58Z"/><path class="cls-4" d="M291.15,34.7a5,5,0,0,1,.91-3.14,3.16,3.16,0,0,1,4.84-.08l.07-.93h1.32V38.8a3.46,3.46,0,0,1-1,2.58,3.6,3.6,0,0,1-2.62.95,4.38,4.38,0,0,1-1.79-.39,3.06,3.06,0,0,1-1.33-1.07l.75-.87a2.82,2.82,0,0,0,2.27,1.15,2.23,2.23,0,0,0,1.65-.6,2.27,2.27,0,0,0,.59-1.67v-.72a3,3,0,0,1-2.37,1,2.88,2.88,0,0,1-2.4-1.2A5.18,5.18,0,0,1,291.15,34.7Zm1.45.17a3.77,3.77,0,0,0,.59,2.24,1.88,1.88,0,0,0,1.64.82,2.12,2.12,0,0,0,2-1.24V32.83a2.15,2.15,0,0,0-2-1.21,1.9,1.9,0,0,0-1.64.82A4.07,4.07,0,0,0,292.6,34.87Z"/><path class="cls-4" d="M305.69,38.16a3.06,3.06,0,0,1-2.48,1,2.64,2.64,0,0,1-2.06-.79,3.37,3.37,0,0,1-.71-2.32v-5.5h1.44V36c0,1.28.52,1.92,1.57,1.92a2.17,2.17,0,0,0,2.2-1.23V30.55h1.44V39h-1.37Z"/><path class="cls-4" d="M310.86,39h-1.45V27h1.45Z"/><path class="cls-4" d="M318.39,39a3.1,3.1,0,0,1-.2-.89,3.23,3.23,0,0,1-2.41,1,3,3,0,0,1-2-.71,2.3,2.3,0,0,1-.8-1.79,2.38,2.38,0,0,1,1-2,4.72,4.72,0,0,1,2.83-.73h1.4v-.67a1.65,1.65,0,0,0-.45-1.21,1.81,1.81,0,0,0-1.33-.45,2.06,2.06,0,0,0-1.3.4,1.15,1.15,0,0,0-.53.94H313.1a2,2,0,0,1,.45-1.22,3.05,3.05,0,0,1,1.22-.94,4.08,4.08,0,0,1,1.69-.34,3.33,3.33,0,0,1,2.29.73,2.65,2.65,0,0,1,.86,2V37a4.75,4.75,0,0,0,.3,1.86V39ZM316,37.9a2.55,2.55,0,0,0,1.29-.35,2.1,2.1,0,0,0,.88-.92V34.9H317c-1.77,0-2.65.52-2.65,1.55a1.33,1.33,0,0,0,.45,1.07A1.76,1.76,0,0,0,316,37.9Z"/><path class="cls-4" d="M326,31.84a5.27,5.27,0,0,0-.71-.05A1.9,1.9,0,0,0,323.32,33v6h-1.44V30.55h1.4l0,1a2.27,2.27,0,0,1,2-1.13,1.53,1.53,0,0,1,.64.11Z"/><path class="cls-4" d="M331.54,40H330.3l4.75-12.36h1.23Z"/></g><g class="cls-3"><path class="cls-4" d="M208.26,51.62,212,60.91l3.72-9.29h1.94V63h-1.5V58.57l.14-4.78L212.55,63H211.4l-3.73-9.19.15,4.76V63h-1.5V51.62Z"/><path class="cls-4" d="M223.57,63.16a3.71,3.71,0,0,1-2.8-1.13,4.19,4.19,0,0,1-1.07-3v-.27a5,5,0,0,1,.48-2.24A3.69,3.69,0,0,1,221.52,55a3.39,3.39,0,0,1,1.87-.56A3.14,3.14,0,0,1,226,55.48a4.69,4.69,0,0,1,.92,3.11v.6h-5.73a3,3,0,0,0,.73,2,2.32,2.32,0,0,0,1.78.77,2.53,2.53,0,0,0,1.3-.32,3.27,3.27,0,0,0,.93-.82l.88.68A3.55,3.55,0,0,1,223.57,63.16Zm-.18-7.58a2,2,0,0,0-1.47.63,3.13,3.13,0,0,0-.73,1.79h4.23v-.11a2.8,2.8,0,0,0-.59-1.71A1.84,1.84,0,0,0,223.39,55.58Z"/><path class="cls-4" d="M228.19,58.7a4.94,4.94,0,0,1,.92-3.13,3.14,3.14,0,0,1,4.77-.16V51h1.44V63H234l-.07-.91a3.11,3.11,0,0,1-4.81-.14,5,5,0,0,1-.92-3.14Zm1.44.17a3.71,3.71,0,0,0,.6,2.25,1.91,1.91,0,0,0,1.64.81,2.13,2.13,0,0,0,2-1.23V56.81a2.15,2.15,0,0,0-2-1.19,1.9,1.9,0,0,0-1.65.82A4.07,4.07,0,0,0,229.63,58.87Z"/><path class="cls-4" d="M237.57,52.3a.83.83,0,0,1,.22-.59.79.79,0,0,1,.63-.24.82.82,0,0,1,.64.24.83.83,0,0,1,.22.59.78.78,0,0,1-.86.82.79.79,0,0,1-.63-.23A.82.82,0,0,1,237.57,52.3ZM239.13,63h-1.44V54.55h1.44Z"/><path class="cls-4" d="M246.66,62.16a3,3,0,0,1-2.47,1,2.64,2.64,0,0,1-2.06-.79,3.42,3.42,0,0,1-.72-2.32v-5.5h1.45V60q0,1.92,1.56,1.92a2.15,2.15,0,0,0,2.2-1.23V54.55h1.45V63H246.7Z"/><path class="cls-4" d="M251.62,54.55l0,.93a3.12,3.12,0,0,1,2.51-1.09,2.42,2.42,0,0,1,2.42,1.36,3.12,3.12,0,0,1,1.09-1,3.26,3.26,0,0,1,1.6-.38c1.85,0,2.8,1,2.83,3V63h-1.45V57.42a1.91,1.91,0,0,0-.41-1.35,1.83,1.83,0,0,0-1.39-.45,1.86,1.86,0,0,0-1.95,1.77V63h-1.46V57.46a1.61,1.61,0,0,0-1.8-1.84,1.93,1.93,0,0,0-2,1.21V63h-1.44V54.55Z"/></g></g><g class="cls-3"><g class="cls-3"><path class="cls-4" d="M35.81,320.41H30V326h-.42V314.62h7.05v.43H30V320h5.83Z"/><path class="cls-4" d="M44,326v-1.37a2.79,2.79,0,0,1-1.09,1.12,3.68,3.68,0,0,1-1.82.41,2.59,2.59,0,0,1-2.08-.81,3.61,3.61,0,0,1-.7-2.36v-5.44h.42V323a3.07,3.07,0,0,0,.61,2,2.15,2.15,0,0,0,1.73.69,3.18,3.18,0,0,0,2-.57,2.52,2.52,0,0,0,1-1.67v-5.94h.43V326Z"/><path class="cls-4" d="M50.12,326.16a3.44,3.44,0,0,1-1.87-.55,3.81,3.81,0,0,1-1.34-1.52,4.58,4.58,0,0,1-.49-2.13v-.35a4.94,4.94,0,0,1,.47-2.15,3.64,3.64,0,0,1,1.29-1.52,3.12,3.12,0,0,1,1.79-.55,3,3,0,0,1,2.31,1,3.82,3.82,0,0,1,.9,2.65v.44H46.84V322a4.25,4.25,0,0,0,.44,1.91,3.48,3.48,0,0,0,1.19,1.38,3,3,0,0,0,1.65.49,3.32,3.32,0,0,0,1.45-.28,2.91,2.91,0,0,0,1.06-.87l.3.21A3.2,3.2,0,0,1,50.12,326.16ZM50,317.81a2.76,2.76,0,0,0-2.09.92,3.87,3.87,0,0,0-1,2.34h5.89V321a3.49,3.49,0,0,0-.37-1.6,2.81,2.81,0,0,0-1-1.15A2.59,2.59,0,0,0,50,317.81Z"/><path class="cls-4" d="M55.57,319.52A3.53,3.53,0,0,1,56.79,318a3,3,0,0,1,1.78-.57,2.52,2.52,0,0,1,2,.77,3.55,3.55,0,0,1,.67,2.32V326h-.42v-5.53a3.13,3.13,0,0,0-.56-2,2.14,2.14,0,0,0-1.73-.65,2.65,2.65,0,0,0-1.9.78,4,4,0,0,0-1.08,2V326h-.42v-8.45h.42Z"/><path class="cls-4" d="M64.85,315.27v2.28h1.92V318H64.85v6a2.43,2.43,0,0,0,.29,1.33,1.11,1.11,0,0,0,1,.43,5.66,5.66,0,0,0,.84-.07l.07.4a2.92,2.92,0,0,1-.88.1,1.54,1.54,0,0,1-1.32-.52,2.66,2.66,0,0,1-.41-1.61V318H62.86v-.42h1.56v-2.28Z"/><path class="cls-4" d="M72,326.16a3.47,3.47,0,0,1-1.88-.55,3.81,3.81,0,0,1-1.34-1.52A4.7,4.7,0,0,1,68.3,322v-.35a4.94,4.94,0,0,1,.47-2.15,3.79,3.79,0,0,1,1.29-1.52,3.15,3.15,0,0,1,1.79-.55,3,3,0,0,1,2.31,1,3.82,3.82,0,0,1,.9,2.65v.44H68.73V322a4.25,4.25,0,0,0,.43,1.91,3.51,3.51,0,0,0,1.2,1.38,2.93,2.93,0,0,0,1.65.49,3.35,3.35,0,0,0,1.45-.28,3,3,0,0,0,1.06-.87l.29.21A3.18,3.18,0,0,1,72,326.16Zm-.16-8.35a2.76,2.76,0,0,0-2.09.92,3.87,3.87,0,0,0-1,2.34h5.89V321a3.61,3.61,0,0,0-.36-1.6,2.88,2.88,0,0,0-1-1.15A2.62,2.62,0,0,0,71.85,317.81Z"/><path class="cls-4" d="M81.8,315.27v2.28h1.93V318H81.8v6a2.33,2.33,0,0,0,.3,1.33,1.08,1.08,0,0,0,1,.43,5.44,5.44,0,0,0,.83-.07l.07.4a2.87,2.87,0,0,1-.88.1,1.56,1.56,0,0,1-1.32-.52,2.66,2.66,0,0,1-.4-1.61V318H79.81v-.42h1.57v-2.28Z"/><path class="cls-4" d="M85.8,314.91a.44.44,0,0,1,.13-.31.38.38,0,0,1,.3-.13.44.44,0,0,1,.44.44.38.38,0,0,1-.13.3.44.44,0,0,1-.31.13.44.44,0,0,1-.43-.43ZM86.45,326H86v-8.45h.43Z"/><path class="cls-4" d="M95.68,321.85a5.18,5.18,0,0,1-.85,3.14,2.72,2.72,0,0,1-2.32,1.17,3.65,3.65,0,0,1-1.71-.39,3.08,3.08,0,0,1-1.18-1.08v4.56H89.2v-11.7h.42v1.5a3.25,3.25,0,0,1,1.18-1.23,3.29,3.29,0,0,1,1.69-.43,2.77,2.77,0,0,1,2.34,1.14,5.22,5.22,0,0,1,.85,3.19Zm-.43-.16a4.88,4.88,0,0,0-.72-2.85,2.35,2.35,0,0,0-2-1,3,3,0,0,0-1.8.55A3.07,3.07,0,0,0,89.62,320v3.95a2.69,2.69,0,0,0,1.08,1.35,3.29,3.29,0,0,0,1.82.48,2.31,2.31,0,0,0,2-1A5.23,5.23,0,0,0,95.25,321.69Z"/><path class="cls-4" d="M97.34,321.61a5,5,0,0,1,.46-2.18,3.62,3.62,0,0,1,1.31-1.5,3.52,3.52,0,0,1,1.92-.54,3.62,3.62,0,0,1,1.91.52,3.53,3.53,0,0,1,1.31,1.49,4.76,4.76,0,0,1,.48,2.16v.38a5,5,0,0,1-.46,2.18,3.58,3.58,0,0,1-6.46,0,4.89,4.89,0,0,1-.47-2.16Zm.42.33a4.4,4.4,0,0,0,.42,1.93,3.19,3.19,0,0,0,1.16,1.37,3,3,0,0,0,1.71.49,2.92,2.92,0,0,0,2.35-1.08,4.21,4.21,0,0,0,.91-2.8v-.24a4.42,4.42,0,0,0-.42-1.92,3.31,3.31,0,0,0-1.17-1.38,3,3,0,0,0-1.69-.5,2.94,2.94,0,0,0-2.36,1.1,4.21,4.21,0,0,0-.91,2.78Z"/><path class="cls-4" d="M106.38,321.69a5.23,5.23,0,0,1,.85-3.16,2.77,2.77,0,0,1,2.34-1.14,3.33,3.33,0,0,1,1.68.43,3.23,3.23,0,0,1,1.18,1.27v-1.54h.43v8.3a3.72,3.72,0,0,1-.86,2.61,3,3,0,0,1-2.34,1A3.33,3.33,0,0,1,106.9,328l.3-.28a3.65,3.65,0,0,0,1.07.95,2.76,2.76,0,0,0,1.38.33,2.6,2.6,0,0,0,2-.79,3.29,3.29,0,0,0,.75-2.23v-1.3a3,3,0,0,1-1.18,1.11,3.64,3.64,0,0,1-1.7.39,2.73,2.73,0,0,1-2.32-1.17,5.35,5.35,0,0,1-.85-3.19Zm.43.16a4.93,4.93,0,0,0,.72,2.85,2.31,2.31,0,0,0,2,1,3.24,3.24,0,0,0,1.82-.49,2.68,2.68,0,0,0,1.06-1.4V320a2.79,2.79,0,0,0-2.87-2.2,2.31,2.31,0,0,0-2,1A5.12,5.12,0,0,0,106.81,321.85Z"/><path class="cls-4" d="M119.28,317.86l-.55-.05a2.48,2.48,0,0,0-1.8.7,3.52,3.52,0,0,0-1,2V326h-.43v-8.45H116v1.75a3.1,3.1,0,0,1,1-1.39,2.75,2.75,0,0,1,1.72-.52,1.65,1.65,0,0,1,.6.09Z"/><path class="cls-4" d="M126.37,326a5.64,5.64,0,0,1-.16-1.55,3.34,3.34,0,0,1-1.37,1.26,4.16,4.16,0,0,1-2,.45,2.73,2.73,0,0,1-1.88-.64,2.22,2.22,0,0,1,.33-3.52,5,5,0,0,1,2.79-.72h2.09v-1.23a2.06,2.06,0,0,0-.67-1.65,2.8,2.8,0,0,0-1.91-.59,3.06,3.06,0,0,0-1.93.6,1.79,1.79,0,0,0-.77,1.47l-.42,0a2.17,2.17,0,0,1,.9-1.75,3.48,3.48,0,0,1,2.22-.72,3.26,3.26,0,0,1,2.17.68,2.44,2.44,0,0,1,.83,1.93v4a5.53,5.53,0,0,0,.22,1.89V326Zm-3.49-.27a3.77,3.77,0,0,0,2.05-.53,3.28,3.28,0,0,0,1.28-1.49v-2h-1.95a4.58,4.58,0,0,0-2.78.72,1.77,1.77,0,0,0-.78,1.46,1.7,1.7,0,0,0,.62,1.32A2.32,2.32,0,0,0,122.88,325.73ZM125.23,314h.52l-1.52,2.08h-.47Z"/><path class="cls-4" d="M130,326v-8h-1.47v-.42H130v-1.24a2.67,2.67,0,0,1,.59-1.82,2,2,0,0,1,1.62-.65,3.28,3.28,0,0,1,1,.13l-.06.41a3.28,3.28,0,0,0-.93-.12,1.68,1.68,0,0,0-1.32.54,2.25,2.25,0,0,0-.48,1.54v1.21h2.24V318h-2.24v8Z"/><path class="cls-4" d="M134.27,314.91a.4.4,0,0,1,.13-.31.38.38,0,0,1,.3-.13.44.44,0,0,1,.44.44.38.38,0,0,1-.13.3.44.44,0,0,1-.31.13.42.42,0,0,1-.3-.13A.38.38,0,0,1,134.27,314.91Zm.64,11.09h-.42v-8.45h.42Z"/><path class="cls-4" d="M140.55,325.73a2.89,2.89,0,0,0,1.9-.61,2.24,2.24,0,0,0,.82-1.68h.42a2.65,2.65,0,0,1-.95,2,3.27,3.27,0,0,1-2.19.75A3.08,3.08,0,0,1,138,325a4.78,4.78,0,0,1-.94-3.12v-.28a4.67,4.67,0,0,1,.94-3.07,3,3,0,0,1,2.5-1.15,3.16,3.16,0,0,1,2.22.81,3,3,0,0,1,.93,2.14h-.42a2.59,2.59,0,0,0-.81-1.84,3,3,0,0,0-4.14.33,4.51,4.51,0,0,0-.8,2.83v.28a4.32,4.32,0,0,0,.81,2.78A2.67,2.67,0,0,0,140.55,325.73Z"/><path class="cls-4" d="M151.27,326a5.64,5.64,0,0,1-.16-1.55,3.34,3.34,0,0,1-1.37,1.26,4.19,4.19,0,0,1-2,.45,2.77,2.77,0,0,1-1.89-.64,2.15,2.15,0,0,1-.71-1.66,2.13,2.13,0,0,1,1-1.86,5,5,0,0,1,2.79-.72h2.09v-1.23a2.06,2.06,0,0,0-.67-1.65,2.8,2.8,0,0,0-1.91-.59,3.06,3.06,0,0,0-1.93.6,1.79,1.79,0,0,0-.77,1.47l-.42,0a2.17,2.17,0,0,1,.9-1.75,3.48,3.48,0,0,1,2.22-.72,3.26,3.26,0,0,1,2.17.68,2.44,2.44,0,0,1,.83,1.93v4a5.28,5.28,0,0,0,.22,1.89V326Zm-3.49-.27a3.74,3.74,0,0,0,2-.53,3.3,3.3,0,0,0,1.29-1.49v-2h-2a4.58,4.58,0,0,0-2.78.72,1.77,1.77,0,0,0-.78,1.46,1.7,1.7,0,0,0,.62,1.32A2.32,2.32,0,0,0,147.78,325.73Z"/><path class="cls-4" d="M153.84,325.62a.44.44,0,0,1,.13-.31.38.38,0,0,1,.3-.13.44.44,0,0,1,.44.44.38.38,0,0,1-.13.3.44.44,0,0,1-.31.13.44.44,0,0,1-.43-.43Zm0-7.52a.44.44,0,0,1,.43-.44.44.44,0,0,1,.31.13.43.43,0,0,1,0,.62.43.43,0,0,1-.31.12.41.41,0,0,1-.3-.12A.42.42,0,0,1,153.88,318.1Z"/><path class="cls-4" d="M165.47,321.13h-3.95V326h-.42V314.62h3.63a4,4,0,0,1,2.72.89,3,3,0,0,1,1,2.4A3.13,3.13,0,0,1,165.9,321l3,4.87V326h-.45Zm-3.95-.42h3.59a2.87,2.87,0,0,0,2.12-.8,2.69,2.69,0,0,0,.81-2,2.61,2.61,0,0,0-.9-2.1,3.62,3.62,0,0,0-2.44-.76h-3.18Z"/><path class="cls-4" d="M170.75,321.61a5,5,0,0,1,.46-2.18,3.57,3.57,0,0,1,1.32-1.5,3.47,3.47,0,0,1,1.92-.54,3.47,3.47,0,0,1,3.22,2,5,5,0,0,1,.48,2.16v.38a5.09,5.09,0,0,1-.46,2.18,3.62,3.62,0,0,1-1.31,1.5,3.68,3.68,0,0,1-3.84,0,3.56,3.56,0,0,1-1.31-1.48,4.76,4.76,0,0,1-.48-2.16Zm.42.33a4.4,4.4,0,0,0,.42,1.93,3.33,3.33,0,0,0,1.16,1.37,3,3,0,0,0,1.71.49,3,3,0,0,0,2.36-1.08,4.26,4.26,0,0,0,.91-2.8v-.24a4.29,4.29,0,0,0-.43-1.92,3.36,3.36,0,0,0-1.16-1.38,3,3,0,0,0-1.69-.5,2.93,2.93,0,0,0-2.36,1.1,4.22,4.22,0,0,0-.92,2.78Z"/><path class="cls-4" d="M186.66,321.85a5.18,5.18,0,0,1-.86,3.14,2.71,2.71,0,0,1-2.32,1.17,3.64,3.64,0,0,1-1.7-.4,3,3,0,0,1-1.18-1.1V326h-.42V314h.42v5.09a3.16,3.16,0,0,1,1.18-1.27,3.22,3.22,0,0,1,1.69-.43,2.74,2.74,0,0,1,2.33,1.14,5.22,5.22,0,0,1,.86,3.19Zm-.44-.16a4.88,4.88,0,0,0-.72-2.85,2.36,2.36,0,0,0-2-1,3,3,0,0,0-1.8.55A3.09,3.09,0,0,0,180.6,320v3.88a2.8,2.8,0,0,0,1.08,1.39,3.23,3.23,0,0,0,1.81.48,2.31,2.31,0,0,0,2-1A5.38,5.38,0,0,0,186.22,321.69Z"/><path class="cls-4" d="M188.31,321.61a5,5,0,0,1,.47-2.18,3.55,3.55,0,0,1,1.31-1.5,3.47,3.47,0,0,1,1.92-.54,3.59,3.59,0,0,1,1.9.52,3.49,3.49,0,0,1,1.32,1.49,4.76,4.76,0,0,1,.48,2.16v.38a5,5,0,0,1-.46,2.18,3.55,3.55,0,0,1-1.31,1.5,3.67,3.67,0,0,1-3.83,0,3.52,3.52,0,0,1-1.32-1.48,5,5,0,0,1-.48-2.16Zm.42.33a4.4,4.4,0,0,0,.42,1.93,3.28,3.28,0,0,0,1.17,1.37,3,3,0,0,0,1.7.49,2.94,2.94,0,0,0,2.36-1.08,4.21,4.21,0,0,0,.91-2.8v-.24a4.42,4.42,0,0,0-.42-1.92,3.31,3.31,0,0,0-1.17-1.38,3,3,0,0,0-1.69-.5,2.93,2.93,0,0,0-2.36,1.1,4.22,4.22,0,0,0-.92,2.78Z"/><path class="cls-4" d="M198.7,315.27v2.28h1.92V318H198.7v6a2.33,2.33,0,0,0,.3,1.33,1.08,1.08,0,0,0,1,.43,5.54,5.54,0,0,0,.83-.07l.07.4a2.87,2.87,0,0,1-.88.1,1.55,1.55,0,0,1-1.32-.52,2.66,2.66,0,0,1-.41-1.61V318h-1.56v-.42h1.56v-2.28Z"/><path class="cls-4" d="M202,321.61a5,5,0,0,1,.47-2.18,3.62,3.62,0,0,1,1.31-1.5,3.5,3.5,0,0,1,1.92-.54,3.59,3.59,0,0,1,1.9.52,3.49,3.49,0,0,1,1.32,1.49,4.76,4.76,0,0,1,.48,2.16v.38a5,5,0,0,1-.46,2.18,3.55,3.55,0,0,1-1.31,1.5,3.67,3.67,0,0,1-3.83,0,3.52,3.52,0,0,1-1.32-1.48A5,5,0,0,1,202,322Zm.43.33a4.4,4.4,0,0,0,.41,1.93,3.28,3.28,0,0,0,1.17,1.37,3,3,0,0,0,1.7.49,2.94,2.94,0,0,0,2.36-1.08,4.21,4.21,0,0,0,.91-2.8v-.24a4.42,4.42,0,0,0-.42-1.92,3.31,3.31,0,0,0-1.17-1.38,3,3,0,0,0-1.69-.5,2.93,2.93,0,0,0-2.36,1.1,4.21,4.21,0,0,0-.91,2.78Z"/></g><g class="cls-3"><path class="cls-4" d="M35.59,345H30.82v5h-1.5V338.62h7v1.23H30.82v3.9h4.77Z"/><path class="cls-4" d="M43,349.16a3,3,0,0,1-2.47,1,2.64,2.64,0,0,1-2.06-.79,3.42,3.42,0,0,1-.72-2.32v-5.5h1.45V347q0,1.92,1.56,1.92A2.17,2.17,0,0,0,43,347.7v-6.15h1.44V350H43Z"/><path class="cls-4" d="M50.09,350.16A3.7,3.7,0,0,1,47.3,349a4.2,4.2,0,0,1-1.08-3v-.27a5,5,0,0,1,.48-2.24A3.76,3.76,0,0,1,48,342a3.41,3.41,0,0,1,1.87-.56,3.17,3.17,0,0,1,2.57,1.09,4.69,4.69,0,0,1,.91,3.11v.6H47.66a3.05,3.05,0,0,0,.73,2,2.32,2.32,0,0,0,1.78.77,2.53,2.53,0,0,0,1.3-.32,3.27,3.27,0,0,0,.93-.82l.88.68A3.55,3.55,0,0,1,50.09,350.16Zm-.18-7.58a1.92,1.92,0,0,0-1.46.63,3.07,3.07,0,0,0-.74,1.79H52v-.11a2.8,2.8,0,0,0-.6-1.71A1.81,1.81,0,0,0,49.91,342.58Z"/><path class="cls-4" d="M56.43,341.55l0,1.06A3.08,3.08,0,0,1,59,341.39c1.78,0,2.69,1,2.7,3V350H60.27v-5.59a2,2,0,0,0-.42-1.36,1.69,1.69,0,0,0-1.28-.43,2.06,2.06,0,0,0-1.23.37,2.51,2.51,0,0,0-.83,1v6H55.06v-8.45Z"/><path class="cls-4" d="M65.85,339.5v2.05h1.58v1.11H65.85v5.25a1.2,1.2,0,0,0,.21.77.92.92,0,0,0,.72.25,3.61,3.61,0,0,0,.69-.09V350a4.38,4.38,0,0,1-1.11.16,1.8,1.8,0,0,1-1.46-.59,2.51,2.51,0,0,1-.49-1.66v-5.25H62.87v-1.11h1.54V339.5Z"/><path class="cls-4" d="M72.62,350.16A3.7,3.7,0,0,1,69.83,349a4.2,4.2,0,0,1-1.08-3v-.27a5,5,0,0,1,.48-2.24A3.76,3.76,0,0,1,70.57,342a3.42,3.42,0,0,1,1.88-.56A3.16,3.16,0,0,1,75,342.48a4.69,4.69,0,0,1,.91,3.11v.6H70.2a3,3,0,0,0,.73,2,2.28,2.28,0,0,0,1.77.77,2.5,2.5,0,0,0,1.3-.32,3.27,3.27,0,0,0,.93-.82l.88.68A3.55,3.55,0,0,1,72.62,350.16Zm-.17-7.58a1.92,1.92,0,0,0-1.47.63,3.13,3.13,0,0,0-.74,1.79h4.24v-.11a2.8,2.8,0,0,0-.6-1.71A1.81,1.81,0,0,0,72.45,342.58Z"/><path class="cls-4" d="M83.52,339.5v2.05h1.57v1.11H83.52v5.25a1.2,1.2,0,0,0,.21.77.92.92,0,0,0,.72.25,3.62,3.62,0,0,0,.68-.09V350a4.38,4.38,0,0,1-1.11.16,1.81,1.81,0,0,1-1.46-.59,2.51,2.51,0,0,1-.49-1.66v-5.25H80.53v-1.11h1.54V339.5Z"/><path class="cls-4" d="M86.79,339.3a.87.87,0,0,1,.21-.59.83.83,0,0,1,.64-.24.82.82,0,0,1,.64.24.83.83,0,0,1,.22.59.78.78,0,0,1-.86.82.82.82,0,0,1-.64-.23A.85.85,0,0,1,86.79,339.3ZM88.35,350H86.91v-8.45h1.44Z"/><path class="cls-4" d="M97.8,345.87a5.07,5.07,0,0,1-.88,3.11,2.84,2.84,0,0,1-2.39,1.18,3.1,3.1,0,0,1-2.42-1v4.07H90.66v-11.7H92l.07.93a3,3,0,0,1,2.46-1.09,2.88,2.88,0,0,1,2.41,1.15,5.11,5.11,0,0,1,.88,3.19Zm-1.44-.17a3.69,3.69,0,0,0-.61-2.25,1.94,1.94,0,0,0-1.67-.83,2.11,2.11,0,0,0-2,1.16v4a2.13,2.13,0,0,0,2,1.16,2,2,0,0,0,1.66-.83A4.13,4.13,0,0,0,96.36,345.7Z"/><path class="cls-4" d="M99.26,345.7a5,5,0,0,1,.49-2.24,3.56,3.56,0,0,1,1.36-1.53,3.68,3.68,0,0,1,2-.54,3.57,3.57,0,0,1,2.8,1.2,4.58,4.58,0,0,1,1.06,3.18v.1a4.94,4.94,0,0,1-.47,2.21,3.54,3.54,0,0,1-1.35,1.53,3.8,3.8,0,0,1-2,.55,3.57,3.57,0,0,1-2.79-1.2,4.58,4.58,0,0,1-1.06-3.16Zm1.45.17a3.62,3.62,0,0,0,.65,2.25,2.1,2.1,0,0,0,1.75.86,2.07,2.07,0,0,0,1.75-.87,4,4,0,0,0,.65-2.41,3.63,3.63,0,0,0-.66-2.26,2.12,2.12,0,0,0-1.76-.86,2.05,2.05,0,0,0-1.72.85A3.92,3.92,0,0,0,100.71,345.87Z"/><path class="cls-4" d="M108.42,345.7a5,5,0,0,1,.92-3.14,3.15,3.15,0,0,1,4.83-.08l.07-.93h1.32v8.25a3.42,3.42,0,0,1-1,2.58,3.59,3.59,0,0,1-2.61.95,4.34,4.34,0,0,1-1.79-.39,3.09,3.09,0,0,1-1.34-1.07l.75-.87a2.82,2.82,0,0,0,2.28,1.15,2.19,2.19,0,0,0,1.64-.6,2.27,2.27,0,0,0,.59-1.67v-.72a3,3,0,0,1-2.37,1,2.88,2.88,0,0,1-2.4-1.2A5.24,5.24,0,0,1,108.42,345.7Zm1.46.17a3.77,3.77,0,0,0,.58,2.24,1.9,1.9,0,0,0,1.64.82,2.12,2.12,0,0,0,2-1.24v-3.86a2.14,2.14,0,0,0-2-1.21,1.9,1.9,0,0,0-1.65.82A4.07,4.07,0,0,0,109.88,345.87Z"/><path class="cls-4" d="M121.83,342.84a5.27,5.27,0,0,0-.71,0,1.9,1.9,0,0,0-1.93,1.21v6h-1.45v-8.45h1.41l0,1a2.27,2.27,0,0,1,2-1.13,1.53,1.53,0,0,1,.64.11Z"/><path class="cls-4" d="M128.38,350a2.73,2.73,0,0,1-.21-.89,3.21,3.21,0,0,1-2.4,1.05,3,3,0,0,1-2.06-.71,2.3,2.3,0,0,1-.8-1.79,2.38,2.38,0,0,1,1-2.05,4.71,4.71,0,0,1,2.82-.73h1.41v-.67a1.65,1.65,0,0,0-.45-1.21,1.84,1.84,0,0,0-1.34-.45,2.06,2.06,0,0,0-1.3.4,1.13,1.13,0,0,0-.52.94h-1.45a2,2,0,0,1,.45-1.22,3,3,0,0,1,1.21-.94,4.13,4.13,0,0,1,1.7-.34,3.31,3.31,0,0,1,2.28.73,2.61,2.61,0,0,1,.86,2V348a4.75,4.75,0,0,0,.3,1.86V350Zm-2.4-1.1a2.61,2.61,0,0,0,1.29-.35,2.16,2.16,0,0,0,.88-.92V345.9H127c-1.78,0-2.66.52-2.66,1.55a1.33,1.33,0,0,0,.45,1.07A1.77,1.77,0,0,0,126,348.9Zm1.33-10.9h1.75L127,340.3H125.8Z"/><path class="cls-4" d="M132.57,350v-7.34h-1.34v-1.11h1.34v-.87a2.84,2.84,0,0,1,.73-2.1,2.71,2.71,0,0,1,2-.74,3.69,3.69,0,0,1,1,.13l-.07,1.16a4.94,4.94,0,0,0-.79-.07,1.42,1.42,0,0,0-1.08.41,1.66,1.66,0,0,0-.38,1.18v.9h1.8v1.11H134V350Z"/><path class="cls-4" d="M137.42,339.3a.83.83,0,0,1,.22-.59.79.79,0,0,1,.63-.24.82.82,0,0,1,.64.24.83.83,0,0,1,.22.59.78.78,0,0,1-.86.82.79.79,0,0,1-.63-.23A.82.82,0,0,1,137.42,339.3ZM139,350h-1.44v-8.45H139Z"/><path class="cls-4" d="M144.69,349a2.11,2.11,0,0,0,1.35-.47,1.67,1.67,0,0,0,.64-1.17h1.37a2.73,2.73,0,0,1-.5,1.38,3.41,3.41,0,0,1-1.23,1,3.59,3.59,0,0,1-1.63.39,3.49,3.49,0,0,1-2.75-1.16,4.57,4.57,0,0,1-1-3.15v-.24a5,5,0,0,1,.46-2.2,3.44,3.44,0,0,1,1.3-1.49,3.71,3.71,0,0,1,2-.53,3.35,3.35,0,0,1,2.36.85,3.08,3.08,0,0,1,1,2.21h-1.37a2,2,0,0,0-.62-1.34,1.89,1.89,0,0,0-1.38-.53,2,2,0,0,0-1.71.79,3.74,3.74,0,0,0-.6,2.29v.28a3.67,3.67,0,0,0,.6,2.25A2,2,0,0,0,144.69,349Z"/><path class="cls-4" d="M154.89,350a3.1,3.1,0,0,1-.2-.89,3.23,3.23,0,0,1-2.41,1.05,3,3,0,0,1-2.05-.71,2.3,2.3,0,0,1-.8-1.79,2.38,2.38,0,0,1,1-2.05,4.72,4.72,0,0,1,2.83-.73h1.4v-.67a1.65,1.65,0,0,0-.45-1.21,1.81,1.81,0,0,0-1.33-.45,2.06,2.06,0,0,0-1.3.4,1.15,1.15,0,0,0-.53.94H149.6a2,2,0,0,1,.45-1.22,3.05,3.05,0,0,1,1.22-.94,4.08,4.08,0,0,1,1.69-.34,3.33,3.33,0,0,1,2.29.73,2.65,2.65,0,0,1,.86,2V348a4.75,4.75,0,0,0,.3,1.86V350Zm-2.4-1.1a2.55,2.55,0,0,0,1.29-.35,2.1,2.1,0,0,0,.88-.92V345.9h-1.13c-1.77,0-2.65.52-2.65,1.55a1.33,1.33,0,0,0,.45,1.07A1.76,1.76,0,0,0,152.49,348.9Z"/><path class="cls-4" d="M158.33,349.24a.87.87,0,0,1,.22-.62.9.9,0,0,1,1.57.62.81.81,0,0,1-.23.6,1,1,0,0,1-1.34,0A.84.84,0,0,1,158.33,349.24Zm0-6.9a.89.89,0,0,1,.22-.62.84.84,0,0,1,.67-.25.83.83,0,0,1,.9.87.84.84,0,0,1-.23.61.89.89,0,0,1-.67.24.87.87,0,0,1-.67-.24A.88.88,0,0,1,158.34,342.34Z"/><path class="cls-4" d="M170.61,345.4h-2.67V350h-1.51V338.62h3.77a4.46,4.46,0,0,1,3,.88,3.15,3.15,0,0,1,1,2.55,3,3,0,0,1-.58,1.85,3.44,3.44,0,0,1-1.59,1.18l2.67,4.83V350h-1.61Zm-2.67-1.23h2.3a2.58,2.58,0,0,0,1.78-.58,2,2,0,0,0,.66-1.55,2.07,2.07,0,0,0-.63-1.62,2.71,2.71,0,0,0-1.82-.57h-2.29Z"/><path class="cls-4" d="M175.68,345.7a5,5,0,0,1,.49-2.24,3.62,3.62,0,0,1,1.36-1.53,3.69,3.69,0,0,1,2-.54,3.55,3.55,0,0,1,2.79,1.2,4.58,4.58,0,0,1,1.07,3.18v.1a5,5,0,0,1-.48,2.21,3.47,3.47,0,0,1-1.35,1.53,3.8,3.8,0,0,1-2,.55,3.55,3.55,0,0,1-2.78-1.2,4.58,4.58,0,0,1-1.07-3.16Zm1.45.17a3.56,3.56,0,0,0,.66,2.25,2.19,2.19,0,0,0,3.49,0,4,4,0,0,0,.65-2.41,3.63,3.63,0,0,0-.66-2.26,2.11,2.11,0,0,0-1.75-.86,2.07,2.07,0,0,0-1.73.85A3.92,3.92,0,0,0,177.13,345.87Z"/><path class="cls-4" d="M192.34,345.87a5,5,0,0,1-.89,3.11,2.85,2.85,0,0,1-2.39,1.18,2.92,2.92,0,0,1-2.47-1.14l-.07,1h-1.33V338h1.44v4.48a2.93,2.93,0,0,1,2.42-1.09,2.86,2.86,0,0,1,2.41,1.16,5.16,5.16,0,0,1,.88,3.19Zm-1.44-.17a3.92,3.92,0,0,0-.57-2.28,1.9,1.9,0,0,0-1.64-.8,2.12,2.12,0,0,0-2.06,1.33v3.65a2.19,2.19,0,0,0,2.07,1.33,1.88,1.88,0,0,0,1.62-.81A4.09,4.09,0,0,0,190.9,345.7Z"/><path class="cls-4" d="M193.78,345.7a5,5,0,0,1,.49-2.24,3.62,3.62,0,0,1,1.36-1.53,3.69,3.69,0,0,1,2-.54,3.55,3.55,0,0,1,2.79,1.2,4.58,4.58,0,0,1,1.07,3.18v.1a5,5,0,0,1-.48,2.21,3.47,3.47,0,0,1-1.35,1.53,3.77,3.77,0,0,1-2,.55,3.55,3.55,0,0,1-2.78-1.2,4.58,4.58,0,0,1-1.07-3.16Zm1.45.17a3.56,3.56,0,0,0,.66,2.25,2.19,2.19,0,0,0,3.49,0,4,4,0,0,0,.65-2.41,3.63,3.63,0,0,0-.66-2.26,2.1,2.1,0,0,0-1.75-.86,2.07,2.07,0,0,0-1.73.85A3.92,3.92,0,0,0,195.23,345.87Z"/><path class="cls-4" d="M205.25,339.5v2.05h1.58v1.11h-1.58v5.25a1.2,1.2,0,0,0,.21.77.92.92,0,0,0,.72.25,3.61,3.61,0,0,0,.69-.09V350a4.38,4.38,0,0,1-1.11.16,1.79,1.79,0,0,1-1.46-.59,2.51,2.51,0,0,1-.5-1.66v-5.25h-1.53v-1.11h1.53V339.5Z"/><path class="cls-4" d="M208,345.7a5.08,5.08,0,0,1,.48-2.24,3.6,3.6,0,0,1,3.35-2.07,3.59,3.59,0,0,1,2.8,1.2,4.58,4.58,0,0,1,1.06,3.18v.1a5.08,5.08,0,0,1-.47,2.21,3.6,3.6,0,0,1-1.35,1.53,3.8,3.8,0,0,1-2,.55A3.55,3.55,0,0,1,209,349,4.58,4.58,0,0,1,208,345.8Zm1.45.17a3.62,3.62,0,0,0,.65,2.25,2.1,2.1,0,0,0,1.75.86,2.07,2.07,0,0,0,1.75-.87,4,4,0,0,0,.65-2.41,3.63,3.63,0,0,0-.66-2.26,2.12,2.12,0,0,0-1.76-.86,2.05,2.05,0,0,0-1.72.85A3.92,3.92,0,0,0,209.43,345.87Z"/></g><g class="cls-3"><path class="cls-4" d="M35.86,369.35h-4.5V374H29V362.62h7.4v1.9H31.36v2.94h4.5Z"/><path class="cls-4" d="M42.52,373.14a2.8,2.8,0,0,1-2.31,1,2.65,2.65,0,0,1-2.07-.78,3.34,3.34,0,0,1-.73-2.29v-5.54h2.25V371c0,.89.4,1.33,1.21,1.33a1.65,1.65,0,0,0,1.58-.8v-6h2.26V374H42.59Z"/><path class="cls-4" d="M50.3,374.16a4.14,4.14,0,0,1-3-1.14,4.08,4.08,0,0,1-1.17-3v-.22a5.09,5.09,0,0,1,.49-2.28,3.63,3.63,0,0,1,1.4-1.55,3.9,3.9,0,0,1,2-.54,3.53,3.53,0,0,1,2.74,1.09,4.48,4.48,0,0,1,1,3.11v.92H48.4a2.1,2.1,0,0,0,.66,1.33,2,2,0,0,0,1.39.5,2.44,2.44,0,0,0,2-.95l1.11,1.24a3.36,3.36,0,0,1-1.37,1.12A4.51,4.51,0,0,1,50.3,374.16Zm-.25-7a1.39,1.39,0,0,0-1.09.46,2.33,2.33,0,0,0-.54,1.3h3.14v-.18a1.7,1.7,0,0,0-.4-1.17A1.47,1.47,0,0,0,50.05,367.21Z"/><path class="cls-4" d="M57.14,365.55l.07,1a3,3,0,0,1,2.43-1.13,2.44,2.44,0,0,1,2,.79,3.67,3.67,0,0,1,.67,2.36V374H60.05v-5.41a1.45,1.45,0,0,0-.31-1,1.38,1.38,0,0,0-1-.32,1.56,1.56,0,0,0-1.43.81v6H55v-8.45Z"/><path class="cls-4" d="M66.73,363.47v2.08h1.44v1.65H66.73v4.22a1,1,0,0,0,.18.67.86.86,0,0,0,.68.21,3.4,3.4,0,0,0,.67-.06V374a4.55,4.55,0,0,1-1.37.21,2.16,2.16,0,0,1-2.42-2.4V367.2H63.23v-1.65h1.24v-2.08Z"/><path class="cls-4" d="M73.32,374.16a4.16,4.16,0,0,1-3-1.14,4.08,4.08,0,0,1-1.17-3v-.22a5.09,5.09,0,0,1,.5-2.28A3.67,3.67,0,0,1,71,365.93a3.93,3.93,0,0,1,2.06-.54,3.49,3.49,0,0,1,2.73,1.09,4.49,4.49,0,0,1,1,3.11v.92H71.41a2.2,2.2,0,0,0,.66,1.33,2,2,0,0,0,1.4.5,2.44,2.44,0,0,0,2-.95l1.11,1.24a3.33,3.33,0,0,1-1.38,1.12A4.5,4.5,0,0,1,73.32,374.16Zm-.26-7a1.39,1.39,0,0,0-1.09.46,2.32,2.32,0,0,0-.53,1.3h3.14v-.18a1.71,1.71,0,0,0-.41-1.17A1.47,1.47,0,0,0,73.06,367.21Z"/><path class="cls-4" d="M84.77,363.47v2.08h1.44v1.65H84.77v4.22a1,1,0,0,0,.18.67.85.85,0,0,0,.68.21,3.4,3.4,0,0,0,.67-.06V374a4.55,4.55,0,0,1-1.37.21,2.16,2.16,0,0,1-2.42-2.4V367.2H81.27v-1.65h1.24v-2.08Z"/><path class="cls-4" d="M87.45,363.36a1.15,1.15,0,0,1,.34-.84,1.5,1.5,0,0,1,1.85,0,1.21,1.21,0,0,1,0,1.68,1.3,1.3,0,0,1-.92.33,1.28,1.28,0,0,1-.92-.33A1.12,1.12,0,0,1,87.45,363.36ZM89.85,374H87.59v-8.45h2.26Z"/><path class="cls-4" d="M99.32,369.85a5.08,5.08,0,0,1-.89,3.13A2.85,2.85,0,0,1,96,374.16a2.63,2.63,0,0,1-2.07-.89v4H91.71v-11.7H93.8l.08.83a2.65,2.65,0,0,1,2.14-1,2.86,2.86,0,0,1,2.43,1.16,5.18,5.18,0,0,1,.87,3.18Zm-2.26-.16a3.29,3.29,0,0,0-.42-1.82,1.34,1.34,0,0,0-1.21-.64A1.47,1.47,0,0,0,94,368v3.46a1.5,1.5,0,0,0,1.48.84C96.52,372.34,97.06,371.45,97.06,369.69Z"/><path class="cls-4" d="M100.37,369.7a5.09,5.09,0,0,1,.48-2.25,3.55,3.55,0,0,1,1.4-1.52,4,4,0,0,1,2.11-.54,3.83,3.83,0,0,1,2.79,1.05,4.19,4.19,0,0,1,1.21,2.84l0,.58a4.42,4.42,0,0,1-1.09,3.12,3.8,3.8,0,0,1-2.91,1.18,3.76,3.76,0,0,1-2.92-1.18,4.47,4.47,0,0,1-1.09-3.18Zm2.25.16a3.18,3.18,0,0,0,.46,1.84,1.63,1.63,0,0,0,2.58,0,3.54,3.54,0,0,0,.46-2,3.17,3.17,0,0,0-.46-1.83,1.51,1.51,0,0,0-1.3-.65,1.48,1.48,0,0,0-1.28.65A3.51,3.51,0,0,0,102.62,369.86Z"/><path class="cls-4" d="M109.44,369.71a5,5,0,0,1,.92-3.13,3,3,0,0,1,2.5-1.19,2.62,2.62,0,0,1,2.16.95l.1-.79h2v8.17a3.58,3.58,0,0,1-.5,1.93,3.26,3.26,0,0,1-1.42,1.25,5.07,5.07,0,0,1-2.14.43,4.76,4.76,0,0,1-1.81-.37,3.24,3.24,0,0,1-1.34-1l1-1.38a2.67,2.67,0,0,0,2,.95,2,2,0,0,0,1.4-.48,1.8,1.8,0,0,0,.5-1.36v-.46a2.62,2.62,0,0,1-2.06.89,3,3,0,0,1-2.46-1.2,4.92,4.92,0,0,1-.94-3.16Zm2.26.17a3,3,0,0,0,.46,1.8,1.45,1.45,0,0,0,1.26.66,1.57,1.57,0,0,0,1.48-.78V368a1.55,1.55,0,0,0-1.46-.77,1.49,1.49,0,0,0-1.28.66A3.48,3.48,0,0,0,111.7,369.88Z"/><path class="cls-4" d="M123.65,367.66a6.44,6.44,0,0,0-.81-.06,1.64,1.64,0,0,0-1.68.87V374H118.9v-8.45H121l.06,1a2.11,2.11,0,0,1,1.89-1.16,2.28,2.28,0,0,1,.7.1Z"/><path class="cls-4" d="M129.63,374a2.44,2.44,0,0,1-.22-.76,2.75,2.75,0,0,1-2.14.92,3,3,0,0,1-2.06-.72,2.33,2.33,0,0,1-.81-1.82,2.4,2.4,0,0,1,1-2.06,4.9,4.9,0,0,1,2.88-.72h1v-.49a1.41,1.41,0,0,0-.3-.94,1.2,1.2,0,0,0-.95-.35,1.28,1.28,0,0,0-.89.28.92.92,0,0,0-.33.75h-2.25a2.26,2.26,0,0,1,.45-1.36,2.91,2.91,0,0,1,1.28-1,4.61,4.61,0,0,1,1.86-.36,3.66,3.66,0,0,1,2.48.79,2.73,2.73,0,0,1,.92,2.2v3.67a4.1,4.1,0,0,0,.33,1.82V374Zm-1.86-1.57a1.92,1.92,0,0,0,.92-.22,1.44,1.44,0,0,0,.62-.6v-1.45h-.84c-1.13,0-1.73.39-1.81,1.17v.13a.91.91,0,0,0,.29.7A1.18,1.18,0,0,0,127.77,372.43Zm.85-10.43h2.47l-2.17,2.42h-1.83Z"/><path class="cls-4" d="M133.93,374v-6.8h-1.26v-1.65h1.26v-.72a2.9,2.9,0,0,1,.82-2.21,3.15,3.15,0,0,1,2.28-.78,5.49,5.49,0,0,1,1.15.15l0,1.75a3.34,3.34,0,0,0-.69-.07c-.85,0-1.27.4-1.27,1.2v.68h1.68v1.65H136.2V374Z"/><path class="cls-4" d="M139,363.36a1.11,1.11,0,0,1,.34-.84,1.5,1.5,0,0,1,1.85,0,1.11,1.11,0,0,1,.34.84,1.08,1.08,0,0,1-.35.84,1.26,1.26,0,0,1-.91.33,1.28,1.28,0,0,1-.92-.33A1.12,1.12,0,0,1,139,363.36Zm2.4,10.64h-2.27v-8.45h2.27Z"/><path class="cls-4" d="M146.8,372.34a1.49,1.49,0,0,0,1-.35,1.2,1.2,0,0,0,.41-.91h2.11a2.88,2.88,0,0,1-.46,1.57,3.05,3.05,0,0,1-1.27,1.11,4,4,0,0,1-1.77.4A3.69,3.69,0,0,1,144,373a4.58,4.58,0,0,1-1-3.18v-.15a4.49,4.49,0,0,1,1-3.12,3.63,3.63,0,0,1,2.85-1.16,3.55,3.55,0,0,1,2.54.9,3.2,3.2,0,0,1,1,2.41h-2.11a1.58,1.58,0,0,0-.41-1.08,1.36,1.36,0,0,0-1-.41,1.34,1.34,0,0,0-1.19.58,3.29,3.29,0,0,0-.4,1.86v.24a3.4,3.4,0,0,0,.39,1.87A1.37,1.37,0,0,0,146.8,372.34Z"/><path class="cls-4" d="M156.53,374a2.73,2.73,0,0,1-.23-.76,2.71,2.71,0,0,1-2.13.92,3,3,0,0,1-2.06-.72,2.33,2.33,0,0,1-.81-1.82,2.4,2.4,0,0,1,1-2.06,4.9,4.9,0,0,1,2.88-.72h1v-.49a1.41,1.41,0,0,0-.3-.94,1.2,1.2,0,0,0-.95-.35,1.28,1.28,0,0,0-.89.28.92.92,0,0,0-.33.75h-2.26a2.28,2.28,0,0,1,.46-1.36,2.91,2.91,0,0,1,1.28-1,4.61,4.61,0,0,1,1.86-.36,3.66,3.66,0,0,1,2.48.79,2.73,2.73,0,0,1,.92,2.2v3.67a4,4,0,0,0,.33,1.82V374Zm-1.87-1.57a2,2,0,0,0,.93-.22,1.44,1.44,0,0,0,.62-.6v-1.45h-.84c-1.13,0-1.73.39-1.81,1.17v.13a.92.92,0,0,0,.3.7A1.17,1.17,0,0,0,154.66,372.43Z"/><path class="cls-4" d="M160.32,366.49a1.12,1.12,0,0,1,.36-.87,1.4,1.4,0,0,1,1.83,0,1.13,1.13,0,0,1,.37.87,1.18,1.18,0,0,1-.36.87,1.32,1.32,0,0,1-.93.33,1.29,1.29,0,0,1-.91-.33A1.14,1.14,0,0,1,160.32,366.49Zm0,6.4a1.12,1.12,0,0,1,.36-.87,1.4,1.4,0,0,1,1.83,0,1.21,1.21,0,0,1,0,1.73,1.29,1.29,0,0,1-.93.34,1.25,1.25,0,0,1-.91-.34A1.1,1.1,0,0,1,160.32,372.89Z"/><path class="cls-4" d="M173.07,369.84H171.2V374h-2.34V362.62h4.23a4.78,4.78,0,0,1,3.11.9,3.13,3.13,0,0,1,1.09,2.54,3.17,3.17,0,0,1-2,3.18l2.46,4.65V374H175.2Zm-1.87-1.9h1.89a1.93,1.93,0,0,0,1.37-.45,1.62,1.62,0,0,0,.49-1.24,1.75,1.75,0,0,0-.46-1.27,1.93,1.93,0,0,0-1.4-.46H171.2Z"/><path class="cls-4" d="M178.57,369.7a5.09,5.09,0,0,1,.48-2.25,3.61,3.61,0,0,1,1.4-1.52,4.06,4.06,0,0,1,2.11-.54,3.87,3.87,0,0,1,2.8,1.05,4.18,4.18,0,0,1,1.2,2.84l0,.58a4.38,4.38,0,0,1-1.09,3.12,4.19,4.19,0,0,1-5.83,0,4.47,4.47,0,0,1-1.09-3.18Zm2.26.16a3.19,3.19,0,0,0,.45,1.84,1.63,1.63,0,0,0,2.58,0,3.46,3.46,0,0,0,.46-2,3.09,3.09,0,0,0-.46-1.83,1.51,1.51,0,0,0-1.3-.65,1.48,1.48,0,0,0-1.28.65A3.52,3.52,0,0,0,180.83,369.86Z"/><path class="cls-4" d="M195.59,369.85a5.11,5.11,0,0,1-.87,3.17,2.88,2.88,0,0,1-2.42,1.14,2.66,2.66,0,0,1-2.2-1.06l-.1.9h-2V362h2.26v4.3a2.58,2.58,0,0,1,2.05-.91,2.91,2.91,0,0,1,2.43,1.14,5.16,5.16,0,0,1,.88,3.2Zm-2.26-.16a3.34,3.34,0,0,0-.41-1.87,1.35,1.35,0,0,0-1.21-.59,1.48,1.48,0,0,0-1.48.88v3.34a1.5,1.5,0,0,0,1.5.89,1.39,1.39,0,0,0,1.43-1.08A5.54,5.54,0,0,0,193.33,369.69Z"/><path class="cls-4" d="M196.62,369.7a5.1,5.1,0,0,1,.49-2.25,3.59,3.59,0,0,1,1.39-1.52,4.08,4.08,0,0,1,2.12-.54,3.83,3.83,0,0,1,2.79,1.05,4.23,4.23,0,0,1,1.21,2.84v.58a4.42,4.42,0,0,1-1.08,3.12,4.2,4.2,0,0,1-5.84,0,4.51,4.51,0,0,1-1.09-3.18Zm2.26.16a3.11,3.11,0,0,0,.46,1.84,1.62,1.62,0,0,0,2.57,0,3.46,3.46,0,0,0,.47-2,3.09,3.09,0,0,0-.47-1.83,1.49,1.49,0,0,0-1.29-.65,1.46,1.46,0,0,0-1.28.65A3.43,3.43,0,0,0,198.88,369.86Z"/><path class="cls-4" d="M208.73,363.47v2.08h1.44v1.65h-1.44v4.22a1,1,0,0,0,.18.67.86.86,0,0,0,.68.21,3.4,3.4,0,0,0,.67-.06V374a4.55,4.55,0,0,1-1.37.21,2.16,2.16,0,0,1-2.42-2.4V367.2h-1.24v-1.65h1.24v-2.08Z"/><path class="cls-4" d="M210.84,369.7a5,5,0,0,1,.49-2.25,3.59,3.59,0,0,1,1.39-1.52,4.08,4.08,0,0,1,2.12-.54,3.83,3.83,0,0,1,2.79,1.05,4.23,4.23,0,0,1,1.21,2.84v.58a4.42,4.42,0,0,1-1.08,3.12,4.2,4.2,0,0,1-5.84,0,4.51,4.51,0,0,1-1.09-3.18Zm2.26.16a3.19,3.19,0,0,0,.45,1.84,1.53,1.53,0,0,0,1.3.64,1.48,1.48,0,0,0,1.28-.63,3.46,3.46,0,0,0,.46-2,3.09,3.09,0,0,0-.46-1.83,1.61,1.61,0,0,0-2.58,0A3.52,3.52,0,0,0,213.1,369.86Z"/></g><g class="cls-3"><path class="cls-4" d="M35.86,393.35h-4.5V398H29V386.62h7.4v1.9H31.36v2.94h4.5Z"/><path class="cls-4" d="M42.52,397.14a2.8,2.8,0,0,1-2.31,1,2.65,2.65,0,0,1-2.07-.78,3.34,3.34,0,0,1-.73-2.29v-5.54h2.25V395c0,.89.4,1.33,1.21,1.33a1.65,1.65,0,0,0,1.58-.8v-6h2.26V398H42.59Z"/><path class="cls-4" d="M50.3,398.16a4.14,4.14,0,0,1-3-1.14,4.08,4.08,0,0,1-1.17-3v-.22a5.09,5.09,0,0,1,.49-2.28,3.63,3.63,0,0,1,1.4-1.55,3.9,3.9,0,0,1,2-.54,3.53,3.53,0,0,1,2.74,1.09,4.48,4.48,0,0,1,1,3.11v.92H48.4a2.1,2.1,0,0,0,.66,1.33,2,2,0,0,0,1.39.5,2.44,2.44,0,0,0,2-.95l1.11,1.24a3.36,3.36,0,0,1-1.37,1.12A4.51,4.51,0,0,1,50.3,398.16Zm-.25-7a1.39,1.39,0,0,0-1.09.46,2.33,2.33,0,0,0-.54,1.3h3.14v-.18a1.7,1.7,0,0,0-.4-1.17A1.47,1.47,0,0,0,50.05,391.21Z"/><path class="cls-4" d="M57.14,389.55l.07,1a3,3,0,0,1,2.43-1.13,2.44,2.44,0,0,1,2,.79,3.67,3.67,0,0,1,.67,2.36V398H60.05v-5.41a1.45,1.45,0,0,0-.31-1,1.38,1.38,0,0,0-1-.32,1.56,1.56,0,0,0-1.43.81v6H55v-8.45Z"/><path class="cls-4" d="M66.73,387.47v2.08h1.44v1.65H66.73v4.22a1,1,0,0,0,.18.67.86.86,0,0,0,.68.21,3.4,3.4,0,0,0,.67-.06V398a4.55,4.55,0,0,1-1.37.21,2.16,2.16,0,0,1-2.42-2.4V391.2H63.23v-1.65h1.24v-2.08Z"/><path class="cls-4" d="M73.32,398.16a4.16,4.16,0,0,1-3-1.14,4.08,4.08,0,0,1-1.17-3v-.22a5.09,5.09,0,0,1,.5-2.28A3.67,3.67,0,0,1,71,389.93a3.93,3.93,0,0,1,2.06-.54,3.49,3.49,0,0,1,2.73,1.09,4.49,4.49,0,0,1,1,3.11v.92H71.41a2.2,2.2,0,0,0,.66,1.33,2,2,0,0,0,1.4.5,2.44,2.44,0,0,0,2-.95l1.11,1.24a3.33,3.33,0,0,1-1.38,1.12A4.5,4.5,0,0,1,73.32,398.16Zm-.26-7a1.39,1.39,0,0,0-1.09.46,2.32,2.32,0,0,0-.53,1.3h3.14v-.18a1.71,1.71,0,0,0-.41-1.17A1.47,1.47,0,0,0,73.06,391.21Z"/><path class="cls-4" d="M84.77,387.47v2.08h1.44v1.65H84.77v4.22a1,1,0,0,0,.18.67.85.85,0,0,0,.68.21,3.4,3.4,0,0,0,.67-.06V398a4.55,4.55,0,0,1-1.37.21,2.16,2.16,0,0,1-2.42-2.4V391.2H81.27v-1.65h1.24v-2.08Z"/><path class="cls-4" d="M87.45,387.36a1.15,1.15,0,0,1,.34-.84,1.5,1.5,0,0,1,1.85,0,1.21,1.21,0,0,1,0,1.68,1.3,1.3,0,0,1-.92.33,1.28,1.28,0,0,1-.92-.33A1.12,1.12,0,0,1,87.45,387.36ZM89.85,398H87.59v-8.45h2.26Z"/><path class="cls-4" d="M99.32,393.85a5.08,5.08,0,0,1-.89,3.13A2.85,2.85,0,0,1,96,398.16a2.63,2.63,0,0,1-2.07-.89v4H91.71v-11.7H93.8l.08.83a2.65,2.65,0,0,1,2.14-1,2.86,2.86,0,0,1,2.43,1.16,5.18,5.18,0,0,1,.87,3.18Zm-2.26-.16a3.29,3.29,0,0,0-.42-1.82,1.34,1.34,0,0,0-1.21-.64A1.47,1.47,0,0,0,94,392v3.46a1.5,1.5,0,0,0,1.48.84C96.52,396.34,97.06,395.45,97.06,393.69Z"/><path class="cls-4" d="M100.37,393.7a5.09,5.09,0,0,1,.48-2.25,3.55,3.55,0,0,1,1.4-1.52,4,4,0,0,1,2.11-.54,3.83,3.83,0,0,1,2.79,1.05,4.19,4.19,0,0,1,1.21,2.84l0,.58a4.42,4.42,0,0,1-1.09,3.12,3.8,3.8,0,0,1-2.91,1.18,3.76,3.76,0,0,1-2.92-1.18,4.47,4.47,0,0,1-1.09-3.18Zm2.25.16a3.18,3.18,0,0,0,.46,1.84,1.63,1.63,0,0,0,2.58,0,3.54,3.54,0,0,0,.46-2,3.17,3.17,0,0,0-.46-1.83,1.51,1.51,0,0,0-1.3-.65,1.48,1.48,0,0,0-1.28.65A3.51,3.51,0,0,0,102.62,393.86Z"/><path class="cls-4" d="M109.44,393.71a5,5,0,0,1,.92-3.13,3,3,0,0,1,2.5-1.19,2.62,2.62,0,0,1,2.16.95l.1-.79h2v8.17a3.58,3.58,0,0,1-.5,1.93,3.26,3.26,0,0,1-1.42,1.25,5.07,5.07,0,0,1-2.14.43,4.76,4.76,0,0,1-1.81-.37,3.24,3.24,0,0,1-1.34-1l1-1.38a2.67,2.67,0,0,0,2,.95,2,2,0,0,0,1.4-.48,1.8,1.8,0,0,0,.5-1.36v-.46a2.62,2.62,0,0,1-2.06.89,3,3,0,0,1-2.46-1.2,4.92,4.92,0,0,1-.94-3.16Zm2.26.17a3,3,0,0,0,.46,1.8,1.45,1.45,0,0,0,1.26.66,1.57,1.57,0,0,0,1.48-.78V392a1.55,1.55,0,0,0-1.46-.77,1.49,1.49,0,0,0-1.28.66A3.48,3.48,0,0,0,111.7,393.88Z"/><path class="cls-4" d="M123.65,391.66a6.44,6.44,0,0,0-.81-.06,1.64,1.64,0,0,0-1.68.87V398H118.9v-8.45H121l.06,1a2.11,2.11,0,0,1,1.89-1.16,2.28,2.28,0,0,1,.7.1Z"/><path class="cls-4" d="M129.63,398a2.44,2.44,0,0,1-.22-.76,2.75,2.75,0,0,1-2.14.92,3,3,0,0,1-2.06-.72,2.33,2.33,0,0,1-.81-1.82,2.4,2.4,0,0,1,1-2.06,4.9,4.9,0,0,1,2.88-.72h1v-.49a1.41,1.41,0,0,0-.3-.94,1.2,1.2,0,0,0-.95-.35,1.28,1.28,0,0,0-.89.28.92.92,0,0,0-.33.75h-2.25a2.26,2.26,0,0,1,.45-1.36,2.91,2.91,0,0,1,1.28-1,4.61,4.61,0,0,1,1.86-.36,3.66,3.66,0,0,1,2.48.79,2.73,2.73,0,0,1,.92,2.2v3.67a4.1,4.1,0,0,0,.33,1.82V398Zm-1.86-1.57a1.92,1.92,0,0,0,.92-.22,1.44,1.44,0,0,0,.62-.6v-1.45h-.84c-1.13,0-1.73.39-1.81,1.17v.13a.91.91,0,0,0,.29.7A1.18,1.18,0,0,0,127.77,396.43Zm.85-10.43h2.47l-2.17,2.42h-1.83Z"/><path class="cls-4" d="M133.93,398v-6.8h-1.26v-1.65h1.26v-.72a2.9,2.9,0,0,1,.82-2.21,3.15,3.15,0,0,1,2.28-.78,5.49,5.49,0,0,1,1.15.15l0,1.75a3.34,3.34,0,0,0-.69-.07c-.85,0-1.27.4-1.27,1.2v.68h1.68v1.65H136.2V398Z"/><path class="cls-4" d="M139,387.36a1.11,1.11,0,0,1,.34-.84,1.5,1.5,0,0,1,1.85,0,1.11,1.11,0,0,1,.34.84,1.08,1.08,0,0,1-.35.84,1.26,1.26,0,0,1-.91.33,1.28,1.28,0,0,1-.92-.33A1.12,1.12,0,0,1,139,387.36Zm2.4,10.64h-2.27v-8.45h2.27Z"/><path class="cls-4" d="M146.8,396.34a1.49,1.49,0,0,0,1-.35,1.2,1.2,0,0,0,.41-.91h2.11a2.88,2.88,0,0,1-.46,1.57,3.05,3.05,0,0,1-1.27,1.11,4,4,0,0,1-1.77.4A3.69,3.69,0,0,1,144,397a4.58,4.58,0,0,1-1-3.18v-.15a4.49,4.49,0,0,1,1-3.12,3.63,3.63,0,0,1,2.85-1.16,3.55,3.55,0,0,1,2.54.9,3.2,3.2,0,0,1,1,2.41h-2.11a1.58,1.58,0,0,0-.41-1.08,1.36,1.36,0,0,0-1-.41,1.34,1.34,0,0,0-1.19.58,3.29,3.29,0,0,0-.4,1.86v.24a3.4,3.4,0,0,0,.39,1.87A1.37,1.37,0,0,0,146.8,396.34Z"/><path class="cls-4" d="M156.53,398a2.73,2.73,0,0,1-.23-.76,2.71,2.71,0,0,1-2.13.92,3,3,0,0,1-2.06-.72,2.33,2.33,0,0,1-.81-1.82,2.4,2.4,0,0,1,1-2.06,4.9,4.9,0,0,1,2.88-.72h1v-.49a1.41,1.41,0,0,0-.3-.94,1.2,1.2,0,0,0-.95-.35,1.28,1.28,0,0,0-.89.28.92.92,0,0,0-.33.75h-2.26a2.28,2.28,0,0,1,.46-1.36,2.91,2.91,0,0,1,1.28-1,4.61,4.61,0,0,1,1.86-.36,3.66,3.66,0,0,1,2.48.79,2.73,2.73,0,0,1,.92,2.2v3.67a4,4,0,0,0,.33,1.82V398Zm-1.87-1.57a2,2,0,0,0,.93-.22,1.44,1.44,0,0,0,.62-.6v-1.45h-.84c-1.13,0-1.73.39-1.81,1.17v.13a.92.92,0,0,0,.3.7A1.17,1.17,0,0,0,154.66,396.43Z"/><path class="cls-4" d="M160.32,390.49a1.12,1.12,0,0,1,.36-.87,1.4,1.4,0,0,1,1.83,0,1.13,1.13,0,0,1,.37.87,1.18,1.18,0,0,1-.36.87,1.32,1.32,0,0,1-.93.33,1.29,1.29,0,0,1-.91-.33A1.14,1.14,0,0,1,160.32,390.49Zm0,6.4a1.12,1.12,0,0,1,.36-.87,1.4,1.4,0,0,1,1.83,0,1.21,1.21,0,0,1,0,1.73,1.29,1.29,0,0,1-.93.34,1.25,1.25,0,0,1-.91-.34A1.1,1.1,0,0,1,160.32,396.89Z"/><path class="cls-4" d="M173.07,393.84H171.2V398h-2.34V386.62h4.23a4.78,4.78,0,0,1,3.11.9,3.13,3.13,0,0,1,1.09,2.54,3.17,3.17,0,0,1-2,3.18l2.46,4.65V398H175.2Zm-1.87-1.9h1.89a1.93,1.93,0,0,0,1.37-.45,1.62,1.62,0,0,0,.49-1.24,1.75,1.75,0,0,0-.46-1.27,1.93,1.93,0,0,0-1.4-.46H171.2Z"/><path class="cls-4" d="M178.57,393.7a5.09,5.09,0,0,1,.48-2.25,3.61,3.61,0,0,1,1.4-1.52,4.06,4.06,0,0,1,2.11-.54,3.87,3.87,0,0,1,2.8,1.05,4.18,4.18,0,0,1,1.2,2.84l0,.58a4.38,4.38,0,0,1-1.09,3.12,4.19,4.19,0,0,1-5.83,0,4.47,4.47,0,0,1-1.09-3.18Zm2.26.16a3.19,3.19,0,0,0,.45,1.84,1.63,1.63,0,0,0,2.58,0,3.46,3.46,0,0,0,.46-2,3.09,3.09,0,0,0-.46-1.83,1.51,1.51,0,0,0-1.3-.65,1.48,1.48,0,0,0-1.28.65A3.52,3.52,0,0,0,180.83,393.86Z"/><path class="cls-4" d="M195.59,393.85a5.11,5.11,0,0,1-.87,3.17,2.88,2.88,0,0,1-2.42,1.14,2.66,2.66,0,0,1-2.2-1.06l-.1.9h-2V386h2.26v4.3a2.58,2.58,0,0,1,2.05-.91,2.91,2.91,0,0,1,2.43,1.14,5.16,5.16,0,0,1,.88,3.2Zm-2.26-.16a3.34,3.34,0,0,0-.41-1.87,1.35,1.35,0,0,0-1.21-.59,1.48,1.48,0,0,0-1.48.88v3.34a1.5,1.5,0,0,0,1.5.89,1.39,1.39,0,0,0,1.43-1.08A5.54,5.54,0,0,0,193.33,393.69Z"/><path class="cls-4" d="M196.62,393.7a5.1,5.1,0,0,1,.49-2.25,3.59,3.59,0,0,1,1.39-1.52,4.08,4.08,0,0,1,2.12-.54,3.83,3.83,0,0,1,2.79,1.05,4.23,4.23,0,0,1,1.21,2.84v.58a4.42,4.42,0,0,1-1.08,3.12,4.2,4.2,0,0,1-5.84,0,4.51,4.51,0,0,1-1.09-3.18Zm2.26.16a3.11,3.11,0,0,0,.46,1.84,1.62,1.62,0,0,0,2.57,0,3.46,3.46,0,0,0,.47-2,3.09,3.09,0,0,0-.47-1.83,1.49,1.49,0,0,0-1.29-.65,1.46,1.46,0,0,0-1.28.65A3.43,3.43,0,0,0,198.88,393.86Z"/><path class="cls-4" d="M208.73,387.47v2.08h1.44v1.65h-1.44v4.22a1,1,0,0,0,.18.67.86.86,0,0,0,.68.21,3.4,3.4,0,0,0,.67-.06V398a4.55,4.55,0,0,1-1.37.21,2.16,2.16,0,0,1-2.42-2.4V391.2h-1.24v-1.65h1.24v-2.08Z"/><path class="cls-4" d="M210.84,393.7a5,5,0,0,1,.49-2.25,3.59,3.59,0,0,1,1.39-1.52,4.08,4.08,0,0,1,2.12-.54,3.83,3.83,0,0,1,2.79,1.05,4.23,4.23,0,0,1,1.21,2.84v.58a4.42,4.42,0,0,1-1.08,3.12,4.2,4.2,0,0,1-5.84,0,4.51,4.51,0,0,1-1.09-3.18Zm2.26.16a3.19,3.19,0,0,0,.45,1.84,1.53,1.53,0,0,0,1.3.64,1.48,1.48,0,0,0,1.28-.63,3.46,3.46,0,0,0,.46-2,3.09,3.09,0,0,0-.46-1.83,1.61,1.61,0,0,0-2.58,0A3.52,3.52,0,0,0,213.1,393.86Z"/></g></g></svg>