<svg xmlns="http://www.w3.org/2000/svg" xmlns:xlink="http://www.w3.org/1999/xlink" width="358.343" height="343.344" viewBox="0 0 358.343 343.344"><defs><clipPath id="a"><rect width="20.742" height="15.689" fill="none"/></clipPath></defs><g transform="translate(-46 -40.476)"><g transform="translate(79.013 62.039)" opacity="0.41"><path d="M381.415,251.184a150.794,150.794,0,1,0-295.283,0Z" transform="translate(-82.979 -65.161)" fill="none" stroke="#bb83ff" stroke-linecap="round" stroke-miterlimit="10" stroke-width="4" stroke-dasharray="0 9"/><g transform="translate(10.935)"><line x2="135.012" y2="48.819" transform="translate(0 122.127)" fill="none" stroke="#bb83ff" stroke-linecap="round" stroke-miterlimit="10" stroke-width="4" stroke-dasharray="0 9"/><line x2="101.413" y2="121.392" transform="translate(41.819 41.799)" fill="none" stroke="#bb83ff" stroke-linecap="round" stroke-miterlimit="10" stroke-width="4" stroke-dasharray="0 9"/><line y2="156.356" transform="translate(139.821)" fill="none" stroke="#bb83ff" stroke-linecap="round" stroke-miterlimit="10" stroke-width="4" stroke-dasharray="0 9"/><line x1="92.411" y2="109.34" transform="translate(146.832 41.562)" fill="none" stroke="#bb83ff" stroke-linecap="round" stroke-miterlimit="10" stroke-width="4" stroke-dasharray="0 9"/><line x1="100.578" y2="29.846" transform="translate(186.543 123.995)" fill="none" stroke="#bb83ff" stroke-linecap="round" stroke-miterlimit="10" stroke-width="4" stroke-dasharray="0 9"/></g></g><g transform="translate(46 207.93)"><ellipse cx="179.171" cy="17.267" rx="179.171" ry="17.267" transform="translate(0 141.357)" fill="#bb83ff" style="mix-blend-mode:multiply;isolation:isolate"/><g transform="translate(42.591)"><path d="M353.344,371.925c0,8.144-6.08,14.746-13.578,14.746H129.8c-7.5,0-13.579-6.6-13.579-14.746V242.793c0-8.143,6.08-14.746,13.579-14.746H339.766c7.5,0,13.578,6.6,13.578,14.746Z" transform="translate(-96.123 -228.047)" fill="#47286d"/><rect width="212.441" height="124.632" transform="translate(32.237 13.354)" fill="#31d9e7"/><g transform="translate(0 144.867)"><path d="M96.79,390.318a3.082,3.082,0,0,0-3.082,3.082h0c0,6.568,7.19,11.891,16.06,11.891h248.3c8.87,0,16.06-5.323,16.06-11.891h0a3.081,3.081,0,0,0-3.082-3.082Z" transform="translate(-93.708 -390.318)" fill="#47286d"/><path d="M96.071,390.318a2.362,2.362,0,0,0-2.363,2.362v.72a9.562,9.562,0,0,0,2.062,5.819h276.3a9.566,9.566,0,0,0,2.061-5.819v-.72a2.362,2.362,0,0,0-2.362-2.362Z" transform="translate(-93.708 -390.318)" fill="#fffeff"/><path d="M268.4,397.228H227.931a1.416,1.416,0,0,1-1.416-1.416h0a1.416,1.416,0,0,1,1.416-1.416H268.4a1.417,1.417,0,0,1,1.417,1.416h0A1.417,1.417,0,0,1,268.4,397.228Z" transform="translate(-107.952 -390.755)" fill="#617478"/></g><g transform="translate(32.237 13.354)"><path d="M219.354,243l-89.536,89.536v35.1H146.3L270.936,243Z" transform="translate(-129.818 -243.005)" fill="#16c8d6"/><path d="M160.261,243l-30.443,30.443v23.036L183.3,243Z" transform="translate(-129.818 -243.005)" fill="#16c8d6"/><path d="M326.207,243,201.575,367.637h20.533L346.74,243Z" transform="translate(-137.514 -243.005)" fill="#16c8d6"/><path d="M357.235,284.28l-87.784,87.784H298.5l58.738-58.738Z" transform="translate(-144.794 -247.432)" fill="#16c8d6"/></g></g></g><g transform="translate(296.918 240.794)"><path d="M425.273,276.814v-3.347a3.035,3.035,0,0,0-3.035-3.035H330.1a3.035,3.035,0,0,0-3.035,3.035v3.347h.007V288.4h0v10.55h0v52.547a3.585,3.585,0,0,0,3.584,3.584h91.027a3.585,3.585,0,0,0,3.584-3.584V298.945h0V288.4h0V276.814Z" transform="translate(-327.063 -265.458)" opacity="0.15"/><g transform="translate(4.176)"><path d="M426.361,349.505H335.333a3.585,3.585,0,0,1-3.584-3.584V268.39a3.53,3.53,0,0,1,3.53-3.53h91.136a3.53,3.53,0,0,1,3.53,3.53v77.531A3.585,3.585,0,0,1,426.361,349.505Z" transform="translate(-331.742 -264.86)" fill="#00627e"/><rect width="98.198" height="10.549" transform="translate(0.006 17.964)" fill="#f17781"/><path d="M429.951,271.242h-98.21v-3.348a3.035,3.035,0,0,1,3.035-3.034h92.14a3.035,3.035,0,0,1,3.035,3.034Z" transform="translate(-331.741 -264.86)" fill="#8592a3"/><g transform="translate(5.561 1.469)"><path d="M341.414,268.227a1.722,1.722,0,1,0-1.722,1.722A1.723,1.723,0,0,0,341.414,268.227Z" transform="translate(-337.97 -266.505)" fill="#fd0"/><path d="M348.136,268.227a1.722,1.722,0,1,0-1.722,1.722A1.722,1.722,0,0,0,348.136,268.227Z" transform="translate(-338.691 -266.505)" fill="#fd0"/><path d="M354.858,268.227a1.722,1.722,0,1,0-1.722,1.722A1.722,1.722,0,0,0,354.858,268.227Z" transform="translate(-339.412 -266.505)" fill="#fd0"/></g><g transform="translate(19.004 20.377)"><rect width="56.97" height="5.593" fill="#fff"/><rect width="7.47" height="5.592" transform="translate(49.499 0.001)" fill="#a1a1a1"/><circle cx="1.403" cy="1.403" r="1.403" transform="translate(51.831 1.394)" fill="#fff"/></g><g transform="translate(4.893 10.139)"><path d="M341.289,278.251a2.034,2.034,0,1,0-2.034,2.034A2.034,2.034,0,0,0,341.289,278.251Z" transform="translate(-337.222 -276.217)" fill="#fff"/><path d="M388.528,280.284H347.971a2.034,2.034,0,0,1-2.034-2.034h0a2.034,2.034,0,0,1,2.034-2.034h40.557a2.034,2.034,0,0,1,2.034,2.034h0A2.034,2.034,0,0,1,388.528,280.284Z" transform="translate(-338.157 -276.217)" fill="#fff"/></g><g transform="translate(3.044 33.087)"><g transform="translate(19.058 0.167)"><rect width="51.19" height="18.685" rx="1.842" fill="#fff"/><g transform="translate(4.36 2.171)"><rect width="42.47" height="9.578" rx="1.725" transform="translate(0 4.765)" fill="#8baab7"/><path d="M402.826,306.593H362.409a1.027,1.027,0,0,1-1.027-1.027h0a1.026,1.026,0,0,1,1.027-1.026h40.417a1.026,1.026,0,0,1,1.027,1.026h0A1.027,1.027,0,0,1,402.826,306.593Z" transform="translate(-361.382 -304.541)" fill="#8baab7"/></g></g><g transform="translate(19.058 23.592)"><rect width="51.19" height="18.685" rx="1.842" fill="#fff"/><g transform="translate(4.36 2.171)"><rect width="42.47" height="9.578" rx="1.725" transform="translate(0 4.764)" fill="#8baab7"/><path d="M402.826,332.833H362.409a1.026,1.026,0,0,1-1.027-1.026h0a1.026,1.026,0,0,1,1.027-1.026h40.417a1.026,1.026,0,0,1,1.027,1.026h0A1.026,1.026,0,0,1,402.826,332.833Z" transform="translate(-361.382 -330.781)" fill="#8baab7"/></g></g><g transform="translate(73.631)"><rect width="18.49" height="18.685" rx="2.064" fill="#fff"/><g transform="translate(1.626 1.59)"><g transform="translate(1.774 0.821)"><path d="M434.383,306.528h-7.935a.952.952,0,0,1-.952-.953h0a.953.953,0,0,1,.952-.953h7.935a.953.953,0,0,1,.953.953h0A.952.952,0,0,1,434.383,306.528Z" transform="translate(-421.872 -304.623)" fill="#8baab7"/><rect width="13.464" height="4.645" rx="1.418" transform="translate(0 4.501)" fill="#8baab7"/></g><circle cx="1.774" cy="1.774" r="1.774" fill="#004668"/></g></g><g transform="translate(73.631 23.592)"><rect width="18.49" height="18.685" rx="2.064" fill="#fff"/><g transform="translate(1.626 1.59)"><g transform="translate(1.774 0.821)"><path d="M434.383,332.955h-7.935A.953.953,0,0,1,425.5,332h0a.953.953,0,0,1,.952-.953h7.935a.953.953,0,0,1,.953.953h0A.953.953,0,0,1,434.383,332.955Z" transform="translate(-421.872 -331.049)" fill="#8baab7"/><rect width="13.464" height="4.645" rx="1.418" transform="translate(0 4.502)" fill="#8baab7"/></g><circle cx="1.774" cy="1.774" r="1.774" fill="#004668"/></g></g><g transform="translate(0 3.794)"><path d="M339.218,308.206a2.034,2.034,0,1,0-2.034,2.034A2.034,2.034,0,0,0,339.218,308.206Z" transform="translate(-335.151 -306.172)" fill="#00abdb"/><path d="M339.218,320.362a2.034,2.034,0,1,0-2.034,2.035A2.034,2.034,0,0,0,339.218,320.362Z" transform="translate(-335.151 -307.476)" fill="#00abdb"/><path d="M339.218,332.519a2.034,2.034,0,1,0-2.034,2.034A2.034,2.034,0,0,0,339.218,332.519Z" transform="translate(-335.151 -308.78)" fill="#00abdb"/><path d="M339.218,344.675a2.034,2.034,0,1,0-2.034,2.034A2.034,2.034,0,0,0,339.218,344.675Z" transform="translate(-335.151 -310.083)" fill="#00abdb"/><path d="M350.234,309.552H342.9a1.356,1.356,0,0,1-1.356-1.356h0a1.356,1.356,0,0,1,1.356-1.356h7.331a1.356,1.356,0,0,1,1.356,1.356h0A1.356,1.356,0,0,1,350.234,309.552Z" transform="translate(-335.837 -306.244)" fill="#fff"/><path d="M350.234,321.8H342.9a1.357,1.357,0,0,1-1.356-1.357h0a1.356,1.356,0,0,1,1.356-1.356h7.331a1.356,1.356,0,0,1,1.356,1.356h0A1.357,1.357,0,0,1,350.234,321.8Z" transform="translate(-335.837 -307.557)" fill="#fff"/><path d="M350.234,334.047H342.9a1.356,1.356,0,0,1-1.356-1.356h0a1.356,1.356,0,0,1,1.356-1.356h7.331a1.356,1.356,0,0,1,1.356,1.356h0A1.356,1.356,0,0,1,350.234,334.047Z" transform="translate(-335.837 -308.871)" fill="#fff"/><path d="M350.234,346.3H342.9a1.356,1.356,0,0,1-1.356-1.356h0a1.356,1.356,0,0,1,1.356-1.356h7.331a1.356,1.356,0,0,1,1.356,1.356h0A1.356,1.356,0,0,1,350.234,346.3Z" transform="translate(-335.837 -310.184)" fill="#fff"/></g></g></g></g><g transform="translate(54.793 237.453)"><path d="M144.41,266.69H58.486a2.638,2.638,0,0,0-2.637,2.638v89.385a3.3,3.3,0,0,0,3.3,3.3h84.592a3.3,3.3,0,0,0,3.3-3.3V269.328A2.638,2.638,0,0,0,144.41,266.69Z" transform="translate(-55.849 -261.715)" opacity="0.15"/><g transform="translate(4.176)"><rect width="91.199" height="95.326" rx="3.7" fill="#46494c"/><g transform="translate(0 0)"><path d="M151.726,268.127h-91.2v-4.372a2.638,2.638,0,0,1,2.637-2.637h85.923a2.638,2.638,0,0,1,2.638,2.637Z" transform="translate(-60.527 -261.118)" fill="#0086b5"/><g transform="translate(3.523 1.939)"><path d="M67.6,264.855a1.566,1.566,0,1,0-1.566,1.566A1.565,1.565,0,0,0,67.6,264.855Z" transform="translate(-64.473 -263.29)" fill="#fff69d"/><path d="M73.718,264.855a1.566,1.566,0,1,0-1.566,1.566A1.565,1.565,0,0,0,73.718,264.855Z" transform="translate(-65.129 -263.29)" fill="#fff69d"/><path d="M79.831,264.855a1.566,1.566,0,1,0-1.566,1.566A1.565,1.565,0,0,0,79.831,264.855Z" transform="translate(-65.784 -263.29)" fill="#fff69d"/></g></g><g transform="translate(7.261 13.292)"><path d="M86.034,279.311H70.312a1.653,1.653,0,0,1-1.652-1.653h0a1.653,1.653,0,0,1,1.652-1.652H86.034a1.652,1.652,0,0,1,1.652,1.652h0A1.652,1.652,0,0,1,86.034,279.311Z" transform="translate(-68.66 -276.006)" fill="#f9e478"/><path d="M146.534,279.311H96.88a1.652,1.652,0,0,1-1.652-1.653h0a1.652,1.652,0,0,1,1.652-1.652h49.655a1.653,1.653,0,0,1,1.652,1.652h0A1.653,1.653,0,0,1,146.534,279.311Z" transform="translate(-71.509 -276.006)" fill="#f9e478"/></g><g transform="translate(7.373 23.608)"><path d="M74.126,290.233a2.671,2.671,0,1,0-2.67,2.671A2.671,2.671,0,0,0,74.126,290.233Z" transform="translate(-68.785 -287.562)" fill="#31d9e7"/><path d="M74.126,299.676a2.671,2.671,0,1,0-2.67,2.671A2.671,2.671,0,0,0,74.126,299.676Z" transform="translate(-68.785 -288.575)" fill="#31d9e7"/><path d="M74.126,309.119a2.671,2.671,0,1,0-2.67,2.671A2.67,2.67,0,0,0,74.126,309.119Z" transform="translate(-68.785 -289.588)" fill="#31d9e7"/><g transform="translate(8.163 1.378)"><path d="M111.415,291.692H79.223a1.294,1.294,0,0,1-1.294-1.294h0a1.294,1.294,0,0,1,1.294-1.294h32.192a1.294,1.294,0,0,1,1.294,1.294h0A1.294,1.294,0,0,1,111.415,291.692Z" transform="translate(-77.929 -289.105)" fill="#fff"/><path d="M111.415,301.135H79.223a1.294,1.294,0,0,1-1.294-1.294h0a1.294,1.294,0,0,1,1.294-1.294h32.192a1.294,1.294,0,0,1,1.294,1.294h0A1.294,1.294,0,0,1,111.415,301.135Z" transform="translate(-77.929 -290.118)" fill="#fff"/><path d="M111.415,310.578H79.223a1.294,1.294,0,0,1-1.294-1.294h0a1.293,1.293,0,0,1,1.294-1.294h32.192a1.293,1.293,0,0,1,1.294,1.294h0A1.294,1.294,0,0,1,111.415,310.578Z" transform="translate(-77.929 -291.131)" fill="#fff"/></g><rect width="28.044" height="19.448" rx="2.828" transform="translate(48.41 1.378)" fill="#bb83ff"/></g><g transform="translate(11.128 67.345)"><path d="M140.683,339.057H74.244a1.252,1.252,0,0,1-1.252-1.253h0a1.252,1.252,0,0,1,1.252-1.252h66.439a1.252,1.252,0,0,1,1.252,1.252h0A1.252,1.252,0,0,1,140.683,339.057Z" transform="translate(-72.992 -336.553)" fill="#00a1a5"/><path d="M140.683,344.69H74.244a1.252,1.252,0,0,1-1.252-1.252h0a1.252,1.252,0,0,1,1.252-1.253h66.439a1.252,1.252,0,0,1,1.252,1.253h0A1.252,1.252,0,0,1,140.683,344.69Z" transform="translate(-72.992 -337.157)" fill="#00a1a5"/><path d="M140.683,350.324H74.244a1.252,1.252,0,0,1-1.252-1.253h0a1.252,1.252,0,0,1,1.252-1.252h66.439a1.252,1.252,0,0,1,1.252,1.252h0A1.252,1.252,0,0,1,140.683,350.324Z" transform="translate(-72.992 -337.761)" fill="#00a1a5"/><rect width="68.943" height="2.504" rx="1.252" transform="translate(0 15.088)" fill="#00a1a5"/></g><path d="M131.605,329.915H85.146a3.645,3.645,0,0,1-3.646-3.646h0a3.646,3.646,0,0,1,3.646-3.647h46.46a3.647,3.647,0,0,1,3.646,3.647h0A3.646,3.646,0,0,1,131.605,329.915Z" transform="translate(-62.776 -267.714)" fill="#f17781"/></g></g><g transform="translate(156.939 155.087)"><path d="M297.62,174.429H175.451a5.183,5.183,0,0,0-5.184,5.184V329.592a3.97,3.97,0,0,0,3.97,3.97h124.6a3.97,3.97,0,0,0,3.97-3.97V179.613A5.184,5.184,0,0,0,297.62,174.429Z" transform="translate(-170.267 -169.454)" opacity="0.15"/><g transform="translate(4.176)"><path d="M303.512,327.99h-124.6a3.971,3.971,0,0,1-3.97-3.971V175.82a6.964,6.964,0,0,1,6.964-6.964H300.518a6.964,6.964,0,0,1,6.964,6.964v148.2A3.971,3.971,0,0,1,303.512,327.99Z" transform="translate(-174.945 -168.856)" fill="#f17781"/><path d="M299.516,323.317H184.208a3.22,3.22,0,0,1-3.219-3.22V168.856H302.735V320.1A3.22,3.22,0,0,1,299.516,323.317Z" transform="translate(-175.593 -168.856)" fill="#fff"/><path d="M307.482,182.261H174.945v-8.22a5.184,5.184,0,0,1,5.184-5.184H302.3a5.184,5.184,0,0,1,5.184,5.184Z" transform="translate(-174.945 -168.856)" fill="#47286d"/><rect width="121.878" height="57.667" transform="translate(5.33 54.848)" fill="#f9e478"/><g transform="translate(11.472 78.444)"><path d="M187.944,262.867a.609.609,0,0,1,0-.8l2.6-2.978,1.877-2.155a.609.609,0,0,1,1.068.4V267.6a.608.608,0,0,1-1.068.4l-1.877-2.155Z" transform="translate(-187.795 -256.724)" fill="#fff"/><path d="M309.722,262.068a.609.609,0,0,1,0,.8l-2.6,2.982L305.249,268a.608.608,0,0,1-1.068-.4V257.334a.609.609,0,0,1,1.068-.4l1.877,2.155Z" transform="translate(-200.278 -256.724)" fill="#fff"/></g><g transform="translate(22.785 63.328)"><rect width="24.891" height="29.998" rx="2.938" fill="#701e43"/><path d="M217.607,248.707c.009,1.091,0,9.818-7.754,2.727-7.686-7.029-9.355,15.678-9.384,16.071a2.622,2.622,0,0,0,2.622,2.609h11.548l8.633-.055a2.62,2.62,0,0,0,2.05-2.2l.038-22.7C220.054,239.436,217.579,245.64,217.607,248.707Z" transform="translate(-200.467 -240.117)" fill="#667bb6"/><g transform="translate(31.038)"><rect width="24.891" height="29.998" rx="2.938" transform="translate(0)" fill="#fdf4f9"/><path d="M235.234,242.518v24.751a2.624,2.624,0,0,0,2.624,2.623H257.5a2.609,2.609,0,0,0,1.92-.847l-23.485-28.3A2.605,2.605,0,0,0,235.234,242.518Z" transform="translate(-235.234 -239.894)" fill="#667bb6"/><path d="M257.518,266.648l-17.95-21.659,17.973,0Z" transform="translate(-235.699 -240.349)" fill="#95d1ea"/></g><g transform="translate(62.076)"><rect width="24.891" height="29.998" rx="2.938" fill="#fdf4f9"/><g transform="translate(2.479 3.803)"><path d="M287.695,260.54a6.89,6.89,0,1,1-6.888-6.926A6.909,6.909,0,0,1,287.695,260.54Z" transform="translate(-272.9 -245.078)" fill="#d0d958"/><path d="M293.628,253.462a6.15,6.15,0,1,1-6.149-6.183A6.165,6.165,0,0,1,293.628,253.462Z" transform="translate(-273.695 -244.398)" fill="#701e43"/><path d="M285.077,250.236a6.15,6.15,0,1,1-6.149-6.184A6.167,6.167,0,0,1,285.077,250.236Z" transform="translate(-272.778 -244.052)" fill="#e25028"/></g></g></g><g transform="translate(11.857 21.387)"><path d="M290.868,205.176h-96.46a6.182,6.182,0,0,1-6.182-6.182h0a6.182,6.182,0,0,1,6.182-6.181h96.46a6.182,6.182,0,0,1,6.182,6.181h0A6.182,6.182,0,0,1,290.868,205.176Z" transform="translate(-188.226 -192.812)" fill="#ffc61a"/><g transform="translate(6.927 4.225)"><path d="M291.872,201.457H224.726a1.956,1.956,0,0,1-1.956-1.956h0a1.956,1.956,0,0,1,1.956-1.956h67.146a1.956,1.956,0,0,1,1.956,1.956h0A1.956,1.956,0,0,1,291.872,201.457Z" transform="translate(-198.858 -197.545)" fill="#fff"/><path d="M213.713,201.457H197.941a1.956,1.956,0,0,1-1.956-1.956h0a1.956,1.956,0,0,1,1.956-1.956h15.772a1.956,1.956,0,0,1,1.956,1.956h0A1.956,1.956,0,0,1,213.713,201.457Z" transform="translate(-195.985 -197.545)" fill="#f28e0f"/></g></g><g transform="translate(22.78 99.215)"><path d="M223.951,282.629h-22.17a1.32,1.32,0,0,1-1.319-1.32h0a1.32,1.32,0,0,1,1.319-1.319h22.17a1.319,1.319,0,0,1,1.319,1.319h0A1.319,1.319,0,0,1,223.951,282.629Z" transform="translate(-200.462 -279.99)" fill="#f17781"/><path d="M258.314,282.629h-22.17a1.32,1.32,0,0,1-1.319-1.32h0a1.32,1.32,0,0,1,1.319-1.319h22.17a1.319,1.319,0,0,1,1.319,1.319h0A1.319,1.319,0,0,1,258.314,282.629Z" transform="translate(-204.148 -279.99)" fill="#f17781"/><path d="M293.588,282.629H271.42a1.319,1.319,0,0,1-1.319-1.32h0a1.319,1.319,0,0,1,1.319-1.319h22.169a1.32,1.32,0,0,1,1.319,1.319h0A1.32,1.32,0,0,1,293.588,282.629Z" transform="translate(-207.931 -279.99)" fill="#f17781"/><path d="M1.321,0H23.487a1.321,1.321,0,0,1,1.321,1.321v0a1.321,1.321,0,0,1-1.321,1.321H1.321A1.321,1.321,0,0,1,0,1.321v0A1.321,1.321,0,0,1,1.321,0Z" transform="translate(0 5.361)" fill="#f17781"/><rect width="24.808" height="2.643" rx="1.321" transform="translate(30.678 5.361)" fill="#f17781"/><path d="M1.321,0H23.486a1.321,1.321,0,0,1,1.321,1.321v0a1.321,1.321,0,0,1-1.321,1.321H1.321A1.321,1.321,0,0,1,0,1.321v0A1.321,1.321,0,0,1,1.321,0Z" transform="translate(62.17 5.361)" fill="#f17781"/></g><g transform="translate(11.184 3.27)"><circle cx="3.572" cy="3.572" r="3.572" transform="translate(0 0)" fill="#f9e478"/><path d="M208.564,176.092a3.572,3.572,0,1,0-3.573,3.572A3.573,3.573,0,0,0,208.564,176.092Z" transform="translate(-188.968 -172.519)" fill="#f9e478"/><circle cx="3.572" cy="3.572" r="3.572" transform="translate(24.901 0)" fill="#f9e478"/></g><g transform="translate(17.632 127)"><g clip-path="url(#a)"><rect width="20.742" height="10.057" rx="2.232" transform="translate(0 5.632)" fill="#667bb6"/><path d="M214.081,313.756H196.059a1.322,1.322,0,0,1-1.321-1.322h0a1.322,1.322,0,0,1,1.321-1.321h18.022a1.322,1.322,0,0,1,1.321,1.321h0A1.322,1.322,0,0,1,214.081,313.756Z" transform="translate(-194.699 -311.113)" fill="#f17781"/></g><g transform="translate(25.51)"><rect width="20.743" height="10.057" rx="2.232" transform="translate(0 5.632)" fill="#667bb6"/><path d="M242.656,313.756H224.635a1.321,1.321,0,0,1-1.321-1.322h0a1.321,1.321,0,0,1,1.321-1.321h18.021a1.321,1.321,0,0,1,1.321,1.321h0A1.321,1.321,0,0,1,242.656,313.756Z" transform="translate(-223.274 -311.113)" fill="#f17781"/></g><g transform="translate(51.022)"><rect width="20.74" height="10.057" rx="2.232" transform="translate(0 5.632)" fill="#667bb6"/><path d="M271.232,313.756H253.21a1.322,1.322,0,0,1-1.321-1.322h0a1.322,1.322,0,0,1,1.321-1.321h18.022a1.322,1.322,0,0,1,1.321,1.321h0A1.322,1.322,0,0,1,271.232,313.756Z" transform="translate(-251.851 -311.113)" fill="#f17781"/></g><g transform="translate(76.531)"><rect width="20.743" height="10.057" rx="2.232" transform="translate(0 5.632)" fill="#667bb6"/><path d="M299.807,313.756H281.786a1.321,1.321,0,0,1-1.321-1.322h0a1.321,1.321,0,0,1,1.321-1.321h18.021a1.322,1.322,0,0,1,1.321,1.321h0A1.322,1.322,0,0,1,299.807,313.756Z" transform="translate(-280.425 -311.113)" fill="#f17781"/></g></g></g></g><g transform="translate(56.614 160.043)"><circle cx="25.991" cy="25.991" r="25.991" fill="#fff"/><g transform="translate(14.191 6.761)"><path d="M97.385,193.781a11.8,11.8,0,1,0-18.424,9.765l1.368,9.716,10.509.077,1.357-9.78A11.79,11.79,0,0,0,97.385,193.781Z" transform="translate(-73.786 -181.981)" fill="#ffc61a"/><path d="M87,181.981l-.042,0V213.3l5.293.038,1.357-9.78A11.8,11.8,0,0,0,87,181.981Z" transform="translate(-75.199 -181.981)" fill="#ff9c1a"/><path d="M89.231,216.859H83.608V199.665l3.168,3.17,2.455-3.17Z" transform="translate(-74.839 -183.878)" fill="none" stroke="#002133" stroke-linejoin="round" stroke-width="1"/><g transform="translate(4.549 24.577)"><path d="M93.77,210.946c0,.79-.328,1.431-.728,1.431H79.7c-.4,0-.73-.641-.73-1.431h0c0-.792.327-1.435.73-1.435H93.043c.4,0,.728.643.728,1.435Z" transform="translate(-78.89 -209.511)" fill="#b9c1cb"/><path d="M93.685,213.647c0,.791-.328,1.431-.731,1.431H79.61c-.4,0-.729-.64-.729-1.431h0c0-.792.327-1.433.729-1.433H92.954c.4,0,.731.641.731,1.433Z" transform="translate(-78.881 -209.801)" fill="#8592a3"/><path d="M93.685,216.687c0,.789-.328,1.432-.731,1.432H79.61c-.4,0-.729-.643-.729-1.432h0c0-.79.327-1.434.729-1.434H92.954c.4,0,.731.644.731,1.434Z" transform="translate(-78.881 -210.127)" fill="#b9c1cb"/><path d="M91.628,222.846c0,.791-.217,1.432-.486,1.432H82.262c-.269,0-.487-.641-.487-1.432h0c0-.789.218-1.43.487-1.43h8.881c.269,0,.486.641.486,1.43Z" transform="translate(-79.191 -210.788)" fill="#b9c1cb"/><path d="M92.951,219.893c0,.793-.287,1.435-.641,1.435H80.555c-.355,0-.642-.642-.642-1.435h0c0-.789.287-1.43.642-1.43H92.31c.354,0,.641.641.641,1.43Z" transform="translate(-78.992 -210.471)" fill="#8592a3"/></g></g></g><g transform="translate(106.034 77.846)"><circle cx="25.991" cy="25.991" r="25.991" transform="translate(0)" fill="#fff"/><g transform="translate(9.565 13.79)"><path d="M156.811,108.258a10.474,10.474,0,0,0-10.475-10.475h-11.9a10.474,10.474,0,0,0,0,20.948h9.009l4.006,5.238,1.156-5.489A10.475,10.475,0,0,0,156.811,108.258Z" transform="translate(-123.96 -97.783)" fill="#47286d"/><path d="M140.464,97.783h-6.031a10.474,10.474,0,0,0,0,20.948h6.031Z" transform="translate(-123.96 -97.783)" fill="#bb83ff"/><g transform="translate(4.999 5.567)"><path d="M151.72,104.019H130.253a.692.692,0,0,0-.693.692h0a.692.692,0,0,0,.693.693H151.72a.692.692,0,0,0,.693-.693h0A.692.692,0,0,0,151.72,104.019Z" transform="translate(-129.56 -104.019)" fill="#fff"/><path d="M151.72,107.964H130.253a.692.692,0,0,0-.693.693h0a.693.693,0,0,0,.693.693H151.72a.693.693,0,0,0,.693-.693h0A.692.692,0,0,0,151.72,107.964Z" transform="translate(-129.56 -104.442)" fill="#fff"/><path d="M151.72,111.909H130.253a.692.692,0,0,0-.693.693h0a.693.693,0,0,0,.693.693H151.72a.693.693,0,0,0,.693-.693h0A.692.692,0,0,0,151.72,111.909Z" transform="translate(-129.56 -104.865)" fill="#fff"/></g></g></g><g transform="translate(203.778 40.476)"><circle cx="25.991" cy="25.991" r="25.991" fill="#fff"/></g><g transform="translate(292.434 67.438)"><circle cx="25.991" cy="25.991" r="25.991" transform="translate(0 36.756) rotate(-45)" fill="#fff"/></g><g transform="translate(352.361 160.043)"><circle cx="25.991" cy="25.991" r="25.991" transform="translate(0 0)" fill="#fff"/><g transform="translate(14.162 5.264)"><path d="M416.859,180.3l5.914,10.243,5.914,10.245H405.03l5.915-10.245Z" transform="translate(-405.03 -180.303)" fill="#f5c8a1"/><path d="M414.4,186.3h6.922l-3.46-5.994Z" transform="translate(-406.035 -180.303)" fill="#11162a"/><path d="M405.128,220.314a20.514,20.514,0,0,0,23.546-.2V203.174H405.128Z" transform="translate(-405.04 -182.756)" fill="#ff9c1a"/><path d="M418.253,203.174v20.753a20.417,20.417,0,0,0,11.829-3.811V203.174Z" transform="translate(-406.448 -182.756)" fill="#ffc61a"/></g></g><g transform="translate(213.476 50.123)"><g transform="translate(0 0)"><circle cx="14.247" cy="14.247" r="14.247" transform="translate(2.999 0)" fill="#f9ca78" stroke="#47286d" stroke-width="1"/><circle cx="12.747" cy="12.747" r="12.747" transform="translate(4.499 1.5)" fill="#f9e478"/><circle cx="11.247" cy="11.247" r="11.247" transform="translate(2.999 2.999)" fill="#744ec1"/><circle cx="9.748" cy="9.748" r="9.748" transform="translate(4.499 4.499)" fill="#653bba"/><circle cx="6.748" cy="6.748" r="6.748" transform="translate(7.498 7.498)" fill="#5628b4"/><g transform="translate(3.367 2.998)"><circle cx="3.749" cy="3.749" r="3.749" transform="translate(7.131 7.499)" fill="#3e0aa9"/><path d="M153.085,42.656a3.749,3.749,0,1,0,0,7.5h.218a.75.75,0,0,0-.042-1.5h-.043q-.065,0-.132,0a2.249,2.249,0,1,1,0-4.5.753.753,0,0,0,.188-1.494,1.182,1.182,0,0,0-.188-.006Z" transform="translate(-142.205 -42.655)" fill="#3e0aa9"/><path d="M90.416,235.631a3.749,3.749,0,1,0,0,7.5h.218a.75.75,0,0,0-.042-1.5h-.043q-.066,0-.132,0a2.249,2.249,0,1,1,0-4.5.75.75,0,0,0,0-1.5Z" transform="translate(-83.942 -222.066)" fill="#3e0aa9"/><path d="M51.647,116.374a3.749,3.749,0,0,0,0,7.5h.218a.75.75,0,0,0-.042-1.5h-.043q-.065,0-.132,0a2.249,2.249,0,0,1,0-4.5.75.75,0,1,0,0-1.5Z" transform="translate(-47.898 -111.192)" fill="#3e0aa9"/><path d="M254.516,116.374a3.749,3.749,0,1,0,0,7.5h.217a.75.75,0,0,0-.042-1.5h-.043q-.066,0-.132,0a2.249,2.249,0,0,1,0-4.5.75.75,0,1,0,0-1.5Z" transform="translate(-236.506 -111.192)" fill="#3e0aa9"/><path d="M215.8,235.631a3.749,3.749,0,1,0,0,7.5h.218a.75.75,0,0,0-.042-1.5h-.043c-.044,0-.088,0-.132,0a2.249,2.249,0,1,1,0-4.5.75.75,0,0,0,0-1.5Z" transform="translate(-200.514 -222.066)" fill="#3e0aa9"/></g><path d="M345.834,213.337v7.5a4.5,4.5,0,0,0,4.5,4.5h0v6h0a9,9,0,0,1-9-9h0v-9Z" transform="translate(-317.341 -198.341)" fill="#bb83ff" stroke="#47286d" stroke-width="1"/><path d="M14.248,0A14.246,14.246,0,1,0,28.495,14.249,14.246,14.246,0,0,0,14.248,0Zm0,3A3.749,3.749,0,1,1,10.5,6.751h0A3.749,3.749,0,0,1,14.248,3Zm-10.7,7.772A3.749,3.749,0,1,1,5.959,15.5h0a3.749,3.749,0,0,1-2.407-4.724Zm9.322,11.745a3.749,3.749,0,1,1-.829-5.237h0A3.749,3.749,0,0,1,12.874,22.519ZM12,14.249A2.249,2.249,0,1,1,14.248,16.5,2.249,2.249,0,0,1,12,14.249Zm8.86,9.1a3.749,3.749,0,1,1,.829-5.237A3.749,3.749,0,0,1,20.859,23.349ZM22.538,15.5a3.749,3.749,0,1,1,2.407-4.724h0A3.749,3.749,0,0,1,22.538,15.5Z" transform="translate(-0.002 -0.003)" fill="#f7b236"/><g transform="translate(0 0)"><path d="M14.248,0A14.246,14.246,0,1,0,28.495,14.249,14.246,14.246,0,0,0,14.248,0Zm0,3A3.749,3.749,0,1,1,10.5,6.751h0A3.749,3.749,0,0,1,14.248,3Zm-10.7,7.772A3.749,3.749,0,1,1,5.959,15.5h0a3.749,3.749,0,0,1-2.407-4.724Zm9.322,11.745a3.749,3.749,0,1,1-.829-5.237h0A3.749,3.749,0,0,1,12.874,22.519ZM12,14.249A2.249,2.249,0,1,1,14.248,16.5,2.249,2.249,0,0,1,12,14.249Zm8.86,9.1a3.749,3.749,0,1,1,.829-5.237A3.749,3.749,0,0,1,20.859,23.349ZM22.538,15.5a3.749,3.749,0,1,1,2.407-4.724h0A3.749,3.749,0,0,1,22.538,15.5Z" transform="translate(-0.002 -0.003)" fill="#f9ca78" stroke="#47286d" stroke-width="1"/></g><path d="M34.083,21.337A12.747,12.747,0,1,0,46.83,34.084h0A12.747,12.747,0,0,0,34.083,21.337Zm0,1.5a3.749,3.749,0,1,1-3.749,3.749h0a3.749,3.749,0,0,1,3.749-3.749Zm-10.7,7.772a3.749,3.749,0,1,1,2.407,4.724h0a3.749,3.749,0,0,1-2.407-4.724Zm9.322,11.745a3.749,3.749,0,1,1-.829-5.237h0A3.749,3.749,0,0,1,32.708,42.353Zm-.875-8.27a2.249,2.249,0,1,1,2.249,2.249,2.249,2.249,0,0,1-2.249-2.249Zm8.86,9.1a3.749,3.749,0,1,1,.829-5.237A3.749,3.749,0,0,1,40.694,43.183Zm1.679-7.851a3.749,3.749,0,1,1,2.407-4.724h0a3.749,3.749,0,0,1-2.407,4.724Z" transform="translate(-19.836 -19.837)" fill="#f9e478"/></g><g transform="translate(97.368 35.721)"><path d="M152.965,27.445h23.906V47.538H152.965Zm0,0" transform="translate(-142.318 -25.569)" fill="#22a4af"/><path d="M152.965,27.445h22.124V47.538H152.965Zm0,0" transform="translate(-142.318 -25.569)" fill="#31d9e7"/><path d="M52.735,269.942l-.256.594h2.376l.256-.594Zm-8.571-3.564v14.848a1.191,1.191,0,0,0,1.188,1.188H66.139a1.192,1.192,0,0,0,1.188-1.188V266.379Zm0,0" transform="translate(-41.09 -247.872)" fill="#607d8b"/><path d="M50.952,269.942l-.255.594h2.376l.255-.594Zm-6.789-3.564v14.848a1.191,1.191,0,0,0,1.188,1.188H64.358a1.191,1.191,0,0,0,1.188-1.188V266.379Zm0,0" transform="translate(-41.09 -247.872)" fill="#cfd8dc"/><path d="M26.405,11.211l-1.859,1.865L23.619,14l-.855.861-1.782,1.782-.921.927-.855.861-.927.927-.855.861-.921.921-.861.867L13.861,23.79l-.915.921v.006l-.867.861-.915.921-.19.19-2.1-2.108a1.188,1.188,0,0,1,0-1.681l1.051-1.057,1.782-1.782.909-.915.873-.873.9-.909.879-.879.9-.909.873-.879.909-.9.873-.879.9-.909,1.782-1.782.879-.885.232-.232a1.183,1.183,0,0,1,1.681,0Zm0,0" transform="translate(-7.931 -8.182)" fill="#f9e478"/><path d="M86.828,368.777v5.939l7.127-2.969Zm0,0" transform="translate(-80.785 -343.143)" fill="#f17781"/><path d="M26.239,18.394H4.476l1.276-1.281a.58.58,0,0,0,.215-.216l1.556-1.561a.582.582,0,0,0,.229-.23L9.3,13.563a.581.581,0,0,0,.243-.244l1.528-1.533a.579.579,0,0,0,.258-.258l1.513-1.519a.58.58,0,0,0,.272-.272l1.5-1.505a.576.576,0,0,0,.285-.286l1.485-1.491a.577.577,0,0,0,.3-.3l2.217-2.224a.594.594,0,0,0,0-.839L16.795.986a1.822,1.822,0,0,0-1.877-.4.551.551,0,0,0-.108,0A.579.579,0,0,0,14.5.8a1.62,1.62,0,0,0-.229.186L2.134,13.163a.674.674,0,0,0-.056.056L.521,14.781a1.782,1.782,0,0,0,0,2.516l1.96,1.966V33.836a1.782,1.782,0,0,0,1.782,1.782H25.051a1.782,1.782,0,0,0,1.782-1.782V18.988a.594.594,0,0,0-.594-.594Zm-4.444,4.158,1.273-2.97H24.15l-1.273,2.97Zm-2.376,0,1.273-2.97h1.083L20.5,22.551Zm-2.376,0,1.273-2.97H19.4l-1.273,2.97Zm-2.376,0,1.273-2.97h1.084l-1.273,2.97Zm-7.127,0,1.273-2.97H9.9l-1.273,2.97Zm-2.376,0,1.273-2.97H7.52l-1.273,2.97Zm-1.5,0v-2.97H5.145l-1.273,2.97Zm.275-9.521L4.786,16.4l-.8.805-.843-3.372Zm1.782-1.786.843,3.37-.8.8-.844-3.37ZM7.507,9.458l.843,3.371-.8.8-.843-3.371ZM9.289,7.671l.843,3.371-.8.8L8.484,8.475Zm1.782-1.786.843,3.37-.8.8-.842-3.37ZM12.853,4.1,13.7,7.469l-.8.8L12.044,4.9ZM11.188,19.582h1.083L11,22.551H9.916Zm2.376,0h1.084l-1.273,2.97H12.291Zm11.879,0h.2v2.97H24.17ZM17.636,3.51,16.448,4.7,15.693,1.68a.58.58,0,0,1,.26.143Zm-3.008-1.2.842,3.371-.8.8-.843-3.371ZM1.362,15.62l.8-.8.816,3.262L1.362,16.458a.594.594,0,0,1,0-.839ZM25.051,34.43H4.263a.594.594,0,0,1-.594-.594v-10.1H25.645v10.1a.594.594,0,0,1-.594.594Zm0,0" transform="translate(-0.001 -0.481)" fill="#47286d"/><path d="M86.247,363.26l-7.127-2.97a.594.594,0,0,0-.822.548v5.939a.594.594,0,0,0,.822.548l7.127-2.97a.594.594,0,0,0,0-1.1Zm-6.762,2.627v-4.158l4.989,2.079Zm0,0" transform="translate(-72.848 -335.204)" fill="#47286d"/><path d="M223.737,351.711h-8.315a.594.594,0,1,0,0,1.188h8.315a.594.594,0,1,0,0-1.188Zm0,0" transform="translate(-199.876 -327.265)" fill="#47286d"/><path d="M223.737,385.844h-8.315a.594.594,0,1,0,0,1.188h8.315a.594.594,0,1,0,0-1.188Zm0,0" transform="translate(-199.876 -359.022)" fill="#47286d"/><path d="M223.737,419.977h-8.315a.594.594,0,1,0,0,1.188h8.315a.594.594,0,1,0,0-1.188Zm0,0" transform="translate(-199.876 -390.779)" fill="#47286d"/><path d="M223.737,454.109h-8.315a.594.594,0,0,0,0,1.188h8.315a.594.594,0,0,0,0-1.188Zm0,0" transform="translate(-199.876 -422.536)" fill="#47286d"/><path d="M147.157,18.91a.594.594,0,0,0-.594.594V20.1a.594.594,0,1,0,1.188,0,.594.594,0,1,0,0-1.188Zm0,0" transform="translate(-136.362 -17.627)" fill="#47286d"/><path d="M290.005,18.91H275.157a.594.594,0,1,0,0,1.188h14.254V39.1h-5.345a.594.594,0,1,0,0,1.188h5.939a.594.594,0,0,0,.594-.594V19.5a.594.594,0,0,0-.594-.594Zm0,0" transform="translate(-255.453 -17.627)" fill="#47286d"/><path d="M146.563,181.637v2.97a.594.594,0,0,0,1.188,0v-2.97a.594.594,0,1,0-1.188,0Zm0,0" transform="translate(-136.362 -168.475)" fill="#47286d"/><path d="M190.2,53.637a.594.594,0,0,0-.594-.594h-1.782a.594.594,0,1,0,0,1.188h1.188v5.345h-7.721a.594.594,0,1,0,0,1.188H189.6a.594.594,0,0,0,.594-.594Zm0,0" transform="translate(-168.118 -49.385)" fill="#47286d"/><path d="M334.891,60.765h8.315a.594.594,0,0,0,.594-.594V53.637a.594.594,0,0,0-.594-.594h-8.315a.594.594,0,0,0-.594.594v6.533A.594.594,0,0,0,334.891,60.765Zm.594-6.533h7.127v5.345h-7.127Zm0,0" transform="translate(-311.029 -49.385)" fill="#47286d"/><path d="M189.6,185.2a.594.594,0,0,0,.594-.594v-2.97a.594.594,0,0,0-.594-.594h-8.315a.594.594,0,0,0-.594.594v2.97a.594.594,0,0,0,1.188,0V182.23h7.127v2.376A.594.594,0,0,0,189.6,185.2Zm0,0" transform="translate(-168.118 -168.475)" fill="#47286d"/><path d="M334.3,184.607a.594.594,0,0,0,1.188,0v-2.376h7.127v5.345h-2.969a.594.594,0,1,0,0,1.188h3.564a.594.594,0,0,0,.594-.594v-6.533a.594.594,0,0,0-.594-.594H334.89a.594.594,0,0,0-.594.594Zm0,0" transform="translate(-311.029 -168.475)" fill="#47286d"/></g></g></g></svg>