<svg xmlns="http://www.w3.org/2000/svg" width="143.607" height="143.607" viewBox="0 0 143.607 143.607"><g transform="translate(-605.306 -8924)"><circle cx="62.586" cy="62.586" r="62.586" transform="translate(605.306 9047.557) rotate(-80.783)" fill="#fff"/><path d="M308.6,597.618a66.191,66.191,0,1,1,66.194-66.191A66.267,66.267,0,0,1,308.6,597.618Zm0-125.172a58.981,58.981,0,1,0,58.984,58.981A59.049,59.049,0,0,0,308.6,472.445Z" transform="translate(368.508 8464.378)" fill="#f17781"/><g transform="matrix(0.985, 0.174, -0.174, 0.985, 637.231, 8939.843)"><g transform="translate(2.941 0)"><g transform="translate(19.901 20.578)"><path d="M155.156,350.98l4.755-15.395-8.185-8.185-8.185-8.185-15.394,4.754a1.481,1.481,0,0,0-1.033,1.115l-6.849,28.843L122,355.665l14.591-14.591a4.1,4.1,0,1,1,1.457,1.457l-14.59,14.591,1.737,1.738,28.843-6.848A1.48,1.48,0,0,0,155.156,350.98Z" transform="translate(-120.265 -305.796)" fill="#47286d"/><path d="M179.146,325.967l-18.993-18.992a3.482,3.482,0,0,0-4.924,4.924l18.993,18.993a3.482,3.482,0,0,0,4.924-4.924Z" transform="translate(-131.742 -301.312)" fill="#edb83e"/><path d="M188.354,315.482l-15.8-15.8a3.541,3.541,0,0,0-4.924,4.924l15.8,15.8a3.541,3.541,0,0,0,4.924-4.924Z" transform="translate(-136.03 -298.941)" fill="#edb83e"/></g><g transform="translate(2.087 59.408)"><path d="M125.367,386a2.556,2.556,0,0,0-2.721-.577l-9.182-9.182,1.943-1.943-5.985-5.986-1.944,1.944L98.3,361.078a2.559,2.559,0,1,0-1.475,1.475L106,371.735l-2.567,2.567,5.986,5.985,2.566-2.566,9.182,9.182a2.558,2.558,0,1,0,4.2-.9Z" transform="translate(-93.351 -357.608)" fill="#edb83e"/></g><g transform="translate(9.889 19.138)"><path d="M109.659,297.2l-.067-.059a1.514,1.514,0,0,0-2.174.187q-1.053,1.292-2.006,2.663a1.514,1.514,0,0,0,.42,2.141l.074.048a1.5,1.5,0,0,0,2.041-.4q.894-1.289,1.889-2.507A1.5,1.5,0,0,0,109.659,297.2Z" transform="translate(-105.14 -296.765)" fill="#47286d"/></g><g transform="translate(17.846 11.222)"><path d="M122.585,285.579l-.048-.075a1.514,1.514,0,0,0-2.139-.43q-1.371.943-2.669,1.992a1.514,1.514,0,0,0-.2,2.173l.058.067a1.5,1.5,0,0,0,2.072.187q1.218-.986,2.513-1.875A1.5,1.5,0,0,0,122.585,285.579Z" transform="translate(-117.161 -284.805)" fill="#47286d"/></g><g transform="translate(27.882 6.043)"><path d="M138.319,278.074a1.513,1.513,0,0,0-1.93-1.017q-1.584.517-3.125,1.159a1.514,1.514,0,0,0-.8,2.03l.037.08a1.5,1.5,0,0,0,1.934.763c.964-.4,1.947-.766,2.94-1.09a1.5,1.5,0,0,0,.969-1.84Z" transform="translate(-132.324 -276.981)" fill="#47286d"/></g><g transform="translate(4.66 29.152)"><path d="M98.326,317.887l.085.024a1.5,1.5,0,0,0,1.843-.961c.328-.993.7-1.975,1.1-2.938a1.5,1.5,0,0,0-.754-1.938l-.079-.037a1.514,1.514,0,0,0-2.034.79c-.432,1.025-.825,2.068-1.175,3.124A1.514,1.514,0,0,0,98.326,317.887Z" transform="translate(-97.239 -311.896)" fill="#47286d"/></g><g transform="translate(77.944 19.138)"><path d="M212.3,302.129a1.514,1.514,0,0,0,.42-2.141q-.95-1.368-2.006-2.663a1.514,1.514,0,0,0-2.174-.187l-.067.059a1.5,1.5,0,0,0-.178,2.072q.993,1.215,1.889,2.507a1.5,1.5,0,0,0,2.041.4Z" transform="translate(-207.961 -296.765)" fill="#47286d"/></g><g transform="translate(69.362 11.222)"><path d="M200.282,289.24a1.514,1.514,0,0,0-.2-2.173q-1.295-1.046-2.669-1.992a1.514,1.514,0,0,0-2.139.43l-.048.075a1.5,1.5,0,0,0,.41,2.039q1.291.887,2.512,1.875a1.5,1.5,0,0,0,2.072-.187Z" transform="translate(-194.994 -284.805)" fill="#47286d"/></g><g transform="translate(58.907 6.043)"><path d="M185.136,280.246a1.514,1.514,0,0,0-.8-2.03c-1.025-.427-2.07-.814-3.125-1.159a1.513,1.513,0,0,0-1.93,1.017l-.025.085a1.5,1.5,0,0,0,.969,1.84c.993.324,1.976.688,2.94,1.09a1.5,1.5,0,0,0,1.934-.763Z" transform="translate(-179.198 -276.981)" fill="#47286d"/></g><g transform="translate(84.316 56.98)"><path d="M220.623,354.013l-.086-.022a1.5,1.5,0,0,0-1.82,1.007c-.3,1-.647,1.991-1.027,2.963a1.5,1.5,0,0,0,.8,1.917l.081.036a1.514,1.514,0,0,0,2.013-.843c.405-1.033.77-2.086,1.093-3.149A1.514,1.514,0,0,0,220.623,354.013Z" transform="translate(-217.588 -353.94)" fill="#47286d"/></g><g transform="translate(83.969 29.152)"><path d="M218.285,316.951a1.5,1.5,0,0,0,1.843.961l.085-.024a1.514,1.514,0,0,0,1.009-1.935c-.35-1.056-.743-2.1-1.174-3.124a1.514,1.514,0,0,0-2.034-.79l-.08.037a1.5,1.5,0,0,0-.754,1.938C217.587,314.976,217.956,315.958,218.285,316.951Z" transform="translate(-217.063 -311.896)" fill="#47286d"/></g><g transform="translate(78.549 67.546)"><path d="M213.116,370.166l-.075-.046a1.5,1.5,0,0,0-2.03.451q-.859,1.307-1.823,2.548a1.5,1.5,0,0,0,.228,2.068l.068.056a1.514,1.514,0,0,0,2.168-.24q1.023-1.316,1.939-2.708A1.514,1.514,0,0,0,213.116,370.166Z" transform="translate(-208.875 -369.902)" fill="#47286d"/></g><g transform="translate(70.158 76.278)"><path d="M201.358,383.587a1.5,1.5,0,0,0-2.076-.138q-1.2,1.015-2.469,1.936a1.5,1.5,0,0,0-.361,2.048l.049.073a1.514,1.514,0,0,0,2.148.379q1.349-.976,2.622-2.056a1.514,1.514,0,0,0,.145-2.177Z" transform="translate(-196.197 -383.095)" fill="#47286d"/></g><g transform="translate(59.828 82.499)"><path d="M186.448,393.337a1.5,1.5,0,0,0-1.953-.714c-.955.427-1.929.816-2.914,1.166a1.5,1.5,0,0,0-.922,1.865l.026.084a1.514,1.514,0,0,0,1.956.967c1.046-.371,2.081-.786,3.1-1.238a1.514,1.514,0,0,0,.749-2.049Z" transform="translate(-180.59 -392.494)" fill="#47286d"/></g><g transform="translate(83.396 38.571)"><path d="M226.116,337.243H217.4a1.2,1.2,0,0,1-1.2-1.2v-8.72a1.2,1.2,0,0,1,1.2-1.2h8.719a1.2,1.2,0,0,1,1.2,1.2v8.72A1.2,1.2,0,0,1,226.116,337.243Zm-7.52-2.4h6.322v-6.322H218.6Z" transform="translate(-216.198 -326.125)" fill="#47286d"/></g><g transform="translate(0 38.571)"><path d="M100.116,337.243H91.4a1.2,1.2,0,0,1-1.2-1.2v-8.72a1.2,1.2,0,0,1,1.2-1.2h8.719a1.2,1.2,0,0,1,1.2,1.2v8.72A1.2,1.2,0,0,1,100.116,337.243Zm-7.52-2.4h6.322v-6.322H92.6Z" transform="translate(-90.198 -326.125)" fill="#47286d"/></g><g transform="translate(40.947)"><path d="M161.981,278.967h-8.72a1.2,1.2,0,0,1-1.2-1.2v-8.72a1.2,1.2,0,0,1,1.2-1.2h8.72a1.2,1.2,0,0,1,1.2,1.2v8.72A1.2,1.2,0,0,1,161.981,278.967Zm-7.521-2.4h6.322v-6.322H154.46Z" transform="translate(-152.063 -267.85)" fill="#47286d"/></g></g></g></g></svg>