<svg xmlns="http://www.w3.org/2000/svg" width="75" height="74.788" viewBox="0 0 75 74.788"><g transform="translate(0 -0.725)"><g transform="translate(1.465 2.19)"><g transform="translate(0 10.62)"><circle cx="30.62" cy="30.62" r="30.62" fill="#f17781"/></g><circle cx="23.296" cy="23.296" r="23.296" transform="translate(7.324 17.944)" fill="#faf7f5"/><circle cx="15.971" cy="15.971" r="15.971" transform="translate(14.648 25.268)" fill="#f9e478"/><circle cx="8.647" cy="8.647" r="8.647" transform="translate(21.973 32.593)" fill="#faf7f5"/><g transform="translate(55.139)"><path d="M403.348,17.478l-4.989-1.763-1.763-4.99-8.94,8.94a4.229,4.229,0,0,0-1.224,3.342l.357,4.278,4.277.357a4.229,4.229,0,0,0,3.342-1.224Z" transform="translate(-386.417 -10.725)" fill="#c193dc"/></g></g><g transform="translate(0 0.725)"><path d="M358.322,433.012a1.465,1.465,0,1,1,1.435-1.179,1.478,1.478,0,0,1-1.435,1.179Z" transform="translate(-304.586 -367.19)" fill="#47286d"/><path d="M74.964,8.619a1.465,1.465,0,0,0-.941-1.057l-4.33-1.53L68.164,1.7a1.465,1.465,0,0,0-2.417-.548l-8.94,8.94a5.683,5.683,0,0,0-1.648,4.5l.3,3.6-.04.038-1.6,1.6a31.817,31.817,0,0,0-15.076-7.8,5.534,5.534,0,0,0,.219-1.6,6.881,6.881,0,0,0-13.762,0,5.534,5.534,0,0,0,.219,1.6A32.091,32.091,0,1,0,49.307,70.508a1.465,1.465,0,0,0-1.574-2.471,29.327,29.327,0,0,1-36.264-3.992A29.155,29.155,0,0,1,51.749,21.9l-3.111,3.111A24.711,24.711,0,1,0,50.7,27.1l3.112-3.112a29.349,29.349,0,0,1,2.9,35.059,1.465,1.465,0,0,0,2.473,1.571,32.1,32.1,0,0,0-3.3-38.7l1.607-1.607.038-.04,3.6.3q.239.02.477.02a5.682,5.682,0,0,0,4.023-1.668l8.94-8.94a1.465,1.465,0,0,0,.393-1.36Zm-46.6,2.938a2.552,2.552,0,0,1-.234-1.127,3.952,3.952,0,0,1,7.9,0,2.552,2.552,0,0,1-.234,1.127,32.752,32.752,0,0,0-7.435,0ZM53.9,43.43a21.792,21.792,0,1,1-7.341-16.34L43.449,30.2A17.437,17.437,0,0,0,19.756,55.759h0A17.437,17.437,0,0,0,45.5,32.294l3.118-3.118A21.674,21.674,0,0,1,53.9,43.43ZM21.827,53.688a14.507,14.507,0,0,1,19.543-21.4l-3.125,3.125a10.089,10.089,0,1,0,2.041,2.1l3.135-3.134A14.507,14.507,0,0,1,21.827,53.688ZM39.263,43.43a7.164,7.164,0,1,1-3.115-5.924L31.26,42.394a1.465,1.465,0,1,0,2.072,2.072l4.845-4.845a7.144,7.144,0,0,1,1.087,3.809Zm24.3-26.583a2.761,2.761,0,0,1-2.185.8l-3.043-.254-.254-3.043a2.759,2.759,0,0,1,.8-2.184l7.3-7.3.989,2.8a1.465,1.465,0,0,0,.893.893l2.8.989Z" transform="translate(0 -0.725)" fill="#47286d"/></g></g></svg>