<svg xmlns="http://www.w3.org/2000/svg" width="404.848" height="172.903" viewBox="0 0 404.848 172.903"><g transform="translate(6068 7450)"><g transform="translate(-6068 -7425)" opacity="0.75"><g transform="translate(0 79.948)"><path d="M0,331v27.123a3.622,3.622,0,0,0,1.826,3.146L25.6,374.718V345.492Z" transform="translate(0 -331)" fill="#47286d"/></g><g transform="translate(32.849 79.948)"><path d="M136,345.492v29.226l25.361-14.492V331Z" transform="translate(-136 -331)" fill="#47286d"/></g><g transform="translate(65.456 79.948)"><path d="M271,331v29.226l25.361,14.492V345.492Z" transform="translate(-271 -331)" fill="#47286d"/></g><g transform="translate(98.064 79.948)"><path d="M406,345.492v29.226l23.777-13.449a3.622,3.622,0,0,0,1.826-3.145V331Z" transform="translate(-406 -331)" fill="#47286d"/></g><g transform="translate(66.482 58.21)"><path d="M303.2,241l-27.959,13.979L303.2,270.957l28.2-15.978Z" transform="translate(-275.246 -241)" fill="#47286d"/></g><g transform="translate(33.874 0)"><path d="M169.825.382a3.625,3.625,0,0,0-3.241,0l-26.338,13.6L168.2,29.957l27.959-15.978Z" transform="translate(-140.246 0)" fill="#47286d"/></g><g transform="translate(32.849 21.738)"><path d="M136,90v30.181l25.361,12.681v-28.37Z" transform="translate(-136 -90)" fill="#47286d"/></g><g transform="translate(1.026 58.21)"><path d="M32.446,241l-28.2,13.979,28.2,15.978,27.959-15.978Z" transform="translate(-4.246 -241)" fill="#47286d"/></g><g transform="translate(65.456 21.738)"><path d="M271,104.492v28.37l25.361-12.681V90Z" transform="translate(-271 -90)" fill="#47286d"/></g></g><g transform="translate(-7017 -12121.257)"><g transform="translate(1200.765 4756.208)" opacity="0.75"><g transform="translate(0 29.237)"><path d="M0,331v9.919a1.325,1.325,0,0,0,.668,1.15l8.7,4.918V336.3Z" transform="translate(0 -331)" fill="#47286d"/></g><g transform="translate(12.013 29.237)"><path d="M136,336.3v10.688l9.275-5.3V331Z" transform="translate(-136 -331)" fill="#47286d"/></g><g transform="translate(23.937 29.237)"><path d="M271,331v10.688l9.275,5.3V336.3Z" transform="translate(-271 -331)" fill="#47286d"/></g><g transform="translate(35.862 29.237)"><path d="M406,336.3v10.688l8.7-4.918a1.325,1.325,0,0,0,.668-1.15V331Z" transform="translate(-406 -331)" fill="#47286d"/></g><g transform="translate(24.312 21.288)"><path d="M285.471,241l-10.225,5.112,10.225,5.843,10.313-5.843Z" transform="translate(-275.246 -241)" fill="#47286d"/></g><g transform="translate(12.388 0)"><path d="M151.063.14a1.325,1.325,0,0,0-1.185,0l-9.632,4.972,10.225,5.843L160.7,5.112Z" transform="translate(-140.246 0)" fill="#47286d"/></g><g transform="translate(12.013 7.95)"><path d="M136,90v11.037l9.275,4.637V95.3Z" transform="translate(-136 -90)" fill="#47286d"/></g><g transform="translate(0.375 21.288)"><path d="M14.559,241,4.246,246.112l10.313,5.843,10.225-5.843Z" transform="translate(-4.246 -241)" fill="#47286d"/></g><g transform="translate(23.937 7.95)"><path d="M271,95.3v10.375l9.275-4.637V90Z" transform="translate(-271 -90)" fill="#47286d"/></g></g><g transform="translate(1236.63 4734.611)" opacity="0.75"><g transform="translate(0 29.237)"><path d="M0,331v9.919a1.325,1.325,0,0,0,.668,1.15l8.7,4.918V336.3Z" transform="translate(0 -331)" fill="#47286d"/></g><g transform="translate(12.013 29.237)"><path d="M136,336.3v10.688l9.275-5.3V331Z" transform="translate(-136 -331)" fill="#47286d"/></g><g transform="translate(23.938 29.237)"><path d="M271,331v10.688l9.275,5.3V336.3Z" transform="translate(-271 -331)" fill="#47286d"/></g><g transform="translate(35.862 29.237)"><path d="M406,336.3v10.688l8.7-4.918a1.325,1.325,0,0,0,.668-1.15V331Z" transform="translate(-406 -331)" fill="#47286d"/></g><g transform="translate(24.313 21.288)"><path d="M285.471,241l-10.225,5.112,10.225,5.843,10.313-5.843Z" transform="translate(-275.246 -241)" fill="#47286d"/></g><g transform="translate(12.388 0)"><path d="M151.063.14a1.325,1.325,0,0,0-1.185,0l-9.632,4.972,10.225,5.843L160.7,5.112Z" transform="translate(-140.246 0)" fill="#47286d"/></g><g transform="translate(12.013 7.95)"><path d="M136,90v11.037l9.275,4.637V95.3Z" transform="translate(-136 -90)" fill="#47286d"/></g><g transform="translate(0.375 21.288)"><path d="M14.559,241,4.246,246.112l10.313,5.843,10.225-5.843Z" transform="translate(-4.246 -241)" fill="#47286d"/></g><g transform="translate(23.938 7.95)"><path d="M271,95.3v10.375l9.275-4.637V90Z" transform="translate(-271 -90)" fill="#47286d"/></g></g><g transform="translate(1237.35 4777.807)" opacity="0.75"><g transform="translate(0 29.237)"><path d="M0,331v9.919a1.325,1.325,0,0,0,.668,1.15l8.7,4.918V336.3Z" transform="translate(0 -331)" fill="#47286d"/></g><g transform="translate(12.013 29.237)"><path d="M136,336.3v10.688l9.275-5.3V331Z" transform="translate(-136 -331)" fill="#47286d"/></g><g transform="translate(23.938 29.237)"><path d="M271,331v10.688l9.275,5.3V336.3Z" transform="translate(-271 -331)" fill="#47286d"/></g><g transform="translate(35.862 29.237)"><path d="M406,336.3v10.688l8.7-4.918a1.325,1.325,0,0,0,.668-1.15V331Z" transform="translate(-406 -331)" fill="#47286d"/></g><g transform="translate(24.313 21.288)"><path d="M285.471,241l-10.225,5.112,10.225,5.843,10.313-5.843Z" transform="translate(-275.246 -241)" fill="#47286d"/></g><g transform="translate(12.388 0)"><path d="M151.063.14a1.325,1.325,0,0,0-1.185,0l-9.632,4.972,10.225,5.843L160.7,5.112Z" transform="translate(-140.246 0)" fill="#47286d"/></g><g transform="translate(12.013 7.95)"><path d="M136,90v11.037l9.275,4.637V95.3Z" transform="translate(-136 -90)" fill="#47286d"/></g><g transform="translate(0.375 21.288)"><path d="M14.559,241,4.246,246.112l10.313,5.843,10.225-5.843Z" transform="translate(-4.246 -241)" fill="#47286d"/></g><g transform="translate(23.938 7.95)"><path d="M271,95.3v10.375l9.275-4.637V90Z" transform="translate(-271 -90)" fill="#47286d"/></g></g><g transform="translate(1273.346 4756.208)" opacity="0.75"><g transform="translate(0 29.237)"><path d="M0,331v9.919a1.325,1.325,0,0,0,.668,1.15l8.7,4.918V336.3Z" transform="translate(0 -331)" fill="#47286d"/></g><g transform="translate(12.013 29.237)"><path d="M136,336.3v10.688l9.275-5.3V331Z" transform="translate(-136 -331)" fill="#47286d"/></g><g transform="translate(23.938 29.237)"><path d="M271,331v10.688l9.275,5.3V336.3Z" transform="translate(-271 -331)" fill="#47286d"/></g><g transform="translate(35.862 29.237)"><path d="M406,336.3v10.688l8.7-4.918a1.325,1.325,0,0,0,.668-1.15V331Z" transform="translate(-406 -331)" fill="#47286d"/></g><g transform="translate(24.313 21.288)"><path d="M285.471,241l-10.225,5.112,10.225,5.843,10.313-5.843Z" transform="translate(-275.246 -241)" fill="#47286d"/></g><g transform="translate(12.388 0)"><path d="M151.063.14a1.325,1.325,0,0,0-1.185,0l-9.632,4.972,10.225,5.843L160.7,5.112Z" transform="translate(-140.246 0)" fill="#47286d"/></g><g transform="translate(12.013 7.95)"><path d="M136,90v11.037l9.275,4.637V95.3Z" transform="translate(-136 -90)" fill="#47286d"/></g><g transform="translate(0.375 21.288)"><path d="M14.559,241,4.246,246.112l10.313,5.843,10.225-5.843Z" transform="translate(-4.246 -241)" fill="#47286d"/></g><g transform="translate(23.938 7.95)"><path d="M271,95.3v10.375l9.275-4.637V90Z" transform="translate(-271 -90)" fill="#47286d"/></g></g><g transform="translate(1273.346 4713.733)" opacity="0.75"><g transform="translate(0 29.237)"><path d="M0,331v9.919a1.325,1.325,0,0,0,.668,1.15l8.7,4.918V336.3Z" transform="translate(0 -331)" fill="#47286d"/></g><g transform="translate(12.013 29.237)"><path d="M136,336.3v10.688l9.275-5.3V331Z" transform="translate(-136 -331)" fill="#47286d"/></g><g transform="translate(23.938 29.237)"><path d="M271,331v10.688l9.275,5.3V336.3Z" transform="translate(-271 -331)" fill="#47286d"/></g><g transform="translate(35.862 29.237)"><path d="M406,336.3v10.688l8.7-4.918a1.325,1.325,0,0,0,.668-1.15V331Z" transform="translate(-406 -331)" fill="#47286d"/></g><g transform="translate(24.313 21.288)"><path d="M285.471,241l-10.225,5.112,10.225,5.843,10.313-5.843Z" transform="translate(-275.246 -241)" fill="#47286d"/></g><g transform="translate(12.388 0)"><path d="M151.063.14a1.325,1.325,0,0,0-1.185,0l-9.632,4.972,10.225,5.843L160.7,5.112Z" transform="translate(-140.246 0)" fill="#47286d"/></g><g transform="translate(12.013 7.95)"><path d="M136,90v11.037l9.275,4.637V95.3Z" transform="translate(-136 -90)" fill="#47286d"/></g><g transform="translate(0.375 21.288)"><path d="M14.559,241,4.246,246.112l10.313,5.843,10.225-5.843Z" transform="translate(-4.246 -241)" fill="#47286d"/></g><g transform="translate(23.938 7.95)"><path d="M271,95.3v10.375l9.275-4.637V90Z" transform="translate(-271 -90)" fill="#47286d"/></g></g><g transform="translate(1200.765 4713.733)" opacity="0.75"><g transform="translate(0 29.237)"><path d="M0,331v9.919a1.325,1.325,0,0,0,.668,1.15l8.7,4.918V336.3Z" transform="translate(0 -331)" fill="#47286d"/></g><g transform="translate(12.013 29.237)"><path d="M136,336.3v10.688l9.275-5.3V331Z" transform="translate(-136 -331)" fill="#47286d"/></g><g transform="translate(23.938 29.237)"><path d="M271,331v10.688l9.275,5.3V336.3Z" transform="translate(-271 -331)" fill="#47286d"/></g><g transform="translate(35.862 29.237)"><path d="M406,336.3v10.688l8.7-4.918a1.325,1.325,0,0,0,.668-1.15V331Z" transform="translate(-406 -331)" fill="#47286d"/></g><g transform="translate(24.313 21.288)"><path d="M285.471,241l-10.225,5.112,10.225,5.843,10.313-5.843Z" transform="translate(-275.246 -241)" fill="#47286d"/></g><g transform="translate(12.388 0)"><path d="M151.063.14a1.325,1.325,0,0,0-1.185,0l-9.632,4.972,10.225,5.843L160.7,5.112Z" transform="translate(-140.246 0)" fill="#47286d"/></g><g transform="translate(12.013 7.95)"><path d="M136,90v11.037l9.275,4.637V95.3Z" transform="translate(-136 -90)" fill="#47286d"/></g><g transform="translate(0.375 21.288)"><path d="M14.559,241,4.246,246.112l10.313,5.843,10.225-5.843Z" transform="translate(-4.246 -241)" fill="#47286d"/></g><g transform="translate(23.938 7.95)"><path d="M271,95.3v10.375l9.275-4.637V90Z" transform="translate(-271 -90)" fill="#47286d"/></g></g><g transform="translate(1200.765 4671.257)" opacity="0.75"><g transform="translate(0 29.237)"><path d="M0,331v9.919a1.325,1.325,0,0,0,.668,1.15l8.7,4.918V336.3Z" transform="translate(0 -331)" fill="#47286d"/></g><g transform="translate(12.013 29.237)"><path d="M136,336.3v10.688l9.275-5.3V331Z" transform="translate(-136 -331)" fill="#47286d"/></g><g transform="translate(23.937 29.237)"><path d="M271,331v10.688l9.275,5.3V336.3Z" transform="translate(-271 -331)" fill="#47286d"/></g><g transform="translate(35.862 29.237)"><path d="M406,336.3v10.688l8.7-4.918a1.325,1.325,0,0,0,.668-1.15V331Z" transform="translate(-406 -331)" fill="#47286d"/></g><g transform="translate(24.312 21.288)"><path d="M285.471,241l-10.225,5.112,10.225,5.843,10.313-5.843Z" transform="translate(-275.246 -241)" fill="#47286d"/></g><g transform="translate(12.388 0)"><path d="M151.063.14a1.325,1.325,0,0,0-1.185,0l-9.632,4.972,10.225,5.843L160.7,5.112Z" transform="translate(-140.246 0)" fill="#47286d"/></g><g transform="translate(12.013 7.95)"><path d="M136,90v11.037l9.275,4.637V95.3Z" transform="translate(-136 -90)" fill="#47286d"/></g><g transform="translate(0.375 21.288)"><path d="M14.559,241,4.246,246.112l10.313,5.843,10.225-5.843Z" transform="translate(-4.246 -241)" fill="#47286d"/></g><g transform="translate(23.937 7.95)"><path d="M271,95.3v10.375l9.275-4.637V90Z" transform="translate(-271 -90)" fill="#47286d"/></g></g><g transform="translate(1164.637 4777.807)" opacity="0.75"><g transform="translate(0 29.237)"><path d="M0,331v9.919a1.325,1.325,0,0,0,.668,1.15l8.7,4.918V336.3Z" transform="translate(0 -331)" fill="#47286d"/></g><g transform="translate(12.013 29.237)"><path d="M136,336.3v10.688l9.275-5.3V331Z" transform="translate(-136 -331)" fill="#47286d"/></g><g transform="translate(23.937 29.237)"><path d="M271,331v10.688l9.275,5.3V336.3Z" transform="translate(-271 -331)" fill="#47286d"/></g><g transform="translate(35.862 29.237)"><path d="M406,336.3v10.688l8.7-4.918a1.325,1.325,0,0,0,.668-1.15V331Z" transform="translate(-406 -331)" fill="#47286d"/></g><g transform="translate(24.312 21.288)"><path d="M285.471,241l-10.225,5.112,10.225,5.843,10.313-5.843Z" transform="translate(-275.246 -241)" fill="#47286d"/></g><g transform="translate(12.388 0)"><path d="M151.063.14a1.325,1.325,0,0,0-1.185,0l-9.632,4.972,10.225,5.843L160.7,5.112Z" transform="translate(-140.246 0)" fill="#47286d"/></g><g transform="translate(12.013 7.95)"><path d="M136,90v11.037l9.275,4.637V95.3Z" transform="translate(-136 -90)" fill="#47286d"/></g><g transform="translate(0.375 21.288)"><path d="M14.559,241,4.246,246.112l10.313,5.843,10.225-5.843Z" transform="translate(-4.246 -241)" fill="#47286d"/></g><g transform="translate(23.937 7.95)"><path d="M271,95.3v10.375l9.275-4.637V90Z" transform="translate(-271 -90)" fill="#47286d"/></g></g><g transform="translate(1200.765 4798.935)" opacity="0.75"><g transform="translate(0 29.237)"><path d="M0,331v9.919a1.325,1.325,0,0,0,.668,1.15l8.7,4.918V336.3Z" transform="translate(0 -331)" fill="#47286d"/></g><g transform="translate(12.013 29.237)"><path d="M136,336.3v10.688l9.275-5.3V331Z" transform="translate(-136 -331)" fill="#47286d"/></g><g transform="translate(23.937 29.237)"><path d="M271,331v10.688l9.275,5.3V336.3Z" transform="translate(-271 -331)" fill="#47286d"/></g><g transform="translate(35.862 29.237)"><path d="M406,336.3v10.688l8.7-4.918a1.325,1.325,0,0,0,.668-1.15V331Z" transform="translate(-406 -331)" fill="#47286d"/></g><g transform="translate(24.312 21.288)"><path d="M285.471,241l-10.225,5.112,10.225,5.843,10.313-5.843Z" transform="translate(-275.246 -241)" fill="#47286d"/></g><g transform="translate(12.388 0)"><path d="M151.063.14a1.325,1.325,0,0,0-1.185,0l-9.632,4.972,10.225,5.843L160.7,5.112Z" transform="translate(-140.246 0)" fill="#47286d"/></g><g transform="translate(12.013 7.95)"><path d="M136,90v11.037l9.275,4.637V95.3Z" transform="translate(-136 -90)" fill="#47286d"/></g><g transform="translate(0.375 21.288)"><path d="M14.559,241,4.246,246.112l10.313,5.843,10.225-5.843Z" transform="translate(-4.246 -241)" fill="#47286d"/></g><g transform="translate(23.937 7.95)"><path d="M271,95.3v10.375l9.275-4.637V90Z" transform="translate(-271 -90)" fill="#47286d"/></g></g><g transform="translate(1273.346 4798.935)" opacity="0.75"><g transform="translate(0 29.237)"><path d="M0,331v9.919a1.325,1.325,0,0,0,.668,1.15l8.7,4.918V336.3Z" transform="translate(0 -331)" fill="#47286d"/></g><g transform="translate(12.013 29.237)"><path d="M136,336.3v10.688l9.275-5.3V331Z" transform="translate(-136 -331)" fill="#47286d"/></g><g transform="translate(23.937 29.237)"><path d="M271,331v10.688l9.275,5.3V336.3Z" transform="translate(-271 -331)" fill="#47286d"/></g><g transform="translate(35.862 29.237)"><path d="M406,336.3v10.688l8.7-4.918a1.325,1.325,0,0,0,.668-1.15V331Z" transform="translate(-406 -331)" fill="#47286d"/></g><g transform="translate(24.312 21.288)"><path d="M285.471,241l-10.225,5.112,10.225,5.843,10.313-5.843Z" transform="translate(-275.246 -241)" fill="#47286d"/></g><g transform="translate(12.388 0)"><path d="M151.063.14a1.325,1.325,0,0,0-1.185,0l-9.632,4.972,10.225,5.843L160.7,5.112Z" transform="translate(-140.246 0)" fill="#47286d"/></g><g transform="translate(12.013 7.95)"><path d="M136,90v11.037l9.275,4.637V95.3Z" transform="translate(-136 -90)" fill="#47286d"/></g><g transform="translate(0.375 21.288)"><path d="M14.559,241,4.246,246.112l10.313,5.843,10.225-5.843Z" transform="translate(-4.246 -241)" fill="#47286d"/></g><g transform="translate(23.937 7.95)"><path d="M271,95.3v10.375l9.275-4.637V90Z" transform="translate(-271 -90)" fill="#47286d"/></g></g><g transform="translate(1308.623 4778.821)" opacity="0.75"><g transform="translate(0 29.237)"><path d="M0,331v9.919a1.325,1.325,0,0,0,.668,1.15l8.7,4.918V336.3Z" transform="translate(0 -331)" fill="#47286d"/></g><g transform="translate(12.013 29.237)"><path d="M136,336.3v10.688l9.275-5.3V331Z" transform="translate(-136 -331)" fill="#47286d"/></g><g transform="translate(23.937 29.237)"><path d="M271,331v10.688l9.275,5.3V336.3Z" transform="translate(-271 -331)" fill="#47286d"/></g><g transform="translate(35.862 29.237)"><path d="M406,336.3v10.688l8.7-4.918a1.325,1.325,0,0,0,.668-1.15V331Z" transform="translate(-406 -331)" fill="#47286d"/></g><g transform="translate(24.312 21.288)"><path d="M285.471,241l-10.225,5.112,10.225,5.843,10.313-5.843Z" transform="translate(-275.246 -241)" fill="#47286d"/></g><g transform="translate(12.388 0)"><path d="M151.063.14a1.325,1.325,0,0,0-1.185,0l-9.632,4.972,10.225,5.843L160.7,5.112Z" transform="translate(-140.246 0)" fill="#47286d"/></g><g transform="translate(12.013 7.95)"><path d="M136,90v11.037l9.275,4.637V95.3Z" transform="translate(-136 -90)" fill="#47286d"/></g><g transform="translate(0.375 21.288)"><path d="M14.559,241,4.246,246.112l10.313,5.843,10.225-5.843Z" transform="translate(-4.246 -241)" fill="#47286d"/></g><g transform="translate(23.937 7.95)"><path d="M271,95.3v10.375l9.275-4.637V90Z" transform="translate(-271 -90)" fill="#47286d"/></g></g><g transform="translate(1273.346 4671.257)" opacity="0.75"><g transform="translate(0 29.237)"><path d="M0,331v9.919a1.325,1.325,0,0,0,.668,1.15l8.7,4.918V336.3Z" transform="translate(0 -331)" fill="#47286d"/></g><g transform="translate(12.013 29.237)"><path d="M136,336.3v10.688l9.275-5.3V331Z" transform="translate(-136 -331)" fill="#47286d"/></g><g transform="translate(23.937 29.237)"><path d="M271,331v10.688l9.275,5.3V336.3Z" transform="translate(-271 -331)" fill="#47286d"/></g><g transform="translate(35.862 29.237)"><path d="M406,336.3v10.688l8.7-4.918a1.325,1.325,0,0,0,.668-1.15V331Z" transform="translate(-406 -331)" fill="#47286d"/></g><g transform="translate(24.312 21.288)"><path d="M285.471,241l-10.225,5.112,10.225,5.843,10.313-5.843Z" transform="translate(-275.246 -241)" fill="#47286d"/></g><g transform="translate(12.388 0)"><path d="M151.063.14a1.325,1.325,0,0,0-1.185,0l-9.632,4.972,10.225,5.843L160.7,5.112Z" transform="translate(-140.246 0)" fill="#47286d"/></g><g transform="translate(12.013 7.95)"><path d="M136,90v11.037l9.275,4.637V95.3Z" transform="translate(-136 -90)" fill="#47286d"/></g><g transform="translate(0.375 21.288)"><path d="M14.559,241,4.246,246.112l10.313,5.843,10.225-5.843Z" transform="translate(-4.246 -241)" fill="#47286d"/></g><g transform="translate(23.937 7.95)"><path d="M271,95.3v10.375l9.275-4.637V90Z" transform="translate(-271 -90)" fill="#47286d"/></g></g><g transform="translate(1236.63 4692.135)" opacity="0.75"><g transform="translate(0 29.237)"><path d="M0,331v9.919a1.325,1.325,0,0,0,.668,1.15l8.7,4.918V336.3Z" transform="translate(0 -331)" fill="#47286d"/></g><g transform="translate(12.013 29.237)"><path d="M136,336.3v10.688l9.275-5.3V331Z" transform="translate(-136 -331)" fill="#47286d"/></g><g transform="translate(23.938 29.237)"><path d="M271,331v10.688l9.275,5.3V336.3Z" transform="translate(-271 -331)" fill="#47286d"/></g><g transform="translate(35.862 29.237)"><path d="M406,336.3v10.688l8.7-4.918a1.325,1.325,0,0,0,.668-1.15V331Z" transform="translate(-406 -331)" fill="#47286d"/></g><g transform="translate(24.313 21.288)"><path d="M285.471,241l-10.225,5.112,10.225,5.843,10.313-5.843Z" transform="translate(-275.246 -241)" fill="#47286d"/></g><g transform="translate(12.388 0)"><path d="M151.063.14a1.325,1.325,0,0,0-1.185,0l-9.632,4.972,10.225,5.843L160.7,5.112Z" transform="translate(-140.246 0)" fill="#47286d"/></g><g transform="translate(12.013 7.95)"><path d="M136,90v11.037l9.275,4.637V95.3Z" transform="translate(-136 -90)" fill="#47286d"/></g><g transform="translate(0.375 21.288)"><path d="M14.559,241,4.246,246.112l10.313,5.843,10.225-5.843Z" transform="translate(-4.246 -241)" fill="#47286d"/></g><g transform="translate(23.938 7.95)"><path d="M271,95.3v10.375l9.275-4.637V90Z" transform="translate(-271 -90)" fill="#47286d"/></g></g><g transform="translate(1164.637 4734.611)" opacity="0.75"><g transform="translate(0 29.237)"><path d="M0,331v9.919a1.325,1.325,0,0,0,.668,1.15l8.7,4.918V336.3Z" transform="translate(0 -331)" fill="#47286d"/></g><g transform="translate(12.013 29.237)"><path d="M136,336.3v10.688l9.275-5.3V331Z" transform="translate(-136 -331)" fill="#47286d"/></g><g transform="translate(23.938 29.237)"><path d="M271,331v10.688l9.275,5.3V336.3Z" transform="translate(-271 -331)" fill="#47286d"/></g><g transform="translate(35.862 29.237)"><path d="M406,336.3v10.688l8.7-4.918a1.325,1.325,0,0,0,.668-1.15V331Z" transform="translate(-406 -331)" fill="#47286d"/></g><g transform="translate(24.313 21.288)"><path d="M285.471,241l-10.225,5.112,10.225,5.843,10.313-5.843Z" transform="translate(-275.246 -241)" fill="#47286d"/></g><g transform="translate(12.388 0)"><path d="M151.063.14a1.325,1.325,0,0,0-1.185,0l-9.632,4.972,10.225,5.843L160.7,5.112Z" transform="translate(-140.246 0)" fill="#47286d"/></g><g transform="translate(12.013 7.95)"><path d="M136,90v11.037l9.275,4.637V95.3Z" transform="translate(-136 -90)" fill="#47286d"/></g><g transform="translate(0.375 21.288)"><path d="M14.559,241,4.246,246.112l10.313,5.843,10.225-5.843Z" transform="translate(-4.246 -241)" fill="#47286d"/></g><g transform="translate(23.938 7.95)"><path d="M271,95.3v10.375l9.275-4.637V90Z" transform="translate(-271 -90)" fill="#47286d"/></g></g><g transform="translate(1308.623 4735.331)" opacity="0.75"><g transform="translate(0 29.237)"><path d="M0,331v9.919a1.325,1.325,0,0,0,.668,1.15l8.7,4.918V336.3Z" transform="translate(0 -331)" fill="#47286d"/></g><g transform="translate(12.013 29.237)"><path d="M136,336.3v10.688l9.275-5.3V331Z" transform="translate(-136 -331)" fill="#47286d"/></g><g transform="translate(23.938 29.237)"><path d="M271,331v10.688l9.275,5.3V336.3Z" transform="translate(-271 -331)" fill="#47286d"/></g><g transform="translate(35.862 29.237)"><path d="M406,336.3v10.688l8.7-4.918a1.325,1.325,0,0,0,.668-1.15V331Z" transform="translate(-406 -331)" fill="#47286d"/></g><g transform="translate(24.313 21.288)"><path d="M285.471,241l-10.225,5.112,10.225,5.843,10.313-5.843Z" transform="translate(-275.246 -241)" fill="#47286d"/></g><g transform="translate(12.388 0)"><path d="M151.063.14a1.325,1.325,0,0,0-1.185,0l-9.632,4.972,10.225,5.843L160.7,5.112Z" transform="translate(-140.246 0)" fill="#47286d"/></g><g transform="translate(12.013 7.95)"><path d="M136,90v11.037l9.275,4.637V95.3Z" transform="translate(-136 -90)" fill="#47286d"/></g><g transform="translate(0.375 21.288)"><path d="M14.559,241,4.246,246.112l10.313,5.843,10.225-5.843Z" transform="translate(-4.246 -241)" fill="#47286d"/></g><g transform="translate(23.938 7.95)"><path d="M271,95.3v10.375l9.275-4.637V90Z" transform="translate(-271 -90)" fill="#47286d"/></g></g><g transform="translate(1165.357 4692.135)" opacity="0.75"><g transform="translate(0 29.237)"><path d="M0,331v9.919a1.325,1.325,0,0,0,.668,1.15l8.7,4.918V336.3Z" transform="translate(0 -331)" fill="#47286d"/></g><g transform="translate(12.013 29.237)"><path d="M136,336.3v10.688l9.275-5.3V331Z" transform="translate(-136 -331)" fill="#47286d"/></g><g transform="translate(23.938 29.237)"><path d="M271,331v10.688l9.275,5.3V336.3Z" transform="translate(-271 -331)" fill="#47286d"/></g><g transform="translate(35.862 29.237)"><path d="M406,336.3v10.688l8.7-4.918a1.325,1.325,0,0,0,.668-1.15V331Z" transform="translate(-406 -331)" fill="#47286d"/></g><g transform="translate(24.313 21.288)"><path d="M285.471,241l-10.225,5.112,10.225,5.843,10.313-5.843Z" transform="translate(-275.246 -241)" fill="#47286d"/></g><g transform="translate(12.388 0)"><path d="M151.063.14a1.325,1.325,0,0,0-1.185,0l-9.632,4.972,10.225,5.843L160.7,5.112Z" transform="translate(-140.246 0)" fill="#47286d"/></g><g transform="translate(12.013 7.95)"><path d="M136,90v11.037l9.275,4.637V95.3Z" transform="translate(-136 -90)" fill="#47286d"/></g><g transform="translate(0.375 21.288)"><path d="M14.559,241,4.246,246.112l10.313,5.843,10.225-5.843Z" transform="translate(-4.246 -241)" fill="#47286d"/></g><g transform="translate(23.938 7.95)"><path d="M271,95.3v10.375l9.275-4.637V90Z" transform="translate(-271 -90)" fill="#47286d"/></g></g><g transform="translate(1308.623 4692.135)" opacity="0.75"><g transform="translate(0 29.237)"><path d="M0,331v9.919a1.325,1.325,0,0,0,.668,1.15l8.7,4.918V336.3Z" transform="translate(0 -331)" fill="#47286d"/></g><g transform="translate(12.013 29.237)"><path d="M136,336.3v10.688l9.275-5.3V331Z" transform="translate(-136 -331)" fill="#47286d"/></g><g transform="translate(23.938 29.237)"><path d="M271,331v10.688l9.275,5.3V336.3Z" transform="translate(-271 -331)" fill="#47286d"/></g><g transform="translate(35.862 29.237)"><path d="M406,336.3v10.688l8.7-4.918a1.325,1.325,0,0,0,.668-1.15V331Z" transform="translate(-406 -331)" fill="#47286d"/></g><g transform="translate(24.313 21.288)"><path d="M285.471,241l-10.225,5.112,10.225,5.843,10.313-5.843Z" transform="translate(-275.246 -241)" fill="#47286d"/></g><g transform="translate(12.388 0)"><path d="M151.063.14a1.325,1.325,0,0,0-1.185,0l-9.632,4.972,10.225,5.843L160.7,5.112Z" transform="translate(-140.246 0)" fill="#47286d"/></g><g transform="translate(12.013 7.95)"><path d="M136,90v11.037l9.275,4.637V95.3Z" transform="translate(-136 -90)" fill="#47286d"/></g><g transform="translate(0.375 21.288)"><path d="M14.559,241,4.246,246.112l10.313,5.843,10.225-5.843Z" transform="translate(-4.246 -241)" fill="#47286d"/></g><g transform="translate(23.938 7.95)"><path d="M271,95.3v10.375l9.275-4.637V90Z" transform="translate(-271 -90)" fill="#47286d"/></g></g></g><g transform="translate(-7017 -12152)"><rect width="28" height="6" rx="1" transform="translate(1106 4781)" fill="#f17781"/><rect width="28" height="6" rx="1" transform="translate(1106 4791)" fill="#f17781"/></g></g></svg>