<svg xmlns="http://www.w3.org/2000/svg" width="76.165" height="76.165" viewBox="0 0 76.165 76.165"><g transform="translate(3762.471 9090.631)"><path d="M0,73V60H1V0H14V60H73V73Z" transform="translate(-3761 -9089)" fill="#f9e478"/><g transform="translate(-3762.471 -9090.631)"><path d="M14.281,63.471a1.587,1.587,0,0,0,1.587-1.587V1.587A1.587,1.587,0,0,0,14.281,0H1.587A1.587,1.587,0,0,0,0,1.587V74.578a1.587,1.587,0,0,0,1.587,1.587H14.281a1.587,1.587,0,1,0,0-3.174H3.173V3.173h9.521V61.884A1.587,1.587,0,0,0,14.281,63.471Z" fill="#47286d"/><g transform="translate(12.694 60.297)"><path d="M147.217,405.333H86.92a1.587,1.587,0,0,0,0,3.174H145.63v9.521H86.92a1.587,1.587,0,1,0,0,3.173h60.3a1.587,1.587,0,0,0,1.587-1.587V406.92A1.587,1.587,0,0,0,147.217,405.333Z" transform="translate(-85.333 -405.333)" fill="#47286d"/></g><g transform="translate(6.347 9.521)"><path d="M50.6,64H47.427a1.587,1.587,0,1,0,0,3.174h1.587v6.347H47.427a1.587,1.587,0,1,0,0,3.174h1.587v6.347h-4.76a1.587,1.587,0,1,0,0,3.174h4.76v6.347H47.427a1.587,1.587,0,1,0,0,3.174h1.587v6.347H47.427a1.587,1.587,0,1,0,0,3.174h1.587V111.6h-4.76a1.587,1.587,0,0,0,0,3.174H50.6a1.587,1.587,0,0,0,1.587-1.587v-47.6A1.587,1.587,0,0,0,50.6,64Z" transform="translate(-42.667 -64)" fill="#47286d"/></g><g transform="translate(15.868 60.297)"><path d="M155.856,405.333h-47.6a1.587,1.587,0,0,0-1.587,1.587v6.347a1.587,1.587,0,0,0,3.174,0v-4.76h6.347v1.587a1.587,1.587,0,1,0,3.173,0v-1.587h6.347v1.587a1.587,1.587,0,1,0,3.173,0v-1.587h6.347v4.76a1.587,1.587,0,0,0,3.173,0v-4.76h6.347v1.587a1.587,1.587,0,0,0,3.174,0v-1.587h6.347v1.587a1.587,1.587,0,0,0,3.174,0V406.92A1.588,1.588,0,0,0,155.856,405.333Z" transform="translate(-106.666 -405.333)" fill="#47286d"/></g><rect width="44.539" height="40.776" transform="translate(25.124 9.521)" fill="#bb83ff" stroke="#47286d" stroke-linejoin="round" stroke-miterlimit="22.926" stroke-width="3"/></g></g></svg>