<svg xmlns="http://www.w3.org/2000/svg" width="186" height="186" viewBox="0 0 186 186"><g transform="translate(-1169 -7801)"><g transform="translate(1169 7801)" fill="#fff" stroke="#47286d" stroke-width="3" stroke-dasharray="3 4"><circle cx="93" cy="93" r="93" stroke="none"/><circle cx="93" cy="93" r="91.5" fill="none"/></g><circle cx="83" cy="83" r="83" transform="translate(1179 7811)" fill="#f9e478" opacity="0.5"/><path d="M163.226,134.894a22.069,22.069,0,0,1-6.14,8.374,12.665,12.665,0,0,1-7.972,2.752,17.844,17.844,0,0,1-9.892-3.305,43.516,43.516,0,0,1-10.068-9.916l-19.9-26.029-7.2,2.007-2.007,37.243-10.978,1.83L85.052,42.968l6.024-.118.3,7.555,11.1.885,1.122-7.2,5.965.413-.768,7.791L117,54.3l3.6-7.555,5.138,2.42L122.2,56.248a18.75,18.75,0,0,1,5.05,2.863,19.317,19.317,0,0,1,3.691,3.925l5.786-4.073,3.9,4.368-7.5,4.958a16.942,16.942,0,0,1,1.24,4.958,26.525,26.525,0,0,1-.118,6.079l8.5,3.01-2.42,5.194-7.2-2.656a20.982,20.982,0,0,1-1.83,4.633,28.177,28.177,0,0,1-3.069,4.574l5.725,5.076-3.6,4.722-6.433-4.84-3.01,1.653,18.828,29.983a21.6,21.6,0,0,0,2.331,2.951,21.159,21.159,0,0,0,3.04,2.656,17.1,17.1,0,0,0,3.748,2.125,9.42,9.42,0,0,0,3.453.708,8.724,8.724,0,0,0,4.545-1.308,16.547,16.547,0,0,0,4.25-3.857ZM121.321,91.956,114.284,60.5a31.326,31.326,0,0,0-3.992-1.387,41.66,41.66,0,0,0-4.937-1.033l-2.892,43.971a47.626,47.626,0,0,0,10.7-4.073A33.723,33.723,0,0,0,121.321,91.956Z" transform="translate(1148.774 7800.93)" fill="#47286d"/></g></svg>