<svg xmlns="http://www.w3.org/2000/svg" width="51.351" height="51.366" viewBox="0 0 51.351 51.366"><g transform="translate(1 1.015)"><g transform="translate(0 31.904)"><path d="M0,331v10.824a1.445,1.445,0,0,0,.729,1.255l9.489,5.367V336.783Z" transform="translate(0 -331)" fill="none" stroke="#47286d" stroke-linejoin="round" stroke-width="2"/></g><g transform="translate(13.109 31.904)"><path d="M136,336.783v11.663l10.121-5.783V331Z" transform="translate(-136 -331)" fill="none" stroke="#47286d" stroke-linejoin="round" stroke-width="2"/></g><g transform="translate(26.121 31.904)"><path d="M271,331v11.663l10.121,5.783V336.783Z" transform="translate(-271 -331)" fill="none" stroke="#47286d" stroke-linejoin="round" stroke-width="2"/></g><g transform="translate(39.134 31.904)"><path d="M406,336.783v11.663l9.489-5.367a1.445,1.445,0,0,0,.729-1.255V331Z" transform="translate(-406 -331)" fill="none" stroke="#47286d" stroke-linejoin="round" stroke-width="2"/></g><g transform="translate(26.531 23.229)"><path d="M286.4,241l-11.157,5.579,11.157,6.376,11.254-6.376Z" transform="translate(-275.246 -241)" fill="none" stroke="#47286d" stroke-linejoin="round" stroke-width="2"/></g><g transform="translate(13.518 0)"><path d="M152.05.152a1.446,1.446,0,0,0-1.293,0L140.246,5.578,151.4,11.954l11.157-6.376Z" transform="translate(-140.246 0)" fill="none" stroke="#47286d" stroke-linejoin="round" stroke-width="2"/></g><g transform="translate(13.109 8.675)"><path d="M136,90v12.044l10.121,5.06V95.783Z" transform="translate(-136 -90)" fill="none" stroke="#47286d" stroke-linejoin="round" stroke-width="2"/></g><g transform="translate(0.409 23.229)"><path d="M15.5,241,4.246,246.579,15.5,252.955l11.157-6.376Z" transform="translate(-4.246 -241)" fill="none" stroke="#47286d" stroke-linejoin="round" stroke-width="2"/></g><g transform="translate(26.121 8.675)"><path d="M271,95.783V107.1l10.121-5.06V90Z" transform="translate(-271 -90)" fill="none" stroke="#47286d" stroke-linejoin="round" stroke-width="2"/></g></g></svg>